<svg width="92" height="92" viewBox="0 0 92 92" fill="none" xmlns="http://www.w3.org/2000/svg">
<path d="M74.7497 7.66667H17.2497C14.6113 7.66667 12.458 9.81992 12.458 12.4583V67.5625C12.458 68.8914 13.5249 69.9583 14.8538 69.9583H77.1455C78.4744 69.9583 79.5413 68.8914 79.5413 67.5625V12.4583C79.5413 9.81992 77.3851 7.66667 74.7497 7.66667ZM24.4372 60.974C22.79 60.974 21.4424 59.6263 21.4424 57.9792C21.4424 56.332 22.79 54.9844 24.4372 54.9844C26.0843 54.9844 27.432 56.332 27.432 57.9792C27.432 59.6263 26.0843 60.974 24.4372 60.974ZM69.8232 59.1771C69.8232 59.8322 69.2804 60.375 68.6253 60.375H47.0628C46.4077 60.375 45.8649 59.8322 45.8649 59.1771L45.9997 56.7812C45.9997 56.1261 46.5425 55.5833 47.1976 55.5833H68.7601C69.4152 55.5833 69.958 56.1261 69.958 56.7812L69.8232 59.1771ZM69.958 41.2083C69.958 43.8467 67.8048 46 65.1663 46H26.833C24.1946 46 22.0413 43.8438 22.0413 41.2083V22.0417C22.0413 19.4033 24.1946 17.25 26.833 17.25H65.1663C67.8048 17.25 69.958 19.4033 69.958 22.0417V41.2083ZM17.2497 84.3333H74.7497V74.75H17.2497V84.3333Z" fill="white"/>
</svg>
