<?xml version="1.0" encoding="UTF-8"?>
<svg width="1492px" height="328px" viewBox="0 0 1492 328" version="1.1" xmlns="http://www.w3.org/2000/svg" xmlns:xlink="http://www.w3.org/1999/xlink">
    <!-- Generator: Sketch 57.1 (83088) - https://sketch.com -->
    <title>Lines</title>
    <desc>Created with Sketch.</desc>
    <g id="Page-1" stroke="none" stroke-width="1" fill="none" fill-rule="evenodd" fill-opacity="0.1" opacity="0.5">
        <g id="Guide" transform="translate(-917.000000, -1511.000000)" fill="#858199">
            <g id="Lines" transform="translate(1663.000000, 1675.000000) rotate(-3.000000) translate(-1663.000000, -1675.000000) translate(923.000000, 1550.000000)">
                <rect id="Rectangle" x="0" y="128" width="1480" height="2"></rect>
                <rect id="Rectangle" x="0" y="0" width="1480" height="2"></rect>
                <rect id="Rectangle" x="0" y="192" width="1480" height="2"></rect>
                <rect id="Rectangle" x="0" y="64" width="1480" height="2"></rect>
                <rect id="Rectangle" x="0" y="160" width="1480" height="2"></rect>
                <rect id="Rectangle" x="0" y="32" width="1480" height="2"></rect>
                <rect id="Rectangle" x="0" y="224" width="1480" height="2"></rect>
                <rect id="Rectangle" x="0" y="96" width="1480" height="2"></rect>
                <rect id="Rectangle" x="0" y="144" width="1480" height="2"></rect>
                <rect id="Rectangle" x="0" y="16" width="1480" height="2"></rect>
                <rect id="Rectangle" x="0" y="208" width="1480" height="2"></rect>
                <rect id="Rectangle" x="0" y="80" width="1480" height="2"></rect>
                <rect id="Rectangle" x="0" y="176" width="1480" height="2"></rect>
                <rect id="Rectangle" x="0" y="48" width="1480" height="2"></rect>
                <rect id="Rectangle" x="0" y="240" width="1480" height="2"></rect>
                <rect id="Rectangle" x="0" y="112" width="1480" height="2"></rect>
                <rect id="Rectangle" x="0" y="136" width="1480" height="2"></rect>
                <rect id="Rectangle" x="0" y="8" width="1480" height="2"></rect>
                <rect id="Rectangle" x="0" y="200" width="1480" height="2"></rect>
                <rect id="Rectangle" x="0" y="72" width="1480" height="2"></rect>
                <rect id="Rectangle" x="0" y="168" width="1480" height="2"></rect>
                <rect id="Rectangle" x="0" y="40" width="1480" height="2"></rect>
                <rect id="Rectangle" x="0" y="232" width="1480" height="2"></rect>
                <rect id="Rectangle" x="0" y="104" width="1480" height="2"></rect>
                <rect id="Rectangle" x="0" y="152" width="1480" height="2"></rect>
                <rect id="Rectangle" x="0" y="24" width="1480" height="2"></rect>
                <rect id="Rectangle" x="0" y="216" width="1480" height="2"></rect>
                <rect id="Rectangle" x="0" y="88" width="1480" height="2"></rect>
                <rect id="Rectangle" x="0" y="184" width="1480" height="2"></rect>
                <rect id="Rectangle" x="0" y="56" width="1480" height="2"></rect>
                <rect id="Rectangle" x="0" y="248" width="1480" height="2"></rect>
                <rect id="Rectangle" x="0" y="120" width="1480" height="2"></rect>
            </g>
        </g>
    </g>
</svg>