<svg width="12" height="13" viewBox="0 0 12 13" fill="none" xmlns="http://www.w3.org/2000/svg">
<path fill-rule="evenodd" clip-rule="evenodd" d="M1.84956 3.60529C2.08296 3.60529 2.33236 3.71724 2.48306 3.87809L6 7.36799L9.56628 3.83048C9.71566 3.68507 9.94906 3.60529 10.1504 3.60529C10.6159 3.60529 11 3.97589 11 4.425C11 4.6502 10.9 4.85995 10.7333 5.0208L6.60016 9.10522C6.44945 9.26608 6.2334 9.39476 6 9.39476C5.78261 9.39476 5.54921 9.24935 5.39984 9.10522L1.26674 5.0208C1.06669 4.82778 1 4.61803 1 4.425C1 3.97589 1.38277 3.60529 1.84956 3.60529Z" fill="#C2C0CC"/>
</svg>
