<svg width="40" height="40" viewBox="0 0 40 40" fill="none" xmlns="http://www.w3.org/2000/svg">
<g id="AWB">
<path id="Document" fill-rule="evenodd" clip-rule="evenodd" d="M32.427 36.6666H7.57319C6.76545 36.6666 6.11121 36.018 6.11121 35.2173V4.78253C6.11121 3.9818 6.76545 3.33325 7.57319 3.33325H25.1171L33.889 12.0289V35.2173C33.889 36.018 33.2347 36.6666 32.427 36.6666Z" fill="#F7F7F9"/>
<path id="Intersect" d="M33.8728 12.0127H26.5792C25.7714 12.0127 25.1172 11.3641 25.1172 10.5634V3.33325L33.8728 12.0127Z" fill="#EAEAEA"/>
<path id="Mask" fill-rule="evenodd" clip-rule="evenodd" d="M3.33337 18.3333L6.11115 15.8333V18.3333H33.8889V15.8333L36.6667 18.3333V30.9258C36.6667 31.7955 36.0182 32.4999 35.2174 32.4999H4.78265C3.98192 32.4999 3.33337 31.7955 3.33337 30.9258V18.3333ZM8.78261 27.7955L8.20319 29.8333H6.05475L8.91933 20.9465H11.5495L14.3946 29.8333H12.1029L11.53 27.7955H8.78261ZM11.1459 26.2395L10.2214 22.8736H10.1238L9.17975 26.2395H11.1459ZM19.7722 24.1887L18.2618 29.8333H16.2566L13.9779 20.9465H16.2305L17.3894 26.9036H17.4805L18.9324 20.9465H20.6902L22.142 26.9036H22.2396L23.3855 20.9465H25.6381L23.3594 29.8333H21.3542L19.8503 24.1887H19.7722ZM30.5274 29.8333H26.5235V20.9465H30.4623C32.0964 20.9465 33.1967 21.7603 33.1967 23.1275C33.1967 24.2603 32.4675 24.8984 31.6081 25.0676V25.1653C32.5977 25.2369 33.6199 25.914 33.6199 27.3137C33.6199 28.9283 32.2592 29.8333 30.5274 29.8333ZM29.9154 22.47H28.6524V24.5598H29.6876C30.6706 24.5598 31.0938 24.1301 31.0938 23.4986C31.0938 22.8736 30.6641 22.47 29.9154 22.47ZM30.0196 25.94H28.6524V28.3098H29.8047C30.9571 28.3098 31.4324 27.8606 31.4324 27.1379C31.4324 26.4153 30.9571 25.94 30.0196 25.94Z" fill="#2B618B"/>
<path id="Shape" opacity="0.5" d="M6.11115 18.3333H3.33337L6.11115 15.8333V18.3333ZM33.8889 18.3333V15.8333L36.6667 18.3333H33.8889Z" fill="#F7F7F9"/>
</g>
</svg>
