<?xml version="1.0" encoding="UTF-8"?>
<svg width="24px" height="24px" viewBox="0 0 24 24" version="1.1" xmlns="http://www.w3.org/2000/svg" xmlns:xlink="http://www.w3.org/1999/xlink">
    <g id="Assets" stroke="none" stroke-width="1" fill="none" fill-rule="evenodd">
        <g id="assets" transform="translate(-1032.000000, -559.000000)">
            <g id="icon/Filetype" transform="translate(1032.000000, 559.000000)">
                <path d="M20.9473684,24 L3.05263158,24 C2.47105263,24 2,23.5330435 2,22.9565217 L2,1.04347826 C2,0.466956522 2.47105263,0 3.05263158,0 L15.6842105,0 L22,6.26086957 L22,22.9565217 C22,23.5330435 21.5289474,24 20.9473684,24 Z" id="Document" fill="#F2F2F4"></path>
                <path d="M2,9.082 L2,11 L22,11 L22,9.083 L24,11 L22.4347826,13 L1.56521739,13 L0,11 L2,9.082 Z" id="Combined-Shape" fill="#B989E2" fill-rule="nonzero"></path>
                <path d="M22.9565217,21 L1.04347826,21 C0.466956522,21 0,20.5027778 0,19.8888889 L0,11 L24,11 L24,19.8888889 C24,20.5027778 23.5330435,21 22.9565217,21 Z" id="Path" fill="#7E1BCC"></path>
                <path d="M16,0 L16,5 C16,5.5525 16.4475,6 17,6 L22,6 L16,0 Z" id="Corner" fill="#DAD9E0"></path>
                <path d="M2,11 L0,11 L2,9.08333333 L2,11 Z M22,11 L22,9.08333333 L24,11 L22,11 Z" id="Shape" fill="#F7F7F9" fill-rule="nonzero" opacity="0.5"></path>
                <path d="M10.4589844,13.3125 L9.22460938,19 L7.93164062,19 L7.08398438,15.4023438 L6.24414062,19 L4.95117188,19 L3.71289062,13.3125 L4.97070312,13.3125 L5.68554688,17.1914062 L6.54882812,13.3125 L7.62304688,13.3125 L8.49023438,17.1914062 L9.20507812,13.3125 L10.4589844,13.3125 Z M13.9628906,17.9023438 L11.9785156,17.9023438 L11.6230469,19 L10.2714844,19 L12.3769531,13.3125 L13.5605469,13.3125 L15.6738281,19 L14.3222656,19 L13.9628906,17.9023438 Z M13.6308594,16.8789062 L12.9707031,14.8515625 L12.3144531,16.8789062 L13.6308594,16.8789062 Z M20.3964844,13.3125 L18.4433594,19 L17.0917969,19 L15.1503906,13.3125 L16.5566406,13.3125 L17.7675781,17.5 L18.9824219,13.3125 L20.3964844,13.3125 Z" id="WAV" fill="#FFFFFF" fill-rule="nonzero"></path>
            </g>
        </g>
    </g>
</svg>