<svg width="40" height="40" viewBox="0 0 40 40" fill="none" xmlns="http://www.w3.org/2000/svg">
<g id="OGM">
<path id="Document" fill-rule="evenodd" clip-rule="evenodd" d="M32.4271 36.6666H7.57326C6.76551 36.6666 6.11127 36.018 6.11127 35.2173V4.78253C6.11127 3.9818 6.76551 3.33325 7.57326 3.33325H25.1171L33.889 12.0289V35.2173C33.889 36.018 33.2348 36.6666 32.4271 36.6666Z" fill="#F7F7F9"/>
<path id="Intersect" d="M33.8728 12.0127H26.5792C25.7714 12.0127 25.1172 11.3641 25.1172 10.5634V3.33325L33.8728 12.0127Z" fill="#EAEAEA"/>
<path id="Mask" fill-rule="evenodd" clip-rule="evenodd" d="M3.33331 18.3333L6.11109 15.8333V18.3333H33.8889V15.8333L36.6666 18.3333V30.9258C36.6666 31.7955 36.0181 32.4999 35.2174 32.4999H4.78259C3.98186 32.4999 3.33331 31.7955 3.33331 30.9258V18.3333ZM14.2513 24.8984V25.9335C14.2513 28.4335 12.7995 29.996 10.2799 29.996C7.76693 29.996 6.3151 28.4335 6.3151 25.9335V24.8984C6.3151 22.3723 7.77995 20.7903 10.293 20.7903C12.806 20.7903 14.2513 22.3853 14.2513 24.8984ZM12.0508 25.94V24.8723C12.0508 23.3359 11.3346 22.5351 10.2865 22.5351C9.23177 22.5351 8.51562 23.3359 8.51562 24.8723V25.94C8.51562 27.483 9.23177 28.2447 10.2865 28.2447C11.3346 28.2447 12.0508 27.483 12.0508 25.94ZM19.1992 20.7903C21.582 20.7903 22.8255 22.2681 22.8646 23.8827H20.7812C20.6901 23.1275 20.1367 22.5481 19.1862 22.5481C18.0534 22.5481 17.4349 23.3684 17.4349 24.8137V25.8879C17.4349 27.2226 17.9036 28.2317 19.2448 28.2317C20.2604 28.2317 20.8464 27.5872 20.8464 26.8385V26.4609H19.3034V24.9504H22.8711V26.6757C22.8711 28.4075 21.6927 29.996 19.1927 29.996C16.4453 29.996 15.2604 28.2187 15.2604 25.8945V24.7942C15.2604 22.4309 16.6536 20.7903 19.1992 20.7903ZM26.1654 24.332V29.8333H24.2513V20.9465H26.4779L28.7565 25.9661H28.8216L31.1068 20.9465H33.3073V29.8333H31.3737V24.332H31.2826L29.4076 28.4921H28.1445L26.263 24.332H26.1654Z" fill="#5547C4"/>
<path id="Shape" opacity="0.5" d="M6.11109 18.3333H3.33331L6.11109 15.8333V18.3333ZM33.8889 18.3333V15.8333L36.6666 18.3333H33.8889Z" fill="#F7F7F9"/>
</g>
</svg>
