<svg width="23" height="23" viewBox="0 0 23 23" fill="none" xmlns="http://www.w3.org/2000/svg">
<path d="M17.7054 5.67767L15.0331 3.00501C14.6009 2.5754 14.0173 2.33398 13.4121 2.33398H6.91667C5.65088 2.33398 4.625 3.35986 4.625 4.62565L4.62523 18.3757C4.62523 19.6411 5.65111 20.6673 6.9169 20.6673H16.0833C17.3438 20.6673 18.375 19.6361 18.375 18.3757V7.29688C18.375 6.69173 18.1351 6.10807 17.7054 5.67767ZM16.6562 18.3757C16.6562 18.692 16.3997 18.9486 16.0833 18.9486H6.91738C6.60092 18.9486 6.34447 18.692 6.34447 18.3757L6.34375 4.63031C6.34375 4.31391 6.60027 4.05739 6.91667 4.05739H12.6458V6.91732C12.6458 7.55003 13.159 8.06315 13.7917 8.06315H16.624V18.3757H16.6562ZM9.78125 11.4756V15.5827C9.59505 15.5397 9.40169 15.5111 9.20833 15.5111C8.25944 15.5111 7.48958 16.026 7.48958 16.6569C7.48958 17.2878 8.25944 17.8027 9.20833 17.8027C10.1572 17.8027 10.9271 17.2878 10.9271 16.6569V13.0439L14.3646 11.7012V14.4368C14.1784 14.3939 13.985 14.3652 13.7917 14.3652C12.8428 14.3652 12.0729 14.8801 12.0729 15.5111C12.0729 16.142 12.8428 16.6569 13.7917 16.6569C14.7406 16.6569 15.5104 16.142 15.5104 15.5111V9.7819C15.5104 9.59839 15.4254 9.4283 15.2777 9.3207C15.13 9.2131 14.9375 9.18392 14.7692 9.23763L10.1859 10.9295C9.94238 11.0029 9.78125 11.2249 9.78125 11.4756Z" fill="#AAA7B8"/>
</svg>
