<svg width="206" height="32" viewBox="0 0 206 32" fill="none" xmlns="http://www.w3.org/2000/svg">
<path fill-rule="evenodd" clip-rule="evenodd" d="M6.1037 0C2.73272 0 0 2.73272 0 6.1037V25.8963C0 29.2673 2.73271 32 6.1037 32H199.896C203.267 32 206 29.2673 206 25.8963V6.1037C206 2.73272 203.267 0 199.896 0H6.1037ZM46.0931 10.5107C46.7645 10.5514 47.4308 10.704 48.092 10.9685C48.7635 11.2228 49.3586 11.5789 49.8774 12.0367L47.619 14.2798C47.3749 13.9848 47.0748 13.761 46.7187 13.6084C46.3627 13.4558 46.0422 13.3795 45.7574 13.3795C45.4929 13.3795 45.2793 13.4151 45.1165 13.4863C44.9537 13.5575 44.8723 13.6796 44.8723 13.8525C44.8723 14.0153 44.9537 14.1374 45.1165 14.2187C45.2894 14.2899 45.5641 14.3866 45.9405 14.5087C46.3271 14.6307 46.734 14.7732 47.1612 14.9359C47.5885 15.0885 47.9801 15.292 48.3362 15.5463C48.7024 15.7904 49.0025 16.1007 49.2365 16.4771C49.4705 16.8433 49.5875 17.296 49.5875 17.8352C49.5875 18.4049 49.4857 18.9084 49.2823 19.3458C49.0788 19.7833 48.8092 20.1597 48.4735 20.475C48.1378 20.7802 47.7462 21.0193 47.2986 21.1922C46.8611 21.3652 46.4034 21.472 45.9252 21.5127V22.6724H44.3688V21.5279C43.6567 21.4771 42.9649 21.3143 42.2935 21.0396C41.6323 20.765 41.0626 20.4242 40.5845 20.0173L42.7971 17.6673C42.9192 17.7996 43.0667 17.9267 43.2396 18.0488C43.4227 18.1709 43.616 18.2828 43.8195 18.3845C44.0229 18.4761 44.2315 18.5524 44.4451 18.6134C44.6689 18.6643 44.8927 18.6897 45.1165 18.6897C45.32 18.6897 45.5031 18.6541 45.6658 18.5829C45.8388 18.5117 45.9252 18.3845 45.9252 18.2014C45.9252 18.0997 45.8947 18.0132 45.8337 17.942C45.7828 17.8708 45.6862 17.7996 45.5438 17.7284C45.4013 17.6572 45.203 17.5809 44.9486 17.4995C44.7045 17.4079 44.3942 17.3011 44.0178 17.179C43.6516 17.057 43.3006 16.9145 42.9649 16.7518C42.6292 16.589 42.3291 16.3906 42.0646 16.1567C41.8103 15.9125 41.6069 15.6226 41.4543 15.2869C41.3017 14.9512 41.2254 14.5544 41.2254 14.0967C41.2254 13.5575 41.3169 13.0845 41.5 12.6775C41.6832 12.2605 41.9273 11.9095 42.2325 11.6247C42.5377 11.3296 42.8886 11.0957 43.2854 10.9227C43.6923 10.7396 44.1094 10.6125 44.5366 10.5413V9.41207H46.0931V10.5107ZM56.5487 14.3713L55.6636 17.0417H57.4184L56.5487 14.3713ZM54.6718 10.6023H58.5324L62.7439 21.4058H58.7918L58.2272 19.8189H54.7938L54.2598 21.4058H50.4144L54.6718 10.6023ZM68.0967 21.711C67.2524 21.711 66.5148 21.594 65.8841 21.3601C65.2636 21.1261 64.7448 20.8056 64.3277 20.3987C63.9106 19.9918 63.6003 19.5137 63.3969 18.9644C63.1934 18.4049 63.0917 17.8047 63.0917 17.1638V10.6023H66.7234V16.767C66.7234 17.2858 66.8454 17.6928 67.0896 17.9878C67.3439 18.2726 67.7 18.415 68.1577 18.415C68.6155 18.415 68.9665 18.2726 69.2106 17.9878C69.465 17.6928 69.5921 17.2858 69.5921 16.767V10.6023H73.2085V17.1638C73.2085 17.8047 73.0966 18.4049 72.8728 18.9644C72.6592 19.5137 72.3388 19.9918 71.9115 20.3987C71.4843 20.8056 70.9502 21.1261 70.3093 21.3601C69.6786 21.594 68.941 21.711 68.0967 21.711ZM78.5705 13.6847V18.293H79.2419C80.0964 18.293 80.7526 18.1098 81.2104 17.7436C81.6681 17.3672 81.897 16.7569 81.897 15.9125C81.897 15.2106 81.6681 14.6663 81.2104 14.2798C80.7526 13.883 80.1422 13.6847 79.3793 13.6847H78.5705ZM75.0761 21.4058V10.6023H79.1046C79.9591 10.6023 80.7729 10.6888 81.5461 10.8617C82.3294 11.0245 83.016 11.3144 83.6061 11.7315C84.2063 12.1384 84.6844 12.6826 85.0404 13.3642C85.3965 14.0458 85.5745 14.9054 85.5745 15.943C85.5745 16.8891 85.4016 17.708 85.0557 18.3998C84.72 19.0915 84.2673 19.6612 83.6976 20.1088C83.1279 20.5462 82.4718 20.8718 81.7292 21.0854C80.9866 21.299 80.2134 21.4058 79.4098 21.4058H75.0761ZM87.1018 10.6023H90.764V21.4058H87.1018V10.6023ZM96.1516 15.943C96.1516 16.2991 96.2024 16.6246 96.3042 16.9196C96.4161 17.2146 96.5636 17.469 96.7467 17.6826C96.94 17.8962 97.1688 18.0641 97.4333 18.1861C97.6978 18.298 97.9827 18.354 98.2879 18.354C98.593 18.354 98.8728 18.298 99.1271 18.1861C99.3916 18.0641 99.6205 17.8962 99.8138 17.6826C100.007 17.469 100.155 17.2146 100.256 16.9196C100.368 16.6246 100.424 16.2991 100.424 15.943C100.424 15.5972 100.368 15.2818 100.256 14.997C100.155 14.7019 100.007 14.4578 99.8138 14.2645C99.6205 14.0611 99.3916 13.9034 99.1271 13.7915C98.8728 13.6796 98.593 13.6236 98.2879 13.6236C97.9827 13.6236 97.6978 13.6796 97.4333 13.7915C97.1688 13.9034 96.94 14.0611 96.7467 14.2645C96.5636 14.4578 96.4161 14.7019 96.3042 14.997C96.2024 15.2818 96.1516 15.5972 96.1516 15.943ZM92.291 15.943C92.291 15.0783 92.4436 14.3001 92.7487 13.6084C93.0539 12.9064 93.471 12.3113 94 11.823C94.5392 11.3347 95.175 10.9583 95.9074 10.6938C96.6399 10.4294 97.4333 10.2971 98.2879 10.2971C99.1424 10.2971 99.9359 10.4294 100.668 10.6938C101.401 10.9583 102.037 11.3347 102.576 11.823C103.115 12.3113 103.537 12.9064 103.842 13.6084C104.147 14.3001 104.3 15.0783 104.3 15.943C104.3 16.8077 104.147 17.5961 103.842 18.3082C103.537 19.0203 103.115 19.6307 102.576 20.1393C102.037 20.6378 101.401 21.0244 100.668 21.299C99.9359 21.5737 99.1424 21.711 98.2879 21.711C97.4333 21.711 96.6399 21.5737 95.9074 21.299C95.175 21.0244 94.5392 20.6378 94 20.1393C93.471 19.6307 93.0539 19.0203 92.7487 18.3082C92.4436 17.5961 92.291 16.8077 92.291 15.943ZM113.127 15.1648H113.844C113.966 15.1648 114.099 15.1546 114.241 15.1343C114.394 15.1139 114.531 15.0733 114.653 15.0122C114.785 14.941 114.892 14.8495 114.973 14.7375C115.065 14.6155 115.111 14.4578 115.111 14.2645C115.111 14.0712 115.075 13.9186 115.004 13.8067C114.933 13.6948 114.841 13.6135 114.729 13.5626C114.617 13.5015 114.495 13.4659 114.363 13.4558C114.231 13.4354 114.109 13.4253 113.997 13.4253H113.127V15.1648ZM109.648 10.6023H114.302C114.831 10.6023 115.355 10.6582 115.874 10.7701C116.403 10.8719 116.871 11.0601 117.278 11.3347C117.695 11.5992 118.03 11.9604 118.285 12.4181C118.539 12.8657 118.666 13.4303 118.666 14.1119C118.666 14.7732 118.503 15.3581 118.178 15.8667C117.852 16.3652 117.384 16.7518 116.774 17.0264L119.521 21.4058H115.34L113.264 17.5453H113.158V21.4058H109.648V10.6023ZM120.541 10.6023H127.972V13.6236H123.959V14.5544H127.728V17.3774H123.959V18.3845H128.232V21.4058H120.541V10.6023ZM135.335 21.4058H131.673L128.728 10.6023H132.574L133.733 16.6755H133.794L135.046 10.6023H138.845L140.203 16.6755H140.264L141.439 10.6023H145.162L142.156 21.4058H138.494L136.968 15.3021H136.907L135.335 21.4058ZM150.876 14.3713L149.991 17.0417H151.746L150.876 14.3713ZM148.999 10.6023H152.86L157.071 21.4058H153.119L152.554 19.8189H149.121L148.587 21.4058H144.742L148.999 10.6023ZM161.319 15.1648H162.036C162.158 15.1648 162.29 15.1546 162.433 15.1343C162.585 15.1139 162.723 15.0733 162.845 15.0122C162.977 14.941 163.084 14.8495 163.165 14.7375C163.257 14.6155 163.303 14.4578 163.303 14.2645C163.303 14.0712 163.267 13.9186 163.196 13.8067C163.125 13.6948 163.033 13.6135 162.921 13.5626C162.809 13.5015 162.687 13.4659 162.555 13.4558C162.423 13.4354 162.301 13.4253 162.189 13.4253H161.319V15.1648ZM157.84 10.6023H162.494C163.023 10.6023 163.547 10.6582 164.066 10.7701C164.595 10.8719 165.062 11.0601 165.469 11.3347C165.886 11.5992 166.222 11.9604 166.476 12.4181C166.731 12.8657 166.858 13.4303 166.858 14.1119C166.858 14.7732 166.695 15.3581 166.37 15.8667C166.044 16.3652 165.576 16.7518 164.966 17.0264L167.712 21.4058H163.531L161.456 17.5453H161.349V21.4058H157.84V10.6023ZM172.227 13.6847V18.293H172.899C173.753 18.293 174.409 18.1098 174.867 17.7436C175.325 17.3672 175.554 16.7569 175.554 15.9125C175.554 15.2106 175.325 14.6663 174.867 14.2798C174.409 13.883 173.799 13.6847 173.036 13.6847H172.227ZM168.733 21.4058V10.6023H172.761C173.616 10.6023 174.43 10.6888 175.203 10.8617C175.986 11.0245 176.673 11.3144 177.263 11.7315C177.863 12.1384 178.341 12.6826 178.697 13.3642C179.053 14.0458 179.231 14.9054 179.231 15.943C179.231 16.8891 179.058 17.708 178.712 18.3998C178.377 19.0915 177.924 19.6612 177.354 20.1088C176.785 20.5462 176.128 20.8718 175.386 21.0854C174.643 21.299 173.87 21.4058 173.066 21.4058H168.733ZM184.299 21.711C183.861 21.711 183.429 21.6703 183.002 21.589C182.584 21.5177 182.178 21.4109 181.781 21.2685C181.394 21.1159 181.028 20.943 180.682 20.7497C180.336 20.5462 180.026 20.3224 179.751 20.0783L181.964 17.6673C182.218 17.942 182.554 18.1861 182.971 18.3998C183.398 18.6134 183.836 18.7202 184.283 18.7202C184.487 18.7202 184.67 18.6846 184.833 18.6134C185.006 18.5422 185.092 18.4099 185.092 18.2167C185.092 18.1149 185.062 18.0285 185.001 17.9573C184.95 17.886 184.853 17.8148 184.711 17.7436C184.568 17.6622 184.37 17.5758 184.115 17.4842C183.871 17.3927 183.561 17.2858 183.185 17.1638C182.818 17.0417 182.467 16.8993 182.132 16.7365C181.796 16.5636 181.496 16.355 181.231 16.1109C180.977 15.8667 180.774 15.5768 180.621 15.2411C180.469 14.8952 180.392 14.4832 180.392 14.0051C180.392 13.3337 180.53 12.764 180.804 12.2961C181.079 11.8281 181.43 11.4466 181.857 11.1516C182.295 10.8464 182.783 10.6277 183.322 10.4955C183.861 10.3632 184.395 10.2971 184.924 10.2971C185.636 10.2971 186.359 10.4344 187.091 10.7091C187.834 10.9838 188.485 11.3805 189.044 11.8993L186.786 14.2035C186.542 13.8983 186.242 13.6694 185.886 13.5168C185.529 13.354 185.209 13.2727 184.924 13.2727C184.66 13.2727 184.446 13.3134 184.283 13.3947C184.121 13.4659 184.039 13.588 184.039 13.761C184.039 13.9237 184.121 14.0458 184.283 14.1272C184.456 14.2086 184.731 14.3103 185.107 14.4324C185.494 14.5544 185.901 14.6969 186.328 14.8596C186.755 15.0224 187.147 15.236 187.503 15.5005C187.869 15.7548 188.169 16.0702 188.403 16.4466C188.637 16.823 188.754 17.2909 188.754 17.8504C188.754 18.5015 188.622 19.0712 188.358 19.5595C188.103 20.0376 187.762 20.4394 187.335 20.765C186.918 21.0803 186.445 21.3143 185.916 21.4669C185.387 21.6296 184.848 21.711 184.299 21.711ZM32.3334 12.5281C32.3334 13.1673 31.8152 13.6855 31.176 13.6855C31.1723 13.6855 31.169 13.6845 31.1657 13.6835C31.1625 13.6825 31.1592 13.6815 31.1557 13.6814L29.6938 21.7215C29.6138 22.1617 29.2303 22.4818 28.7828 22.4818H19.2173C18.7698 22.4818 18.3863 22.1617 18.3063 21.7215L16.8444 13.6814C16.8409 13.6815 16.8376 13.6825 16.8344 13.6835C16.8311 13.6845 16.8278 13.6855 16.8241 13.6855C16.1849 13.6855 15.6667 13.1673 15.6667 12.5281C15.6667 11.8889 16.1849 11.3707 16.8241 11.3707C17.4634 11.3707 17.9815 11.8889 17.9815 12.5281C17.9815 12.7885 17.8796 13.0168 17.7345 13.2101L20.3279 15.2848C20.7882 15.653 21.4709 15.5031 21.7345 14.9759L23.4011 11.6426C23.073 11.4384 22.8426 11.0912 22.8426 10.6762C22.8426 10.037 23.3608 9.51884 24 9.51884C24.6393 9.51884 25.1574 10.037 25.1574 10.6762C25.1574 11.0912 24.927 11.4384 24.599 11.6426L26.2656 14.9759C26.5292 15.5031 27.2119 15.653 27.6722 15.2848L30.2656 13.2101C30.1204 13.0168 30.0186 12.7885 30.0186 12.5281C30.0186 11.8889 30.5367 11.3707 31.176 11.3707C31.8152 11.3707 32.3334 11.8889 32.3334 12.5281Z" fill="white"/>
</svg>
