<svg width="32" height="40" viewBox="0 0 32 40" fill="none" xmlns="http://www.w3.org/2000/svg">
<path d="M13.6868 13.7944L13.4993 14.1668H10.9993C10.5384 14.1668 10.166 14.5392 10.166 15.0002C10.166 15.4611 10.5384 15.8335 10.9993 15.8335H20.9993C21.4603 15.8335 21.8327 15.4611 21.8327 15.0002C21.8327 14.5392 21.4603 14.1668 20.9993 14.1668H18.4993L18.3118 13.7944C18.1712 13.5106 17.8822 13.3335 17.5671 13.3335H14.4316C14.1165 13.3335 13.8275 13.5106 13.6868 13.7944ZM20.9993 16.6668H10.9993L11.5514 25.495C11.5931 26.1538 12.14 26.6668 12.7988 26.6668H19.1999C19.8587 26.6668 20.4056 26.1538 20.4473 25.495L20.9993 16.6668Z" fill="#C2C0CC"/>
</svg>
