<svg width="24" height="24" viewBox="0 0 24 24" fill="none" xmlns="http://www.w3.org/2000/svg">
<path fill-rule="evenodd" clip-rule="evenodd" d="M12.4937 1.11268C12.1817 0.962438 11.8183 0.962439 11.5063 1.11268L3.59749 4.92137C3.2855 5.07161 3.05891 5.35575 2.98185 5.69335L1.02854 14.2514C0.951484 14.589 1.03235 14.9433 1.24826 15.214L6.72132 22.077C6.93722 22.3478 7.26466 22.5055 7.61094 22.5055H16.3891C16.7353 22.5055 17.0628 22.3478 17.2787 22.077L22.7517 15.214C22.9676 14.9433 23.0485 14.589 22.9715 14.2514L21.0181 5.69335C20.9411 5.35575 20.7145 5.07161 20.4025 4.92136L12.4937 1.11268ZM13.69 6.86452C13.6991 6.70146 13.5693 6.56427 13.406 6.56427H10.5938C10.4305 6.56427 10.3007 6.70146 10.3098 6.86452L10.6957 13.8119C10.7065 14.0068 10.9064 14.1334 11.0946 14.0818C11.3829 14.0027 11.6865 13.9604 11.9999 13.9604C12.3133 13.9604 12.6169 14.0027 12.9052 14.0818C13.0933 14.1334 13.2932 14.0068 13.304 13.8119L13.69 6.86452ZM12 18.5119C12.9426 18.5119 13.7068 17.7477 13.7068 16.8051C13.7068 15.8624 12.9426 15.0983 12 15.0983C11.0574 15.0983 10.2932 15.8624 10.2932 16.8051C10.2932 17.7477 11.0574 18.5119 12 18.5119Z" fill="#858199"/>
</svg>
