<svg width="22" height="23" viewBox="0 0 22 23" fill="none" xmlns="http://www.w3.org/2000/svg">
<path fill-rule="evenodd" clip-rule="evenodd" d="M3.66342 17.5422C4.02407 18.1403 4.68682 18.5082 5.40577 18.5104H9.32606L8.64458 17.7114C8.08721 17.0546 8.08721 16.1112 8.64458 15.4544L9.38227 14.5989H6.94438C6.71488 14.5989 6.50177 14.4793 6.38702 14.2875C6.27227 14.0956 6.27461 13.8586 6.38936 13.6668L7.65865 11.5271L9.0708 12.3057C9.13871 12.3419 9.22302 12.3351 9.27923 12.2877C9.33777 12.2403 9.35885 12.1613 9.33075 12.0913L7.67973 7.91348C7.63757 7.80288 7.52751 7.7284 7.40339 7.72614H7.35187L2.78288 8.48C2.71262 8.4958 2.65642 8.54997 2.64471 8.61994C2.633 8.68991 2.66344 8.75988 2.72433 8.79825L4.14116 9.5792L2.10374 13.0258C1.74309 13.6307 1.74309 14.3732 2.10374 14.9759L3.66342 17.5422Z" fill="#AAA7B8"/>
<path fill-rule="evenodd" clip-rule="evenodd" d="M11.6926 9.70494L16.1101 10.4222H16.1575C16.2774 10.4222 16.3859 10.3487 16.4266 10.2373L17.9978 6.11191C18.0249 6.04285 18.0046 5.96489 17.9481 5.91811C17.8915 5.87133 17.8102 5.86242 17.7469 5.90029L16.3836 6.67993L14.3942 3.29629C14.0415 2.70153 13.3972 2.33398 12.7009 2.33398H9.72572C9.02715 2.33621 8.38284 2.70376 8.03468 3.29851L6.14696 6.5396L7.16656 6.36808C8.00303 6.22774 8.82595 6.68884 9.12889 7.47294L9.51774 8.47979L10.6798 6.49059C10.7905 6.30125 10.9963 6.18319 11.2178 6.18319C11.4371 6.18319 11.6406 6.29679 11.7536 6.48168L12.9948 8.59785L11.6315 9.3775C11.5592 9.41091 11.5185 9.48664 11.5321 9.56461C11.5479 9.64035 11.6134 9.69826 11.6926 9.70494Z" fill="#AAA7B8"/>
<path fill-rule="evenodd" clip-rule="evenodd" d="M17.3695 11.2074C17.1358 11.8355 16.4872 12.2132 15.8226 12.104L14.4567 11.8719L15.7057 14.0291C15.8203 14.2249 15.8203 14.4661 15.7057 14.6618C15.5889 14.8575 15.3757 14.9735 15.1488 14.969H12.6486V13.3806C12.6486 13.3305 12.6279 13.285 12.5913 13.2509C12.5569 13.2168 12.5065 13.2008 12.4584 13.2031C12.4056 13.2031 12.3552 13.2281 12.3231 13.2691L9.44931 16.753C9.35993 16.86 9.35993 17.0147 9.44931 17.1194L12.3323 20.6011C12.3644 20.6421 12.4148 20.6671 12.4675 20.6671C12.5156 20.6694 12.5661 20.6534 12.6004 20.6193C12.6371 20.5852 12.6577 20.5397 12.6577 20.4919V18.9035H16.6705C17.3787 18.9035 18.0318 18.528 18.3871 17.9204L19.9019 15.3285C20.2548 14.7209 20.2548 13.97 19.9019 13.3624L17.8737 9.883L17.3695 11.2074Z" fill="#AAA7B8"/>
</svg>
