<?xml version="1.0" encoding="UTF-8"?>
<svg width="24px" height="24px" viewBox="0 0 24 24" version="1.1" xmlns="http://www.w3.org/2000/svg" xmlns:xlink="http://www.w3.org/1999/xlink">
    <g id="Misc" stroke="none" stroke-width="1" fill="none" fill-rule="evenodd">
        <g id="Menu" transform="translate(-116.000000, -556.000000)">
            <g id="Group-5" transform="translate(44.000000, 158.000000)">
                <g id="Group-4" transform="translate(68.000000, 234.000000)">
                    <g id="Group-3" transform="translate(0.000000, 160.000000)">
                        <g id="icon/rising">
                            <rect id="bound" x="0" y="0" width="32" height="32"></rect>
                            <path d="M11.2875172,26.5660622 C10.5651793,27.432651 9.36209654,28 8,28 C5.790861,28 4,26.5076158 4,24.6666667 C4,22.8257175 5.790861,21.3333333 8,21.3333333 C8.4675139,21.3333333 8.91629477,21.4001714 9.33333333,21.5230063 L9.33333333,8.02740088 C9.33333333,7.32298748 9.75970805,6.70030908 10.3859208,6.49020018 L18.0525875,4.07443337 C19.0184834,3.75035292 20,4.52511841 20,5.61163407 C20,6.68530821 20,7.49056381 20,8.02740088 C20,8.83265648 19.2682179,9.34693762 18.6666667,9.49494949 C17.8011557,9.70790875 15.5789335,10.1658212 12,10.8686869 L12,25.3632877 C12,26.0013326 11.7401878,26.3946751 11.2875172,26.5660622 Z M21,12 L27,12 C27.5522847,12 28,12.4477153 28,13 L28,13.6666667 C28,14.2189514 27.5522847,14.6666667 27,14.6666667 L21,14.6666667 C20.4477153,14.6666667 20,14.2189514 20,13.6666667 L20,13 C20,12.4477153 20.4477153,12 21,12 Z M18.3333333,17.3333333 L27,17.3333333 C27.5522847,17.3333333 28,17.7810486 28,18.3333333 L28,19 C28,19.5522847 27.5522847,20 27,20 L18.3333333,20 C17.7810486,20 17.3333333,19.5522847 17.3333333,19 L17.3333333,18.3333333 C17.3333333,17.7810486 17.7810486,17.3333333 18.3333333,17.3333333 Z M18.3333333,22.6666667 L27,22.6666667 C27.5522847,22.6666667 28,23.1143819 28,23.6666667 L28,24.3333333 C28,24.8856181 27.5522847,25.3333333 27,25.3333333 L18.3333333,25.3333333 C17.7810486,25.3333333 17.3333333,24.8856181 17.3333333,24.3333333 L17.3333333,23.6666667 C17.3333333,23.1143819 17.7810486,22.6666667 18.3333333,22.6666667 Z" id="Combined-Shape" fill="#858199"></path>
                        </g>
                    </g>
                </g>
            </g>
        </g>
    </g>
</svg>