<svg width="40" height="40" viewBox="0 0 40 40" fill="none" xmlns="http://www.w3.org/2000/svg">
<g id="M4V">
<path id="Document" fill-rule="evenodd" clip-rule="evenodd" d="M32.4271 36.6666H7.57326C6.76551 36.6666 6.11127 36.018 6.11127 35.2173V4.78253C6.11127 3.9818 6.76551 3.33325 7.57326 3.33325H25.1171L33.889 12.0289V35.2173C33.889 36.018 33.2348 36.6666 32.4271 36.6666Z" fill="#F7F7F9"/>
<path id="Intersect" d="M33.8728 12.0127H26.5792C25.7714 12.0127 25.1172 11.3641 25.1172 10.5634V3.33325L33.8728 12.0127Z" fill="#EAEAEA"/>
<path id="Mask" fill-rule="evenodd" clip-rule="evenodd" d="M3.33331 18.3333L6.11109 15.8333V18.3333H33.8889V15.8333L36.6666 18.3333V30.9258C36.6666 31.7955 36.0181 32.4999 35.2174 32.4999H4.78259C3.98186 32.4999 3.33331 31.7955 3.33331 30.9258V18.3333ZM9.19922 24.332V29.8333H7.28516V20.9465H9.51172L11.7904 25.9661H11.8555L14.1406 20.9465H16.3411V29.8333H14.4076V24.332H14.3164L12.4414 28.4921H11.1784L9.29687 24.332H9.19922ZM17.5911 26.6106C18.5807 24.6965 19.7135 22.7955 20.8333 20.9465H23.8802V26.6301H24.9219V28.3163H23.8802V29.8333H21.875V28.3163H17.5911V26.6106ZM19.4661 26.6041V26.6301H21.875V22.4895H21.7904C20.9766 23.8046 20.1758 25.1783 19.4661 26.6041ZM30.7812 29.8333H28.0729L25.2474 20.9465H27.7474L29.4401 27.5221H29.5312L31.1979 20.9465H33.5677L30.7812 29.8333Z" fill="#234C91"/>
<path id="Shape" opacity="0.5" d="M6.11109 18.3333H3.33331L6.11109 15.8333V18.3333ZM33.8889 18.3333V15.8333L36.6666 18.3333H33.8889Z" fill="#F7F7F9"/>
</g>
</svg>
