<svg width="40" height="40" viewBox="0 0 40 40" fill="none" xmlns="http://www.w3.org/2000/svg">
<g id="3GP">
<path id="Document" fill-rule="evenodd" clip-rule="evenodd" d="M32.4271 36.6666H7.57326C6.76551 36.6666 6.11127 36.018 6.11127 35.2173V4.78253C6.11127 3.9818 6.76551 3.33325 7.57326 3.33325H25.1171L33.889 12.0289V35.2173C33.889 36.018 33.2348 36.6666 32.4271 36.6666Z" fill="#F7F7F9"/>
<path id="Intersect" d="M33.8728 12.0127H26.5792C25.7714 12.0127 25.1172 11.3641 25.1172 10.5634V3.33325L33.8728 12.0127Z" fill="#EAEAEA"/>
<path id="Mask" fill-rule="evenodd" clip-rule="evenodd" d="M3.33331 18.3333L6.11109 15.8333V18.3333H33.8889V15.8333L36.6666 18.3333V30.9258C36.6666 31.7955 36.0181 32.4999 35.2174 32.4999H4.78259C3.98186 32.4999 3.33331 31.7955 3.33331 30.9258V18.3333ZM11.6016 26.0572H10.6185V24.4687H11.556C12.3047 24.4687 12.793 24.0195 12.793 23.401C12.7865 22.828 12.2917 22.3918 11.5755 22.3918C10.7878 22.3918 10.3581 22.9583 10.3385 23.4921H8.33984C8.39844 21.9101 9.58333 20.7903 11.6602 20.7903C13.4896 20.7903 14.8698 21.7408 14.8828 23.121C14.8958 24.384 13.9518 25.0155 13.2812 25.1067V25.1978C14.1406 25.2564 15.1367 25.927 15.1497 27.3333C15.1628 28.9869 13.4831 29.996 11.5755 29.996C9.29688 29.996 8.23568 28.707 8.21615 27.2551H10.1823C10.2279 27.8931 10.7943 28.3619 11.6276 28.3619C12.487 28.3619 13.0143 27.8606 13.0078 27.1965C13.0078 26.565 12.513 26.0572 11.6016 26.0572ZM20 20.7903C22.3828 20.7903 23.6263 22.2681 23.6654 23.8827H21.582C21.4909 23.1275 20.9375 22.5481 19.987 22.5481C18.8542 22.5481 18.2357 23.3684 18.2357 24.8137V25.8879C18.2357 27.2226 18.7044 28.2317 20.0456 28.2317C21.0612 28.2317 21.6471 27.5872 21.6471 26.8385V26.4609H20.1042V24.9504H23.6719V26.6757C23.6719 28.4075 22.4935 29.996 19.9935 29.996C17.2461 29.996 16.0612 28.2187 16.0612 25.8945V24.7942C16.0612 22.4309 17.4544 20.7903 20 20.7903ZM25.0456 20.9465H28.8021C30.8464 20.9465 31.9141 22.3528 31.9141 24.0325C31.9141 25.7382 30.8268 27.0859 28.776 27.0859H27.194V29.8333H25.0456V20.9465ZM28.0534 25.4648C29.0885 25.4648 29.7331 25.0741 29.7331 24.0325C29.7331 23.108 29.1797 22.6002 28.3008 22.6002H27.1875V25.4648H28.0534Z" fill="#C823A3"/>
<path id="Shape" opacity="0.5" d="M6.11109 18.3333H3.33331L6.11109 15.8333V18.3333ZM33.8889 18.3333V15.8333L36.6666 18.3333H33.8889Z" fill="#F7F7F9"/>
</g>
</svg>
