<?xml version="1.0" encoding="UTF-8"?>
<svg width="24px" height="24px" viewBox="0 0 24 24" version="1.1" xmlns="http://www.w3.org/2000/svg" xmlns:xlink="http://www.w3.org/1999/xlink">
    <g id="Assets" stroke="none" stroke-width="1" fill="none" fill-rule="evenodd">
        <g id="assets" transform="translate(-1032.000000, -895.000000)">
            <g id="icon/Filetype" transform="translate(1032.000000, 895.000000)">
                <path d="M20.9473684,24 L3.05263158,24 C2.47105263,24 2,23.5330435 2,22.9565217 L2,1.04347826 C2,0.466956522 2.47105263,0 3.05263158,0 L15.6842105,0 L22,6.26086957 L22,22.9565217 C22,23.5330435 21.5289474,24 20.9473684,24 Z" id="Document" fill="#F2F2F4"></path>
                <path d="M2,9.082 L2,11 L22,11 L22,9.083 L24,11 L22.4347826,13 L1.56521739,13 L0,11 L2,9.082 Z" id="Combined-Shape" fill="#B989E2" fill-rule="nonzero"></path>
                <path d="M22.9565217,21 L1.04347826,21 C0.466956522,21 0,20.5027778 0,19.8888889 L0,11 L24,11 L24,19.8888889 C24,20.5027778 23.5330435,21 22.9565217,21 Z" id="Path" fill="#7E1BCC"></path>
                <path d="M16,0 L16,5 C16,5.5525 16.4475,6 17,6 L22,6 L16,0 Z" id="Corner" fill="#DAD9E0"></path>
                <path d="M2,11 L0,11 L2,9.08333333 L2,11 Z M22,11 L22,9.08333333 L24,11 L22,11 Z" id="Shape" fill="#F7F7F9" fill-rule="nonzero" opacity="0.5"></path>
                <path d="M9,16.2773438 C9,16.8476591 8.89648541,17.3437479 8.68945312,17.765625 C8.48242084,18.1875021 8.19401227,18.5117176 7.82421875,18.7382812 C7.45442523,18.9648449 7.02995031,19.078125 6.55078125,19.078125 C6.06900801,19.078125 5.64257998,18.9648449 5.27148438,18.7382812 C4.90038877,18.5117176 4.61132916,18.1875021 4.40429688,17.765625 C4.19726459,17.3437479 4.09375,16.8476591 4.09375,16.2773438 L4.09375,16.0390625 C4.09375,15.4687471 4.19661355,14.9720073 4.40234375,14.5488281 C4.60807395,14.1256489 4.89583148,13.8007824 5.265625,13.5742188 C5.63541852,13.3476551 6.06119551,13.234375 6.54296875,13.234375 C7.02213781,13.234375 7.4479148,13.3476551 7.8203125,13.5742188 C8.1927102,13.8007824 8.48242084,14.1256489 8.68945312,14.5488281 C8.89648541,14.9720073 9,15.4687471 9,16.0390625 L9,16.2773438 Z M7.71484375,16.03125 C7.71484375,15.4635388 7.61328227,15.0292984 7.41015625,14.7285156 C7.20703023,14.4277329 6.91797063,14.2773438 6.54296875,14.2773438 C6.16275852,14.2773438 5.87304787,14.4270818 5.67382812,14.7265625 C5.47460838,15.0260432 5.375,15.4609346 5.375,16.03125 L5.375,16.2773438 C5.375,16.8450549 5.47656148,17.2805974 5.6796875,17.5839844 C5.88281352,17.8873713 6.1731752,18.0390625 6.55078125,18.0390625 C6.92317895,18.0390625 7.21028545,17.8867203 7.41210938,17.5820312 C7.6139333,17.2773438 7.71484375,16.8424507 7.71484375,16.2773438 L7.71484375,16.03125 Z M14.3554688,18.2929688 C14.2460932,18.4179694 14.094402,18.5397129 13.9003906,18.6582031 C13.7063792,18.7766933 13.4602879,18.8763017 13.1621094,18.9570312 C12.8639308,19.0377608 12.5234394,19.078125 12.140625,19.078125 C11.6406225,19.078125 11.2037779,18.9700532 10.8300781,18.7539062 C10.4563783,18.5377593 10.1673187,18.2226583 9.96289062,17.8085938 C9.75846252,17.3945292 9.65625,16.8984404 9.65625,16.3203125 L9.65625,15.9960938 C9.65625,15.4179659 9.75650941,14.921226 9.95703125,14.5058594 C10.1575531,14.0904927 10.4388003,13.7740896 10.8007812,13.5566406 C11.1627622,13.3391916 11.5820289,13.2304688 12.0585938,13.2304688 C12.7825557,13.2304688 13.3294252,13.40104 13.6992188,13.7421875 C14.0690123,14.083335 14.286458,14.5533824 14.3515625,15.1523438 L13.1289062,15.1523438 C13.0846352,14.8554673 12.9824227,14.6308601 12.8222656,14.4785156 C12.6621086,14.3261711 12.4205745,14.25 12.0976562,14.25 C11.7278627,14.25 11.4427093,14.3971339 11.2421875,14.6914062 C11.0416657,14.9856786 10.9414062,15.4179659 10.9414062,15.9882812 L10.9414062,16.3203125 C10.9414062,17.4791725 11.3671832,18.0585938 12.21875,18.0585938 C12.6119811,18.0585938 12.9023428,17.9739592 13.0898438,17.8046875 L13.0898438,16.8945312 L12.078125,16.8945312 L12.078125,15.9765625 L14.3554688,15.9765625 L14.3554688,18.2929688 Z M19.8085938,18.2929688 C19.6992182,18.4179694 19.547527,18.5397129 19.3535156,18.6582031 C19.1595042,18.7766933 18.9134129,18.8763017 18.6152344,18.9570312 C18.3170558,19.0377608 17.9765644,19.078125 17.59375,19.078125 C17.0937475,19.078125 16.6569029,18.9700532 16.2832031,18.7539062 C15.9095033,18.5377593 15.6204437,18.2226583 15.4160156,17.8085938 C15.2115875,17.3945292 15.109375,16.8984404 15.109375,16.3203125 L15.109375,15.9960938 C15.109375,15.4179659 15.2096344,14.921226 15.4101562,14.5058594 C15.6106781,14.0904927 15.8919253,13.7740896 16.2539062,13.5566406 C16.6158872,13.3391916 17.0351539,13.2304688 17.5117188,13.2304688 C18.2356807,13.2304688 18.7825502,13.40104 19.1523438,13.7421875 C19.5221373,14.083335 19.739583,14.5533824 19.8046875,15.1523438 L18.5820312,15.1523438 C18.5377602,14.8554673 18.4355477,14.6308601 18.2753906,14.4785156 C18.1152336,14.3261711 17.8736995,14.25 17.5507812,14.25 C17.1809877,14.25 16.8958343,14.3971339 16.6953125,14.6914062 C16.4947907,14.9856786 16.3945312,15.4179659 16.3945312,15.9882812 L16.3945312,16.3203125 C16.3945312,17.4791725 16.8203082,18.0585938 17.671875,18.0585938 C18.0651061,18.0585938 18.3554678,17.9739592 18.5429688,17.8046875 L18.5429688,16.8945312 L17.53125,16.8945312 L17.53125,15.9765625 L19.8085938,15.9765625 L19.8085938,18.2929688 Z" id="OGG" fill="#FFFFFF" fill-rule="nonzero"></path>
            </g>
        </g>
    </g>
</svg>