<svg width="211" height="47" viewBox="0 0 211 47" fill="none" xmlns="http://www.w3.org/2000/svg">
<path fill-rule="evenodd" clip-rule="evenodd" d="M0 12.1478C0 9.03547 0 7.47931 0.389143 6.21438C1.24641 3.42778 3.42778 1.24641 6.21438 0.389143C7.47931 0 9.03547 0 12.1478 0H66.3433C69.4557 0 71.0118 0 72.2767 0.389143C75.0633 1.24641 77.2447 3.42778 78.102 6.21438C78.4911 7.47931 78.4911 9.03547 78.4911 12.1478V34.8002C78.4911 37.9125 78.4911 39.4687 78.102 40.7336C77.2447 43.5202 75.0633 45.7016 72.2767 46.5588C71.0118 46.948 69.4557 46.948 66.3433 46.948H12.1478C9.03547 46.948 7.47931 46.948 6.21438 46.5588C3.42778 45.7016 1.24641 43.5202 0.389143 40.7336C0 39.4687 0 37.9125 0 34.8002V12.1478ZM19.2727 12.0118C19.2727 10.6473 20.3715 9.53638 21.7481 9.53638C23.1126 9.53638 24.2114 10.6473 24.2235 12.0118C24.2235 13.3763 23.1126 14.4872 21.7481 14.4872C20.3836 14.4872 19.2727 13.3763 19.2727 12.0118ZM15.1792 9.80203H10.7598V36.5242H15.1792V9.80203ZM70.4833 17.4576C67.9354 22.9035 65.0857 26.8521 65.0857 26.8521L71.1353 36.5242H65.9189L62.1998 30.5712C58.4565 34.8337 54.7494 36.9227 51.1752 36.9227C46.8161 36.9227 45.0411 33.8073 45.0411 30.2693C45.0411 29.8764 45.0443 29.3933 45.0474 28.9264V28.9231C45.0503 28.4873 45.0531 28.0658 45.0531 27.7456C45.0531 23.0726 44.5581 21.7443 42.9883 21.9616C39.9695 22.3722 35.3689 29.255 32.3743 36.5242H28.2205V17.4576H32.6399V26.9728C35.1636 22.7224 37.4579 19.0878 41.177 17.675C43.3385 16.8539 45.1618 17.2041 46.1037 17.6267C49.5209 19.1361 49.5209 22.8311 49.4726 27.7698C49.4726 28.0842 49.4698 28.4099 49.4669 28.7469V28.7487L49.4666 28.7784C49.4636 29.1304 49.4605 29.4945 49.4605 29.8708C49.4605 31.67 49.9556 32.4549 51.1752 32.5757C52.3586 32.6964 53.2642 32.1168 53.2642 32.1168V9.80203H57.6716V28.9411C57.6716 28.9411 61.5115 25.4393 65.5566 17.4576H70.4833ZM19.5383 17.4576H23.9577V36.5242H19.5383V17.4576Z" fill="white"/>
<path fill-rule="evenodd" clip-rule="evenodd" d="M98.1467 17.4166C95.9305 17.4166 93.8744 18.5648 92.6996 20.5407V13.2244H89.709V33.0104H92.6996V30.5271C93.7409 32.3428 95.6902 33.3308 97.8263 33.3308C101.832 33.3308 104.662 30.0999 104.662 25.347C104.662 20.2203 101.618 17.4166 98.1467 17.4166ZM97.1587 30.714C94.5687 30.714 92.6996 28.5779 92.6996 25.3737C92.6996 22.1695 94.5687 20.0334 97.1854 20.0334C99.8022 20.0334 101.618 22.1962 101.618 25.347C101.618 28.5779 99.7755 30.714 97.1587 30.714Z" fill="white"/>
<path d="M114.801 35.0931C113.653 37.9235 112.371 39.2051 110.048 39.2051C108.526 39.2051 107.244 38.591 106.39 37.603L107.912 35.3334C108.419 36.0811 109.22 36.5617 110.021 36.5617C110.849 36.5617 111.463 36.0543 111.891 35.0397L112.638 33.0104L105.749 17.737H109.167L111.116 22.3297C112.371 25.2669 113.599 28.4444 114.08 29.7261H114.133C114.221 29.4787 114.332 29.1597 114.463 28.785L114.464 28.7826C115.012 27.2158 115.899 24.6772 116.804 22.3297L118.593 17.737H121.797L114.801 35.0931Z" fill="white"/>
<path d="M138.184 33.3308C142.643 33.3308 145.607 31.0878 145.607 27.5632C145.607 23.7983 142.349 22.5433 139.279 21.6087C139.022 21.5266 138.767 21.447 138.516 21.3684C136.149 20.6298 134.098 19.9898 134.098 18.3244C134.098 16.936 135.567 15.9747 137.676 15.9747C139.999 15.9747 142.002 17.1229 142.429 19.3124L145.393 17.8171C144.272 14.6396 141.148 13.171 137.676 13.171C133.591 13.171 130.734 15.1469 130.734 18.5114C130.734 22.0894 133.992 23.291 137.009 24.2255L137.404 24.3473C139.921 25.1226 142.189 25.8211 142.189 27.7501C142.189 29.2988 140.64 30.447 138.237 30.447C135.3 30.447 133.217 28.7648 133.004 26.2014L129.88 27.5899C130.387 31.0611 133.778 33.3308 138.184 33.3308Z" fill="white"/>
<path d="M154.168 30.714C154.836 30.714 155.45 30.3936 155.797 29.9397L156.411 32.4229C155.877 32.9837 154.889 33.3308 153.741 33.3308C151.204 33.3308 149.762 31.6753 149.762 28.8449V20.247H147.306V17.737H149.762V15.5742L152.753 13.2778V17.737H155.797V20.247H152.753V28.7114C152.753 30.0732 153.207 30.714 154.168 30.714Z" fill="white"/>
<path d="M166.635 17.4166C164.792 17.4166 163.217 18.5381 162.202 20.3271V17.737H159.212V33.0104H162.202V26.6287C162.202 22.1962 164.018 20.247 166.154 20.247C167.142 20.247 167.943 20.7009 168.37 21.315L169.732 18.8051C169.171 18.004 167.97 17.4166 166.635 17.4166Z" fill="white"/>
<path d="M175.096 12.5569V16.1082H172.105V12.5569H175.096Z" fill="white"/>
<path d="M172.105 17.737H175.096V33.0104H172.105V17.737Z" fill="white"/>
<path fill-rule="evenodd" clip-rule="evenodd" d="M187.44 17.4166C185.197 17.4166 183.167 18.5915 181.993 20.5674V17.737H179.002V39.2051H181.993V30.5004C183.061 32.3428 185.09 33.3308 187.226 33.3308C190.991 33.3308 193.955 30.2067 193.955 25.347C193.955 20.514 191.044 17.4166 187.44 17.4166ZM186.452 30.714C183.862 30.714 181.993 28.5779 181.993 25.3737C181.993 22.1695 183.862 20.0334 186.479 20.0334C189.095 20.0334 190.911 22.1962 190.911 25.347C190.911 28.5779 189.069 30.714 186.452 30.714Z" fill="white"/>
<path fill-rule="evenodd" clip-rule="evenodd" d="M196.258 25.3737C196.258 20.5941 199.249 17.4166 203.788 17.4166C208.514 17.4166 211.318 20.8077 210.971 26.148H199.409C199.409 28.8449 201.278 30.7407 203.921 30.7407C205.977 30.7407 207.446 29.5925 207.953 27.6166L210.597 28.7915C209.529 31.6753 207.099 33.3308 203.895 33.3308C199.382 33.3308 196.258 30.1533 196.258 25.3737ZM203.788 19.9799C201.438 19.9799 199.756 21.4752 199.516 23.7182H207.873C207.633 21.4218 206.057 19.9799 203.788 19.9799Z" fill="white"/>
</svg>
