<svg width="20" height="20" viewBox="0 0 20 20" fill="none" xmlns="http://www.w3.org/2000/svg">
<path fill-rule="evenodd" clip-rule="evenodd" d="M15.0628 12.2853C15.5873 12.2853 16.0001 11.8145 16.0001 11.2142C16.0001 10.7433 15.7378 10.3575 15.3996 10.229C15.5494 10.0144 15.6246 9.75725 15.6246 9.5001C15.6246 9.07097 15.3996 8.68526 15.0248 8.51409C15.1746 8.29953 15.2498 8.04238 15.2498 7.78523C15.2498 7.18577 14.8378 6.71405 14.3125 6.71405C14.425 6.54289 14.5002 6.32833 14.5002 6.07118C14.5002 5.47171 14.0882 5 13.5629 5H10.7502C9.80446 5 9.33578 5.32333 8.81801 5.68052C8.51423 5.89009 8.19355 6.11132 7.7497 6.28574V11.857C7.7497 11.857 10.3747 12.8005 10.3747 15.9288C10.3747 16.5291 10.7874 17 11.3127 17C11.8373 17 12.25 16.5291 12.25 15.9296C12.25 15.9296 12.25 13.829 11.9878 13.2721C11.575 12.5433 12.1003 12.2861 12.25 12.2861L15.0628 12.2853ZM4 12.7145H5.87467H5.87469C6.51248 12.7145 6.99978 12.1576 6.99978 11.4287L7.00048 6.71406C7.00048 6.0286 6.51318 5.42831 5.87539 5.42831H4V12.7145Z" fill="#BEC5E0"/>
</svg>
