<svg width="24" height="24" viewBox="0 0 24 24" fill="none" xmlns="http://www.w3.org/2000/svg">
<path fill-rule="evenodd" clip-rule="evenodd" d="M12.7429 6.22267C12.7425 9.09512 12.7366 12.4289 12.7298 13.6311C12.7179 15.7597 12.7151 15.825 12.6228 16.1309C12.2619 17.3279 11.3049 18.1792 10.1167 18.3603C8.74185 18.5698 7.36739 17.7738 6.84676 16.4665C6.67972 16.047 6.63685 15.8152 6.63727 15.3334C6.63802 14.4846 6.92415 13.7983 7.53162 13.1882C8.30756 12.4089 9.3283 12.12 10.4214 12.3703L10.558 12.4016V10.5707C10.558 8.79811 10.5554 8.73901 10.4768 8.71404C10.3353 8.66915 9.07891 8.68407 8.75059 8.7346C7.25117 8.96519 5.93657 9.64189 4.90217 10.7156C2.91259 12.7807 2.44312 15.708 3.6863 18.2968C4.57569 20.149 6.40226 21.5292 8.47737 21.9172C9.11225 22.0359 10.3775 22.0253 10.9784 21.8963C11.872 21.7045 12.6636 21.3747 13.3988 20.8879C13.8313 20.6016 14.5255 19.9607 14.882 19.5186C15.6854 18.5224 16.1773 17.3139 16.3162 15.9957C16.3396 15.7736 16.3575 13.9713 16.358 11.795L16.3587 7.98325L16.7265 8.2154C18.052 9.05208 19.582 9.54736 20.9613 9.58636L21.2976 9.59586L21.3086 7.81995L21.3195 6.04403H21.2185C21.0302 6.04403 20.2487 5.87119 19.8685 5.74546C18.2152 5.19877 17.0898 4.08779 16.5915 2.51043C16.4705 2.12751 16.3591 1.4997 16.3588 1.19966L16.3587 1H14.5512H12.7438L12.7429 6.22267Z" fill="#000"/>
</svg>