<?xml version="1.0" encoding="UTF-8"?>
<svg width="24px" height="24px" viewBox="0 0 24 24" version="1.1" xmlns="http://www.w3.org/2000/svg" xmlns:xlink="http://www.w3.org/1999/xlink">
    <g id="Assets" stroke="none" stroke-width="1" fill="none" fill-rule="evenodd">
        <g id="Group-11" fill="#858199">
            <g id="icon/day">
                <path d="M7.62499999,16.375 L11.375,16.375 C11.71875,16.375 12,16.09375 12,15.75 L12,12 C12,11.65625 11.71875,11.375 11.375,11.375 L7.62499999,11.375 C7.28124999,11.375 6.99999999,11.65625 6.99999999,12 L6.99999999,15.75 C6.99999999,16.09375 7.28124999,16.375 7.62499999,16.375 Z M18.875,4.49999997 L17,4.49999997 L17,2.62499998 C17,2.28124998 16.71875,1.99999997 16.375,1.99999997 L15.125,1.99999997 C14.78125,1.99999997 14.5,2.28124998 14.5,2.62499998 L14.5,4.49999997 L9.49999999,4.49999997 L9.49999999,2.62499998 C9.49999999,2.28124998 9.21874999,1.99999997 8.87499999,1.99999997 L7.62499999,1.99999997 C7.28124999,1.99999997 6.99999999,2.28124998 6.99999999,2.62499998 L6.99999999,4.49999997 L5.12499998,4.49999997 C4.08984373,4.49999997 3.24999998,5.33984373 3.24999998,6.37499999 L3.24999998,20.125 C3.24999998,21.1601563 4.08984373,22 5.12499998,22 L18.875,22 C19.9101563,22 20.75,21.1601563 20.75,20.125 L20.75,6.37499999 C20.75,5.33984373 19.9101563,4.49999997 18.875,4.49999997 Z M18.875,19.890625 C18.875,20.0195313 18.7695313,20.125 18.640625,20.125 L5.35937498,20.125 C5.23046873,20.125 5.12499998,20.0195313 5.12499998,19.890625 L5.12499998,8.24999999 L18.875,8.24999999 L18.875,19.890625 Z" fill="#000" id="calendar-day"></path>
            </g>
        </g>
    </g>
</svg>
