<?xml version="1.0" encoding="UTF-8"?>
<svg width="24px" height="24px" viewBox="0 0 24 24" version="1.1" xmlns="http://www.w3.org/2000/svg" xmlns:xlink="http://www.w3.org/1999/xlink">
    <title>iconFollowing</title>
    <g id="Assets" stroke="none" stroke-width="1" fill="none" fill-rule="evenodd">
        <g id="assets" transform="translate(-763.000000, -1951.000000)">
            <g id="icon/Following" transform="translate(763.000000, 1951.000000)">
                <rect id="bound" x="0" y="0" width="24" height="24"></rect>
                <path d="M23.5750453,13.3295533 C23.8194633,13.5552398 23.9733193,13.8767837 23.9968446,14.2228919 C24.020129,14.5670373 23.9136807,14.9056326 23.7062255,15.1638874 L18.6651692,21.5248242 C18.427718,21.8242677 18.0820969,21.9936907 17.7194494,22 C17.3378029,22 16.9981978,21.8400716 16.7591748,21.5565498 L14.3166444,18.6657173 C14.093245,18.4018281 13.9874973,18.0657818 14.0011753,17.7341264 C14.0149177,17.4009072 14.1490541,17.0748709 14.3945374,16.8316962 C14.6554521,16.5739558 14.9890668,16.4587717 15.3151802,16.4747839 C15.6392906,16.4906976 15.9602744,16.636629 16.1969426,16.9171038 L17.6688415,18.6588145 L21.7720608,13.4813585 C21.9904156,13.2026378 22.3051353,13.032802 22.6391743,13.0046837 C22.9778126,12.9746203 23.3168186,13.0900228 23.5750453,13.3295533 Z M5.44642163,12.9705279 C6.67021216,14.0203548 8.26105664,14.6544415 10,14.6544415 C11.0183856,14.6544415 11.9859781,14.43697 12.8588707,14.0459337 C11.6876541,16.4498485 11.6821403,19.6738719 13.0433394,21.8464167 C7.80317729,22.396794 1,21.4719326 1,19.0710678 C1,16.4711885 2.78588984,14.1990272 5.44642163,12.9705279 Z M10,3 C12.7614237,3 15,5.23857625 15,8 C15,10.7614237 12.7614237,13 10,13 C7.23857625,13 5,10.7614237 5,8 C5,5.23857625 7.23857625,3 10,3 Z" id="Combined-Shape" fill="#000" fill-rule="evenodd"></path>
            </g>
        </g>
    </g>
</svg>