<?xml version="1.0" encoding="UTF-8"?>
<svg width="24px" height="24px" viewBox="0 0 24 24" version="1.1" xmlns="http://www.w3.org/2000/svg" xmlns:xlink="http://www.w3.org/1999/xlink">
    <title>iconVolume0</title>
    <g id="Assets" stroke="none" stroke-width="1" fill="none" fill-rule="evenodd">
        <g id="assets" transform="translate(-762.000000, -2279.000000)">
            <g id="icon/Volume0" transform="translate(762.000000, 2279.000000)">
                <rect id="Bound" x="0" y="0" width="24" height="24"></rect>
                <path d="M12.999,10.9603707 L13,19.5014 C13,20.7374 11.458,21.4384 10.401,20.6954 L6.243,17.7163707 L12.999,10.9603707 Z M14.0236,5.0932 C14.3926,5.0932 14.7396,5.2382 15.0006,5.4992 C15.5396,6.0382 15.5396,6.9152 15.0006,7.4542 L3.9546,18.5012 C3.6926,18.7622 3.3456,18.9062 2.9766,18.9062 C2.6076,18.9062 2.2606,18.7622 1.9986,18.5012 C1.4596,17.9622 1.4596,17.0852 1.9986,16.5462 L13.0456,5.4992 C13.3076,5.2382 13.6546,5.0932 14.0236,5.0932 Z M12.9416152,4.10041554 L0.80421318,16.2375827 C0.338905873,16.0262583 0.002,15.5811335 0.002,15.0514 L0,8.9504 C0,8.2504 0.616,7.6314 1.41,7.6314 L4.362,7.6314 L10.399,3.3044 C11.336297,2.64642991 12.6549638,3.12234675 12.9416152,4.10041554 Z" id="Combined-Shape" fill="#858199" fill-rule="evenodd"></path>
            </g>
        </g>
    </g>
</svg>