<?xml version="1.0" encoding="UTF-8"?>
<svg width="24px" height="24px" viewBox="0 0 24 24" version="1.1" xmlns="http://www.w3.org/2000/svg" xmlns:xlink="http://www.w3.org/1999/xlink">
    <title>iconNote</title>
    <g id="Assets" stroke="none" stroke-width="1" fill="none" fill-rule="evenodd">
        <g id="assets" transform="translate(-763.000000, -1759.000000)">
            <g id="icon/Tracks" transform="translate(763.000000, 1759.000000)">
                <rect id="bound" x="0" y="0" width="24" height="24"></rect>
                <path d="M19,5.0329313 L19,16.9033651 L18.998,16.947 L19,17 C19,18.0585458 17.9720427,18.9250177 16.6711653,18.9953859 L16.5,19 C15.1192881,19 14,18.1045695 14,17 C14,15.8954305 15.1192881,15 16.5,15 C16.6715366,15 16.8390381,15.013821 17.0008595,15.040147 L17,7.61346039 L10,9.5488572 L10,18.9677884 L9.999,18.981 L10,19 C10,20.0585458 8.97204268,20.9250177 7.67116535,20.9953859 L7.5,21 C6.11928813,21 5,20.1045695 5,19 C5,17.8954305 6.11928813,17 7.5,17 C7.67153661,17 7.83903814,17.013821 8.00085953,17.040147 L8,7.61346039 C8,7.16198653 8.28424981,6.76289841 8.70172501,6.62823505 L17.701725,4.04770596 C18.3456556,3.83999576 19,4.3365598 19,5.0329313 Z" id="Combined-Shape" fill="#858199" fill-rule="evenodd"></path>
            </g>
        </g>
    </g>
</svg>