<?xml version="1.0" encoding="UTF-8"?>
<svg width="20px" height="15px" viewBox="0 0 20 15" version="1.1" xmlns="http://www.w3.org/2000/svg" xmlns:xlink="http://www.w3.org/1999/xlink">
    <g id="🛑-Symbols" stroke="none" stroke-width="1" fill="none" fill-rule="evenodd">
        <g id="components/Artist-Profile-Sidebar" transform="translate(-8.000000, -98.000000)">
            <g id="Stacked-Group">
                <g id="Group">
                    <g id="Twitter" transform="translate(8.000000, 95.000000)">
                        <g id="iconTwitterBird">
                            <g id="button-Contents">
                                <g id="icon/social/instagram">
                                    <path d="M6.11,18 C13.468,18 17.498,12.2307692 17.498,7.24713584 C17.498,7.07528642 17.498,6.92798691 17.498,6.75613748 C18.278,6.21603928 18.954,5.55319149 19.5,4.79214403 C18.772,5.08674304 18.018,5.28314239 17.212,5.38134206 C18.044,4.91489362 18.668,4.17839607 18.98,3.29459902 C18.2,3.73649755 17.342,4.03109656 16.432,4.20294599 C15.704,3.46644845 14.664,3 13.52,3 C11.31,3 9.516,4.69394435 9.516,6.7806874 C9.516,7.07528642 9.542,7.36988543 9.62,7.63993453 C6.292,7.49263502 3.354,5.9705401 1.378,3.68739771 C1.04,4.25204583 0.832,4.8903437 0.832,5.57774141 C0.832,6.87888707 1.534,8.05728314 2.6,8.72013093 C1.95,8.69558101 1.326,8.52373159 0.78,8.25368249 C0.78,8.27823241 0.78,8.27823241 0.78,8.30278232 C0.78,10.1194763 2.158,11.6661211 3.978,12.00982 C3.64,12.1080196 3.302,12.1325696 2.938,12.1325696 C2.678,12.1325696 2.418,12.1080196 2.184,12.0589198 C2.704,13.5564648 4.186,14.6612111 5.928,14.685761 C4.55,15.6923077 2.834,16.3060556 0.962,16.3060556 C0.65,16.3060556 0.312,16.2815057 0,16.2569558 C1.742,17.3617021 3.848,18 6.11,18" id="Path" fill="#858199"></path>
                                    <rect id="Rectangle" x="0" y="0" width="20" height="20"></rect>
                                </g>
                            </g>
                        </g>
                    </g>
                </g>
            </g>
        </g>
    </g>
</svg>