<?xml version="1.0" encoding="UTF-8"?>
<svg width="10px" height="10px" viewBox="0 0 10 10" version="1.1" xmlns="http://www.w3.org/2000/svg" xmlns:xlink="http://www.w3.org/1999/xlink">
    <g id="-🔎-Search-Style-Guide" stroke="none" stroke-width="1" fill="none" fill-rule="evenodd">
        <g id="Search-Style-Guide" transform="translate(-59.000000, -796.000000)">
            <g id="ico/arrow" transform="translate(58.000000, 795.000000)">
                <rect id="Bound" x="0" y="0" width="12" height="12"></rect>
                <path d="M4.99973326,10.1504401 C4.99973326,9.91704455 5.09975994,9.70098693 5.26647106,9.53427581 L8.00053348,7.00026674 L2.00026674,7.00026674 C1.4001067,7.00026674 1,6.60016004 1,6 C1,5.39983996 1.4001067,5.00106695 2.00026674,5.00106695 L8.00053348,5.00106695 L5.23312883,2.43371566 C5.08242198,2.28434249 4.99973326,2.05094692 4.99973326,1.84955988 C4.99973326,1.38410243 5.43318218,1 5.8666311,1 C6.10002667,1 6.31608429,1.10002667 6.46679114,1.25073353 L10.69992,5.39983996 C10.8666311,5.56655108 11,5.76660443 11,6 C11,6.2173913 10.8506268,6.45078688 10.69992,6.60016004 L6.48279541,10.7332622 C6.28274206,10.9333156 6.06668445,11 5.8666311,11 C5.38383569,11 4.99973326,10.6172313 4.99973326,10.1504401" id="Fill-1" fill="#858199" fill-rule="evenodd"></path>
            </g>
        </g>
    </g>
</svg>