<?xml version="1.0" encoding="UTF-8"?>
<svg width="32px" height="32px" viewBox="0 0 32 32" version="1.1" xmlns="http://www.w3.org/2000/svg" xmlns:xlink="http://www.w3.org/1999/xlink">
    <title>pbIconPrevious</title>
    <g id="Assets" stroke="none" stroke-width="1" fill="none" fill-rule="evenodd">
        <g id="assets" transform="translate(-847.000000, -1007.000000)">
            <g id="icon/playbar/skip" transform="translate(863.000000, 1023.000000) rotate(180.000000) translate(-863.000000, -1023.000000) translate(847.000000, 1007.000000)">
                <rect id="bound" x="0" y="0" width="32" height="32"></rect>
                <path d="M25.5,10 C26.3284271,10 27,10.598011 27,11.335695 L27,11.335695 L27,19.664305 C27,20.401989 26.3284271,21 25.5,21 C24.6715729,21 24,20.401989 24,19.664305 L24,19.664305 L24,16.647 L15.5901729,20.8812073 C15.0940185,21.1309676 14.4917753,20.9735953 14.1868328,20.5337877 L14.1219226,20.4273368 C14.041811,20.2768187 14,20.1098055 14,19.9403189 L14,19.9403189 L14,16.887 L6.5027248,20.8812073 C6.03385531,21.1309676 5.46473115,20.9735953 5.17655836,20.5337877 L5.11521777,20.4273368 C5.03951166,20.2768187 5,20.1098055 5,19.9403189 L5,19.9403189 L5,11.059461 C5,10.4743368 5.46091656,10 6.02948595,10 C6.19417834,10 6.35646719,10.0406626 6.50272736,10.1185739 L6.50272736,10.1185739 L14,14.112 L14,11.059461 C14,10.5133451 14.4248746,10.0637373 14.9706933,10.0062168 L15.0893949,10 C15.2636712,10 15.4354041,10.0406626 15.5901756,10.1185739 L15.5901756,10.1185739 L24,14.352 L24,11.335695 C24,10.6414042 24.5948881,10.0708375 25.35554,10.0061144 Z" id="skip" fill="#858199" fill-rule="evenodd"></path>
            </g>
        </g>
    </g>
</svg>