<svg width="106" height="20" viewBox="0 0 106 20" fill="none" xmlns="http://www.w3.org/2000/svg">
<path d="M21.6487 5.8163C17.7919 5.8163 14.8075 8.72871 14.8075 12.6582C14.8075 16.5876 17.746 19.5 21.6487 19.5C25.5513 19.5 28.5357 16.5414 28.5357 12.6582C28.5357 8.77494 25.5973 5.8163 21.6487 5.8163ZM21.6946 16.68C19.4907 16.68 17.9297 14.9696 17.9297 12.6582C17.9297 10.3467 19.4907 8.63625 21.6946 8.63625C23.8984 8.63625 25.5054 10.3467 25.5054 12.6582C25.5054 14.9696 23.8525 16.68 21.6946 16.68ZM29.3622 8.82117H31.2446V19.2689H34.3209V6.09368H29.3622V8.82117ZM7.13995 8.63625C8.74693 8.63625 10.0325 9.60705 10.4917 11.0864H13.7056C13.1087 7.94282 10.5376 5.77007 7.13995 5.77007C3.32912 5.8163 0.344727 8.72871 0.344727 12.6582C0.344727 16.5876 3.2832 19.5 7.18587 19.5C10.4917 19.5 13.1087 17.3735 13.7056 14.1837H10.4917C10.0325 15.663 8.74693 16.68 7.18587 16.68C4.98201 16.68 3.42094 14.9696 3.42094 12.6582C3.42094 10.3467 4.93609 8.63625 7.13995 8.63625ZM87.2593 11.41L85.0096 11.0864C83.9535 10.9477 83.173 10.5779 83.173 9.74574C83.173 8.82117 84.1831 8.35888 85.5146 8.35888C86.9838 8.35888 87.948 9.00608 88.1317 10.0231H91.0702C90.7488 7.38808 88.7286 5.8163 85.6064 5.8163C82.3925 5.8163 80.2345 7.48053 80.2345 9.8382C80.2345 12.0572 81.6119 13.3978 84.4586 13.7676L86.7084 14.0912C87.8103 14.2299 88.4072 14.6922 88.4072 15.4781C88.4072 16.5414 87.3512 16.9574 85.8819 16.9574C84.0913 16.9574 83.0812 16.2178 82.8975 15.1083H79.9131C80.1886 17.6971 82.2088 19.5 85.836 19.5C89.1418 19.5 91.3916 17.9745 91.3916 15.3394C91.3916 12.9818 89.7846 11.7798 87.2593 11.41ZM32.8057 0.638688C31.7038 0.638688 30.8314 1.4708 30.8314 2.58029C30.8314 3.68978 31.6579 4.5219 32.8057 4.5219C33.9076 4.5219 34.78 3.68978 34.78 2.58029C34.78 1.4708 33.9076 0.638688 32.8057 0.638688ZM77.5256 10.5779C77.5256 7.71168 75.7809 5.8163 72.1537 5.8163C68.7102 5.8163 66.7818 7.57299 66.3686 10.2543H69.3989C69.5366 9.191 70.3631 8.35888 72.1078 8.35888C73.6689 8.35888 74.4035 9.05231 74.4035 9.88443C74.4035 10.9939 73.0261 11.2713 71.2814 11.4562C68.9398 11.7336 66.0472 12.5195 66.0472 15.5706C66.0472 17.9282 67.7919 19.4538 70.5927 19.4538C72.7965 19.4538 74.128 18.5292 74.8167 17.0961C74.9085 18.3905 75.8727 19.2226 77.2501 19.2226H79.0408V16.4951H77.5256V10.5779ZM74.4953 13.9063C74.4953 15.663 72.9802 16.9574 71.0977 16.9574C69.9499 16.9574 68.9857 16.4951 68.9857 15.4319C68.9857 14.1375 70.5468 13.7676 71.9701 13.6289C73.3475 13.4903 74.0821 13.2129 74.4953 12.6119V13.9063ZM58.3337 5.8163C56.6349 5.8163 55.2116 6.50973 54.2015 7.71168V0.5H51.1712V19.2226H54.1556V17.5122C55.1657 18.7603 56.6349 19.5 58.3337 19.5C62.0068 19.5 64.7616 16.5876 64.7616 12.6582C64.7616 8.72871 61.9609 5.8163 58.3337 5.8163ZM57.8746 16.68C55.6707 16.68 54.1097 14.9696 54.1097 12.6582C54.1097 10.3467 55.7166 8.63625 57.9205 8.63625C60.1243 8.63625 61.6854 10.3467 61.6854 12.6582C61.6854 14.9696 60.0784 16.68 57.8746 16.68ZM43.8709 5.8163C41.8966 5.8163 40.611 6.64842 39.8305 7.75791V6.04744H36.8002V19.2226H39.8305V12.0572C39.8305 10.0231 41.1161 8.63625 42.9985 8.63625C44.7433 8.63625 45.8452 9.88443 45.8452 11.6873V19.2226H48.8755V11.4562C48.8755 8.17396 47.1767 5.8163 43.8709 5.8163ZM105.9 12.2421C105.9 8.45133 103.145 5.8163 99.4724 5.8163C95.5697 5.8163 92.6771 8.77494 92.6771 12.6582C92.6771 16.7725 95.7534 19.5 99.5183 19.5C102.686 19.5 105.166 17.6046 105.808 14.9234H102.64C102.181 16.0791 101.079 16.7725 99.5642 16.7725C97.5899 16.7725 96.1207 15.5706 95.7993 13.3978H105.9V12.2421ZM95.9829 11.2251C96.488 9.37591 97.8195 8.49757 99.4265 8.49757C101.171 8.49757 102.457 9.46837 102.778 11.2251H95.9829Z" fill="#0052FF"/>
</svg>
