<svg width="694" height="91" viewBox="0 0 694 91" fill="none" xmlns="http://www.w3.org/2000/svg">
<path d="M154.368 0.604027C153.144 0.560363 151.925 0.766873 150.784 1.21091C149.644 1.65494 148.606 2.32716 147.734 3.18638C146.862 4.0456 146.175 5.07375 145.714 6.20784C145.254 7.34194 145.03 8.55811 145.056 9.78188C145.157 12.181 146.182 14.448 147.916 16.1096C149.649 17.7712 151.958 18.6988 154.359 18.6988C156.761 18.6988 159.069 17.7712 160.803 16.1096C162.536 14.448 163.561 12.181 163.663 9.78188C163.691 8.55892 163.469 7.3431 163.01 6.20905C162.552 5.07501 161.866 4.04669 160.996 3.18721C160.125 2.32773 159.088 1.65525 157.948 1.21103C156.809 0.76682 155.59 0.560257 154.368 0.604027ZM471.633 25.1678C453.025 25.1678 439.368 39.1778 439.368 57.651C439.368 77.1141 453.999 90.0336 471.868 90.0336C486.968 90.0336 498.814 81.0906 501.834 68.406H486.733C484.552 73.9597 479.233 77.1141 472.119 77.1141C462.807 77.1141 455.811 71.3087 454.233 61.1577H502.186V55.5705C502.186 37.6846 489.15 25.1678 471.633 25.1678ZM455.072 50.7718C457.371 42.0805 463.898 37.8523 471.381 37.8523C479.603 37.8523 485.878 42.5503 487.337 50.7718H455.072ZM101.364 25.1678C97.0719 25.0744 92.8048 25.8491 88.8191 27.4453C84.8335 29.0415 81.2113 31.4263 78.1699 34.4568C75.1285 37.4872 72.7306 41.1007 71.12 45.0806C69.5094 49.0605 68.7193 53.3247 68.7972 57.6174C68.7972 76.2248 82.6898 90 101.297 90C105.613 90.1258 109.91 89.3735 113.927 87.7887C117.944 86.2038 121.596 83.8195 124.664 80.7803C127.731 77.7412 130.149 74.1105 131.771 70.1087C133.393 66.1068 134.185 61.8172 134.099 57.5C134.099 39.1443 120.207 25.1678 101.364 25.1678ZM101.482 76.6275C91.0958 76.6275 83.4784 68.5235 83.4784 57.651C83.4784 46.7785 90.9784 38.5906 101.364 38.5906C111.75 38.5906 119.485 46.7953 119.485 57.6678C119.485 68.5403 111.868 76.594 101.482 76.594V76.6275ZM207.069 25.1678C197.639 25.1678 191.482 29.0268 187.858 34.4631V26.3423H173.478V88.7919H187.925V54.849C187.925 45.302 194.015 38.5906 203.025 38.5906C211.415 38.5906 216.549 44.5134 216.549 53.0872V88.7919H231.045V52.0134C230.978 36.2416 222.891 25.1678 207.069 25.1678ZM32.3878 38.5906C35.9572 38.5621 39.4398 39.6912 42.3135 41.8086C45.1872 43.9261 47.2972 46.9179 48.3274 50.3356H63.6629C60.8945 35.3523 48.5623 25.1678 32.5052 25.1678C28.2184 25.0836 23.9586 25.865 19.9808 27.4653C16.003 29.0656 12.3889 31.4519 9.35468 34.4814C6.3205 37.5109 3.92862 41.1213 2.32215 45.0966C0.715692 49.0719 -0.0723377 53.3305 0.00521563 57.6174C0.00521563 76.2248 13.8978 90 32.5052 90C48.2099 90 60.777 79.9329 63.5455 64.8322H48.3274C47.3429 68.2621 45.264 71.2761 42.4075 73.4147C39.551 75.5533 36.0735 76.6992 32.5052 76.6778C21.9851 76.6778 14.6193 68.5738 14.6193 57.7013C14.6193 46.8289 21.8173 38.5906 32.3878 38.5906ZM138.092 39.3121H147.153V88.7919H161.649V26.3423H138.16L138.092 39.3121ZM367.136 47.7013C367.136 34.1778 358.915 25.1174 341.515 25.1174C325.089 25.1174 315.911 33.5067 314.099 46.2584H328.478C329.2 41.2248 333.059 37.198 341.28 37.198C348.646 37.198 352.27 40.453 352.27 44.4463C352.27 49.6309 345.559 50.9564 337.421 51.8121C326.297 53.0201 312.522 56.8456 312.522 71.3758C312.522 82.6174 320.911 89.8322 334.15 89.8322C344.535 89.8322 351.062 85.4866 354.284 78.5906C354.754 84.7483 359.317 88.7416 365.76 88.7416H374.15V75.8221H367.019L367.136 47.7013ZM352.874 63.406C352.874 71.7953 345.626 77.9027 336.817 77.9027C331.381 77.9027 326.75 75.604 326.75 70.7718C326.75 64.6141 334.116 62.9195 340.878 62.198C347.639 61.4765 350.945 60.151 352.841 57.3658L352.874 63.406ZM413.529 51.5604L402.891 50C397.858 49.2785 394.2 47.5839 394.2 43.5906C394.2 39.245 398.898 37.0638 405.307 37.0638C412.321 37.0638 416.784 40.0839 417.757 45.0503H431.767C430.19 32.4832 420.525 25.1174 405.676 25.1174C390.324 25.1174 380.173 32.9698 380.173 44.0772C380.173 54.7148 386.884 60.8557 400.307 62.802L410.928 64.3792C416.129 65.1007 419.032 67.1476 419.032 71.0906C419.032 76.0403 413.998 78.0872 406.952 78.0872C398.361 78.0872 393.529 74.5805 392.807 69.2785H378.562C379.888 81.4765 389.435 90.0503 406.817 90.0503C422.656 90.0503 433.16 82.802 433.16 70.3523C433.092 59.1946 425.475 53.3893 413.529 51.5772V51.5604ZM275.928 25.1678C272.177 25.1145 268.462 25.9004 265.053 27.468C261.645 29.0357 258.631 31.3454 256.23 34.2282V0H241.733V88.7919H255.995V80.5369C258.384 83.5185 261.42 85.9171 264.874 87.5509C268.328 89.1847 272.108 90.0107 275.928 89.9664C293.327 89.9664 306.482 76.1913 306.482 57.5839C306.482 38.9765 293.076 25.1678 275.928 25.1678ZM273.747 76.6275C263.361 76.6275 255.743 68.5235 255.743 57.651C255.743 46.7785 263.428 38.5906 273.864 38.5906C284.301 38.5906 291.75 46.6778 291.75 57.6678C291.75 68.6577 284.133 76.594 273.747 76.594V76.6275Z" fill="white"/>
<path d="M542.069 26.3255H569.066C582.488 26.3255 590.089 33.8591 590.089 44.7819C590.089 55.7047 582.556 63.4228 569.066 63.4228H551.482V88.8087H542.069V26.3255ZM580.542 44.3456C580.542 38.2215 576.633 34.396 568.797 34.396H551.482V55.3691H568.797C576.599 55.3691 580.542 51.5436 580.542 45.302V44.3456Z" fill="white"/>
<path d="M630.492 73.8255H602.522L597.019 88.7416H587.254L611.23 26.2584H621.968L646.197 88.7416H636.129L630.492 73.8255ZM605.458 65.755H627.522L616.515 36.2752H616.331L605.458 65.755Z" fill="white"/>
<path d="M661.549 64.3121L639.368 26.3255H649.653L666.264 55.0839H666.431L683.042 26.3255H693.244L670.962 64.3121V88.8087H661.549V64.3121Z" fill="white"/>
</svg>
