<svg width="512" height="512" viewBox="0 0 512 512" fill="none" xmlns="http://www.w3.org/2000/svg">
<rect width="512" height="512" fill="white"/>
<path d="M460.646 465.093C464.556 461.62 466.029 455.617 463.209 450.541L359.155 269.391C355.584 263.175 346.615 263.206 343.087 269.447L238.697 454.159C235.209 460.331 239.663 467.977 246.747 467.977L453.017 467.977C454.167 467.977 455.261 467.815 456.284 467.515C457.941 467.031 459.414 466.188 460.646 465.093Z" fill="#2B2B2B"/>
<path d="M281.75 162.882C285.275 156.645 294.237 156.609 297.812 162.817L333.959 225.587C335.594 228.426 335.608 231.919 333.996 234.771L204.842 463.3C203.201 466.205 200.125 468 196.792 468H152.812C152.805 468 152.8 467.995 152.8 467.988C152.8 467.982 152.795 467.977 152.789 467.977H128.966C120.042 467.977 114.107 458.204 118.774 450.541L152.767 391.241C152.789 391.203 152.8 391.16 152.8 391.116C152.8 391.072 152.811 391.029 152.833 390.992L281.75 162.882Z" fill="#2B2B2B"/>
<path d="M272.649 128.222C274.261 125.37 274.247 121.879 272.613 119.04L232.16 48.7472C229.243 43.9579 223.832 42.1619 219.15 43.3592C216.34 44.0776 213.793 45.8736 212.204 48.7472L95.8302 249.439L48.6952 331.498C44.0288 339.161 49.5548 348.935 58.4579 348.935H142.519C145.852 348.935 148.927 347.139 150.569 344.235L272.649 128.222Z" fill="#2B2B2B"/>
</svg>
