<svg xmlns="http://www.w3.org/2000/svg" width="158" height="160" viewBox="0 0 158 160" fill="none">
  <path d="M155.512 158.906C156.982 157.598 157.536 155.338 156.476 153.427L117.356 85.2295C116.014 82.8893 112.642 82.9011 111.316 85.2507L72.0695 154.789C70.758 157.113 72.4326 159.991 75.0958 159.991L152.644 159.991C153.076 159.991 153.488 159.93 153.872 159.817C154.495 159.635 155.049 159.318 155.512 158.906Z" fill="white"/>
  <path d="M88.2553 45.132C89.5806 42.7839 92.95 42.7703 94.2941 45.1076L107.884 68.7388C108.498 69.8076 108.504 71.1225 107.898 72.1962L59.3414 158.231C58.7244 159.324 57.5682 160 56.3151 160H39.7804C39.778 160 39.7761 159.998 39.7761 159.996C39.7761 159.993 39.7741 159.991 39.7717 159.991H30.8155C27.4607 159.991 25.2292 156.312 26.9836 153.427L39.7635 131.103C39.7717 131.088 39.7761 131.072 39.7761 131.055C39.7761 131.039 39.7803 131.023 39.7883 131.009L88.2553 45.132Z" fill="white"/>
  <path d="M84.834 32.0834C85.4398 31.0099 85.4347 29.6955 84.8205 28.6268L69.6116 2.16366C68.5152 0.36061 66.4809 -0.315534 64.7205 0.135229C63.6643 0.405686 62.7067 1.08183 62.1094 2.16366L18.358 77.7182L0.637329 108.611C-1.11704 111.496 0.960502 115.175 4.30765 115.175H35.9107C37.1638 115.175 38.32 114.499 38.9371 113.406L84.834 32.0834Z" fill="white"/>
</svg>