<svg xmlns="http://www.w3.org/2000/svg" width="24" height="24" viewBox="0 0 24 24">
  <path fill="#CC0FE0" fill-rule="evenodd" d="M3,13.0400072 L3,3.61346039 C3,3.16198653 3.28424981,2.76289841 3.70172501,2.62823505 L12.701725,0.0477059646 C13.3456556,-0.160004241 14,0.3365598 14,1.0329313 L14,12.9033651 C14,12.9179063 13.9997087,12.9323773 13.9991318,12.9467722 C13.9997094,12.9644586 14,12.9822021 14,13 C14,14.1045695 12.8807119,15 11.5,15 C10.1192881,15 9,14.1045695 9,13 C9,11.8954305 10.1192881,11 11.5,11 C11.6712329,11 11.838445,11.0137721 12,11.0400072 L12,3.61346039 L5,5.5488572 L5,14.9677884 C5,14.9726204 4.99996783,14.9774447 4.99990371,14.9822611 C4.99996786,14.988168 5,14.994081 5,15 C5,16.1045695 3.88071187,17 2.5,17 C1.11928813,17 0,16.1045695 0,15 C0,13.8954305 1.11928813,13 2.5,13 C2.67123292,13 2.83844503,13.0137721 3,13.0400072 Z" transform="translate(5 4)"/>
</svg>
