<svg xmlns="http://www.w3.org/2000/svg" width="24" height="24" viewBox="0 0 24 24">
  <path fill="#CC0FE0" fill-rule="evenodd" d="M5.46563786,16.9245466 C4.92388449,17.5744882 4.02157241,18 3,18 C1.34314575,18 0,16.8807119 0,15.5 C0,14.1192881 1.34314575,13 3,13 C3.35063542,13 3.68722107,13.0501285 4,13.1422548 L4,3.02055066 C4,2.49224061 4.31978104,2.02523181 4.78944063,1.86765013 L10.5394406,0.0558250276 C11.2638626,-0.187235311 12,0.393838806 12,1.20872555 C12,2.01398116 12,2.61792286 12,3.02055066 C12,3.62449236 11.4511634,4.01020322 11,4.12121212 C10.3508668,4.28093157 8.68420009,4.62436591 6,5.15151515 L6,16.0224658 C6,16.5009995 5.80514083,16.7960063 5.46563786,16.9245466 Z M13,6 L17,6 C17.5522847,6 18,6.44771525 18,7 C18,7.55228475 17.5522847,8 17,8 L13,8 C12.4477153,8 12,7.55228475 12,7 C12,6.44771525 12.4477153,6 13,6 Z M11,10 L17,10 C17.5522847,10 18,10.4477153 18,11 C18,11.5522847 17.5522847,12 17,12 L11,12 C10.4477153,12 10,11.5522847 10,11 C10,10.4477153 10.4477153,10 11,10 Z M11,14 L17,14 C17.5522847,14 18,14.4477153 18,15 C18,15.5522847 17.5522847,16 17,16 L11,16 C10.4477153,16 10,15.5522847 10,15 C10,14.4477153 10.4477153,14 11,14 Z" transform="translate(3 3)"/>
</svg>
