<svg width="90" height="28" viewBox="0 0 90 28" fill="none" xmlns="http://www.w3.org/2000/svg">
<g id="EmbedPreviewTag" filter="url(#filter0_dd_401_331)">
<path id="Exclude" fill-rule="evenodd" clip-rule="evenodd" d="M14 6.00012C9.58172 6.00012 6 9.58184 6 14.0001C6 18.4184 9.58172 22.0001 14 22.0001H76C80.4183 22.0001 84 18.4184 84 14.0001C84 9.58184 80.4183 6.00012 76 6.00012H14ZM16.5312 12.0316V12.8754H19.3437V12.0316C19.3437 11.2547 18.7144 10.6254 17.9375 10.6254C17.1605 10.6254 16.5312 11.2547 16.5312 12.0316ZM15.4062 12.8754V12.0316C15.4062 10.6342 16.54 9.50037 17.9375 9.50037C19.3349 9.50037 20.4687 10.6342 20.4687 12.0316V12.8754H20.7499C21.3705 12.8754 21.8749 13.3799 21.8749 14.0004V17.3754C21.8749 17.9959 21.3705 18.5004 20.7499 18.5004H15.125C14.5045 18.5004 14 17.9959 14 17.3754V14.0004C14 13.3799 14.5045 12.8754 15.125 12.8754H15.4062ZM75.6958 10.4604L73.6758 17.5404H71.9858L70.5858 12.7504H70.5558L69.1558 17.5404H67.4558L65.4458 10.4604H67.2858L68.4058 15.1704H68.4358L69.6958 10.4604H71.4758L72.7458 15.1704H72.7758L73.9158 10.4604H75.6958ZM59.6016 17.5404H64.5416V16.0804H61.2516V14.6104H64.1916V13.2404H61.2516V11.9104H64.3616V10.4604H59.6016V17.5404ZM57.638 17.5404H55.918V10.4604H57.638V17.5404ZM52.1116 17.5404L54.8416 10.4604H52.9516L51.3216 15.4804H51.2816L49.6416 10.4604H47.7216L50.4016 17.5404H52.1116ZM46.9673 17.5404H42.0273V10.4604H46.7873V11.9104H43.6773V13.2404H46.6173V14.6104H43.6773V16.0804H46.9673V17.5404ZM38.6865 17.5404H40.6865L38.8365 14.5104C39.7465 14.2304 40.3065 13.5504 40.3065 12.6004C40.3065 10.9804 38.9565 10.4604 37.5965 10.4604H34.8965V17.5404H36.5765V14.7304H37.1565L38.6865 17.5404ZM37.4765 11.8404C37.9865 11.8404 38.6165 11.9704 38.6165 12.6304C38.6165 13.3504 37.9265 13.4904 37.3765 13.4904H36.5665V11.8404H37.4765ZM33.37 12.6404C33.37 14.2804 32.04 14.8704 30.56 14.8704H29.71V17.5404H28V10.4604H30.6C32.15 10.4604 33.37 11.0204 33.37 12.6404ZM31.66 12.6504C31.66 11.9704 31.07 11.8404 30.46 11.8404H29.71V13.5104H30.43C31.07 13.5104 31.66 13.3204 31.66 12.6504Z" fill="white"/>
</g>
<defs>
<filter id="filter0_dd_401_331" x="0" y="0.00012207" width="90" height="28" filterUnits="userSpaceOnUse" color-interpolation-filters="sRGB">
<feFlood flood-opacity="0" result="BackgroundImageFix"/>
<feColorMatrix in="SourceAlpha" type="matrix" values="0 0 0 0 0 0 0 0 0 0 0 0 0 0 0 0 0 0 127 0" result="hardAlpha"/>
<feOffset dy="2"/>
<feGaussianBlur stdDeviation="2"/>
<feColorMatrix type="matrix" values="0 0 0 0 0 0 0 0 0 0 0 0 0 0 0 0 0 0 0.08 0"/>
<feBlend mode="normal" in2="BackgroundImageFix" result="effect1_dropShadow_401_331"/>
<feColorMatrix in="SourceAlpha" type="matrix" values="0 0 0 0 0 0 0 0 0 0 0 0 0 0 0 0 0 0 127 0" result="hardAlpha"/>
<feOffset/>
<feGaussianBlur stdDeviation="3"/>
<feColorMatrix type="matrix" values="0 0 0 0 0 0 0 0 0 0 0 0 0 0 0 0 0 0 0.02 0"/>
<feBlend mode="normal" in2="effect1_dropShadow_401_331" result="effect2_dropShadow_401_331"/>
<feBlend mode="normal" in="SourceGraphic" in2="effect2_dropShadow_401_331" result="shape"/>
</filter>
</defs>
</svg>
