<svg width="56" height="56" viewBox="0 0 56 56" fill="none" xmlns="http://www.w3.org/2000/svg">
<path fill-rule="evenodd" clip-rule="evenodd" d="M11.3337 44.6667V51.3333H4.66699V44.6667H11.3337ZM24.667 44.6667V51.3333H18.0003V44.6667H24.667ZM38.0003 44.6667V51.3333H31.3337V44.6667H38.0003ZM51.3337 44.6667V51.3333H44.667V44.6667H51.3337ZM11.3337 31.3333V38H4.66699V31.3333H11.3337ZM24.667 31.3333V38H18.0003V31.3333H24.667ZM38.0003 31.3333V38H31.3337V31.3333H38.0003ZM51.3337 31.3333V38H44.667V31.3333H51.3337ZM11.3337 18V24.6667H4.66699V18H11.3337ZM24.667 18V24.6667H18.0003V18H24.667ZM38.0003 18V24.6667H31.3337V18H38.0003ZM51.3337 18V24.6667H44.667V18H51.3337ZM11.3337 4.66666V11.3333H4.66699V4.66666H11.3337ZM24.667 4.66666V11.3333H18.0003V4.66666H24.667ZM38.0003 4.66666V11.3333H31.3337V4.66666H38.0003ZM51.3337 4.66666V11.3333H44.667V4.66666H51.3337Z" fill="#5A49CA"/>
</svg>
