<svg width="56" height="56" viewBox="0 0 56 56" fill="none" xmlns="http://www.w3.org/2000/svg">
<path d="M20.5866 8.77651C22.1813 6.21582 24.9881 4.66666 27.9953 4.66666C31.0025 4.66666 33.8092 6.21582 35.4039 8.77651L38.9215 14.3991L41.3819 12.9775C42.1474 12.531 43.1042 12.5947 43.8059 13.1324C44.5076 13.6701 44.8174 14.5813 44.5896 15.4379L42.4572 23.4025C42.1474 24.5689 40.9445 25.2615 39.7781 24.9516L31.8135 22.8193C30.9569 22.5914 30.3281 21.8715 30.2097 20.9967C30.0912 20.1219 30.5195 19.2562 31.285 18.8188L33.873 17.3243L30.4557 11.8657C29.9272 11.0182 28.9977 10.4988 27.9953 10.4988C26.9929 10.4988 26.0634 11.0182 25.5348 11.8657L23.9401 14.4173C23.1017 15.766 21.3339 16.1943 19.9669 15.3741C18.5727 14.5358 18.1262 12.7132 18.9919 11.3281L20.5866 8.77651ZM43.8059 27.6217C45.1728 26.8015 46.9407 27.2298 47.7791 28.5785L50.0026 32.1416C50.8592 33.5176 51.3148 35.0941 51.333 36.7162C51.3604 41.5551 47.4419 45.5009 42.603 45.5009L33.8274 45.4918V48.4079C33.8274 49.2918 33.2989 50.0937 32.4788 50.4309C31.6586 50.7681 30.72 50.5858 30.0912 49.957L24.2591 44.1249C23.4025 43.2683 23.4025 41.8831 24.2591 41.0356L30.0912 35.2035C30.72 34.5747 31.6586 34.3924 32.4788 34.7296C33.2989 35.0668 33.8274 35.8687 33.8274 36.7526V39.6687H42.5939C44.1977 39.6687 45.5009 38.3565 45.4918 36.7526C45.4918 36.215 45.3368 35.6865 45.0543 35.2308L42.8308 31.6677C41.9651 30.2826 42.4025 28.46 43.8059 27.6217ZM10.5808 24.7967L7.94724 23.2749C7.18176 22.8284 6.75347 21.9718 6.87193 21.0969C6.9904 20.2221 7.61918 19.5022 8.47577 19.2744L16.4403 17.142C17.6067 16.8322 18.8096 17.5247 19.1195 18.6912L21.2518 26.6466C21.4797 27.5032 21.1698 28.4054 20.4682 28.9521C19.7665 29.4989 18.8096 29.5536 18.0442 29.1071L15.6293 27.7128L10.9362 35.2217C10.6537 35.6773 10.4988 36.2059 10.4988 36.7435C10.4897 38.3474 11.7928 39.6596 13.3967 39.6596H16.331C17.9439 39.6596 19.247 40.9627 19.247 42.5757C19.247 44.1886 17.9439 45.4918 16.331 45.4918H13.3967C8.55779 45.4918 4.63931 41.5551 4.66665 36.7071C4.67576 35.085 5.1314 33.5085 5.99711 32.1325L10.5808 24.7967Z" fill="#5A49CA"/>
</svg>
