<svg width="56" height="56" viewBox="0 0 56 56" fill="none" xmlns="http://www.w3.org/2000/svg">
<path fill-rule="evenodd" clip-rule="evenodd" d="M48.4405 12.4445H34.9415C32.3622 12.4445 31.0726 15.5562 32.8925 17.3703L36.8579 21.323L28.1799 30.0815L21.4786 23.4015C20.9121 22.8368 20.0082 22.8368 19.4417 23.4015L5.099 37.5544C4.53253 38.107 4.52047 39.0201 5.0749 39.5848L8.50992 43.117C9.0764 43.6937 10.0045 43.7057 10.5709 43.129L20.4662 33.2653L27.1554 39.9332C27.7219 40.4979 28.6379 40.4979 29.2044 39.9332L42.366 26.8136L46.3916 30.8264C48.2115 32.6405 51.3332 31.355 51.3332 28.7839V15.3279C51.3332 13.73 50.0435 12.4445 48.4405 12.4445Z" fill="#5A49CA"/>
</svg>
