<svg width="62" height="56" viewBox="0 0 62 56" fill="none" xmlns="http://www.w3.org/2000/svg">
<path fill-rule="evenodd" clip-rule="evenodd" d="M48.314 20.2836C48.3798 19.6516 48.4135 19.0101 48.4135 18.3607C48.4135 8.22035 40.1931 0 30.0528 0C19.9125 0 11.6922 8.22035 11.6922 18.3607C11.6922 19.1671 11.7442 19.9615 11.845 20.7405C5.27885 23.5384 0.675781 30.0513 0.675781 37.6393C0.675781 47.7797 8.89613 56 19.0364 56C23.2542 56 27.1398 54.5778 30.2399 52.1869C33.5282 54.5894 37.6334 56 42.0169 56C52.4609 56 61.3252 47.9926 61.3252 37.6393C61.3252 29.4581 55.7899 22.7416 48.314 20.2836ZM47.5626 23.9015C45.9435 29.023 42.1394 33.1737 37.2443 35.2595C37.3451 36.0385 37.3971 36.8329 37.3971 37.6393C37.3971 42.2138 35.7242 46.3976 32.9568 49.6122C35.5128 51.3222 38.6398 52.3279 42.0169 52.3279C50.6525 52.3279 57.653 45.7516 57.653 37.6393C57.653 31.3616 53.4607 26.0037 47.5626 23.9015ZM43.972 23.0645C42.6987 26.8338 39.9372 29.9177 36.3867 31.6172C35.6216 29.4125 34.4481 27.3988 32.9568 25.6665C35.5128 23.9565 38.6398 22.9508 42.0169 22.9508C42.679 22.9508 43.3315 22.9895 43.972 23.0645ZM27.441 49.6873C25.0597 51.3516 22.1621 52.3279 19.0364 52.3279C10.9242 52.3279 4.34791 45.7516 4.34791 37.6393C4.34791 31.7952 7.76099 26.7481 12.7026 24.3828C14.4037 29.2845 18.1235 33.2425 22.8669 35.2619C22.7625 36.0383 22.7086 36.8317 22.7086 37.6393C22.7086 42.3042 24.5081 46.4928 27.441 49.6873ZM30.1676 47.2236C32.3846 44.6511 33.725 41.3018 33.725 37.6393C33.725 37.21 33.7065 36.785 33.6705 36.365C32.5009 36.5987 31.2912 36.7213 30.0528 36.7213C28.8157 36.7213 27.6072 36.599 26.4387 36.3657C26.4003 36.7855 26.3807 37.2102 26.3807 37.6393C26.3807 41.3018 27.8076 44.6511 30.1676 47.2236ZM27.2555 32.7831C28.1611 32.9577 29.0963 33.0492 30.0528 33.0492C31.0269 33.0492 31.9788 32.9544 32.8998 32.7735C32.2865 31.026 31.3522 29.4297 30.1676 28.0551C28.9042 29.4322 27.9083 31.0319 27.2555 32.7831ZM23.7567 31.6351C24.5738 29.38 25.8381 27.3372 27.441 25.5913C25.0597 23.9271 22.1621 22.9508 19.0364 22.9508C18.0624 22.9508 17.1105 23.0456 16.1894 23.2265C17.4911 26.9354 20.2391 29.9638 23.7567 31.6351ZM30.2399 23.0918C27.1398 20.7009 23.2542 19.2787 19.0364 19.2787C17.7981 19.2787 16.5884 19.4013 15.4188 19.635C15.3827 19.215 15.3643 18.79 15.3643 18.3607C15.3643 10.2484 21.9406 3.67213 30.0528 3.67213C38.1651 3.67213 44.7414 10.2484 44.7414 18.3607C44.7414 18.7293 44.7278 19.0948 44.7011 19.4566C43.8215 19.3393 42.9252 19.2787 42.0169 19.2787C37.6334 19.2787 33.5282 20.6893 30.2399 23.0918Z" fill="#5A49CA"/>
</svg>
