<svg id="Layer_1" data-name="Layer 1" xmlns="http://www.w3.org/2000/svg" viewBox="0 0 600 600"><defs><style>.cls-1{fill:#111;}</style></defs><path class="cls-1" d="M69.54,528.35,39.8,598.7H60.16l5-12.47H92.09l5.09,12.47h20.76L88.2,528.35Zm1.29,42.81,7.89-19.86,7.78,19.86Z"/><path class="cls-1" d="M189.72,568.17c0,9.78-5.09,14.37-12.87,14.37S164,577.75,164,567.67V528.85H144.31v39.22c0,21.85,12.48,31.93,32.34,31.93s32.73-9.88,32.73-32.43V528.85H189.72Z"/><path class="cls-1" d="M273.25,528.85H246.3V598.7h26.55c25.15,0,39.82-15,39.82-35.12v-.2C312.67,543.22,298.2,528.85,273.25,528.85Zm19.56,35c0,11.27-7.69,17.66-19.26,17.66h-7.89V546h7.89c11.57,0,19.26,6.49,19.26,17.67Z"/><rect class="cls-1" x="347.18" y="528.85" width="19.46" height="69.85"/><path class="cls-1" d="M449.06,568.17c0,9.78-5.09,14.37-12.87,14.37s-12.88-4.79-12.88-14.87V528.85H403.65v39.22c0,21.85,12.48,31.93,32.34,31.93s32.73-9.88,32.73-32.43V528.85H449.06Z"/><path class="cls-1" d="M534.15,555.19c-9.68-2.19-12.07-3.59-12.07-6.78v-.2c0-2.5,2.3-4.49,7-4.49,6.19,0,13.18,2.39,19.56,6.88l9.68-13.67c-7.58-6.09-16.86-9.28-28.74-9.28-16.76,0-27,9.38-27,22.35v.2c0,14.37,11.48,18.57,26.35,22,9.48,2.19,11.77,3.79,11.77,6.68v.2c0,3-2.79,4.79-8,4.79-8.09,0-15.77-2.89-22.66-8.38l-10.77,12.87C507.81,596,519.58,599.9,532,599.9c17,0,28.24-8.48,28.24-22.75V577C560.2,563.88,550.22,558.69,534.15,555.19Z"/><path class="cls-1" d="M231.79,333.66l49.82-86.17,7.62-13.18a11.68,11.68,0,0,1,1-1.46,12.41,12.41,0,0,1,20.5,1.47L362.42,324,372,340.58a13.12,13.12,0,0,1,1.22,2.92,12.42,12.42,0,0,1-12,15.69l-112.78-.08a12.42,12.42,0,0,0-10.75,6.2l-48,83a12.41,12.41,0,0,0,10.73,18.62l99.39.06,123.93.09,124.18.08a12.41,12.41,0,0,0,10.76-18.6L434.78,233.6,376.66,132.78,310.86,18.65a12.4,12.4,0,0,0-21.48,0L165.18,233.42l-50.75,87.76a12.41,12.41,0,0,0,10.74,18.61l95.87.07A12.42,12.42,0,0,0,231.79,333.66Z"/></svg>