<svg width="24" height="24" viewBox="0 0 24 24" fill="none" xmlns="http://www.w3.org/2000/svg">
<path d="M10.8577 2.27313C10.6457 1.90923 10.1148 1.90888 9.90224 2.27253L4.3797 11.7196L2.12325 15.5796C1.91068 15.9432 2.17578 16.3981 2.60048 16.3984L6.86349 16.4012C7.06054 16.4013 7.24276 16.2974 7.34141 16.1286L9.55706 12.3384L9.89587 11.7588C9.90926 11.7359 9.9239 11.7146 9.9396 11.6945C10.174 11.3967 10.6526 11.4184 10.8514 11.7594L13.1502 15.7039L13.5752 16.4332C13.5996 16.475 13.6174 16.5179 13.6296 16.5613C13.724 16.8955 13.4729 17.2516 13.0969 17.2514L8.08204 17.2481C7.88495 17.248 7.70277 17.3519 7.60411 17.5207L5.47017 21.1711C5.2576 21.5347 5.5227 21.9896 5.94735 21.9899L10.3668 21.9928L15.8776 21.9964L21.3992 22C21.824 22.0003 22.0896 21.5457 21.8775 21.1818L16.3676 11.7275L13.7834 7.29319L10.8577 2.27313Z" fill="#FF0000"/>
</svg>