<svg width="24" height="24" viewBox="0 0 24 24" fill="none" xmlns="http://www.w3.org/2000/svg">
<path fill-rule="evenodd" clip-rule="evenodd" d="M7.62524 16.375H11.3752C11.719 16.375 12.0002 16.0938 12.0002 15.75V12C12.0002 11.6562 11.719 11.375 11.3752 11.375H7.62524C7.28149 11.375 7.00024 11.6562 7.00024 12V15.75C7.00024 16.0938 7.28149 16.375 7.62524 16.375ZM18.8752 4.5H17.0002V2.625C17.0002 2.28125 16.719 2 16.3752 2H15.1252C14.7815 2 14.5002 2.28125 14.5002 2.625V4.5H9.50024V2.625C9.50024 2.28125 9.21899 2 8.87524 2H7.62524C7.28149 2 7.00024 2.28125 7.00024 2.625V4.5H5.12524C4.09009 4.5 3.25024 5.33984 3.25024 6.375V20.125C3.25024 21.1602 4.09009 22 5.12524 22H18.8752C19.9104 22 20.7502 21.1602 20.7502 20.125V6.375C20.7502 5.33984 19.9104 4.5 18.8752 4.5ZM18.8752 19.8906C18.8752 20.0195 18.7698 20.125 18.6409 20.125H5.35962C5.23071 20.125 5.12524 20.0195 5.12524 19.8906V8.25H18.8752V19.8906Z" fill="#FF0000"/>
</svg>
