<svg width="24" height="24" viewBox="0 0 24 24" fill="none" xmlns="http://www.w3.org/2000/svg">
<path fill-rule="evenodd" clip-rule="evenodd" d="M9.03171 13.25H7.46921C7.2114 13.25 7.00046 13.0391 7.00046 12.7812V11.2188C7.00046 10.9609 7.2114 10.75 7.46921 10.75H9.03171C9.28952 10.75 9.50046 10.9609 9.50046 11.2188V12.7812C9.50046 13.0391 9.28952 13.25 9.03171 13.25ZM13.2505 12.7812V11.2188C13.2505 10.9609 13.0395 10.75 12.7817 10.75H11.2192C10.9614 10.75 10.7505 10.9609 10.7505 11.2188V12.7812C10.7505 13.0391 10.9614 13.25 11.2192 13.25H12.7817C13.0395 13.25 13.2505 13.0391 13.2505 12.7812ZM17.0005 12.7812V11.2188C17.0005 10.9609 16.7895 10.75 16.5317 10.75H14.9692C14.7114 10.75 14.5005 10.9609 14.5005 11.2188V12.7812C14.5005 13.0391 14.7114 13.25 14.9692 13.25H16.5317C16.7895 13.25 17.0005 13.0391 17.0005 12.7812ZM13.2505 16.5312V14.9688C13.2505 14.7109 13.0395 14.5 12.7817 14.5H11.2192C10.9614 14.5 10.7505 14.7109 10.7505 14.9688V16.5312C10.7505 16.7891 10.9614 17 11.2192 17H12.7817C13.0395 17 13.2505 16.7891 13.2505 16.5312ZM9.50046 16.5312V14.9688C9.50046 14.7109 9.28952 14.5 9.03171 14.5H7.46921C7.2114 14.5 7.00046 14.7109 7.00046 14.9688V16.5312C7.00046 16.7891 7.2114 17 7.46921 17H9.03171C9.28952 17 9.50046 16.7891 9.50046 16.5312ZM17.0005 16.5312V14.9688C17.0005 14.7109 16.7895 14.5 16.5317 14.5H14.9692C14.7114 14.5 14.5005 14.7109 14.5005 14.9688V16.5312C14.5005 16.7891 14.7114 17 14.9692 17H16.5317C16.7895 17 17.0005 16.7891 17.0005 16.5312ZM20.7502 6.375V20.125C20.7502 21.1602 19.9104 22 18.8752 22H5.12524C4.09009 22 3.25024 21.1602 3.25024 20.125V6.375C3.25024 5.33984 4.09009 4.5 5.12524 4.5H7.00024V2.46875C7.00024 2.21094 7.21118 2 7.46899 2H9.03149C9.28931 2 9.50024 2.21094 9.50024 2.46875V4.5H14.5002V2.46875C14.5002 2.21094 14.7112 2 14.969 2H16.5315C16.7893 2 17.0002 2.21094 17.0002 2.46875V4.5H18.8752C19.9104 4.5 20.7502 5.33984 20.7502 6.375ZM18.8755 19.8906V8.25H5.12546V19.8906C5.12546 20.0195 5.23093 20.125 5.35983 20.125H18.6411C18.77 20.125 18.8755 20.0195 18.8755 19.8906Z" fill="#FF0000"/>
</svg>
