<svg width="24" height="24" viewBox="0 0 24 24" fill="none" xmlns="http://www.w3.org/2000/svg">
<path fill-rule="evenodd" clip-rule="evenodd" d="M19.8872 8.66667H4.11342C3.86789 8.66667 3.66699 8.44167 3.66699 8.16667V6.66667C3.66699 5.5625 4.46684 4.66667 5.45271 4.66667H7.23842V2.5C7.23842 2.225 7.43931 2 7.68485 2H9.17294C9.41848 2 9.61937 2.225 9.61937 2.5V4.66667H14.3813V2.5C14.3813 2.225 14.5822 2 14.8277 2H16.3158C16.5613 2 16.7622 2.225 16.7622 2.5V4.66667H18.5479C19.5338 4.66667 20.3337 5.5625 20.3337 6.66667V8.16667C20.3337 8.44167 20.1328 8.66667 19.8872 8.66667ZM4.11342 9.5H19.8872C20.1328 9.5 20.3337 9.71094 20.3337 9.96875V20.125C20.3337 21.1602 19.5338 22 18.5479 22H5.45271C4.46684 22 3.66699 21.1602 3.66699 20.125V9.96875C3.66699 9.71094 3.86789 9.5 4.11342 9.5ZM8.66699 17.4688C8.66699 17.2109 8.45605 17 8.19824 17H6.63574C6.37793 17 6.16699 17.2109 6.16699 17.4688V19.0312C6.16699 19.2891 6.37793 19.5 6.63574 19.5H8.19824C8.45605 19.5 8.66699 19.2891 8.66699 19.0312V17.4688ZM8.66699 12.4688C8.66699 12.2109 8.45605 12 8.19824 12H6.63574C6.37793 12 6.16699 12.2109 6.16699 12.4688V14.0312C6.16699 14.2891 6.37793 14.5 6.63574 14.5H8.19824C8.45605 14.5 8.66699 14.2891 8.66699 14.0312V12.4688ZM13.667 17.4688C13.667 17.2109 13.4561 17 13.1982 17H11.6357C11.3779 17 11.167 17.2109 11.167 17.4688V19.0312C11.167 19.2891 11.3779 19.5 11.6357 19.5H13.1982C13.4561 19.5 13.667 19.2891 13.667 19.0312V17.4688ZM13.667 12.4688C13.667 12.2109 13.4561 12 13.1982 12H11.6357C11.3779 12 11.167 12.2109 11.167 12.4688V14.0312C11.167 14.2891 11.3779 14.5 11.6357 14.5H13.1982C13.4561 14.5 13.667 14.2891 13.667 14.0312V12.4688ZM17.8337 17.4688C17.8337 17.2109 17.6227 17 17.3649 17H15.8024C15.5446 17 15.3337 17.2109 15.3337 17.4688V19.0312C15.3337 19.2891 15.5446 19.5 15.8024 19.5H17.3649C17.6227 19.5 17.8337 19.2891 17.8337 19.0312V17.4688ZM17.8337 12.4688C17.8337 12.2109 17.6227 12 17.3649 12H15.8024C15.5446 12 15.3337 12.2109 15.3337 12.4688V14.0312C15.3337 14.2891 15.5446 14.5 15.8024 14.5H17.3649C17.6227 14.5 17.8337 14.2891 17.8337 14.0312V12.4688Z" fill="#FF0000"/>
</svg>
