<svg width="24" height="24" viewBox="0 0 24 24" fill="none" xmlns="http://www.w3.org/2000/svg">
<path d="M15.5071 14.3648L4.60083 14.3696C4.31385 14.3696 4.08106 14.1344 4.08106 13.8442L4.07867 6.47892C4.07867 6.18873 4.31144 5.95278 4.59764 5.95278L15.5039 5.94799C15.7909 5.94799 16.0237 6.18316 16.0237 6.47413L16.0261 13.8394C16.0261 14.1288 15.7941 14.3648 15.5071 14.3648ZM3.03818 3.84826C2.465 3.84906 2.00024 4.3202 2.00024 4.90055L2.00423 15.4228C2.00503 16.0039 2.46898 16.4743 3.04378 16.4743L17.0664 16.4687C17.6404 16.4679 18.1051 15.9967 18.1051 15.4164L18.1004 4.89417C18.1004 4.31301 17.6356 3.84268 17.0616 3.84268L3.03818 3.84826ZM22.0002 18.5797V7.0005C22.0002 6.70952 21.7674 6.47436 21.4812 6.47436H20.4417C20.1547 6.47436 19.9219 6.70952 19.9219 7.0005V17.0005C19.9219 17.5816 19.4571 18.0528 18.8832 18.0528H6.93562C6.64864 18.0528 6.41585 18.2879 6.41585 18.5789V19.6312C6.41585 19.9222 6.64862 20.1573 6.93562 20.1573H20.4425C21.3019 20.1581 22.0002 19.4518 22.0002 18.5797L22.0002 18.5797ZM7.64348 12.7897H12.1459C12.4664 12.7897 12.6426 12.399 12.4401 12.1384L10.1889 9.25164C10.0366 9.05713 9.7528 9.05713 9.60054 9.25164L7.34932 12.139C7.14683 12.3989 7.3238 12.7895 7.64348 12.7895V12.7897ZM12.5263 7.52662C11.9452 7.52662 11.474 7.99776 11.474 8.57891C11.474 9.16005 11.9452 9.63119 12.5263 9.63119C13.1075 9.63119 13.5786 9.16005 13.5786 8.57891C13.5794 7.99774 13.1083 7.52662 12.5263 7.52662Z" fill="#FF0000"/>
</svg>
