<svg width="24" height="24" viewBox="0 0 24 24" fill="none" xmlns="http://www.w3.org/2000/svg">
<path fill-rule="evenodd" clip-rule="evenodd" d="M12.4939 1.11268C12.182 0.962431 11.8185 0.962431 11.5065 1.11268L3.59773 4.92136C3.28575 5.0716 3.05915 5.35574 2.9821 5.69334L1.02878 14.2514C0.951728 14.589 1.0326 14.9433 1.2485 15.214L6.72157 22.077C6.93747 22.3478 7.26491 22.5054 7.61119 22.5054H16.3893C16.7356 22.5054 17.063 22.3478 17.2789 22.077L22.752 15.214C22.9679 14.9433 23.0488 14.589 22.9717 14.2514L21.0184 5.69334C20.9413 5.35574 20.7147 5.0716 20.4028 4.92136L12.4939 1.11268ZM13.6902 6.86451C13.6993 6.70145 13.5695 6.56426 13.4062 6.56426H10.594C10.4307 6.56426 10.3009 6.70145 10.31 6.86451L10.696 13.8119C10.7068 14.0068 10.9067 14.1334 11.0948 14.0817C11.3831 14.0026 11.6867 13.9604 12.0001 13.9604C12.3135 13.9604 12.6171 14.0026 12.9054 14.0817C13.0936 14.1334 13.2935 14.0068 13.3043 13.8119L13.6902 6.86451ZM12.0002 18.5119C12.9429 18.5119 13.707 17.7477 13.707 16.8051C13.707 15.8624 12.9429 15.0983 12.0002 15.0983C11.0576 15.0983 10.2934 15.8624 10.2934 16.8051C10.2934 17.7477 11.0576 18.5119 12.0002 18.5119Z" fill="#FF0000"/>
</svg>
