<svg width="24" height="24" viewBox="0 0 24 24" fill="none" xmlns="http://www.w3.org/2000/svg">
<path d="M8.25024 13.25H7.62524C6.24438 13.25 5.12524 14.3711 5.12524 15.7547V18.2453C5.12524 19.6285 6.24438 20.75 7.62524 20.75H8.25024C8.94048 20.75 9.50024 20.1891 9.50024 19.4977V14.5023C9.50024 13.8105 8.94048 13.25 8.25024 13.25ZM16.3752 13.25H15.7502C15.06 13.25 14.5002 13.8105 14.5002 14.5023V19.4977C14.5002 20.1891 15.06 20.75 15.7502 20.75H16.3752C17.7561 20.75 18.8752 19.6285 18.8752 18.2453V15.7547C18.8752 14.3715 17.7561 13.25 16.3752 13.25ZM12.0002 3.25C6.41079 3.25 2.17876 7.90352 2.00024 13.25V17.625C2.00024 17.9703 2.27993 18.25 2.62524 18.25H3.25024C3.59556 18.25 3.87524 17.9703 3.87524 17.625V13.25C3.87524 8.7707 7.52095 5.13281 12.0002 5.13203C16.4795 5.13281 20.1252 8.7707 20.1252 13.25V17.625C20.1252 17.9703 20.4049 18.25 20.7502 18.25H21.3752C21.7206 18.25 22.0002 17.9703 22.0002 17.625V13.25C21.8217 7.90352 17.5897 3.25 12.0002 3.25Z" fill="#FF0000"/>
</svg>
