<svg width="24" height="24" viewBox="0 0 24 24" fill="none" xmlns="http://www.w3.org/2000/svg">
<path fill-rule="evenodd" clip-rule="evenodd" d="M15.3336 3.34303V5.35617C15.3336 6.02721 14.7238 6.45578 14.2225 6.57912C13.5012 6.75659 11.6494 7.13818 8.66691 7.72391V19.8027C8.66691 20.3346 8.45027 20.6624 8.07282 20.8052C7.47148 21.5271 6.4688 22 5.33358 22C3.49263 22 2.00024 20.7563 2.00024 19.2222C2.00024 17.6881 3.49263 16.4444 5.33358 16.4444C5.72367 16.4444 6.09811 16.5003 6.44602 16.6029L6.44469 5.35617C6.44469 4.76916 6.8 4.25026 7.32185 4.07517L13.7107 2.06203C14.5156 1.79196 15.3336 2.4376 15.3336 3.34303ZM20.8891 17.5556C21.5028 17.5556 22.0002 18.053 22.0002 18.6667C22.0002 19.2803 21.5028 19.7778 20.8891 19.7778H14.2225C13.6088 19.7778 13.1114 19.2803 13.1114 18.6667C13.1114 18.053 13.6088 17.5556 14.2225 17.5556H20.8891ZM20.8891 13.1111C21.5028 13.1111 22.0002 13.6086 22.0002 14.2222C22.0002 14.8359 21.5028 15.3333 20.8891 15.3333H14.2225C13.6088 15.3333 13.1114 14.8359 13.1114 14.2222C13.1114 13.6086 13.6088 13.1111 14.2225 13.1111H20.8891ZM20.8891 8.66667C21.5028 8.66667 22.0002 9.16413 22.0002 9.77778C22.0002 10.3914 21.5028 10.8889 20.8891 10.8889H16.4447C15.831 10.8889 15.3336 10.3914 15.3336 9.77778C15.3336 9.16413 15.831 8.66667 16.4447 8.66667H20.8891Z" fill="#FF0000"/>
</svg>
