<svg width="24" height="24" viewBox="0 0 24 24" fill="none" xmlns="http://www.w3.org/2000/svg">
<path fill-rule="evenodd" clip-rule="evenodd" d="M3.99679 18.5907C4.39023 19.2432 5.11323 19.6446 5.89754 19.6471H10.1742L9.43078 18.7754C8.82275 18.0589 8.82275 17.0297 9.43078 16.3132L10.2355 15.38H7.57602C7.32566 15.38 7.09317 15.2495 6.96799 15.0402C6.8428 14.8309 6.84536 14.5723 6.97054 14.363L8.35523 12.0288L9.89575 12.8783C9.96984 12.9177 10.0618 12.9103 10.1231 12.8586C10.187 12.8069 10.21 12.7207 10.1793 12.6444L8.37822 8.08673C8.33223 7.96608 8.21216 7.88482 8.07676 7.88236H8.02055L3.0362 8.70476C2.95956 8.72199 2.89824 8.78109 2.88547 8.85742C2.8727 8.93375 2.90591 9.01008 2.97233 9.05194L4.51797 9.90388L2.29532 13.6638C1.90189 14.3236 1.90189 15.1337 2.29532 15.7912L3.99679 18.5907Z" fill="#FF0000"/>
<path fill-rule="evenodd" clip-rule="evenodd" d="M12.7559 10.0411L17.575 10.8235H17.6267C17.7575 10.8235 17.8758 10.7433 17.9202 10.6218L19.6343 6.12138C19.6639 6.04605 19.6417 5.961 19.58 5.90996C19.5184 5.85893 19.4296 5.84921 19.3605 5.89052L17.8734 6.74104L15.7031 3.04979C15.3183 2.40097 14.6154 2.00001 13.8558 2.00001H10.6102C9.84814 2.00244 9.14525 2.4034 8.76544 3.05222L6.70611 6.58795L7.8184 6.40084C8.73092 6.24774 9.62864 6.75076 9.95912 7.60614L10.3833 8.70453L11.651 6.53449C11.7718 6.32793 11.9963 6.19914 12.238 6.19914C12.4772 6.19914 12.6991 6.32307 12.8225 6.52477L14.1764 8.83332L12.6893 9.68384C12.6104 9.72029 12.566 9.80291 12.5808 9.88796C12.598 9.97058 12.6695 10.0338 12.7559 10.0411Z" fill="#FF0000"/>
<path fill-rule="evenodd" clip-rule="evenodd" d="M18.9489 11.6801C18.6939 12.3653 17.9864 12.7774 17.2614 12.6582L15.7713 12.405L17.1339 14.7584C17.2589 14.9719 17.2589 15.235 17.1339 15.4485C17.0064 15.662 16.7738 15.7886 16.5263 15.7836H13.7988V14.0509C13.7988 13.9962 13.7763 13.9466 13.7363 13.9094C13.6988 13.8721 13.6438 13.8547 13.5913 13.8572C13.5338 13.8572 13.4788 13.8845 13.4438 13.9292L10.3087 17.7299C10.2112 17.8466 10.2112 18.0154 10.3087 18.1296L13.4538 21.9278C13.4888 21.9725 13.5438 21.9998 13.6013 21.9998C13.6538 22.0022 13.7088 21.9849 13.7463 21.9476C13.7863 21.9104 13.8088 21.8607 13.8088 21.8086V20.0758H18.1864C18.9589 20.0758 19.6714 19.6662 20.0589 19.0034L21.7115 16.1759C22.0965 15.513 22.0965 14.6938 21.7115 14.031L19.4989 10.2353L18.9489 11.6801Z" fill="#FF0000"/>
</svg>
