<svg width="24" height="24" viewBox="0 0 24 24" fill="none" xmlns="http://www.w3.org/2000/svg">
<path d="M22.0002 12C22.0002 15.4462 19.1965 18.25 15.7502 18.25H8.64349L9.99161 19.5163C10.3774 19.8787 10.3869 20.4883 10.0127 20.8626L9.59177 21.2835C9.22564 21.6496 8.63208 21.6496 8.26595 21.2835L4.6454 17.6629C4.27927 17.2968 4.27927 16.7032 4.6454 16.3371L8.26595 12.7166C8.63208 12.3504 9.22564 12.3504 9.59177 12.7166L10.0127 13.1375C10.3869 13.5117 10.3774 14.1213 9.99161 14.4837L8.64349 15.75H15.7502C17.818 15.75 19.5002 14.0677 19.5002 12C19.5002 11.4547 19.3832 10.9364 19.1731 10.4685C19.0144 10.1155 19.0838 9.70191 19.3575 9.4282L19.8334 8.9523C20.2826 8.50312 21.043 8.61925 21.33 9.18597C21.7586 10.0321 22.0002 10.9884 22.0002 12ZM4.82743 13.5314C4.61728 13.0635 4.50024 12.5452 4.50024 12C4.50024 9.93218 6.18247 8.24995 8.25024 8.24995H15.357L14.0089 9.51632C13.6231 9.87867 13.6136 10.4883 13.9878 10.8626L14.4087 11.2835C14.7749 11.6496 15.3684 11.6496 15.7345 11.2835L19.3551 7.66292C19.7212 7.29679 19.7212 6.70324 19.3551 6.3371L15.7345 2.71656C15.3684 2.35042 14.7749 2.35042 14.4087 2.71656L13.9878 3.13745C13.6136 3.51171 13.6231 4.12132 14.0089 4.4837L15.357 5.74995H8.25024C4.80396 5.74995 2.00024 8.5537 2.00024 12C2.00024 13.0116 2.24188 13.9678 2.67044 14.814C2.95743 15.3807 3.71782 15.4968 4.167 15.0477L4.6429 14.5718C4.91665 14.298 4.9861 13.8844 4.82743 13.5314Z" fill="#FF0000"/>
</svg>
