<svg width="20" height="20" viewBox="0 0 20 20" fill="none" xmlns="http://www.w3.org/2000/svg">
<path fill-rule="evenodd" clip-rule="evenodd" d="M15.3463 8.65521L18.0164 6.91166C18.0975 6.85869 18.1667 6.78945 18.2197 6.70834C18.431 6.38472 18.34 5.95107 18.0164 5.73974L15.3463 3.99619C15.2326 3.92189 15.0996 3.88232 14.9637 3.88232C14.5772 3.88232 14.2639 4.19565 14.2639 4.58215V8.06925C14.2639 8.20515 14.3035 8.3381 14.3778 8.45189C14.5891 8.7755 15.0227 8.86653 15.3463 8.65521ZM5.79304 12.6242H2.53253C2.05451 12.6242 1.66699 13.0291 1.66699 13.6756C1.66699 14.3221 2.05451 14.7237 2.53253 14.7237H5.82704C7.02296 14.7237 8.12292 13.9798 8.73555 12.6297C9.34541 13.9798 10.4276 14.7237 11.6235 14.7237H14.2639V12.6242H11.6235C10.975 12.6242 10.4378 12.0061 10.1518 11.2188L9.70772 9.99635L10.1518 8.77392C10.4378 7.98661 10.975 7.37548 11.6235 7.37548H14.2639V5.276H11.6235C10.4276 5.276 9.34541 6.01393 8.73555 7.36315C8.12292 6.01393 7.02296 5.276 5.82704 5.276H2.53253C2.05451 5.276 1.66699 5.67057 1.66699 6.31711C1.66699 6.96365 2.05451 7.37548 2.53253 7.37548H5.79304C6.4416 7.37548 7.03372 7.98661 7.31971 8.77392L7.76375 9.99635L7.31971 11.2188C7.03372 12.0061 6.4416 12.6242 5.79304 12.6242ZM15.3463 16.0034L18.0164 14.2598C18.0975 14.2069 18.1667 14.1376 18.2197 14.0565C18.431 13.7329 18.34 13.2993 18.0164 13.0879L15.3463 11.3444C15.2326 11.2701 15.0996 11.2305 14.9637 11.2305C14.5772 11.2305 14.2639 11.5438 14.2639 11.9303V15.4174C14.2639 15.5533 14.3035 15.6863 14.3778 15.8001C14.5891 16.1237 15.0227 16.2147 15.3463 16.0034Z" fill="#858199"/>
</svg>
