<?xml version="1.0" standalone="no"?>
<!DOCTYPE svg PUBLIC "-//W3C//DTD SVG 20010904//EN"
 "http://www.w3.org/TR/2001/REC-SVG-20010904/DTD/svg10.dtd">
<svg version="1.0" xmlns="http://www.w3.org/2000/svg"
 width="500.000000pt" height="500.000000pt" viewBox="0 0 500.000000 500.000000"
 preserveAspectRatio="xMidYMid meet">
<metadata>
Created by potrace 1.11, written by Peter Selinger 2001-2013
</metadata>
<g transform="translate(0.000000,500.000000) scale(0.100000,-0.100000)"
fill="#000000" stroke="none">
<path d="M2464 4365 c-31 -13 -49 -40 -174 -255 -196 -338 -296 -511 -313
-540 -10 -19 -43 -75 -72 -125 -74 -125 -224 -383 -248 -425 -18 -33 -542
-936 -585 -1010 -70 -119 -112 -201 -112 -218 0 -36 18 -70 47 -89 25 -17 60
-18 443 -19 318 -1 422 1 446 11 30 12 47 36 124 170 246 431 398 686 422 709
26 24 37 27 70 23 61 -8 43 16 268 -372 275 -475 330 -575 330 -594 0 -34 -26
-76 -55 -89 -19 -9 -156 -12 -511 -12 -406 0 -490 -2 -513 -15 -20 -10 -50
-52 -97 -132 -37 -65 -86 -149 -109 -188 -157 -264 -245 -426 -245 -448 0 -39
18 -72 50 -90 26 -16 144 -17 1495 -17 l1467 0 29 31 c50 54 44 76 -93 313
-67 116 -161 279 -208 361 -122 211 -1324 2287 -1433 2475 -49 85 -99 171
-110 190 -130 229 -194 334 -211 345 -34 21 -69 25 -102 10z"/>
</g>
</svg>
