<svg width="24" height="24" viewBox="0 0 24 24" fill="none" xmlns="http://www.w3.org/2000/svg">
<path fill-rule="evenodd" clip-rule="evenodd" d="M9.99947 20.3009C9.99947 19.8341 10.1995 19.402 10.5329 19.0686L16.0011 14.0005H4.00053C2.80021 14.0005 2 13.2003 2 12C2 10.7997 2.80021 10.0021 4.00053 10.0021H16.0011L10.4663 4.86743C10.1648 4.56869 9.99947 4.10189 9.99947 3.69912C9.99947 2.76821 10.8664 2 11.7333 2C12.2001 2 12.6322 2.20005 12.9336 2.50147L21.3998 10.7997C21.7333 11.1331 22 11.5332 22 12C22 12.4348 21.7013 12.9016 21.3998 13.2003L12.9656 21.4665C12.5655 21.8666 12.1334 22 11.7333 22C10.7677 22 9.99947 21.2345 9.99947 20.3009Z" fill="#FF0000"/>
</svg>
