<svg fill="none" xmlns="http://www.w3.org/2000/svg" viewBox="15.5 9 20 16"> <g id="Cloud-Arrow-Up"> <g id="ExportLayerAbove" filter="url(#filter0_dd_3163_4516)"> <path fill-rule="evenodd" clip-rule="evenodd" d="M25.5 9C29 9 31.5 11.5538 31.5 15C33.625 15.6154 35.5 17.6615 35.5 20C35.5 22.7077 33.25 25 30.5 25H21.5C18.375 25 15.5 22.0769 15.5 19C15.5 16.5385 17.25 14.7385 19.5 14C19.875 10.9231 22.375 9 25.5 9ZM21.6555 16.7326L25.1277 13.1577C25.332 12.9474 25.668 12.9474 25.8723 13.1577L29.3445 16.7326C29.6773 17.0752 29.4401 17.6586 28.9723 17.6586H26.8177V21.4573C26.8177 21.7558 26.5806 22 26.2906 22H24.7094C24.4194 22 24.1823 21.7558 24.1823 21.4573V17.6586H22.0277C21.5599 17.6586 21.3227 17.0752 21.6555 16.7326Z" fill="white"></path> </g> </g> <defs> <filter id="filter0_dd_3163_4516" x="0.5" y="0" width="50" height="46" filterUnits="userSpaceOnUse" color-interpolation-filters="sRGB"> <feFlood flood-opacity="0" result="BackgroundImageFix"></feFlood> <feColorMatrix in="SourceAlpha" type="matrix" values="0 0 0 0 0 0 0 0 0 0 0 0 0 0 0 0 0 0 127 0" result="hardAlpha"></feColorMatrix> <feOffset dy="1.34018"></feOffset> <feGaussianBlur stdDeviation="4"></feGaussianBlur> <feColorMatrix type="matrix" values="0 0 0 0 0 0 0 0 0 0 0 0 0 0 0 0 0 0 0.2 0"></feColorMatrix> <feBlend mode="normal" in2="BackgroundImageFix" result="effect1_dropShadow_3163_4516"></feBlend> <feColorMatrix in="SourceAlpha" type="matrix" values="0 0 0 0 0 0 0 0 0 0 0 0 0 0 0 0 0 0 127 0" result="hardAlpha"></feColorMatrix> <feOffset dy="6"></feOffset> <feGaussianBlur stdDeviation="7.5"></feGaussianBlur> <feColorMatrix type="matrix" values="0 0 0 0 0 0 0 0 0 0 0 0 0 0 0 0 0 0 0.1 0"></feColorMatrix> <feBlend mode="normal" in2="effect1_dropShadow_3163_4516" result="effect2_dropShadow_3163_4516"></feBlend> <feBlend mode="normal" in="SourceGraphic" in2="effect2_dropShadow_3163_4516" result="shape"></feBlend> </filter> </defs> </svg>