<svg width="24" height="24" viewBox="0 0 24 24" fill="none" xmlns="http://www.w3.org/2000/svg">
<g id="Icon">
<path id="ExportLayerAbove" fill-rule="evenodd" clip-rule="evenodd" d="M12 22C17.5228 22 22 17.5228 22 12C22 6.47715 17.5228 2 12 2C6.47715 2 2 6.47715 2 12C2 17.5228 6.47715 22 12 22ZM13.4059 6.56427C13.5693 6.56427 13.699 6.70146 13.69 6.86452L13.304 13.8119C13.2932 14.0068 13.0933 14.1334 12.9052 14.0818C12.6168 14.0027 12.3133 13.9604 11.9999 13.9604C11.6864 13.9604 11.3829 14.0027 11.0946 14.0818C10.9064 14.1334 10.7065 14.0068 10.6957 13.8119L10.3097 6.86452C10.3007 6.70146 10.4305 6.56427 10.5938 6.56427H13.4059ZM13.7068 16.8051C13.7068 17.7477 12.9426 18.5119 12 18.5119C11.0573 18.5119 10.2932 17.7477 10.2932 16.8051C10.2932 15.8624 11.0573 15.0983 12 15.0983C12.9426 15.0983 13.7068 15.8624 13.7068 16.8051Z" fill="#858199"/>
</g>
</svg>
