<svg fill="none" xmlns="http://www.w3.org/2000/svg" viewBox="15 9.24 20 17.53"> <g id="chat-lines"> <g id="ExportLayerAbove" filter="url(#filter0_dd_3163_4569)"> <path d="M25.0166 9.23511C30.5498 9.23511 34.999 12.8794 34.999 17.3745C34.999 19.3162 34.1636 21.0912 32.7697 22.489C33.2588 24.4604 34.8934 26.217 34.9129 26.2366C35.001 26.3247 35.0254 26.461 34.9716 26.5784C34.9227 26.6958 34.8143 26.7649 34.6871 26.7649C32.0946 26.7649 30.1831 25.5221 29.1852 24.7539C27.9083 25.2333 26.4843 25.5127 24.9825 25.5127C19.4493 25.5127 15 21.8684 15 17.4085C15 12.9487 19.4833 9.23511 25.0166 9.23511ZM21.1173 20.5402H25.5C26.0165 20.5402 26.4392 20.1215 26.4392 19.6011C26.4392 19.0806 26.0165 18.6619 25.5 18.6619H21.1173C20.5968 18.6619 20.1781 19.0845 20.1781 19.6011C20.1781 20.1176 20.5968 20.5402 21.1173 20.5402ZM20.9469 16.7836H29.0862C29.6028 16.7836 30.0254 16.3649 30.0254 15.8444C30.0254 15.324 29.6028 14.9053 29.0862 14.9053H20.9469C20.4264 14.9053 20.0077 15.3279 20.0077 15.8444C20.0077 16.361 20.4264 16.7836 20.9469 16.7836Z" fill="white"></path> </g> </g> <defs> <filter id="filter0_dd_3163_4569" x="0" y="0.235107" width="50" height="47.5298" filterUnits="userSpaceOnUse" color-interpolation-filters="sRGB"> <feFlood flood-opacity="0" result="BackgroundImageFix"></feFlood> <feColorMatrix in="SourceAlpha" type="matrix" values="0 0 0 0 0 0 0 0 0 0 0 0 0 0 0 0 0 0 127 0" result="hardAlpha"></feColorMatrix> <feOffset dy="1.34018"></feOffset> <feGaussianBlur stdDeviation="4"></feGaussianBlur> <feColorMatrix type="matrix" values="0 0 0 0 0 0 0 0 0 0 0 0 0 0 0 0 0 0 0.2 0"></feColorMatrix> <feBlend mode="normal" in2="BackgroundImageFix" result="effect1_dropShadow_3163_4569"></feBlend> <feColorMatrix in="SourceAlpha" type="matrix" values="0 0 0 0 0 0 0 0 0 0 0 0 0 0 0 0 0 0 127 0" result="hardAlpha"></feColorMatrix> <feOffset dy="6"></feOffset> <feGaussianBlur stdDeviation="7.5"></feGaussianBlur> <feColorMatrix type="matrix" values="0 0 0 0 0 0 0 0 0 0 0 0 0 0 0 0 0 0 0.1 0"></feColorMatrix> <feBlend mode="normal" in2="effect1_dropShadow_3163_4569" result="effect2_dropShadow_3163_4569"></feBlend> <feBlend mode="normal" in="SourceGraphic" in2="effect2_dropShadow_3163_4569" result="shape"></feBlend> </filter> </defs> </svg>