<svg fill="none" xmlns="http://www.w3.org/2000/svg" viewBox="15 9 20 20"> <g id="headphones"> <g id="ExportLayerAbove" filter="url(#filter0_dd_3163_4524)"> <path fill-rule="evenodd" clip-rule="evenodd" d="M25.0134 9C19.4863 9 15 13.603 15 19.2739V24.4794C15.0271 26.9729 17.0298 28.9999 19.4591 28.9999H20.0463C20.5532 28.9999 20.9809 28.5611 20.9809 28.041V20.7808C20.9809 20.2606 20.5532 19.8219 20.0463 19.8219H19.4591C18.4973 19.8219 17.5899 20.1504 16.842 20.6983V19.2739C16.842 14.6709 20.5 10.9178 24.9863 10.9178C29.4725 10.9178 33.1578 14.6709 33.1578 19.2739V20.6983C32.4099 20.1504 31.5285 19.8219 30.5407 19.8219H29.9535C29.4465 19.8219 29.0189 20.2606 29.0189 20.7808V28.041C29.0189 28.5611 29.4465 28.9999 29.9535 28.9999H30.5407C32.9971 28.9999 34.9739 26.9729 34.9999 24.4794V19.2739C35.0269 13.603 30.5407 9 25.0136 9H25.0134Z" fill="white"></path> </g> </g> <defs> <filter id="filter0_dd_3163_4524" x="0" y="0" width="50" height="50" filterUnits="userSpaceOnUse" color-interpolation-filters="sRGB"> <feFlood flood-opacity="0" result="BackgroundImageFix"></feFlood> <feColorMatrix in="SourceAlpha" type="matrix" values="0 0 0 0 0 0 0 0 0 0 0 0 0 0 0 0 0 0 127 0" result="hardAlpha"></feColorMatrix> <feOffset dy="1.34018"></feOffset> <feGaussianBlur stdDeviation="4"></feGaussianBlur> <feColorMatrix type="matrix" values="0 0 0 0 0 0 0 0 0 0 0 0 0 0 0 0 0 0 0.2 0"></feColorMatrix> <feBlend mode="normal" in2="BackgroundImageFix" result="effect1_dropShadow_3163_4524"></feBlend> <feColorMatrix in="SourceAlpha" type="matrix" values="0 0 0 0 0 0 0 0 0 0 0 0 0 0 0 0 0 0 127 0" result="hardAlpha"></feColorMatrix> <feOffset dy="6"></feOffset> <feGaussianBlur stdDeviation="7.5"></feGaussianBlur> <feColorMatrix type="matrix" values="0 0 0 0 0 0 0 0 0 0 0 0 0 0 0 0 0 0 0.1 0"></feColorMatrix> <feBlend mode="normal" in2="effect1_dropShadow_3163_4524" result="effect2_dropShadow_3163_4524"></feBlend> <feBlend mode="normal" in="SourceGraphic" in2="effect2_dropShadow_3163_4524" result="shape"></feBlend> </filter> </defs> </svg>