<?xml version="1.0" encoding="UTF-8"?>
<svg width="32px" height="32px" viewBox="0 0 32 32" version="1.1" xmlns="http://www.w3.org/2000/svg" xmlns:xlink="http://www.w3.org/1999/xlink">
    <!-- Generator: Sketch 57.1 (83088) - https://sketch.com -->
    <title>iconRemove</title>
    <desc>Created with Sketch.</desc>
    <g id="Page-1" stroke="none" stroke-width="1" fill="none" fill-rule="evenodd">
        <g id="Guide" transform="translate(-579.000000, -24.000000)">
            <g id="icon/Remove" transform="translate(579.000000, 24.000000)">
                <rect id="bound" x="0" y="0" width="32" height="32"></rect>
                <path d="M11.1094285,8.41709901 L15.9995747,13.3065747 L20.8905715,8.41709901 C21.4112706,7.89639995 22.2554905,7.89639995 22.7761896,8.41709901 L23.582901,9.22381041 C24.1036,9.74450947 24.1036,10.5887294 23.582901,11.1094285 L18.6915747,15.9995747 L23.582901,20.8905715 C24.1036,21.4112706 24.1036,22.2554905 23.582901,22.7761896 L22.7761896,23.582901 C22.2554905,24.1036 21.4112706,24.1036 20.8905715,23.582901 L15.9995747,18.6915747 L11.1094285,23.582901 C10.5887294,24.1036 9.74450947,24.1036 9.22381041,23.582901 L8.41709901,22.7761896 C7.89639995,22.2554905 7.89639995,21.4112706 8.41709901,20.8905715 L13.3065747,15.9995747 L8.41709901,11.1094285 C7.89639995,10.5887294 7.89639995,9.74450947 8.41709901,9.22381041 L9.22381041,8.41709901 C9.74450947,7.89639995 10.5887294,7.89639995 11.1094285,8.41709901 Z" id="Combined-Shape" fill="#FFFFFF" fill-rule="evenodd"></path>
            </g>
        </g>
    </g>
</svg>