<svg width="60" height="60" viewBox="0 0 60 60" fill="none" xmlns="http://www.w3.org/2000/svg">
<path fill-rule="evenodd" clip-rule="evenodd" d="M23.505 46.8284C23.1729 46.8504 22.8377 46.8615 22.5 46.8615C14.2157 46.8615 7.5 40.1477 7.5 31.8658C7.5 23.5839 14.2157 16.8701 22.5 16.8701C28.0521 16.8701 32.8997 19.8857 35.4933 24.368H41.25C47.4632 24.368 52.5 29.4033 52.5 35.6147C52.5 41.8262 47.4632 46.8615 41.25 46.8615H24.375C24.0823 46.8615 23.7921 46.8503 23.505 46.8284Z" fill="#CECDD6"/>
<path fill-rule="evenodd" clip-rule="evenodd" d="M27.3437 42.1754C25.7042 42.1754 24.375 41.0357 24.375 39.6298C24.375 38.2239 25.7042 37.0843 27.3437 37.0843C27.6907 37.0843 28.0238 37.1353 28.3333 37.2291V30.1648C28.3333 29.6427 28.6498 29.1812 29.1145 29.0254L34.8047 27.2349C35.5215 26.9946 36.25 27.5689 36.25 28.3742V30.1648C36.25 30.7617 35.7069 31.1429 35.2604 31.2526C34.618 31.4104 32.9687 31.7498 30.3125 32.2708V39.682C30.3125 39.7734 30.3053 39.858 30.2912 39.936C30.1149 41.1975 28.8625 42.1754 27.3437 42.1754Z" fill="#F2F2F4"/>
</svg>
