<?xml version="1.0" encoding="UTF-8"?>
<svg width="48px" height="48px" viewBox="0 0 48 48" version="1.1" xmlns="http://www.w3.org/2000/svg" xmlns:xlink="http://www.w3.org/1999/xlink">
    <!-- Generator: Sketch 58 (84663) - https://sketch.com -->
    <title>iconAudio</title>
    <desc>Created with Sketch.</desc>
    <g id="Page-1" stroke="none" stroke-width="1" fill="none" fill-rule="evenodd">
        <g id="Asset-Export" transform="translate(-931.000000, -2397.000000)">
            <g id="Stockholm-icons-/-Media-/-Music-cloud" transform="translate(931.000000, 2397.000000)">
                <rect id="bound" x="0" y="0" width="48" height="48"></rect>
                <path d="M16,10 C21.9223902,10 27.0932389,13.2177318 29.8596689,18.0003182 L36,18 C42.627417,18 48,23.372583 48,30 C48,36.627417 42.627417,42 36,42 L18,42 C17.6852531,42 17.3733364,41.9878824 17.0646911,41.9640882 C16.7125992,41.988264 16.3576701,42 16,42 C4.6862915,42 0,37.3137085 0,26 C0,17.163444 7.163444,10 16,10 Z" id="Combined-Shape" fill="#DAD9E0" fill-rule="evenodd"></path>
                <path d="M21.1666667,37 C19.417765,37 18,35.7839833 18,34.2839506 C18,32.783918 19.417765,31.5679012 21.1666667,31.5679012 C21.5367818,31.5679012 21.8920667,31.6223618 22.2222222,31.7224496 L22.2222222,24.1850687 C22.2222222,23.6279836 22.5597689,23.1355386 23.0555207,22.969374 L29.1249651,21.0588656 C29.8896327,20.8025667 30.6666667,21.4152897 30.6666667,22.2745603 L30.6666667,24.1850687 C30.6666667,24.8219048 30.0873392,25.2286239 29.6111111,25.345679 C28.9259149,25.5140978 27.1666556,25.8762377 24.3333333,26.4320988 L24.3333333,34.3395936 C24.3333333,34.437131 24.3256482,34.5274376 24.3106606,34.6106434 C24.1225318,35.9566381 22.7866596,37 21.1666667,37 Z" id="Combined-Shape" fill="#B6B3C2" fill-rule="evenodd"></path>
            </g>
        </g>
    </g>
</svg>