<?xml version="1.0" encoding="UTF-8"?>
<svg width="32px" height="32px" viewBox="0 0 32 32" version="1.1" xmlns="http://www.w3.org/2000/svg" xmlns:xlink="http://www.w3.org/1999/xlink">
    <!-- Generator: Sketch 57.1 (83088) - https://sketch.com -->
    <title>iconArrow</title>
    <desc>Created with Sketch.</desc>
    <g id="Page-1" stroke="none" stroke-width="1" fill="none" fill-rule="evenodd">
        <g id="Guide" transform="translate(-172.000000, -135.000000)">
            <g id="icon/Arrow" transform="translate(171.000000, 135.000000)">
                <rect id="Bound" x="0" y="0" width="32" height="32"></rect>
                <path d="M14.1328354,23.7474882 C14.1328354,23.3118165 14.3195519,22.9085089 14.630746,22.5973148 L19.7343292,17.8671646 L8.53383124,17.8671646 C7.4135325,17.8671646 6.66666667,17.1202987 6.66666667,16 C6.66666667,14.8797013 7.4135325,14.135325 8.53383124,14.135325 L19.7343292,14.135325 L14.5685072,9.34293589 C14.2871877,9.06410598 14.1328354,8.62843425 14.1328354,8.25251178 C14.1328354,7.38365786 14.9419401,6.66666667 15.7510447,6.66666667 C16.1867165,6.66666667 16.590024,6.85338312 16.8713435,7.13470259 L24.773184,14.8797013 C25.0843781,15.1908953 25.3333333,15.5643283 25.3333333,16 C25.3333333,16.4057971 25.0545034,16.8414688 24.773184,17.1202987 L16.9012181,24.8354228 C16.5277852,25.2088557 16.1244776,25.3333333 15.7510447,25.3333333 C14.8498266,25.3333333 14.1328354,24.6188317 14.1328354,23.7474882" id="Fill-1" fill="#FFFFFF" fill-rule="evenodd"></path>
            </g>
        </g>
    </g>
</svg>