<svg width="60" height="61" viewBox="0 0 60 61" fill="none" xmlns="http://www.w3.org/2000/svg">
<path fill-rule="evenodd" clip-rule="evenodd" d="M15.0875 15.6307C14.0872 15.3627 13.0591 15.9561 12.7911 16.9561L7.9852 34.8868C7.71718 35.8867 8.31078 36.9146 9.31103 37.1825L43.4153 46.3181C44.4156 46.586 45.4437 45.9926 45.7117 44.9927L50.5176 27.062C50.7856 26.062 50.192 25.0342 49.1918 24.7663L15.0875 15.6307Z" fill="#F2F2F4"/>
<path fill-rule="evenodd" clip-rule="evenodd" d="M9.72266 21.6928C9.72266 20.6576 10.5621 19.8184 11.5977 19.8184H46.905C47.9406 19.8184 48.78 20.6576 48.78 21.6928V40.256C48.78 41.2912 47.9406 42.1305 46.905 42.1305H11.5977C10.5621 42.1305 9.72266 41.2912 9.72266 40.256V21.6928ZM36.6906 30.9744C36.6906 35.082 33.3598 38.4118 29.2511 38.4118C25.1424 38.4118 21.8116 35.082 21.8116 30.9744C21.8116 26.8669 25.1424 23.537 29.2511 23.537C33.3598 23.537 36.6906 26.8669 36.6906 30.9744ZM29.2511 34.6931C31.3055 34.6931 32.9709 33.0282 32.9709 30.9744C32.9709 28.9206 31.3055 27.2557 29.2511 27.2557C27.1968 27.2557 25.5314 28.9206 25.5314 30.9744C25.5314 33.0282 27.1968 34.6931 29.2511 34.6931Z" fill="#CECDD6"/>
</svg>
