<?xml version="1.0" encoding="UTF-8"?>
<svg width="32px" height="33px" viewBox="0 0 32 33" version="1.1" xmlns="http://www.w3.org/2000/svg" xmlns:xlink="http://www.w3.org/1999/xlink">
    <!-- Generator: Sketch 57.1 (83088) - https://sketch.com -->
    <title>iconOptions</title>
    <desc>Created with Sketch.</desc>
    <g id="Page-1" stroke="none" stroke-width="1" fill="none" fill-rule="evenodd">
        <g id="Guide" transform="translate(-26.000000, -24.000000)">
            <g id="icon/More" transform="translate(25.000000, 24.000000)">
                <rect id="bound" x="0" y="0" width="32" height="32"></rect>
                <path d="M7.33333333,13.3333333 C9.1742825,13.3333333 10.6666667,14.8257175 10.6666667,16.6666667 C10.6666667,18.5076158 9.1742825,20 7.33333333,20 C5.49238417,20 4,18.5076158 4,16.6666667 C4,14.8257175 5.49238417,13.3333333 7.33333333,13.3333333 Z M16.6666667,13.3333333 C18.5076158,13.3333333 20,14.8257175 20,16.6666667 C20,18.5076158 18.5076158,20 16.6666667,20 C14.8257175,20 13.3333333,18.5076158 13.3333333,16.6666667 C13.3333333,14.8257175 14.8257175,13.3333333 16.6666667,13.3333333 Z M26,13.3333333 C27.8409492,13.3333333 29.3333333,14.8257175 29.3333333,16.6666667 C29.3333333,18.5076158 27.8409492,20 26,20 C24.1590508,20 22.6666667,18.5076158 22.6666667,16.6666667 C22.6666667,14.8257175 24.1590508,13.3333333 26,13.3333333 Z" id="Combined-Shape" fill="#FFFFFF" fill-rule="evenodd"></path>
            </g>
        </g>
    </g>
</svg>