<?xml version="1.0" encoding="UTF-8"?>
<svg width="48px" height="48px" viewBox="0 0 48 48" version="1.1" xmlns="http://www.w3.org/2000/svg" xmlns:xlink="http://www.w3.org/1999/xlink">
    <!-- Generator: Sketch 58 (84663) - https://sketch.com -->
    <title>iconFree</title>
    <desc>Created with Sketch.</desc>
    <g id="Page-1" stroke="none" stroke-width="1" fill="none" fill-rule="evenodd">
        <g id="Asset-Export" transform="translate(-1014.000000, -2396.000000)">
            <g id="Stockholm-icons-/-Shopping-/-Money" transform="translate(1014.000000, 2396.000000)">
                <rect id="bound" x="0" y="0" width="48" height="48"></rect>
                <path d="M43,12 C43.5522847,12 44,12.4477153 44,13 L44,35 C44,35.5522847 43.5522847,36 43,36 L3,36 C2.44771525,36 2,35.5522847 2,35 L2,13 C2,12.4477153 2.44771525,12 3,12 L43,12 Z M23,16 C18.581722,16 15,19.581722 15,24 C15,28.418278 18.581722,32 23,32 C27.418278,32 31,28.418278 31,24 C31,19.581722 27.418278,16 23,16 Z" id="Combined-Shape-Copy" fill="#DAD9E0" fill-rule="evenodd" transform="translate(23.000000, 24.000000) rotate(-345.000000) translate(-23.000000, -24.000000) "></path>
                <path d="M43,12 C43.5522847,12 44,12.4477153 44,13 L44,35 C44,35.5522847 43.5522847,36 43,36 L3,36 C2.44771525,36 2,35.5522847 2,35 L2,13 C2,12.4477153 2.44771525,12 3,12 L43,12 Z M23,16 C18.581722,16 15,19.581722 15,24 C15,28.418278 18.581722,32 23,32 C27.418278,32 31,28.418278 31,24 C31,19.581722 27.418278,16 23,16 Z M23,28 C25.209139,28 27,26.209139 27,24 C27,21.790861 25.209139,20 23,20 C20.790861,20 19,21.790861 19,24 C19,26.209139 20.790861,28 23,28 Z" id="Combined-Shape" fill="#B6B3C2" fill-rule="evenodd"></path>
            </g>
        </g>
    </g>
</svg>