<?xml version="1.0" encoding="UTF-8"?>
<svg width="20px" height="18px" viewBox="0 0 20 18" version="1.1" xmlns="http://www.w3.org/2000/svg" xmlns:xlink="http://www.w3.org/1999/xlink">
    <!-- Generator: Sketch 57.1 (83088) - https://sketch.com -->
    <title>iconTwitter</title>
    <desc>Created with Sketch.</desc>
    <g id="Page-1" stroke="none" stroke-width="1" fill="none" fill-rule="evenodd">
        <g id="Guide" transform="translate(-987.000000, -1917.000000)" fill="#FFFFFF">
            <g id="brands/twitter" transform="translate(985.000000, 1914.000000)">
                <path d="M19.9441406,7.92640624 C19.956836,8.10406249 19.956836,8.2817578 19.956836,8.45941405 C19.956836,13.8781641 15.8325,20.121836 8.29441405,20.121836 C5.9720703,20.121836 3.81472654,19.4492188 1.99999997,18.2817578 C2.32996091,18.3198047 2.64718748,18.3325 2.98984373,18.3325 C4.90605467,18.3325 6.67003905,17.6853125 8.07867187,16.58125 C6.27664061,16.5431641 4.76648436,15.3629688 4.24617186,13.7385938 C4.49999997,13.7766406 4.75378904,13.8020313 5.02031248,13.8020313 C5.3883203,13.8020313 5.75636717,13.75125 6.09898436,13.6624609 C4.22082029,13.2817188 2.81214841,11.6319922 2.81214841,9.63960937 L2.81214841,9.58886718 C3.35781248,9.89343749 3.99238279,10.0837891 4.66492186,10.1091406 C3.56085935,9.37308593 2.83753904,8.1167578 2.83753904,6.69542967 C2.83753904,5.93402342 3.04054685,5.23605467 3.39589842,4.62691404 C5.41367186,7.11421874 8.44667968,8.73855468 11.8476562,8.91624999 C11.7842187,8.61167968 11.7461328,8.29445312 11.7461328,7.97718749 C11.7461328,5.71828123 13.5735547,3.8782031 15.8451172,3.8782031 C17.0253125,3.8782031 18.0912891,4.37312498 18.8400391,5.17261717 C19.7664063,4.99496092 20.6547266,4.65230467 21.4415625,4.18277342 C21.1369531,5.1345703 20.4897656,5.93406248 19.6395313,6.44164061 C20.4644141,6.35285155 21.2639063,6.12437499 21.9999219,5.80714842 C21.4416406,6.61929686 20.7436328,7.34261718 19.9441406,7.92640624 Z" id="twitter"></path>
            </g>
        </g>
    </g>
</svg>