<?xml version="1.0" encoding="UTF-8"?>
<svg width="48px" height="48px" viewBox="0 0 48 48" version="1.1" xmlns="http://www.w3.org/2000/svg" xmlns:xlink="http://www.w3.org/1999/xlink">
    <!-- Generator: Sketch 58 (84663) - https://sketch.com -->
    <title>iconCensorship</title>
    <desc>Created with Sketch.</desc>
    <g id="Page-1" stroke="none" stroke-width="1" fill="none" fill-rule="evenodd">
        <g id="Asset-Export" transform="translate(-1100.000000, -2395.000000)">
            <g id="Stockholm-icons-/-Communication-/-Shield-user" transform="translate(1100.000000, 2395.000000)">
                <rect id="bound" x="0" y="0" width="48" height="48"></rect>
                <path d="M8,8 L23.6314229,5.0691082 C23.8750185,5.02343403 24.1249815,5.02343403 24.3685771,5.0691082 L40,8 L40,8 L40,29.9032759 C40,33.6959663 38.0461833,37.2211354 34.8299883,39.2312573 L24.5299989,45.6687507 C24.2057287,45.8714196 23.7942713,45.8714196 23.4700011,45.6687507 L13.1700117,39.2312573 C9.95381666,37.2211354 8,33.6959663 8,29.9032759 L8,8 L8,8 Z" id="Path-50" fill="#DAD9E0" fill-rule="evenodd"></path>
                <path d="M24,22 C21.790861,22 20,20.209139 20,18 C20,15.790861 21.790861,14 24,14 C26.209139,14 28,15.790861 28,18 C28,20.209139 26.209139,22 24,22 Z" id="Mask" fill="#B6B3C2" fill-rule="evenodd"></path>
                <path d="M14.0007241,32.9990069 C14.4313984,27.0331448 18.7354582,24 23.9814904,24 C29.3013515,24 33.672093,26.8664911 33.9976826,33 C34.0106532,33.2443426 33.9976826,34 33.1629999,34 C29.0456933,34 22.9274719,34 14.8083358,34 C14.5296802,34 13.9772647,33.323975 14.0007241,32.9990069 Z" id="Mask-Copy" fill="#B6B3C2" fill-rule="evenodd"></path>
            </g>
        </g>
    </g>
</svg>