<?xml version="1.0" encoding="UTF-8"?>
<svg width="18px" height="18px" viewBox="0 0 18 18" version="1.1" xmlns="http://www.w3.org/2000/svg" xmlns:xlink="http://www.w3.org/1999/xlink">
    <!-- Generator: Sketch 57.1 (83088) - https://sketch.com -->
    <title>iconInsta</title>
    <desc>Created with Sketch.</desc>
    <g id="Page-1" stroke="none" stroke-width="1" fill="none" fill-rule="evenodd">
        <g id="Guide" transform="translate(-934.000000, -1917.000000)" fill="#FFFFFF">
            <g id="brands/instagram" transform="translate(931.000000, 1914.000000)">
                <path d="M12.0039063,7.50781249 C9.51953124,7.50781249 7.51562499,9.51171874 7.51562499,11.9960937 C7.51562499,14.4804688 9.51953124,16.484375 12.0039063,16.484375 C14.4882813,16.484375 16.4921875,14.4804688 16.4921875,11.9960937 C16.4921875,9.51171874 14.4882813,7.50781249 12.0039063,7.50781249 Z M12.0039063,14.9140625 C10.3984375,14.9140625 9.08593749,13.6054688 9.08593749,11.9960937 C9.08593749,10.3867187 10.3945312,9.07812499 12.0039063,9.07812499 C13.6132813,9.07812499 14.921875,10.3867187 14.921875,11.9960937 C14.921875,13.6054688 13.609375,14.9140625 12.0039063,14.9140625 L12.0039063,14.9140625 Z M17.7226563,7.32421874 C17.7226563,7.90624999 17.2539063,8.37109374 16.6757813,8.37109374 C16.09375,8.37109374 15.6289063,7.90234374 15.6289063,7.32421874 C15.6289063,6.74609374 16.0976563,6.27734374 16.6757813,6.27734374 C17.2539063,6.27734374 17.7226563,6.74609374 17.7226563,7.32421874 Z M20.6953125,8.38671874 C20.6289063,6.98437499 20.3085938,5.74218748 19.28125,4.71874998 C18.2578125,3.69531248 17.015625,3.37499998 15.6132813,3.30468748 C14.1679688,3.22265623 9.83593749,3.22265623 8.39062499,3.30468748 C6.99218749,3.37109373 5.74999998,3.69140623 4.72265623,4.71484373 C3.69531248,5.73828123 3.37890623,6.98046874 3.30859373,8.38281249 C3.22656248,9.82812499 3.22656248,14.1601563 3.30859373,15.6054688 C3.37499998,17.0078125 3.69531248,18.25 4.72265623,19.2734375 C5.74999998,20.296875 6.98828124,20.6171875 8.39062499,20.6875 C9.83593749,20.7695313 14.1679688,20.7695313 15.6132813,20.6875 C17.015625,20.6210938 18.2578125,20.3007813 19.28125,19.2734375 C20.3046875,18.25 20.625,17.0078125 20.6953125,15.6054688 C20.7773438,14.1601563 20.7773438,9.83203124 20.6953125,8.38671874 Z M18.828125,17.15625 C18.5234375,17.921875 17.9335938,18.5117188 17.1640625,18.8203125 C16.0117188,19.2773438 13.2773438,19.171875 12.0039063,19.171875 C10.7304687,19.171875 7.99218749,19.2734375 6.84374999,18.8203125 C6.07812499,18.515625 5.48828123,17.9257813 5.17968748,17.15625 C4.72265623,16.0039063 4.82812498,13.2695313 4.82812498,11.9960937 C4.82812498,10.7226562 4.72656248,7.98437499 5.17968748,6.83593749 C5.48437498,6.07031249 6.07421874,5.48046873 6.84374999,5.17187498 C7.99609374,4.71484373 10.7304687,4.82031248 12.0039063,4.82031248 C13.2773438,4.82031248 16.015625,4.71874998 17.1640625,5.17187498 C17.9296875,5.47656248 18.5195313,6.06640624 18.828125,6.83593749 C19.2851563,7.98828124 19.1796875,10.7226562 19.1796875,11.9960937 C19.1796875,13.2695313 19.2851563,16.0078125 18.828125,17.15625 Z" id="instagram"></path>
            </g>
        </g>
    </g>
</svg>