<?xml version="1.0" encoding="UTF-8"?>
<svg width="18px" height="20px" viewBox="0 0 18 20" version="1.1" xmlns="http://www.w3.org/2000/svg" xmlns:xlink="http://www.w3.org/1999/xlink">
    <!-- Generator: Sketch 57.1 (83088) - https://sketch.com -->
    <title>iconDiscord</title>
    <desc>Created with Sketch.</desc>
    <g id="Page-1" stroke="none" stroke-width="1" fill="none" fill-rule="evenodd">
        <g id="Guide" transform="translate(-1042.000000, -1916.000000)" fill="#FFFFFF">
            <g id="brands/discord" transform="translate(1039.000000, 1914.000000)">
                <path d="M14.86,11.5 C14.86,12.11 14.41,12.61 13.84,12.61 C13.28,12.61 12.82,12.11 12.82,11.5 C12.82,10.89 13.27,10.39 13.84,10.39 C14.41,10.39 14.86,10.89 14.86,11.5 Z M10.19,10.39 C9.61999999,10.39 9.16999999,10.89 9.16999999,11.5 C9.16999999,12.11 9.62999999,12.61 10.19,12.61 C10.76,12.61 11.21,12.11 11.21,11.5 C11.22,10.89 10.76,10.39 10.19,10.39 Z M20.75,4.05999998 L20.75,22 C18.2307031,19.7736719 19.0364063,20.510625 16.11,17.79 L16.64,19.64 L5.29999998,19.64 C4.16999998,19.64 3.24999998,18.72 3.24999998,17.58 L3.24999998,4.05999998 C3.24999998,2.91999998 4.16999998,1.99999997 5.29999998,1.99999997 L18.7,1.99999997 C19.83,1.99999997 20.75,2.91999998 20.75,4.05999998 Z M17.9,13.54 C17.9,10.32 16.46,7.70999999 16.46,7.70999999 C15.02,6.62999999 13.65,6.65991688 13.65,6.65991688 L13.51,6.81999999 C15.21,7.33999999 16,8.08999999 16,8.08999999 C13.6245703,6.78808592 10.8342187,6.78785155 8.52999999,7.79999999 C8.15999999,7.96999999 7.93999999,8.08999999 7.93999999,8.08999999 C7.93999999,8.08999999 8.76999999,7.29999999 10.57,6.77999999 L10.47,6.65991688 C10.47,6.65991688 9.09999999,6.62999999 7.65999999,7.70999999 C7.65999999,7.70999999 6.21999999,10.32 6.21999999,13.54 C6.21999999,13.54 7.05999999,14.99 9.26999999,15.06 C9.26999999,15.06 9.63999999,14.61 9.93999999,14.23 C8.66999999,13.85 8.18999999,13.05 8.18999999,13.05 C8.33710937,13.1529688 8.57968749,13.2864453 8.59999999,13.3 C10.2878906,14.2452344 12.6854688,14.5549219 14.84,13.65 C15.19,13.52 15.58,13.33 15.99,13.06 C15.99,13.06 15.49,13.88 14.18,14.25 C14.48,14.63 14.84,15.06 14.84,15.06 C17.05,14.99 17.9,13.54 17.9,13.54 L17.9,13.54 Z" id="discord"></path>
            </g>
        </g>
    </g>
</svg>