<?xml version="1.0" encoding="UTF-8"?>
<svg width="154px" height="22px" viewBox="0 0 154 22" version="1.1" xmlns="http://www.w3.org/2000/svg" xmlns:xlink="http://www.w3.org/1999/xlink">
    <!-- Generator: Sketch 57.1 (83088) - https://sketch.com -->
    <title>listen-on-audius</title>
    <desc>Created with Sketch.</desc>
    <g id="Page-1" stroke="none" stroke-width="1" fill="none" fill-rule="evenodd">
        <g id="Guide" transform="translate(-1247.000000, -2405.000000)" fill="#FFFFFF">
            <path d="M1390,2405 C1396.07513,2405 1401,2409.92487 1401,2416 C1401,2422.07513 1396.07513,2427 1390,2427 L1258,2427 C1251.92487,2427 1247,2422.07513 1247,2416 C1247,2409.92487 1251.92487,2405 1258,2405 L1390,2405 Z M1382.849,2413.804 C1382.513,2413.804 1382.17467,2413.84833 1381.834,2413.937 C1381.49333,2414.02567 1381.183,2414.16333 1380.903,2414.35 C1380.623,2414.53667 1380.39433,2414.777 1380.217,2415.071 C1380.03967,2415.365 1379.951,2415.722 1379.951,2416.142 C1379.951,2416.46867 1380.01167,2416.74867 1380.133,2416.982 C1380.25433,2417.21533 1380.41067,2417.41133 1380.602,2417.57 C1380.79333,2417.72867 1381.01033,2417.85467 1381.253,2417.948 C1381.49567,2418.04133 1381.73833,2418.116 1381.981,2418.172 C1382.457,2418.284 1382.807,2418.39133 1383.031,2418.494 C1383.255,2418.59667 1383.367,2418.75533 1383.367,2418.97 C1383.367,2419.194 1383.276,2419.35033 1383.094,2419.439 C1382.912,2419.52767 1382.72767,2419.572 1382.541,2419.572 C1382.205,2419.572 1381.88767,2419.49733 1381.589,2419.348 C1381.29033,2419.19867 1381.03833,2419.012 1380.833,2418.788 L1380.833,2418.788 L1379.545,2420.146 C1379.909,2420.50067 1380.364,2420.769 1380.91,2420.951 C1381.456,2421.133 1382.01366,2421.224 1382.583,2421.224 C1382.93767,2421.224 1383.29233,2421.182 1383.647,2421.098 C1384.00167,2421.014 1384.32133,2420.87867 1384.606,2420.692 C1384.89067,2420.50533 1385.12167,2420.26033 1385.299,2419.957 C1385.47633,2419.65367 1385.565,2419.28267 1385.565,2418.844 C1385.565,2418.508 1385.49967,2418.21867 1385.369,2417.976 C1385.23833,2417.73333 1385.06567,2417.528 1384.851,2417.36 C1384.63633,2417.192 1384.396,2417.05667 1384.13,2416.954 C1383.864,2416.85133 1383.60033,2416.772 1383.339,2416.716 C1382.891,2416.61333 1382.56667,2416.52 1382.366,2416.436 C1382.16533,2416.352 1382.065,2416.212 1382.065,2416.016 C1382.065,2415.81067 1382.156,2415.666 1382.338,2415.582 C1382.52,2415.498 1382.71833,2415.456 1382.933,2415.456 C1383.213,2415.456 1383.479,2415.51667 1383.731,2415.638 C1383.983,2415.75933 1384.20233,2415.90867 1384.389,2416.086 L1384.389,2416.086 L1385.649,2414.784 C1385.30366,2414.45733 1384.88134,2414.21233 1384.382,2414.049 C1383.88266,2413.88567 1383.37167,2413.804 1382.849,2413.804 Z M1277.716,2413.804 C1277.38,2413.804 1277.04167,2413.84833 1276.701,2413.937 C1276.36033,2414.02567 1276.05,2414.16333 1275.77,2414.35 C1275.49,2414.53667 1275.26133,2414.777 1275.084,2415.071 C1274.90667,2415.365 1274.818,2415.722 1274.818,2416.142 C1274.818,2416.46867 1274.87867,2416.74867 1275,2416.982 C1275.12133,2417.21533 1275.27767,2417.41133 1275.469,2417.57 C1275.66033,2417.72867 1275.87733,2417.85467 1276.12,2417.948 C1276.36267,2418.04133 1276.60533,2418.116 1276.848,2418.172 C1277.324,2418.284 1277.674,2418.39133 1277.898,2418.494 C1278.122,2418.59667 1278.234,2418.75533 1278.234,2418.97 C1278.234,2419.194 1278.143,2419.35033 1277.961,2419.439 C1277.779,2419.52767 1277.59467,2419.572 1277.408,2419.572 C1277.072,2419.572 1276.75467,2419.49733 1276.456,2419.348 C1276.15733,2419.19867 1275.90533,2419.012 1275.7,2418.788 L1275.7,2418.788 L1274.412,2420.146 C1274.776,2420.50067 1275.231,2420.769 1275.777,2420.951 C1276.323,2421.133 1276.88066,2421.224 1277.45,2421.224 C1277.80467,2421.224 1278.15933,2421.182 1278.514,2421.098 C1278.86867,2421.014 1279.18833,2420.87867 1279.473,2420.692 C1279.75767,2420.50533 1279.98867,2420.26033 1280.166,2419.957 C1280.34333,2419.65367 1280.432,2419.28267 1280.432,2418.844 C1280.432,2418.508 1280.36667,2418.21867 1280.236,2417.976 C1280.10533,2417.73333 1279.93267,2417.528 1279.718,2417.36 C1279.50333,2417.192 1279.263,2417.05667 1278.997,2416.954 C1278.731,2416.85133 1278.46733,2416.772 1278.206,2416.716 C1277.758,2416.61333 1277.43367,2416.52 1277.233,2416.436 C1277.03233,2416.352 1276.932,2416.212 1276.932,2416.016 C1276.932,2415.81067 1277.023,2415.666 1277.205,2415.582 C1277.387,2415.498 1277.58533,2415.456 1277.8,2415.456 C1278.08,2415.456 1278.346,2415.51667 1278.598,2415.638 C1278.85,2415.75933 1279.06933,2415.90867 1279.256,2416.086 L1279.256,2416.086 L1280.516,2414.784 C1280.17066,2414.45733 1279.74834,2414.21233 1279.249,2414.049 C1278.74966,2413.88567 1278.23867,2413.804 1277.716,2413.804 Z M1315.327,2413.804 C1314.80433,2413.804 1314.30734,2413.888 1313.836,2414.056 C1313.36466,2414.224 1312.954,2414.46667 1312.604,2414.784 C1312.254,2415.10133 1311.97633,2415.48866 1311.771,2415.946 C1311.56567,2416.40334 1311.463,2416.91666 1311.463,2417.486 C1311.463,2418.05534 1311.56567,2418.571 1311.771,2419.033 C1311.97633,2419.495 1312.254,2419.887 1312.604,2420.209 C1312.954,2420.531 1313.36466,2420.78067 1313.836,2420.958 C1314.30734,2421.13533 1314.80433,2421.224 1315.327,2421.224 C1315.859,2421.224 1316.35833,2421.13533 1316.825,2420.958 C1317.29167,2420.78067 1317.70233,2420.531 1318.057,2420.209 C1318.41167,2419.887 1318.69167,2419.495 1318.897,2419.033 C1319.10233,2418.571 1319.205,2418.05534 1319.205,2417.486 C1319.205,2416.91666 1319.10233,2416.40334 1318.897,2415.946 C1318.69167,2415.48866 1318.41167,2415.10133 1318.057,2414.784 C1317.70233,2414.46667 1317.29167,2414.224 1316.825,2414.056 C1316.35833,2413.888 1315.859,2413.804 1315.327,2413.804 Z M1292.136,2413.804 C1291.604,2413.804 1291.10934,2413.89267 1290.652,2414.07 C1290.19466,2414.24733 1289.798,2414.497 1289.462,2414.819 C1289.126,2415.141 1288.86,2415.533 1288.664,2415.995 C1288.468,2416.457 1288.37,2416.97266 1288.37,2417.542 C1288.37,2418.13 1288.47033,2418.65266 1288.671,2419.11 C1288.87167,2419.56734 1289.147,2419.95233 1289.497,2420.265 C1289.847,2420.57767 1290.25533,2420.81567 1290.722,2420.979 C1291.18867,2421.14233 1291.68333,2421.224 1292.206,2421.224 C1292.91534,2421.224 1293.53833,2421.09567 1294.075,2420.839 C1294.61167,2420.58233 1295.04333,2420.216 1295.37,2419.74 L1295.37,2419.74 L1293.774,2418.732 C1293.61533,2418.94667 1293.41,2419.12167 1293.158,2419.257 C1292.906,2419.39233 1292.598,2419.46 1292.234,2419.46 C1292.02867,2419.46 1291.83033,2419.42733 1291.639,2419.362 C1291.44767,2419.29667 1291.275,2419.20567 1291.121,2419.089 C1290.967,2418.97233 1290.841,2418.83467 1290.743,2418.676 C1290.645,2418.51733 1290.58667,2418.34 1290.568,2418.144 L1290.568,2418.144 L1295.622,2418.144 C1295.63133,2418.06 1295.636,2417.97133 1295.636,2417.878 L1295.636,2417.878 L1295.636,2417.598 C1295.636,2417.00066 1295.54967,2416.46867 1295.377,2416.002 C1295.20433,2415.53533 1294.964,2415.13867 1294.656,2414.812 C1294.348,2414.48533 1293.97934,2414.23567 1293.55,2414.063 C1293.12066,2413.89033 1292.64934,2413.804 1292.136,2413.804 Z M1373.056,2414.028 L1370.746,2414.028 L1370.746,2418.34 C1370.746,2418.69467 1370.79033,2419.04233 1370.879,2419.383 C1370.96767,2419.72367 1371.11233,2420.027 1371.313,2420.293 C1371.51367,2420.559 1371.775,2420.776 1372.097,2420.944 C1372.419,2421.112 1372.81333,2421.196 1373.28,2421.196 C1373.52267,2421.196 1373.75367,2421.16333 1373.973,2421.098 C1374.19233,2421.03267 1374.393,2420.94867 1374.575,2420.846 C1374.757,2420.74333 1374.91567,2420.622 1375.051,2420.482 C1375.18633,2420.342 1375.296,2420.19267 1375.38,2420.034 L1375.38,2420.034 L1375.408,2420.034 L1375.408,2421 L1377.62,2421 L1377.62,2414.028 L1375.324,2414.028 L1375.324,2417.794 C1375.324,2418.19534 1375.219,2418.54533 1375.009,2418.844 C1374.799,2419.14267 1374.49334,2419.292 1374.092,2419.292 C1373.87733,2419.292 1373.70467,2419.25233 1373.574,2419.173 C1373.44333,2419.09367 1373.33833,2418.984 1373.259,2418.844 C1373.17967,2418.704 1373.126,2418.54533 1373.098,2418.368 C1373.07,2418.19067 1373.056,2418.004 1373.056,2417.808 L1373.056,2417.808 L1373.056,2414.028 Z M1363.102,2410.416 L1360.806,2410.416 L1360.806,2414.77 L1360.778,2414.77 C1360.582,2414.53667 1360.30667,2414.322 1359.952,2414.126 C1359.59733,2413.93 1359.16334,2413.832 1358.65,2413.832 C1358.146,2413.832 1357.691,2413.93 1357.285,2414.126 C1356.879,2414.322 1356.53367,2414.588 1356.249,2414.924 C1355.96433,2415.26 1355.745,2415.64966 1355.591,2416.093 C1355.437,2416.53634 1355.36,2417.00066 1355.36,2417.486 C1355.36,2417.97134 1355.43467,2418.438 1355.584,2418.886 C1355.73333,2419.334 1355.95033,2419.72833 1356.235,2420.069 C1356.51967,2420.40967 1356.86733,2420.68267 1357.278,2420.888 C1357.68867,2421.09333 1358.15533,2421.196 1358.678,2421.196 C1359.14467,2421.196 1359.58566,2421.10033 1360.001,2420.909 C1360.41634,2420.71767 1360.736,2420.44467 1360.96,2420.09 L1360.96,2420.09 L1360.988,2420.09 L1360.988,2421 L1363.102,2421 L1363.102,2410.416 Z M1348.479,2414.028 L1346.169,2414.028 L1346.169,2418.34 C1346.169,2418.69467 1346.21333,2419.04233 1346.302,2419.383 C1346.39067,2419.72367 1346.53533,2420.027 1346.736,2420.293 C1346.93667,2420.559 1347.198,2420.776 1347.52,2420.944 C1347.842,2421.112 1348.23633,2421.196 1348.703,2421.196 C1348.94567,2421.196 1349.17667,2421.16333 1349.396,2421.098 C1349.61533,2421.03267 1349.816,2420.94867 1349.998,2420.846 C1350.18,2420.74333 1350.33867,2420.622 1350.474,2420.482 C1350.60933,2420.342 1350.719,2420.19267 1350.803,2420.034 L1350.803,2420.034 L1350.831,2420.034 L1350.831,2421 L1353.043,2421 L1353.043,2414.028 L1350.747,2414.028 L1350.747,2417.794 C1350.747,2418.19534 1350.642,2418.54533 1350.432,2418.844 C1350.222,2419.14267 1349.91634,2419.292 1349.515,2419.292 C1349.30033,2419.292 1349.12767,2419.25233 1348.997,2419.173 C1348.86633,2419.09367 1348.76133,2418.984 1348.682,2418.844 C1348.60267,2418.704 1348.549,2418.54533 1348.521,2418.368 C1348.493,2418.19067 1348.479,2418.004 1348.479,2417.808 L1348.479,2417.808 L1348.479,2414.028 Z M1285.129,2412.194 L1282.875,2412.194 L1282.875,2414.028 L1281.769,2414.028 L1281.769,2415.75 L1282.889,2415.75 L1282.889,2418.69 C1282.889,2419.06334 1282.931,2419.40167 1283.015,2419.705 C1283.099,2420.00833 1283.23667,2420.26967 1283.428,2420.489 C1283.61933,2420.70833 1283.87367,2420.87633 1284.191,2420.993 C1284.50833,2421.10967 1284.90033,2421.168 1285.367,2421.168 C1285.60967,2421.168 1285.85233,2421.147 1286.095,2421.105 C1286.33767,2421.063 1286.53833,2421.014 1286.697,2420.958 L1286.697,2420.958 L1286.669,2419.278 C1286.585,2419.31533 1286.48,2419.34333 1286.354,2419.362 C1286.228,2419.38067 1286.109,2419.39 1285.997,2419.39 C1285.67033,2419.39 1285.444,2419.30833 1285.318,2419.145 C1285.192,2418.98167 1285.129,2418.73667 1285.129,2418.41 L1285.129,2418.41 L1285.129,2415.75 L1286.767,2415.75 L1286.767,2414.028 L1285.129,2414.028 L1285.129,2412.194 Z M1264.43,2411.088 L1262.022,2411.088 L1262.022,2421 L1268.266,2421 L1268.266,2418.914 L1264.43,2418.914 L1264.43,2411.088 Z M1272.459,2414.028 L1270.163,2414.028 L1270.163,2421 L1272.459,2421 L1272.459,2414.028 Z M1368.121,2414.028 L1365.825,2414.028 L1365.825,2421 L1368.121,2421 L1368.121,2414.028 Z M1340.548,2411.088 L1338.224,2411.088 L1334.066,2421 L1336.67,2421 L1337.398,2419.054 L1341.234,2419.054 L1342.004,2421 L1344.664,2421 L1340.548,2411.088 Z M1302.279,2413.832 C1302.03633,2413.832 1301.80767,2413.86467 1301.593,2413.93 C1301.37833,2413.99533 1301.18,2414.07933 1300.998,2414.182 C1300.816,2414.28467 1300.65733,2414.40833 1300.522,2414.553 C1300.38667,2414.69767 1300.277,2414.84467 1300.193,2414.994 L1300.193,2414.994 L1300.165,2414.994 L1300.165,2414.028 L1297.939,2414.028 L1297.939,2421 L1300.249,2421 L1300.249,2417.22 C1300.249,2417.024 1300.27467,2416.835 1300.326,2416.653 C1300.37733,2416.471 1300.45433,2416.31 1300.557,2416.17 C1300.65967,2416.03 1300.788,2415.92033 1300.942,2415.841 C1301.096,2415.76167 1301.27567,2415.722 1301.481,2415.722 C1301.68633,2415.722 1301.85667,2415.76167 1301.992,2415.841 C1302.12733,2415.92033 1302.23233,2416.02767 1302.307,2416.163 C1302.38167,2416.29833 1302.43533,2416.45467 1302.468,2416.632 C1302.50067,2416.80933 1302.517,2416.996 1302.517,2417.192 L1302.517,2417.192 L1302.517,2421 L1304.827,2421 L1304.827,2416.688 C1304.827,2416.34266 1304.78267,2415.99734 1304.694,2415.652 C1304.60533,2415.30666 1304.46067,2415.001 1304.26,2414.735 C1304.05933,2414.469 1303.79567,2414.252 1303.469,2414.084 C1303.14233,2413.916 1302.74567,2413.832 1302.279,2413.832 Z M1325.876,2413.832 C1325.63333,2413.832 1325.40467,2413.86467 1325.19,2413.93 C1324.97533,2413.99533 1324.777,2414.07933 1324.595,2414.182 C1324.413,2414.28467 1324.25433,2414.40833 1324.119,2414.553 C1323.98367,2414.69767 1323.874,2414.84467 1323.79,2414.994 L1323.79,2414.994 L1323.762,2414.994 L1323.762,2414.028 L1321.536,2414.028 L1321.536,2421 L1323.846,2421 L1323.846,2417.22 C1323.846,2417.024 1323.87167,2416.835 1323.923,2416.653 C1323.97433,2416.471 1324.05133,2416.31 1324.154,2416.17 C1324.25667,2416.03 1324.385,2415.92033 1324.539,2415.841 C1324.693,2415.76167 1324.87267,2415.722 1325.078,2415.722 C1325.28333,2415.722 1325.45367,2415.76167 1325.589,2415.841 C1325.72433,2415.92033 1325.82933,2416.02767 1325.904,2416.163 C1325.97867,2416.29833 1326.03233,2416.45467 1326.065,2416.632 C1326.09767,2416.80933 1326.114,2416.996 1326.114,2417.192 L1326.114,2417.192 L1326.114,2421 L1328.424,2421 L1328.424,2416.688 C1328.424,2416.34266 1328.37967,2415.99734 1328.291,2415.652 C1328.20233,2415.30666 1328.05767,2415.001 1327.857,2414.735 C1327.65633,2414.469 1327.39267,2414.252 1327.066,2414.084 C1326.73933,2413.916 1326.34267,2413.832 1325.876,2413.832 Z M1315.327,2415.708 C1315.59767,2415.708 1315.83567,2415.75933 1316.041,2415.862 C1316.24633,2415.96467 1316.419,2416.09767 1316.559,2416.261 C1316.699,2416.42433 1316.80633,2416.61333 1316.881,2416.828 C1316.95567,2417.04267 1316.993,2417.262 1316.993,2417.486 C1316.993,2417.71 1316.958,2417.92933 1316.888,2418.144 C1316.818,2418.35867 1316.713,2418.55233 1316.573,2418.725 C1316.433,2418.89767 1316.26033,2419.03533 1316.055,2419.138 C1315.84967,2419.24067 1315.61167,2419.292 1315.341,2419.292 C1315.07033,2419.292 1314.83233,2419.24067 1314.627,2419.138 C1314.42167,2419.03533 1314.249,2418.89767 1314.109,2418.725 C1313.969,2418.55233 1313.864,2418.35867 1313.794,2418.144 C1313.724,2417.92933 1313.689,2417.71 1313.689,2417.486 C1313.689,2417.262 1313.724,2417.04267 1313.794,2416.828 C1313.864,2416.61333 1313.96667,2416.42433 1314.102,2416.261 C1314.23733,2416.09767 1314.40767,2415.96467 1314.613,2415.862 C1314.81833,2415.75933 1315.05633,2415.708 1315.327,2415.708 Z M1359.224,2415.708 C1359.48533,2415.708 1359.71867,2415.75933 1359.924,2415.862 C1360.12933,2415.96467 1360.30433,2416.1 1360.449,2416.268 C1360.59367,2416.436 1360.70567,2416.62733 1360.785,2416.842 C1360.86433,2417.05667 1360.904,2417.276 1360.904,2417.5 C1360.904,2417.724 1360.86433,2417.94333 1360.785,2418.158 C1360.70567,2418.37267 1360.59367,2418.564 1360.449,2418.732 C1360.30433,2418.9 1360.12933,2419.03533 1359.924,2419.138 C1359.71867,2419.24067 1359.48533,2419.292 1359.224,2419.292 C1358.95333,2419.292 1358.71533,2419.24067 1358.51,2419.138 C1358.30467,2419.03533 1358.132,2418.9 1357.992,2418.732 C1357.852,2418.564 1357.747,2418.37033 1357.677,2418.151 C1357.607,2417.93167 1357.572,2417.71 1357.572,2417.486 C1357.572,2417.262 1357.607,2417.04267 1357.677,2416.828 C1357.747,2416.61333 1357.852,2416.42433 1357.992,2416.261 C1358.132,2416.09767 1358.30467,2415.96467 1358.51,2415.862 C1358.71533,2415.75933 1358.95333,2415.708 1359.224,2415.708 Z M1340.576,2417.136 L1340.576,2417.136 L1338.084,2417.136 L1339.344,2413.734 Z M1292.15,2415.386 C1292.60734,2415.386 1292.95033,2415.51667 1293.179,2415.778 C1293.40767,2416.03933 1293.522,2416.352 1293.522,2416.716 L1293.522,2416.716 L1290.568,2416.716 C1290.57733,2416.53867 1290.624,2416.36833 1290.708,2416.205 C1290.792,2416.04167 1290.904,2415.89933 1291.044,2415.778 C1291.184,2415.65667 1291.34733,2415.561 1291.534,2415.491 C1291.72067,2415.421 1291.926,2415.386 1292.15,2415.386 Z M1271.311,2410.542 C1271.12433,2410.542 1270.95167,2410.577 1270.793,2410.647 C1270.63433,2410.717 1270.49433,2410.808 1270.373,2410.92 C1270.25167,2411.032 1270.15833,2411.165 1270.093,2411.319 C1270.02767,2411.473 1269.995,2411.634 1269.995,2411.802 C1269.995,2412.14734 1270.121,2412.44367 1270.373,2412.691 C1270.625,2412.93833 1270.93766,2413.062 1271.311,2413.062 C1271.48833,2413.062 1271.65867,2413.02933 1271.822,2412.964 C1271.98533,2412.89867 1272.12533,2412.81 1272.242,2412.698 C1272.35867,2412.586 1272.452,2412.453 1272.522,2412.299 C1272.592,2412.145 1272.627,2411.97933 1272.627,2411.802 C1272.627,2411.62467 1272.592,2411.459 1272.522,2411.305 C1272.452,2411.151 1272.35867,2411.018 1272.242,2410.906 C1272.12533,2410.794 1271.98533,2410.70533 1271.822,2410.64 C1271.65867,2410.57467 1271.48833,2410.542 1271.311,2410.542 Z M1366.973,2410.542 C1366.78633,2410.542 1366.61367,2410.577 1366.455,2410.647 C1366.29633,2410.717 1366.15633,2410.808 1366.035,2410.92 C1365.91367,2411.032 1365.82033,2411.165 1365.755,2411.319 C1365.68967,2411.473 1365.657,2411.634 1365.657,2411.802 C1365.657,2412.14734 1365.783,2412.44367 1366.035,2412.691 C1366.287,2412.93833 1366.59966,2413.062 1366.973,2413.062 C1367.15033,2413.062 1367.32067,2413.02933 1367.484,2412.964 C1367.64733,2412.89867 1367.78733,2412.81 1367.904,2412.698 C1368.02067,2412.586 1368.114,2412.453 1368.184,2412.299 C1368.254,2412.145 1368.289,2411.97933 1368.289,2411.802 C1368.289,2411.62467 1368.254,2411.459 1368.184,2411.305 C1368.114,2411.151 1368.02067,2411.018 1367.904,2410.906 C1367.78733,2410.794 1367.64733,2410.70533 1367.484,2410.64 C1367.32067,2410.57467 1367.15033,2410.542 1366.973,2410.542 Z" id="listen-on-audius"></path>
        </g>
    </g>
</svg>