<?xml version="1.0" encoding="UTF-8"?>
<svg width="470px" height="406px" viewBox="0 0 470 406" version="1.1" xmlns="http://www.w3.org/2000/svg" xmlns:xlink="http://www.w3.org/1999/xlink">
    <!-- Generator: Sketch 57.1 (83088) - https://sketch.com -->
    <title>quotePyramid</title>
    <desc>Created with Sketch.</desc>
    <g id="Page-1" stroke="none" stroke-width="1" fill="none" fill-rule="evenodd">
        <g id="Guide" transform="translate(-931.000000, -1955.000000)">
            <g id="Group-21" transform="translate(931.000000, 1955.000000)">
                <polygon id="Fill-1" points="235 0 156.662368 135.333207 156.665402 135.338504 78.3311838 270.666793 78.3345978 270.67209 0 406 156.662368 406 156.675265 406 313.324735 406 313.337632 406 470 406 391.662368 270.666793 391.668437 270.666793 313.334218 135.338504 313.337632 135.333207"></polygon>
                <g id="Group-20" transform="translate(36.000000, 22.000000)" fill="#F2F2F4">
                    <path d="M100.440756,368.742315 L72.5622307,320.442219 L59.4865729,297.788711 L44.6837056,272.142881 C43.6106388,270.283177 40.9247522,270.281664 39.8494128,272.139476 L11.9068748,320.402498 L0.489868435,340.121941 C-0.585470997,341.979754 0.755767795,344.303249 2.90455279,344.304762 L24.4738392,344.319137 C25.4711511,344.319516 26.3930871,343.789144 26.8923113,342.927007 L38.1028858,323.563541 L39.817217,320.602617 C39.8846388,320.485723 39.9588785,320.376396 40.038421,320.274256 C41.2239837,318.75237 43.6458648,318.863211 44.6515098,320.605643 L56.2829023,340.757101 L58.4335812,344.482939 C58.5566827,344.696298 58.6464522,344.916089 58.7081923,345.137392 C59.1858263,346.844264 57.9154183,348.664247 56.013594,348.663112 L30.6395226,348.646089 C29.6422106,348.645332 28.7206534,349.176081 28.2214293,350.038597 L17.4244759,368.687083 C16.3487577,370.545274 17.6899965,372.869147 19.8387815,372.870661 L42.1997056,372.885414 L70.0823973,372.903572 L98.0207687,372.92211 C100.169554,372.923622 101.513823,370.601262 100.440756,368.742315" id="Fill-2"></path>
                    <path d="M256.874614,368.742315 L228.99571,320.442219 L215.920431,297.788711 L201.117564,272.142881 C200.044497,270.283177 197.35861,270.281664 196.282892,272.139476 L168.340354,320.402498 L156.923727,340.121941 C155.848008,341.979754 157.189626,344.303249 159.338032,344.304762 L180.907697,344.319137 C181.904631,344.319516 182.826567,343.789144 183.325791,342.927007 L194.536365,323.563541 L196.250696,320.602617 C196.318497,320.485723 196.392358,320.376396 196.4719,320.274256 C197.657463,318.75237 200.079723,318.863211 201.085368,320.605643 L212.71676,340.757101 L214.867439,344.482939 C214.990162,344.696298 215.079932,344.916089 215.142051,345.137392 C215.619685,346.844264 214.349276,348.664247 212.447073,348.663112 L187.073381,348.646089 C186.076069,348.645332 185.154133,349.176081 184.654909,350.038597 L173.857955,368.687083 C172.782237,370.545274 174.123855,372.869147 176.27264,372.870661 L198.633185,372.885414 L226.516255,372.903572 L254.454248,372.92211 C256.603033,372.923622 257.947681,370.601262 256.874614,368.742315" id="Fill-4"></path>
                    <path d="M413.308283,368.742315 L385.429379,320.442219 L372.3541,297.788711 L357.551233,272.142881 C356.478166,270.283177 353.792279,270.281664 352.716561,272.139476 L324.774402,320.402498 L313.357395,340.121941 C312.281677,341.979754 313.622916,344.303249 315.771701,344.304762 L337.341366,344.319137 C338.338299,344.319516 339.260235,343.789144 339.759459,342.927007 L350.970034,323.563541 L352.684365,320.602617 C352.752166,320.485723 352.826027,320.376396 352.905569,320.274256 C354.091132,318.75237 356.513392,318.863211 357.519037,320.605643 L369.150429,340.757101 L371.301108,344.482939 C371.423831,344.696298 371.5136,344.916089 371.575719,345.137392 C372.053353,346.844264 370.782945,348.664247 368.880742,348.663112 L343.50705,348.646089 C342.509738,348.645332 341.587802,349.176081 341.088577,350.038597 L330.291624,368.687083 C329.215906,370.545274 330.557524,372.869147 332.70593,372.870661 L355.066854,372.885414 L382.949924,372.903572 L410.887917,372.92211 C413.036702,372.923622 414.38135,370.601262 413.308283,368.742315" id="Fill-6"></path>
                    <path d="M178.65778,233.426842 L150.778876,185.127125 L137.703218,162.473239 L122.900351,136.827408 C121.827284,134.968083 119.141776,134.966191 118.066058,136.824004 L90.1235199,185.087026 L78.7068922,204.806469 C77.631174,206.664282 78.9727916,208.987777 81.1211978,208.98929 L102.690863,209.003665 C103.688175,209.004043 104.609732,208.473672 105.108956,207.611535 L116.319531,188.248069 L118.033862,185.287145 C118.101663,185.170251 118.175524,185.060924 118.255066,184.958784 C119.441008,183.436898 121.862889,183.547739 122.868534,185.290171 L134.499926,205.441628 L136.650226,209.167467 C136.773328,209.380826 136.863476,209.600616 136.925216,209.82192 C137.40285,211.528792 136.132442,213.348775 134.230239,213.34764 L108.856546,213.330616 C107.859234,213.32986 106.937298,213.860609 106.438074,214.723124 L95.641121,233.371611 C94.5654027,235.229802 95.9070203,237.553675 98.0558053,237.555188 L120.416729,237.569942 L148.299421,237.5881 L176.237414,237.606637 C178.386199,237.60815 179.730846,235.28579 178.65778,233.426842" id="Fill-8"></path>
                    <path d="M335.091448,233.426842 L307.212545,185.127125 L294.137266,162.473239 L279.334398,136.827408 C278.261331,134.968083 275.575445,134.966191 274.499727,136.824004 L246.557567,185.087026 L235.140561,204.806469 C234.064843,206.664282 235.406082,208.987777 237.554867,208.98929 L259.124532,209.003665 C260.121465,209.004043 261.043401,208.473672 261.542625,207.611535 L272.7532,188.248069 L274.467531,185.287145 C274.535331,185.170251 274.609192,185.060924 274.688735,184.958784 C275.874298,183.436898 278.296557,183.547739 279.302202,185.290171 L290.933595,205.441628 L293.084274,209.167467 C293.206997,209.380826 293.296766,209.600616 293.358885,209.82192 C293.836519,211.528792 292.566111,213.348775 290.663908,213.34764 L265.290215,213.330616 C264.292903,213.32986 263.370967,213.860609 262.871743,214.723124 L252.07479,233.371611 C250.999072,235.229802 252.340689,237.553675 254.489095,237.555188 L276.850019,237.569942 L304.73309,237.5881 L332.671083,237.606637 C334.819868,237.60815 336.164515,235.28579 335.091448,233.426842" id="Fill-10"></path>
                    <path d="M218.688739,262.370167 L246.567643,310.670262 L259.642922,333.323771 L274.445789,358.969601 C275.518856,360.829305 278.204743,360.830818 279.280461,358.973006 L307.22262,310.709984 L318.639626,290.99054 C319.715345,289.132728 318.374106,286.809233 316.225321,286.80772 L294.655656,286.793345 C293.658722,286.792966 292.736786,287.323338 292.237562,288.185474 L281.026988,307.548941 L279.312657,310.509865 C279.244856,310.626758 279.170995,310.736086 279.091453,310.838226 C277.90589,312.360111 275.48363,312.249271 274.477985,310.506839 L262.846592,290.355381 L260.695914,286.629542 C260.573191,286.416183 260.483421,286.196393 260.421302,285.97509 C259.943668,284.268218 261.214076,282.448235 263.11628,282.44937 L288.489972,282.466393 C289.487284,282.46715 290.40922,281.9364 290.908444,281.073885 L301.705398,262.425398 C302.781116,260.567208 301.439498,258.243334 299.291092,258.241821 L276.930168,258.227068 L249.047098,258.20891 L221.109105,258.190372 C218.96032,258.18886 217.615672,260.51122 218.688739,262.370167" id="Fill-12"></path>
                    <path d="M62.2552595,262.370167 L90.1337846,310.670262 L103.209442,333.323771 L118.01231,358.969601 C119.085377,360.829305 121.771263,360.830818 122.846603,358.973006 L150.789141,310.709984 L162.206147,290.99054 C163.281486,289.132728 161.940248,286.809233 159.791463,286.80772 L138.222176,286.793345 C137.224864,286.792966 136.302928,287.323338 135.803704,288.185474 L124.59313,307.548941 L122.878798,310.509865 C122.811377,310.626758 122.737137,310.736086 122.657594,310.838226 C121.472032,312.360111 119.050151,312.249271 118.044506,310.506839 L106.413113,290.355381 L104.262434,286.629542 C104.139333,286.416183 104.049563,286.196393 103.987823,285.97509 C103.510189,284.268218 104.780597,282.448235 106.682421,282.44937 L132.056493,282.466393 C133.053805,282.46715 133.975362,281.9364 134.474586,281.073885 L145.271539,262.425398 C146.347258,260.567208 145.006019,258.243334 142.857234,258.241821 L120.49631,258.227068 L92.6136181,258.20891 L64.6752467,258.190372 C62.5264617,258.18886 61.1821927,260.51122 62.2552595,262.370167" id="Fill-14"></path>
                    <path d="M256.874614,98.1113325 L228.99571,49.8116154 L215.920431,27.157729 L201.117564,1.51189838 C200.044497,-0.347427181 197.35861,-0.349318661 196.282892,1.50849371 L168.340354,49.771516 L156.923727,69.4909592 C155.848008,71.3483933 157.189626,73.6726448 159.338032,73.6737797 L180.907697,73.688155 C181.904631,73.6889116 182.826567,73.1581621 183.325791,72.2960252 L194.536365,52.9325586 L196.250696,49.9716347 C196.318497,49.8547412 196.392358,49.7454136 196.4719,49.6432736 C197.657463,48.1213882 200.079723,48.232229 201.085368,49.9746611 L212.71676,70.1261185 L214.867439,73.8519572 C214.990162,74.0653162 215.079932,74.284728 215.142051,74.5060312 C215.619685,76.21366 214.349276,78.0332645 212.447073,78.0317513 L187.073381,78.0151063 C186.076069,78.0143497 185.154133,78.5450992 184.654909,79.4076144 L173.857955,98.0564795 C172.782237,99.9142919 174.123855,102.238165 176.27264,102.239678 L198.633185,102.254432 L226.516255,102.27259 L254.454248,102.291127 C256.603033,102.29264 257.947681,99.970658 256.874614,98.1113325" id="Fill-16"></path>
                    <path d="M140.472094,127.054695 L168.350619,175.354412 L181.426277,198.008298 L196.229144,223.654129 C197.302211,225.513833 199.987719,225.515346 201.063437,223.657534 L229.005975,175.394511 L240.422603,155.675068 C241.498321,153.817634 240.157082,151.493383 238.008297,151.492248 L216.438632,151.477872 C215.441699,151.477116 214.520141,152.007865 214.020539,152.870002 L202.810343,172.233469 L201.095633,175.194393 C201.028211,175.311286 200.953971,175.420614 200.874429,175.522754 C199.688866,177.044639 197.266985,176.933798 196.26134,175.191366 L184.629947,155.039909 L182.479269,151.31407 C182.356546,151.100711 182.266398,150.881299 182.204279,150.659996 C181.727023,148.952367 182.997431,147.132763 184.899256,147.134276 L210.273327,147.150921 C211.270639,147.151678 212.192196,146.620928 212.691799,145.758413 L223.488374,127.109548 C224.564092,125.251735 223.222474,122.927862 221.074068,122.926349 L198.713144,122.911596 L170.830453,122.893437 L142.892081,122.8749 C140.743296,122.873388 139.399027,125.195369 140.472094,127.054695" id="Fill-18"></path>
                </g>
            </g>
        </g>
    </g>
</svg>