<svg height="48" viewBox="0 0 56 48" width="56" xmlns="http://www.w3.org/2000/svg"><g fill="none" fill-rule="evenodd"><path d="m55.8191698 46.0362519-13.3640686-22.6903688-6.2680749-10.6422196-7.0959937-12.04814919c-.5144093-.87336326-1.8019658-.87419119-2.3175382-.00144888l-13.3947323 22.67298227-5.47293446 9.2639222c-.51557242.8727423.12741279 1.9643687 1.15750027 1.9650932l10.33978589.0067269c.4779302.0003105.9199098-.2491036 1.1591921-.6540651l5.3739649-9.0964733.821786-1.3910268c.0324612-.0549539.0679888-.1062856.106054-.1543056.5684408-.714918 1.7294304-.6627584 2.2114843.1557545l5.5758163 9.4667651 1.0308276 1.7502453c.0590012.1002831.1021418.2033604.131748.3073692.2290259.8021612-.3800179 1.6568961-1.2918916 1.6563786l-12.1634278-.0079688c-.4780359-.0003105-.9199098.2491036-1.159192.6541686l-5.1758142 8.7609544c-.5155725.8727423.1274127 1.9643687 1.1573945 1.9650932l10.7191694.0070374 13.3661833.0085898 13.3926175.0086932c1.0301932.000621 1.674553-1.0903845 1.1601437-1.9637478" fill="#858199" fill-rule="evenodd"/><path d="m0 0h56v48h-56z"/></g></svg>