<svg width="54" height="78" viewBox="0 0 54 78" fill="none" xmlns="http://www.w3.org/2000/svg">
<path d="M46.1663 0.666668H7.83301C3.86491 0.666668 0.645508 3.88607 0.645508 7.85417V70.1458C0.645508 74.1139 3.86491 77.3333 7.83301 77.3333H46.1663C50.1344 77.3333 53.3538 74.1139 53.3538 70.1458V7.85417C53.3538 3.88607 50.1344 0.666668 46.1663 0.666668ZM34.1872 67.6152C34.1872 69.0677 33.109 70.1458 31.7913 70.1458H22.0732C20.8903 70.1458 19.8122 69.0677 19.8122 67.75C19.8122 66.4323 20.8903 65.3542 22.208 65.3542H31.7913C33.109 65.3542 34.1872 66.4323 34.1872 67.6152ZM43.7705 58.1667H10.2288V10.25H43.7705V58.1667Z" fill="white"/>
</svg>
