<?xml version="1.0" encoding="UTF-8"?>
<svg width="24px" height="24px" viewBox="0 0 24 24" version="1.1" xmlns="http://www.w3.org/2000/svg" xmlns:xlink="http://www.w3.org/1999/xlink">
    <title>iconSort</title>
    <g id="Assets" stroke="none" stroke-width="1" fill="none" fill-rule="evenodd">
        <g id="assets" transform="translate(-767.000000, -2708.000000)">
            <g id="icon/Sort" transform="translate(767.000000, 2708.000000)">
                <rect id="bound" x="0" y="0" width="24" height="24"></rect>
                <path d="M6.42495384,13.5023437 L17.5812038,13.5023437 C18.5843288,13.5023437 19.0858913,14.7164062 18.3780788,15.4242187 L12.7999538,21.0023438 C12.3593288,21.4429687 11.6468288,21.4429687 11.2108913,21.0023438 L5.62807884,15.4242187 C4.92026634,14.7164062 5.42182884,13.5023437 6.42495384,13.5023437 Z M18.3780788,8.58046875 L12.7999538,3.00234375 C12.3593288,2.56171875 11.6468288,2.56171875 11.2108913,3.00234375 L5.62807884,8.58046875 C4.92026634,9.28828125 5.42182884,10.5023437 6.42495384,10.5023437 L17.5812038,10.5023437 C18.5843288,10.5023437 19.0858913,9.28828125 18.3780788,8.58046875 Z" id="shape" fill="#858199" fill-rule="evenodd"></path>
            </g>
        </g>
    </g>
</svg>