<?xml version="1.0" encoding="UTF-8"?>
<svg width="24px" height="24px" viewBox="0 0 24 24" version="1.1" xmlns="http://www.w3.org/2000/svg" xmlns:xlink="http://www.w3.org/1999/xlink">
    <g id="Assets" stroke="none" stroke-width="1" fill="none" fill-rule="evenodd">
        <g id="assets" transform="translate(-762.000000, -2456.000000)">
            <g id="icon/signout" transform="translate(762.000000, 2456.000000)">
                <rect id="Bound" x="0" y="0" width="24" height="24"></rect>
                <path d="M20.5773788,12.6193015 L15.2153202,18.7432843 C14.7365649,19.2900685 13.2643654,18.9073196 13.2643654,18.1235956 L13.2643654,15 L9.56600838,15 C9.14151207,15 8.8,14.2341375 8.8,13.7493222 L8.8,10.2499034 C8.8,9.76508811 9.14151207,9 9.56600838,9 L13.2643654,9 L13.2643654,5.87562998 C13.2643654,5.09555122 14.7333732,4.70915706 15.2153202,5.25594124 L20.5773788,11.3799241 C20.8742071,11.7225755 20.8742071,12.2766501 20.5773788,12.6193015 Z M11,18.5610229 L11,17.1029318 C11,16.8623468 10.775,16.6655045 10.5,16.6655045 L7,16.6655045 C6.2625,16.6655045 5.66666667,16.1442369 5.66666667,15.4990315 L5.66666667,8.50019404 C5.66666667,7.85498871 6.2625,7.33372112 7,7.33372112 L10.5,7.33372112 C10.775,7.33372112 11,7.13687882 11,6.89629378 L11,5.43820263 C11,5.1976176 10.775,5.00077529 10.5,5.00077529 L7,5.00077529 C4.79166667,5.00077529 3,6.56822327 3,8.50019404 L3,15.4990315 C3,17.4310023 4.79166667,18.9984503 7,18.9984503 L10.5,18.9984503 C10.775,18.9984503 11,18.801608 11,18.5610229 Z" id="path-1"></path>
            </g>
        </g>
    </g>
</svg>