<svg width="40" height="40" viewBox="0 0 40 40" fill="none" xmlns="http://www.w3.org/2000/svg">
<g clip-path="url(#clip0_635_14545)">
<g filter="url(#filter0_di_635_14545)">
<path fill-rule="evenodd" clip-rule="evenodd" d="M0 8C0 3.58172 3.58172 0 8 0H40L0 40V8Z" fill="#1BA1F1"/>
</g>
<path d="M18.3598 5.525C18.5525 5.68122 18.6645 5.91814 18.6645 6.16809V9.91729C18.6645 10.6072 17.9172 11.167 16.9981 11.167C16.0791 11.167 15.3318 10.6072 15.3318 9.91729C15.3318 9.22733 16.0791 8.66755 16.9981 8.66755V7.1835L14.4987 7.68339V10.7504C14.4987 11.4404 13.7514 12.0002 12.8324 12.0002C11.9133 12.0002 11.1661 11.4404 11.1661 10.7504C11.1661 10.0605 11.9133 9.50071 12.8324 9.50071V7.00124C12.8324 6.60289 13.1136 6.26182 13.5015 6.18371L17.6673 5.35056C17.912 5.30109 18.1646 5.36618 18.3598 5.5224V5.525ZM7.27888 13.2499L7.58611 12.7865C7.73972 12.5547 8.00008 12.4167 8.27867 12.4167H9.88509C10.1637 12.4167 10.424 12.5547 10.5777 12.7865L10.8875 13.2499H11.5826C12.2726 13.2499 12.8324 13.8097 12.8324 14.4996V17.4157C12.8324 18.1056 12.2726 18.6654 11.5826 18.6654H6.58372C5.89376 18.6654 5.33398 18.1056 5.33398 17.4157V14.4996C5.33398 13.8097 5.89376 13.2499 6.58372 13.2499H7.27888ZM10.3329 15.9577C10.3329 15.2677 9.77314 14.7079 9.08318 14.7079C8.39322 14.7079 7.83345 15.2677 7.83345 15.9577C7.83345 16.6476 8.39322 17.2074 9.08318 17.2074C9.77314 17.2074 10.3329 16.6476 10.3329 15.9577ZM17.7975 12.5808L16.7977 14.9162H18.2479C18.4223 14.9162 18.5759 15.023 18.6384 15.187C18.7009 15.351 18.654 15.5333 18.5239 15.6478L15.1912 18.5639C15.0454 18.6914 14.8293 18.7019 14.6731 18.5873C14.5169 18.4727 14.4596 18.2645 14.5351 18.0874L15.5323 15.7494H14.0821C13.9077 15.7494 13.7541 15.6426 13.6916 15.4786C13.6291 15.3146 13.6759 15.1323 13.8061 15.0178L17.1387 12.1017C17.2845 11.9741 17.5006 11.9637 17.6569 12.0783C17.8131 12.1928 17.8704 12.4011 17.7949 12.5782L17.7975 12.5808ZM8.97123 11.0394C8.80199 11.2087 8.52861 11.2087 8.3724 11.0394L5.8521 8.43844C5.12309 7.68339 5.16215 6.43626 5.98228 5.73329C6.68526 5.12144 7.76315 5.2386 8.41405 5.90252L8.67441 6.1759L8.92176 5.90252C9.57266 5.2386 10.6375 5.12144 11.3665 5.73329C12.1737 6.43626 12.2127 7.68339 11.4837 8.43844L8.97383 11.0394H8.97123Z" fill="white"/>
</g>
<defs>
<filter id="filter0_di_635_14545" x="-8" y="-8" width="56" height="56" filterUnits="userSpaceOnUse" color-interpolation-filters="sRGB">
<feFlood flood-opacity="0" result="BackgroundImageFix"/>
<feColorMatrix in="SourceAlpha" type="matrix" values="0 0 0 0 0 0 0 0 0 0 0 0 0 0 0 0 0 0 127 0" result="hardAlpha"/>
<feOffset/>
<feGaussianBlur stdDeviation="4"/>
<feColorMatrix type="matrix" values="0 0 0 0 0 0 0 0 0 0 0 0 0 0 0 0 0 0 0.25 0"/>
<feBlend mode="normal" in2="BackgroundImageFix" result="effect1_dropShadow_635_14545"/>
<feBlend mode="normal" in="SourceGraphic" in2="effect1_dropShadow_635_14545" result="shape"/>
<feColorMatrix in="SourceAlpha" type="matrix" values="0 0 0 0 0 0 0 0 0 0 0 0 0 0 0 0 0 0 127 0" result="hardAlpha"/>
<feOffset dx="4" dy="4"/>
<feGaussianBlur stdDeviation="4"/>
<feComposite in2="hardAlpha" operator="arithmetic" k2="-1" k3="1"/>
<feColorMatrix type="matrix" values="0 0 0 0 1 0 0 0 0 1 0 0 0 0 1 0 0 0 0.2 0"/>
<feBlend mode="normal" in2="shape" result="effect2_innerShadow_635_14545"/>
</filter>
<clipPath id="clip0_635_14545">
<path d="M0 8C0 3.58172 3.58172 0 8 0H40V40H0V8Z" fill="white"/>
</clipPath>
</defs>
</svg>
