<svg width="24" height="24" viewBox="0 0 24 24" fill="none" xmlns="http://www.w3.org/2000/svg">
<path fill-rule="evenodd" clip-rule="evenodd" d="M12 2C6.47581 2 2 6.47581 2 12C2 17.5242 6.47581 22 12 22C17.5242 22 22 17.5242 22 12C22 6.47581 17.5242 2 12 2ZM5.64523 9.08061C5.91539 8.37093 6.72184 8.00399 7.45572 8.19754L7.74201 8.27416L7.82265 7.98786C8.02426 7.25803 8.74201 6.7419 9.49604 6.86286C9.90023 6.92383 10.2589 7.15524 10.481 7.4984C10.703 7.84157 10.7673 8.26352 10.6573 8.65722L9.87507 11.4758C9.82423 11.6589 9.63529 11.7669 9.45168 11.7177L6.62104 10.9838C6.22539 10.8815 5.89236 10.6149 5.70591 10.2513C5.51945 9.88761 5.49737 9.46159 5.64523 9.08061ZM17.7984 15.3346C17.4234 17.5524 14.4435 19.0967 12 19.0967C9.55644 19.0967 6.5766 17.5524 6.2016 15.3346C6.16386 15.1122 6.24503 14.8863 6.41567 14.7387C6.58631 14.5911 6.82164 14.5434 7.03628 14.6129C8.25402 15.004 10.0645 15.2258 12 15.2258C13.9355 15.2258 15.746 15.004 16.9637 14.6129C17.1782 14.5454 17.4123 14.5939 17.5824 14.7409C17.7524 14.888 17.8342 15.1127 17.7984 15.3346ZM17.379 10.9798L14.5483 11.7137C14.365 11.7608 14.1774 11.6536 14.125 11.4717L13.3427 8.65319C13.2328 8.25949 13.297 7.83754 13.5191 7.49437C13.7412 7.15121 14.0998 6.9198 14.504 6.85884C15.254 6.73787 15.9717 7.254 16.1774 7.98384L16.258 8.27013L16.5443 8.19351C17.2782 8.004 18.0846 8.3669 18.3548 9.07658C18.5036 9.45751 18.482 9.88396 18.2954 10.2479C18.1088 10.6118 17.7752 10.8783 17.379 10.9798Z" fill="#FF0000"/>
</svg>
