<?xml version="1.0" encoding="UTF-8"?>
<svg width="32px" height="32px" viewBox="0 0 32 32" version="1.1" xmlns="http://www.w3.org/2000/svg" xmlns:xlink="http://www.w3.org/1999/xlink">
    <title>iconFacebook</title>
    <g id="Assets" stroke="none" stroke-width="1" fill="none" fill-rule="evenodd">
        <g id="assets" transform="translate(-940.000000, -559.000000)" fill="#858199">
            <g id="icon/social/facebook" transform="translate(940.000000, 559.000000)">
                <path d="M32,1.76428571 L32,30.2285714 C32,31.2071429 31.2071429,31.9928571 30.2357143,31.9928571 L22.0785714,31.9928571 L22.0785714,19.6071429 L26.2357143,19.6071429 L26.8571429,14.7785714 L22.0714286,14.7785714 L22.0714286,11.6928571 C22.0714286,10.2928571 22.4571429,9.34285714 24.4642857,9.34285714 L27.0214286,9.34285714 L27.0214286,5.02142857 C26.5785714,4.96428571 25.0642857,4.82857143 23.2928571,4.82857143 C19.6071429,4.82857143 17.0785714,7.07857143 17.0785714,11.2142857 L17.0785714,14.7785714 L12.9071429,14.7785714 L12.9071429,19.6071429 L17.0785714,19.6071429 L17.0785714,32 L1.76428571,32 C0.792857143,32 0,31.2071429 0,30.2357143 L0,1.76428571 C0,0.792857143 0.792857143,0 1.76428571,0 L30.2285714,0 C31.2071429,0 32,0.792857143 32,1.76428571 Z" id="Mask"></path>
            </g>
        </g>
    </g>
</svg>