<?xml version="1.0" encoding="UTF-8"?>
<svg width="512px" height="512px" viewBox="0 0 512 512" version="1.1" xmlns="http://www.w3.org/2000/svg" xmlns:xlink="http://www.w3.org/1999/xlink">
    <!-- Generator: Sketch 64 (93537) - https://sketch.com -->
    <g id="Explore" stroke="none" stroke-width="1" fill="none" fill-rule="evenodd">
        <g id="solid/box-heart" style="mix-blend-mode: overlay;" fill="#FCFCFC">
            <path d="M442.333333,175 L395.416667,87.5833329 C391.75,76.6666662 381.583334,69.3333329 370.083334,69.3333329 L269.333333,69.3333329 L269.333333,176 L441.583334,176 C441.916667,175.583333 442,175.416666 442.333333,175 L442.333333,175 Z M69.3333329,202.666667 L69.3333329,416 C69.3333329,430.75 81.2499996,442.666667 95.9999996,442.666667 L416,442.666667 C430.75,442.666667 442.666667,430.75 442.666667,416 L442.666667,202.666667 L69.3333329,202.666667 Z M323.583334,327 L263.083333,386.5 C259.166667,390.333334 252.833333,390.333334 248.916667,386.5 L188.416666,327 C170.833333,309.75 171.916666,281.083333 191.5,265.166667 C208.583333,251.25 234.083333,253.75 249.833333,269.166667 L256,275.25 L262.166667,269.166667 C277.833333,253.75 303.333333,251.25 320.5,265.166667 C340.083334,281.083333 341.083334,309.666667 323.583334,327 L323.583334,327 Z M242.666666,176 L242.666666,69.3333329 L141.916666,69.3333329 C130.416666,69.3333329 120.25,76.6666662 116.583333,87.5833329 L69.6666662,175 C69.9999995,175.416666 70.0833329,175.583333 70.4166662,176 L242.666666,176 Z" id="box-heart"></path>
        </g>
    </g>
</svg>