<svg width="24" height="24" viewBox="0 0 24 24" fill="none" xmlns="http://www.w3.org/2000/svg">
<path d="M22 12C22 17.5241 17.5225 22 12 22C6.47754 22 2 17.5241 2 12C2 6.47915 6.47754 2 12 2C17.5225 2 22 6.47915 22 12ZM12.2683 5.30645C10.0709 5.30645 8.66935 6.23214 7.56879 7.87734C7.42621 8.09048 7.47391 8.37794 7.67827 8.5329L9.07742 9.59379C9.2873 9.75294 9.58633 9.71508 9.74939 9.50823C10.4697 8.5946 10.9636 8.0648 12.06 8.0648C12.8838 8.0648 13.9027 8.59496 13.9027 9.39375C13.9027 9.99762 13.4042 10.3077 12.5908 10.7638C11.6423 11.2955 10.3871 11.9573 10.3871 13.6129V13.7742C10.3871 14.0414 10.6038 14.2581 10.871 14.2581H13.129C13.3962 14.2581 13.6129 14.0414 13.6129 13.7742V13.7204C13.6129 12.5728 16.9672 12.525 16.9672 9.41935C16.9672 7.08056 14.5412 5.30645 12.2683 5.30645ZM12 15.3065C10.9772 15.3065 10.1452 16.1385 10.1452 17.1613C10.1452 18.184 10.9772 19.0161 12 19.0161C13.0228 19.0161 13.8548 18.184 13.8548 17.1613C13.8548 16.1385 13.0228 15.3065 12 15.3065Z" fill="#000"/>
</svg>
