<svg width="41" height="40" viewBox="0 0 41 40" fill="none" xmlns="http://www.w3.org/2000/svg">
    <g clip-path="url(#clip0_380_3201)">
        <g filter="url(#filter0_di_380_3201)">
            <path fill-rule="evenodd" clip-rule="evenodd" d="M0.5 8C0.5 3.58172 4.08172 0 8.5 0H40.5L0.5 40V8Z" fill="#1BA1F1"/>
        </g>
        <path d="M10.5417 9.375V10.5H14.2917V9.375C14.2917 8.33906 13.4526 7.5 12.4167 7.5C11.3808 7.5 10.5417 8.33906 10.5417 9.375ZM9.04173 10.5V9.375C9.04173 7.51172 10.5534 6 12.4167 6C14.28 6 15.7917 7.51172 15.7917 9.375V10.5H16.1667C16.994 10.5 17.6667 11.1727 17.6667 12V16.5C17.6667 17.3273 16.994 18 16.1667 18H8.66674C7.8394 18 7.16675 17.3273 7.16675 16.5V12C7.16675 11.1727 7.8394 10.5 8.66674 10.5H9.04173Z" fill="white"/>
    </g>
    <defs>
        <filter id="filter0_di_380_3201" x="-7.5" y="-8" width="56" height="56" filterUnits="userSpaceOnUse" color-interpolation-filters="sRGB">
            <feFlood flood-opacity="0" result="BackgroundImageFix"/>
            <feColorMatrix in="SourceAlpha" type="matrix" values="0 0 0 0 0 0 0 0 0 0 0 0 0 0 0 0 0 0 127 0" result="hardAlpha"/>
            <feOffset/>
            <feGaussianBlur stdDeviation="4"/>
            <feColorMatrix type="matrix" values="0 0 0 0 0 0 0 0 0 0 0 0 0 0 0 0 0 0 0.25 0"/>
            <feBlend mode="normal" in2="BackgroundImageFix" result="effect1_dropShadow_380_3201"/>
            <feBlend mode="normal" in="SourceGraphic" in2="effect1_dropShadow_380_3201" result="shape"/>
            <feColorMatrix in="SourceAlpha" type="matrix" values="0 0 0 0 0 0 0 0 0 0 0 0 0 0 0 0 0 0 127 0" result="hardAlpha"/>
            <feOffset dx="4" dy="4"/>
            <feGaussianBlur stdDeviation="4"/>
            <feComposite in2="hardAlpha" operator="arithmetic" k2="-1" k3="1"/>
            <feColorMatrix type="matrix" values="0 0 0 0 1 0 0 0 0 1 0 0 0 0 1 0 0 0 0.2 0"/>
            <feBlend mode="normal" in2="shape" result="effect2_innerShadow_380_3201"/>
        </filter>
        <clipPath id="clip0_380_3201">
            <path d="M0.5 8C0.5 3.58172 4.08172 0 8.5 0H40.5V40H0.5V8Z" fill="white"/>
        </clipPath>
    </defs>
</svg>
