<?xml version="1.0" encoding="UTF-8"?>
<svg width="32px" height="32px" viewBox="0 0 32 32" version="1.1" xmlns="http://www.w3.org/2000/svg" xmlns:xlink="http://www.w3.org/1999/xlink">
    <title>pbIconRepeatSingle</title>
    <g id="Assets" stroke="none" stroke-width="1" fill="none" fill-rule="evenodd">
        <g id="assets" transform="translate(-847.000000, -895.000000)">
            <g id="icon/playbar/repeat/single" transform="translate(847.000000, 895.000000)">
                <rect id="bound" x="0" y="0" width="32" height="32"></rect>
                <path d="M14.4209147,5.69487153 C14.876393,6.46937389 15.7295616,6.92893338 16.6104866,6.87177538 C17.1226153,6.84263399 17.6347439,6.84263399 18.1457351,6.92893912 C21.4173523,7.38737956 23.9768581,10.1423549 24.1756464,13.4992396 C24.4600359,17.7462052 21.0473615,21.2758264 16.8671197,21.1323575 C13.2832428,21.0180301 10.2971527,18.1195112 10.0707786,14.5035217 L10.0707786,14.4743803 L11.8626602,14.4743803 C13.0002183,14.4743803 13.6822982,13.2123134 13.0857627,12.2360364 L8.87537565,5.43589873 C8.30659658,4.5179275 6.9979497,4.5179275 6.42917063,5.43589873 L2.22105868,12.2360364 C1.62338564,13.2111656 2.30659737,14.4743803 3.44416119,14.4743803 L5.26379919,14.4743803 C5.49153264,20.4429724 10.1550148,25.4072823 16.0415938,25.9518902 C23.4357217,26.6120765 29.6066902,20.3858718 28.9523099,12.9254904 C28.4412903,7.01399895 23.6356475,2.33691369 17.7766543,2.02185605 C17.2934196,1.99271465 16.8101849,1.99271465 16.3258127,2.02185605 C14.5342155,2.13610892 13.5110957,4.11665654 14.4209147,5.69487153 Z" id="repeat" fill="#CC0FE0" fill-rule="evenodd" transform="translate(15.500000, 14.000000) rotate(90.000000) translate(-15.500000, -14.000000) "></path>
                <circle id="Oval" fill="#CC0FE0" fill-rule="evenodd" cx="22.5" cy="22.5" r="6.5"></circle>
                <polygon id="1" fill="#FFFFFF" fill-rule="evenodd" points="22.3834586 26 22.3834586 22.1440678 21.7067669 22.720339 21 21.2966102 22.593985 20 24 20 24 26"></polygon>
            </g>
        </g>
    </g>
</svg>