<svg width="24" height="24" viewBox="0 0 24 24" fill="none"
  xmlns="http://www.w3.org/2000/svg">
  <path d="M11.9822 2C14.7794 2 17.1481 2.97031 19.0891 4.91094C21.0291 6.83969 22 9.2025 22 12C22 14.7981 21.0472 17.1428 19.1422 19.0356C17.1306 21.0119 14.7434 22 11.9822 22C9.27938 22 6.93437 21.0178 4.94656 19.0534C2.9825 17.0894 2 14.7387 2 12.0003C2 9.27437 2.9825 6.91125 4.94656 4.91125C6.88688 2.97031 9.23219 2 11.9822 2ZM12.0178 3.80375C9.74406 3.80375 7.82156 4.6075 6.25 6.21469C4.61875 7.86969 3.80344 9.79812 3.80344 12C3.80344 14.2266 4.61281 16.1428 6.23156 17.75C7.85063 19.3694 9.77906 20.1784 12.0172 20.1784C14.2431 20.1784 16.1841 19.3631 17.8387 17.7322C19.4103 16.2084 20.1959 14.2978 20.1959 12C20.1959 9.71469 19.3981 7.78594 17.8034 6.21469C16.22 4.60688 14.2913 3.80375 12.0178 3.80375ZM7.55344 10.5891C7.74375 9.36281 8.2375 8.41344 9.03531 7.74094C9.83281 7.06844 10.8028 6.73219 11.9459 6.73219C13.5169 6.73219 14.7675 7.23844 15.6959 8.24969C16.6244 9.26156 17.0887 10.5594 17.0887 12.1425C17.0887 13.6784 16.6066 14.955 15.6428 15.9725C14.6778 16.99 13.4284 17.4994 11.8922 17.4994C10.7612 17.4994 9.785 17.1603 8.96375 16.4816C8.14219 15.8028 7.64844 14.8387 7.48156 13.5887H10C10.0594 14.8031 10.7916 15.4103 12.1966 15.4103C12.8984 15.4103 13.4644 15.1066 13.8928 14.4997C14.3219 13.8928 14.5363 13.0828 14.5363 12.0712C14.5363 11.0116 14.3397 10.2053 13.9472 9.65156C13.5541 9.09812 12.9891 8.82125 12.2503 8.82125C10.9166 8.82125 10.1669 9.41031 10.0003 10.5887H10.7325L8.75062 12.5709L6.76844 10.5887L7.55344 10.5891Z" fill="#000"/>
</svg>
