<svg width="24" height="24" viewBox="0 0 24 24" fill="none" xmlns="http://www.w3.org/2000/svg">
<path d="M19.1429 2H4.85714C3.27902 2 2 3.27946 2 4.85714V19.1429C2 20.7205 3.27902 22 4.85714 22H19.1429C20.721 22 22 20.7205 22 19.1429V4.85714C22 3.27946 20.7188 2 19.1429 2ZM17.3571 14.5C17.3571 15.2897 16.7183 15.9286 15.9286 15.9286C15.1388 15.9286 14.5 15.2897 14.5 14.5V11.5223L9.08036 16.942C8.80357 17.2188 8.4375 17.3571 8.07143 17.3571C7.70536 17.3571 7.34018 17.2176 7.06161 16.9386C6.50357 16.3806 6.50357 15.4766 7.06161 14.9185L12.4821 9.5H9.5C8.71027 9.5 8.07143 8.86116 8.07143 8.07143C8.07143 7.2817 8.71027 6.64286 9.5 6.64286H15.9286C16.7183 6.64286 17.3571 7.2817 17.3571 8.07143V14.5Z" fill="#FF0000"/>
</svg>
