<svg width="24" height="24" viewBox="0 0 24 24" fill="none" xmlns="http://www.w3.org/2000/svg">
<path d="M9.14286 4.14286C9.14286 2.95982 10.1027 2 11.2857 2H12.7143C13.8973 2 14.8571 2.95982 14.8571 4.14286V19.8571C14.8571 21.0402 13.8973 22 12.7143 22H11.2857C10.1027 22 9.14286 21.0402 9.14286 19.8571V4.14286ZM2 12.7143C2 11.5313 2.95982 10.5714 4.14286 10.5714H5.57143C6.75446 10.5714 7.71429 11.5313 7.71429 12.7143V19.8571C7.71429 21.0402 6.75446 22 5.57143 22H4.14286C2.95982 22 2 21.0402 2 19.8571V12.7143ZM18.4286 4.85714H19.8571C21.0402 4.85714 22 5.81696 22 7V19.8571C22 21.0402 21.0402 22 19.8571 22H18.4286C17.2455 22 16.2857 21.0402 16.2857 19.8571V7C16.2857 5.81696 17.2455 4.85714 18.4286 4.85714Z" fill="#FF0000"/>
</svg>
