<?xml version="1.0" encoding="UTF-8"?>
<svg width="24px" height="24px" viewBox="0 0 24 24" version="1.1" xmlns="http://www.w3.org/2000/svg" xmlns:xlink="http://www.w3.org/1999/xlink">
    <!-- Generator: Sketch 55.2 (78181) - https://sketchapp.com -->
    <title>iconDiscoveryProvider</title>
    <desc>Created with Sketch.</desc>
    <g id="Page-1" stroke="none" stroke-width="1" fill="none" fill-rule="evenodd">
        <g id="Guide" transform="translate(-596.000000, -763.000000)">
            <g id="iconDiscoveryProvider" transform="translate(596.000000, 763.000000)">
                <g>
                    <circle id="Oval" fill="#FF7900" fill-rule="nonzero" cx="12" cy="12" r="12"></circle>
                    <g id="Stockholm-icons-/-General-/-Binocular" transform="translate(4.000000, 4.000000)">
                        <rect id="bound" x="0" y="0" width="16" height="16"></rect>
                        <path d="M8.56231983,10.6666667 L7.43768017,10.6666667 L7.32347724,11.0928778 C6.89017691,12.7099766 5.22799998,13.6696349 3.61090115,13.2363346 C1.99380232,12.8030343 1.03414402,11.1408574 1.46744434,9.52375853 L2.61391139,5.24508526 C3.04721172,3.62798643 4.70938865,2.66832813 6.32648748,3.10162845 C7.02811513,3.28962901 7.6059781,3.70896841 8,4.2555913 C8.3940219,3.70896841 8.97188487,3.28962901 9.67351252,3.10162845 C11.2906113,2.66832813 12.9527883,3.62798643 13.3860886,5.24508526 L14.5325557,9.52375853 C14.965856,11.1408574 14.0061977,12.8030343 12.3890989,13.2363346 C10.772,13.6696349 9.10982309,12.7099766 8.67652276,11.0928778 L8.56231983,10.6666667 L8.56231983,10.6666667 Z M11.6375668,12.0701243 C12.6420532,12.0701243 13.4563502,11.2251978 13.4563502,10.1829282 C13.4563502,9.14065853 12.6420532,8.29573204 11.6375668,8.29573204 C10.6330805,8.29573204 9.81878341,9.14065853 9.81878341,10.1829282 C9.81878341,11.2251978 10.6330805,12.0701243 11.6375668,12.0701243 Z M4.36243318,12.0701243 C5.36691952,12.0701243 6.18121659,11.2251978 6.18121659,10.1829282 C6.18121659,9.14065853 5.36691952,8.29573204 4.36243318,8.29573204 C3.35794684,8.29573204 2.54364977,9.14065853 2.54364977,10.1829282 C2.54364977,11.2251978 3.35794684,12.0701243 4.36243318,12.0701243 Z" id="Combined-Shape" fill="#FFFFFF" fill-rule="evenodd"></path>
                    </g>
                </g>
            </g>
        </g>
    </g>
</svg>