<?xml version="1.0" encoding="UTF-8"?>
<svg width="16px" height="16px" viewBox="0 0 16 16" version="1.1" xmlns="http://www.w3.org/2000/svg" xmlns:xlink="http://www.w3.org/1999/xlink">
    <!-- Generator: Sketch 55.2 (78181) - https://sketchapp.com -->
    <title>iconValidationX</title>
    <desc>Created with Sketch.</desc>
    <g id="Page-1" stroke="none" stroke-width="1" fill="none" fill-rule="evenodd">
        <g id="Guide" transform="translate(-260.000000, -767.000000)">
            <g id="icon/ValidationX" transform="translate(260.000000, 767.000000)">
                <circle id="Oval" fill="#E03D51" cx="8" cy="8" r="8"></circle>
                <path d="M9.34616474,8 L11.5897726,10.2436079 C11.9615058,10.615341 11.9615058,11.2180395 11.5897726,11.5897726 C11.2180395,11.9615058 10.615341,11.9615058 10.2436079,11.5897726 L8,9.34616474 L5.7563921,11.5897726 C5.38465897,11.9615058 4.78196048,11.9615058 4.41022735,11.5897726 C4.03849423,11.2180395 4.03849423,10.615341 4.41022735,10.2436079 L6.65383526,8 L4.41022735,5.7563921 C4.03849423,5.38465897 4.03849423,4.78196048 4.41022735,4.41022735 C4.78196048,4.03849423 5.38465897,4.03849423 5.7563921,4.41022735 L8,6.65383526 L10.2436079,4.41022735 C10.615341,4.03849423 11.2180395,4.03849423 11.5897726,4.41022735 C11.9615058,4.78196048 11.9615058,5.38465897 11.5897726,5.7563921 L9.34616474,8 Z" id="Combined-Shape" fill="#FFFFFF"></path>
            </g>
        </g>
    </g>
</svg>