<svg width="24" height="24" viewBox="0 0 24 24" fill="none" xmlns="http://www.w3.org/2000/svg">
<path d="M18.9687 8.16797C20.3477 7.84375 21.375 6.60547 21.375 5.125C21.375 3.39844 19.9766 2 18.25 2C16.5547 2 15.1758 3.34766 15.125 5.02734L7.94531 7.90234C7.37891 7.34375 6.60547 7 5.75 7C4.02344 7 2.625 8.39844 2.625 10.125C2.625 11.8516 4.02344 13.25 5.75 13.25C6.22656 13.25 6.67969 13.1445 7.08203 12.9531L12.7695 17.9297C12.6758 18.2266 12.625 18.5469 12.625 18.875C12.625 20.6016 14.0234 22 15.75 22C17.4766 22 18.875 20.6016 18.875 18.875C18.875 17.793 18.3281 16.8398 17.4922 16.2813L18.9687 8.16797ZM8.73047 11.0703C8.81641 10.8008 8.86719 10.5156 8.875 10.2227L16.0547 7.35156C16.1953 7.48828 16.3437 7.61328 16.5078 7.72266L15.0313 15.832C14.8164 15.8828 14.6094 15.9531 14.4141 16.0469L8.73047 11.0703Z" fill="#FF0000"/>
</svg>
