<svg xmlns="http://www.w3.org/2000/svg" width="16" height="16" viewBox="0 0 16 16" fill="none">
  <g clip-path="url(#clip0_6946_1478)">
    <g filter="url(#filter0_d_6946_1478)">
      <path fill-rule="evenodd" clip-rule="evenodd" d="M13.415 2.92479C13.9447 3.33857 14.0386 4.10337 13.6248 4.633L7.13144 12.9441C7.07164 13.0207 7.00451 13.0881 6.93191 13.1462C6.87971 13.222 6.81738 13.2932 6.74565 13.3579C6.24616 13.8076 5.47667 13.7673 5.02694 13.2678L2.31259 10.2532C1.86286 9.75375 1.90319 8.98421 2.40266 8.53448C2.90214 8.08475 3.67162 8.12508 4.12135 8.62461L5.88661 10.5837C5.88661 10.5837 11.293 3.66415 11.7068 3.13453C12.1206 2.60489 12.8854 2.51099 13.415 2.92479Z" fill="white"/>
    </g>
  </g>
  <defs>
    <filter id="filter0_d_6946_1478" x="2" y="2.66675" width="15.8828" height="15.0037" filterUnits="userSpaceOnUse" color-interpolation-filters="sRGB">
      <feFlood flood-opacity="0" result="BackgroundImageFix"/>
      <feColorMatrix in="SourceAlpha" type="matrix" values="0 0 0 0 0 0 0 0 0 0 0 0 0 0 0 0 0 0 127 0" result="hardAlpha"/>
      <feOffset dx="2" dy="2"/>
      <feGaussianBlur stdDeviation="1"/>
      <feComposite in2="hardAlpha" operator="out"/>
      <feColorMatrix type="matrix" values="0 0 0 0 0 0 0 0 0 0 0 0 0 0 0 0 0 0 0.1 0"/>
      <feBlend mode="normal" in2="BackgroundImageFix" result="effect1_dropShadow_6946_1478"/>
      <feBlend mode="normal" in="SourceGraphic" in2="effect1_dropShadow_6946_1478" result="shape"/>
    </filter>
    <clipPath id="clip0_6946_1478">
      <rect width="16" height="16" fill="white"/>
    </clipPath>
  </defs>
</svg>