<svg width="60" height="61" viewBox="0 0 60 61" fill="none" xmlns="http://www.w3.org/2000/svg">
<path fill-rule="evenodd" clip-rule="evenodd" d="M30.8863 27.0775L40.5245 28.642H40.6281C40.8895 28.642 41.1262 28.4817 41.215 28.2387L44.6432 19.2404C44.7023 19.0898 44.6579 18.9197 44.5346 18.8177C44.4113 18.7156 44.2337 18.6962 44.0956 18.7788L41.1213 20.4794L36.7807 13.099C36.0112 11.8017 34.6054 11 33.0862 11H26.595C25.0708 11.0049 23.6651 11.8065 22.9054 13.1038L18.7868 20.1733L21.0113 19.7991C22.8364 19.493 24.6318 20.4988 25.2928 22.2091L26.1412 24.4052L28.6765 20.0664C28.9182 19.6534 29.3671 19.3959 29.8505 19.3959C30.3289 19.3959 30.7728 19.6437 31.0195 20.0469L33.7274 24.6627L30.7531 26.3633C30.5953 26.4362 30.5065 26.6014 30.5361 26.7714C30.5706 26.9366 30.7137 27.0629 30.8863 27.0775ZM13.3681 44.172C14.155 45.4766 15.601 46.2791 17.1696 46.284H25.723L24.2361 44.5413C23.02 43.1086 23.02 41.0508 24.2361 39.6181L25.8456 37.7523H20.5266C20.0258 37.7523 19.5609 37.4913 19.3105 37.0729C19.0601 36.6544 19.0652 36.1375 19.3156 35.719L22.085 31.0519L25.166 32.7504C25.3142 32.8291 25.4981 32.8144 25.6208 32.711C25.7485 32.6076 25.7945 32.4353 25.7332 32.2827L22.131 23.17C22.039 22.9287 21.7988 22.7663 21.528 22.7613H21.4156L11.4469 24.4057C11.2936 24.4401 11.171 24.5583 11.1455 24.7109C11.1199 24.8635 11.1863 25.0161 11.3192 25.0998L14.4104 26.8032L9.96515 34.3208C9.17828 35.6402 9.17828 37.2599 9.96515 38.5744L13.3681 44.172ZM39.8972 32.3103C41.3473 32.5485 42.7623 31.7246 43.2723 30.3547L44.3724 27.4659L48.7975 35.0551C49.5675 36.3804 49.5675 38.0184 48.7975 39.3436L45.4924 44.9971C44.7174 46.3224 43.2923 47.1414 41.7473 47.1414H32.9921V50.6059C32.9921 50.7102 32.9471 50.8094 32.8671 50.8839C32.7921 50.9583 32.682 50.9931 32.577 50.9881C32.462 50.9881 32.352 50.9335 32.282 50.8442L25.9919 43.2499C25.7969 43.0216 25.7969 42.6841 25.9919 42.4508L32.262 34.8516C32.332 34.7623 32.442 34.7077 32.557 34.7077C32.662 34.7027 32.7721 34.7375 32.8471 34.8119C32.9271 34.8864 32.9721 34.9856 32.9721 35.0948V38.5594H38.4272C38.9222 38.5693 39.3872 38.3162 39.6422 37.8893C39.8923 37.4625 39.8923 36.9363 39.6422 36.5095L36.9172 31.804L39.8972 32.3103Z" fill="#CECDD6"/>
</svg>
