<svg width="24" height="24" viewBox="0 0 24 24" fill="none" xmlns="http://www.w3.org/2000/svg">
<path d="M11.9822 2C14.7909 2 17.1603 2.96406 19.0891 4.89281C21.0291 6.83344 22 9.2025 22 12C22 14.8097 21.0472 17.1488 19.1422 19.0175C17.1184 21.0059 14.7319 22 11.9822 22C9.27937 22 6.93437 21.0175 4.94656 19.0531C2.9825 17.0888 2 14.7381 2 12C2 9.26219 2.9825 6.89312 4.94656 4.89312C6.87531 2.96406 9.22 2 11.9822 2ZM12.0178 3.80375C9.74406 3.80375 7.82156 4.60156 6.25 6.19656C4.61875 7.86344 3.80344 9.79813 3.80344 12.0003C3.80344 14.2147 4.61281 16.1316 6.23156 17.7497C7.85063 19.3691 9.77906 20.1781 12.0172 20.1781C14.2431 20.1781 16.1841 19.3634 17.8387 17.7319C19.4103 16.22 20.1959 14.3094 20.1959 11.9997C20.1959 9.72594 19.3981 7.79187 17.8034 6.19625C16.2084 4.60125 14.2797 3.80375 12.0178 3.80375ZM14.6966 9.51781V13.6069H13.5541V18.4637H10.4466V13.6072H9.30406V9.51781C9.30406 9.33906 9.36656 9.1875 9.49125 9.0625C9.61656 8.93781 9.76844 8.875 9.94656 8.875H14.0541C14.2206 8.875 14.3697 8.9375 14.5003 9.0625C14.6306 9.1875 14.6966 9.33937 14.6966 9.51781ZM10.6069 6.94656C10.6069 6.00656 11.0709 5.53594 12 5.53594C12.9291 5.53594 13.3928 6.00594 13.3928 6.94656C13.3928 7.875 12.9284 8.33937 12 8.33937C11.0716 8.33937 10.6069 7.875 10.6069 6.94656Z" fill="#858199"/>
</svg>
