<svg width="20" height="20" viewBox="0 0 20 20" fill="none" xmlns="http://www.w3.org/2000/svg">
<path d="M9.98219 0C12.7794 0 15.1481 0.970313 17.0891 2.91094C19.0291 4.83969 20 7.2025 20 10C20 12.7981 19.0472 15.1428 17.1422 17.0356C15.1306 19.0119 12.7434 20 9.98219 20C7.27938 20 4.93437 19.0178 2.94656 17.0534C0.9825 15.0894 0 12.7387 0 10.0003C0 7.27437 0.9825 4.91125 2.94656 2.91125C4.88688 0.970312 7.23219 0 9.98219 0ZM10.0178 1.80375C7.74406 1.80375 5.82156 2.6075 4.25 4.21469C2.61875 5.86969 1.80344 7.79812 1.80344 10C1.80344 12.2266 2.61281 14.1428 4.23156 15.75C5.85063 17.3694 7.77906 18.1784 10.0172 18.1784C12.2431 18.1784 14.1841 17.3631 15.8387 15.7322C17.4103 14.2084 18.1959 12.2978 18.1959 10C18.1959 7.71469 17.3981 5.78594 15.8034 4.21469C14.22 2.60688 12.2913 1.80375 10.0178 1.80375ZM5.55344 8.58906C5.74375 7.36281 6.2375 6.41344 7.03531 5.74094C7.83281 5.06844 8.80281 4.73219 9.94594 4.73219C11.5169 4.73219 12.7675 5.23844 13.6959 6.24969C14.6244 7.26156 15.0887 8.55938 15.0887 10.1425C15.0887 11.6784 14.6066 12.955 13.6428 13.9725C12.6778 14.99 11.4284 15.4994 9.89219 15.4994C8.76125 15.4994 7.785 15.1603 6.96375 14.4816C6.14219 13.8028 5.64844 12.8387 5.48156 11.5887H8C8.05937 12.8031 8.79156 13.4103 10.1966 13.4103C10.8984 13.4103 11.4644 13.1066 11.8928 12.4997C12.3219 11.8928 12.5363 11.0828 12.5363 10.0712C12.5363 9.01156 12.3397 8.20531 11.9472 7.65156C11.5541 7.09812 10.9891 6.82125 10.2503 6.82125C8.91656 6.82125 8.16687 7.41031 8.00031 8.58875H8.7325L6.75062 10.5709L4.76844 8.58875L5.55344 8.58906Z" fill="#858199"/>
</svg>
