<?xml version="1.0" encoding="UTF-8"?>
<svg width="531px" height="600px" viewBox="0 0 531 600" version="1.1" xmlns="http://www.w3.org/2000/svg" xmlns:xlink="http://www.w3.org/1999/xlink">
    <!-- Generator: sketchtool 52 (66869) - http://www.bohemiancoding.com/sketch -->
    <title>A1BDB26D-198A-4091-9FA7-DA088148AC36</title>
    <desc>Created with sketchtool.</desc>
    <g id="Asset-Guide" stroke="none" stroke-width="1" fill="none" fill-rule="evenodd">
        <g transform="translate(-224.000000, -1151.000000)" fill="#FAFAFA" id="Audius-Glyph">
            <g transform="translate(224.000000, 1151.000000)">
                <g id="Group-12">
                    <g id="Audius-Logo">
                        <path d="M468.6155,588.0908 L479.6085,574.9598 C486.6325,580.5588 494.4695,583.5108 502.7155,583.5108 C508.0085,583.5108 510.8575,581.6778 510.8575,578.6248 L510.8575,578.4208 C510.8575,575.4698 508.5165,573.8408 498.8465,571.6018 C483.6805,568.1408 471.9745,563.8648 471.9745,549.2078 L471.9745,549.0048 C471.9745,535.7728 482.4595,526.2048 499.5585,526.2048 C511.6715,526.2048 521.1375,529.4618 528.8735,535.6708 L519.0015,549.6148 C512.4865,545.0348 505.3605,542.5918 499.0505,542.5918 C494.2655,542.5918 491.9255,544.6278 491.9255,547.1728 L491.9255,547.3758 C491.9255,550.6328 494.3675,552.0588 504.2415,554.2978 C520.6295,557.8608 530.8075,563.1528 530.8075,576.4868 L530.8075,576.6908 C530.8075,591.2458 519.3055,599.8988 502.0025,599.8988 C489.3805,599.8988 477.3695,595.9288 468.6155,588.0908" id="Fill-9"></path>
                        <path d="M106.6053,567.4287 L106.6053,527.4257 L126.6573,527.4257 L126.6573,567.0207 C126.6573,577.3007 131.8483,582.1867 139.7873,582.1867 C147.7273,582.1867 152.9183,577.5047 152.9183,567.5297 L152.9183,527.4257 L172.9703,527.4257 L172.9703,566.9187 C172.9703,589.9227 159.8393,599.9997 139.5833,599.9997 C119.3283,599.9997 106.6053,589.7187 106.6053,567.4287" id="Fill-2"></path>
                        <polygon id="Fill-6" points="313.525 598.677 333.373 598.677 333.373 527.426 313.525 527.426"></polygon>
                        <path d="M238.4217,581.1689 C250.2287,581.1689 258.0667,574.6539 258.0667,563.1519 L258.0667,562.9489 C258.0667,551.5499 250.2287,544.9339 238.4217,544.9339 L230.3807,544.9339 L230.3807,581.1689 L238.4217,581.1689 Z M210.6337,527.4259 L238.1167,527.4259 C263.5637,527.4259 278.3227,542.0829 278.3227,562.6439 L278.3227,562.8479 C278.3227,583.4079 263.3597,598.6769 237.7107,598.6769 L210.6337,598.6769 L210.6337,527.4259 Z" id="Fill-4"></path>
                        <path d="M371.1312,567.4287 L371.1312,527.4257 L391.1832,527.4257 L391.1832,567.0207 C391.1832,577.3007 396.3742,582.1867 404.3142,582.1867 C412.2522,582.1867 417.4442,577.5047 417.4442,567.5297 L417.4442,527.4257 L437.4962,527.4257 L437.4962,566.9187 C437.4962,589.9227 424.3652,599.9997 404.1102,599.9997 C383.8552,599.9997 371.1312,589.7187 371.1312,567.4287" id="Fill-8"></path>
                        <path d="M30.3327,526.9173 L-0.0003,598.6773 L20.7647,598.6773 L25.8537,585.9533 L53.3367,585.9533 L58.5267,598.6773 L79.6987,598.6773 L49.3667,526.9173 L30.3327,526.9173 Z M39.6967,550.3283 L47.6357,570.5843 L31.6547,570.5843 L39.6967,550.3283 Z" id="Fill-1"></path>
                        <path d="M529.265,445.5176 L402.875,226.2686 L343.595,123.4356 L276.485,7.0196 C271.619,-1.4194 259.443,-1.4274 254.567,7.0046 L127.887,226.0866 L76.127,315.5996 C71.251,324.0326 77.332,334.5816 87.074,334.5886 L184.862,334.6536 C189.383,334.6566 193.562,332.2466 195.825,328.3326 L246.649,240.4366 L254.421,226.9956 C254.728,226.4656 255.063,225.9686 255.424,225.5056 C260.8,218.5966 271.78,219.1006 276.339,227.0096 L329.071,318.4846 L338.821,335.3966 C339.379,336.3646 339.786,337.3616 340.067,338.3656 C342.233,346.1166 336.473,354.3756 327.849,354.3706 L212.814,354.2946 C208.293,354.2916 204.114,356.7006 201.851,360.6146 L152.901,445.2686 C148.025,453.7016 154.106,464.2506 163.848,464.2566 L265.223,464.3246 L391.632,464.4086 L518.293,464.4916 C528.036,464.4976 534.13,453.9566 529.265,445.5176" id="Fill-10"></path>
                    </g>
                </g>
            </g>
        </g>
    </g>
</svg>