<?xml version="1.0" encoding="UTF-8"?>
<svg width="24px" height="24px" viewBox="0 0 24 24" version="1.1" xmlns="http://www.w3.org/2000/svg" xmlns:xlink="http://www.w3.org/1999/xlink">
<linearGradient id="gradientCrown" gradientTransform="rotate(45)" height="100%" width="100%">
        <stop offset="0%" stop-color="var(--page-header-gradient-color-2)"/>
        <stop offset="100%" stop-color="var(--page-header-gradient-color-1)"/>
    </linearGradient>
    <g id="Assets" stroke="none" stroke-width="1" fill="none" fill-rule="evenodd">
        <g id="assets" transform="translate(-760.000000, -2641.000000)" fill="#858199">
            <g id="icon/Notification" transform="translate(760.000000, 2641.000000)">
                <path d="M14,18 C14,19.1 13.1,20 12,20 C10.9,20 10,19.1 10,18 L14,18 Z M19,15 C19.6,15 20,15.4 20,16 C20,16.6 19.6,17 19,17 L5,17 C4.4,17 4,16.6 4,16 C4,15.4 4.4,15 5,15 L5.5,15 C6.2,14.3 7,13.3 7,12 L7,9 C7,6.2 9.2,4 12,4 C14.8,4 17,6.2 17,9 L17,12 C17,13.3 17.8,14.3 18.5,15 L19,15 Z" id="Fill" fill-rule="evenodd" style="fill: url(#gradientCrown);"></path>
            </g>
        </g>
    </g>
</svg>