<svg width="22" height="23" viewBox="0 0 22 23" fill="none" xmlns="http://www.w3.org/2000/svg">
<path d="M10.9836 2.33398C13.5583 2.33398 15.7302 3.21771 17.4982 4.98573C19.2766 6.76464 20.1666 8.93628 20.1666 11.5007C20.1666 14.0762 19.2932 16.2203 17.5469 17.9334C15.6918 19.7561 13.5041 20.6673 10.9836 20.6673C8.50601 20.6673 6.35643 19.7667 4.53427 17.966C2.73388 16.1653 1.83325 14.0106 1.83325 11.5007C1.83325 8.99099 2.73388 6.81935 4.53427 4.98602C6.30229 3.21771 8.45158 2.33398 10.9836 2.33398ZM11.0162 3.98742C8.93198 3.98742 7.16968 4.71875 5.72909 6.18083C4.23377 7.7088 3.4864 9.48227 3.4864 11.5009C3.4864 13.5308 4.22833 15.2879 5.71218 16.7712C7.19632 18.2556 8.96406 18.9973 11.0157 18.9973C13.0561 18.9973 14.8353 18.2505 16.3521 16.7549C17.7927 15.369 18.5129 13.6176 18.5129 11.5004C18.5129 9.41609 17.7815 7.6432 16.3197 6.18055C14.8577 4.71846 13.0896 3.98742 11.0162 3.98742ZM13.4718 9.22531V12.9736H12.4245V17.4258H9.57593V12.9739H8.52864V9.22531C8.52864 9.06146 8.58593 8.92253 8.70023 8.80794C8.8151 8.69365 8.95432 8.63607 9.1176 8.63607H12.8828C13.0355 8.63607 13.1721 8.69336 13.2919 8.80794C13.4113 8.92253 13.4718 9.06174 13.4718 9.22531ZM9.72289 6.86833C9.72289 6.00667 10.1483 5.57526 10.9999 5.57526C11.8516 5.57526 12.2767 6.00609 12.2767 6.86833C12.2767 7.7194 11.851 8.14508 10.9999 8.14508C10.1489 8.14508 9.72289 7.7194 9.72289 6.86833Z" fill="#AAA7B8"/>
</svg>
