<svg width="40" height="40" viewBox="0 0 40 40" fill="none" xmlns="http://www.w3.org/2000/svg">
<g id="OGX">
<path id="Document" fill-rule="evenodd" clip-rule="evenodd" d="M32.4271 36.6666H7.57326C6.76551 36.6666 6.11127 36.018 6.11127 35.2173V4.78253C6.11127 3.9818 6.76551 3.33325 7.57326 3.33325H25.1171L33.889 12.0289V35.2173C33.889 36.018 33.2348 36.6666 32.4271 36.6666Z" fill="#F7F7F9"/>
<path id="Intersect" d="M33.8728 12.0127H26.5792C25.7714 12.0127 25.1172 11.3641 25.1172 10.5634V3.33325L33.8728 12.0127Z" fill="#EAEAEA"/>
<path id="Mask" fill-rule="evenodd" clip-rule="evenodd" d="M3.33331 18.3333L6.11109 15.8333V18.3333H33.8889V15.8333L36.6666 18.3333V30.9258C36.6666 31.7955 36.0181 32.4999 35.2174 32.4999H4.78259C3.98186 32.4999 3.33331 31.7955 3.33331 30.9258V18.3333ZM15.6706 24.8984V25.9335C15.6706 28.4335 14.2187 29.996 11.6992 29.996C9.1862 29.996 7.73437 28.4335 7.73437 25.9335V24.8984C7.73437 22.3723 9.19922 20.7903 11.7122 20.7903C14.2253 20.7903 15.6706 22.3853 15.6706 24.8984ZM13.4701 25.94V24.8723C13.4701 23.3359 12.7539 22.5351 11.7057 22.5351C10.651 22.5351 9.9349 23.3359 9.9349 24.8723V25.94C9.9349 27.483 10.651 28.2447 11.7057 28.2447C12.7539 28.2447 13.4701 27.483 13.4701 25.94ZM20.6185 20.7903C23.0013 20.7903 24.2448 22.2681 24.2839 23.8827H22.2005C22.1094 23.1275 21.556 22.5481 20.6055 22.5481C19.4727 22.5481 18.8542 23.3684 18.8542 24.8137V25.8879C18.8542 27.2226 19.3229 28.2317 20.6641 28.2317C21.6797 28.2317 22.2656 27.5872 22.2656 26.8385V26.4609H20.7227V24.9504H24.2904V26.6757C24.2904 28.4075 23.112 29.996 20.612 29.996C17.8646 29.996 16.6797 28.2187 16.6797 25.8945V24.7942C16.6797 22.4309 18.0729 20.7903 20.6185 20.7903ZM30.4753 20.9465H32.8906L30.1302 25.3866L32.8581 29.8333H30.4297L28.75 26.9166H28.6589L26.9792 29.8333H24.6745L27.3307 25.3606L24.681 20.9465H27.207L28.8021 23.9413H28.8932L30.4753 20.9465Z" fill="#981F6B"/>
<path id="Shape" opacity="0.5" d="M6.11109 18.3333H3.33331L6.11109 15.8333V18.3333ZM33.8889 18.3333V15.8333L36.6666 18.3333H33.8889Z" fill="#F7F7F9"/>
</g>
</svg>
