<?xml version="1.0" encoding="UTF-8"?>
<svg width="24px" height="24px" viewBox="0 0 24 24" version="1.1" xmlns="http://www.w3.org/2000/svg" xmlns:xlink="http://www.w3.org/1999/xlink">
    <g id="Assets" stroke="none" stroke-width="1" fill="none" fill-rule="evenodd">
        <g id="assets" transform="translate(-1032.000000, -751.000000)">
            <g id="icon/Filetype" transform="translate(1032.000000, 751.000000)">
                <path d="M20.9473684,24 L3.05263158,24 C2.47105263,24 2,23.5330435 2,22.9565217 L2,1.04347826 C2,0.466956522 2.47105263,0 3.05263158,0 L15.6842105,0 L22,6.26086957 L22,22.9565217 C22,23.5330435 21.5289474,24 20.9473684,24 Z" id="Document" fill="#F2F2F4"></path>
                <path d="M2,9.082 L2,11 L22,11 L22,9.083 L24,11 L22.4347826,13 L1.56521739,13 L0,11 L2,9.082 Z" id="Combined-Shape" fill="#B989E2" fill-rule="nonzero"></path>
                <path d="M22.9565217,21 L1.04347826,21 C0.466956522,21 0,20.5027778 0,19.8888889 L0,11 L24,11 L24,19.8888889 C24,20.5027778 23.5330435,21 22.9565217,21 Z" id="Path" fill="#7E1BCC"></path>
                <path d="M16,0 L16,5 C16,5.5525 16.4475,6 17,6 L22,6 L16,0 Z" id="Corner" fill="#DAD9E0"></path>
                <path d="M2,11 L0,11 L2,9.08333333 L2,11 Z M22,11 L22,9.08333333 L24,11 L22,11 Z" id="Shape" fill="#F7F7F9" fill-rule="nonzero" opacity="0.5"></path>
                <path d="M8.15429688,17.9023438 L6.16992188,17.9023438 L5.81445312,19 L4.46289062,19 L6.56835938,13.3125 L7.75195312,13.3125 L9.86523438,19 L8.51367188,19 L8.15429688,17.9023438 Z M7.82226562,16.8789062 L7.16210938,14.8515625 L6.50585938,16.8789062 L7.82226562,16.8789062 Z M12.5917969,13.3125 C13.0319032,13.3125 13.416014,13.3945304 13.7441406,13.5585938 C14.0722673,13.7226571 14.3235668,13.9492173 14.4980469,14.2382812 C14.6725269,14.5273452 14.7597656,14.856769 14.7597656,15.2265625 C14.7597656,15.5911477 14.6725269,15.9108059 14.4980469,16.1855469 C14.3235668,16.4602878 14.0735693,16.6725253 13.7480469,16.8222656 C13.4225244,16.972006 13.0371116,17.046875 12.5917969,17.046875 L11.6152344,17.046875 L11.6152344,19 L10.3457031,19 L10.3457031,13.3125 L12.5917969,13.3125 Z M12.5917969,16.0234375 C12.8912775,16.0234375 13.1139316,15.9524747 13.2597656,15.8105469 C13.4055997,15.6686191 13.4785156,15.4765637 13.4785156,15.234375 C13.4785156,15.0703117 13.4472659,14.9205736 13.3847656,14.7851562 C13.3222653,14.6497389 13.22461,14.541016 13.0917969,14.4589844 C12.9589837,14.3769527 12.7923187,14.3359375 12.5917969,14.3359375 L11.6152344,14.3359375 L11.6152344,16.0234375 L12.5917969,16.0234375 Z M16.7988281,14.3359375 L16.7988281,15.5859375 L19.0019531,15.5859375 L19.0019531,16.5742188 L16.7988281,16.5742188 L16.7988281,17.9804688 L19.3925781,17.9804688 L19.3925781,19 L15.5292969,19 L15.5292969,13.3125 L19.3925781,13.3125 L19.3925781,14.3359375 L16.7988281,14.3359375 Z" id="APE" fill="#FFFFFF" fill-rule="nonzero"></path>
            </g>
        </g>
    </g>
</svg>