<svg width="40" height="40" viewBox="0 0 40 40" fill="none" xmlns="http://www.w3.org/2000/svg">
<g id="M4A">
<path id="Document" fill-rule="evenodd" clip-rule="evenodd" d="M32.427 36.6666H7.57319C6.76545 36.6666 6.11121 36.018 6.11121 35.2173V4.78253C6.11121 3.9818 6.76545 3.33325 7.57319 3.33325H25.1171L33.889 12.0289V35.2173C33.889 36.018 33.2347 36.6666 32.427 36.6666Z" fill="#F7F7F9"/>
<path id="Intersect" d="M33.8728 12.0127H26.5792C25.7714 12.0127 25.1172 11.3641 25.1172 10.5634V3.33325L33.8728 12.0127Z" fill="#EAEAEA"/>
<path id="Mask" fill-rule="evenodd" clip-rule="evenodd" d="M3.33337 18.3333L6.11115 15.8333V18.3333H33.8889V15.8333L36.6667 18.3333V30.9258C36.6667 31.7955 36.0182 32.4999 35.2174 32.4999H4.78265C3.98192 32.4999 3.33337 31.7955 3.33337 30.9258V18.3333ZM9.1472 24.332V29.8333H7.23313V20.9465H9.4597L11.7383 25.9661H11.8034L14.0886 20.9465H16.2891V29.8333H14.3555V24.332H14.2644L12.3894 28.4921H11.1264L9.24485 24.332H9.1472ZM17.5391 26.6106C18.5287 24.6965 19.6615 22.7955 20.7813 20.9465H23.8282V26.6301H24.8699V28.3163H23.8282V29.8333H21.823V28.3163H17.5391V26.6106ZM19.4141 26.6041V26.6301H21.823V22.4895H21.7383C20.9245 23.8046 20.1238 25.1783 19.4141 26.6041ZM27.9623 27.7955L27.3829 29.8333H25.2344L28.099 20.9465H30.7292L33.5743 29.8333H31.2826L30.7097 27.7955H27.9623ZM30.3256 26.2395L29.4011 22.8736H29.3034L28.3594 26.2395H30.3256Z" fill="#91222D"/>
<path id="Shape" opacity="0.5" d="M6.11115 18.3333H3.33337L6.11115 15.8333V18.3333ZM33.8889 18.3333V15.8333L36.6667 18.3333H33.8889Z" fill="#F7F7F9"/>
</g>
</svg>
