<?xml version="1.0" encoding="UTF-8"?>
<svg width="14px" height="14px" viewBox="0 0 14 14" version="1.1" xmlns="http://www.w3.org/2000/svg" xmlns:xlink="http://www.w3.org/1999/xlink">
    <g id="🎉-Onboarding" stroke="none" stroke-width="1" fill="none" fill-rule="evenodd">
        <g id="xAlpha-Onboarding-step-1" transform="translate(-352.000000, -792.000000)">
            <g id="Padding-Group-2" transform="translate(185.000000, 775.000000)">
                <g id="Stacked-Group" transform="translate(24.000000, 16.000000)">
                    <g id="ico/arrow" transform="translate(142.000000, 0.000000)">
                        <rect id="Bound" x="0" y="0" width="16" height="16"></rect>
                        <path d="M6.66631102,13.5339202 C6.66631102,13.2227261 6.79967991,12.9346492 7.02196141,12.7123677 L10.667378,9.33368898 L2.66702232,9.33368898 C1.86680893,9.33368898 1.33333333,8.80021339 1.33333333,8 C1.33333333,7.19978661 1.86680893,6.66808927 2.66702232,6.66808927 L10.667378,6.66808927 L6.97750511,3.24495421 C6.77656264,3.04578999 6.66631102,2.73459589 6.66631102,2.46607984 C6.66631102,1.8454699 7.24424291,1.33333333 7.8221748,1.33333333 C8.1333689,1.33333333 8.42144572,1.46670223 8.62238819,1.66764471 L14.26656,7.19978661 C14.4888415,7.42206811 14.6666667,7.6888059 14.6666667,8 C14.6666667,8.28985507 14.4675024,8.60104917 14.26656,8.80021339 L8.64372722,14.3110163 C8.37698942,14.5777541 8.0889126,14.6666667 7.8221748,14.6666667 C7.17844759,14.6666667 6.66631102,14.1563083 6.66631102,13.5339202" id="Fill-1" fill="#FCFCFC" fill-rule="evenodd"></path>
                    </g>
                </g>
            </g>
        </g>
    </g>
</svg>