<svg xmlns="http://www.w3.org/2000/svg" width="24" height="24" viewBox="0 0 24 24">
  <g fill="none" fill-rule="evenodd">
    <rect width="24" height="24"/>
    <path fill="#858199" d="M8.94392941,17.5481418 C9.21832272,18.1353388 10.0422727,18.1545066 10.3438067,17.5806006 L15.1245124,8.4820126 L16.9792827,12.0678156 C17.2287329,12.5509963 17.8787947,12.6387718 18.2471004,12.240432 L20.7908122,9.48592791 C21.0850211,9.16798721 21.0666894,8.67005764 20.7497256,8.37424966 C20.4327711,8.07844168 19.9375334,8.09687303 19.6433245,8.41555967 L17.855326,10.3512286 L15.8245638,6.42380359 C15.533285,5.86094884 14.7328319,5.85800285 14.4386231,6.41937761 L9.69228932,15.4514919 L7.22934217,10.1896829 C7.02170181,9.74485677 6.4641062,9.59880347 6.06644345,9.88428158 L3.32758161,11.8516766 C2.97614255,12.1039556 2.8947017,12.5952567 3.14562629,12.9493425 C3.3965415,13.3026917 3.88591912,13.3845752 4.23735819,13.1322868 L6.21327552,11.7129977 L8.94392941,17.5481418 Z"/>
  </g>
</svg>
