<svg width="40" height="40" viewBox="0 0 40 40" fill="none" xmlns="http://www.w3.org/2000/svg">
<g id="M4R">
<path id="Document" fill-rule="evenodd" clip-rule="evenodd" d="M32.4271 36.6666H7.57326C6.76551 36.6666 6.11127 36.018 6.11127 35.2173V4.78253C6.11127 3.9818 6.76551 3.33325 7.57326 3.33325H25.1171L33.889 12.0289V35.2173C33.889 36.018 33.2348 36.6666 32.4271 36.6666Z" fill="#F7F7F9"/>
<path id="Intersect" d="M33.8728 12.0127H26.5792C25.7714 12.0127 25.1172 11.3641 25.1172 10.5634V3.33325L33.8728 12.0127Z" fill="#EAEAEA"/>
<path id="Mask" fill-rule="evenodd" clip-rule="evenodd" d="M3.33331 18.3333L6.11109 15.8333V18.3333H33.8889V15.8333L36.6666 18.3333V30.9258C36.6666 31.7955 36.0181 32.4999 35.2174 32.4999H4.78259C3.98186 32.4999 3.33331 31.7955 3.33331 30.9258V18.3333ZM9.17969 24.332V29.8333H7.26562V20.9465H9.49219L11.7708 25.9661H11.8359L14.1211 20.9465H16.3216V29.8333H14.388V24.332H14.2969L12.4219 28.4921H11.1589L9.27734 24.332H9.17969ZM17.5716 26.6106C18.5612 24.6965 19.694 22.7955 20.8138 20.9465H23.8607V26.6301H24.9023V28.3163H23.8607V29.8333H21.8555V28.3163H17.5716V26.6106ZM19.4466 26.6041V26.6301H21.8555V22.4895H21.7708C20.957 23.8046 20.1562 25.1783 19.4466 26.6041ZM26.0742 20.9465H29.8372C32.0312 20.9465 33.112 22.1835 33.112 23.8567C33.112 25.3215 32.1289 26.1158 31.5234 26.3632L33.2943 29.8333H30.9115L29.4076 26.6627H28.1901V29.8333H26.0742V20.9465ZM28.1901 22.5611V25.1392H29.4987C30.332 25.1392 30.8919 24.7161 30.8919 23.8762C30.8919 22.9973 30.2865 22.5611 29.5182 22.5611H28.1901Z" fill="#E3455C"/>
<path id="Shape" opacity="0.5" d="M6.11109 18.3333H3.33331L6.11109 15.8333V18.3333ZM33.8889 18.3333V15.8333L36.6666 18.3333H33.8889Z" fill="#F7F7F9"/>
</g>
</svg>
