<?xml version="1.0" encoding="UTF-8"?>
<svg width="16px" height="15px" viewBox="0 0 16 15" version="1.1" xmlns="http://www.w3.org/2000/svg" xmlns:xlink="http://www.w3.org/1999/xlink">
    <g id="🗿" stroke="none" stroke-width="1" fill="none" fill-rule="evenodd">
        <g id="Icon-Guide" transform="translate(-70.000000, -1212.000000)">
            <g id="Stacked-Group-2" transform="translate(66.000000, 199.000000)">
                <g id="icon/share" transform="translate(0.000000, 1008.000000)">
                    <rect id="Bound" x="0" y="0" width="24" height="24"></rect>
                    <path d="M19.7362105,11.1424356 L14.6834737,15.8496064 C14.1508772,16.3458177 13.2631579,15.9779256 13.2631579,15.2456375 L13.2631579,12.7546118 C8.19035087,12.7881887 6.05031579,13.9700612 7.48157895,18.6860589 C7.63887719,19.2043548 7.0308421,19.6056854 6.60417544,19.2859432 C5.23691228,18.2613283 4,16.30151 4,14.3232764 C4,9.34084419 8.1262807,8.35212544 13.2631579,8.32401776 L13.2631579,5.83119204 C13.2631579,5.09824624 14.1514737,4.73153104 14.6834737,5.2272231 L19.7362105,9.93449775 C20.0877895,10.262063 20.0880702,10.8145935 19.7362105,11.1424356 Z" id="Mask" fill="#858199" fill-rule="evenodd"></path>
                </g>
            </g>
        </g>
    </g>
</svg>