<?xml version="1.0" encoding="UTF-8"?>
<svg width="24px" height="24px" viewBox="0 0 24 24" version="1.1" xmlns="http://www.w3.org/2000/svg" xmlns:xlink="http://www.w3.org/1999/xlink">
    <g id="Assets" stroke="none" stroke-width="1" fill="none" fill-rule="evenodd">
        <g id="assets" transform="translate(-625.000000, -1099.000000)">
            <g id="components/buttons/newplaylist/create-playlist-1" transform="translate(625.000000, 1099.000000)">
                <g id="components/buttons/create-playlist-1">
                    <circle id="Oval" fill="#D51B32" cx="12" cy="12" r="12"></circle>
                    <g id="icon/Remove">
                        <rect id="bound" x="0" y="0" width="24" height="24"></rect>
                        <path d="M14.0192471,12 L17.6871757,15.6679286 C18.0777,16.0584529 18.0777,16.6916179 17.6871757,17.0821422 L17.0821422,17.6871757 C16.6916179,18.0777 16.0584529,18.0777 15.6679286,17.6871757 L12,14.0192471 L8.33207137,17.6871757 C7.94154708,18.0777 7.3083821,18.0777 6.91785781,17.6871757 L6.31282426,17.0821422 C5.92229997,16.6916179 5.92229997,16.0584529 6.31282426,15.6679286 L9.98075289,12 L6.31282426,8.33207137 C5.92229997,7.94154708 5.92229997,7.3083821 6.31282426,6.91785781 L6.91785781,6.31282426 C7.3083821,5.92229997 7.94154708,5.92229997 8.33207137,6.31282426 L12,9.98075289 L15.6679286,6.31282426 C16.0584529,5.92229997 16.6916179,5.92229997 17.0821422,6.31282426 L17.6871757,6.91785781 C18.0777,7.3083821 18.0777,7.94154708 17.6871757,8.33207137 L14.0192471,12 Z" id="Combined-Shape" fill="#FFFFFF" fill-rule="evenodd"></path>
                    </g>
                </g>
            </g>
        </g>
    </g>
</svg>