<svg width="40" height="40" viewBox="0 0 40 40" fill="none" xmlns="http://www.w3.org/2000/svg">
<g id="OGV">
<path id="Document" fill-rule="evenodd" clip-rule="evenodd" d="M32.4271 36.6666H7.57326C6.76551 36.6666 6.11127 36.018 6.11127 35.2173V4.78253C6.11127 3.9818 6.76551 3.33325 7.57326 3.33325H25.1171L33.889 12.0289V35.2173C33.889 36.018 33.2348 36.6666 32.4271 36.6666Z" fill="#F7F7F9"/>
<path id="Intersect" d="M33.8728 12.0127H26.5792C25.7714 12.0127 25.1172 11.3641 25.1172 10.5634V3.33325L33.8728 12.0127Z" fill="#EAEAEA"/>
<path id="Mask" fill-rule="evenodd" clip-rule="evenodd" d="M3.33331 18.3333L6.11109 15.8333V18.3333H33.8889V15.8333L36.6666 18.3333V30.9258C36.6666 31.7955 36.0181 32.4999 35.2174 32.4999H4.78259C3.98186 32.4999 3.33331 31.7955 3.33331 30.9258V18.3333ZM15.4753 24.8984V25.9335C15.4753 28.4335 14.0234 29.996 11.5039 29.996C8.99089 29.996 7.53906 28.4335 7.53906 25.9335V24.8984C7.53906 22.3723 9.00391 20.7903 11.5169 20.7903C14.0299 20.7903 15.4753 22.3853 15.4753 24.8984ZM13.2747 25.94V24.8723C13.2747 23.3359 12.5586 22.5351 11.5104 22.5351C10.4557 22.5351 9.73958 23.3359 9.73958 24.8723V25.94C9.73958 27.483 10.4557 28.2447 11.5104 28.2447C12.5586 28.2447 13.2747 27.483 13.2747 25.94ZM20.4232 20.7903C22.806 20.7903 24.0495 22.2681 24.0885 23.8827H22.0052C21.9141 23.1275 21.3607 22.5481 20.4102 22.5481C19.2773 22.5481 18.6589 23.3684 18.6589 24.8137V25.8879C18.6589 27.2226 19.1276 28.2317 20.4688 28.2317C21.4844 28.2317 22.0703 27.5872 22.0703 26.8385V26.4609H20.5273V24.9504H24.0951V26.6757C24.0951 28.4075 22.9167 29.996 20.4167 29.996C17.6693 29.996 16.4844 28.2187 16.4844 25.8945V24.7942C16.4844 22.4309 17.8776 20.7903 20.4232 20.7903ZM30.1562 29.8333H27.4479L24.6224 20.9465H27.1224L28.8151 27.5221H28.9062L30.5729 20.9465H32.9427L30.1562 29.8333Z" fill="#BC26B0"/>
<path id="Shape" opacity="0.5" d="M6.11109 18.3333H3.33331L6.11109 15.8333V18.3333ZM33.8889 18.3333V15.8333L36.6666 18.3333H33.8889Z" fill="#F7F7F9"/>
</g>
</svg>
