<svg width="40" height="40" viewBox="0 0 40 40" fill="none" xmlns="http://www.w3.org/2000/svg">
<g id="MP3">
<path id="Document" fill-rule="evenodd" clip-rule="evenodd" d="M32.427 36.6666H7.57319C6.76545 36.6666 6.11121 36.018 6.11121 35.2173V4.78253C6.11121 3.9818 6.76545 3.33325 7.57319 3.33325H25.1171L33.889 12.0289V35.2173C33.889 36.018 33.2347 36.6666 32.427 36.6666Z" fill="#F7F7F9"/>
<path id="Intersect" d="M33.8728 12.0127H26.5792C25.7714 12.0127 25.1172 11.3641 25.1172 10.5634V3.33325L33.8728 12.0127Z" fill="#EAEAEA"/>
<path id="Mask" fill-rule="evenodd" clip-rule="evenodd" d="M3.33337 18.3333L6.11115 15.8333V18.3333H33.8889V15.8333L36.6667 18.3333V30.9258C36.6667 31.7955 36.0182 32.4999 35.2174 32.4999H4.78265C3.98192 32.4999 3.33337 31.7955 3.33337 30.9258V18.3333ZM9.49225 24.332V29.8333H7.57819V20.9465H9.80475L12.0834 25.9661H12.1485L14.4337 20.9465H16.6342V29.8333H14.7006V24.332H14.6094L12.7344 28.4921H11.4714L9.5899 24.332H9.49225ZM18.379 20.9465H22.1355C24.1797 20.9465 25.2475 22.3528 25.2475 24.0325C25.2475 25.7382 24.1602 27.0859 22.1094 27.0859H20.5274V29.8333H18.379V20.9465ZM21.3868 25.4648C22.4219 25.4648 23.0665 25.0741 23.0665 24.0325C23.0665 23.108 22.5131 22.6002 21.6342 22.6002H20.5209V25.4648H21.3868ZM29.336 26.0572H28.3529V24.4687H29.2904C30.0391 24.4687 30.5274 24.0195 30.5274 23.401C30.5209 22.828 30.0261 22.3918 29.31 22.3918C28.5222 22.3918 28.0925 22.9583 28.073 23.4921H26.0743C26.1329 21.9101 27.3178 20.7903 29.3946 20.7903C31.224 20.7903 32.6042 21.7408 32.6172 23.121C32.6303 24.384 31.6863 25.0155 31.0157 25.1067V25.1978C31.8751 25.2564 32.8712 25.927 32.8842 27.3333C32.8972 28.9869 31.2175 29.996 29.31 29.996C27.0313 29.996 25.9701 28.707 25.9506 27.2551H27.9167C27.9623 27.8931 28.5287 28.3619 29.362 28.3619C30.2214 28.3619 30.7488 27.8606 30.7422 27.1965C30.7422 26.565 30.2475 26.0572 29.336 26.0572Z" fill="#2336BD"/>
<path id="Shape" opacity="0.5" d="M6.11115 18.3333H3.33337L6.11115 15.8333V18.3333ZM33.8889 18.3333V15.8333L36.6667 18.3333H33.8889Z" fill="#F7F7F9"/>
</g>
</svg>
