<svg width="40" height="40" viewBox="0 0 40 40" fill="none" xmlns="http://www.w3.org/2000/svg">
<g id="TSA">
<path id="Document" fill-rule="evenodd" clip-rule="evenodd" d="M32.427 36.6666H7.57319C6.76545 36.6666 6.11121 36.018 6.11121 35.2173V4.78253C6.11121 3.9818 6.76545 3.33325 7.57319 3.33325H25.1171L33.889 12.0289V35.2173C33.889 36.018 33.2347 36.6666 32.427 36.6666Z" fill="#F7F7F9"/>
<path id="Intersect" d="M33.8728 12.0127H26.5792C25.7714 12.0127 25.1172 11.3641 25.1172 10.5634V3.33325L33.8728 12.0127Z" fill="#EAEAEA"/>
<path id="Mask" fill-rule="evenodd" clip-rule="evenodd" d="M3.33337 18.3333L6.11115 15.8333V18.3333H33.8889V15.8333L36.6667 18.3333V30.9258C36.6667 31.7955 36.0182 32.4999 35.2174 32.4999H4.78265C3.98192 32.4999 3.33337 31.7955 3.33337 30.9258V18.3333ZM12.7995 22.7043V29.8333H10.6511V22.7043H8.23574V20.9465H15.2214V22.7043H12.7995ZM19.2774 29.996C16.5626 29.996 15.7032 28.5181 15.6837 27.2291H17.7344C17.7735 27.8085 18.3204 28.3554 19.3555 28.3554C20.3386 28.3554 20.8074 27.9257 20.8074 27.3398C20.8074 26.7864 20.3581 26.5325 19.4922 26.3502L18.2357 26.0767C16.9206 25.8163 15.8725 25.1002 15.8725 23.5507C15.8725 21.7734 17.3568 20.7773 19.3425 20.7773C21.4909 20.7773 22.7605 21.9752 22.78 23.4921H20.7943C20.7553 22.9387 20.293 22.3984 19.336 22.3984C18.4962 22.3984 18.0144 22.7955 18.0144 23.3814C18.0144 23.8567 18.4376 24.1497 19.2058 24.2994L20.4949 24.5598C21.7709 24.8072 22.9297 25.4387 22.9297 27.1249C22.9297 28.8632 21.6016 29.996 19.2774 29.996ZM26.1654 27.7955L25.586 29.8333H23.4376L26.3021 20.9465H28.9324L31.7774 29.8333H29.4857L28.9128 27.7955H26.1654ZM28.5287 26.2395L27.6042 22.8736H27.5066L26.5626 26.2395H28.5287Z" fill="#8E1744"/>
<path id="Shape" opacity="0.5" d="M6.11115 18.3333H3.33337L6.11115 15.8333V18.3333ZM33.8889 18.3333V15.8333L36.6667 18.3333H33.8889Z" fill="#F7F7F9"/>
</g>
</svg>
