<svg width="40" height="40" viewBox="0 0 40 40" fill="none" xmlns="http://www.w3.org/2000/svg">
<g id="M4P">
<path id="Document" fill-rule="evenodd" clip-rule="evenodd" d="M32.4271 36.6666H7.57326C6.76551 36.6666 6.11127 36.018 6.11127 35.2173V4.78253C6.11127 3.9818 6.76551 3.33325 7.57326 3.33325H25.1171L33.889 12.0289V35.2173C33.889 36.018 33.2348 36.6666 32.4271 36.6666Z" fill="#F7F7F9"/>
<path id="Intersect" d="M33.8728 12.0127H26.5792C25.7714 12.0127 25.1172 11.3641 25.1172 10.5634V3.33325L33.8728 12.0127Z" fill="#EAEAEA"/>
<path id="Mask" fill-rule="evenodd" clip-rule="evenodd" d="M3.33331 18.3333L6.11109 15.8333V18.3333H33.8889V15.8333L36.6666 18.3333V30.9258C36.6666 31.7955 36.0181 32.4999 35.2174 32.4999H4.78259C3.98186 32.4999 3.33331 31.7955 3.33331 30.9258V18.3333ZM9.38151 24.332V29.8333H7.46745V20.9465H9.69401L11.9727 25.9661H12.0378L14.3229 20.9465H16.5234V29.8333H14.5898V24.332H14.4987L12.6237 28.4921H11.3607L9.47917 24.332H9.38151ZM17.7734 26.6106C18.763 24.6965 19.8958 22.7955 21.0156 20.9465H24.0625V26.6301H25.1042V28.3163H24.0625V29.8333H22.0573V28.3163H17.7734V26.6106ZM19.6484 26.6041V26.6301H22.0573V22.4895H21.9727C21.1589 23.8046 20.3581 25.1783 19.6484 26.6041ZM26.276 20.9465H30.0326C32.0768 20.9465 33.1445 22.3528 33.1445 24.0325C33.1445 25.7382 32.0573 27.0859 30.0065 27.0859H28.4245V29.8333H26.276V20.9465ZM29.2839 25.4648C30.319 25.4648 30.9635 25.0741 30.9635 24.0325C30.9635 23.108 30.4102 22.6002 29.5312 22.6002H28.418V25.4648H29.2839Z" fill="#CC5478"/>
<path id="Shape" opacity="0.5" d="M6.11109 18.3333H3.33331L6.11109 15.8333V18.3333ZM33.8889 18.3333V15.8333L36.6666 18.3333H33.8889Z" fill="#F7F7F9"/>
</g>
</svg>
