<?xml version="1.0" encoding="UTF-8"?>
<svg width="24px" height="24px" viewBox="0 0 24 24" version="1.1" xmlns="http://www.w3.org/2000/svg" xmlns:xlink="http://www.w3.org/1999/xlink">
    <g id="🗿" stroke="none" stroke-width="1" fill="none" fill-rule="evenodd">
        <g id="icon-upload-sheet" transform="translate(-112.000000, -1048.000000)">
            <g id="icon/rocket" transform="translate(112.000000, 1048.000000)">
                <rect id="Bound" x="0" y="0" width="24" height="24"></rect>
                <path d="M20.7601739,3.67145254 C20.7144615,3.45700958 20.5456772,3.28826758 20.3311805,3.24256662 C19.1989194,3 18.312802,3 17.4302009,3 C13.8013392,3 11.6247254,4.94053298 10.0001768,7.49978663 L6.33615171,7.49978663 C5.69617803,7.49978663 5.11246577,7.86187884 4.82764232,8.43138308 L3.0905709,11.9046559 C2.80926379,12.4671292 3.2171591,13.1245199 3.84658376,13.1245199 L7.19062206,13.1245199 C6.98315807,13.5744986 6.77217773,14.0209618 6.55768106,14.4498477 C6.44867455,14.6678061 6.49087062,14.92795 6.66317123,15.1002075 L8.89956277,17.336039 C9.07186337,17.5082964 9.33207245,17.5504819 9.55008547,17.4415027 C9.97907881,17.2270598 10.4256539,17.0196477 10.8757452,16.8122357 L10.8757452,20.1554365 C10.8757452,20.7811881 11.5368169,21.1889813 12.0959148,20.9112601 L15.5665413,19.1746237 C16.1397046,18.8898715 16.4983711,18.30279 16.4983711,17.666492 L16.4983711,13.9963536 C19.0512332,12.3686964 20.9992849,10.1855968 20.9992849,6.5752211 C21.0028013,5.6893256 21.0028013,4.80343011 20.7601739,3.67145254 Z M17.0645017,8.62473329 C16.1326719,8.62473329 15.376659,7.86890975 15.376659,6.9373133 C15.376659,6.00571685 16.1326719,5.24989331 17.0645017,5.24989331 C17.9963315,5.24989331 18.7523444,6.00571685 18.7523444,6.9373133 C18.7523444,7.86890975 17.9963315,8.62473329 17.0645017,8.62473329 Z" id="path-1"></path>
            </g>
        </g>
    </g>
</svg>