<?xml version="1.0" encoding="UTF-8"?>
<svg width="32px" height="32px" viewBox="0 0 32 32" version="1.1" xmlns="http://www.w3.org/2000/svg" xmlns:xlink="http://www.w3.org/1999/xlink">
    <g id="🗿" stroke="none" stroke-width="1" fill="none" fill-rule="evenodd">
        <g id="icon-upload-sheet" transform="translate(-289.000000, -144.000000)" fill="#858199">
            <g id="icon/social/instagram" transform="translate(289.000000, 144.000000)">
                <path d="M29.9016174,10.2269329 C30.0327942,12.5386589 30.0327942,19.4613411 29.9016174,21.7730671 C29.7891801,24.016066 29.276966,26.0029008 27.6403793,27.6398527 C26.0037925,29.2830525 24.017401,29.795381 21.7749024,29.9015954 C19.4636921,30.0328015 12.5363079,30.0328015 10.2250976,29.9015954 C7.982599,29.7891331 6.00245399,29.2768046 4.35962075,27.6398527 C2.71678751,26.0029008 2.20457334,24.016066 2.0983826,21.7730671 C1.9672058,19.4613411 1.9672058,12.532411 2.0983826,10.220685 C2.21081985,7.97768604 2.71678751,5.99085128 4.35962075,4.35389936 C6.00245399,2.71694745 7.98884551,2.20461899 10.2250976,2.09840455 C12.5363079,1.96719848 19.4636921,1.96719848 21.7749024,2.09840455 C24.017401,2.2108669 26.0037925,2.72319536 27.6403793,4.36014727 C29.2832125,5.99709919 29.7954267,7.98393395 29.9016174,10.2269329 Z M16,8.36363636 C11.7730833,8.36363636 8.36363636,11.7730833 8.36363636,16 C8.36363636,20.2269167 11.7730833,23.6363636 16,23.6363636 C20.2269167,23.6363636 23.6363636,20.2269167 23.6363636,16 C23.6363636,11.7730833 20.2269167,8.36363636 16,8.36363636 Z M16,21.0909091 C13.1989777,21.0909091 10.9090909,18.8078374 10.9090909,16 C10.9090909,13.1921626 13.1921626,10.9090909 16,10.9090909 C18.8078374,10.9090909 21.0909091,13.1921626 21.0909091,16 C21.0909091,18.8078374 18.8010223,21.0909091 16,21.0909091 Z M26.1818182,7.72727273 C26.1818182,6.67299864 25.3270014,5.81818182 24.2727273,5.81818182 C23.2184532,5.81818182 22.3636364,6.67299864 22.3636364,7.72727273 C22.3636364,8.78154681 23.2113297,9.63636364 24.2727273,9.63636364 C25.3270014,9.63636364 26.1818182,8.78867028 26.1818182,7.72727273 Z" id="Combined-Shape"></path>
            </g>
        </g>
    </g>
</svg>