<?xml version="1.0" encoding="UTF-8"?>
<svg width="97px" height="25px" viewBox="0 0 97 25" version="1.1" xmlns="http://www.w3.org/2000/svg" xmlns:xlink="http://www.w3.org/1999/xlink">
    <title>audiusLogoHorizontal</title>
    <g id="Assets" stroke="none" stroke-width="1" fill="none" fill-rule="evenodd">
        <g id="assets" transform="translate(-759.000000, -2239.000000)" fill="#858199">
            <g id="logos/audiusLogoHorizontal" transform="translate(759.000000, 2239.000000)">
                <path d="M9.42467757,1.32703271 C9.67975726,0.890661559 10.3167764,0.891075524 10.5712806,1.32775715 L10.5712806,1.32775715 L14.0820267,7.35183169 L17.1831595,12.6729414 L23.7950384,24.0181257 C24.0495426,24.4548073 23.7307453,25.0003101 23.2210568,25 L23.2210568,25 L16.5950533,24.995653 L9.98212817,24.9913581 L4.67881436,24.9878394 C4.16923044,24.9874772 3.85111322,24.4416639 4.1061929,24.0052928 L4.1061929,24.0052928 L6.66692928,19.6248156 C6.78531429,19.4222831 7.0039316,19.2975761 7.24044006,19.2977313 L7.24044006,19.2977313 L13.2583013,19.3017157 C13.7094513,19.3019745 14.0107759,18.8746071 13.8974653,18.4735265 C13.8828176,18.4215221 13.8614738,18.3699834 13.8322829,18.3198418 L13.8322829,18.3198418 L13.3222805,17.4447192 L10.5636429,12.7113367 C10.3251465,12.3020803 9.75074642,12.2760005 9.46951008,12.6334595 C9.45067729,12.6574695 9.43310002,12.6831353 9.41703983,12.7106123 L9.41703983,12.7106123 L9.01046081,13.4061257 L6.35168929,17.9543622 C6.23330428,18.156843 6.01463465,18.2815501 5.77817851,18.2813948 L5.77817851,18.2813948 L0.662564838,18.2780313 C0.152928601,18.2776691 -0.165188619,17.7318559 0.089891066,17.2954848 L0.089891066,17.2954848 L2.79762784,12.6635237 Z M89.9088429,8.99999996 C91.4945751,8.99999996 92.7339691,9.44197447 93.746748,10.284481 L92.4541373,12.1767066 C91.601295,11.5552468 90.6683698,11.2237065 89.8422217,11.2237065 C89.2158798,11.2237065 88.9092393,11.5000296 88.9092393,11.8452851 L88.9092393,11.8728343 C88.9092393,12.3148682 89.2291124,12.5082469 90.5218376,12.8121786 C92.6672906,13.2955363 94,14.0137745 94,15.8231745 L94,15.8507831 C94,17.8260125 92.4941215,19 90.228716,19 C88.5761335,19 87.0036338,18.4613064 85.8575553,17.3978126 L87.2968127,15.6160212 C88.2163335,16.3756426 89.2425741,16.776234 90.3219742,16.776234 C91.01488,16.776234 91.3880271,16.5276382 91.3880271,16.1132722 L91.3880271,16.0856043 C91.3880271,15.6850723 91.0815011,15.4641444 89.8155274,15.1602127 C87.830011,14.6905703 86.2974382,14.1104936 86.2974382,12.1215489 L86.2974382,12.0939403 C86.2974382,10.2983149 87.6700745,8.99999996 89.9088429,8.99999996 Z M76.8297561,8.99999996 L76.8297561,14.4557512 C76.8297561,15.8722907 77.5374695,16.5455328 78.6198864,16.5455328 C79.7020647,16.5455328 80.4098378,15.9003852 80.4098378,14.5258667 L80.4098378,8.99999996 L83.1434071,8.99999996 L83.1434071,14.4417642 C83.1434071,17.6114945 81.3533961,19 78.5920908,19 C75.8307259,19 74.0962464,17.5834001 74.0962464,14.5119401 L74.0962464,8.99999996 L76.8297561,8.99999996 Z M70.4773821,8.99999996 L70.4773821,19 L67.7632339,19 L67.7632339,8.99999996 L70.4773821,8.99999996 Z M45.1647532,8.99999996 L45.1647532,14.4557512 C45.1647532,15.8722907 45.8724666,16.5455328 46.9547045,16.5455328 C48.0370618,16.5455328 48.7447752,15.9003852 48.7447752,14.5258667 L48.7447752,8.99999996 L51.4783446,8.99999996 L51.4783446,14.4417642 C51.4783446,17.6114945 49.6882739,19 46.926909,19 C44.165723,19 42.4311838,17.5834001 42.4311838,14.5119401 L42.4311838,8.99999996 L45.1647532,8.99999996 Z M35.6212593,8.99999996 L39.7753502,18.7376295 L36.8758457,18.7376295 L36.1649314,17.0111146 L32.4011723,17.0111146 L31.7042198,18.7376295 L28.8604427,18.7376295 L33.0145336,8.99999996 L35.6212593,8.99999996 Z M58.8610279,8.99999996 C62.3460899,8.99999996 64.367318,10.9889446 64.367318,13.7790127 L64.367318,13.8066806 C64.367318,16.5967486 62.3181663,18.6685784 58.8053604,18.6685784 L55.0972089,18.6685784 L55.0972089,8.99999996 L58.8610279,8.99999996 Z M58.9027935,11.3757614 L57.8015475,11.3757614 L57.8015475,16.2928763 L58.9027935,16.2928763 C60.519788,16.2928763 61.5932902,15.4088679 61.5932902,13.8480638 L61.5932902,13.8204552 C61.5932902,12.2735444 60.519788,11.3757614 58.9027935,11.3757614 Z M34.2969238,12.1768254 L33.1957376,14.9255102 L35.3842679,14.9255102 L34.2969238,12.1768254 Z" id="Audius-Logo"></path>
            </g>
        </g>
    </g>
</svg>