<svg xmlns="http://www.w3.org/2000/svg" width="8131" height="579" viewBox="0 0 8131 579">
  <path fill="#C88DF7" fill-rule="evenodd" d="M4065.5,3375.50209 C4140.91135,3375.65785 4206.25413,3405.00533 4265.23868,3465.21015 C4318.08839,3519.14982 4361.12178,3592.35281 4402.73713,3663.14838 C4444.42648,3734.06803 4487.53388,3807.39909 4540.5896,3861.55289 C4600.21954,3922.41463 4666.32368,3952 4742.68215,3952 C4818.97463,3952 4885.03677,3930.33528 4944.6427,3885.7631 C4997.72042,3846.0758 5040.83782,3792.34225 5082.53517,3740.37573 C5124.13252,3688.53929 5167.14391,3634.93381 5219.95763,3595.44262 C5279.10754,3551.21465 5344.66567,3529.71202 5420.38012,3529.71202 C5496.16458,3529.71202 5561.77271,3546.89011 5620.95863,3582.22886 C5673.77634,3613.76338 5716.78573,3656.56451 5758.38108,3697.95882 C5841.84179,3781.01359 5928.14059,3866.89603 6098.03409,3866.89603 C6174.33257,3866.89603 6240.39671,3843.1781 6300.00264,3794.38745 C6353.06636,3750.95194 6396.17776,3692.1394 6437.86911,3635.26201 C6479.47246,3578.50468 6522.49185,3519.81821 6575.31757,3476.57882 C6634.46748,3428.16239 6700.02361,3404.62857 6775.73406,3404.62857 C6851.39652,3404.62857 6916.91864,3430.65986 6976.04456,3484.21531 C7028.86227,3532.0554 7071.87566,3596.98953 7113.47301,3659.78441 C7155.16036,3722.71336 7198.26376,3787.78357 7251.32348,3835.83979 C7310.93941,3889.8375 7377.02156,3916.08491 7453.34803,3916.08491 C7623.24554,3916.08491 7709.54834,3829.45004 7793.00904,3745.66684 C7834.60439,3703.91032 7877.61579,3660.73496 7930.4315,3628.92428 C7989.61542,3593.27935 8055.22154,3575.95118 8131,3575.95118 L8131,3573.44971 C7961.03449,3573.44971 7874.71569,3660.10259 7791.23899,3743.9018 C7749.65164,3785.64832 7706.64824,3828.81766 7653.84653,3860.62234 C7594.68061,3896.25927 7529.09649,3913.58344 7453.34803,3913.58344 C7377.66958,3913.58344 7312.13745,3887.54615 7253.00154,3833.9867 C7200.17582,3786.1406 7157.15843,3721.20247 7115.55708,3658.40159 C7073.87373,3595.47864 7030.77233,3530.41244 6977.72061,3482.36022 C6918.11468,3428.37051 6852.04454,3402.1271 6775.73406,3402.1271 C6699.42359,3402.1271 6633.34945,3425.84703 6573.73551,3474.64169 C6520.66179,3518.0832 6477.5484,3576.90174 6435.85304,3633.78114 C6394.2537,3690.53246 6351.2383,3749.21692 6298.41859,3792.45031 C6239.27667,3840.86074 6173.73055,3864.39456 6098.03409,3864.39456 C6022.28364,3864.39456 5956.69951,3847.22047 5897.53559,3811.89173 C5844.73388,3780.36321 5801.73049,3737.57008 5760.14314,3696.18378 C5676.66643,3613.111 5590.34563,3527.21056 5420.38012,3527.21056 C5344.10565,3527.21056 5278.05751,3548.87528 5218.46158,3593.43745 C5165.39386,3633.11875 5122.28046,3686.8503 5080.58511,3738.81081 C5038.98576,3790.65526 4995.96836,3844.26273 4943.14665,3883.75993 C4883.98673,3927.9959 4818.41461,3949.49853 4742.68215,3949.49853 C4667.0297,3949.49853 4601.50958,3920.1593 4542.37566,3859.80186 C4489.53395,3805.86819 4446.50455,3732.6672 4404.8912,3661.87964 C4363.19985,3590.95599 4320.08645,3517.61892 4267.02473,3463.45912 C4207.70136,3402.91043 4141.96793,3373.313 4066.10382,3373.00247 L4066.10382,3373 C4065.90248,3373 4065.7012,3373.00021 4065.5,3373.00062 C4065.2988,3373.00021 4065.09752,3373 4064.89618,3373 L4064.89618,3373.00247 C3989.03207,3373.313 3923.29864,3402.91043 3863.97527,3463.45912 C3810.91355,3517.61892 3767.80015,3590.95599 3726.1088,3661.87964 C3684.49545,3732.6672 3641.46605,3805.86819 3588.62434,3859.80186 C3529.49042,3920.1593 3463.9703,3949.49853 3388.31785,3949.49853 C3312.58539,3949.49853 3247.01327,3927.9959 3187.85335,3883.75993 C3135.03164,3844.26273 3092.01424,3790.65526 3050.41489,3738.81081 C3008.71954,3686.8503 2965.60614,3633.11875 2912.53842,3593.43745 C2852.94249,3548.87528 2786.89435,3527.21056 2710.61988,3527.21056 C2540.65437,3527.21056 2454.33357,3613.111 2370.85686,3696.18378 C2329.26951,3737.57008 2286.26612,3780.36321 2233.46441,3811.89173 C2174.30049,3847.22047 2108.71636,3864.39456 2032.96591,3864.39456 C1957.26945,3864.39456 1891.72333,3840.86074 1832.58141,3792.45031 C1779.7617,3749.21692 1736.7463,3690.53246 1695.14696,3633.78114 C1653.4516,3576.90174 1610.33821,3518.0832 1557.26449,3474.64169 C1497.65055,3425.84703 1431.57641,3402.1271 1355.26594,3402.1271 C1278.95546,3402.1271 1212.88532,3428.37051 1153.27939,3482.36022 C1100.22767,3530.41244 1057.12627,3595.47864 1015.44292,3658.40159 C973.841571,3721.20247 930.824177,3786.1406 877.998464,3833.9867 C818.862547,3887.54615 753.330422,3913.58344 677.651969,3913.58344 C601.903513,3913.58344 536.319387,3896.25927 477.153469,3860.62234 C424.351757,3828.81766 381.348363,3785.64832 339.761015,3743.9018 C256.284309,3660.10259 169.96551,3573.44971 0,3573.44971 L0,3575.95118 C75.7784567,3575.95118 141.384584,3593.27935 200.568502,3628.92428 C253.384214,3660.73496 296.395609,3703.91032 337.990957,3745.66684 C421.451663,3829.45004 507.754461,3916.08491 677.651969,3916.08491 C753.978443,3916.08491 820.060586,3889.8375 879.676518,3835.83979 C932.736239,3787.78357 975.839636,3722.71336 1017.52699,3659.78441 C1059.12434,3596.98953 1102.13773,3532.0554 1154.95544,3484.21531 C1214.08136,3430.65986 1279.60348,3404.62857 1355.26594,3404.62857 C1430.97639,3404.62857 1496.53252,3428.16239 1555.68243,3476.57882 C1608.50815,3519.81821 1651.52754,3578.50468 1693.13089,3635.26201 C1734.82224,3692.1394 1777.93364,3750.95194 1830.99736,3794.38745 C1890.60329,3843.1781 1956.66743,3866.89603 2032.96591,3866.89603 C2202.85941,3866.89603 2289.15821,3781.01359 2372.61892,3697.95882 C2414.21427,3656.56451 2457.22366,3613.76338 2510.04137,3582.22886 C2569.22729,3546.89011 2634.83542,3529.71202 2710.61988,3529.71202 C2786.33433,3529.71202 2851.89246,3551.21465 2911.04237,3595.44262 C2963.85609,3634.93381 3006.86748,3688.53929 3048.46483,3740.37573 C3090.16218,3792.34225 3133.27958,3846.0758 3186.3573,3885.7631 C3245.96323,3930.33528 3312.02537,3952 3388.31785,3952 C3464.67632,3952 3530.78046,3922.41463 3590.4104,3861.55289 C3643.46612,3807.39909 3686.57352,3734.06803 3728.26287,3663.14838 C3769.87822,3592.35281 3812.91161,3519.14982 3865.76132,3465.21015 C3924.74587,3405.00533 3990.08865,3375.65785 4065.5,3375.50209 Z" transform="translate(0 -3373)"/>
</svg>
