<?xml version="1.0" encoding="UTF-8"?>
<svg width="512px" height="512px" viewBox="0 0 512 512" version="1.1" xmlns="http://www.w3.org/2000/svg" xmlns:xlink="http://www.w3.org/1999/xlink">
    <!-- Generator: Sketch 64 (93537) - https://sketch.com -->
    <g id="Explore" stroke="none" stroke-width="1" fill="none" fill-rule="evenodd">
        <g id="icon/iconPlaylistalt" style="mix-blend-mode: overlay;" fill="#FFFFFF">
            <path d="M75.8518519,256 L265.481481,256 C272.027079,256 277.333333,250.030463 277.333333,242.666667 L277.333333,216 C277.333333,208.636203 272.027079,202.666667 265.481481,202.666667 L75.8518519,202.666667 C69.3062548,202.666667 64,208.636203 64,216 L64,242.666667 C64,250.030463 69.3062548,256 75.8518519,256 Z M75.8518519,160 L265.481481,160 C272.027079,160 277.333333,154.030463 277.333333,146.666667 L277.333333,120 C277.333333,112.636203 272.027079,106.666667 265.481481,106.666667 L75.8518519,106.666667 C69.3062548,106.666667 64,112.636203 64,120 L64,146.666667 C64,154.030463 69.3062548,160 75.8518519,160 Z M169.6,298.666667 L75.7333333,298.666667 C69.2531923,298.666667 64,304.636203 64,312 L64,338.666667 C64,346.030463 69.2531923,352 75.7333333,352 L169.6,352 C176.080141,352 181.333333,346.030463 181.333333,338.666667 L181.333333,312 C181.333333,304.636203 176.080141,298.666667 169.6,298.666667 Z M416.520667,64.98225 L342.514333,86.3656014 C332.297692,89.5052619 325.343106,98.7650542 325.333333,109.241512 L325.333333,333.995461 C313.486475,330.032847 301.0535,328.005651 288.533333,327.995222 C241.107333,327.995222 202.666667,354.861292 202.666667,387.997611 C202.666667,421.13393 241.107333,448 288.533333,448 C335.959333,448 374.4,421.13393 374.4,387.997611 L374.4,175.101634 L430.366667,159.058496 C440.819344,156.061499 448,146.681065 448,136.025079 L448,87.9856659 C447.995008,80.4201619 444.344046,73.2998161 438.148348,68.7723309 C431.95265,64.2448458 423.937562,62.8402647 416.520667,64.98225 Z" id="Shape"></path>
        </g>
    </g>
</svg>