<?xml version="1.0" encoding="UTF-8"?>
<svg width="24px" height="24px" viewBox="0 0 24 24" version="1.1" xmlns="http://www.w3.org/2000/svg" xmlns:xlink="http://www.w3.org/1999/xlink">
    <title>iconFollow</title>
    <g id="Assets" stroke="none" stroke-width="1" fill="none" fill-rule="evenodd">
        <g id="assets" transform="translate(-763.000000, -1855.000000)" fill="#858199">
            <g id="icon/Follow" transform="translate(763.000000, 1855.000000)">
                <path d="M5.44642163,12.9705279 C6.67021216,14.0203548 8.26105664,14.6544415 10,14.6544415 C11.4879455,14.6544415 12.8674596,14.1901916 14.0015947,13.3986395 C12.5931145,15.872222 12.6236857,19.5251164 14.3895271,21.6078396 L14.456,21.682 L14.4336829,21.6579763 C9.10098559,22.5532466 1,21.6909438 1,19.0710678 C1,16.4711885 2.78588984,14.1990272 5.44642163,12.9705279 Z M19.7692308,13 C20.0241154,13 20.2307692,13.2066538 20.2307692,13.4615385 L20.2307692,13.4615385 L20.2307692,15.7692308 L22.5384615,15.7692308 C22.7933462,15.7692308 23,15.9758846 23,16.2307692 L23,16.2307692 L23,17.7692308 C23,18.0241154 22.7933462,18.2307692 22.5384615,18.2307692 L22.5384615,18.2307692 L20.2307692,18.2307692 L20.2307692,20.5384615 C20.2307692,20.7933462 20.0241154,21 19.7692308,21 L19.7692308,21 L18.2307692,21 C17.9758846,21 17.7692308,20.7933462 17.7692308,20.5384615 L17.7692308,20.5384615 L17.7692308,18.2307692 L15.4615385,18.2307692 C15.2066538,18.2307692 15,18.0241154 15,17.7692308 L15,17.7692308 L15,16.2307692 C15,15.9758846 15.2066538,15.7692308 15.4615385,15.7692308 L15.4615385,15.7692308 L17.7692308,15.7692308 L17.7692308,13.4615385 C17.7692308,13.2066538 17.9758846,13 18.2307692,13 L18.2307692,13 Z M10,3 C12.7614237,3 15,5.23857625 15,8 C15,10.7614237 12.7614237,13 10,13 C7.23857625,13 5,10.7614237 5,8 C5,5.23857625 7.23857625,3 10,3 Z" id="Combined-Shape"></path>
            </g>
        </g>
    </g>
</svg>