<svg width="48" height="48" viewBox="0 0 48 48" fill="none" xmlns="http://www.w3.org/2000/svg">
<path fill-rule="evenodd" clip-rule="evenodd" d="M21.9785 6.02156C21.9785 4.88505 22.9045 4.00017 23.9999 4.00017V4C35.0311 4 44 12.9688 44 24C44 35.0312 35.0311 44 23.9999 44C22.8634 44 21.9785 43.074 21.9785 41.9786V6.02156ZM26.0213 8.16817V39.8326V39.833C33.8521 38.8642 39.9573 32.1273 39.9573 24.0006C39.9573 15.8739 33.8521 9.13693 26.0213 8.16817ZM13.6412 10.8209C13.8945 11.1581 14.3995 11.1992 14.7366 10.9476C15.5788 10.3588 16.4636 9.85216 17.4307 9.39001C17.809 9.22225 18.0195 8.75843 17.8518 8.33738L16.9669 6.10546C16.7991 5.68441 16.2925 5.47388 15.9143 5.64163C14.6511 6.18934 13.4307 6.90479 12.2925 7.70412C11.9142 7.9574 11.8715 8.50344 12.1248 8.84062L13.6412 10.8209ZM6.18902 16.926L8.42094 17.8109C8.84199 17.9786 9.26305 17.7681 9.47358 17.3898C9.89463 16.4638 10.3996 15.579 11.0311 14.7368C11.2844 14.3997 11.2417 13.8947 10.9045 13.6414L9.00975 12.125C8.67258 11.8306 8.12486 11.9144 7.87324 12.2516C7.03114 13.3881 6.35678 14.5674 5.76797 15.8733C5.55745 16.2533 5.76797 16.7582 6.18903 16.926L6.18902 16.926ZM8.04277 24.0001C8.04277 24.505 8.08389 25.0527 8.12665 25.5577V25.5576C8.16775 25.9787 7.87335 26.3997 7.45229 26.482L5.05263 26.8191C4.59048 26.8619 4.16941 26.5675 4.12664 26.1037C4.04276 25.3882 4 24.7139 4 23.9984C4 23.3257 4.04276 22.6103 4.12664 21.9359C4.16774 21.4738 4.58879 21.1366 5.05263 21.2205L7.45229 21.5577C7.87336 21.6432 8.16942 22.0215 8.12665 22.4425C8.08553 22.9475 8.04277 23.4952 8.04277 24.0001ZM8.421 30.2322C8.84206 30.0645 9.30587 30.275 9.47364 30.6533L9.47359 30.6533C9.89464 31.5793 10.4423 32.4641 10.9884 33.3063C11.2401 33.6434 11.1989 34.1484 10.8618 34.4017L8.96703 35.9181C8.62985 36.2125 8.08381 36.1698 7.83052 35.7915C6.98841 34.6533 6.31405 33.4329 5.72525 32.1698C5.5575 31.7915 5.76803 31.2849 6.18908 31.1171L8.421 30.2322ZM14.7366 37.0529C15.5787 37.6434 16.5047 38.1483 17.4307 38.5693L17.4307 38.5693C17.8518 38.737 18.0212 39.2009 17.8518 39.5775L16.9669 41.8094C16.7991 42.2305 16.3353 42.441 15.9142 42.2732C14.6511 41.7272 13.429 41.0101 12.2925 40.2108C11.9142 39.9591 11.8303 39.4114 12.1247 39.0743L13.6412 37.1795C13.8945 36.8423 14.3994 36.7996 14.7366 37.0529Z" fill="white"/>
</svg>