<?xml version="1.0" encoding="UTF-8"?>
<svg width="32px" height="32px" viewBox="0 0 32 32" version="1.1" xmlns="http://www.w3.org/2000/svg" xmlns:xlink="http://www.w3.org/1999/xlink">
    <title>iconTwitter</title>
    <g id="Assets" stroke="none" stroke-width="1" fill="none" fill-rule="evenodd">
        <g id="assets" transform="translate(-940.000000, -671.000000)" fill="#1BA1F1">
            <g id="icon/social/twitter" transform="translate(940.000000, 671.000000)">
                <path d="M28.5866667,0 C29.7866667,0 30.2133333,0.133333333 30.64,0.346666667 C31.0666667,0.586666667 31.4133333,0.933333333 31.6533333,1.36 C31.8933333,1.78666667 32,2.21333333 32,3.41333333 L32,28.5866667 C32,29.7866667 31.8666667,30.2133333 31.6533333,30.64 C31.4133333,31.0666667 31.0666667,31.4133333 30.64,31.6533333 C30.2133333,31.8933333 29.7866667,32 28.5866667,32 L3.41333333,32 C2.21333333,32 1.78666667,31.8666667 1.36,31.6533333 C0.933333333,31.44 0.586666667,31.0666667 0.346666667,30.64 C0.106666667,30.2133333 0,29.7866667 0,28.5866667 L0,3.41333333 C0,2.21333333 0.133333333,1.78666667 0.346666667,1.36 C0.586666667,0.933333333 0.933333333,0.586666667 1.36,0.346666667 C1.78666667,0.133333333 2.24,0 3.41333333,0 L28.5866667,0 Z M21.0266667,6 C18.08,6 15.688,8.25859247 15.688,11.0409165 C15.688,11.4337152 15.7226667,11.8265139 15.8266667,12.1865794 C11.3893333,11.99018 7.472,9.96072013 4.83733333,6.91653028 C4.38666667,7.66939444 4.10933333,8.52045827 4.10933333,9.43698854 C4.10933333,11.1718494 5.04533333,12.7430442 6.46666667,13.6268412 C5.6,13.594108 4.768,13.3649755 4.04,13.00491 L4.04,13.0703764 L4.04,13.0703764 C4.04,15.492635 5.87733333,17.5548282 8.304,18.0130933 C7.85333333,18.1440262 7.40266667,18.1767594 6.91733333,18.1767594 C6.57066667,18.1767594 6.224,18.1440262 5.912,18.0785597 C6.60533333,20.0752864 8.58133333,21.5482815 10.904,21.5810147 C9.06666667,22.9230769 6.77866667,23.7414075 4.28266667,23.7414075 C3.86666667,23.7414075 3.416,23.7086743 3,23.6759411 C5.32266667,25.1489362 8.13066667,26 11.1466667,26 C20.9573333,26 26.3306667,18.3076923 26.3306667,11.6628478 L26.3306667,11.0081833 L26.3306667,11.0081833 C27.3706667,10.2880524 28.272,9.40425532 29,8.38952537 C28.0293333,8.78232406 27.024,9.04418985 25.9493333,9.17512275 C27.0586667,8.55319149 27.8906667,7.57119476 28.3066667,6.39279869 C27.2666667,6.98199673 26.1226667,7.37479542 24.9093333,7.60392799 C23.9386667,6.62193126 22.552,6 21.0266667,6 Z" id="Combined-Shape"></path>
            </g>
        </g>
    </g>
</svg>