<?xml version="1.0" encoding="UTF-8"?>
<svg width="24px" height="24px" viewBox="0 0 24 24" version="1.1" xmlns="http://www.w3.org/2000/svg" xmlns:xlink="http://www.w3.org/1999/xlink">
    <title>iconFileFlac</title>
    <g id="Assets" stroke="none" stroke-width="1" fill="none" fill-rule="evenodd">
        <g id="assets" transform="translate(-1032.000000, -655.000000)">
            <g id="icon/Filetype" transform="translate(1032.000000, 655.000000)">
                <path d="M20.9473684,24 L3.05263158,24 C2.47105263,24 2,23.5330435 2,22.9565217 L2,1.04347826 C2,0.466956522 2.47105263,0 3.05263158,0 L15.6842105,0 L22,6.26086957 L22,22.9565217 C22,23.5330435 21.5289474,24 20.9473684,24 Z" id="Document" fill="#F2F2F4"></path>
                <path d="M2,9.082 L2,11 L22,11 L22,9.083 L24,11 L22.4347826,13 L1.56521739,13 L0,11 L2,9.082 Z" id="Combined-Shape" fill="#B989E2" fill-rule="nonzero"></path>
                <path d="M22.9565217,21 L1.04347826,21 C0.466956522,21 0,20.5027778 0,19.8888889 L0,11 L24,11 L24,19.8888889 C24,20.5027778 23.5330435,21 22.9565217,21 Z" id="Path" fill="#7E1BCC"></path>
                <path d="M16,0 L16,5 C16,5.5525 16.4475,6 17,6 L22,6 L16,0 Z" id="Corner" fill="#DAD9E0"></path>
                <path d="M2,11 L0,11 L2,9.08333333 L2,11 Z M22,11 L22,9.08333333 L24,11 L22,11 Z" id="Shape" fill="#F7F7F9" fill-rule="nonzero" opacity="0.5"></path>
                <path d="M4.0078125,14.3359375 L4.0078125,15.6953125 L6.23828125,15.6953125 L6.23828125,16.7148438 L4.0078125,16.7148438 L4.0078125,19 L2.73828125,19 L2.73828125,13.3125 L6.4921875,13.3125 L6.4921875,14.3359375 L4.0078125,14.3359375 Z M10.828125,17.9804688 L10.828125,19 L7.12109375,19 L7.12109375,13.3125 L8.390625,13.3125 L8.390625,17.9804688 L10.828125,17.9804688 Z M14.7734375,17.9023438 L12.7890625,17.9023438 L12.4335938,19 L11.0820312,19 L13.1875,13.3125 L14.3710938,13.3125 L16.484375,19 L15.1328125,19 L14.7734375,17.9023438 Z M14.4414062,16.8789062 L13.78125,14.8515625 L13.125,16.8789062 L14.4414062,16.8789062 Z M21.4960938,17.0820312 C21.4726561,17.4778666 21.3658864,17.8261704 21.1757812,18.1269531 C20.9856761,18.4277359 20.7194028,18.6614575 20.3769531,18.828125 C20.0345035,18.9947925 19.6341169,19.078125 19.1757812,19.078125 C18.6861955,19.078125 18.2630226,18.966798 17.90625,18.7441406 C17.5494774,18.5214833 17.2760426,18.2031271 17.0859375,17.7890625 C16.8958324,17.3749979 16.8007812,16.8854195 16.8007812,16.3203125 L16.8007812,15.9921875 C16.8007812,15.4322889 16.8984365,14.9440125 17.09375,14.5273438 C17.2890635,14.110675 17.5657534,13.7903657 17.9238281,13.5664062 C18.2819028,13.3424468 18.6992164,13.2304688 19.1757812,13.2304688 C19.6471378,13.2304688 20.0507796,13.3170564 20.3867188,13.4902344 C20.7226579,13.6634123 20.983723,13.9029933 21.1699219,14.2089844 C21.3561207,14.5149755 21.4674477,14.8671855 21.5039062,15.265625 L20.2382812,15.265625 C20.2174478,14.9270816 20.1263029,14.6764331 19.9648438,14.5136719 C19.8033846,14.3509106 19.5403664,14.2695312 19.1757812,14.2695312 C18.8033836,14.2695312 18.5286467,14.4062486 18.3515625,14.6796875 C18.1744783,14.9531264 18.0859375,15.3880179 18.0859375,15.984375 L18.0859375,16.3203125 C18.0859375,16.7265645 18.1217444,17.0546862 18.1933594,17.3046875 C18.2649743,17.5546888 18.3802075,17.7395827 18.5390625,17.859375 C18.6979175,17.9791673 18.9101549,18.0390625 19.1757812,18.0390625 C19.5169288,18.0390625 19.7727856,17.9609383 19.9433594,17.8046875 C20.1139331,17.6484367 20.2096353,17.4075537 20.2304688,17.0820312 L21.4960938,17.0820312 Z" id="FLAC" fill="#FFFFFF" fill-rule="nonzero"></path>
            </g>
        </g>
    </g>
</svg>