<?xml version="1.0" encoding="UTF-8"?>
<svg width="24px" height="24px" viewBox="0 0 24 24" version="1.1" xmlns="http://www.w3.org/2000/svg" xmlns:xlink="http://www.w3.org/1999/xlink">
    <g id="Assets" stroke="none" stroke-width="1" fill="none" fill-rule="evenodd">
        <g id="Group-8" fill="#D8D8D8">
            <g id="icon/airplay">
                <rect id="Rectangle" fill="none" x="0" y="0" width="24" height="24"></rect>
                <path d="M12.4519005,13.7553648 L17.9591741,20.1158798 C18.2970436,20.4678112 18.0858752,21 17.5959643,21 L6.40403566,21 C5.90567809,21 5.70295636,20.4678112 6.03237916,20.1158798 L11.5480995,13.7553648 C11.7846082,13.4806867 12.2153918,13.4806867 12.4519005,13.7553648 Z M11.9957766,3 C16.9624589,3 21,7.12875536 21,12.1416309 C21,14.639485 20.0032848,16.9141631 18.4068512,18.5536481 C18.1534491,18.8111588 17.8831534,18.8025751 17.6635382,18.5364807 L17.6635382,18.5364807 L17.1989676,17.9957082 C16.9793524,17.7381974 17.0046926,17.5236052 17.2243078,17.2746781 C18.4828719,15.9527897 19.2684186,14.1330472 19.2684186,12.1416309 C19.2684186,8.11587983 15.9826373,4.76824034 11.9957766,4.76824034 C8.008916,4.76824034 4.72313468,8.11587983 4.72313468,12.1416309 C4.72313468,14.1330472 5.51712811,15.9527897 6.7841389,17.2918455 C6.99530737,17.5236052 7.01220084,17.7381974 6.79258564,17.9957082 L6.79258564,17.9957082 L6.32801502,18.5193133 C6.11684655,18.8025751 5.83810418,18.8111588 5.59314876,18.5536481 C3.99671516,16.9141631 3,14.639485 3,12.1416309 C3,7.12875536 7.03754106,3 11.9957766,3 Z M11.9957766,5.49785408 C15.602534,5.49785408 18.5419991,8.50214592 18.5419991,12.1416309 C18.5419991,13.8841202 17.8831534,15.4635193 16.7935242,16.6566524 C16.540122,16.9399142 16.2698264,16.9141631 16.0333177,16.6566524 L16.0333177,16.6566524 L15.5071056,16.0703474 C15.3435007,15.8578392 15.3660253,15.6475918 15.5687471,15.4034335 C16.3374003,14.5364807 16.8019709,13.4034335 16.8019709,12.1416309 C16.8019709,9.472103 14.6396058,7.26609442 11.9957766,7.26609442 C9.36039418,7.26609442 7.19802909,9.472103 7.19802909,12.1416309 C7.19802909,13.4034335 7.66259972,14.5364807 8.42280619,15.4291845 L8.42280619,15.4291845 L8.49039169,15.5166464 C8.64815684,15.7466751 8.62646645,15.951836 8.43125293,16.1502146 L8.43125293,16.1502146 L7.96668231,16.6566524 C7.73862037,16.9141631 7.45987799,16.9399142 7.20647583,16.6566524 C6.11684655,15.4635193 5.45800094,13.8841202 5.45800094,12.1416309 C5.45800094,8.50214592 8.39746598,5.49785408 11.9957766,5.49785408 Z M11.9957766,7.99570815 C14.2426091,7.99570815 16.0755514,9.87553648 16.0755514,12.1416309 C16.0755514,13.1287554 15.7461286,14.0300429 15.1717504,14.7424893 C14.9436884,15.0429185 14.6733928,15.0515021 14.4199906,14.776824 L14.4199906,14.776824 L13.9300798,14.2703863 C13.7189113,14.0386266 13.7189113,13.8154506 13.8878461,13.5493562 C14.1834819,13.1630901 14.34397,12.6652361 14.34397,12.1416309 C14.34397,10.8454936 13.2796809,9.7639485 11.9957766,9.7639485 C10.7203191,9.7639485 9.65603003,10.8454936 9.65603003,12.1416309 C9.65603003,12.6652361 9.81651807,13.1630901 10.1206007,13.5665236 C10.2810887,13.8154506 10.2810887,14.0386266 10.0614735,14.2703863 L10.0614735,14.2703863 L9.58845612,14.7682403 C9.32660723,15.0515021 9.05631159,15.0343348 8.81980291,14.751073 C8.25387142,14.0300429 7.91600188,13.1287554 7.91600188,12.1416309 C7.91600188,9.87553648 9.74894416,7.99570815 11.9957766,7.99570815 Z" id="Combined-Shape" fill="#858199"></path>
            </g>
        </g>
    </g>
</svg>