<?xml version="1.0" encoding="UTF-8"?>
<svg width="32px" height="32px" viewBox="0 0 32 32" version="1.1" xmlns="http://www.w3.org/2000/svg" xmlns:xlink="http://www.w3.org/1999/xlink">
    <title>iconInstagram</title>
    <g id="Assets" stroke="none" stroke-width="1" fill="none" fill-rule="evenodd">
        <g id="assets" transform="translate(-940.000000, -615.000000)" fill="#858199">
            <g id="icon/social/instagram" transform="translate(940.000000, 615.000000)">
                <path d="M9.40011154,0.112462345 C12.0414947,-0.0374874484 19.9585053,-0.0374874484 22.5998885,0.112462345 C25.162744,0.24099074 27.4329057,0.826508981 29.3032906,2.69731117 C31.1808143,4.56811335 31.7662019,6.83878166 31.8875627,9.40220908 C32.0374791,12.0441816 32.0374791,19.9558184 31.8875627,22.5977909 C31.759063,25.1612183 31.1736754,27.4318866 29.3032906,29.3026888 C27.4329057,31.1806315 25.162744,31.7661497 22.5998885,31.8875377 C19.9585053,32.0374874 12.0414947,32.0374874 9.40011154,31.8875377 C6.837256,31.7590093 4.57423313,31.173491 2.69670943,29.3026888 C0.819185722,27.4318866 0.233798104,25.1612183 0.112437256,22.5977909 C-0.0374790853,19.9558184 -0.0374790853,12.0370412 0.112437256,9.39506862 C0.240936977,6.83164119 0.819185722,4.56097289 2.69670943,2.6901707 C4.57423313,0.819368515 6.84439487,0.233850273 9.40011154,0.112462345 Z M16,7 C11.0182768,7 7,11.0182768 7,16 C7,20.9817232 11.0182768,25 16,25 C20.9817232,25 25,20.9817232 25,16 C25,11.0182768 20.9817232,7 16,7 Z M16,10 C19.3092369,10 22,12.6907631 22,16 C22,19.3092369 19.3012048,22 16,22 C12.6987952,22 10,19.3092369 10,16 C10,12.6907631 12.6907631,10 16,10 Z M25,5 C23.8955224,5 23,5.89552239 23,7 C23,8.10447761 23.8880597,9 25,9 C26.1044776,9 27,8.1119403 27,7 C27,5.89552239 26.1044776,5 25,5 Z" id="Combined-Shape"></path>
            </g>
        </g>
    </g>
</svg>