<svg width="32" height="32" viewBox="0 0 32 32" fill="none" xmlns="http://www.w3.org/2000/svg">
<path d="M16.0003 2.66602C8.63651 2.66602 2.66699 8.63553 2.66699 15.9993C2.66699 23.3632 8.63651 29.3327 16.0003 29.3327C23.3641 29.3327 29.3337 23.3632 29.3337 15.9993C29.3337 8.63553 23.3641 2.66602 16.0003 2.66602ZM22.1805 11.7338C21.9799 13.8421 21.1117 18.9584 20.6698 21.3198C20.4829 22.3189 20.1148 22.654 19.7586 22.6867C18.9844 22.758 18.3963 22.175 17.6464 21.6834C16.4729 20.9142 15.8099 20.4353 14.6708 19.6847C13.3544 18.8172 14.2078 18.3406 14.958 17.561C15.1544 17.3571 18.5659 14.254 18.6319 13.9725C18.6402 13.9373 18.6481 13.8059 18.5699 13.7368C18.4917 13.6678 18.3769 13.6912 18.2938 13.7099C18.1762 13.7367 16.3015 14.9758 12.6697 17.4273C12.1377 17.7926 11.6557 17.9707 11.2238 17.9613C10.7477 17.9511 9.83199 17.6922 9.15119 17.4709C8.31619 17.1995 7.65253 17.056 7.71033 16.595C7.74043 16.3549 8.07108 16.1093 8.70226 15.8584C12.5892 14.165 15.1811 13.0485 16.478 12.509C20.1808 10.9688 20.9502 10.7013 21.4517 10.6924C21.562 10.6905 21.8086 10.7178 21.9683 10.8475C22.0746 10.9398 22.1423 11.0687 22.1581 11.2085C22.1852 11.3822 22.1927 11.5584 22.1805 11.7338Z" fill="white"/>
</svg>