<svg width="24" height="24" viewBox="0 0 24 24" fill="none" xmlns="http://www.w3.org/2000/svg">
<path d="M21.999 11.3745C21.999 6.87943 17.5498 3.23511 12.0166 3.23511C6.48335 3.23511 2 6.94869 2 11.4085C2 11.7837 2.33334 12.0489 2.70774 12.0252C3.10546 12 3.6547 12 6 12C9.5 12 10.5 15.5 10.5 17V18.5892C10.5 19.1109 10.9022 19.5274 11.4238 19.5198C11.6461 19.5166 11.8524 19.5127 11.9825 19.5127C13.4843 19.5127 14.9083 19.2333 16.1852 18.7539C17.1831 19.5221 19.0946 20.7649 21.6871 20.7649C21.8143 20.7649 21.9227 20.6958 21.9716 20.5784C22.0254 20.461 22.001 20.3247 21.9129 20.2366C21.8934 20.217 20.2588 18.4604 19.7697 16.489C21.1636 15.0912 21.999 13.3162 21.999 11.3745Z" fill="#FF0000"/>
<path d="M3.57143 15.5312V16.375H6.42857V15.5312C6.42857 14.7543 5.78929 14.125 5 14.125C4.21071 14.125 3.57143 14.7543 3.57143 15.5312ZM2.42857 16.375V15.5312C2.42857 14.1338 3.58036 13 5 13C6.41964 13 7.57143 14.1338 7.57143 15.5312V16.375H7.85714C8.4875 16.375 9 16.8795 9 17.5V20.875C9 21.4955 8.4875 22 7.85714 22H2.14286C1.5125 22 1 21.4955 1 20.875V17.5C1 16.8795 1.5125 16.375 2.14286 16.375H2.42857Z" fill="#FF0000"/>
</svg>
