<?xml version="1.0" encoding="UTF-8"?>
<svg width="24px" height="24px" viewBox="0 0 24 24" version="1.1" xmlns="http://www.w3.org/2000/svg" xmlns:xlink="http://www.w3.org/1999/xlink">
    <title>iconFeed</title>
    <g id="Assets" stroke="none" stroke-width="1" fill="none" fill-rule="evenodd">
        <g id="assets" transform="translate(-763.000000, -943.000000)">
            <g id="icon/Repost" transform="translate(763.000000, 943.000000)">
                <rect id="Bound" x="0" y="0" width="24" height="24"></rect>
                <path d="M19.1246663,6 C19.6080998,6 20,6.35698226 20,6.79734219 L20,6.79734219 L20,13 L21.5431524,13 C21.7674279,13 21.9539574,13.1749315 21.9926396,13.4056175 L22,13.4945055 C22,13.5905337 21.9741696,13.6844844 21.9256626,13.7648871 L21.9256626,13.7648871 L18.9091941,18.7648208 C18.7739973,18.9216069 18.637608,19 18.5000263,19 C18.3624446,19 18.2260553,18.9216069 18.0908585,18.7648208 L18.0908585,18.7648208 L15.07439,13.7648871 C14.9364341,13.5362188 14.9958543,13.2297927 15.2071089,13.080465 C15.2813887,13.0279596 15.3681848,13 15.4569002,13 L15.4569002,13 L17,13 L16.999,8.999 L9.71231767,9 C9.48958693,9 9.28163636,8.8563659 9.15833614,8.61735792 L8.03707583,6.44388121 C8.01289801,6.39701438 8,6.34199095 8,6.28571429 C8,6.12791864 8.09927474,6 8.22173634,6 Z M4.87533369,19 C4.39190024,19 4,18.6430177 4,18.2026578 L4,18.2026578 L3.999,12 L2.45684762,12 C2.23257209,12 2.04604259,11.8250685 2.00736043,11.5943825 L2,11.5054945 C2,11.4094663 2.02583036,11.3155156 2.07433742,11.2351129 L2.07433742,11.2351129 L5.09080593,6.23517923 C5.22600272,6.07839308 5.36239198,6 5.49997371,6 C5.63755544,6 5.7739447,6.07839308 5.9091415,6.23517923 L5.9091415,6.23517923 L8.92561,11.2351129 C9.06356593,11.4637812 9.00414566,11.7702073 8.79289111,11.919535 C8.71861133,11.9720404 8.63181521,12 8.54309981,12 L8.54309981,12 L6.999,12 L7,16 L14.2876823,16 C14.5104131,16 14.7183636,16.1436341 14.8416639,16.3826421 L15.9629242,18.5561188 C15.987102,18.6029856 16,18.658009 16,18.7142857 C16,18.8720814 15.9007253,19 15.7782637,19 Z" id="Combined-Shape" fill="#858199" fill-rule="evenodd"></path>
            </g>
        </g>
    </g>
</svg>