<?xml version="1.0" encoding="UTF-8"?>
<svg width="24px" height="24px" viewBox="0 0 24 24" version="1.1" xmlns="http://www.w3.org/2000/svg" xmlns:xlink="http://www.w3.org/1999/xlink">
    <title>iconKebabVertical</title>
    <g id="Assets" stroke="none" stroke-width="1" fill="none" fill-rule="evenodd">
        <g id="assets" transform="translate(-763.000000, -1231.000000)">
            <g id="icon/More" transform="translate(775.000000, 1243.000000) rotate(90.000000) translate(-775.000000, -1243.000000) translate(763.000000, 1231.000000)">
                <rect id="bound" x="0" y="0" width="24" height="24"></rect>
                <path d="M5.5,10 C6.88071187,10 8,11.1192881 8,12.5 C8,13.8807119 6.88071187,15 5.5,15 C4.11928813,15 3,13.8807119 3,12.5 C3,11.1192881 4.11928813,10 5.5,10 Z M12.5,10 C13.8807119,10 15,11.1192881 15,12.5 C15,13.8807119 13.8807119,15 12.5,15 C11.1192881,15 10,13.8807119 10,12.5 C10,11.1192881 11.1192881,10 12.5,10 Z M19.5,10 C20.8807119,10 22,11.1192881 22,12.5 C22,13.8807119 20.8807119,15 19.5,15 C18.1192881,15 17,13.8807119 17,12.5 C17,11.1192881 18.1192881,10 19.5,10 Z" id="Combined-Shape" fill="#858199" fill-rule="evenodd"></path>
            </g>
        </g>
    </g>
</svg>