<?xml version="1.0" encoding="UTF-8"?>
<svg width="512px" height="512px" viewBox="0 0 512 512" version="1.1" xmlns="http://www.w3.org/2000/svg" xmlns:xlink="http://www.w3.org/1999/xlink">
    <!-- Generator: Sketch 64 (93537) - https://sketch.com -->
    <g id="Explore" stroke="none" stroke-width="1" fill="none" fill-rule="evenodd">
        <g id="icon/iconQuestion" style="mix-blend-mode: overlay;" fill="#FFFFFF">
            <g id="question-circle" transform="translate(74.666667, 74.666667)">
                <path d="M181.333333,0 C281.473935,0 362.666667,81.2219785 362.666667,181.333333 C362.666667,281.503183 281.473935,362.666667 181.333333,362.666667 C81.1927312,362.666667 0,281.503183 0,181.333333 C0,81.2219785 81.1927312,0 181.333333,0 Z M181.333333,245.333333 C163.688116,245.333333 149.333333,259.688116 149.333333,277.333333 C149.333333,294.977855 163.688116,309.333333 181.333333,309.333333 C198.978551,309.333333 213.333333,294.977855 213.333333,277.333333 C213.333333,259.688116 198.978551,245.333333 181.333333,245.333333 Z M182.077868,64 C142.518989,64 117.288471,80.5455856 97.476003,109.951712 C94.9092526,113.761441 95.7679816,118.899459 99.446797,121.669189 L124.634487,140.631351 C128.41275,143.476036 133.795957,142.799279 136.73146,139.101982 C149.698776,122.771892 158.590214,113.302342 178.327189,113.302342 C193.156416,113.302342 211.498954,122.778378 211.498954,137.055856 C211.498954,147.849369 202.524764,153.392432 187.882818,161.543063 C170.806959,171.047207 148.211425,182.876396 148.211425,212.468468 L148.211425,215.351351 C148.211425,220.127568 152.111637,224 156.922117,224 L197.57201,224 C202.38249,224 206.282702,220.127568 206.282702,215.351351 L206.282702,214.390631 C206.282702,193.877477 266.666667,193.023423 266.666667,137.513514 C266.666667,95.7102703 222.993437,64 182.077868,64 Z" id="Combined-Shape"></path>
            </g>
        </g>
    </g>
</svg>