<?xml version="1.0" encoding="UTF-8"?>
<svg width="24px" height="24px" viewBox="0 0 24 24" version="1.1" xmlns="http://www.w3.org/2000/svg" xmlns:xlink="http://www.w3.org/1999/xlink">
    <g id="Assets" stroke="none" stroke-width="1" fill="none" fill-rule="evenodd">
        <g id="assets" transform="translate(-763.000000, -2757.000000)">
            <g id="icon/Camera" transform="translate(763.000000, 2757.000000)">
                <rect id="bound" x="0" y="0" width="24" height="24"></rect>
                <path d="M21.625,6.85714286 L18.1875,6.85714286 L15.85,3.51428571 C15.575,3.25714286 15.1625,3 14.75,3 L9.25,3 C8.8375,3 8.425,3.25714286 8.15,3.51428571 L5.8125,6.85714286 L2.375,6.85714286 C1.55,6.85714286 1,7.37142857 1,8.14285714 L1,19.7142857 C1,20.4857143 1.55,21 2.375,21 L21.625,21 C22.45,21 23,20.4857143 23,19.7142857 L23,8.14285714 C23,7.37142857 22.45,6.85714286 21.625,6.85714286 Z M12,17.4 C9.73333333,17.4 8,15.645 8,13.35 C8,11.055 9.73333333,9.3 12,9.3 C14.2666667,9.3 16,11.055 16,13.35 C16,15.645 14.2666667,17.4 12,17.4 Z" id="Fill" fill="#858199" fill-rule="nonzero"></path>
            </g>
        </g>
    </g>
</svg>