<svg width="48" height="48" viewBox="0 0 48 48" fill="none" xmlns="http://www.w3.org/2000/svg">
<path d="M23.9998 4C18.4949 4 14.0008 8.49424 14.0008 13.999V19.9988C10.5472 19.9988 8.00098 22.5 8.00098 25.6631V38.3304C8.00098 41.4372 10.564 44 13.6691 44H34.331C37.4359 44 39.9992 41.437 39.9992 38.3319V25.6627C39.9992 21.6447 37.228 20.0003 33.9993 20.0003V14.0005C33.9993 8.49554 29.5051 4.00144 24.0003 4.00144L23.9998 4ZM23.9998 7.99923C27.3578 7.99923 29.9996 10.641 29.9996 13.999V19.9988H18V13.999C18 10.641 20.6418 7.99923 23.9998 7.99923Z" fill="#858199"/>
</svg>
