<?xml version="1.0" encoding="UTF-8"?>
<svg width="512px" height="512px" viewBox="0 0 512 512" version="1.1" xmlns="http://www.w3.org/2000/svg" xmlns:xlink="http://www.w3.org/1999/xlink">
    <!-- Generator: Sketch 64 (93537) - https://sketch.com -->
    <g id="Explore" stroke="none" stroke-width="1" fill="none" fill-rule="evenodd">
        <g id="icon/iconRadar" style="mix-blend-mode: overlay;" fill="#FFFFFF">
            <path d="M490.666667,256.000041 C490.666667,385.603012 385.602994,490.666667 256,490.666667 C126.397006,490.666667 21.3333333,385.603012 21.3333333,256.000041 C21.3333333,126.397071 126.397006,21.3333333 256,21.3333333 C302.977657,21.2938978 348.871246,35.4485419 387.665486,61.9420969 L416.27071,33.3369449 C422.183131,27.4247866 431.768783,27.4247866 437.681204,33.3369449 L448.383651,44.0393895 C454.29581,49.9518101 454.29581,59.5374598 448.383651,65.4498804 L257.837156,255.996341 L257.831488,256.000041 L316.55914,256.000041 C316.653912,289.203036 289.995722,316.290922 256.795451,316.727047 C223.59518,317.163172 196.234649,290.784885 195.457218,257.590858 C194.679786,224.396831 220.775391,196.766557 253.959677,195.647901 L280.581825,169.025777 C272.614957,166.568255 264.336623,165.266845 256,165.161348 C205.831166,165.161348 165.16129,205.831216 165.16129,256.000041 C165.16129,306.168866 205.831166,346.838735 256,346.838735 C306.168834,346.838735 346.83871,306.168866 346.83871,256.000041 L407.397849,256.000041 C407.397849,331.262794 352.044903,393.370648 280.003363,404.971288 C274.494118,397.456837 266.031584,392.258082 256,392.258082 C245.968416,392.258082 237.505882,397.456837 231.996637,404.971288 C167.770114,394.584141 117.415876,344.229912 107.028727,280.0034 C114.543179,274.494156 119.741935,266.031623 119.741935,256.000041 C119.741935,245.968459 114.543179,237.505927 107.028727,231.996683 C118.629369,159.955202 180.737234,104.602218 256,104.602218 C281.655577,104.602218 305.407591,111.684211 326.524194,123.083398 L349.222781,100.384843 C321.111441,83.3476767 288.871149,74.3342942 256,74.3226539 C164.915486,74.3226539 89.7100146,141.422273 76.5698925,228.843795 C65.971646,233.727073 59.1827927,244.329963 59.1827927,255.999119 C59.1827927,267.668274 65.971646,278.271164 76.5698925,283.154443 C88.4762298,361.797234 150.202788,423.523782 228.845594,435.430117 C233.728452,446.028303 244.331072,452.81721 256,452.81721 C267.668928,452.81721 278.271548,446.028303 283.154406,435.430117 C370.575943,422.291843 437.677419,347.084539 437.677419,256.000041 L490.666667,256.000041 Z" id="Path"></path>
        </g>
    </g>
</svg>