<?xml version="1.0" encoding="UTF-8"?>
<svg width="24px" height="24px" viewBox="0 0 24 24" version="1.1" xmlns="http://www.w3.org/2000/svg" xmlns:xlink="http://www.w3.org/1999/xlink">
    <title>iconVolume3</title>
    <g id="Assets" stroke="none" stroke-width="1" fill="none" fill-rule="evenodd">
        <g id="assets" transform="translate(-762.000000, -2423.000000)">
            <g id="icon/Volume3" transform="translate(762.000000, 2423.000000)">
                <rect id="Bound" x="0" y="0" width="24" height="24"></rect>
                <path d="M12.998,4.4984 L13,19.5014 C13,20.7374 11.458,21.4384 10.401,20.6954 L4.364,16.3694 L1.412,16.3694 C0.663,16.3694 0.002,15.7934 0.002,15.0514 L0,8.9504 C0,8.2504 0.616,7.6314 1.41,7.6314 L4.362,7.6314 L10.399,3.3044 C11.456,2.5624 12.998,3.2624 12.998,4.4984 Z M20.4585,4.199 C20.6015,4.319 23.9385,7.19 23.9385,12 C23.9385,16.81 20.6015,19.681 20.4585,19.801 C20.3005,19.935 20.1075,20 19.9155,20 C19.6755,20 19.4365,19.898 19.2705,19.701 C18.9695,19.345 19.0145,18.813 19.3715,18.512 C19.3975,18.489 22.2525,16.005 22.2525,12 C22.2525,7.966 19.3995,5.512 19.3715,5.488 C19.0145,5.187 18.9695,4.655 19.2705,4.299 C19.5695,3.943 20.1025,3.898 20.4585,4.199 Z M18.0488,6.1946 C19.6498,7.5606 20.6438,9.6786 20.6438,12.0016 C20.6748,14.3556 19.6498,16.4406 18.0488,17.8066 C17.6958,18.1136 17.1518,18.0456 16.8638,17.6706 C16.5768,17.2936 16.6078,16.7136 16.9608,16.4066 C18.1778,15.3816 18.9458,13.7766 18.9458,12.0006 C18.9458,10.2236 18.1778,8.6526 16.9608,7.5946 C16.6078,7.2866 16.5438,6.7056 16.8638,6.3306 C17.1518,5.9536 17.6968,5.8866 18.0488,6.1946 Z M15.8889,8.6982 C16.7789,9.4622 17.3189,10.6452 17.3189,12.0012 C17.3189,13.3552 16.7469,14.5382 15.8569,15.3032 C15.5059,15.6152 14.9659,15.5462 14.6809,15.1642 L14.6179,15.0952 C14.3319,14.7472 14.3959,14.1912 14.7439,13.9132 C15.2839,13.4962 15.6019,12.8012 15.6019,12.0012 C15.6019,11.2702 15.2839,10.6102 14.8079,10.1582 C14.4259,9.8102 14.3629,9.2532 14.6809,8.8362 C14.9659,8.4532 15.5079,8.3842 15.8889,8.6982 Z" id="Combined-Shape" fill="#858199" fill-rule="evenodd"></path>
            </g>
        </g>
    </g>
</svg>