<svg width="24" height="24" viewBox="0 0 24 24" fill="none" xmlns="http://www.w3.org/2000/svg">
<path fill-rule="evenodd" clip-rule="evenodd" d="M12.8542 17.3244C11.4421 18.7365 9.52688 19.5298 7.52984 19.5298C5.5328 19.5298 3.61756 18.7365 2.20544 17.3244C0.79332 15.9123 0 13.997 0 12C0 10.003 0.79332 8.08771 2.20544 6.67559C3.61756 5.26348 5.5328 4.47015 7.52984 4.47015C9.52688 4.47015 11.4421 5.26348 12.8542 6.67559C13.7831 7.60442 14.4442 8.75093 14.7879 9.9952L18.6532 9.9173L17.2951 8.85998C16.6755 8.24031 16.6959 7.2186 17.3409 6.57363C17.9858 5.92866 19.0076 5.90822 19.6272 6.52789L23.5483 10.449C24.168 11.0686 24.1476 12.0904 23.5026 12.7353L19.4214 16.8165C18.7765 17.4615 17.7547 17.4819 17.135 16.8622C16.5154 16.2425 16.5358 15.2208 17.1808 14.5759L18.5925 12.9481L14.9944 12.9893C14.7782 14.6212 14.0311 16.1475 12.8542 17.3244ZM6.28109 10.4888V10.4835L6.27586 10.4888C6.27063 10.3842 6.29678 10.3371 6.31769 10.3005C6.34907 10.2535 6.41182 10.1907 6.53731 10.1227C6.80399 9.98156 7.19094 9.90835 7.51515 9.91358C7.94393 9.91881 8.40932 10.0077 8.89562 10.128C9.34532 10.2378 9.80024 9.96587 9.91006 9.51617C10.0199 9.06647 9.74795 8.61155 9.29825 8.50174C9.00543 8.42853 8.69168 8.35532 8.36225 8.30826V7.81673C8.36225 7.35657 7.98576 6.98008 7.5256 6.98008C7.06545 6.98008 6.68896 7.35657 6.68896 7.81673V8.32395C6.37521 8.3867 6.04578 8.49128 5.74773 8.65338C5.1307 8.98281 4.54504 9.61552 4.60779 10.5986C4.66008 11.4352 5.21959 11.9268 5.73727 12.2039C6.19742 12.4497 6.76739 12.6118 7.23278 12.7425L7.3269 12.7686C7.86549 12.9203 8.2629 13.0406 8.54004 13.2027C8.77535 13.3386 8.78581 13.4223 8.78581 13.4955C8.79103 13.621 8.75966 13.689 8.73352 13.7308C8.70214 13.7779 8.63939 13.8406 8.52435 13.9033C8.27859 14.0341 7.90733 14.1021 7.55698 14.0916C7.07048 14.0762 6.60907 13.9305 6.03029 13.7476L5.99349 13.736C5.89431 13.7047 5.79461 13.6732 5.69021 13.6419C5.25097 13.5007 4.78558 13.7517 4.64439 14.1909C4.50321 14.6302 4.7542 15.1008 5.19344 15.2368L5.25342 15.2553C5.31902 15.2755 5.38696 15.2964 5.4549 15.3204C5.82093 15.4407 6.24449 15.5766 6.69419 15.6655V16.2617C6.69419 16.7218 7.07068 17.0983 7.53083 17.0983C7.99099 17.0983 8.36748 16.7218 8.36748 16.2617V15.6969C8.69168 15.6394 9.02111 15.5348 9.3244 15.3727C9.95189 15.0328 10.4852 14.3949 10.4591 13.4432C10.433 12.5961 9.92051 12.068 9.38715 11.7542C8.89562 11.4666 8.27859 11.2888 7.79228 11.1529H7.78183L7.69841 11.1288C7.19555 10.984 6.80975 10.8728 6.53208 10.7241C6.28109 10.5881 6.28109 10.5097 6.28109 10.4888Z" fill="#FF0000"/>
</svg>
