<?xml version="1.0" encoding="UTF-8"?>
<svg width="24px" height="24px" viewBox="0 0 24 24" version="1.1" xmlns="http://www.w3.org/2000/svg" xmlns:xlink="http://www.w3.org/1999/xlink">
    <g id="🗿" stroke="none" stroke-width="1" fill="none" fill-rule="evenodd">
        <g id="Icon-Guide" transform="translate(-66.000000, -1495.000000)" fill="#858199">
            <g id="Stacked-Group-2" transform="translate(66.000000, 199.000000)">
                <g id="icon/playbar/stop" transform="translate(0.000000, 1296.000000)">
                    <path d="M12,24 C5.372583,24 0,18.627417 0,12 C0,5.372583 5.372583,0 12,0 C18.627417,0 24,5.372583 24,12 C24,18.627417 18.627417,24 12,24 Z M9.25,8.25 C8.69771525,8.25 8.25,8.69771525 8.25,9.25 L8.25,14.75 C8.25,15.3022847 8.69771525,15.75 9.25,15.75 L14.75,15.75 C15.3022847,15.75 15.75,15.3022847 15.75,14.75 L15.75,9.25 C15.75,8.69771525 15.3022847,8.25 14.75,8.25 L9.25,8.25 Z" id="Combined-Shape"></path>
                </g>
            </g>
        </g>
    </g>
</svg>