<?xml version="1.0" encoding="UTF-8"?>
<svg width="24px" height="24px" viewBox="0 0 24 24" version="1.1" xmlns="http://www.w3.org/2000/svg" xmlns:xlink="http://www.w3.org/1999/xlink">
    <title>iconSpeaker</title>
    <g id="Assets" stroke="none" stroke-width="1" fill="none" fill-rule="evenodd">
        <g id="assets" transform="translate(-763.000000, -1711.000000)">
            <g id="icon/Speaker" transform="translate(763.000000, 1711.000000)">
                <rect id="Bound" x="0" y="0" width="24" height="24"></rect>
                <path d="M14.3980933,3.6652648 L14.4,20.3347321 C14.4,21.7086421 12.6915084,22.4868247 11.5207523,21.6621123 L4.83371619,16.8552591 L1.56356563,16.8552591 C0.734117364,16.8552591 0.00190667663,16.2148338 0.00190667663,15.3901214 L0,8.6117073 C0,7.83352466 0.682615617,7.14656964 1.56165895,7.14656964 L4.83180951,7.14656964 L11.5188456,2.33788452 C12.6896017,1.51317212 14.3980933,2.29137308 14.3980933,3.6652648 Z M20.4856128,4.13817996 C22.6539772,5.98865139 23.999057,8.8564195 23.999057,12.0026835 C24.0414078,15.1903982 22.6539772,18.0130148 20.4856128,19.8634862 C20.0078787,20.2787875 19.2709817,20.1866248 18.88137,19.6788276 C18.491741,19.1692078 18.5340935,18.3831275 19.0118102,17.9675117 C20.6601141,16.5796581 21.7002351,14.4057243 21.7002351,12.0006665 C21.7002351,9.59542377 20.6601141,7.46664143 19.0118102,6.0338214 C18.5340761,5.61818701 18.4476885,4.83027478 18.88137,4.32250542 C19.2709991,3.81288559 20.0096134,3.72073211 20.4856128,4.13817996 Z M17.6530053,7.6511152 C18.82555,8.65828285 19.5369139,10.21648 19.5369139,12.0018303 C19.5369139,13.7853945 18.7830155,15.3435917 17.6104708,16.3507593 C17.1492984,16.7622179 16.4379345,16.6709811 16.0618226,16.1682858 L15.9784199,16.077049 C15.6022912,15.619079 15.6856939,14.8855942 16.1452253,14.5206837 C16.8565892,13.9714861 17.2752356,13.055546 17.2752356,12.0018486 C17.2752356,11.0393789 16.8565892,10.1699686 16.2286197,9.57424119 C15.7265789,9.11627118 15.6431846,8.38278641 16.0618142,7.83358877 C16.4379428,7.32908901 17.1509646,7.23786138 17.6530053,7.6511152 Z" id="Combined-Shape" fill="#858199" fill-rule="evenodd"></path>
            </g>
        </g>
    </g>
</svg>