<svg width="24" height="24" viewBox="0 0 14 15" fill="none" xmlns="http://www.w3.org/2000/svg">
  <title>iconAtSign</title>
  <path d="M5.67021 0.99029C3.06937 1.50016 0.975057 3.59698 0.465743 6.19754C-0.303517 10.119 2.37637 13.6063 6.00697 14.1323C6.53605 14.2127 7.01364 13.7911 7.01364 13.2559L7.01364 13.2374C7.01364 12.7993 6.69525 12.4336 6.26664 12.368C3.91907 12.0067 2.1142 9.97084 2.1142 7.51973C2.1142 4.65588 4.58034 2.357 7.49679 2.6381C10.0445 2.88494 11.9108 5.17772 11.9108 7.73681V8.18657C11.9108 8.80136 11.4116 9.30121 10.7976 9.30121C10.1836 9.30121 9.68406 8.80136 9.68406 8.18657V4.84402C9.68406 4.59779 9.48476 4.39816 9.23848 4.39816L8.34843 4.39826C8.14529 4.39826 7.98106 4.53719 7.92762 4.72333C7.23601 4.38518 6.41805 4.26745 5.53245 4.58122C4.45398 4.96335 3.63658 5.94246 3.48072 7.07603C3.2168 8.99667 4.70001 10.6384 6.56722 10.6384C7.30308 10.6384 7.97076 10.3728 8.50401 9.946C9.17196 10.8171 10.3195 11.3011 11.5488 10.9894C12.834 10.6915 13.6912 9.4335 13.6662 8.12821V7.54653C13.6662 3.39409 9.93955 0.153623 5.67021 0.99029ZM6.54134 8.88244C5.80464 8.88244 5.20543 8.28239 5.20543 7.54514C5.20543 6.80789 5.80464 6.20784 6.54134 6.20784C7.27803 6.20784 7.87724 6.80789 7.87724 7.54514C7.87724 8.28239 7.30392 8.88244 6.54134 8.88244Z" fill="currentColor"/>
</svg>
