<?xml version="1.0" encoding="UTF-8"?>
<svg width="24px" height="24px" viewBox="0 0 24 24" version="1.1" xmlns="http://www.w3.org/2000/svg" xmlns:xlink="http://www.w3.org/1999/xlink">
    <title>iconCalendar</title>
    <g id="Assets" stroke="none" stroke-width="1" fill="none" fill-rule="evenodd">
        <g id="assets" transform="translate(-763.000000, -1999.000000)">
            <g id="icon/Calendar" transform="translate(763.000000, 1999.000000)">
                <path d="M21.4642857,8 L2.53571429,8 C2.24107143,8 2,7.73 2,7.4 L2,5.6 C2,4.275 2.95982143,3.2 4.14285714,3.2 L6.28571429,3.2 L6.28571429,0.6 C6.28571429,0.27 6.52678571,0 6.82142857,0 L8.60714286,0 C8.90178571,0 9.14285714,0.27 9.14285714,0.6 L9.14285714,3.2 L14.8571429,3.2 L14.8571429,0.6 C14.8571429,0.27 15.0982143,0 15.3928571,0 L17.1785714,0 C17.4732143,0 17.7142857,0.27 17.7142857,0.6 L17.7142857,3.2 L19.8571429,3.2 C21.0401786,3.2 22,4.275 22,5.6 L22,7.4 C22,7.73 21.7589286,8 21.4642857,8 Z M2.53571429,9 L21.4642857,9 C21.7589286,9 22,9.253125 22,9.5625 L22,21.75 C22,22.9921875 21.0401786,24 19.8571429,24 L4.14285714,24 C2.95982143,24 2,22.9921875 2,21.75 L2,9.5625 C2,9.253125 2.24107143,9 2.53571429,9 Z M8,18.5625 C8,18.253125 7.746875,18 7.4375,18 L5.5625,18 C5.253125,18 5,18.253125 5,18.5625 L5,20.4375 C5,20.746875 5.253125,21 5.5625,21 L7.4375,21 C7.746875,21 8,20.746875 8,20.4375 L8,18.5625 Z M8,12.5625 C8,12.253125 7.746875,12 7.4375,12 L5.5625,12 C5.253125,12 5,12.253125 5,12.5625 L5,14.4375 C5,14.746875 5.253125,15 5.5625,15 L7.4375,15 C7.746875,15 8,14.746875 8,14.4375 L8,12.5625 Z M14,18.5625 C14,18.253125 13.746875,18 13.4375,18 L11.5625,18 C11.253125,18 11,18.253125 11,18.5625 L11,20.4375 C11,20.746875 11.253125,21 11.5625,21 L13.4375,21 C13.746875,21 14,20.746875 14,20.4375 L14,18.5625 Z M14,12.5625 C14,12.253125 13.746875,12 13.4375,12 L11.5625,12 C11.253125,12 11,12.253125 11,12.5625 L11,14.4375 C11,14.746875 11.253125,15 11.5625,15 L13.4375,15 C13.746875,15 14,14.746875 14,14.4375 L14,12.5625 Z M19,18.5625 C19,18.253125 18.746875,18 18.4375,18 L16.5625,18 C16.253125,18 16,18.253125 16,18.5625 L16,20.4375 C16,20.746875 16.253125,21 16.5625,21 L18.4375,21 C18.746875,21 19,20.746875 19,20.4375 L19,18.5625 Z M19,12.5625 C19,12.253125 18.746875,12 18.4375,12 L16.5625,12 C16.253125,12 16,12.253125 16,12.5625 L16,14.4375 C16,14.746875 16.253125,15 16.5625,15 L18.4375,15 C18.746875,15 19,14.746875 19,14.4375 L19,12.5625 Z" id="Mask" fill="#858199" fill-rule="evenodd"></path>
                <rect id="Rectangle" x="0" y="0" width="24" height="24"></rect>
            </g>
        </g>
    </g>
</svg>