<svg width="24" height="24" viewBox="0 0 24 24" fill="none" xmlns="http://www.w3.org/2000/svg">
<path fill-rule="evenodd" clip-rule="evenodd" d="M21.999 11.3747C21.999 6.87968 17.5498 3.23535 12.0166 3.23535C6.48335 3.23535 2 6.94894 2 11.4088C2 15.8686 6.44926 19.5129 11.9825 19.5129C13.4843 19.5129 14.9083 19.2335 16.1852 18.7542C17.1831 19.5223 19.0946 20.7651 21.6871 20.7651C21.8143 20.7651 21.9227 20.696 21.9716 20.5786C22.0254 20.4612 22.001 20.3249 21.9129 20.2369C21.8934 20.2173 20.2588 18.4607 19.7697 16.4892C21.1636 15.0914 21.999 13.3164 21.999 11.3747ZM15.8263 8.42952C16.1049 8.04446 16.0417 7.48844 15.6851 7.1876C15.3285 6.88676 14.8136 6.95503 14.535 7.34009L10.6166 12.7559L9.42818 11.3315C9.1254 10.9684 8.60736 10.939 8.27109 11.266C7.93482 11.593 7.90768 12.1524 8.21045 12.5156L10.0379 14.7073C10.3406 15.0704 10.8587 15.0997 11.195 14.7727C11.2433 14.7257 11.2852 14.674 11.3204 14.6188C11.3692 14.5766 11.4144 14.5276 11.4547 14.4719L15.8263 8.42952Z" fill="#FF0000"/>
</svg>
