<svg width="33" height="32" viewBox="0 0 33 32" fill="none" xmlns="http://www.w3.org/2000/svg">
<path d="M8.95095 19.7924C9.10723 18.4985 9.6379 17.7741 10.6379 17.0314C12.0688 16.0256 13.8561 16.5946 13.8561 16.5946V13.2194C14.2907 13.2083 14.7254 13.2341 15.1551 13.2964V17.6399C15.1551 17.6399 13.3683 17.0709 11.9375 18.0773C10.938 18.8194 10.4062 19.5443 10.2505 20.8382C10.2456 21.5408 10.3775 22.4592 10.9847 23.2534C10.8345 23.1764 10.6815 23.0887 10.5256 22.9902C9.18807 22.0921 8.94444 20.7446 8.95095 19.7924ZM22.5352 6.97874C21.5509 5.90014 21.1786 4.81114 21.0441 4.04614H22.2823C22.2823 4.04614 22.0354 6.052 23.8347 8.02457L23.8597 8.05109C23.3747 7.74605 22.93 7.386 22.5352 6.97874ZM28.5 10.0367V14.2928C28.5 14.2928 26.92 14.2309 25.7507 13.9334C24.1179 13.5174 23.0685 12.8793 23.0685 12.8793C23.0685 12.8793 22.3436 12.4242 22.285 12.3925V21.1815C22.285 21.6708 22.151 22.893 21.7424 23.9123C21.209 25.2457 20.3859 26.121 20.2345 26.2999C20.2345 26.2999 19.2334 27.483 17.4672 28.2797C15.8752 28.9984 14.4774 28.9802 14.0596 28.9984C14.0596 28.9984 11.6434 29.0941 9.46915 27.6811C8.99898 27.3697 8.56011 27.017 8.1582 26.6275L8.16906 26.6353C10.3438 28.0483 12.7595 27.9526 12.7595 27.9526C13.1779 27.9344 14.5756 27.9526 16.1671 27.2339C17.9317 26.4372 18.9344 25.254 18.9344 25.254C19.0842 25.0751 19.9111 24.1999 20.4423 22.8659C20.8498 21.8471 20.9849 20.6245 20.9849 20.1351V11.3472C21.0435 11.3795 21.7679 11.8345 21.7679 11.8345C21.7679 11.8345 22.8179 12.4731 24.4506 12.8887C25.6204 13.1861 27.2 13.248 27.2 13.248V9.91289C27.7404 10.0341 28.2011 10.0668 28.5 10.0367Z" fill="#EE1D52"/>
<path d="M27.2006 9.91289V13.247C27.2006 13.247 25.6211 13.1851 24.4512 12.8876C22.8185 12.4716 21.7686 11.8335 21.7686 11.8335C21.7686 11.8335 21.0442 11.3784 20.9856 11.3462V20.1362C20.9856 20.6255 20.8516 21.8482 20.443 22.867C19.9096 24.2009 19.0864 25.0762 18.9351 25.2551C18.9351 25.2551 17.9334 26.4382 16.1678 27.2349C14.5763 27.9536 13.1785 27.9354 12.7602 27.9536C12.7602 27.9536 10.3445 28.0493 8.16971 26.6363L8.15886 26.6285C7.92925 26.4062 7.71311 26.1714 7.51152 25.9254C6.81753 25.0793 6.39212 24.0787 6.28523 23.7932C6.28504 23.792 6.28504 23.7908 6.28523 23.7895C6.11322 23.2934 5.75185 22.102 5.80122 20.948C5.88858 18.9119 6.60482 17.6622 6.7942 17.3492C7.29573 16.4954 7.94804 15.7316 8.72208 15.0916C9.40514 14.5394 10.1794 14.1 11.013 13.7915C11.9142 13.4292 12.8792 13.2351 13.8562 13.2194V16.5946C13.8562 16.5946 12.0689 16.0277 10.6386 17.0314C9.63855 17.7741 9.10788 18.4985 8.95161 19.7924C8.9451 20.7446 9.18873 22.0921 10.5252 22.9907C10.6811 23.0896 10.8341 23.1773 10.9842 23.2539C11.2177 23.5574 11.5019 23.8218 11.8253 24.0366C13.1308 24.8629 14.2247 24.9207 15.6235 24.384C16.5563 24.0251 17.2584 23.2164 17.584 22.3204C17.7885 21.7608 17.7858 21.1976 17.7858 20.6151V4.04614H21.0415C21.176 4.81114 21.5483 5.90014 22.5326 6.97874C22.9274 7.386 23.3721 7.74605 23.8571 8.05109C24.0003 8.19931 24.7328 8.93207 25.6732 9.38192C26.1594 9.61444 26.6719 9.79261 27.2006 9.91289Z" fill="black"/>
<path d="M4.98926 22.7568V22.7594L5.07004 22.9784C5.06076 22.9529 5.03074 22.8754 4.98926 22.7568Z" fill="#69C9D0"/>
<path d="M11.0128 13.7916C10.1792 14.1002 9.40498 14.5396 8.72192 15.0918C7.94763 15.7332 7.29548 16.4987 6.79458 17.354C6.60521 17.6661 5.88897 18.9168 5.80161 20.9528C5.75223 22.1068 6.11361 23.2983 6.28561 23.7944C6.28543 23.7956 6.28543 23.7968 6.28561 23.798C6.39413 24.081 6.81791 25.0815 7.51191 25.9303C7.7135 26.1763 7.92963 26.4111 8.15924 26.6334C7.42357 26.1457 6.76746 25.5562 6.21236 24.8839C5.52433 24.0451 5.10001 23.0549 4.98932 22.7626C4.98919 22.7605 4.98919 22.7584 4.98932 22.7564V22.7527C4.81677 22.2571 4.45431 21.0651 4.50477 19.9096C4.59213 17.8736 5.30838 16.6239 5.49775 16.3108C5.9985 15.4553 6.65067 14.6898 7.42509 14.0486C8.108 13.4961 8.88225 13.0567 9.71598 12.7484C10.236 12.5416 10.7778 12.3891 11.3319 12.2934C12.1669 12.1537 13.0198 12.1415 13.8588 12.2575V13.2196C12.8808 13.2349 11.9148 13.4291 11.0128 13.7916Z" fill="#69C9D0"/>
<path d="M21.044 4.04635H17.7884V20.6159C17.7884 21.1983 17.7884 21.76 17.5865 22.3211C17.2577 23.2167 16.5583 24.0253 15.6261 24.3842C14.2267 24.923 13.1328 24.8632 11.8278 24.0368C11.5039 23.823 11.219 23.5594 10.9846 23.2567C12.0964 23.8251 13.0916 23.8152 14.3244 23.3409C15.256 22.9821 15.9565 22.1734 16.2843 21.2774C16.4894 20.7178 16.4867 20.1546 16.4867 19.5726V3H20.9822C20.9822 3 20.9317 3.41188 21.044 4.04635ZM27.2005 8.99104V9.9131C26.6727 9.79263 26.1611 9.61447 25.6757 9.38213C24.7354 8.93228 24.0029 8.19952 23.8596 8.0513C24.0259 8.1559 24.1983 8.25106 24.3762 8.33629C25.5195 8.88339 26.6454 9.04669 27.2005 8.99104Z" fill="#69C9D0"/>
</svg>
