<svg width="22" height="23" viewBox="0 0 22 23" fill="none" xmlns="http://www.w3.org/2000/svg">
    <defs>
        <linearGradient x1="85.847289%" y1="85.847289%" x2="-8.9070096%" y2="8.9070096%" id="linearGradient-1">
            <stop stop-color="#832AE7" offset="0%"></stop>
            <stop stop-color="#922CE9" offset="100%"></stop>
        </linearGradient>
        <linearGradient id="matrixHeaderGradient" gradientTransform="rotate(323)" height="100%" width="100%">
            <stop offset="0%" stop-color="#4FF069"/>
            <stop offset="100%" stop-color="#09BD51"/>
        </linearGradient>
    </defs>
<path d="M11 2.7C11.6084 2.7 12.1 3.19156 12.1 3.8V6H16.225C17.5931 6 18.7 7.10688 18.7 8.475V17.825C18.7 19.1931 17.5931 20.3 16.225 20.3H5.775C4.40688 20.3 3.3 19.1931 3.3 17.825V8.475C3.3 7.10688 4.40688 6 5.775 6H9.9V3.8C9.9 3.19156 10.3916 2.7 11 2.7ZM7.15 15.9C6.8475 15.9 6.6 16.1475 6.6 16.45C6.6 16.7525 6.8475 17 7.15 17H8.25C8.5525 17 8.8 16.7525 8.8 16.45C8.8 16.1475 8.5525 15.9 8.25 15.9H7.15ZM10.45 15.9C10.1475 15.9 9.9 16.1475 9.9 16.45C9.9 16.7525 10.1475 17 10.45 17H11.55C11.8525 17 12.1 16.7525 12.1 16.45C12.1 16.1475 11.8525 15.9 11.55 15.9H10.45ZM13.75 15.9C13.4475 15.9 13.2 16.1475 13.2 16.45C13.2 16.7525 13.4475 17 13.75 17H14.85C15.1525 17 15.4 16.7525 15.4 16.45C15.4 16.1475 15.1525 15.9 14.85 15.9H13.75ZM9.075 11.5C9.075 11.1353 8.93013 10.7856 8.67227 10.5277C8.41441 10.2699 8.06467 10.125 7.7 10.125C7.33533 10.125 6.98559 10.2699 6.72773 10.5277C6.46987 10.7856 6.325 11.1353 6.325 11.5C6.325 11.8647 6.46987 12.2144 6.72773 12.4723C6.98559 12.7301 7.33533 12.875 7.7 12.875C8.06467 12.875 8.41441 12.7301 8.67227 12.4723C8.93013 12.2144 9.075 11.8647 9.075 11.5ZM14.3 12.875C14.6647 12.875 15.0144 12.7301 15.2723 12.4723C15.5301 12.2144 15.675 11.8647 15.675 11.5C15.675 11.1353 15.5301 10.7856 15.2723 10.5277C15.0144 10.2699 14.6647 10.125 14.3 10.125C13.9353 10.125 13.5856 10.2699 13.3277 10.5277C13.0699 10.7856 12.925 11.1353 12.925 11.5C12.925 11.8647 13.0699 12.2144 13.3277 12.4723C13.5856 12.7301 13.9353 12.875 14.3 12.875ZM1.65 10.4H2.2V17H1.65C0.739062 17 0 16.2609 0 15.35V12.05C0 11.1391 0.739062 10.4 1.65 10.4ZM20.35 10.4C21.2609 10.4 22 11.1391 22 12.05V15.35C22 16.2609 21.2609 17 20.35 17H19.8V10.4H20.35Z" fill="#AAA7B8"/>
</svg>
