<svg width="24" height="24" viewBox="0 0 24 24" fill="none" xmlns="http://www.w3.org/2000/svg">
<path fill-rule="evenodd" clip-rule="evenodd" d="M13.9984 5.05441L14 18.9456C14 20.0906 12.5763 20.739 11.6006 20.0518L6.0281 16.0461H3.30297C2.61176 16.0461 2.00159 15.5124 2.00159 14.8251L2 9.17644C2 8.52796 2.56885 7.95549 3.30138 7.95549H6.02651L11.599 3.94826C12.5747 3.261 13.9984 3.9095 13.9984 5.05441ZM19.0713 5.4485C20.8783 6.99056 21.9992 9.38037 21.9992 12.0023C22.0345 14.6587 20.8783 17.0109 19.0713 18.5529C18.6732 18.899 18.0592 18.8222 17.7345 18.399C17.4098 17.9744 17.4451 17.3193 17.8432 16.9729C19.2168 15.8164 20.0835 14.0048 20.0835 12.0006C20.0835 9.99621 19.2168 8.22222 17.8432 7.0282C17.4451 6.68184 17.3731 6.02525 17.7345 5.60211C18.0592 5.17743 18.6747 5.10063 19.0713 5.4485ZM16.7108 8.37595C17.688 9.21526 18.2808 10.5138 18.2808 12.0015C18.2808 13.4878 17.6525 14.7863 16.6754 15.6257C16.2911 15.9685 15.6983 15.8925 15.3849 15.4736L15.3153 15.3976C15.0019 15.0159 15.0714 14.4047 15.4544 14.1006C16.0472 13.6429 16.396 12.8796 16.396 12.0016C16.396 11.1995 16.0472 10.475 15.5239 9.97855C15.1055 9.59691 15.036 8.98568 15.3848 8.52801C15.6983 8.10759 16.2925 8.03157 16.7108 8.37595Z" fill="#FF0000"/>
</svg>
