<?xml version="1.0" encoding="UTF-8"?>
<svg width="24px" height="24px" viewBox="0 0 24 24" version="1.1" xmlns="http://www.w3.org/2000/svg" xmlns:xlink="http://www.w3.org/1999/xlink">
    <title>iconVolume1</title>
    <g id="Assets" stroke="none" stroke-width="1" fill="none" fill-rule="evenodd">
        <g id="assets" transform="translate(-762.000000, -2327.000000)">
            <g id="icon/Volume1" transform="translate(762.000000, 2327.000000)">
                <rect id="Bound" x="0" y="0" width="24" height="24"></rect>
                <path d="M12.998,4.4984 L13,19.5014 C13,20.7374 11.458,21.4384 10.401,20.6954 L4.364,16.3694 L1.412,16.3694 C0.663,16.3694 0.002,15.7934 0.002,15.0514 L0,8.9504 C0,8.2504 0.616,7.6314 1.41,7.6314 L4.362,7.6314 L10.399,3.3044 C11.456,2.5624 12.998,3.2624 12.998,4.4984 Z M15.8889,8.6982 C16.7789,9.4622 17.3189,10.6452 17.3189,12.0012 C17.3189,13.3552 16.7469,14.5382 15.8569,15.3032 C15.5059,15.6152 14.9659,15.5462 14.6809,15.1642 L14.6179,15.0952 C14.3319,14.7472 14.3959,14.1912 14.7439,13.9132 C15.2839,13.4962 15.6019,12.8012 15.6019,12.0012 C15.6019,11.2702 15.2839,10.6102 14.8079,10.1582 C14.4259,9.8102 14.3629,9.2532 14.6809,8.8362 C14.9659,8.4532 15.5079,8.3842 15.8889,8.6982 Z" id="Combined-Shape" fill="#858199" fill-rule="evenodd"></path>
            </g>
        </g>
    </g>
</svg>