<svg width="24" height="24" viewBox="0 0 24 24" fill="none" xmlns="http://www.w3.org/2000/svg">
<path d="M5 10C5 6.13368 8.13306 3 12 3C15.8669 3 19 6.13368 19 10C19 11.1974 18.6996 12.3244 18.1701 13.3098C17.8026 13.9936 18.2459 15 19.0222 15C19.3114 15 19.5842 14.8572 19.7325 14.6089C20.5375 13.2609 21 11.6846 21 10C21 5.02923 16.9716 1 12 1C7.02837 1 3 5.02923 3 10C3 11.6846 3.46252 13.2609 4.26754 14.6089C4.41583 14.8572 4.68856 15 4.97779 15C5.7541 15 6.19736 13.9936 5.82989 13.3098C5.30037 12.3244 5 11.1974 5 10Z" fill="#FF0000"/>
<path d="M11.9834 5.12291C11.8875 4.95915 11.6475 4.959 11.5513 5.12264L8.03387 11.1108C7.93775 11.2744 8.05763 11.4791 8.24966 11.4793L10.1773 11.4805C10.2664 11.4806 10.3488 11.4338 10.3934 11.3579L11.5485 9.39148C11.5545 9.38118 11.5611 9.37155 11.5682 9.36255C11.6742 9.2285 11.8907 9.23828 11.9805 9.39175L13.2122 11.4949C13.2232 11.5137 13.2312 11.5331 13.2368 11.5526C13.2794 11.703 13.1659 11.8632 12.9959 11.8631L10.7283 11.8616C10.6392 11.8616 10.5568 11.9084 10.5122 11.9843L9.54727 13.627C9.45115 13.7906 9.57102 13.9953 9.76304 13.9954L16.75 14C16.9421 14.0001 17.0622 13.7956 16.9663 13.6318L11.9834 5.12291Z" fill="#FF0000"/>
<path d="M19.7906 16.2725C20.4085 15.8144 21.2774 15.9481 21.733 16.5666C22.188 17.1848 22.056 18.053 21.3788 18.5083L16.6869 21.9646C16.0694 22.4189 15.3092 22.6685 14.5441 22.6685H2.52441C2.25182 22.6685 2 22.4185 2 22.1122V18.7789C2 18.4767 2.25182 18.192 2.52441 18.192L4.4477 18.2232L6.0626 16.9126C6.79191 16.3222 7.73029 16.0009 8.63672 16.0009H14.2236C14.9008 16.0009 15.4346 16.6045 15.3217 17.2991C15.2307 17.8457 14.6872 18.2236 14.1628 18.2236H11.4453C11.1726 18.2236 10.9208 18.4754 10.9208 18.7793C10.9208 19.0828 11.1414 19.3346 11.4453 19.3346H15.6336L19.7906 16.2725Z" fill="#FF0000"/>
</svg>
