<?xml version="1.0" encoding="UTF-8"?>
<svg width="24px" height="24px" viewBox="0 0 24 24" version="1.1" xmlns="http://www.w3.org/2000/svg" xmlns:xlink="http://www.w3.org/1999/xlink">
    <title>iconSearch</title>
    <g id="Assets" stroke="none" stroke-width="1" fill="none" fill-rule="evenodd">
        <g id="assets" transform="translate(-763.000000, -607.000000)">
            <g id="icon/Search" transform="translate(763.000000, 607.000000)">
                <path d="M21.0821948,2.93084128 C24.9899832,6.83862966 24.9899832,13.1744064 21.0821948,17.0821948 C17.4142413,20.7501483 11.6071825,20.9752637 7.67665997,17.7575409 L1.72977083,23.7032182 C1.33406182,24.0989273 0.69249076,24.0989273 0.296781754,23.7032182 C-0.0989272514,23.3075092 -0.0989272514,22.6659382 0.296781754,22.2702292 L6.24407807,16.3224043 C3.03831043,12.3921028 3.26723151,6.59445106 6.93084128,2.93084128 C10.8386297,-0.976947094 17.1744064,-0.976947094 21.0821948,2.93084128 Z M8.36383035,4.36383035 C5.24745999,7.48020072 5.24745999,12.5328354 8.36383035,15.6492057 C11.4802007,18.7655761 16.5328354,18.7655761 19.6492057,15.6492057 C22.7655761,12.5328354 22.7655761,7.48020072 19.6492057,4.36383035 C16.5328354,1.24745999 11.4802007,1.24745999 8.36383035,4.36383035 Z" id="iconSearch" fill="#858199" fill-rule="evenodd"></path>
                <rect id="bound" x="0" y="0" width="24" height="24"></rect>
            </g>
        </g>
    </g>
</svg>