<?xml version="1.0" encoding="UTF-8"?>
<svg width="24px" height="24px" viewBox="0 0 24 24" version="1.1" xmlns="http://www.w3.org/2000/svg" xmlns:xlink="http://www.w3.org/1999/xlink">
    <title>iconFileAiff</title>
    <g id="Assets" stroke="none" stroke-width="1" fill="none" fill-rule="evenodd">
        <g id="assets" transform="translate(-1032.000000, -607.000000)">
            <g id="icon/Filetype" transform="translate(1032.000000, 607.000000)">
                <path d="M20.9473684,24 L3.05263158,24 C2.47105263,24 2,23.5330435 2,22.9565217 L2,1.04347826 C2,0.466956522 2.47105263,0 3.05263158,0 L15.6842105,0 L22,6.26086957 L22,22.9565217 C22,23.5330435 21.5289474,24 20.9473684,24 Z" id="Document" fill="#F2F2F4"></path>
                <path d="M2,9.082 L2,11 L22,11 L22,9.083 L24,11 L22.4347826,13 L1.56521739,13 L0,11 L2,9.082 Z" id="Combined-Shape" fill="#B989E2" fill-rule="nonzero"></path>
                <path d="M22.9565217,21 L1.04347826,21 C0.466956522,21 0,20.5027778 0,19.8888889 L0,11 L24,11 L24,19.8888889 C24,20.5027778 23.5330435,21 22.9565217,21 Z" id="Path" fill="#7E1BCC"></path>
                <path d="M16,0 L16,5 C16,5.5525 16.4475,6 17,6 L22,6 L16,0 Z" id="Corner" fill="#DAD9E0"></path>
                <path d="M2,11 L0,11 L2,9.08333333 L2,11 Z M22,11 L22,9.08333333 L24,11 L22,11 Z" id="Shape" fill="#F7F7F9" fill-rule="nonzero" opacity="0.5"></path>
                <path d="M7.41992188,17.9023438 L5.43554688,17.9023438 L5.08007812,19 L3.72851562,19 L5.83398438,13.3125 L7.01757812,13.3125 L9.13085938,19 L7.77929688,19 L7.41992188,17.9023438 Z M7.08789062,16.8789062 L6.42773438,14.8515625 L5.77148438,16.8789062 L7.08789062,16.8789062 Z M9.69335938,19 L9.69335938,13.3125 L10.9589844,13.3125 L10.9589844,19 L9.69335938,19 Z M13.2558594,14.3359375 L13.2558594,15.6953125 L15.4863281,15.6953125 L15.4863281,16.7148438 L13.2558594,16.7148438 L13.2558594,19 L11.9863281,19 L11.9863281,13.3125 L15.7402344,13.3125 L15.7402344,14.3359375 L13.2558594,14.3359375 Z M17.6386719,14.3359375 L17.6386719,15.6953125 L19.8691406,15.6953125 L19.8691406,16.7148438 L17.6386719,16.7148438 L17.6386719,19 L16.3691406,19 L16.3691406,13.3125 L20.1230469,13.3125 L20.1230469,14.3359375 L17.6386719,14.3359375 Z" id="AIFF" fill="#FFFFFF" fill-rule="nonzero"></path>
            </g>
        </g>
    </g>
</svg>