<svg width="24" height="24" viewBox="0 0 24 24" fill="none" xmlns="http://www.w3.org/2000/svg">
<path d="M22 7.83334C22 8.60042 21.3782 9.22223 20.6111 9.22223C20.6025 9.22223 20.5954 9.21747 20.5868 9.21733L18.8325 18.8655C18.7365 19.3937 18.2763 19.7778 17.7393 19.7778H6.26066C5.72368 19.7778 5.26347 19.3937 5.16747 18.8655L3.41323 9.21733C3.40462 9.21747 3.3975 9.22223 3.38889 9.22223C2.62181 9.22223 2 8.60042 2 7.83334C2 7.06626 2.62181 6.44445 3.38889 6.44445C4.15597 6.44445 4.77778 7.06626 4.77778 7.83334C4.77778 8.14577 4.65552 8.41976 4.48135 8.65174L7.5934 11.1414C8.14576 11.5833 8.965 11.4033 9.28135 10.7707L11.2813 6.77077C10.8876 6.5257 10.6111 6.1091 10.6111 5.61112C10.6111 4.84403 11.2329 4.22223 12 4.22223C12.7671 4.22223 13.3889 4.84403 13.3889 5.61112C13.3889 6.1091 13.1124 6.5257 12.7187 6.77077L14.7186 10.7707C15.035 11.4033 15.8542 11.5833 16.4066 11.1414L19.5186 8.65174C19.3445 8.41976 19.2222 8.14577 19.2222 7.83334C19.2222 7.06626 19.844 6.44445 20.6111 6.44445C21.3782 6.44445 22 7.06626 22 7.83334Z" fill="#FFFFFF"/>
</svg>
