<svg width="24" height="24" viewBox="0 0 24 24" fill="none" xmlns="http://www.w3.org/2000/svg">
<path d="M17.043 18.3711C15.6602 19.4688 13.9062 20.125 12 20.125C10.0938 20.125 8.33984 19.4688 6.95703 18.3711L10.0977 15.2305C10.6563 15.5586 11.3086 15.75 12.0039 15.75C12.6992 15.75 13.3516 15.5625 13.9102 15.2305L17.0508 18.3711H17.043ZM19.7031 18.3789C21.1367 16.6445 22 14.4258 22 12C22 9.57422 21.1367 7.35547 19.7031 5.62109L20.1641 5.16406C20.5312 4.79688 20.5312 4.20312 20.1641 3.83984C19.7969 3.47656 19.2031 3.47266 18.8398 3.83984L18.3789 4.29687C16.6445 2.86328 14.4258 2 12 2C9.57422 2 7.35547 2.86328 5.62109 4.29687L5.16406 3.83594C4.79688 3.46875 4.20312 3.46875 3.83984 3.83594C3.47656 4.20312 3.47266 4.79688 3.83984 5.16016L4.29687 5.62109C2.86328 7.35547 2 9.57422 2 12C2 14.4258 2.86328 16.6445 4.29687 18.3789L3.83594 18.8359C3.46875 19.2031 3.46875 19.7969 3.83594 20.1602C4.20312 20.5234 4.79688 20.5273 5.16016 20.1602L5.62109 19.6992C7.35547 21.1367 9.57422 22 12 22C14.4258 22 16.6445 21.1367 18.3789 19.7031L18.8359 20.1641C19.2031 20.5312 19.7969 20.5312 20.1602 20.1641C20.5234 19.7969 20.5273 19.2031 20.1602 18.8398L19.6992 18.3789H19.7031ZM18.3711 17.0469L15.2305 13.9062C15.5586 13.3477 15.75 12.6953 15.75 12C15.75 11.3047 15.5625 10.6523 15.2305 10.0937L18.3711 6.95313C19.4688 8.33984 20.125 10.0938 20.125 12C20.125 13.9062 19.4688 15.6602 18.3711 17.043V17.0469ZM17.043 5.62891L13.9023 8.76953C13.3438 8.44141 12.6914 8.25 11.9961 8.25C11.3008 8.25 10.6484 8.4375 10.0898 8.76953L6.95703 5.62891C8.33984 4.53125 10.0938 3.875 12 3.875C13.9062 3.875 15.6602 4.53125 17.043 5.62891ZM8.76953 13.9062L5.62891 17.043C4.53125 15.6602 3.875 13.9062 3.875 12C3.875 10.0938 4.53125 8.33984 5.62891 6.95703L8.76953 10.0977C8.44141 10.6563 8.25 11.3086 8.25 12.0039C8.25 12.6992 8.4375 13.3516 8.76953 13.9102V13.9062ZM10.125 12C10.125 11.5027 10.3225 11.0258 10.6742 10.6742C11.0258 10.3225 11.5027 10.125 12 10.125C12.4973 10.125 12.9742 10.3225 13.3258 10.6742C13.6775 11.0258 13.875 11.5027 13.875 12C13.875 12.4973 13.6775 12.9742 13.3258 13.3258C12.9742 13.6775 12.4973 13.875 12 13.875C11.5027 13.875 11.0258 13.6775 10.6742 13.3258C10.3225 12.9742 10.125 12.4973 10.125 12Z" fill="#FF0000"/>
</svg>