<?xml version="1.0" encoding="UTF-8"?>
<svg width="24px" height="24px" viewBox="0 0 24 24" version="1.1" xmlns="http://www.w3.org/2000/svg" xmlns:xlink="http://www.w3.org/1999/xlink">
    <title>iconDrag</title>
    <g id="Assets" stroke="none" stroke-width="1" fill="none" fill-rule="evenodd">
        <g id="assets" transform="translate(-763.000000, -2095.000000)">
            <g id="icon/Drag" transform="translate(763.000000, 2095.000000)">
                <path d="M7,17 L7,19 L5,19 L5,17 L7,17 Z M11,17 L11,19 L9,19 L9,17 L11,17 Z M15,17 L15,19 L13,19 L13,17 L15,17 Z M19,17 L19,19 L17,19 L17,17 L19,17 Z M7,13 L7,15 L5,15 L5,13 L7,13 Z M11,13 L11,15 L9,15 L9,13 L11,13 Z M15,13 L15,15 L13,15 L13,13 L15,13 Z M19,13 L19,15 L17,15 L17,13 L19,13 Z M7,9 L7,11 L5,11 L5,9 L7,9 Z M11,9 L11,11 L9,11 L9,9 L11,9 Z M15,9 L15,11 L13,11 L13,9 L15,9 Z M19,9 L19,11 L17,11 L17,9 L19,9 Z M7,5 L7,7 L5,7 L5,5 L7,5 Z M11,5 L11,7 L9,7 L9,5 L11,5 Z M15,5 L15,7 L13,7 L13,5 L15,5 Z M19,5 L19,7 L17,7 L17,5 L19,5 Z" id="Fill" fill="#858199" fill-rule="evenodd"></path>
                <rect id="bound" x="0" y="0" width="24" height="24"></rect>
            </g>
        </g>
    </g>
</svg>