<?xml version="1.0" encoding="UTF-8"?>
<svg width="24px" height="24px" viewBox="0 0 24 24" version="1.1" xmlns="http://www.w3.org/2000/svg" xmlns:xlink="http://www.w3.org/1999/xlink">
    <title>iconFileMp3</title>
    <g id="Assets" stroke="none" stroke-width="1" fill="none" fill-rule="evenodd">
        <g id="assets" transform="translate(-1032.000000, -799.000000)">
            <g id="icon/Filetype" transform="translate(1032.000000, 799.000000)">
                <path d="M20.9473684,24 L3.05263158,24 C2.47105263,24 2,23.5330435 2,22.9565217 L2,1.04347826 C2,0.466956522 2.47105263,0 3.05263158,0 L15.6842105,0 L22,6.26086957 L22,22.9565217 C22,23.5330435 21.5289474,24 20.9473684,24 Z" id="Document" fill="#F2F2F4"></path>
                <path d="M2,9.082 L2,11 L22,11 L22,9.083 L24,11 L22.4347826,13 L1.56521739,13 L0,11 L2,9.082 Z" id="Combined-Shape" fill="#B989E2" fill-rule="nonzero"></path>
                <path d="M22.9565217,21 L1.04347826,21 C0.466956522,21 0,20.5027778 0,19.8888889 L0,11 L24,11 L24,19.8888889 C24,20.5027778 23.5330435,21 22.9565217,21 Z" id="Path" fill="#7E1BCC"></path>
                <path d="M16,0 L16,5 C16,5.5525 16.4475,6 17,6 L22,6 L16,0 Z" id="Corner" fill="#DAD9E0"></path>
                <path d="M2,11 L0,11 L2,9.08333333 L2,11 Z M22,11 L22,9.08333333 L24,11 L22,11 Z" id="Shape" fill="#F7F7F9" fill-rule="nonzero" opacity="0.5"></path>
                <path d="M10.1269531,19 L8.85742188,19 L8.85742188,17.6015625 L8.98242188,14.8476562 L7.52148438,19 L6.66992188,19 L5.20898438,14.8476562 L5.33398438,17.6015625 L5.33398438,19 L4.06835938,19 L4.06835938,13.3125 L5.72851562,13.3125 L7.09570312,17.3203125 L8.46289062,13.3125 L10.1269531,13.3125 L10.1269531,19 Z M13.3261719,13.3125 C13.7662782,13.3125 14.150389,13.3945304 14.4785156,13.5585938 C14.8066423,13.7226571 15.0579418,13.9492173 15.2324219,14.2382812 C15.4069019,14.5273452 15.4941406,14.856769 15.4941406,15.2265625 C15.4941406,15.5911477 15.4069019,15.9108059 15.2324219,16.1855469 C15.0579418,16.4602878 14.8079443,16.6725253 14.4824219,16.8222656 C14.1568994,16.972006 13.7714866,17.046875 13.3261719,17.046875 L12.3496094,17.046875 L12.3496094,19 L11.0800781,19 L11.0800781,13.3125 L13.3261719,13.3125 Z M13.3261719,16.0234375 C13.6256525,16.0234375 13.8483066,15.9524747 13.9941406,15.8105469 C14.1399747,15.6686191 14.2128906,15.4765637 14.2128906,15.234375 C14.2128906,15.0703117 14.1816409,14.9205736 14.1191406,14.7851562 C14.0566403,14.6497389 13.958985,14.541016 13.8261719,14.4589844 C13.6933587,14.3769527 13.5266937,14.3359375 13.3261719,14.3359375 L12.3496094,14.3359375 L12.3496094,16.0234375 L13.3261719,16.0234375 Z M19.0996094,16.078125 C19.4069026,16.1875005 19.6419263,16.3554676 19.8046875,16.5820312 C19.9674487,16.8085949 20.0488281,17.0820296 20.0488281,17.4023438 C20.0488281,17.7486996 19.9589853,18.0481758 19.7792969,18.3007812 C19.5996085,18.5533867 19.3535172,18.7460931 19.0410156,18.8789062 C18.7285141,19.0117194 18.375653,19.078125 17.9824219,19.078125 C17.6438785,19.078125 17.3248713,19.0175787 17.0253906,18.8964844 C16.72591,18.77539 16.4817718,18.5911471 16.2929688,18.34375 C16.1041657,18.0963529 16.0097656,17.7903664 16.0097656,17.4257812 L17.2324219,17.4257812 C17.2324219,17.5507819 17.2669267,17.664062 17.3359375,17.765625 C17.4049483,17.867188 17.4993484,17.9472653 17.6191406,18.0058594 C17.7389329,18.0644534 17.8717441,18.09375 18.0175781,18.09375 C18.1842456,18.09375 18.3287754,18.0631513 18.4511719,18.0019531 C18.5735683,17.9407549 18.6673174,17.8561203 18.7324219,17.7480469 C18.7975264,17.6399734 18.8300781,17.5169278 18.8300781,17.3789062 C18.8300781,17.0976548 18.7552091,16.8925788 18.6054688,16.7636719 C18.4557284,16.634765 18.2389337,16.5703125 17.9550781,16.5703125 L17.3339844,16.5703125 L17.3339844,15.6210938 L17.9550781,15.6210938 C18.2154961,15.6210938 18.4114577,15.5553392 18.5429688,15.4238281 C18.6744798,15.2923171 18.7402344,15.1106782 18.7402344,14.8789062 C18.7402344,14.6835928 18.678386,14.5240892 18.5546875,14.4003906 C18.430989,14.2766921 18.2519543,14.2148438 18.0175781,14.2148438 C17.8925775,14.2148438 17.7760422,14.23763 17.6679688,14.2832031 C17.5598953,14.3287763 17.4726566,14.3945308 17.40625,14.4804688 C17.3398434,14.5664067 17.3066406,14.665364 17.3066406,14.7773438 L16.0917969,14.7773438 C16.0917969,14.4674464 16.1764314,14.1953137 16.3457031,13.9609375 C16.5149748,13.7265613 16.7441392,13.5462246 17.0332031,13.4199219 C17.3222671,13.2936192 17.6386702,13.2304688 17.9824219,13.2304688 C18.375653,13.2304688 18.7213527,13.2929681 19.0195312,13.4179688 C19.3177098,13.5429694 19.5488273,13.7272123 19.7128906,13.9707031 C19.8769539,14.2141939 19.9589844,14.5091129 19.9589844,14.8554688 C19.9589844,15.1106784 19.8828133,15.3470041 19.7304688,15.5644531 C19.5781242,15.7819021 19.3678399,15.9531244 19.0996094,16.078125 Z" id="MP3" fill="#FFFFFF" fill-rule="nonzero"></path>
            </g>
        </g>
    </g>
</svg>