<?xml version="1.0" encoding="UTF-8"?>
<svg width="24px" height="24px" viewBox="0 0 24 24" version="1.1" xmlns="http://www.w3.org/2000/svg" xmlns:xlink="http://www.w3.org/1999/xlink">
    <title>iconUnfollow</title>
    <g id="Assets" stroke="none" stroke-width="1" fill="none" fill-rule="evenodd">
        <g id="assets" transform="translate(-763.000000, -1903.000000)">
            <g id="icon/Unfollow" transform="translate(763.000000, 1903.000000)">
                <rect id="bound" x="0" y="0" width="24" height="24"></rect>
                <path d="M16.5440739,14.3034777 C16.7496096,14.0979419 17.0828958,14.0979419 17.2884316,14.3034777 L17.2884316,14.3034777 L19.1493259,16.164372 L21.0102201,14.3034777 C21.2157559,14.0979419 21.5490421,14.0979419 21.7545778,14.3034777 L21.7545778,14.3034777 L22.995174,15.5440739 C23.2007098,15.7496096 23.2007098,16.0828958 22.995174,16.2884316 L22.995174,16.2884316 L21.1342797,18.1493259 L22.995174,20.0102201 C23.2007098,20.2157559 23.2007098,20.5490421 22.995174,20.7545778 L22.995174,20.7545778 L21.7545778,21.995174 C21.5490421,22.2007098 21.2157559,22.2007098 21.0102201,21.995174 L21.0102201,21.995174 L19.1493259,20.1342797 L17.2884316,21.995174 C17.0828958,22.2007098 16.7496096,22.2007098 16.5440739,21.995174 L16.5440739,21.995174 L15.3034777,20.7545778 C15.0979419,20.5490421 15.0979419,20.2157559 15.3034777,20.0102201 L15.3034777,20.0102201 L17.164372,18.1493259 L15.3034777,16.2884316 C15.0979419,16.0828958 15.0979419,15.7496096 15.3034777,15.5440739 L15.3034777,15.5440739 Z M5.44642163,12.9705279 C6.67021216,14.0203548 8.26105664,14.6544415 10,14.6544415 C11.0183856,14.6544415 11.9859781,14.43697 12.8588707,14.0459337 C11.6876541,16.4498485 11.6821403,19.6738719 13.0433394,21.8464167 C7.80317729,22.396794 1,21.4719326 1,19.0710678 C1,16.4711885 2.78588984,14.1990272 5.44642163,12.9705279 Z M10,3 C12.7614237,3 15,5.23857625 15,8 C15,10.7614237 12.7614237,13 10,13 C7.23857625,13 5,10.7614237 5,8 C5,5.23857625 7.23857625,3 10,3 Z" id="Combined-Shape" fill="#858199" fill-rule="evenodd"></path>
            </g>
        </g>
    </g>
</svg>