<svg width="24" height="24" viewBox="0 0 24 24" fill="none" xmlns="http://www.w3.org/2000/svg">
<path fill-rule="evenodd" clip-rule="evenodd" d="M8.60437 18.1646C8.90925 18.8171 9.82475 18.8384 10.1598 18.2007L15.4717 8.09114L17.5325 12.0754C17.8097 12.6122 18.532 12.7098 18.9412 12.2672L21.7676 9.2066C22.0945 8.85333 22.0741 8.30007 21.7219 7.9714C21.3697 7.64272 20.8195 7.6632 20.4926 8.0173L18.5059 10.168L16.2495 5.80424C15.9259 5.17884 15.0365 5.17557 14.7096 5.79932L9.43588 15.835L6.69927 9.98855C6.46856 9.4943 5.84901 9.33201 5.40716 9.64921L2.36398 11.8352C1.97349 12.1155 1.883 12.6614 2.16181 13.0548C2.4406 13.4474 2.98435 13.5384 3.37484 13.2581L5.57031 11.6811L8.60437 18.1646Z" fill="#FF0000"/>
</svg>
