<?xml version="1.0" encoding="UTF-8"?>
<svg width="24px" height="24px" viewBox="0 0 24 24" version="1.1" xmlns="http://www.w3.org/2000/svg" xmlns:xlink="http://www.w3.org/1999/xlink">
    <title>iconPlaylists</title>
    <g id="Assets" stroke="none" stroke-width="1" fill="none" fill-rule="evenodd">
        <g id="assets" transform="translate(-763.000000, -1375.000000)">
            <g id="icon/Playlists" transform="translate(763.000000, 1375.000000)">
                <rect id="bound" x="0" y="0" width="24" height="24"></rect>
                <path d="M15,4.20872555 L15,6.02055066 C15,6.62449236 14.4511634,7.01020322 14,7.12121212 C13.3508668,7.28093157 11.6842001,7.62436591 9,8.15151515 L9,19.0224658 C9,19.5011487 8.80501926,19.7961903 8.46532015,19.9246669 C7.92411088,20.5743814 7.02170056,21 6,21 C4.34314575,21 3,19.8807119 3,18.5 C3,17.1192881 4.34314575,16 6,16 C6.35108202,16 6.68807846,16.0502563 7.00119503,16.142607 L7,6.02055066 C7,5.49224061 7.31978104,5.02523181 7.78944063,4.86765013 L13.5394406,3.05582503 C14.2638626,2.81276469 15,3.39383881 15,4.20872555 Z M20,17 C20.5522847,17 21,17.4477153 21,18 C21,18.5522847 20.5522847,19 20,19 L14,19 C13.4477153,19 13,18.5522847 13,18 C13,17.4477153 13.4477153,17 14,17 L20,17 Z M20,13 C20.5522847,13 21,13.4477153 21,14 C21,14.5522847 20.5522847,15 20,15 L14,15 C13.4477153,15 13,14.5522847 13,14 C13,13.4477153 13.4477153,13 14,13 L20,13 Z M20,9 C20.5522847,9 21,9.44771525 21,10 C21,10.5522847 20.5522847,11 20,11 L16,11 C15.4477153,11 15,10.5522847 15,10 C15,9.44771525 15.4477153,9 16,9 L20,9 Z" id="Combined-Shape" fill="currentColor" fill-rule="evenodd"></path>
            </g>
        </g>
    </g>
</svg>