<svg width="24" height="24" viewBox="0 0 24 24" fill="none" xmlns="http://www.w3.org/2000/svg">
<path fill-rule="evenodd" clip-rule="evenodd" d="M9.76949 17.1656C10.368 17.4342 11.0908 17.1245 11.3595 16.5251L14.8491 8.4301C14.9733 8.14131 14.9733 7.81056 14.87 7.5008C14.7458 7.19103 14.5191 6.96354 14.2295 6.84013C14.0851 6.77802 13.9198 6.73688 13.7544 6.73688C13.2792 6.73688 12.8461 7.02566 12.6396 7.45966L9.14995 15.5757C9.02572 15.8645 9.02572 16.1952 9.12898 16.505C9.25321 16.7938 9.48069 17.0213 9.76949 17.1657V17.1656ZM18.2164 7.17092C17.9889 6.90229 17.659 6.7579 17.3081 6.7579C17.0193 6.7579 16.7297 6.86116 16.5232 7.04669C16.2755 7.2532 16.1311 7.54198 16.1101 7.87273C16.0892 8.20347 16.1924 8.51324 16.3989 8.7399L19.1868 12.003L16.3779 15.266C15.9439 15.7613 16.006 16.5261 16.5021 16.9593C16.9974 17.3723 17.7823 17.3102 18.1953 16.835L21.706 12.7878C22.098 12.3337 22.098 11.673 21.706 11.218L18.2164 7.17092ZM7.62215 15.2659C8.05534 15.7612 7.99322 16.5251 7.49793 16.9591L7.49784 16.9592C7.00252 17.3722 6.19666 17.3101 5.78364 16.8358L2.29403 12.7877C1.90199 12.3328 1.90199 11.6721 2.29403 11.2179L5.8047 7.17076C6.03137 6.90213 6.36211 6.75774 6.71301 6.75774C7.00262 6.75774 7.27043 6.86098 7.49792 7.04652C7.74557 7.25303 7.88997 7.54181 7.91094 7.87256C7.93192 8.18232 7.82866 8.49209 7.62215 8.73974L4.8132 12.0028L7.62215 15.2659Z" fill="#FF0000"/>
</svg>
