<svg width="32" height="32" viewBox="0 0 32 32" fill="none" xmlns="http://www.w3.org/2000/svg">
<path fill-rule="evenodd" clip-rule="evenodd" d="M22.3922 17.7165C22.3922 19.1092 21.3648 20.2507 20.0634 20.2507C18.7849 20.2507 17.7346 19.1092 17.7346 17.7165C17.7346 16.3238 18.762 15.1822 20.0634 15.1822C21.3648 15.1822 22.3922 16.3238 22.3922 17.7165ZM11.7303 15.1822C10.4289 15.1822 9.4015 16.3238 9.4015 17.7165C9.4015 19.1092 10.4517 20.2507 11.7303 20.2507C13.0316 20.2507 14.059 19.1092 14.059 17.7165C14.0819 16.3238 13.0316 15.1822 11.7303 15.1822ZM29.3337 22.374C29.3337 15.0224 26.046 9.06347 26.046 9.06347C22.7583 6.59771 19.6305 6.66621 19.6305 6.66621L19.3108 7.0315C23.1921 8.21872 24.9958 9.93105 24.9958 9.93105C19.5724 6.95864 13.2017 6.9581 7.94096 9.26895C7.09622 9.65707 6.59393 9.93105 6.59393 9.93105C6.59393 9.93105 8.48891 8.12739 12.5985 6.94018L12.3702 6.66621C12.3702 6.66621 9.24234 6.59771 5.95466 9.06347C5.95466 9.06347 2.66699 15.0224 2.66699 22.374C2.66699 22.374 4.5848 25.6845 9.63046 25.8443C9.63046 25.8443 10.4752 24.8169 11.1601 23.9493C8.2606 23.0817 7.16471 21.2552 7.16471 21.2552C7.50058 21.4903 8.05441 21.7951 8.10078 21.826C11.9544 23.9841 17.4283 24.6911 22.3474 22.6251C23.1464 22.3283 24.0369 21.8945 24.9729 21.2781C24.9729 21.2781 23.8314 23.1502 20.8405 23.995C21.5254 24.8626 22.3474 25.8443 22.3474 25.8443C27.393 25.6845 29.3337 22.374 29.3337 22.374Z" fill="white"/>
</svg>
