<svg width="40" height="40" viewBox="0 0 40 40" fill="none" xmlns="http://www.w3.org/2000/svg">
<g clip-path="url(#clip0_635_9208)">
<g filter="url(#filter0_di_635_9208)">
<path fill-rule="evenodd" clip-rule="evenodd" d="M0 8C0 3.58172 3.58172 0 8 0H40L0 40V8Z" fill="#1BA1F1"/>
</g>
<g clip-path="url(#clip1_635_9208)">
<path d="M14.2344 6.6625C14.0938 6.71562 14 6.85 14 7C14 7.15 14.0938 7.28438 14.2344 7.3375L16 8L16.6625 9.76562C16.7156 9.90625 16.85 10 17 10C17.15 10 17.2844 9.90625 17.3375 9.76562L18 8L19.7656 7.3375C19.9062 7.28438 20 7.15 20 7C20 6.85 19.9062 6.71562 19.7656 6.6625L18 6L17.3375 4.23438C17.2844 4.09375 17.15 4 17 4C16.85 4 16.7156 4.09375 16.6625 4.23438L16 6L14.2344 6.6625ZM10.4094 6.29063C10.3281 6.1125 10.15 6 9.95625 6C9.7625 6 9.58438 6.1125 9.50313 6.29063L7.85313 9.85313L4.29063 11.5C4.1125 11.5813 4 11.7594 4 11.9563C4 12.1531 4.1125 12.3281 4.29063 12.4094L7.85625 14.0562L9.5 17.6187C9.58125 17.7969 9.75938 17.9094 9.95312 17.9094C10.1469 17.9094 10.325 17.7969 10.4062 17.6187L12.0531 14.0531L15.6187 12.4062C15.7969 12.325 15.9094 12.1469 15.9094 11.9531C15.9094 11.7594 15.7969 11.5813 15.6187 11.5L12.0562 9.85625L10.4094 6.29063ZM16 16L14.2344 16.6625C14.0938 16.7156 14 16.85 14 17C14 17.15 14.0938 17.2844 14.2344 17.3375L16 18L16.6625 19.7656C16.7156 19.9062 16.85 20 17 20C17.15 20 17.2844 19.9062 17.3375 19.7656L18 18L19.7656 17.3375C19.9062 17.2844 20 17.15 20 17C20 16.85 19.9062 16.7156 19.7656 16.6625L18 16L17.3375 14.2344C17.2844 14.0938 17.15 14 17 14C16.85 14 16.7156 14.0938 16.6625 14.2344L16 16Z" fill="white"/>
</g>
</g>
<defs>
<filter id="filter0_di_635_9208" x="-8" y="-8" width="56" height="56" filterUnits="userSpaceOnUse" color-interpolation-filters="sRGB">
<feFlood flood-opacity="0" result="BackgroundImageFix"/>
<feColorMatrix in="SourceAlpha" type="matrix" values="0 0 0 0 0 0 0 0 0 0 0 0 0 0 0 0 0 0 127 0" result="hardAlpha"/>
<feOffset/>
<feGaussianBlur stdDeviation="4"/>
<feColorMatrix type="matrix" values="0 0 0 0 0 0 0 0 0 0 0 0 0 0 0 0 0 0 0.25 0"/>
<feBlend mode="normal" in2="BackgroundImageFix" result="effect1_dropShadow_635_9208"/>
<feBlend mode="normal" in="SourceGraphic" in2="effect1_dropShadow_635_9208" result="shape"/>
<feColorMatrix in="SourceAlpha" type="matrix" values="0 0 0 0 0 0 0 0 0 0 0 0 0 0 0 0 0 0 127 0" result="hardAlpha"/>
<feOffset dx="4" dy="4"/>
<feGaussianBlur stdDeviation="4"/>
<feComposite in2="hardAlpha" operator="arithmetic" k2="-1" k3="1"/>
<feColorMatrix type="matrix" values="0 0 0 0 1 0 0 0 0 1 0 0 0 0 1 0 0 0 0.2 0"/>
<feBlend mode="normal" in2="shape" result="effect2_innerShadow_635_9208"/>
</filter>
<clipPath id="clip0_635_9208">
<path d="M0 8C0 3.58172 3.58172 0 8 0H40V40H0V8Z" fill="white"/>
</clipPath>
<clipPath id="clip1_635_9208">
<rect width="16" height="16" fill="white" transform="translate(4 4)"/>
</clipPath>
</defs>
</svg>
