<?xml version="1.0" encoding="UTF-8"?>
<svg width="32px" height="32px" viewBox="0 0 32 32" version="1.1" xmlns="http://www.w3.org/2000/svg" xmlns:xlink="http://www.w3.org/1999/xlink">
    <title>pbIconShuffle</title>
    <g id="Assets" stroke="none" stroke-width="1" fill="none" fill-rule="evenodd">
        <g id="assets" transform="translate(-847.000000, -727.000000)">
            <g id="icon/playbar/shuffle" transform="translate(847.000000, 727.000000)">
                <rect id="bound" x="0" y="0" width="32" height="32"></rect>
                <path d="M1.64905343,21 L7.86107389,21 C9.09673051,21 10.2248554,19.8223929 10.7697283,18.3223894 L13.1920249,11.6539475 C14.2817707,8.6539405 16.4982122,7 18.9695254,7 L24,7 L24,11 L18.9695254,11 C17.7338688,11 16.7103298,12.1643396 16.1654569,13.6643431 L13.7431603,20.332785 C12.6534145,23.332792 10.3971647,25 7.92585148,25 L1.64905343,25 C0.738306367,25 8.38440428e-13,24.2349842 8.38440428e-13,23.0031723 C8.38440428e-13,21.7713603 0.738306367,21 1.64905343,21 Z" id="Path-4" fill="#858199" fill-rule="evenodd"></path>
                <path d="M29.5458866,6.28004614 L32.8677527,11.3670843 C33.270373,11.9836488 33.0969369,12.8098615 32.4803723,13.2124818 C32.2635872,13.3540437 32.010276,13.4294262 31.7513637,13.4294262 L25.1076316,13.4294262 C24.371252,13.4294262 23.7742983,12.8324725 23.7742983,12.0960929 C23.7742983,11.8371806 23.8496808,11.5838693 23.9912427,11.3670843 L27.3131088,6.28004614 C27.7157291,5.66348155 28.5419417,5.49004546 29.1585063,5.89266579 C29.3130548,5.99358687 29.4449655,6.12549764 29.5458866,6.28004614 Z" id="Triangle" fill="#858199" fill-rule="evenodd" transform="translate(28.429498, 8.999928) rotate(90.000000) translate(-28.429498, -8.999928) "></path>
                <path d="M1.64905343,11 C0.738306367,11 8.38440428e-13,10.2153722 8.38440428e-13,8.98356024 C8.38440428e-13,7.7517483 0.738306367,7 1.64905343,7 L7.92585148,7 C10.3971647,7 12.6534145,8.6539405 13.7431603,11.6539475 L16.1654569,18.3223894 C16.7103298,19.8223929 17.7338688,21 18.9695254,21 L24,21 L24,25 L18.9695254,25 C16.4982122,25 14.2817707,23.332792 13.1920249,20.332785 L10.7697283,13.6643431 C10.2248554,12.1643396 9.09673051,11 7.86107389,11 L1.64905343,11 Z" id="Path-4" fill="#858199" fill-rule="evenodd"></path>
                <path d="M29.5458866,20.2800461 L32.8677527,25.3670843 C33.270373,25.9836488 33.0969369,26.8098615 32.4803723,27.2124818 C32.2635872,27.3540437 32.010276,27.4294262 31.7513637,27.4294262 L25.1076316,27.4294262 C24.371252,27.4294262 23.7742983,26.8324725 23.7742983,26.0960929 C23.7742983,25.8371806 23.8496808,25.5838693 23.9912427,25.3670843 L27.3131088,20.2800461 C27.7157291,19.6634816 28.5419417,19.4900455 29.1585063,19.8926658 C29.3130548,19.9935869 29.4449655,20.1254976 29.5458866,20.2800461 Z" id="Triangle" fill="#858199" fill-rule="evenodd" transform="translate(28.429498, 22.999928) rotate(90.000000) translate(-28.429498, -22.999928) "></path>
            </g>
        </g>
    </g>
</svg>