<?xml version="1.0" encoding="UTF-8"?>
<svg width="32px" height="32px" viewBox="0 0 32 32" version="1.1" xmlns="http://www.w3.org/2000/svg" xmlns:xlink="http://www.w3.org/1999/xlink">
    <title>pbIconRepeatOff</title>
    <g id="Assets" stroke="none" stroke-width="1" fill="none" fill-rule="evenodd">
        <g id="assets" transform="translate(-847.000000, -783.000000)">
            <g id="icon/playbar/repeat/all" transform="translate(847.000000, 783.000000)">
                <rect id="bound" x="0" y="0" width="32" height="32"></rect>
                <path d="M16.4209147,7.69487153 C16.876393,8.46937389 17.7295616,8.92893338 18.6104866,8.87177538 C19.1226153,8.84263399 19.6347439,8.84263399 20.1457351,8.92893912 C23.4173523,9.38737956 25.9768581,12.1423549 26.1756464,15.4992396 C26.4600359,19.7462052 23.0473615,23.2758264 18.8671197,23.1323575 C15.2832428,23.0180301 12.2971527,20.1195112 12.0707786,16.5035217 L12.0707786,16.4743803 L13.8626602,16.4743803 C15.0002183,16.4743803 15.6822982,15.2123134 15.0857627,14.2360364 L10.8753756,7.43589873 C10.3065966,6.5179275 8.9979497,6.5179275 8.42917063,7.43589873 L4.22105868,14.2360364 C3.62338564,15.2111656 4.30659737,16.4743803 5.44416119,16.4743803 L7.26379919,16.4743803 C7.49153264,22.4429724 12.1550148,27.4072823 18.0415938,27.9518902 C25.4357217,28.6120765 31.6066902,22.3858718 30.9523099,14.9254904 C30.4412903,9.01399895 25.6356475,4.33691369 19.7766543,4.02185605 C19.2934196,3.99271465 18.8101849,3.99271465 18.3258127,4.02185605 C16.5342155,4.13610892 15.5110957,6.11665654 16.4209147,7.69487153 Z" id="repeat" fill="#858199" fill-rule="evenodd" transform="translate(17.500000, 16.000000) rotate(180.000000) translate(-17.500000, -16.000000) "></path>
            </g>
        </g>
    </g>
</svg>