<?xml version="1.0" encoding="UTF-8"?>
<svg width="32px" height="32px" viewBox="0 0 32 32" version="1.1" xmlns="http://www.w3.org/2000/svg" xmlns:xlink="http://www.w3.org/1999/xlink">
    <title>pbIconStop</title>
    <g id="Assets" stroke="none" stroke-width="1" fill="none" fill-rule="evenodd">
        <g id="assets" transform="translate(-847.000000, -671.000000)" fill="#CC0FE0">
            <g id="icon/playbar/stop" transform="translate(847.000000, 671.000000)">
                <path d="M16,0 C24.836556,0 32,7.163444 32,16 C32,24.836556 24.836556,32 16,32 C7.163444,32 0,24.836556 0,16 C0,7.163444 7.163444,0 16,0 Z M19.6666667,11 L12.3333333,11 C11.5969537,11 11,11.5969537 11,12.3333333 L11,12.3333333 L11,19.6666667 C11,20.4030463 11.5969537,21 12.3333333,21 L12.3333333,21 L19.6666667,21 C20.4030463,21 21,20.4030463 21,19.6666667 L21,19.6666667 L21,12.3333333 C21,11.5969537 20.4030463,11 19.6666667,11 L19.6666667,11 Z" id="Combined-Shape"></path>
            </g>
        </g>
    </g>
</svg>