<?xml version="1.0" encoding="UTF-8"?>
<svg width="32px" height="32px" viewBox="0 0 32 32" version="1.1" xmlns="http://www.w3.org/2000/svg" xmlns:xlink="http://www.w3.org/1999/xlink">
    <title>pbIconRepeatAll</title>
    <g id="Assets" stroke="none" stroke-width="1" fill="none" fill-rule="evenodd">
        <g id="assets" transform="translate(-847.000000, -839.000000)">
            <g id="icon/playbar/repeat/off" transform="translate(847.000000, 839.000000)">
                <rect id="bound" x="0" y="0" width="32" height="32"></rect>
                <path d="M12.4209147,7.69487153 C12.876393,8.46937389 13.7295616,8.92893338 14.6104866,8.87177538 C15.1226153,8.84263399 15.6347439,8.84263399 16.1457351,8.92893912 C19.4173523,9.38737956 21.9768581,12.1423549 22.1756464,15.4992396 C22.4600359,19.7462052 19.0473615,23.2758264 14.8671197,23.1323575 C11.2832428,23.0180301 8.29715269,20.1195112 8.07077862,16.5035217 L8.07077862,16.4743803 L9.8626602,16.4743803 C11.0002183,16.4743803 11.6822982,15.2123134 11.0857627,14.2360364 L6.87537565,7.43589873 C6.30659658,6.5179275 4.9979497,6.5179275 4.42917063,7.43589873 L0.221058685,14.2360364 C-0.376614361,15.2111656 0.306597369,16.4743803 1.44416119,16.4743803 L3.26379919,16.4743803 C3.49153264,22.4429724 8.1550148,27.4072823 14.0415938,27.9518902 C21.4357217,28.6120765 27.6066902,22.3858718 26.9523099,14.9254904 C26.4412903,9.01399895 21.6356475,4.33691369 15.7766543,4.02185605 C15.2934196,3.99271465 14.8101849,3.99271465 14.3258127,4.02185605 C12.5342155,4.13610892 11.5110957,6.11665654 12.4209147,7.69487153 Z" id="repeat" fill="#CC0FE0" fill-rule="evenodd"></path>
            </g>
        </g>
    </g>
</svg>