<svg width="21" height="20" viewBox="0 0 21 20" fill="none"
  xmlns="http://www.w3.org/2000/svg">
  <path fill-rule="evenodd" clip-rule="evenodd" d="M10.5 0C4.97581 0 0.5 4.47581 0.5 10C0.5 15.5242 4.97581 20 10.5 20C16.0242 20 20.5 15.5242 20.5 10C20.5 4.47581 16.0242 0 10.5 0ZM4.14523 7.08061C4.41539 6.37093 5.22184 6.00399 5.95572 6.19754L6.24201 6.27416L6.32265 5.98786C6.52426 5.25803 7.24201 4.7419 7.99604 4.86286C8.40023 4.92383 8.75886 5.15524 8.98095 5.4984C9.20304 5.84157 9.26727 6.26352 9.15733 6.65722L8.37507 9.47577C8.32423 9.65893 8.13529 9.76689 7.95168 9.7177L5.12104 8.98383C4.72539 8.88151 4.39236 8.61492 4.20591 8.25127C4.01945 7.88761 3.99737 7.46159 4.14523 7.08061ZM16.2984 13.3346C15.9234 15.5524 12.9435 17.0967 10.5 17.0967C8.05644 17.0967 5.0766 15.5524 4.7016 13.3346C4.66386 13.1122 4.74503 12.8863 4.91567 12.7387C5.08631 12.5911 5.32164 12.5434 5.53628 12.6129C6.75402 13.004 8.5645 13.2258 10.5 13.2258C12.4355 13.2258 14.246 13.004 15.4637 12.6129C15.6782 12.5454 15.9123 12.5939 16.0824 12.7409C16.2524 12.888 16.3342 13.1127 16.2984 13.3346ZM15.879 8.9798L13.0483 9.71367C12.865 9.76079 12.6774 9.6536 12.625 9.47174L11.8427 6.65319C11.7328 6.25949 11.797 5.83754 12.0191 5.49437C12.2412 5.15121 12.5998 4.9198 13.004 4.85884C13.754 4.73787 14.4717 5.254 14.6774 5.98384L14.758 6.27013L15.0443 6.19351C15.7782 6.004 16.5846 6.3669 16.8548 7.07658C17.0036 7.45751 16.982 7.88396 16.7954 8.24789C16.6088 8.61181 16.2752 8.87829 15.879 8.9798Z" fill="#000"/>
</svg>
