<?xml version="1.0" encoding="UTF-8"?>
<svg width="24px" height="24px" viewBox="0 0 24 24" version="1.1" xmlns="http://www.w3.org/2000/svg" xmlns:xlink="http://www.w3.org/1999/xlink">
    <g id="Assets" stroke="none" stroke-width="1" fill="none" fill-rule="evenodd">
        <g id="assets" transform="translate(-801.000000, -2951.000000)" fill="#000">
            <g id="icon/iconHidden" transform="translate(801.000000, 2951.000000)">
                <path d="M11.9843994,16.4929797 C9.61778471,16.4929797 7.70202807,14.6611545 7.52574102,12.3397816 L4.25273009,9.81029641 C3.82246488,10.350078 3.42652104,10.9207488 3.10702026,11.5447738 C2.96226922,11.8311076 2.96226922,12.1692044 3.10702026,12.4555382 C4.79906394,15.7569423 8.14882994,17.9906396 11.9843994,17.9906396 C12.824025,17.9906396 13.6340094,17.8658346 14.4146646,17.6642746 L12.7956318,16.4115445 C12.5282446,16.4631968 12.2567182,16.4904539 11.9843994,16.4929797 Z M21.7759751,18.3057722 L18.3266771,15.6399376 C19.3744683,14.7569131 20.236212,13.6743509 20.8617785,12.4552262 C21.0065295,12.1688924 21.0065295,11.8307956 20.8617785,11.5444618 C19.1697348,8.24305771 15.8199688,6.00936036 11.9843994,6.00936036 C10.3780031,6.01130694 8.79769631,6.41571615 7.3878315,7.18564741 L3.41840871,4.11762869 C3.31386974,4.036282 3.18128722,3.99981638 3.04985179,4.01626044 C2.91841635,4.0327045 2.79890435,4.10071 2.71762868,4.20530419 L2.10514818,4.99375973 C1.93595869,5.21140739 1.97520955,5.52499516 2.19282369,5.69422775 L20.55039,19.8823713 C20.654929,19.963718 20.7875115,20.0001836 20.918947,19.9837396 C21.0503824,19.9672955 21.1698944,19.89929 21.2511701,19.7946958 L21.8639626,19.0062403 C22.0330817,18.7885108 21.9936896,18.4749106 21.7759751,18.3057722 Z M16.0436818,13.875195 L14.8174727,12.9273011 C14.9207374,12.6288509 14.9755139,12.3157823 14.9797192,12 C14.9920659,11.0624615 14.5589847,10.1746382 13.8125299,9.60724392 C13.0660751,9.03984969 12.0947374,8.86014787 11.1946958,9.12293291 C11.3828427,9.37787874 11.4846182,9.68626635 11.4851794,10.0031201 C11.4805246,10.108559 11.4644132,10.2131786 11.4371295,10.3151326 L9.14040561,8.5400936 C9.9382159,7.87338725 10.9446888,7.50778858 11.9843994,7.50701957 C13.1762147,7.5063576 14.3194068,7.97951094 15.1621476,8.82225178 C16.0048884,9.66499262 16.4780418,10.8081847 16.4773798,12 C16.4773798,12.674883 16.3123245,13.3039002 16.0436818,13.875507 L16.0436818,13.875195 Z" id="eye-slash"></path>
            </g>
        </g>
    </g>
</svg>