<svg width="24" height="24" viewBox="0 0 24 24" fill="none" xmlns="http://www.w3.org/2000/svg">
<path d="M20.7989 3.12114C20.4084 2.73062 19.7752 2.73062 19.3847 3.12114L3.12123 19.3846C2.73071 19.7751 2.73071 20.4083 3.12123 20.7988C3.51176 21.1893 4.14492 21.1893 4.53545 20.7988L6.93261 18.4016C8.41208 19.1075 10.137 19.5129 11.9825 19.5129C13.4843 19.5129 14.9083 19.2335 16.1852 18.7541C17.1831 19.5223 19.0946 20.7651 21.6871 20.7651C21.8143 20.7651 21.9227 20.696 21.9716 20.5786C22.0254 20.4612 22.001 20.3249 21.9129 20.2368C21.8934 20.2173 20.2588 18.4606 19.7697 16.4892C21.1636 15.0914 21.999 13.3164 21.999 11.3747C21.999 9.27211 21.0255 7.35566 19.423 5.91125L20.7989 4.53535C21.1894 4.14483 21.1894 3.51166 20.7989 3.12114Z" fill="#000"/>
<path d="M12.0166 3.23532C13.3689 3.23532 14.6564 3.453 15.8301 3.84758L3.72016 15.9575C2.63368 14.6588 2 13.0918 2 11.4087C2 6.94891 6.48335 3.23532 12.0166 3.23532Z" fill="#000"/>
</svg>
