<?xml version="1.0" encoding="UTF-8"?>
<svg xmlns="http://www.w3.org/2000/svg" width="36" height="14" viewBox="0 0 36 14" fill="none">
  <path d="M7.13695 0C7.35503 0 7.53182 0.17679 7.53182 0.394872V13.3897C7.53182 13.6078 7.35503 13.7846 7.13695 13.7846H4.18439C3.9663 13.7846 3.78951 13.6078 3.78951 13.3897V3.50944C3.78951 3.47449 3.76118 3.44615 3.72623 3.44615C3.71479 3.44615 3.70356 3.44926 3.69374 3.45513L1.29095 4.89252C1.02775 5.04997 0.693359 4.86035 0.693359 4.55365V2.29453C0.693359 2.15697 0.764948 2.02933 0.882325 1.9576L3.99086 0.0579349C4.05286 0.0200473 4.12411 0 4.19677 0H7.13695Z" fill="#000"/>
  <path d="M10.7757 14C10.2552 14 9.80873 13.8183 9.43629 13.4548C9.06834 13.0869 8.88661 12.6404 8.8911 12.1154C8.88661 11.6038 9.06834 11.1663 9.43629 10.8029C9.80873 10.4394 10.2552 10.2577 10.7757 10.2577C11.2693 10.2577 11.7046 10.4394 12.0815 10.8029C12.4629 11.1663 12.6558 11.6038 12.6603 12.1154C12.6558 12.4654 12.5639 12.784 12.3844 13.0712C12.2094 13.3538 11.9805 13.5804 11.6978 13.751C11.4151 13.917 11.1078 14 10.7757 14Z" fill="#000"/>
  <path d="M19.2242 13.9731C18.1652 13.9731 17.2251 13.7869 16.404 13.4144C15.5873 13.0375 14.9434 12.5192 14.4723 11.8596C14.0792 11.3041 13.8485 10.6785 13.7801 9.98296C13.7586 9.76432 13.9381 9.58461 14.1578 9.58461H17.0096C17.2233 9.58461 17.3917 9.75727 17.4455 9.9641C17.5242 10.2665 17.6908 10.5192 17.9453 10.7221C18.3043 11.0048 18.7306 11.1462 19.2242 11.1462C19.6056 11.1462 19.9421 11.0654 20.2338 10.9038C20.5255 10.7378 20.7543 10.5045 20.9203 10.2038C21.0864 9.90321 21.1671 9.55321 21.1626 9.15385C21.1671 8.75 21.0864 8.4 20.9203 8.10385C20.7543 7.80321 20.5255 7.57212 20.2338 7.41058C19.9421 7.24455 19.6056 7.16154 19.2242 7.16154C18.8293 7.16154 18.4636 7.25801 18.1271 7.45096C17.8888 7.58617 17.6956 7.75949 17.5475 7.97092C17.4433 8.11962 17.2682 8.21384 17.0901 8.17879L14.4511 7.65965C14.2556 7.62119 14.1194 7.44306 14.1335 7.24427L14.6212 0.366937C14.6359 0.160214 14.8079 0 15.0151 0H23.5139C23.732 0 23.9088 0.17679 23.9088 0.394872V2.59359C23.9088 2.81167 23.732 2.98846 23.5139 2.98846H18.078C17.8734 2.98846 17.7027 3.14473 17.6846 3.34852L17.4518 5.97912C17.4494 6.00688 17.4712 6.03077 17.4991 6.03077C17.5169 6.03077 17.5331 6.02084 17.5415 6.00518C17.7588 5.59932 18.1267 5.26233 18.6453 4.99423C19.1748 4.71603 19.7896 4.57692 20.4896 4.57692C21.3107 4.57692 22.0421 4.76763 22.6838 5.14904C23.3299 5.53045 23.8392 6.05769 24.2117 6.73077C24.5886 7.39936 24.7748 8.17115 24.7703 9.04615C24.7748 10.0064 24.546 10.859 24.0838 11.6038C23.6261 12.3442 22.9822 12.9253 22.1521 13.3471C21.3219 13.7644 20.346 13.9731 19.2242 13.9731Z" fill="#000"/>
  <path d="M28.4165 3.44615C28.5695 3.44615 28.7087 3.53449 28.7738 3.67289L29.8268 5.91047C29.9675 6.20939 30.3911 6.21372 30.5379 5.91774L31.6545 3.66562C31.7211 3.53119 31.8582 3.44615 32.0082 3.44615H34.7918C35.0903 3.44615 35.2809 3.76464 35.1398 4.02769L32.7812 8.42421C32.7173 8.54327 32.7188 8.68671 32.785 8.80447L35.2553 13.1962C35.4034 13.4594 35.2132 13.7846 34.9112 13.7846H32.1618C32.0159 13.7846 31.8819 13.7042 31.8133 13.5754L30.5288 11.1644C30.3791 10.8834 29.9755 10.886 29.8294 11.1688L28.589 13.5709C28.5212 13.7022 28.3859 13.7846 28.2381 13.7846H25.4415C25.1388 13.7846 24.9487 13.458 25.0981 13.1948L27.5908 8.80402C27.6575 8.68654 27.6595 8.54312 27.5961 8.42382L25.2599 4.02628C25.1202 3.76328 25.3108 3.44615 25.6086 3.44615H28.4165Z" fill="#000"/>
</svg>