<?xml version="1.0" encoding="UTF-8"?>
<svg width="24px" height="24px" viewBox="0 0 24 24" version="1.1" xmlns="http://www.w3.org/2000/svg" xmlns:xlink="http://www.w3.org/1999/xlink">
    <title>iconArrow</title>
    <g id="Assets" stroke="none" stroke-width="1" fill="none" fill-rule="evenodd">
        <g id="assets" transform="translate(-763.000000, -559.000000)">
            <g id="icon/Arrow" transform="translate(763.000000, 559.000000)">
                <rect id="Bound" x="0" y="0" width="24" height="24"></rect>
                <path d="M10.5996266,17.8106162 C10.5996266,17.4838624 10.7396639,17.1813817 10.9730595,16.9479861 L14.8007469,13.4003734 L6.40037343,13.4003734 C5.56014937,13.4003734 5,12.8402241 5,12 C5,11.1597759 5.56014937,10.6014937 6.40037343,10.6014937 L14.8007469,10.6014937 L10.9263804,7.00720192 C10.7153908,6.79807949 10.5996266,6.47132569 10.5996266,6.18938384 C10.5996266,5.5377434 11.2064551,5 11.8132835,5 C12.1400373,5 12.442518,5.14003734 12.6535076,5.35102694 L18.579888,11.1597759 C18.8132835,11.3931715 19,11.6732462 19,12 C19,12.3043478 18.7908776,12.6311016 18.579888,12.8402241 L12.6759136,18.6265671 C12.3958389,18.9066418 12.0933582,19 11.8132835,19 C11.13737,19 10.5996266,18.4641238 10.5996266,17.8106162" id="Fill-1" fill="#000" fill-rule="evenodd"></path>
            </g>
        </g>
    </g>
</svg>