<?xml version="1.0" encoding="UTF-8"?>
<svg xmlns="http://www.w3.org/2000/svg" width="34" height="14" viewBox="0 0 34 14" fill="none">
  <path d="M6.4913 0.185958C6.70649 0.185958 6.88093 0.3604 6.88093 0.575585V13.3979C6.88093 13.613 6.70649 13.7875 6.4913 13.7875H3.57796C3.36277 13.7875 3.18833 13.613 3.18833 13.3979V3.64878C3.18833 3.6143 3.16037 3.58634 3.12588 3.58634C3.11459 3.58634 3.10352 3.5894 3.09383 3.59519L0.72295 5.01349C0.463246 5.16885 0.133301 4.98175 0.133301 4.67912V2.45002C0.133301 2.31428 0.203938 2.18833 0.319757 2.11755L3.38701 0.243124C3.44818 0.205739 3.51848 0.185958 3.59018 0.185958H6.4913Z" fill="#000"/>
  <path d="M10.0817 14C9.56814 14 9.12759 13.8207 8.7601 13.4621C8.39704 13.099 8.21772 12.6584 8.22215 12.1404C8.21772 11.6357 8.39704 11.204 8.7601 10.8454C9.12759 10.4867 9.56814 10.3074 10.0817 10.3074C10.5688 10.3074 10.9982 10.4867 11.3702 10.8454C11.7465 11.204 11.9369 11.6357 11.9413 12.1404C11.9369 12.4858 11.8461 12.8001 11.669 13.0835C11.4963 13.3624 11.2705 13.586 10.9916 13.7543C10.7127 13.9181 10.4094 14 10.0817 14Z" fill="#000"/>
  <path d="M13.3617 13.7875C13.1465 13.7875 12.9721 13.613 12.9721 13.3979V11.3143C12.9721 11.1982 13.0239 11.0881 13.1133 11.0141L18.0461 6.93359C18.3826 6.65465 18.6704 6.39342 18.9094 6.14991C19.153 5.90196 19.3389 5.64738 19.4673 5.38615C19.6001 5.12492 19.6666 4.83491 19.6666 4.51613C19.6666 4.16635 19.5913 3.86749 19.4408 3.61954C19.2946 3.3716 19.091 3.18121 18.8297 3.04839C18.5685 2.91113 18.2674 2.8425 17.9265 2.8425C17.5856 2.8425 17.2845 2.91113 17.0233 3.04839C16.7665 3.18564 16.5672 3.3871 16.4256 3.65275C16.3348 3.82291 16.2731 4.01667 16.2405 4.23406C16.2086 4.44686 16.0386 4.62239 15.8234 4.62239H13.096C12.8808 4.62239 12.7049 4.44768 12.7187 4.23294C12.77 3.44062 12.9806 2.74691 13.3506 2.1518C13.7801 1.4611 14.3867 0.929792 15.1704 0.557875C15.954 0.185958 16.8728 0 17.9265 0C19.0157 0 19.9588 0.174889 20.7557 0.524668C21.5571 0.870019 22.1748 1.35705 22.6087 1.98577C23.047 2.61448 23.2662 3.35168 23.2662 4.19734C23.2662 4.7198 23.1577 5.24004 22.9408 5.75806C22.7238 6.27166 22.3342 6.84061 21.7719 7.4649C21.2096 8.08918 20.4104 8.83302 19.3743 9.69639L18.1187 10.7427C18.1063 10.7531 18.0992 10.7683 18.0992 10.7844C18.0992 10.8144 18.1235 10.8387 18.1535 10.8387H23.0227C23.2378 10.8387 23.4123 11.0132 23.4123 11.2283V13.3979C23.4123 13.613 23.2378 13.7875 23.0227 13.7875H13.3617Z" fill="#000"/>
  <path d="M27.0682 3.58634C27.2191 3.58634 27.3564 3.6735 27.4207 3.81006L28.4597 6.01793C28.5985 6.31287 29.0165 6.31714 29.1613 6.0251L30.2631 3.80289C30.3288 3.67025 30.4641 3.58634 30.6122 3.58634H33.3587C33.6533 3.58634 33.8413 3.90059 33.7021 4.16015L31.3749 8.49827C31.3118 8.61575 31.3133 8.75729 31.3786 8.87348L33.8161 13.2068C33.9622 13.4666 33.7745 13.7875 33.4765 13.7875H30.7637C30.6198 13.7875 30.4875 13.7081 30.4199 13.5811L29.1523 11.202C29.0046 10.9248 28.6064 10.9273 28.4623 11.2065L27.2383 13.5766C27.1715 13.7061 27.0379 13.7875 26.8921 13.7875H24.1327C23.834 13.7875 23.6464 13.4652 23.7938 13.2055L26.2534 8.87304C26.3192 8.75712 26.3212 8.6156 26.2586 8.49789L23.9535 4.15876C23.8156 3.89925 24.0037 3.58634 24.2976 3.58634H27.0682Z" fill="#000"/>
</svg>