<svg width="24" height="24" viewBox="0 0 24 24" fill="none"
  xmlns="http://www.w3.org/2000/svg">
  <path d="M4.92969 4.92969L3.60156 3.60156C3.01172 3.01172 2 3.42969 2 4.26172V8.5625C2 9.08203 2.41797 9.5 2.9375 9.5H7.23828C8.07422 9.5 8.49219 8.48828 7.90234 7.89844L6.69922 6.69531C8.05469 5.33984 9.92969 4.5 12 4.5C16.1406 4.5 19.5 7.85938 19.5 12C19.5 16.1406 16.1406 19.5 12 19.5C10.4063 19.5 8.92969 19.0039 7.71484 18.1563C7.14844 17.7617 6.37109 17.8984 5.97266 18.4648C5.57422 19.0312 5.71484 19.8086 6.28125 20.207C7.90625 21.3359 9.87891 22 12 22C17.5234 22 22 17.5234 22 12C22 6.47656 17.5234 2 12 2C9.23828 2 6.73828 3.12109 4.92969 4.92969ZM12 7C11.4805 7 11.0625 7.41797 11.0625 7.9375V12C11.0625 12.25 11.1602 12.4883 11.3359 12.6641L14.1484 15.4766C14.5156 15.8437 15.1094 15.8437 15.4727 15.4766C15.8359 15.1094 15.8398 14.5156 15.4727 14.1523L12.9336 11.6133V7.9375C12.9336 7.41797 12.5156 7 11.9961 7H12Z" fill="#000"/>
</svg>
