<svg width="32" height="33" viewBox="0 0 32 33" fill="#000" xmlns="http://www.w3.org/2000/svg">
<path fill-rule="evenodd" clip-rule="evenodd" d="M24.3334 14.167V14.0003C24.3334 9.33366 20.6667 5.66699 16 5.66699C11.8334 5.66699 8.33335 8.66699 7.83335 12.8337C4.83335 13.8337 2.66669 16.5003 2.66669 19.8337C2.66669 24.0003 6.00002 27.3337 10.1667 27.3337C13 27.3337 20 27.3337 22.6667 27.3337C26.3334 27.3337 29.3334 24.3337 29.3334 20.667C29.3334 17.5003 27.1667 15.0003 24.3334 14.167ZM21.0983 18.7827L16.2187 23.6624C15.9317 23.9494 15.4594 23.9494 15.1724 23.6624L10.2928 18.7827C9.82519 18.3151 10.1585 17.5188 10.8159 17.5188H13.8437V12.3337C13.8437 11.9262 14.177 11.5929 14.5844 11.5929H16.8067C17.2141 11.5929 17.5474 11.9262 17.5474 12.3337V17.5188H20.5752C21.2326 17.5188 21.5659 18.3151 21.0983 18.7827Z" fill="#C2C0CC"/>
</svg>
