<svg width="24" height="24" viewBox="0 0 24 24" fill="none" xmlns="http://www.w3.org/2000/svg">
<path fill-rule="evenodd" clip-rule="evenodd" d="M9.53185 20.125L19.085 10.5718C20.7863 11.3933 22 13.0724 22 15.125C22 17.875 19.75 20.125 17 20.125H9.53185ZM2 14.5C2 16.5468 3.07254 18.3256 4.69073 19.3093L3.42331 20.5767C3.03278 20.9672 3.03278 21.6004 3.42331 21.9909C3.81383 22.3814 4.447 22.3814 4.83752 21.9909L20.7071 6.12132C21.0976 5.7308 21.0976 5.09763 20.7071 4.70711C20.3166 4.31658 19.6834 4.31658 19.2929 4.70711L17.2725 6.72745C16.171 5.00033 14.2389 3.875 12 3.875C8.875 3.875 6.25 6.125 5.875 9.25C3.625 10 2 12 2 14.5ZM13.1605 10.8395V8.875C13.1605 8.56944 12.9105 8.31944 12.605 8.31944H10.9383C10.6328 8.31944 10.3828 8.56944 10.3828 8.875V12.7639H8.11193C7.61888 12.7639 7.36888 13.3611 7.71957 13.7118L9.00389 14.9961L13.1605 10.8395Z" fill="#000"/>
</svg>
