<svg width="33" height="32" viewBox="0 0 33 32" fill="none" xmlns="http://www.w3.org/2000/svg">
<path fill-rule="evenodd" clip-rule="evenodd" d="M29.0981 10.0634L26.697 12.4646C26.4522 12.7094 26.0563 12.7094 25.8115 12.4646L20.03 6.6831C19.7852 6.4383 19.7852 6.04245 20.03 5.79765L22.4312 3.39651C23.4052 2.42252 24.9886 2.42252 25.9678 3.39651L29.0981 6.52685C30.0773 7.50084 30.0773 9.08424 29.0981 10.0634ZM17.9675 7.86023L4.28983 21.5379L3.18562 27.8662C3.03457 28.7204 3.77939 29.4601 4.63359 29.3142L10.962 28.2048L24.6396 14.5272C24.8844 14.2824 24.8844 13.8865 24.6396 13.6417L18.8581 7.86023C18.6081 7.61543 18.2123 7.61543 17.9675 7.86023ZM9.62858 20.3659C9.34211 20.0795 9.34211 19.6211 9.62858 19.3346L17.6497 11.3135C17.9362 11.027 18.3946 11.027 18.681 11.3135C18.9675 11.6 18.9675 12.0583 18.681 12.3448L10.6599 20.3659C10.3734 20.6524 9.91505 20.6524 9.62858 20.3659ZM7.7483 24.7463H10.2484V26.637L6.88889 27.2256L5.26903 25.6057L5.8576 22.2462H7.7483V24.7463Z" fill="#000"/>
</svg>
