<svg width="20" height="20" viewBox="0 0 20 20" fill="none" xmlns="http://www.w3.org/2000/svg">
<path d="M10 2C10.5531 2 11 2.44687 11 3V5H14.75C15.9937 5 17 6.00625 17 7.25V15.75C17 16.9937 15.9937 18 14.75 18H5.25C4.00625 18 3 16.9937 3 15.75V7.25C3 6.00625 4.00625 5 5.25 5H9V3C9 2.44687 9.44687 2 10 2ZM6.5 14C6.225 14 6 14.225 6 14.5C6 14.775 6.225 15 6.5 15H7.5C7.775 15 8 14.775 8 14.5C8 14.225 7.775 14 7.5 14H6.5ZM9.5 14C9.225 14 9 14.225 9 14.5C9 14.775 9.225 15 9.5 15H10.5C10.775 15 11 14.775 11 14.5C11 14.225 10.775 14 10.5 14H9.5ZM12.5 14C12.225 14 12 14.225 12 14.5C12 14.775 12.225 15 12.5 15H13.5C13.775 15 14 14.775 14 14.5C14 14.225 13.775 14 13.5 14H12.5ZM8.25 10C8.25 9.66848 8.1183 9.35054 7.88388 9.11612C7.64946 8.8817 7.33152 8.75 7 8.75C6.66848 8.75 6.35054 8.8817 6.11612 9.11612C5.8817 9.35054 5.75 9.66848 5.75 10C5.75 10.3315 5.8817 10.6495 6.11612 10.8839C6.35054 11.1183 6.66848 11.25 7 11.25C7.33152 11.25 7.64946 11.1183 7.88388 10.8839C8.1183 10.6495 8.25 10.3315 8.25 10ZM13 11.25C13.3315 11.25 13.6495 11.1183 13.8839 10.8839C14.1183 10.6495 14.25 10.3315 14.25 10C14.25 9.66848 14.1183 9.35054 13.8839 9.11612C13.6495 8.8817 13.3315 8.75 13 8.75C12.6685 8.75 12.3505 8.8817 12.1161 9.11612C11.8817 9.35054 11.75 9.66848 11.75 10C11.75 10.3315 11.8817 10.6495 12.1161 10.8839C12.3505 11.1183 12.6685 11.25 13 11.25ZM1.5 9H2V15H1.5C0.671875 15 0 14.3281 0 13.5V10.5C0 9.67188 0.671875 9 1.5 9ZM18.5 9C19.3281 9 20 9.67188 20 10.5V13.5C20 14.3281 19.3281 15 18.5 15H18V9H18.5Z" fill="#000"/>
</svg>
