<svg width="24" height="24" viewBox="0 0 24 24" fill="none" xmlns="http://www.w3.org/2000/svg">
<path fill-rule="evenodd" clip-rule="evenodd" d="M19.559 4.44647C22.8137 7.70119 22.8137 12.9781 19.559 16.2329C16.504 19.2878 11.6674 19.4753 8.39374 16.7953L3.44069 21.7474C3.11111 22.077 2.57676 22.077 2.24718 21.7474C1.91761 21.4178 1.91761 20.8835 2.24718 20.5539L7.20057 15.6C4.53055 12.3266 4.72121 7.49782 7.77257 4.44647C11.0273 1.19175 16.3042 1.19175 19.559 4.44647ZM8.96607 5.63998C6.37051 8.23554 6.37051 12.4438 8.96607 15.0394C11.5616 17.6349 15.7699 17.6349 18.3654 15.0394C20.961 12.4438 20.961 8.23554 18.3654 5.63998C15.7699 3.04441 11.5616 3.04441 8.96607 5.63998Z" fill="#000"/>
<path fill-rule="evenodd" clip-rule="evenodd" d="M19.559 4.44647C22.8137 7.70119 22.8137 12.9781 19.559 16.2329C16.504 19.2878 11.6674 19.4753 8.39374 16.7953L3.44069 21.7474C3.11111 22.077 2.57676 22.077 2.24718 21.7474C1.91761 21.4178 1.91761 20.8835 2.24718 20.5539L7.20057 15.6C4.53055 12.3266 4.72121 7.49782 7.77257 4.44647C11.0273 1.19175 16.3042 1.19175 19.559 4.44647ZM8.96607 5.63998C6.37051 8.23554 6.37051 12.4438 8.96607 15.0394C11.5616 17.6349 15.7699 17.6349 18.3654 15.0394C20.961 12.4438 20.961 8.23554 18.3654 5.63998C15.7699 3.04441 11.5616 3.04441 8.96607 5.63998Z" fill="#000"/>
<path fill-rule="evenodd" clip-rule="evenodd" d="M19.9125 4.09292C23.3625 7.54291 23.3625 13.1364 19.9125 16.5864C16.7838 19.7151 11.8928 20.0064 8.43548 17.4607L3.79425 22.1009C3.79423 22.101 3.79426 22.1009 3.79425 22.1009C3.2694 22.6257 2.41846 22.6258 1.89363 22.1009C1.3688 21.5761 1.36879 20.7252 1.89361 20.2003C1.89361 20.2003 1.89362 20.2003 1.89361 20.2003L6.5358 15.5577C3.99973 12.1011 4.294 7.21794 7.41901 4.09292C10.869 0.642936 16.4625 0.642936 19.9125 4.09292ZM7.20057 15.6L2.24718 20.5539C1.91761 20.8835 1.91761 21.4178 2.24718 21.7474C2.57676 22.077 3.11111 22.077 3.44069 21.7474L8.39374 16.7953C11.6674 19.4753 16.504 19.2878 19.559 16.2329C22.8137 12.9781 22.8137 7.70119 19.559 4.44647C16.3042 1.19175 11.0273 1.19175 7.77257 4.44647C4.72121 7.49782 4.53055 12.3266 7.20057 15.6ZM9.31963 5.99354C6.91932 8.39384 6.91932 12.2855 9.31963 14.6858C11.7199 17.0861 15.6116 17.0861 18.0119 14.6858C20.4122 12.2855 20.4122 8.39384 18.0119 5.99354C15.6116 3.59323 11.7199 3.59323 9.31963 5.99354ZM8.96607 15.0394C6.37051 12.4438 6.37051 8.23554 8.96607 5.63998C11.5616 3.04441 15.7699 3.04441 18.3654 5.63998C20.961 8.23554 20.961 12.4438 18.3654 15.0394C15.7699 17.6349 11.5616 17.6349 8.96607 15.0394Z" fill="#000"/>
</svg>
