<?xml version="1.0" encoding="UTF-8"?>
<svg width="24px" height="24px" viewBox="0 0 24 24" version="1.1" xmlns="http://www.w3.org/2000/svg" xmlns:xlink="http://www.w3.org/1999/xlink">
    <g id="Assets" stroke="none" stroke-width="1" fill="none" fill-rule="evenodd">
        <g id="Group-5" fill="#858199">
            <g id="icon/alltime">
                <path d="M16.721875,6.99999999 C14.65625,6.99999999 13.040625,8.29062499 12,9.45624999 C10.959375,8.29062499 9.34374999,6.99999999 7.27812499,6.99999999 C4.36874998,6.99999999 1.99999997,9.24374999 1.99999997,12 C1.99999997,14.75625 4.36874998,17 7.27812499,17 C9.34374999,17 10.959375,15.709375 12,14.54375 C13.040625,15.709375 14.65625,17 16.721875,17 C19.63125,17 22,14.75625 22,12 C22,9.24374999 19.63125,6.99999999 16.721875,6.99999999 Z M7.27812499,14 C6.02187499,14 4.99999998,13.103125 4.99999998,12 C4.99999998,10.896875 6.02187499,9.99999999 7.27812499,9.99999999 C8.47187499,9.99999999 9.57187499,11.128125 10.215625,12 C9.57812499,12.8625 8.46874999,14 7.27812499,14 Z M16.721875,14 C15.528125,14 14.428125,12.871875 13.784375,12 C14.421875,11.1375 15.53125,9.99999999 16.721875,9.99999999 C17.978125,9.99999999 19,10.896875 19,12 C19,13.103125 17.978125,14 16.721875,14 Z" fill="#000" id="infinity"></path>
            </g>
        </g>
    </g>
</svg>
