<?xml version="1.0" encoding="UTF-8"?>
<svg width="24px" height="24px" viewBox="0 0 24 24" version="1.1" xmlns="http://www.w3.org/2000/svg" xmlns:xlink="http://www.w3.org/1999/xlink">
    <g id="Assets" stroke="none" stroke-width="1" fill="none" fill-rule="evenodd">
        <g id="Group-6" fill="#000">
            <g id="icon/social/discord">
                <path d="M20.4228571,0 C21.8434286,0 23,1.104 23,2.472 L23,24 C19.8328839,21.3284063 20.8457679,22.21275 17.1668571,18.948 L17.8331429,21.168 L3.57714286,21.168 C2.15657143,21.168 1,20.064 1,18.696 L1,2.472 C1,1.104 2.15657143,0 3.57714286,0 L20.4228571,0 Z M14.2025774,4.99991262 L14.1780822,5 L13.9863014,5.22868788 L14.2399317,5.31250776 C16.3937464,6.04943226 17.3972603,7.04295565 17.3972603,7.04295565 C14.143247,5.18309682 10.3208476,5.182762 7.16438356,6.62867403 C6.65753425,6.87152877 6.35616438,7.04295565 6.35616438,7.04295565 C6.35616438,7.04295565 7.49315068,5.91439539 9.95890411,5.17154559 L9.95890411,5.17154559 L9.82191781,5 L9.76739726,5.00034618 C9.44561644,5.0073082 7.74794521,5.11154619 5.97260274,6.50010388 C5.97260274,6.50010388 4,10.2286384 4,14.8285929 C4,14.8285929 5.15068493,16.900001 8.17808219,17 C8.17808219,17 8.68493151,16.3571492 9.09589041,15.8142974 C7.35616438,15.2714457 6.69863014,14.1285998 6.69863014,14.1285998 C6.90014983,14.2756966 7.23244863,14.4663755 7.26027397,14.4857392 C9.57245291,15.8360606 12.8568065,16.278467 15.8082192,14.9857342 C16.2876712,14.8000218 16.8219178,14.5285959 17.3835616,14.1428854 C17.3835616,14.1428854 16.6986301,15.3143024 14.9041096,15.8428686 C15.3150685,16.3857204 15.8082192,17 15.8082192,17 C18.8356164,16.900001 20,14.8285929 20,14.8285929 C20,10.2286384 18.0273973,6.50010388 18.0273973,6.50010388 C16.1863014,5.06011812 14.4287367,5.00134862 14.2025774,4.99991262 Z M14.5,10 C15.3382353,10 16,10.6756757 16,11.5 C16,12.3243243 15.3382353,13 14.5,13 C13.6764706,13 13,12.3243243 13,11.5 C13,10.6756757 13.6617647,10 14.5,10 Z M9.49988235,10 C10.3380519,10 11.0144694,10.6756757 10.9997647,11.5 C10.9997647,12.3243243 10.3380519,13 9.49988235,13 C8.67641753,13 8,12.3243243 8,11.5 C8,10.6756757 8.6617128,10 9.49988235,10 Z" id="Combined-Shape"></path>
            </g>
        </g>
    </g>
</svg>