<svg width="33" height="32" viewBox="0 0 33 32" fill="none" xmlns="http://www.w3.org/2000/svg">
<path fill-rule="evenodd" clip-rule="evenodd" d="M10.1836 16.001C10.1836 17.9388 8.61263 19.5097 6.67479 19.5097C4.73695 19.5097 3.16602 17.9388 3.16602 16.001C3.16602 14.0631 4.73695 12.4922 6.67479 12.4922C8.61263 12.4922 10.1836 14.0631 10.1836 16.001ZM20.0081 16.001C20.0081 17.9388 18.4372 19.5097 16.4993 19.5097C14.5615 19.5097 12.9906 17.9388 12.9906 16.001C12.9906 14.0631 14.5615 12.4922 16.4993 12.4922C18.4372 12.4922 20.0081 14.0631 20.0081 16.001ZM26.3239 19.5097C28.2618 19.5097 29.8327 17.9388 29.8327 16.001C29.8327 14.0631 28.2618 12.4922 26.3239 12.4922C24.3861 12.4922 22.8151 14.0631 22.8151 16.001C22.8151 17.9388 24.3861 19.5097 26.3239 19.5097Z" fill="#000"/>
</svg>
