<svg width="24" height="24" viewBox="0 0 24 24" fill="none" xmlns="http://www.w3.org/2000/svg">
<path d="M8.53125 2.69141L8.25 3.25H4.5C3.80859 3.25 3.25 3.80859 3.25 4.5C3.25 5.19141 3.80859 5.75 4.5 5.75H19.5C20.1914 5.75 20.75 5.19141 20.75 4.5C20.75 3.80859 20.1914 3.25 19.5 3.25H15.75L15.4688 2.69141C15.2578 2.26563 14.8242 2 14.3516 2H9.64844C9.17578 2 8.74219 2.26563 8.53125 2.69141ZM19.5 7H4.5L5.32812 20.2422C5.39062 21.2305 6.21094 22 7.19922 22H16.8008C17.7891 22 18.6094 21.2305 18.6719 20.2422L19.5 7Z" fill="#000"/>
</svg>

