<?xml version="1.0" encoding="UTF-8"?>
<svg width="24px" height="24px" viewBox="0 0 24 24" version="1.1"
  xmlns="http://www.w3.org/2000/svg"
  xmlns:xlink="http://www.w3.org/1999/xlink">
  <g id="Assets" stroke="none" stroke-width="1" fill="none" fill-rule="evenodd">
    <g id="assets" transform="translate(-763.000000, -1567.000000)">
      <g id="icon/save" transform="translate(763.000000, 1567.000000)">
        <rect id="bound" x="0" y="0" width="24" height="24"></rect>
        <path d="M13.9,10 L18.9,10 C19.4522847,10 19.9,10.4477153 19.9,11 L19.9,13 C19.9,13.5522847 19.4522847,14 18.9,14 L13.9,14 L13.9,19 C13.9,19.5522847 13.4522847,20 12.9,20 L10.9,20 C10.3477153,20 9.9,19.5522847 9.9,19 L9.9,14 L4.9,14 C4.34771525,14 3.9,13.5522847 3.9,13 L3.9,11 C3.9,10.4477153 4.34771525,10 4.9,10 L9.9,10 L9.9,5 C9.9,4.44771525 10.3477153,4 10.9,4 L12.9,4 C13.4522847,4 13.9,4.44771525 13.9,5 L13.9,10 Z" id="Path" fill="#000" fill-rule="evenodd"></path>
      </g>
    </g>
  </g>
</svg>