<?xml version="1.0" encoding="utf-8"?>
<svg width="24px" height="24px" version="1.1" id="Layer_1"
	xmlns:xlink="http://www.w3.org/1999/xlink" x="0px" y="0px" viewBox="0 0 24 24" style="enable-background:new 0 0 24 24;" xml:space="preserve" fill="none">
	<g id="icon_x2F_Notification" transform="translate(760.000000, 2641.000000)">
		<path id="Fill" class="st0" d="M-746-2623c0,1.1-0.9,2-2,2s-2-0.9-2-2H-746z M-741-2626c0.6,0,1,0.4,1,1s-0.4,1-1,1h-14
		c-0.6,0-1-0.4-1-1s0.4-1,1-1h0.5c0.7-0.7,1.5-1.7,1.5-3v-3c0-2.8,2.2-5,5-5s5,2.2,5,5v3c0,1.3,0.8,2.3,1.5,3H-741z" fill="#000"/>
	</g>
</svg>
