<svg width="24" height="24" viewBox="0 0 24 24" fill="none" xmlns="http://www.w3.org/2000/svg">
<path fill-rule="evenodd" clip-rule="evenodd" d="M5.24936 4.35429C5.37507 4.23361 5.54101 4.16321 5.71198 4.16321H21.6721C21.9638 4.16321 22.1096 4.5152 21.9034 4.72136L18.7506 7.87417C18.63 7.99485 18.464 8.06525 18.288 8.06525H2.32786C2.03621 8.06525 1.89039 7.71326 2.09655 7.5071L5.24936 4.35429ZM5.24936 16.1258C5.37005 16.0051 5.53598 15.9347 5.71198 15.9347H21.6721C21.9638 15.9347 22.1096 16.2867 21.9034 16.4929L18.7506 19.6457C18.63 19.7664 18.464 19.8368 18.288 19.8368H2.32786C2.03621 19.8368 1.89039 19.4848 2.09655 19.2786L5.24936 16.1258ZM18.288 10.0112C18.464 10.0112 18.63 10.0816 18.7506 10.2023L21.9034 13.3551C22.1096 13.5612 21.9638 13.9132 21.6721 13.9132H5.71198C5.53598 13.9132 5.37005 13.8428 5.24936 13.7222L2.09655 10.5693C1.89039 10.3632 2.03621 10.0112 2.32786 10.0112H18.288Z" fill="url(#paint0_linear)"/>
<defs>
<linearGradient id="paint0_linear" x1="17.7172" y1="1.011" x2="6.67151" y2="22.168" gradientUnits="userSpaceOnUse">
<stop stop-color="#00FFA3"/>
<stop offset="1" stop-color="#DC1FFF"/>
</linearGradient>
</defs>
</svg>
