<?xml version="1.0" encoding="UTF-8"?>
<svg width="24px" height="24px" viewBox="0 0 24 24" version="1.1" xmlns="http://www.w3.org/2000/svg" xmlns:xlink="http://www.w3.org/1999/xlink">
    <!-- Generator: sketchtool 52.6 (67491) - http://www.bohemiancoding.com/sketch -->
    <title></title>
    <desc>Created with sketchtool.</desc>
    <g id="🗿" stroke="none" stroke-width="1" fill="none" fill-rule="evenodd">
        <g id="Icon-Guide" transform="translate(-67.000000, -1447.000000)" fill="#CC0FE0">
            <g id="Stacked-Group-2" transform="translate(63.000000, 199.000000)">
                <g id="icon/check-bubble" transform="translate(4.000000, 1248.000000)">
                    <path d="M12,0 C18.627417,-1.21743675e-15 24,5.372583 24,12 C24,18.627417 18.627417,24 12,24 C5.372583,24 1.14697655e-14,18.627417 1.0658141e-14,12 C9.84651654e-15,5.372583 5.372583,1.21743675e-15 12,0 Z M11.5181969,16.8570713 L17.7563941,8.61159414 C17.9302707,8.38484352 18.0166494,8.08980343 17.9973401,7.79085203 C17.9780308,7.49327487 17.8541531,7.21504287 17.652945,7.02042847 C17.452763,6.82591978 17.1912951,6.7292997 16.9287078,6.753719 C16.6650011,6.77697547 16.4205104,6.92000279 16.2498986,7.14812766 L10.7417221,14.4285669 L8.47479625,11.6186562 C8.10530842,11.1599751 7.4777108,11.1278389 7.07305586,11.5465612 C6.66830763,11.9665519 6.63985679,12.6777772 7.010464,13.1363526 L10.0334361,16.8841334 C10.2211183,17.1173324 10.4870638,17.25 10.7656022,17.25 L10.7804339,17.25 C11.0646625,17.2448201 11.33294,17.1017928 11.5181969,16.8570713 Z" id="Combined-Shape"></path>
                </g>
            </g>
        </g>
    </g>
</svg>