<svg width="24" height="24" viewBox="0 0 24 24" fill="none" xmlns="http://www.w3.org/2000/svg">
<path fill-rule="evenodd" clip-rule="evenodd" d="M16.7219 7C14.6562 7 13.0406 8.29062 12 9.45625C10.9594 8.29062 9.34375 7 7.27812 7C4.36875 7 2 9.24375 2 12C2 14.7562 4.36875 17 7.27812 17C9.34375 17 10.9594 15.7094 12 14.5437C13.0406 15.7094 14.6562 17 16.7219 17C19.6313 17 22 14.7562 22 12C22 9.24375 19.6313 7 16.7219 7ZM7.27806 13.9999C6.02181 13.9999 4.99994 13.103 4.99994 11.9999C4.99994 10.8967 6.02181 9.99986 7.27806 9.99986C8.47181 9.99986 9.57181 11.128 10.2156 11.9999C9.57806 12.8624 8.46869 13.9999 7.27806 13.9999ZM16.7218 13.9999C15.5281 13.9999 14.4281 12.8717 13.7843 11.9999C14.4218 11.1374 15.5312 9.99986 16.7218 9.99986C17.9781 9.99986 19 10.8967 19 11.9999C19 13.103 17.9781 13.9999 16.7218 13.9999Z" fill="#FF0000"/>
</svg>
