<svg width="24" height="24" viewBox="0 0 24 24" fill="none" xmlns="http://www.w3.org/2000/svg">
<g id="arrowRotate">
<path id="exportLayerAbove" fill-rule="evenodd" clip-rule="evenodd" d="M20.742 13.035C21.384 12.9648 21.9231 13.5123 21.8431 14.1531L21.228 19.0737C21.1248 19.8994 20.117 20.2452 19.5286 19.6568L18.1539 18.282C16.4872 19.9487 14.1795 20.8461 11.8718 20.8461C9.56411 20.8461 7.38463 20.0769 5.58976 18.282C4.5274 17.2197 3.72913 15.8932 3.34085 14.3756C3.20554 13.8467 3.58689 13.3453 4.12677 13.2643L4.77587 13.1669C5.3034 13.0878 5.79389 13.4398 5.96756 13.9442C6.29715 14.9014 6.83098 15.8053 7.51283 16.4872C9.94873 18.923 14.0513 18.923 16.4872 16.4872L15.2693 15.2693C14.6759 14.6758 15.0334 13.6594 15.8677 13.5681L20.742 13.035ZM2.67073 4.97025C2.76199 4.13592 3.77843 3.77839 4.37191 4.37187L5.71796 5.71792C9.3077 2.25638 14.9487 2.25638 18.4103 5.71792C19.4726 6.78028 20.2709 8.10673 20.6592 9.62433C20.7945 10.1532 20.4131 10.6547 19.8733 10.7357L19.2242 10.833C18.6966 10.9121 18.2061 10.5601 18.0325 10.0557C17.7029 9.09851 17.169 8.19464 16.4872 7.51279C14.0513 5.07689 9.94873 5.07689 7.51283 7.51279L8.73068 8.73064C9.32416 9.32412 8.96663 10.3406 8.1323 10.4318L3.23824 10.9671C2.60261 11.0366 2.06592 10.4999 2.13544 9.86431L2.67073 4.97025Z" fill="#FF0000"/>
</g>
</svg>
