<svg width="24" height="24" viewBox="0 0 24 24" fill="none" xmlns="http://www.w3.org/2000/svg">
<path fill-rule="evenodd" clip-rule="evenodd" d="M14.0005 3.69912C14.0005 4.16591 13.8005 4.59803 13.4671 4.93145L7.99893 9.99947H19.9995C21.1998 9.99947 22 10.7997 22 12C22 13.2003 21.1998 13.9979 19.9995 13.9979H7.99893L13.5337 19.1326C13.8352 19.4313 14.0005 19.8981 14.0005 20.3009C14.0005 21.2318 13.1336 22 12.2667 22C11.7999 22 11.3678 21.7999 11.0664 21.4985L2.60016 13.2003C2.26674 12.8669 2 12.4668 2 12C2 11.5652 2.29875 11.0984 2.60016 10.7997L11.0344 2.53347C11.4345 2.13337 11.8666 2 12.2667 2C13.2323 2 14.0005 2.76554 14.0005 3.69912Z" fill="#FF0000"/>
</svg>
