<svg xmlns="http://www.w3.org/2000/svg" width="25" height="24" viewBox="0 0 25 24" fill="none">
<path fill-rule="evenodd" clip-rule="evenodd" d="M5.00075 2L19.9991 2C20.5928 2 21.0704 2.47763 21.0704 3.07131L21.0704 4.14262C21.0704 4.73631 20.5928 5.21393 19.9991 5.21393L5.00075 5.21393C4.40707 5.21393 3.92944 4.7363 3.92944 4.14262L3.92944 3.07131C3.92944 2.47763 4.40707 2 5.00075 2ZM17.0351 14.9249L14.1069 11.9967L14.1069 20.9287C14.1069 21.5224 13.6292 22 13.0356 22L11.9643 22C11.3706 22 10.8929 21.5224 10.8929 20.9287L10.8929 11.9967L7.9647 14.9249C7.54511 15.3445 6.86661 15.3445 6.45148 14.9249L5.69264 14.1661C5.27304 13.7465 5.27304 13.068 5.69264 12.6528L11.7411 6.59993C12.1607 6.18034 12.8392 6.18034 13.2543 6.59993L19.3072 12.6484C19.7268 13.068 19.7268 13.7465 19.3072 14.1616L18.5483 14.9204C18.1287 15.34 17.4503 15.34 17.0351 14.9249Z" fill="#FF0000"/>
</svg>
