<svg fill="none" height="48" viewBox="0 0 236 48" width="236" xmlns="http://www.w3.org/2000/svg"><g fill="#f00"><path d="m21.7426 3.00768c-.9427-1.69206-1.4151-2.538096-2.0307-2.821536-.5378-.2480126-1.1514-.2480125-1.6892-.001074-.6167.283442-1.0891 1.1284-2.0349 2.81939l-14.63333 26.17334c-.944757 1.6908-1.4181753 2.536-1.34757911 3.2294.06125391.6056.36752311 1.1553.84405511 1.514.545054.4101 1.489804.411 3.378304.4122l5.25534.0031c.69871 0 1.04861 0 1.36111-.104.2772-.0924.5315-.2447.7485-.4457.244-.2274.4194-.5399.7693-1.166l5.3758-9.6154c.0311-.0558.0654-.1084.1017-.1568.5472-.7268 1.6653-.6742 2.1294.1579l6.36 11.4085c.057.102.0985.2072.1267.3125.2201.8158-.3655 1.6856-1.2438 1.6844l-10.5336-.0074c-.6987 0-1.0486 0-1.361.1041-.2773.0923-.5316.2449-.7486.4456-.244.2277-.4194.5399-.7693 1.166l-2.63079 4.7047c-.94476 1.6909-1.41818 2.5358-1.34757 3.2295.06125.6055.36753 1.1552.84406 1.5137.54504.4103 1.4898.4113 3.3783.4125l29.0311.0193c1.8885.001 2.8322.0022 3.3782-.4082.4765-.3573.7839-.907.8453-1.5116.0703-.6936-.4009-1.5395-1.3435-3.2315z"/><path clip-rule="evenodd" d="m59.9357 37.8796c-.4205 0-.7048-.443-.5411-.8431l10.9966-26.8684c.0918-.22455.305-.37048.5411-.37048h6.4332c.2361 0 .4493.14593.5411.37048l10.9967 26.8684c.1638.4001-.1207.8431-.5412.8431h-6.7412c-.2386 0-.4537-.1492-.5439-.3776l-1.6686-4.2241c-.0902-.2281-.3053-.3773-.5439-.3773h-9.6209c-.2402 0-.4562.1508-.5455.3812l-1.633 4.2164c-.0891.2303-.3051.3814-.5453.3814zm11.4276-11.8243c-.1529.3981.1311.8304.5462.8304h4.3288c.4137 0 .6978-.4301.5469-.828l-2.1507-5.6666c-.1945-.5126-.8962-.5141-1.0928-.0025z" fill-rule="evenodd"/><path d="m107.553 38.3973c-7.6753 0-12.4964-4.0231-12.4964-12.7463v-15.0475c0-.3351.263-.60672.5875-.60672h6.4229c.325 0 .588.27162.588.60672v14.8882c0 4.0231 1.967 5.935 4.975 5.935s4.975-1.8324 4.975-5.7359v-15.0873c0-.3351.263-.60672.588-.60672h6.423c.324 0 .587.27162.587.60672v14.8484c0 9.0021-4.975 12.9454-12.65 12.9454z"/><path clip-rule="evenodd" d="m129.847 37.8796c-.325 0-.588-.2716-.588-.6068v-26.6693c0-.3351.263-.60672.588-.60672h9.826c9.641 0 15.234 5.73592 15.234 13.78212v.0795c0 8.0464-5.67 14.0212-15.389 14.0212zm6.894-7.458c0 .3351.263.6067.588.6067h2.459c4.474 0 7.444-2.5491 7.444-7.0503v-.0797c0-4.4612-2.97-7.0503-7.444-7.0503h-2.459c-.325 0-.588.2716-.588.6067z" fill-rule="evenodd"/><path d="m164.12 37.8796c-.325 0-.587-.2716-.587-.6068v-26.6693c0-.3351.262-.60672.587-.60672h6.346c.324 0 .587.27162.587.60672v26.6693c0 .3352-.263.6068-.587.6068z"/><path d="m192.773 38.3973c-7.675 0-12.496-4.0231-12.496-12.7463v-15.0475c0-.3351.263-.60672.587-.60672h6.423c.325 0 .587.27162.587.60672v14.8882c0 4.0231 1.968 5.935 4.976 5.935s4.975-1.8324 4.975-5.7359v-15.0873c0-.3351.263-.60672.588-.60672h6.422c.325 0 .588.27162.588.60672v14.8484c0 9.0021-4.975 12.9454-12.65 12.9454z"/><path d="m225.085 38.3577c-4.579 0-8.945-1.4243-12.22-4.2372-.243-.2093-.269-.5826-.065-.8335l3.432-4.2343c.205-.2525.567-.2893.823-.0924 2.543 1.9561 5.353 2.9843 8.3 2.9843 2.006 0 3.086-.717 3.086-1.9121v-.0797c0-1.155-.887-1.7923-4.551-2.6688-5.747-1.3543-10.182-3.0272-10.182-8.763v-.0797c0-5.1782 3.972-8.92251 10.452-8.92251 4.364 0 7.82 1.15241 10.67 3.35441.249.1923.298.5543.118.8162l-3.083 4.4973c-.187.2729-.552.337-.824.1543-2.333-1.5736-4.839-2.4092-7.074-2.4092-1.813 0-2.7.7967-2.7 1.7925v.0797c0 1.2746.926 1.8323 4.667 2.7086 6.21 1.3941 10.066 3.4654 10.066 8.6836v.0794c0 5.6963-4.359 9.0821-10.915 9.0821z"/></g></svg>