<svg width="48" height="48" viewBox="0 0 48 48" fill="none" xmlns="http://www.w3.org/2000/svg">
<path d="M18.6846 26.2414C18.5955 26.3954 18.4674 26.5233 18.3133 26.6122C18.1591 26.7011 17.9843 26.7479 17.8064 26.7479L9.97429 26.7422C9.79643 26.742 9.62175 26.6951 9.46777 26.6061C9.31378 26.5171 9.18593 26.3891 9.09703 26.2351C9.00813 26.0811 8.96132 25.9063 8.96129 25.7285C8.96127 25.5506 9.00803 25.3759 9.09688 25.2218L23.3894 0.50669C23.4783 0.352643 23.6062 0.224715 23.7602 0.135771C23.9142 0.0468264 24.0889 0 24.2668 0C24.4447 0 24.6194 0.0468264 24.7734 0.135771C24.9274 0.224715 25.0553 0.352643 25.1442 0.50669L45.3898 35.6281C45.4785 35.7823 45.5251 35.9571 45.5249 36.135C45.5247 36.3128 45.4778 36.4875 45.3887 36.6415C45.2996 36.7955 45.1716 36.9233 45.0175 37.0121C44.8634 37.101 44.6887 37.1477 44.5108 37.1477L16.1218 37.1289C15.9439 37.1287 15.7692 37.0816 15.6152 36.9925C15.4612 36.9034 15.3334 36.7754 15.2446 36.6212C15.1558 36.4671 15.1091 36.2923 15.1092 36.1144C15.1093 35.9365 15.1562 35.7617 15.2452 35.6077L19.1666 28.827C19.2557 28.673 19.3838 28.5451 19.5379 28.4562C19.6921 28.3673 19.8669 28.3205 20.0448 28.3205L29.2584 28.3271C29.4145 28.3273 29.5686 28.2915 29.7087 28.2224C29.8487 28.1533 29.9709 28.0529 30.0658 27.9288C30.1607 27.8048 30.2256 27.6605 30.2556 27.5073C30.2856 27.354 30.2798 27.1959 30.2387 27.0453C30.2152 26.962 30.1818 26.8819 30.139 26.8067L29.3564 25.4522L25.1336 18.1258C25.0508 17.9823 24.934 17.8613 24.7936 17.7734C24.6532 17.6855 24.4933 17.6333 24.3281 17.6215C24.1628 17.6096 23.9972 17.6384 23.8456 17.7054C23.6941 17.7724 23.5613 17.8755 23.4588 18.0057C23.4286 18.0434 23.4013 18.0832 23.3771 18.125L18.6846 26.2414Z" fill="#FF0000"/>
<path d="M43.3859 44.3393C42.595 44.1603 42.3998 44.046 42.3998 43.7854V43.769C42.3998 43.5648 42.5877 43.4022 42.9717 43.4022C43.4774 43.4022 44.0484 43.5975 44.5696 43.9643L45.3604 42.8475C44.7412 42.35 43.983 42.0894 43.0125 42.0894C41.6433 42.0894 40.8067 42.8557 40.8067 43.9153V43.9316C40.8067 45.1056 41.7446 45.4487 42.9594 45.7289C43.7339 45.9078 43.921 46.0385 43.921 46.2746V46.2909C43.921 46.536 43.693 46.6823 43.2674 46.6823C42.6065 46.6823 41.9791 46.4462 41.4162 45.9977L40.5363 47.0491C41.234 47.6732 42.1956 47.9918 43.2102 47.9918C44.599 47.9918 45.5173 47.2991 45.5173 46.1333V46.121C45.514 45.0492 44.6987 44.6252 43.3859 44.3393Z" fill="#FF0000"/>
<path fill-rule="evenodd" clip-rule="evenodd" d="M5.42961 42.1466L3 47.8938H4.66331L5.07178 46.8751H7.27182L7.68765 47.8938H9.38364L6.95403 42.1466H5.42961ZM5.53499 45.6439L6.17956 44.0215L6.81515 45.6439H5.53499Z" fill="#FF0000"/>
<path d="M15.2477 45.3997C15.2477 46.1986 14.8319 46.5736 14.1963 46.5736C13.5607 46.5736 13.1465 46.1823 13.1465 45.3588V42.1874H11.5379V45.3915C11.5379 47.1765 12.5575 48 14.1799 48C15.8024 48 16.8538 47.1929 16.8538 45.3506V42.1874H15.2477V45.3997Z" fill="#FF0000"/>
<path fill-rule="evenodd" clip-rule="evenodd" d="M19.87 42.1874H22.0717C24.11 42.1874 25.2921 43.3614 25.2921 45.0083V45.0247C25.2921 46.6684 24.0936 47.8938 22.039 47.8938H19.87V42.1874ZM22.0962 46.4895C23.0414 46.4895 23.6696 45.9674 23.6696 45.0467V45.032C23.6696 44.1187 23.0414 43.5885 22.0962 43.5885H21.4516V46.4895H22.0962Z" fill="#FF0000"/>
<path d="M29.7011 42.1874H28.1114V47.8938H29.7011V42.1874Z" fill="#FF0000"/>
<path d="M35.383 46.5736C36.0186 46.5736 36.4344 46.1986 36.4344 45.3997V42.1874H38.0406V45.3506C38.0406 47.1929 36.9891 48 35.3667 48C33.7442 48 32.7247 47.1765 32.7247 45.3915V42.1874H34.3308V45.3588C34.3308 46.1823 34.7474 46.5736 35.383 46.5736Z" fill="#FF0000"/>
</svg>
