<svg width="354" height="72" viewBox="0 0 354 72" fill="none" xmlns="http://www.w3.org/2000/svg">
<path d="M32.6138 4.51152C31.1998 1.97342 30.4913 0.704376 29.5678 0.279215C28.7611 -0.0928029 27.8408 -0.0928028 27.0341 0.277604C26.109 0.702769 25.4005 1.97021 23.9818 4.50668L2.03171 43.7667C0.614569 46.303 -0.095558 47.5708 0.0103363 48.6108C0.102217 49.5192 0.561621 50.3437 1.27642 50.8818C2.094 51.4969 3.51112 51.4983 6.34387 51.5001L14.2269 51.5048C15.2749 51.5048 15.7998 51.5048 16.2685 51.3487C16.6843 51.2101 17.0658 50.9817 17.3913 50.6802C17.7573 50.339 18.0205 49.8704 18.5453 48.9313L26.6089 34.5081C26.6556 34.4244 26.707 34.3454 26.7616 34.2729C27.5822 33.1827 29.2594 33.2616 29.9556 34.5097L39.4956 51.6226C39.5811 51.7755 39.6434 51.9333 39.6856 52.0912C40.0158 53.315 39.1373 54.6196 37.82 54.6179L22.0196 54.6068C20.9715 54.6068 20.4467 54.6068 19.978 54.7629C19.5622 54.9014 19.1806 55.1302 18.8552 55.4313C18.4892 55.7729 18.226 56.2412 17.7012 57.1803L13.755 64.2374C12.3379 66.7737 11.6277 68.0411 11.7337 69.0816C11.8255 69.9899 12.285 70.8144 12.9997 71.3522C13.8173 71.9676 15.2344 71.9691 18.0672 71.9709L61.6138 71.9999C64.4465 72.0013 65.8622 72.0031 66.6812 71.3876C67.3959 70.8517 67.857 70.0271 67.949 69.1202C68.0546 68.0798 67.3478 66.8109 65.9339 64.2729L32.6138 4.51152Z" fill="#FF0000"/>
<path fill-rule="evenodd" clip-rule="evenodd" d="M89.9035 56.8194C89.2729 56.8194 88.8464 56.1549 89.0918 55.5548L105.587 15.2522C105.725 14.9153 106.044 14.6964 106.398 14.6964H116.048C116.402 14.6964 116.722 14.9153 116.86 15.2522L133.355 55.5548C133.601 56.1549 133.174 56.8194 132.543 56.8194H122.431C122.073 56.8194 121.751 56.5956 121.615 56.253L119.113 49.9169C118.977 49.5746 118.655 49.3509 118.297 49.3509H103.865C103.505 49.3509 103.181 49.5771 103.047 49.9226L100.598 56.2472C100.464 56.5928 100.14 56.8194 99.7797 56.8194H89.9035ZM107.045 39.0829C106.816 39.6801 107.242 40.3285 107.864 40.3285H114.357C114.978 40.3285 115.404 39.6833 115.178 39.0865L111.952 30.5866C111.66 29.8178 110.607 29.8154 110.313 30.5829L107.045 39.0829Z" fill="#FF0000"/>
<path d="M161.329 57.5959C149.817 57.5959 142.585 51.5614 142.585 38.4764V15.9052C142.585 15.4026 142.979 14.9952 143.466 14.9952H153.101C153.587 14.9952 153.982 15.4026 153.982 15.9052V38.2376C153.982 44.2722 156.932 47.14 161.445 47.14C165.957 47.14 168.908 44.3914 168.908 38.5362V15.9052C168.908 15.4026 169.302 14.9952 169.789 14.9952H179.423C179.91 14.9952 180.304 15.4026 180.304 15.9052V38.1778C180.304 51.6809 172.842 57.5959 161.329 57.5959Z" fill="#FF0000"/>
<path fill-rule="evenodd" clip-rule="evenodd" d="M194.77 56.8194C194.283 56.8194 193.889 56.4119 193.889 55.9093V15.9052C193.889 15.4026 194.283 14.9952 194.77 14.9952H209.509C223.972 14.9952 232.36 23.599 232.36 35.6684V35.7876C232.36 47.8572 223.856 56.8194 209.277 56.8194H194.77ZM205.112 45.6324C205.112 46.1351 205.507 46.5425 205.993 46.5425H209.682C216.393 46.5425 220.848 42.7187 220.848 35.967V35.8474C220.848 29.1557 216.393 25.272 209.682 25.272H205.993C205.507 25.272 205.112 25.6794 205.112 26.182V45.6324Z" fill="#FF0000"/>
<path d="M246.18 56.8194C245.693 56.8194 245.299 56.4119 245.299 55.9093V15.9052C245.299 15.4026 245.693 14.9952 246.18 14.9952H255.699C256.185 14.9952 256.58 15.4026 256.58 15.9052V55.9093C256.58 56.4119 256.185 56.8194 255.699 56.8194H246.18Z" fill="#FF0000"/>
<path d="M289.159 57.5959C277.646 57.5959 270.415 51.5614 270.415 38.4764V15.9052C270.415 15.4026 270.81 14.9952 271.296 14.9952H280.931C281.417 14.9952 281.812 15.4026 281.812 15.9052V38.2376C281.812 44.2722 284.762 47.14 289.275 47.14C293.787 47.14 296.738 44.3914 296.738 38.5362V15.9052C296.738 15.4026 297.132 14.9952 297.619 14.9952H307.253C307.74 14.9952 308.134 15.4026 308.134 15.9052V38.1778C308.134 51.6809 300.671 57.5959 289.159 57.5959Z" fill="#FF0000"/>
<path d="M337.628 57.5365C330.76 57.5365 324.21 55.4002 319.298 51.1808C318.933 50.8668 318.895 50.3068 319.2 49.9305L324.348 43.5791C324.656 43.2003 325.198 43.1451 325.582 43.4405C329.397 46.3746 333.612 47.917 338.033 47.917C341.041 47.917 342.661 46.8414 342.661 45.0488V44.9292C342.661 43.1967 341.331 42.2408 335.835 40.9261C327.215 38.8946 320.562 36.3852 320.562 27.7814V27.6619C320.562 19.8946 326.521 14.2782 336.24 14.2782C342.785 14.2782 347.97 16.0068 352.245 19.3098C352.619 19.5982 352.692 20.1413 352.422 20.5341L347.797 27.2801C347.517 27.6894 346.97 27.7856 346.562 27.5115C343.062 25.1512 339.304 23.8978 335.95 23.8978C333.231 23.8978 331.901 25.0927 331.901 26.5865V26.7059C331.901 28.6179 333.289 29.4544 338.901 30.7689C348.216 32.8601 354 35.967 354 43.7942V43.9135C354 52.4579 347.462 57.5365 337.628 57.5365Z" fill="#FF0000"/>
</svg>
