<svg width="200" height="48" viewBox="0 0 200 48" fill="none" xmlns="http://www.w3.org/2000/svg">
<title>Audius Logo</title>
<path fill-rule="evenodd" clip-rule="evenodd" d="M32.2024 23.4238L27.1027 14.5433L21.3637 4.54059C21.2684 4.37613 21.1318 4.23965 20.9675 4.14479C20.8033 4.04993 20.6171 4.00001 20.4276 4.00001C20.2382 4.00001 20.052 4.04993 19.8877 4.14479C19.7235 4.23965 19.5869 4.37613 19.4916 4.54059L8.5742 23.4238L4.15808 31.1457C4.05865 31.3086 4.00417 31.4952 4.00023 31.6863C3.99629 31.8774 4.04302 32.0661 4.13564 32.2331C4.22826 32.4001 4.36343 32.5393 4.5273 32.6366C4.69117 32.7338 4.87785 32.7855 5.06818 32.7864H13.4761C13.6716 32.7895 13.8642 32.7391 14.0333 32.6406C14.2025 32.5421 14.3417 32.3992 14.4361 32.2273L18.8138 24.6694L19.4916 23.5125C19.5319 23.472 19.5723 23.4316 19.5723 23.393C19.6804 23.2515 19.8216 23.139 19.9834 23.0655C20.1452 22.992 20.3226 22.9597 20.4998 22.9716C20.677 22.9834 20.8486 23.0389 20.9993 23.1333C21.15 23.2277 21.2751 23.3579 21.3637 23.5125L25.9065 31.3944L26.7437 32.8346C26.7638 32.8741 26.7835 32.9142 26.8032 32.9542C26.8229 32.9942 26.8425 33.0342 26.8627 33.0737C26.9086 33.2359 26.9168 33.4065 26.8866 33.5723C26.8565 33.7382 26.7888 33.8949 26.6888 34.0303C26.5888 34.1658 26.4592 34.2763 26.3099 34.3535C26.1606 34.4307 25.9957 34.4724 25.8278 34.4754H15.8666C15.671 34.4717 15.4781 34.5218 15.3088 34.6204C15.1396 34.719 15.0005 34.8622 14.9065 35.0345L10.7227 42.3611C10.6273 42.5286 10.5776 42.7185 10.5788 42.9115C10.58 43.1045 10.6319 43.2938 10.7294 43.4601C10.8268 43.6265 10.9663 43.764 11.1337 43.8588C11.3012 43.9536 11.4906 44.0023 11.6828 43.9999H42.083C42.2736 43.9983 42.4606 43.9471 42.6257 43.8513C42.7908 43.7555 42.9284 43.6185 43.025 43.4534C43.1217 43.2884 43.1742 43.1011 43.1773 42.9096C43.1805 42.7182 43.1342 42.5292 43.043 42.3611L32.2024 23.4238ZM60.9284 14.1829L52.7624 33.6272H58.3805L59.736 30.1856H67.1858L68.5798 33.6272H74.3188L66.149 14.1829H60.9284ZM61.2874 26.0191L63.4398 20.5377L65.5903 26.0191H61.2874ZM90.497 29.1463C92.6494 29.1463 94.0433 27.866 94.0433 25.1841V14.3023H99.4559V25.0241C99.4559 31.2652 95.9115 33.9876 90.4528 33.9876C84.9941 33.9876 81.5668 31.1861 81.5265 25.1456V14.3023H86.9391V25.0241C86.9391 27.8255 88.3446 29.1463 90.497 29.1463ZM117.028 14.3023H109.577V33.627H116.873C123.804 33.627 127.829 29.5049 127.829 23.9039V23.8249C127.906 18.3068 123.921 14.3023 117.028 14.3023ZM122.447 23.9849C122.447 27.1045 120.335 28.8648 117.148 28.8648H114.995V19.0626H117.148C120.335 19.0626 122.447 20.8634 122.447 23.9444V23.9849ZM137.387 14.3023H142.726V33.627H137.387V14.3023ZM165.47 25.1841C165.47 27.866 164.076 29.1463 161.924 29.1463C159.771 29.1463 158.377 27.8255 158.377 25.0241V14.3023H152.966V25.1456C152.966 31.1861 156.394 33.9876 161.891 33.9876C167.35 33.9876 170.896 31.2652 170.896 25.0241V14.3023H165.47V25.1841ZM185.557 19.7029C185.557 20.584 186.235 20.9832 188.904 21.5847C193.328 22.5854 196.077 23.9851 195.998 27.7139V27.7525C195.998 31.6741 192.892 34.0341 188.23 34.0341C184.843 34.0341 181.615 32.9544 179.225 30.8335L182.212 27.2724C184.125 28.7859 186.237 29.5861 188.468 29.5861C189.902 29.5861 190.659 29.106 190.659 28.2654V28.1863C190.659 27.3862 189.985 26.9447 187.395 26.345C183.292 25.4254 180.143 24.2242 180.143 20.264V20.183C180.143 16.5834 182.973 13.9824 187.594 13.9824C190.86 13.9824 193.451 14.8635 195.522 16.5429L192.853 20.343C191.104 19.0956 189.192 18.415 187.477 18.415C186.195 18.415 185.557 18.9761 185.557 19.6567V19.7029Z" fill="#FF0000"/>
</svg>
