<svg width="24" height="24" viewBox="0 0 24 24" fill="none" xmlns="http://www.w3.org/2000/svg">
<path fill-rule="evenodd" clip-rule="evenodd" d="M20.125 15.7497H20.75C21.5 15.7497 22 16.2497 22 16.9997C22 17.7497 21.5 18.2497 20.75 18.2497H3.25C2.5 18.2497 2 17.7497 2 16.9997C2 16.2497 2.5 15.7497 3.25 15.7497H3.875C4.75 14.8747 5.75 13.6248 5.75 11.9998V8.24987C5.75 4.74994 8.5 2 12 2C15.5 2 18.25 4.74994 18.25 8.24987V11.9998C18.25 13.6248 19.25 14.8747 20.125 15.7497ZM12 22C10.625 22 9.5 20.875 9.5 19.5001H14.5C14.5 20.875 13.375 22 12 22Z" fill="#FF0000"/>
</svg>
