<svg width="24" height="24" viewBox="0 0 24 24" fill="none" xmlns="http://www.w3.org/2000/svg">
<path d="M21.9821 7.66071L19.4688 2.97768C19.2723 2.39286 18.7277 2 18.1116 2H12.7143V7.71429H21.942C21.9598 7.69196 21.9643 7.68304 21.9821 7.66071ZM2 9.14286V20.5714C2 21.3616 2.63839 22 3.42857 22H20.5714C21.3616 22 22 21.3616 22 20.5714V9.14286H2ZM15.6205 15.8036L12.3795 18.9911C12.1696 19.1964 11.8304 19.1964 11.6205 18.9911L8.37946 15.8036C7.4375 14.8795 7.49554 13.3438 8.54464 12.4911C9.45982 11.7455 10.8259 11.8795 11.6696 12.7054L12 13.0313L12.3304 12.7054C13.1696 11.8795 14.5357 11.7455 15.4554 12.4911C16.5045 13.3438 16.558 14.875 15.6205 15.8036ZM11.2857 7.71429V2H5.88839C5.27232 2 4.72768 2.39286 4.53125 2.97768L2.01786 7.66071C2.03571 7.68304 2.04018 7.69196 2.05804 7.71429H11.2857Z" fill="#FF0000"/>
</svg>
