<svg width="24" height="24" viewBox="0 0 24 24" fill="none" xmlns="http://www.w3.org/2000/svg">
<path fill-rule="evenodd" clip-rule="evenodd" d="M9.1875 2.9375C9.1875 2.41797 8.76953 2 8.25 2C7.73047 2 7.3125 2.41797 7.3125 2.9375V4.5H5.75C4.37109 4.5 3.25 5.62109 3.25 7V7.625V9.5V19.5C3.25 20.8789 4.37109 22 5.75 22H18.25C19.6289 22 20.75 20.8789 20.75 19.5V9.5V7.625V7C20.75 5.62109 19.6289 4.5 18.25 4.5H16.6875V2.9375C16.6875 2.41797 16.2695 2 15.75 2C15.2305 2 14.8125 2.41797 14.8125 2.9375V4.5H9.1875V2.9375ZM5.125 9.5H18.875V19.5C18.875 19.8438 18.5938 20.125 18.25 20.125H5.75C5.40625 20.125 5.125 19.8438 5.125 19.5V9.5ZM9.03149 14.5H7.46899C7.21118 14.5 7.00024 14.2891 7.00024 14.0312V12.4688C7.00024 12.2109 7.21118 12 7.46899 12H9.03149C9.28931 12 9.50024 12.2109 9.50024 12.4688V14.0312C9.50024 14.2891 9.28931 14.5 9.03149 14.5ZM13.2502 14.0312V12.4688C13.2502 12.2109 13.0393 12 12.7815 12H11.219C10.9612 12 10.7502 12.2109 10.7502 12.4688V14.0312C10.7502 14.2891 10.9612 14.5 11.219 14.5H12.7815C13.0393 14.5 13.2502 14.2891 13.2502 14.0312ZM17.0002 12.4688V14.0312C17.0002 14.2891 16.7893 14.5 16.5315 14.5H14.969C14.7112 14.5 14.5002 14.2891 14.5002 14.0312V12.4688C14.5002 12.2109 14.7112 12 14.969 12H16.5315C16.7893 12 17.0002 12.2109 17.0002 12.4688ZM13.2502 17.7812V16.2188C13.2502 15.9609 13.0393 15.75 12.7815 15.75H11.219C10.9612 15.75 10.7502 15.9609 10.7502 16.2188V17.7812C10.7502 18.0391 10.9612 18.25 11.219 18.25H12.7815C13.0393 18.25 13.2502 18.0391 13.2502 17.7812ZM9.50024 16.2188V17.7812C9.50024 18.0391 9.28931 18.25 9.03149 18.25H7.46899C7.21118 18.25 7.00024 18.0391 7.00024 17.7812V16.2188C7.00024 15.9609 7.21118 15.75 7.46899 15.75H9.03149C9.28931 15.75 9.50024 15.9609 9.50024 16.2188ZM17.0002 17.7812V16.2188C17.0002 15.9609 16.7893 15.75 16.5315 15.75H14.969C14.7112 15.75 14.5002 15.9609 14.5002 16.2188V17.7812C14.5002 18.0391 14.7112 18.25 14.969 18.25H16.5315C16.7893 18.25 17.0002 18.0391 17.0002 17.7812Z" fill="#FF0000"/>
</svg>
