<svg width="24" height="24" viewBox="0 0 24 24" fill="none" xmlns="http://www.w3.org/2000/svg">
<path fill-rule="evenodd" clip-rule="evenodd" d="M9.1875 2.9375C9.1875 2.41797 8.76953 2 8.25 2C7.73047 2 7.3125 2.41797 7.3125 2.9375V4.5H5.75C4.37109 4.5 3.25 5.62109 3.25 7V7.625V9.5V19.5C3.25 20.8789 4.37109 22 5.75 22H18.25C19.6289 22 20.75 20.8789 20.75 19.5V9.5V7.625V7C20.75 5.62109 19.6289 4.5 18.25 4.5H16.6875V2.9375C16.6875 2.41797 16.2695 2 15.75 2C15.2305 2 14.8125 2.41797 14.8125 2.9375V4.5H9.1875V2.9375ZM5.125 9.5H18.875V19.5C18.875 19.8438 18.5938 20.125 18.25 20.125H5.75C5.40625 20.125 5.125 19.8438 5.125 19.5V9.5ZM8 12C7.44772 12 7 12.4477 7 13V15C7 15.5523 7.44772 16 8 16H16C16.5523 16 17 15.5523 17 15V13C17 12.4477 16.5523 12 16 12H8Z" fill="#FF0000"/>
</svg>
