<svg width="24" height="24" viewBox="0 0 24 24" fill="none" xmlns="http://www.w3.org/2000/svg">
<path d="M20.75 7.3246H17.6245L15.5 4.28551C15.25 4.05187 14.8745 3.81824 14.5 3.81824H9.5C9.12545 3.81824 8.75 4.05187 8.5 4.28551L6.37455 7.3246H3.25091C2.5 7.3246 2 7.79187 2 8.49369V19.0128C2 19.7146 2.5 20.1819 3.25 20.1819H20.75C21.5 20.1819 22 19.7146 22 19.0128V8.49369C22 7.79187 21.5 7.3246 20.75 7.3246ZM12 16.9091C9.93909 16.9091 8.36364 15.3137 8.36364 13.2273C8.36364 11.141 9.93909 9.54551 12 9.54551C14.0609 9.54551 15.6364 11.141 15.6364 13.2273C15.6364 15.3137 14.0609 16.9091 12 16.9091Z" fill="#FF0000"/>
</svg>
