<svg width="24" height="24" viewBox="0 0 24 24" fill="none" xmlns="http://www.w3.org/2000/svg">
<path d="M21.9514 15.1735C22.1384 15.8818 21.7643 16.5901 21.0773 16.7826L16.6007 18.103L21.0773 19.4233C21.7643 19.6168 22.1384 20.3251 21.9514 21.0334C21.8951 21.3061 21.7465 21.5511 21.5306 21.7271C21.3147 21.903 21.0447 21.9991 20.7662 21.9991C20.6412 21.9991 20.5172 21.9991 20.3922 21.9343L12 19.4603L3.60777 21.9361C3.4837 22 3.35871 22 3.23372 22C2.95517 22.0002 2.68511 21.9042 2.46918 21.7282C2.25324 21.5522 2.10468 21.3071 2.04858 21.0343C1.86156 20.3251 2.23561 19.6177 2.92262 19.4242L7.39834 18.1039L2.92262 16.7836C2.23561 16.5901 1.86156 15.8818 2.04858 15.1744C2.23561 14.4652 2.92262 14.0791 3.60777 14.2726L12 16.7456L20.3922 14.2717C21.0792 14.0772 21.7643 14.4642 21.9514 15.1735ZM12.6361 2C12.6342 2.00093 16.4442 3.90547 16.4442 10.8885C16.4479 11.4731 16.3355 12.0527 16.1134 12.5936C15.8914 13.1344 15.5642 13.6258 15.1508 14.0393C14.7373 14.4527 14.2459 14.7799 13.7051 15.0019C13.1642 15.224 12.5846 15.3364 12 15.3327C11.4153 15.3364 10.8358 15.224 10.2949 15.0019C9.75402 14.7799 9.26262 14.4527 8.8492 14.0393C8.43578 13.6258 8.10856 13.1344 7.88652 12.5936C7.66448 12.0527 7.55205 11.4731 7.55574 10.8885C7.55574 7.46086 9.46028 5.17485 9.46028 5.17485C12.8259 8.54044 13.524 5.11189 12.6361 2Z" fill="#FF0000"/>
</svg>
