<svg width="24" height="24" viewBox="0 0 24 24" fill="none" xmlns="http://www.w3.org/2000/svg">
<path fill-rule="evenodd" clip-rule="evenodd" d="M6.21057 20.3009C6.21057 19.8341 6.43448 19.3353 6.75619 19.0339L13.736 12L6.66096 4.86743C6.37014 4.56868 6.21057 4.10189 6.21057 3.69912C6.21057 2.7682 6.95179 2 7.85 2C8.30039 2 8.7199 2.20005 9.04161 2.53348L17.2104 10.7997C17.5322 11.1011 17.7895 11.5332 17.7895 12C17.7895 12.4348 17.4987 12.9016 17.2104 13.2003L9.04161 21.4665C8.65556 21.8666 8.23605 22 7.85 22C6.95179 22 6.21057 21.2345 6.21057 20.3009Z" fill="#FF0000"/>
</svg>
