<svg width="24" height="24" viewBox="0 0 24 24" fill="none" xmlns="http://www.w3.org/2000/svg">
<path fill-rule="evenodd" clip-rule="evenodd" d="M17.7895 3.69912C17.7895 4.16591 17.5656 4.66471 17.2439 4.96612L10.2641 12L17.3391 19.1326C17.63 19.4313 17.7895 19.8981 17.7895 20.3009C17.7895 21.2318 17.0483 22 16.1501 22C15.6997 22 15.2802 21.7999 14.9585 21.4665L6.78965 13.2003C6.46794 12.8989 6.21057 12.4668 6.21057 12C6.21057 11.5652 6.5014 11.0984 6.78965 10.7997L14.9585 2.53347C15.3445 2.13337 15.764 2 16.1501 2C17.0483 2 17.7895 2.76554 17.7895 3.69912Z" fill="#FF0000"/>
</svg>
