<svg width="24" height="24" viewBox="0 0 24 24" fill="none" xmlns="http://www.w3.org/2000/svg">
<path fill-rule="evenodd" clip-rule="evenodd" d="M20.3009 17.7895C19.8341 17.7895 19.3353 17.5656 19.0339 17.2439L12 10.2641L4.86743 17.3391C4.56868 17.63 4.10189 17.7895 3.69912 17.7895C2.7682 17.7895 2 17.0483 2 16.1501C2 15.6997 2.20005 15.2802 2.53348 14.9585L10.7997 6.78965C11.1011 6.46794 11.5332 6.21057 12 6.21057C12.4348 6.21057 12.9016 6.50139 13.2003 6.78965L21.4665 14.9585C21.8666 15.3445 22 15.764 22 16.1501C22 17.0483 21.2345 17.7895 20.3009 17.7895Z" fill="#FF0000"/>
</svg>
