<svg width="24" height="24" viewBox="0 0 24 24" fill="none" xmlns="http://www.w3.org/2000/svg">
<path fill-rule="evenodd" clip-rule="evenodd" d="M3.69913 6.21057C4.16592 6.21057 4.66471 6.43448 4.96613 6.75619L12 13.736L19.1326 6.66096C19.4313 6.37014 19.8981 6.21057 20.3009 6.21057C21.2318 6.21057 22 6.95179 22 7.85C22 8.30039 21.7999 8.7199 21.4665 9.04161L13.2003 17.2104C12.8989 17.5322 12.4668 17.7895 12 17.7895C11.5652 17.7895 11.0984 17.4987 10.7997 17.2104L2.53348 9.04161C2.13337 8.65556 2 8.23605 2 7.85C2 6.95179 2.76554 6.21057 3.69913 6.21057Z" fill="#FF0000"/>
</svg>
