<svg width="24" height="24" viewBox="0 0 24 24" fill="none" xmlns="http://www.w3.org/2000/svg">
<path fill-rule="evenodd" clip-rule="evenodd" d="M12.4519 13.7554L17.9592 20.1159C18.297 20.4678 18.0859 21 17.596 21H6.40404C5.90568 21 5.70296 20.4678 6.03238 20.1159L11.5481 13.7554C11.7846 13.4807 12.2154 13.4807 12.4519 13.7554ZM11.9958 3C16.9625 3 21 7.12876 21 12.1416C21 14.6395 20.0033 16.9142 18.4069 18.5536C18.1534 18.8112 17.8832 18.8026 17.6635 18.5365L17.199 17.9957C16.9794 17.7382 17.0047 17.5236 17.2243 17.2747C18.4829 15.9528 19.2684 14.133 19.2684 12.1416C19.2684 8.11588 15.9826 4.76824 11.9958 4.76824C8.00892 4.76824 4.72313 8.11588 4.72313 12.1416C4.72313 14.133 5.51713 15.9528 6.78414 17.2918C6.99531 17.5236 7.0122 17.7382 6.79259 17.9957L6.32801 18.5193C6.11685 18.8026 5.8381 18.8112 5.59315 18.5536C3.99672 16.9142 3 14.6395 3 12.1416C3 7.12876 7.03754 3 11.9958 3ZM11.9958 5.49785C15.6025 5.49785 18.542 8.50215 18.542 12.1416C18.542 13.8841 17.8832 15.4635 16.7935 16.6567C16.5401 16.9399 16.2698 16.9142 16.0333 16.6567L15.5071 16.0703C15.3435 15.8578 15.366 15.6476 15.5687 15.4034C16.3374 14.5365 16.802 13.4034 16.802 12.1416C16.802 9.4721 14.6396 7.26609 11.9958 7.26609C9.36039 7.26609 7.19803 9.4721 7.19803 12.1416C7.19803 13.4034 7.6626 14.5365 8.42281 15.4292L8.49039 15.5166C8.64816 15.7467 8.62647 15.9518 8.43125 16.1502L7.96668 16.6567C7.73862 16.9142 7.45988 16.9399 7.20648 16.6567C6.11685 15.4635 5.458 13.8841 5.458 12.1416C5.458 8.50215 8.39747 5.49785 11.9958 5.49785ZM11.9958 7.99571C14.2426 7.99571 16.0756 9.87554 16.0756 12.1416C16.0756 13.1288 15.7461 14.03 15.1718 14.7425C14.9437 15.0429 14.6734 15.0515 14.42 14.7768L13.9301 14.2704C13.7189 14.0386 13.7189 13.8155 13.8878 13.5494C14.1835 13.1631 14.344 12.6652 14.344 12.1416C14.344 10.8455 13.2797 9.76395 11.9958 9.76395C10.7203 9.76395 9.65603 10.8455 9.65603 12.1416C9.65603 12.6652 9.81652 13.1631 10.1206 13.5665C10.2811 13.8155 10.2811 14.0386 10.0615 14.2704L9.58846 14.7682C9.32661 15.0515 9.05631 15.0343 8.8198 14.7511C8.25387 14.03 7.916 13.1288 7.916 12.1416C7.916 9.87554 9.74894 7.99571 11.9958 7.99571Z" fill="#FF0000"/>
</svg>
