<svg width="24" height="24" viewBox="0 0 24 24" fill="none" xmlns="http://www.w3.org/2000/svg">
<path d="M11.9824 2C14.7912 2 17.1606 2.96406 19.0893 4.89281C21.0293 6.83344 22.0002 9.2025 22.0002 12C22.0002 14.8097 21.0474 17.1488 19.1424 19.0175C17.1187 21.0059 14.7321 22 11.9824 22C9.27962 22 6.93462 21.0175 4.94681 19.0531C2.98274 17.0888 2.00024 14.7381 2.00024 12C2.00024 9.26219 2.98274 6.89312 4.94681 4.89312C6.87556 2.96406 9.22024 2 11.9824 2ZM12.0181 3.80375C9.74431 3.80375 7.82181 4.60156 6.25024 6.19656C4.61899 7.86344 3.80368 9.79813 3.80368 12.0003C3.80368 14.2147 4.61306 16.1316 6.23181 17.7497C7.85087 19.3691 9.77931 20.1781 12.0174 20.1781C14.2434 20.1781 16.1843 19.3634 17.839 17.7319C19.4106 16.22 20.1962 14.3094 20.1962 11.9997C20.1962 9.72594 19.3984 7.79187 17.8037 6.19625C16.2087 4.60125 14.2799 3.80375 12.0181 3.80375ZM14.6968 9.51781V13.6069H13.5543V18.4637H10.4468V13.6072H9.30431V9.51781C9.30431 9.33906 9.36681 9.1875 9.49149 9.0625C9.61681 8.93781 9.76868 8.875 9.94681 8.875H14.0543C14.2209 8.875 14.3699 8.9375 14.5006 9.0625C14.6309 9.1875 14.6968 9.33937 14.6968 9.51781ZM10.6071 6.94656C10.6071 6.00656 11.0712 5.53594 12.0002 5.53594C12.9293 5.53594 13.3931 6.00594 13.3931 6.94656C13.3931 7.875 12.9287 8.33937 12.0002 8.33937C11.0718 8.33937 10.6071 7.875 10.6071 6.94656Z" fill="#FF0000"/>
</svg>
