<svg width="24" height="24" viewBox="0 0 24 24" fill="none" xmlns="http://www.w3.org/2000/svg">
<path d="M11.982 2C14.7792 2 17.1608 2.97658 19.1249 4.9288C20.0649 5.86912 20.7796 6.94383 21.2677 8.15197C21.7556 9.36043 22.0002 10.6429 22.0002 12.0002C22.0002 13.3692 21.7587 14.6521 21.2771 15.848C20.7949 17.0443 20.0833 18.1012 19.1433 19.0178C18.1674 19.9818 17.0602 20.7203 15.8217 21.2322C14.5839 21.7441 13.3039 22 11.9826 22C10.6613 22 9.3963 21.7475 8.18784 21.2409C6.9797 20.7353 5.89624 20.0031 4.93779 19.045C3.97934 18.0868 3.25026 17.0062 2.75026 15.8037C2.25025 14.6011 2.00024 13.3336 2.00024 12.0002C2.00024 10.6786 2.25306 9.40793 2.75901 8.1876C3.26495 6.96727 4.00028 5.87506 4.96435 4.91067C6.86907 2.97064 9.20817 2 11.982 2ZM12.0182 3.80378C9.73255 3.80378 7.80971 4.6016 6.25 6.19663C5.46405 6.99445 4.85998 7.89009 4.43747 8.88417C4.01434 9.87825 3.8034 10.917 3.8034 12.0005C3.8034 13.072 4.01434 14.1049 4.43747 15.0983C4.86029 16.093 5.46405 16.9799 6.25 17.7596C7.03564 18.5396 7.92221 19.1343 8.91098 19.5456C9.89881 19.9562 10.9348 20.1615 12.0182 20.1615C13.0895 20.1615 14.1276 19.9537 15.1348 19.5368C16.1408 19.1196 17.0477 18.519 17.8577 17.7334C19.4171 16.2096 20.1965 14.2989 20.1965 12.0008C20.1965 10.8936 19.994 9.84606 19.5893 8.85792C19.1852 7.86978 18.5955 6.98914 17.8224 6.21475C16.2142 4.60754 14.2801 3.80378 12.0182 3.80378ZM11.8929 10.3398L10.5532 11.0364C10.4101 10.7392 10.2347 10.5304 10.0266 10.4114C9.81818 10.2926 9.62474 10.2329 9.44599 10.2329C8.55347 10.2329 8.10659 10.822 8.10659 12.0008C8.10659 12.5364 8.21972 12.9645 8.44566 13.2861C8.67191 13.6077 9.00535 13.7686 9.44599 13.7686C10.0294 13.7686 10.4401 13.4827 10.6785 12.9114L11.9104 13.5364C11.6485 14.0249 11.2854 14.4086 10.821 14.6883C10.3573 14.9683 9.84505 15.108 9.28536 15.108C8.39253 15.108 7.6719 14.8346 7.12439 14.2864C6.57688 13.7389 6.30312 12.977 6.30312 12.0011C6.30312 11.0486 6.58 10.2929 7.13345 9.73325C7.6869 9.17386 8.38628 8.89386 9.23192 8.89386C10.4704 8.89323 11.357 9.37543 11.8929 10.3398ZM17.6608 10.3398L16.3392 11.0364C16.1964 10.7392 16.0205 10.5304 15.8123 10.4114C15.6036 10.2926 15.4039 10.2329 15.2142 10.2329C14.3214 10.2329 13.8745 10.822 13.8745 12.0008C13.8745 12.5364 13.9879 12.9645 14.2139 13.2861C14.4398 13.6077 14.7729 13.7686 15.2142 13.7686C15.797 13.7686 16.208 13.4827 16.4458 12.9114L17.6958 13.5364C17.4224 14.0249 17.053 14.4086 16.5892 14.6883C16.1248 14.9683 15.6189 15.108 15.0714 15.108C14.1664 15.108 13.4435 14.8346 12.9023 14.2864C12.3598 13.7389 12.0892 12.977 12.0892 12.0011C12.0892 11.0486 12.3657 10.2929 12.9198 9.73325C13.4729 9.17386 14.1723 8.89386 15.0176 8.89386C16.2558 8.89323 17.1374 9.37543 17.6608 10.3398Z" fill="#FF0000"/>
</svg>
