<svg width="24" height="24" viewBox="0 0 24 24" fill="none" xmlns="http://www.w3.org/2000/svg">
<path d="M11.9821 2C14.7915 2 17.1606 2.96406 19.0893 4.8925C21.0293 6.82125 22.0002 9.19031 22.0002 12C22.0002 14.81 21.0477 17.1488 19.1424 19.0181C17.119 21.0063 14.7318 22 11.9821 22C9.26774 22 6.92274 21.0119 4.94681 19.0359C2.98274 17.0712 2.00024 14.7266 2.00024 12C2.00024 9.26188 2.98274 6.89281 4.94681 4.89281C6.87524 2.96438 9.22024 2 11.9821 2ZM4.25024 9.30375C3.95274 10.125 3.80368 11.0241 3.80368 12.0003C3.80368 14.2147 4.61306 16.1316 6.23181 17.7503C7.86274 19.3578 9.79149 20.1613 12.0174 20.1613C14.2677 20.1613 16.2077 19.3463 17.8393 17.7147C18.4227 17.1553 18.8806 16.5719 19.2137 15.9641L15.4462 14.2856C15.3146 14.9169 14.9965 15.4316 14.4909 15.83C13.984 16.2288 13.3862 16.4584 12.6959 16.5175V18.0534H11.5352V16.5175C10.4281 16.5063 9.41587 16.1075 8.49962 15.3216L9.87462 13.9288C10.529 14.5356 11.2734 14.8391 12.1068 14.8391C12.4518 14.8391 12.7468 14.7622 12.9912 14.6069C13.2349 14.4525 13.3574 14.1969 13.3574 13.8391C13.3574 13.5887 13.2677 13.3866 13.0893 13.2319L12.1252 12.8209L10.9468 12.285L9.35743 11.5884L4.25024 9.30375ZM12.0181 3.78562C9.74431 3.78562 7.82181 4.58906 6.25024 6.19625C5.85712 6.58938 5.48806 7.03562 5.14306 7.53594L8.96462 9.25C9.13118 8.72625 9.44649 8.30656 9.91118 7.99125C10.3749 7.67594 10.9168 7.50031 11.5362 7.46438V5.92844H12.6971V7.46438C13.614 7.51219 14.4471 7.82156 15.1971 8.39281L13.8934 9.73219C13.3331 9.33938 12.7624 9.14313 12.179 9.14313C11.8693 9.14313 11.5927 9.20281 11.349 9.32156C11.1049 9.44063 10.9827 9.64313 10.9827 9.92875C10.9827 10.0122 11.0124 10.0953 11.0718 10.1788L12.3396 10.7506L13.2146 11.1434L14.8221 11.8575L19.9462 14.1431C20.1134 13.4406 20.1965 12.7266 20.1965 12.0003C20.1965 9.7025 19.399 7.76813 17.804 6.19625C16.2206 4.58906 14.2912 3.78562 12.0181 3.78562Z" fill="#FF0000"/>
</svg>
