<svg width="24" height="24" viewBox="0 0 24 24" fill="none" xmlns="http://www.w3.org/2000/svg">
<path d="M19.0956 4.89969C17.1602 2.96656 14.7902 2 11.9874 2C9.21712 2 6.87274 2.96594 4.95368 4.89969C2.98431 6.9 2.00024 9.26625 2.00024 12C2.00024 14.7328 2.98431 17.0831 4.95368 19.0494C6.92274 21.0169 9.26681 22 11.9874 22C14.7402 22 17.1268 21.0078 19.1459 19.0247C21.0487 17.1412 22.0002 14.7997 22.0002 12C21.9999 9.19969 21.0318 6.8325 19.0956 4.89969ZM17.8437 17.725C16.1918 19.3581 14.2474 20.1741 12.0124 20.1741C9.77618 20.1741 7.84837 19.3656 6.22993 17.7487C4.61149 16.1319 3.80181 14.2156 3.80181 11.9997C3.80181 11.0622 3.94993 10.1756 4.24243 9.34031L6.89212 10.5134H6.70118V11.7019H7.63899C7.63899 11.87 7.62212 12.0372 7.62212 12.2044V12.4894H6.70118V13.6778H7.78899C7.93993 14.5653 8.27493 15.2853 8.72649 15.8544C9.66399 17.0934 11.1709 17.7625 12.8112 17.7625C13.8831 17.7625 14.8527 17.4447 15.4227 17.1262L15.0206 15.2687C14.669 15.4528 13.8827 15.7034 13.1131 15.7034C12.2756 15.7034 11.4893 15.4528 10.9534 14.85C10.7024 14.5656 10.5184 14.18 10.4012 13.6781H14.0406L19.2121 15.9672C18.8543 16.6016 18.3996 17.1881 17.8437 17.725ZM11.3399 12.4891L11.3181 12.4722L11.3556 12.4891H11.3399ZM14.4537 11.7016H14.6034V10.5131H11.769L10.6174 10.0037C10.7165 9.78094 10.834 9.58156 10.9709 9.42562C11.4899 8.78844 12.2262 8.52094 13.0299 8.52094C13.7665 8.52094 14.4527 8.73844 14.8877 8.9225L15.3565 7.01375C14.7534 6.74656 13.8665 6.51219 12.8456 6.51219C11.2721 6.51219 9.93274 7.14813 8.97837 8.21938C8.76649 8.46406 8.58274 8.73875 8.41618 9.02906L5.12774 7.57375C5.44649 7.09594 5.82118 6.63719 6.25524 6.19938C7.82431 4.59938 9.74274 3.79906 12.0127 3.79906C14.2815 3.79906 16.2093 4.59906 17.7946 6.19938C19.3959 7.7825 20.1968 9.71562 20.1968 12C20.1968 12.7522 20.1118 13.4619 19.9431 14.1313L14.4537 11.7016Z" fill="#FF0000"/>
</svg>
