<svg width="24" height="24" viewBox="0 0 24 24" fill="none" xmlns="http://www.w3.org/2000/svg">
<path d="M19.0965 4.89969C17.1602 2.96656 14.7915 2 11.9871 2C9.21743 2 6.87274 2.96656 4.95431 4.89969C2.98462 6.9 2.00024 9.26656 2.00024 12C2.00024 14.7331 2.98462 17.0837 4.95431 19.0503C6.92274 21.0169 9.26743 22 11.9871 22C14.7409 22 17.1274 21.0084 19.1462 19.025C21.049 17.1419 22.0002 14.7997 22.0002 12C22.0002 9.2 21.0321 6.83313 19.0965 4.89969ZM17.8443 17.725C16.1921 19.3584 14.2481 20.1747 12.0127 20.1747C9.77649 20.1747 7.84899 19.3662 6.23056 17.7494C4.61181 16.1334 3.80274 14.2166 3.80274 12C3.80274 11.1475 3.92493 10.3381 4.16649 9.56969L9.28618 11.8494H8.15962V13.4059H10.5021L10.7312 13.8813V14.6356H8.15962V16.1919H10.7312V18.4525H13.2196V16.1919H15.8074V14.7531L19.0724 16.2072C18.7381 16.7506 18.329 17.2569 17.8443 17.725ZM15.5431 14.6356H13.2202V13.8813L13.3374 13.6537L15.5431 14.6356ZM15.8077 12.5653V11.8494H14.2518L16.7909 7.17156H14.1371L12.3887 11.0428L11.4609 10.6297L9.86306 7.17156H7.20962L8.31087 9.22719L5.00899 7.75688C5.35212 7.21281 5.76649 6.69344 6.25524 6.19969C7.82399 4.59969 9.74274 3.79969 12.0127 3.79969C14.2815 3.79969 16.2093 4.59969 17.7946 6.19969C19.3965 7.78312 20.1971 9.71625 20.1971 12C20.1971 12.8459 20.0902 13.6378 19.8781 14.3772L15.8077 12.5653Z" fill="#FF0000"/>
</svg>
