<svg width="24" height="24" viewBox="0 0 24 24" fill="none" xmlns="http://www.w3.org/2000/svg">
<path d="M11.9824 2C14.7796 2 17.1484 2.97031 19.0893 4.91094C21.0293 6.83969 22.0002 9.2025 22.0002 12C22.0002 14.7981 21.0474 17.1428 19.1424 19.0356C17.1309 21.0119 14.7437 22 11.9824 22C9.27962 22 6.93462 21.0178 4.94681 19.0531C2.98274 17.0894 2.00024 14.7387 2.00024 12.0003C2.00024 9.27437 2.98274 6.91125 4.94681 4.91125C6.88712 2.97031 9.23243 2 11.9824 2ZM12.0181 3.80375C9.74431 3.80375 7.82181 4.6075 6.25024 6.21469C4.61899 7.86969 3.80368 9.79812 3.80368 12C3.80368 14.2266 4.61306 16.1428 6.23181 17.75C7.85087 19.3694 9.77931 20.1784 12.0174 20.1784C14.2434 20.1784 16.1843 19.3634 17.839 17.7322C19.4106 16.2084 20.1962 14.2981 20.1962 12C20.1962 9.71469 19.3984 7.78594 17.8037 6.21469C16.2202 4.60688 14.2915 3.80375 12.0181 3.80375ZM15.7862 9.6425V11.3569H8.51837V9.6425H15.7862ZM15.7862 12.8572V14.5706H8.51837V12.8572H15.7862Z" fill="#FF0000"/>
</svg>
