<svg width="24" height="24" viewBox="0 0 24 24" fill="none" xmlns="http://www.w3.org/2000/svg">
<path d="M11.9824 2C14.7912 2 17.1637 2.9675 19.0981 4.90187C21.0327 6.83625 22.0002 9.20219 22.0002 12C22.0002 14.7981 21.0474 17.1366 19.1424 19.0175C17.1309 21.0059 14.7437 22 11.9824 22C9.26774 22 6.92556 21.0175 4.95556 19.0531C2.98493 17.0887 2.00024 14.7381 2.00024 12C2.00024 9.26219 2.98274 6.89313 4.94681 4.89312C6.87556 2.96406 9.22024 2 11.9824 2ZM12.0093 3.80375C9.74149 3.80375 7.82149 4.60156 6.25056 6.19656C4.61931 7.85156 3.80399 9.78594 3.80399 12.0003C3.80399 14.2147 4.61337 16.1316 6.23243 17.7497C7.85149 19.3691 9.77993 20.1781 12.0181 20.1781C14.2562 20.1781 16.1965 19.3634 17.8396 17.7319C19.4112 16.2078 20.1968 14.2972 20.1968 11.9997C20.1968 9.71406 19.399 7.77969 17.8043 6.19625C16.2087 4.60125 14.2768 3.80375 12.0093 3.80375ZM7.30368 14.7144V9.17875H10.0537C11.4106 9.17875 12.0893 9.80344 12.0893 11.0538C12.0893 11.2681 12.0565 11.4731 11.9912 11.67C11.9259 11.8666 11.8124 12.0625 11.6518 12.2594C11.4912 12.4559 11.2502 12.6166 10.9287 12.7416C10.6074 12.8663 10.2265 12.9291 9.78618 12.9291H8.69681V14.7147H7.30368V14.7144ZM8.67868 10.2141V11.8928H9.85712C10.1427 11.8928 10.3571 11.8122 10.5002 11.6516C10.6434 11.4913 10.7149 11.2916 10.7149 11.0531C10.7149 10.4937 10.4171 10.2137 9.82181 10.2137H8.67899V10.2141H8.67868ZM12.464 14.7144V9.17875H14.6074C15.4881 9.17875 16.1784 9.405 16.679 9.85719C17.1784 10.3097 17.4284 11.0063 17.4284 11.9466C17.4284 12.8872 17.1781 13.5841 16.679 14.0359C16.1784 14.4881 15.4881 14.7144 14.6074 14.7144H12.464ZM13.8399 10.3394V13.5541H14.6431C15.1312 13.5541 15.4852 13.4084 15.7056 13.1162C15.9259 12.8247 16.0359 12.4353 16.0359 11.9469C16.0359 11.4587 15.9259 11.0691 15.7056 10.7772C15.4852 10.4856 15.1252 10.34 14.6252 10.34L13.8399 10.3394Z" fill="#FF0000"/>
</svg>
