<svg width="24" height="24" viewBox="0 0 24 24" fill="none" xmlns="http://www.w3.org/2000/svg">
<path d="M11.9824 2C14.7796 2 17.1484 2.97031 19.0893 4.91094C21.0293 6.83969 22.0002 9.2025 22.0002 12C22.0002 14.7981 21.0474 17.1428 19.1424 19.0356C17.1309 21.0119 14.7437 22 11.9824 22C9.27962 22 6.93462 21.0178 4.94681 19.0534C2.98274 17.0894 2.00024 14.7387 2.00024 12.0003C2.00024 9.27437 2.98274 6.91125 4.94681 4.91125C6.88712 2.97031 9.23243 2 11.9824 2ZM12.0181 3.80375C9.74431 3.80375 7.82181 4.6075 6.25024 6.21469C4.61899 7.86969 3.80368 9.79812 3.80368 12C3.80368 14.2266 4.61306 16.1428 6.23181 17.75C7.85087 19.3694 9.77931 20.1784 12.0174 20.1784C14.2434 20.1784 16.1843 19.3631 17.839 17.7322C19.4106 16.2084 20.1962 14.2978 20.1962 12C20.1962 9.71469 19.3984 7.78594 17.8037 6.21469C16.2202 4.60688 14.2915 3.80375 12.0181 3.80375ZM18.5359 12.1787L18.7324 12.2681V15.0894L18.5537 15.1781L16.1252 16.2141L16.0181 16.25L15.8931 16.2144L10.6609 14.0537L10.4821 13.9822L7.89306 15.0538L5.33962 13.9462V11.375L7.73243 10.3747L7.71462 10.3569V7.53531L10.429 6.33906L16.554 8.87469V11.3569L18.5359 12.1787ZM15.6965 15.4637V13.6966H15.6787V13.625L11.0893 11.75V13.5719L15.6787 15.465V15.4469L15.6965 15.4637ZM15.9999 13.1428L17.6077 12.4822L16.1252 11.8572L14.5537 12.5178L15.9999 13.1428ZM18.1074 14.6787V12.9469L16.3215 13.6969V15.4469L18.1074 14.6787Z" fill="#FF0000"/>
</svg>
