<svg width="24" height="24" viewBox="0 0 24 24" fill="none" xmlns="http://www.w3.org/2000/svg">
<path d="M11.9824 2C14.7912 2 17.1637 2.9675 19.0981 4.90187C21.0327 6.83625 22.0002 9.20219 22.0002 12C22.0002 14.7981 21.0474 17.1366 19.1424 19.0175C17.1309 21.0059 14.7437 22 11.9824 22C9.26774 22 6.92556 21.0175 4.95556 19.0531C2.98493 17.0887 2.00024 14.7381 2.00024 12C2.00024 9.26219 2.98274 6.89313 4.94681 4.89312C6.87556 2.96406 9.22024 2 11.9824 2ZM12.0093 3.80375C9.74149 3.80375 7.82149 4.60156 6.25056 6.19656C4.61931 7.85156 3.80399 9.78594 3.80399 12.0003C3.80399 14.2147 4.61337 16.1316 6.23243 17.7497C7.85149 19.3691 9.77993 20.1781 12.0181 20.1781C14.2562 20.1781 16.1965 19.3634 17.8396 17.7319C19.4112 16.2078 20.1968 14.2972 20.1968 11.9997C20.1968 9.71406 19.399 7.77969 17.8043 6.19625C16.2087 4.60125 14.2768 3.80375 12.0093 3.80375ZM12.1609 5.94625C12.2799 5.93438 12.3843 5.96719 12.474 6.04437C12.5631 6.12219 12.6131 6.22031 12.6252 6.33906V6.41062L12.8931 10.7319L13.0896 8.33906C13.0896 8.22 13.1312 8.11875 13.214 8.03562C13.2968 7.9525 13.399 7.91031 13.5174 7.91031C13.6365 7.91031 13.7377 7.95219 13.8215 8.03562C13.9046 8.11906 13.9465 8.22 13.9465 8.33906V8.41031L14.1777 11.6247L14.4102 9.03562C14.4218 8.92875 14.4671 8.83906 14.5446 8.76781C14.6215 8.69625 14.7137 8.66094 14.8212 8.66094C14.9287 8.66094 15.0237 8.69406 15.1068 8.75906C15.1906 8.82469 15.2381 8.91094 15.2502 9.01813L15.7146 12.9109L15.929 12.3931C16.0006 12.2144 16.1371 12.125 16.339 12.125H18.6784V12.9825H16.6246L15.8927 14.7681C15.809 14.9822 15.654 15.0719 15.4284 15.0356C15.3215 15.0238 15.2349 14.9819 15.1696 14.9106C15.1043 14.8394 15.0652 14.75 15.0537 14.6428L14.8931 13.3572L14.5896 17.0891C14.5774 17.1956 14.5327 17.2853 14.4552 17.3566C14.3777 17.4278 14.2856 17.4638 14.1781 17.4638C14.0712 17.4638 13.9762 17.4281 13.8924 17.3566C13.8093 17.285 13.7618 17.1962 13.7496 17.0891V17.0353L13.4999 13.9459L13.2856 16.8569C13.2612 16.9637 13.2106 17.0534 13.1337 17.1247C13.0562 17.1962 12.964 17.2316 12.8565 17.2316C12.7496 17.2316 12.654 17.1962 12.5709 17.1247C12.4877 17.0531 12.4396 16.9637 12.4281 16.8569V16.8031L12.1956 13.3209L11.9637 17.1425V17.1962C11.9637 17.3156 11.9215 17.4191 11.8387 17.5084C11.7559 17.5978 11.6543 17.6428 11.5352 17.6428C11.4156 17.6428 11.3149 17.5978 11.2318 17.5084C11.1481 17.4191 11.1062 17.3156 11.1062 17.1962V17.1603L10.8743 13.625L10.6599 17.0356V17.0891C10.6359 17.1966 10.5856 17.2859 10.5084 17.3569C10.4309 17.4284 10.3387 17.4641 10.2318 17.4641C10.1249 17.4641 10.0293 17.4284 9.94618 17.3569C9.86274 17.2856 9.81524 17.1962 9.80306 17.0891V17.0356H9.78556V16.9825L9.53556 13.4112L9.33899 15.6966C9.32712 15.8041 9.27931 15.8934 9.19618 15.9644C9.11274 16.0359 9.01774 16.0719 8.91056 16.0719C8.80337 16.0719 8.71087 16.0391 8.63337 15.9734C8.55587 15.9084 8.50524 15.8219 8.48149 15.7147L8.03493 12.6434L7.98149 12.75C7.91024 12.905 7.77899 12.9825 7.58837 12.9825H5.51712V12.125H7.32087L7.87431 11C7.95774 10.8097 8.10306 10.7291 8.31181 10.7587C8.51993 10.7884 8.64212 10.9047 8.67774 11.1069L8.80274 11.9281L9.14181 7.98187C9.14181 7.86281 9.18337 7.76156 9.26681 7.67844C9.35024 7.59531 9.45118 7.55313 9.57024 7.55313C9.68931 7.55313 9.79024 7.595 9.87368 7.67844C9.95712 7.76187 9.99837 7.86281 9.99837 7.98187V8.05312L10.1949 10.8391L10.4627 7.10719V7.05375C10.4743 6.94656 10.519 6.85719 10.5965 6.78594C10.6737 6.71469 10.7659 6.67906 10.8734 6.67906C10.9809 6.67906 11.0759 6.71469 11.159 6.78594C11.2427 6.8575 11.2896 6.94656 11.3018 7.05375V7.10719L11.5162 10.3572L11.7665 6.41094V6.33938C11.7665 6.2325 11.8049 6.14281 11.8824 6.07156C11.9612 6 12.0534 5.95844 12.1609 5.94625Z" fill="#FF0000"/>
</svg>
