<svg width="24" height="24" viewBox="0 0 24 24" fill="none" xmlns="http://www.w3.org/2000/svg">
<path d="M11.9824 2C14.7796 2 17.1484 2.97031 19.0893 4.91094C21.0293 6.83969 22.0002 9.2025 22.0002 12C22.0002 14.7981 21.0474 17.1428 19.1424 19.0356C17.1309 21.0119 14.7437 22 11.9824 22C9.27962 22 6.93462 21.0178 4.94681 19.0534C2.98274 17.0894 2.00024 14.7387 2.00024 12.0003C2.00024 9.27437 2.98274 6.91125 4.94681 4.91125C6.88712 2.97031 9.23243 2 11.9824 2ZM12.0181 3.80375C9.74431 3.80375 7.82181 4.6075 6.25024 6.21469C4.61899 7.86969 3.80368 9.79812 3.80368 12C3.80368 14.2266 4.61306 16.1428 6.23181 17.75C7.85087 19.3694 9.77931 20.1784 12.0174 20.1784C14.2434 20.1784 16.1843 19.3631 17.839 17.7322C19.4106 16.2084 20.1962 14.2978 20.1962 12C20.1962 9.71469 19.3984 7.78594 17.8037 6.21469C16.2202 4.60688 14.2915 3.80375 12.0181 3.80375ZM7.55368 10.5891C7.74399 9.36281 8.23774 8.41344 9.03556 7.74094C9.83306 7.06844 10.8031 6.73219 11.9462 6.73219C13.5171 6.73219 14.7677 7.23844 15.6962 8.24969C16.6246 9.26156 17.089 10.5594 17.089 12.1425C17.089 13.6784 16.6068 14.955 15.6431 15.9725C14.6781 16.99 13.4287 17.4994 11.8924 17.4994C10.7615 17.4994 9.78524 17.1603 8.96399 16.4816C8.14243 15.8028 7.64868 14.8387 7.48181 13.5887H10.0002C10.0596 14.8031 10.7918 15.4103 12.1968 15.4103C12.8987 15.4103 13.4646 15.1066 13.8931 14.4997C14.3221 13.8928 14.5365 13.0828 14.5365 12.0712C14.5365 11.0116 14.3399 10.2053 13.9474 9.65156C13.5543 9.09812 12.9893 8.82125 12.2506 8.82125C10.9168 8.82125 10.1671 9.41031 10.0006 10.5887H10.7327L8.75087 12.5709L6.76868 10.5887L7.55368 10.5891Z" fill="#FF0000"/>
</svg>
