<svg width="24" height="24" viewBox="0 0 24 24" fill="none" xmlns="http://www.w3.org/2000/svg">
<path d="M11.9877 2C9.21774 2 6.87306 2.96656 4.95368 4.9C2.98462 6.9 2.00024 9.26656 2.00024 12C2.00024 14.7338 2.98462 17.0841 4.95368 19.05C6.92274 21.0172 9.26743 22 11.9877 22C14.7412 22 17.1274 21.0084 19.1468 19.0253C21.0484 17.1416 22.0002 14.7997 22.0002 12C22.0002 9.2 21.0321 6.83344 19.0968 4.9C17.1609 2.96656 14.7915 2 11.9877 2ZM12.0127 3.79969C14.2824 3.79969 16.2096 4.59969 17.7949 6.2C19.3965 7.78312 20.1974 9.71625 20.1974 12C20.1974 14.2997 19.4137 16.2087 17.8449 17.725C16.1927 19.3588 14.2484 20.1753 12.0127 20.1753C9.77649 20.1753 7.84931 19.3659 6.23087 17.75C4.61181 16.1334 3.80243 14.2159 3.80243 12C3.80243 9.78312 4.61993 7.84969 6.25556 6.2C7.82431 4.59969 9.74306 3.79969 12.0127 3.79969Z" fill="#FF0000"/>
<path d="M16.3321 12.0909C16.1424 12.0909 15.9712 12.205 15.8993 12.38L15.7396 12.7637L15.2946 9.02031C15.2656 8.78156 15.0612 8.6025 14.8196 8.60687C14.5799 8.61156 14.3809 8.7975 14.3615 9.0375L14.1899 11.1116L13.9802 8.33593C13.9612 8.0925 13.7584 7.90281 13.514 7.90281C13.2687 7.90218 13.0649 8.09093 13.0459 8.33468L12.9049 10.1459L12.6656 6.34531C12.6499 6.09812 12.4459 5.90562 12.1974 5.90562C11.9496 5.90625 11.7452 6.09875 11.7302 6.34625L11.5243 9.72125L11.3502 7.04875C11.3343 6.80156 11.1306 6.61031 10.8834 6.61031C10.6359 6.61031 10.4315 6.80093 10.4152 7.04812L10.2024 10.2812L10.0356 7.98468C10.0171 7.74093 9.81587 7.55156 9.5718 7.54968C9.32712 7.54812 9.12212 7.73437 9.10118 7.97843L8.78899 11.6003L8.71712 11.1078C8.68649 10.9037 8.52774 10.7434 8.32337 10.7125C8.11868 10.6816 7.91899 10.7878 7.83055 10.9744L7.29993 12.0906H5.52899V13.0275H7.59618C7.77243 13.0275 7.93462 12.9281 8.01399 12.7712L8.44712 15.72C8.4818 15.9547 8.68774 16.1272 8.92462 16.12C9.16243 16.1128 9.3568 15.9281 9.37805 15.6925L9.5293 13.9359L9.75805 17.0944C9.7768 17.34 9.98118 17.5303 10.2274 17.5291C10.474 17.5284 10.6774 17.3366 10.6934 17.0916L10.8809 14.2512L11.0734 17.2087C11.0893 17.4553 11.2943 17.6469 11.5418 17.6462C11.7896 17.6462 11.9934 17.4531 12.0087 17.2066L12.2068 13.9616L12.3887 16.8559C12.4037 17.1006 12.6071 17.2928 12.8531 17.2947C13.0987 17.2969 13.3043 17.1066 13.3234 16.8622L13.5071 14.4984L13.7046 17.0959C13.7227 17.3403 13.9249 17.5287 14.169 17.5294C14.414 17.5306 14.6181 17.3431 14.6377 17.0997L14.9134 13.7544L15.0209 14.6544C15.0456 14.8669 15.2102 15.0337 15.4221 15.0637C15.634 15.0928 15.8374 14.9762 15.9187 14.7787L16.6449 13.0284H18.6809V12.0912L16.3321 12.0909ZM13.1865 12.3016H12.3018V13.1862C12.3018 13.3531 12.1668 13.4881 12.0006 13.4881C11.8337 13.4881 11.6981 13.3531 11.6981 13.1862V12.3016H10.8137C10.6471 12.3016 10.5115 12.1666 10.5115 12.0003C10.5115 11.8334 10.6471 11.6981 10.8137 11.6981H11.6981V10.8131C11.6981 10.6462 11.8337 10.5112 12.0006 10.5112C12.1668 10.5112 12.3018 10.6462 12.3018 10.8131V11.6981H13.1865C13.3531 11.6981 13.4884 11.8331 13.4884 12.0003C13.4884 12.1666 13.3531 12.3016 13.1865 12.3016Z" fill="#FF0000"/>
</svg>
