<svg width="24" height="24" viewBox="0 0 24 24" fill="none" xmlns="http://www.w3.org/2000/svg">
<path d="M11.9824 2C14.7796 2 17.1484 2.97031 19.0893 4.91094C21.0293 6.83969 22.0002 9.2025 22.0002 12C22.0002 14.7981 21.0474 17.1428 19.1424 19.0356C17.1309 21.0119 14.7437 22 11.9824 22C9.27962 22 6.93462 21.0178 4.94681 19.0534C2.98274 17.0894 2.00024 14.7387 2.00024 12.0003C2.00024 9.27437 2.98274 6.91125 4.94681 4.91125C6.88712 2.97031 9.23243 2 11.9824 2ZM12.0181 3.80375C9.74431 3.80375 7.82181 4.6075 6.25024 6.21469C4.61899 7.86969 3.80368 9.79812 3.80368 12C3.80368 14.2266 4.61306 16.1428 6.23181 17.75C7.85087 19.3694 9.77931 20.1784 12.0174 20.1784C14.2434 20.1784 16.1843 19.3631 17.839 17.7322C19.4106 16.2084 20.1962 14.2978 20.1962 12C20.1962 9.71469 19.3984 7.78594 17.8037 6.21469C16.2202 4.60688 14.2915 3.80375 12.0181 3.80375ZM16.0896 9.14281C16.244 9.14281 16.3752 9.19625 16.4821 9.30313C16.5896 9.41031 16.6434 9.54156 16.6434 9.69625V17.0531C16.6434 17.2078 16.5896 17.3387 16.4821 17.4456C16.3752 17.5528 16.244 17.6069 16.0896 17.6069H10.6431C10.4881 17.6069 10.3574 17.5534 10.2499 17.4456C10.1424 17.3384 10.0893 17.2078 10.0893 17.0531V14.8741H7.91087C7.75556 14.8741 7.62493 14.8209 7.51774 14.7137C7.41087 14.6069 7.35712 14.4759 7.35712 14.3206V6.96438C7.35712 6.82125 7.40431 6.69938 7.50024 6.59844C7.59493 6.4975 7.71431 6.435 7.85712 6.41094H7.91056H13.3568C13.5112 6.41094 13.6424 6.46438 13.7499 6.57156C13.8568 6.67844 13.9106 6.81 13.9106 6.96469V9.14344H16.0896V9.14281ZM8.44649 13.7856H10.0893V9.69625C10.0893 9.55344 10.1365 9.43156 10.2324 9.33031C10.3274 9.22969 10.4409 9.16687 10.5715 9.14281H10.6427H12.8215V7.51781H8.44649V13.7856ZM15.5537 10.2319H11.1787V16.5H15.5537V10.2319Z" fill="#FF0000"/>
</svg>
