<svg width="24" height="24" viewBox="0 0 24 24" fill="none" xmlns="http://www.w3.org/2000/svg">
<path d="M12.0002 6.24393C8.69869 6.24393 7.86837 9.35924 7.86837 12.0002C7.86837 14.6414 8.69837 17.7564 12.0002 17.7564C15.3015 17.7564 16.1318 14.6414 16.1318 12.0002C16.1318 9.35924 15.3015 6.24393 12.0002 6.24393ZM12.0002 8.41455C12.1343 8.41455 12.2565 8.43518 12.3715 8.46362C12.6093 8.66862 12.7256 8.95143 12.4974 9.3458L10.2987 13.3864C10.2312 12.8752 10.2215 12.3739 10.2215 11.9999C10.2215 10.8367 10.3021 8.41455 12.0002 8.41455ZM13.6459 10.2774C13.7624 10.8974 13.779 11.5449 13.779 12.0002C13.779 13.1636 13.6984 15.5861 12.0009 15.5861C11.8671 15.5861 11.744 15.5721 11.6296 15.5436C11.6077 15.5371 11.5877 15.5302 11.5665 15.5227C11.5315 15.5127 11.4946 15.5014 11.4615 15.4883C11.0834 15.3274 10.8452 15.0364 11.1884 14.5217L13.6459 10.2774Z" fill="#FF0000"/>
<path d="M11.9793 2.00018C9.20525 2.00018 6.86712 2.96581 4.96243 4.90643C3.99774 5.87112 3.26149 6.97112 2.74931 8.19768C2.24931 9.41237 2.00024 10.6786 2.00024 12.0002C2.00024 13.3339 2.24931 14.6002 2.74931 15.8027C3.24931 17.0058 3.97462 18.0877 4.92712 19.0514C5.89118 20.0042 6.97368 20.7386 8.17649 21.2505C9.39087 21.7511 10.6574 21.9999 11.9793 21.9999C13.3009 21.9999 14.5856 21.7417 15.824 21.2296C17.0621 20.7174 18.1665 19.9814 19.1431 19.0167C20.084 18.1002 20.7959 17.0489 21.2718 15.8586C21.7596 14.6564 22.0002 13.3699 22.0002 12.0002C22.0002 10.643 21.7596 9.35831 21.2721 8.1555C20.784 6.94143 20.0696 5.868 19.1293 4.92737C17.1643 2.97487 14.7768 2.00018 11.9793 2.00018ZM12.0212 3.79987C14.2831 3.79987 16.2124 4.60175 17.8193 6.20893C18.5934 6.983 19.1865 7.86831 19.5912 8.85612C19.9962 9.84424 20.2002 10.893 20.2002 12.0002C20.2002 14.2983 19.414 16.2046 17.8546 17.7283C17.0446 18.5146 16.1352 19.118 15.1234 19.5349C14.1234 19.9517 13.0927 20.158 12.0212 20.158C10.9374 20.158 9.89993 19.9539 8.91212 19.5492C7.92368 19.1324 7.03681 18.5374 6.25087 17.763C5.46493 16.9774 4.85868 16.0902 4.43024 15.1017C4.01368 14.1021 3.79993 13.0711 3.79993 11.9996C3.79993 10.9161 4.01368 9.87862 4.43024 8.8905C4.85868 7.8905 5.46524 6.99237 6.25087 6.19425C7.81024 4.59956 9.73524 3.79987 12.0212 3.79987Z" fill="#FF0000"/>
</svg>
