<svg width="24" height="24" viewBox="0 0 24 24" fill="none" xmlns="http://www.w3.org/2000/svg">
<path fill-rule="evenodd" clip-rule="evenodd" d="M5.86641 2.48978L12 8.62211L18.1336 2.48978C18.7866 1.83674 19.8454 1.83674 20.4985 2.48978L21.5102 3.50153C22.1633 4.15458 22.1633 5.21337 21.5102 5.86641L15.3779 12L21.5102 18.1336C22.1633 18.7866 22.1633 19.8454 21.5102 20.4985L20.4985 21.5102C19.8454 22.1633 18.7866 22.1633 18.1336 21.5102L12 15.3779L5.86641 21.5102C5.21337 22.1633 4.15458 22.1633 3.50153 21.5102L2.48978 20.4985C1.83674 19.8454 1.83674 18.7866 2.48978 18.1336L8.62211 12L2.48978 5.86641C1.83674 5.21337 1.83674 4.15458 2.48978 3.50153L3.50153 2.48978C4.15458 1.83674 5.21337 1.83674 5.86641 2.48978Z" fill="#FF0000"/>
</svg>
