<svg width="24" height="24" viewBox="0 0 24 24" fill="none" xmlns="http://www.w3.org/2000/svg">
<path fill-rule="evenodd" clip-rule="evenodd" d="M12 3C8.64858 3 5.7973 4.98074 5.10865 8.26517C2.83192 9.213 1 11.2215 1 14C1 15.847 1.85706 17.5901 3.11911 18.859C4.3819 20.1287 6.12639 21 8 21H17C20.3078 21 23 18.2545 23 15C23 12.4046 21.1513 10.2069 18.9679 9.28466C18.6389 5.65366 15.812 3 12 3ZM6.99265 9.12098C7.29782 6.61705 9.30534 5 12 5C14.9418 5 17 7.10017 17 10V10.7515L17.7218 10.9605C19.5029 11.4763 21 13.1881 21 15C21 17.1609 19.1922 19 17 19H8C6.74861 19 5.4931 18.4098 4.53714 17.4487C3.58044 16.4868 3 15.23 3 14C3 12.0877 4.34899 10.5944 6.31184 9.95013L6.91576 9.75193L6.99265 9.12098Z" fill="#FF0000"/>
<path fill-rule="evenodd" clip-rule="evenodd" d="M14.5512 10C14.7721 10 14.9512 10.1919 14.9512 10.4286V15.5714C14.9512 15.8081 14.7721 16 14.5512 16H13.3512C13.1303 16 12.9512 15.8081 12.9512 15.5714V10.4286C12.9512 10.1919 13.1303 10 13.3512 10H14.5512Z" fill="#FF0000"/>
<path fill-rule="evenodd" clip-rule="evenodd" d="M10.6 10C10.8209 10 11 10.1919 11 10.4286V15.5714C11 15.8081 10.8209 16 10.6 16H9.4C9.17909 16 9 15.8081 9 15.5714V10.4286C9 10.1919 9.17909 10 9.4 10H10.6Z" fill="#FF0000"/>
</svg>
