<svg width="24" height="24" viewBox="0 0 24 24" fill="none" xmlns="http://www.w3.org/2000/svg">
<path fill-rule="evenodd" clip-rule="evenodd" d="M12 4C15.5 4 18 6.55385 18 10C20.125 10.6154 22 12.6615 22 15C22 17.7077 19.75 20 17 20H8C4.875 20 2 17.0769 2 14C2 11.5385 3.75 9.73846 6 9C6.375 5.92308 8.875 4 12 4ZM8.15547 11.7326L11.6277 8.15772C11.832 7.94743 12.168 7.94743 12.3723 8.15772L15.8445 11.7326C16.1773 12.0752 15.9401 12.6586 15.4723 12.6586H13.3177V16.4573C13.3177 16.7558 13.0806 17 12.7906 17H11.2094C10.9194 17 10.6823 16.7558 10.6823 16.4573V12.6586H8.52774C8.05994 12.6586 7.82274 12.0752 8.15547 11.7326Z" fill="#FF0000"/>
</svg>
