<svg width="82" height="20" viewBox="0 0 82 20" fill="none" xmlns="http://www.w3.org/2000/svg">
<path fill-rule="evenodd" clip-rule="evenodd" d="M5.4668 3.19961C6.70904 3.10013 7.95758 3.10013 9.19987 3.19961L9.60026 3.23151C10.0934 3.27084 10.5715 3.4197 11 3.66641C11.4285 3.91311 11.7967 4.25166 12.0775 4.65795L12.3053 4.98542C13.0124 6.00893 13.6367 7.08689 14.1719 8.20938L14.3444 8.5694C14.5566 9.01502 14.6667 9.50248 14.6667 9.99584C14.6666 10.4892 14.5567 10.9767 14.3444 11.4223L14.1719 11.7836C13.6367 12.9061 13.0124 13.9841 12.3053 15.0076L12.0775 15.3376C11.7971 15.7447 11.4292 16.0843 11.0007 16.3318C10.5722 16.5793 10.0937 16.7282 9.60026 16.768L9.19987 16.8005C7.95758 16.9 6.70904 16.9 5.4668 16.8005L5.06641 16.768C4.57326 16.7287 4.09513 16.5804 3.66667 16.3337C3.23822 16.087 2.86996 15.7484 2.58919 15.3422L2.36133 15.0121C1.65425 13.9886 1.02998 12.9101 0.494792 11.7875L0.322266 11.4262C0.109998 10.9806 0 10.4931 0 9.99974C4.01541e-05 9.50652 0.110065 9.01946 0.322266 8.57396L0.494792 8.21263C1.02998 7.09009 1.65425 6.01159 2.36133 4.98802L2.58919 4.65795C2.86996 4.25166 3.2382 3.91311 3.66667 3.66641C4.09514 3.4197 4.57324 3.27083 5.06641 3.23151L5.4668 3.19961ZM8.50391 5.73542C7.72483 5.67304 6.94181 5.67303 6.16276 5.73542L5.91211 5.7556C5.60279 5.78025 5.30259 5.87365 5.03385 6.02839C4.76517 6.18311 4.53414 6.39535 4.35807 6.65013L4.21549 6.85716C3.77207 7.49906 3.38056 8.17533 3.04492 8.8793L2.93685 9.10586C2.80369 9.38534 2.73439 9.69096 2.73437 10.0004C2.73437 10.3099 2.80368 10.6154 2.93685 10.8949L3.04492 11.1215C3.38057 11.8255 3.77205 12.5017 4.21549 13.1436L4.35807 13.3507C4.53417 13.6055 4.76512 13.8183 5.03385 13.973C5.30257 14.1277 5.60284 14.2206 5.91211 14.2452L6.16276 14.2654C6.94181 14.3278 7.72483 14.3277 8.50391 14.2654L8.75521 14.2452C9.06466 14.2202 9.36479 14.1269 9.63346 13.9717C9.90218 13.8165 10.1328 13.6033 10.3086 13.348L10.4518 13.141C10.8953 12.4991 11.2867 11.8229 11.6224 11.1189L11.7305 10.8923C11.8636 10.6128 11.9323 10.3072 11.9323 9.99779C11.9323 9.68837 11.8636 9.38273 11.7305 9.10326L11.6224 8.87735C11.2868 8.17336 10.8953 7.49712 10.4518 6.85521L10.3086 6.65013C10.1325 6.39538 9.90148 6.18308 9.63281 6.02839C9.36414 5.87372 9.06441 5.78026 8.75521 5.7556L8.50391 5.73542Z" fill="url(#paint0_linear_48_13472)"/>
<path d="M26.7013 12.032L27.6493 12.68C26.9893 13.58 25.8973 14.216 24.4093 14.216C21.8053 14.216 19.9333 12.356 19.9333 9.74001C19.9333 7.08801 21.8773 5.28801 24.4573 5.28801C25.6213 5.28801 26.8813 5.74401 27.5053 6.60801L26.5693 7.32801C26.1613 6.75201 25.3333 6.33201 24.4573 6.33201C22.4893 6.33201 21.2293 7.88001 21.2293 9.74001C21.2293 11.648 22.4653 13.16 24.4213 13.16C25.3693 13.16 26.1973 12.764 26.7013 12.032Z" fill="url(#paint1_linear_48_13472)"/>
<path d="M34.4208 11.144C34.4208 12.896 33.0888 14.156 31.3488 14.156C29.6088 14.156 28.2888 12.896 28.2888 11.144C28.2888 9.39201 29.6088 8.15601 31.3488 8.15601C33.0888 8.15601 34.4208 9.39201 34.4208 11.144ZM33.2448 11.144C33.2448 10.064 32.5728 9.09201 31.3488 9.09201C30.1368 9.09201 29.4528 10.064 29.4528 11.144C29.4528 12.224 30.1368 13.208 31.3488 13.208C32.5728 13.208 33.2448 12.224 33.2448 11.144Z" fill="url(#paint2_linear_48_13472)"/>
<path d="M37.125 8.31201V14H35.997V8.31201H37.125ZM37.317 6.26001C37.317 6.66801 36.969 6.98001 36.561 6.98001C36.153 6.98001 35.817 6.65601 35.817 6.26001C35.817 5.85201 36.153 5.52801 36.561 5.52801C36.969 5.52801 37.317 5.84001 37.317 6.26001Z" fill="url(#paint3_linear_48_13472)"/>
<path d="M39.0425 8.31201H40.1105C40.1345 8.60001 40.1585 9.00801 40.1585 9.24801H40.1945C40.4705 8.63601 41.2265 8.15601 42.0425 8.15601C43.5065 8.15601 44.1665 9.20001 44.1665 10.472V14H43.0385V10.844C43.0385 9.92001 42.7865 9.10401 41.7425 9.10401C40.8545 9.10401 40.2185 9.84801 40.2185 10.976V14H39.0905V9.53601C39.0905 9.23601 39.0785 8.68401 39.0425 8.31201Z" fill="url(#paint4_linear_48_13472)"/>
<path d="M56.3709 6.39201L55.5429 7.25601C55.0389 6.70401 54.2109 6.33201 53.2389 6.33201C51.2469 6.33201 49.9989 7.88001 49.9989 9.74001C49.9989 11.636 51.2469 13.148 53.2749 13.148C54.0669 13.148 54.7629 12.992 55.2549 12.728V10.364H53.3709V9.35601H56.4309V13.472C55.5429 13.952 54.4869 14.216 53.2389 14.216C50.5869 14.216 48.7029 12.356 48.7029 9.74001C48.7029 7.08801 50.6469 5.28801 53.2269 5.28801C54.5709 5.28801 55.6749 5.72001 56.3709 6.39201Z" fill="url(#paint5_linear_48_13472)"/>
<path d="M61.9547 10.472V10.316C61.9547 9.47601 61.3907 9.06801 60.5507 9.06801C59.9147 9.06801 59.3147 9.34401 58.9307 9.72801L58.3307 9.00801C58.8827 8.48001 59.7347 8.15601 60.6587 8.15601C62.2907 8.15601 63.0347 9.12801 63.0347 10.388V12.872C63.0347 13.256 63.0587 13.724 63.1187 14H62.0987C62.0387 13.748 62.0027 13.448 62.0027 13.184H61.9667C61.5587 13.796 60.9107 14.144 60.0587 14.144C59.1587 14.144 57.9947 13.7 57.9947 12.392C57.9947 10.676 60.0347 10.472 61.9547 10.472ZM61.9547 11.288H61.6787C60.5627 11.288 59.1467 11.408 59.1467 12.368C59.1467 13.04 59.7467 13.256 60.3107 13.256C61.3667 13.256 61.9547 12.548 61.9547 11.588V11.288Z" fill="url(#paint6_linear_48_13472)"/>
<path d="M67.5854 8.31201V9.23601H66.0734V12.2C66.0734 12.884 66.3134 13.16 66.8774 13.16C67.0814 13.16 67.3454 13.112 67.5374 13.016L67.5734 13.94C67.3094 14.036 66.9614 14.096 66.6134 14.096C65.5454 14.096 64.9574 13.496 64.9574 12.32V9.23601H63.8654V8.31201H64.9574V6.68001H66.0734V8.31201H67.5854Z" fill="url(#paint7_linear_48_13472)"/>
<path d="M69.5306 10.652H72.9146C72.8906 9.75201 72.3626 9.04401 71.3186 9.04401C70.3466 9.04401 69.6026 9.76401 69.5306 10.652ZM74.0546 11.108C74.0546 11.228 74.0546 11.36 74.0426 11.492H69.5306C69.5667 12.464 70.3826 13.22 71.3786 13.22C72.1466 13.22 72.7106 12.836 73.0346 12.356L73.8266 12.992C73.2146 13.784 72.3867 14.156 71.3786 14.156C69.6507 14.156 68.3786 12.956 68.3786 11.168C68.3786 9.39201 69.6507 8.15601 71.3186 8.15601C72.9986 8.15601 74.0546 9.29601 74.0546 11.108Z" fill="url(#paint8_linear_48_13472)"/>
<path d="M80.1656 13.1C79.7336 13.784 78.9176 14.156 78.1136 14.156C76.3616 14.156 75.2456 12.812 75.2456 11.144C75.2456 9.46401 76.3976 8.15601 78.1016 8.15601C79.0256 8.15601 79.7336 8.61201 80.1296 9.16401H80.1535V4.92801H81.2816V14H80.1896V13.1H80.1656ZM76.4216 11.144C76.4216 12.212 77.0695 13.208 78.3055 13.208C79.4576 13.208 80.2256 12.248 80.2256 11.156C80.2256 10.064 79.4576 9.09201 78.3055 9.09201C77.0695 9.09201 76.4216 10.076 76.4216 11.144Z" fill="url(#paint9_linear_48_13472)"/>
<defs>
<linearGradient id="paint0_linear_48_13472" x1="-12.3563" y1="1.23603" x2="63.8101" y2="-38.1893" gradientUnits="userSpaceOnUse">
<stop stop-color="#CC0FE0"/>
<stop offset="0.5" stop-color="#7E1BCC"/>
<stop offset="1" stop-color="#1BA1F1"/>
</linearGradient>
<linearGradient id="paint1_linear_48_13472" x1="-12.3563" y1="1.23603" x2="63.8101" y2="-38.1893" gradientUnits="userSpaceOnUse">
<stop stop-color="#CC0FE0"/>
<stop offset="0.5" stop-color="#7E1BCC"/>
<stop offset="1" stop-color="#1BA1F1"/>
</linearGradient>
<linearGradient id="paint2_linear_48_13472" x1="-12.3563" y1="1.23603" x2="63.8101" y2="-38.1893" gradientUnits="userSpaceOnUse">
<stop stop-color="#CC0FE0"/>
<stop offset="0.5" stop-color="#7E1BCC"/>
<stop offset="1" stop-color="#1BA1F1"/>
</linearGradient>
<linearGradient id="paint3_linear_48_13472" x1="-12.3563" y1="1.23603" x2="63.8101" y2="-38.1893" gradientUnits="userSpaceOnUse">
<stop stop-color="#CC0FE0"/>
<stop offset="0.5" stop-color="#7E1BCC"/>
<stop offset="1" stop-color="#1BA1F1"/>
</linearGradient>
<linearGradient id="paint4_linear_48_13472" x1="-12.3563" y1="1.23603" x2="63.8101" y2="-38.1893" gradientUnits="userSpaceOnUse">
<stop stop-color="#CC0FE0"/>
<stop offset="0.5" stop-color="#7E1BCC"/>
<stop offset="1" stop-color="#1BA1F1"/>
</linearGradient>
<linearGradient id="paint5_linear_48_13472" x1="-12.3563" y1="1.23603" x2="63.8101" y2="-38.1893" gradientUnits="userSpaceOnUse">
<stop stop-color="#CC0FE0"/>
<stop offset="0.5" stop-color="#7E1BCC"/>
<stop offset="1" stop-color="#1BA1F1"/>
</linearGradient>
<linearGradient id="paint6_linear_48_13472" x1="-12.3563" y1="1.23603" x2="63.8101" y2="-38.1893" gradientUnits="userSpaceOnUse">
<stop stop-color="#CC0FE0"/>
<stop offset="0.5" stop-color="#7E1BCC"/>
<stop offset="1" stop-color="#1BA1F1"/>
</linearGradient>
<linearGradient id="paint7_linear_48_13472" x1="-12.3563" y1="1.23603" x2="63.8101" y2="-38.1893" gradientUnits="userSpaceOnUse">
<stop stop-color="#CC0FE0"/>
<stop offset="0.5" stop-color="#7E1BCC"/>
<stop offset="1" stop-color="#1BA1F1"/>
</linearGradient>
<linearGradient id="paint8_linear_48_13472" x1="-12.3563" y1="1.23603" x2="63.8101" y2="-38.1893" gradientUnits="userSpaceOnUse">
<stop stop-color="#CC0FE0"/>
<stop offset="0.5" stop-color="#7E1BCC"/>
<stop offset="1" stop-color="#1BA1F1"/>
</linearGradient>
<linearGradient id="paint9_linear_48_13472" x1="-12.3563" y1="1.23603" x2="63.8101" y2="-38.1893" gradientUnits="userSpaceOnUse">
<stop stop-color="#CC0FE0"/>
<stop offset="0.5" stop-color="#7E1BCC"/>
<stop offset="1" stop-color="#1BA1F1"/>
</linearGradient>
</defs>
</svg>
