<svg width="200" height="37" viewBox="0 0 200 37" fill="none" xmlns="http://www.w3.org/2000/svg">
<path d="M40.3654 10.573C33.0579 10.573 27.4032 16.0912 27.4032 23.5365C27.4032 30.9817 32.9709 36.5 40.3654 36.5C47.7599 36.5 53.4145 30.8942 53.4145 23.5365C53.4145 16.1788 47.8469 10.573 40.3654 10.573ZM40.4524 31.1569C36.2766 31.1569 33.3188 27.9161 33.3188 23.5365C33.3188 19.1569 36.2766 15.9161 40.4524 15.9161C44.6281 15.9161 47.6729 19.1569 47.6729 23.5365C47.6729 27.9161 44.5411 31.1569 40.4524 31.1569ZM54.9804 16.2664H58.5472V36.062H64.3758V11.0985H54.9804V16.2664ZM12.8752 15.9161C15.92 15.9161 18.3558 17.7555 19.2258 20.5584H25.3154C24.1844 14.6022 19.3127 10.4854 12.8752 10.4854C5.65463 10.573 0 16.0912 0 23.5365C0 30.9817 5.56764 36.5 12.9622 36.5C19.2257 36.5 24.1844 32.4708 25.3154 26.427H19.2258C18.3558 29.2299 15.92 31.1569 12.9622 31.1569C8.78643 31.1569 5.82862 27.9161 5.82862 23.5365C5.82862 19.1569 8.69944 15.9161 12.8752 15.9161ZM164.68 21.1715L160.418 20.5584C158.417 20.2956 156.938 19.5949 156.938 18.0182C156.938 16.2664 158.852 15.3905 161.375 15.3905C164.158 15.3905 165.985 16.6168 166.333 18.5438H171.901C171.292 13.5511 167.464 10.573 161.549 10.573C155.459 10.573 151.37 13.7263 151.37 18.1934C151.37 22.3978 153.98 24.9379 159.374 25.6387L163.636 26.2518C165.724 26.5146 166.855 27.3905 166.855 28.8796C166.855 30.8941 164.854 31.6825 162.07 31.6825C158.678 31.6825 156.764 30.281 156.416 28.1788H150.761C151.283 33.0839 155.111 36.5 161.983 36.5C168.247 36.5 172.51 33.6095 172.51 28.6168C172.51 24.1496 169.465 21.8723 164.68 21.1715ZM61.505 0.762776C59.4171 0.762776 57.7642 2.33942 57.7642 4.44161C57.7642 6.54379 59.3301 8.12043 61.505 8.12043C63.5929 8.12043 65.2458 6.54379 65.2458 4.44161C65.2458 2.33942 63.5929 0.762776 61.505 0.762776ZM146.238 19.5949C146.238 14.1642 142.932 10.573 136.059 10.573C129.535 10.573 125.881 13.9015 125.098 18.9818H130.839C131.1 16.9672 132.666 15.3905 135.972 15.3905C138.93 15.3905 140.322 16.7044 140.322 18.281C140.322 20.3832 137.712 20.9088 134.406 21.2591C129.97 21.7847 124.489 23.2737 124.489 29.0547C124.489 33.5219 127.795 36.4124 133.101 36.4124C137.277 36.4124 139.8 34.6606 141.105 31.9452C141.279 34.3978 143.106 35.9744 145.716 35.9744H149.108V30.8066H146.238V19.5949ZM140.496 25.9015C140.496 29.2299 137.625 31.6825 134.058 31.6825C131.883 31.6825 130.057 30.8066 130.057 28.792C130.057 26.3394 133.014 25.6387 135.711 25.3759C138.321 25.1131 139.713 24.5876 140.496 23.4489V25.9015ZM109.874 10.573C106.655 10.573 103.958 11.8869 102.044 14.1642V0.5H96.3027V35.9744H101.957V32.7336C103.871 35.0985 106.655 36.5 109.874 36.5C116.833 36.5 122.053 30.9817 122.053 23.5365C122.053 16.0912 116.746 10.573 109.874 10.573ZM109.004 31.1569C104.828 31.1569 101.87 27.9161 101.87 23.5365C101.87 19.1569 104.915 15.9161 109.091 15.9161C113.267 15.9161 116.224 19.1569 116.224 23.5365C116.224 27.9161 113.18 31.1569 109.004 31.1569ZM82.4706 10.573C78.7299 10.573 76.294 12.1496 74.8151 14.2518V11.0109H69.0735V35.9744H74.8151V22.3978C74.8151 18.5438 77.251 15.9161 80.8177 15.9161C84.1235 15.9161 86.2114 18.281 86.2114 21.6971V35.9744H91.953V21.2591C91.953 15.0401 88.7342 10.573 82.4706 10.573ZM200 22.7482C200 15.5657 194.78 10.573 187.821 10.573C180.426 10.573 174.946 16.1788 174.946 23.5365C174.946 31.3321 180.774 36.5 187.908 36.5C193.91 36.5 198.608 32.9088 199.826 27.8285H193.823C192.953 30.0182 190.866 31.3321 187.995 31.3321C184.254 31.3321 181.47 29.0547 180.861 24.9379H200V22.7482ZM181.209 20.8212C182.166 17.3175 184.689 15.6533 187.734 15.6533C191.04 15.6533 193.475 17.4927 194.084 20.8212H181.209Z" fill="#FF0000"/>
</svg>
