<svg width="24" height="24" viewBox="0 0 24 24" fill="none" xmlns="http://www.w3.org/2000/svg">
<path d="M21.5399 2.28725C21.8289 2.52158 21.9968 2.87697 21.9968 3.25189V8.87569C21.9968 9.91062 20.876 10.7503 19.4973 10.7503C18.1187 10.7503 16.9979 9.91062 16.9979 8.87569C16.9979 7.84075 18.1187 7.00109 19.4973 7.00109V4.775L15.7481 5.52484V10.1254C15.7481 11.1604 14.6273 12 13.2487 12C11.8701 12 10.7492 11.1604 10.7492 10.1254C10.7492 9.09048 11.8701 8.25082 13.2487 8.25082V4.50162C13.2487 3.90409 13.6705 3.39249 14.2524 3.27532L20.501 2.02559C20.8681 1.95139 21.247 2.04902 21.5399 2.28335V2.28725ZM4.91844 13.8746L5.37928 13.1795C5.6097 12.8319 6.00024 12.6249 6.41812 12.6249H8.82776C9.24564 12.6249 9.63618 12.8319 9.8666 13.1795L10.3313 13.8746H11.3741C12.409 13.8746 13.2487 14.7143 13.2487 15.7492V20.1233C13.2487 21.1582 12.409 21.9979 11.3741 21.9979H3.8757C2.84076 21.9979 2.0011 21.1582 2.0011 20.1233V15.7492C2.0011 14.7143 2.84076 13.8746 3.8757 13.8746H4.91844ZM9.49949 17.9362C9.49949 16.9013 8.65983 16.0616 7.62489 16.0616C6.58996 16.0616 5.75029 16.9013 5.75029 17.9362C5.75029 18.9712 6.58996 19.8108 7.62489 19.8108C8.65983 19.8108 9.49949 18.9712 9.49949 17.9362ZM20.6963 12.8709L19.1966 16.3741H21.3719C21.6336 16.3741 21.864 16.5342 21.9578 16.7802C22.0515 17.0263 21.9812 17.2997 21.7859 17.4715L16.787 21.8456C16.5683 22.0369 16.2441 22.0525 16.0098 21.8807C15.7755 21.7089 15.6896 21.3964 15.8028 21.1309L17.2986 17.6238H15.1233C14.8616 17.6238 14.6312 17.4637 14.5375 17.2176C14.4437 16.9716 14.514 16.6982 14.7093 16.5264L19.7082 12.1523C19.9269 11.961 20.2511 11.9453 20.4854 12.1172C20.7197 12.289 20.8057 12.6014 20.6924 12.867L20.6963 12.8709ZM7.45696 10.5589C7.20311 10.8128 6.79304 10.8128 6.55871 10.5589L2.77828 6.65741C1.68476 5.52484 1.74334 3.65415 2.97355 2.59969C4.02801 1.68192 5.64485 1.85766 6.6212 2.85354L7.01174 3.26361L7.38276 2.85354C8.35911 1.85766 9.95642 1.68192 11.0499 2.59969C12.2606 3.65415 12.3192 5.52484 11.2257 6.65741L7.46087 10.5589H7.45696Z" fill="#FF0000"/>
</svg>
