<svg width="48" height="48" viewBox="0 0 48 48" fill="none" xmlns="http://www.w3.org/2000/svg">
<rect width="48" height="48" rx="4" fill="none"/>
<path fill-rule="evenodd" clip-rule="evenodd" d="M4 2C2.89543 2 2 2.89543 2 4V44C2 45.1046 2.89543 46 4 46H44C45.1046 46 46 45.1046 46 44V4C46 2.89543 45.1046 2 44 2H4ZM20.21 29.5633L15.2031 23.5281C13.4822 21.8158 9.88273 24.833 11.2911 26.9536L18.5674 36.0057C19.8191 37.4739 21.3059 37.3105 22.4009 35.8424L36.7956 12.9262C37.6564 11.5397 35.9347 10.2349 34.8397 11.458L20.21 29.5633Z" fill="#FF0000"/>
</svg>
