<svg width="24" height="24" viewBox="0 0 24 24" fill="none" xmlns="http://www.w3.org/2000/svg">
<path fill-rule="evenodd" clip-rule="evenodd" d="M21.375 16.375C21.72 16.375 22 16.6549 22 17V18.25C22 18.595 21.72 18.875 21.375 18.875H2.625C2.27996 18.875 2 18.595 2 18.25V17C2 16.6549 2.27996 16.375 2.625 16.375H21.375ZM17.625 5.125C17.9317 5.125 18.187 5.36095 18.2399 5.67187L18.25 5.79167V8.875H21.3333C21.6605 8.875 21.9328 9.0962 21.9893 9.38769L22 9.5V10.75C22 11.0567 21.7641 11.312 21.4531 11.3649L21.3333 11.375H18.25V14.4583C18.25 14.7855 18.0288 15.0578 17.7373 15.1143L17.625 15.125H16.375C16.0683 15.125 15.813 14.8891 15.7601 14.5781L15.75 14.4583V11.375H12.6667C12.3395 11.375 12.0672 11.1538 12.0107 10.8623L12 10.75V9.5C12 9.1933 12.2359 8.93802 12.5469 8.88507L12.6667 8.875H15.75V5.79167C15.75 5.46452 15.9712 5.19222 16.2627 5.13575L16.375 5.125H17.625ZM12.5 12.625C12.9141 12.625 13.25 12.9049 13.25 13.25V14.5C13.25 14.845 12.9141 15.125 12.5 15.125H2.75C2.33595 15.125 2 14.845 2 14.5V13.25C2 12.9049 2.33595 12.625 2.75 12.625H12.5ZM9 8.875C9.27603 8.875 9.5 9.15495 9.5 9.49999V10.75C9.5 11.095 9.27603 11.375 9 11.375H2.5C2.22397 11.375 2 11.095 2 10.75V9.49999C2 9.15495 2.22397 8.875 2.5 8.875H9ZM12.7143 5.125C13.01 5.125 13.25 5.40496 13.25 5.75V7C13.25 7.34504 13.01 7.625 12.7143 7.625H2.53571C2.23996 7.625 2 7.34504 2 7V5.75C2 5.40496 2.23996 5.125 2.53571 5.125H12.7143Z" fill="#FF0000"/>
</svg>
