<svg width="24" height="24" viewBox="0 0 24 24" fill="none" xmlns="http://www.w3.org/2000/svg">
<path d="M22 7.83328C22 8.60036 21.3782 9.22217 20.6111 9.22217C20.6025 9.22217 20.5954 9.21741 20.5868 9.21727L18.8325 18.8654C18.7365 19.3937 18.2763 19.7777 17.7393 19.7777H6.26066C5.72368 19.7777 5.26347 19.3937 5.16747 18.8654L3.41323 9.21727C3.40462 9.21741 3.3975 9.22217 3.38889 9.22217C2.62181 9.22217 2 8.60036 2 7.83328C2 7.0662 2.62181 6.44439 3.38889 6.44439C4.15597 6.44439 4.77778 7.0662 4.77778 7.83328C4.77778 8.14571 4.65552 8.4197 4.48135 8.65168L7.5934 11.1413C8.14576 11.5832 8.965 11.4033 9.28135 10.7706L11.2813 6.77071C10.8876 6.52564 10.6111 6.10904 10.6111 5.61106C10.6111 4.84397 11.2329 4.22217 12 4.22217C12.7671 4.22217 13.3889 4.84397 13.3889 5.61106C13.3889 6.10904 13.1124 6.52564 12.7187 6.77071L14.7186 10.7706C15.035 11.4033 15.8542 11.5832 16.4066 11.1413L19.5186 8.65168C19.3445 8.4197 19.2222 8.14571 19.2222 7.83328C19.2222 7.0662 19.844 6.44439 20.6111 6.44439C21.3782 6.44439 22 7.0662 22 7.83328Z" fill="#FF0000"/>
</svg>
