<svg width="24" height="24" viewBox="0 0 24 24" fill="none" xmlns="http://www.w3.org/2000/svg">
<path d="M4.22222 3.11108C2.99653 3.11108 2 4.10761 2 5.33331V15.3333C2 16.559 2.99653 17.5555 4.22222 17.5555H10.3333L9.96181 18.6666H7.55556C6.94097 18.6666 6.44444 19.1632 6.44444 19.7778C6.44444 20.3923 6.94097 20.8889 7.55556 20.8889H16.4444C17.059 20.8889 17.5556 20.3923 17.5556 19.7778C17.5556 19.1632 17.059 18.6666 16.4444 18.6666H14.0382L13.6667 17.5555H19.7778C21.0035 17.5555 22 16.559 22 15.3333V5.33331C22 4.10761 21.0035 3.11108 19.7778 3.11108H4.22222ZM19.7778 5.33331V13.1111H4.22222V5.33331H19.7778Z" fill="#FF0000"/>
</svg>
