<svg width="24" height="24" viewBox="0 0 24 24" fill="none" xmlns="http://www.w3.org/2000/svg">
<path fill-rule="evenodd" clip-rule="evenodd" d="M12 18.25C16.4883 18.25 20.125 14.6133 20.125 10.125C20.125 5.63672 16.4883 2 12 2C7.51172 2 3.875 5.63672 3.875 10.125C3.875 14.6133 7.51172 18.25 12 18.25ZM11.1328 5.80467V5.14842C11.1328 4.78905 11.4219 4.49998 11.7813 4.49998H12.2148C12.5742 4.49998 12.8633 4.78905 12.8633 5.14842V5.81248C13.4688 5.84373 14.0547 6.05076 14.543 6.41405C14.7617 6.5742 14.7852 6.89451 14.5898 7.08201L13.9531 7.68748C13.8047 7.83201 13.582 7.83592 13.4063 7.72655C13.1953 7.59373 12.9609 7.52733 12.7109 7.52733H11.1914C10.8398 7.52733 10.5547 7.84764 10.5547 8.24217C10.5547 8.56248 10.75 8.84764 11.0273 8.92967L13.4609 9.66014C14.4648 9.96092 15.168 10.9258 15.168 12.0078C15.168 13.3359 14.1367 14.4101 12.8594 14.4453V15.1015C12.8594 15.4609 12.5703 15.75 12.2109 15.75H11.7773C11.418 15.75 11.1289 15.4609 11.1289 15.1015V14.4375C10.5234 14.4062 9.93751 14.1992 9.44923 13.8359C9.23048 13.6758 9.20704 13.3555 9.40235 13.168L10.0391 12.5625C10.1875 12.418 10.4102 12.414 10.5859 12.5234C10.7969 12.6562 11.0313 12.7226 11.2813 12.7226H12.8008C13.1523 12.7226 13.4375 12.4023 13.4375 12.0078C13.4375 11.6875 13.2422 11.4023 12.9648 11.3203L10.5313 10.5898C9.52735 10.289 8.82423 9.3242 8.82423 8.24217C8.82813 6.91405 9.85547 5.83983 11.1328 5.80467ZM20.75 15.75H19.4805C18.7148 16.7656 17.7383 17.6133 16.6289 18.25H19.1211C19.3281 18.25 19.4961 18.3906 19.4961 18.5625V19.1875C19.4961 19.3594 19.3281 19.5 19.1211 19.5H4.875C4.66797 19.5 4.5 19.3594 4.5 19.1875V18.5625C4.5 18.3906 4.66797 18.25 4.875 18.25H7.36719C6.25781 17.6133 5.28516 16.7656 4.51562 15.75H3.25C2.55859 15.75 2 16.3086 2 17V20.75C2 21.4414 2.55859 22 3.25 22H20.75C21.4414 22 22 21.4414 22 20.75V17C22 16.3086 21.4414 15.75 20.75 15.75Z" fill="#FF0000"/>
</svg>
