<svg width="24" height="24" viewBox="0 0 24 24" fill="none" xmlns="http://www.w3.org/2000/svg">
<path d="M16.6666 1.33325C15.9291 1.33325 15.3333 1.92909 15.3333 2.6666C15.3333 3.4041 15.9291 3.99994 16.6666 3.99994H17.8666L13.3082 7.6458L8.79988 4.26661C8.31237 3.89994 7.64154 3.91244 7.16653 4.29161L0.499811 9.62499C-0.0751939 10.0833 -0.166861 10.925 0.291476 11.5C0.749813 12.075 1.59149 12.1667 2.16649 11.7083L8.02487 7.0208L12.5332 10.4C13.0207 10.7667 13.6916 10.7542 14.1666 10.375L20 5.70829V7.3333C20 8.07081 20.5958 8.66664 21.3333 8.66664C22.0708 8.66664 22.6667 8.07081 22.6667 7.3333V2.6666C22.6667 1.92909 22.0708 1.33325 21.3333 1.33325H16.6666ZM7.99987 10.6667C7.26237 10.6667 6.66653 11.2625 6.66653 12V20.0001C6.66653 20.7376 7.26237 21.3334 7.99987 21.3334C8.73738 21.3334 9.33322 20.7376 9.33322 20.0001V12C9.33322 11.2625 8.73738 10.6667 7.99987 10.6667ZM2.66649 14.6667C1.92899 14.6667 1.33315 15.2625 1.33315 16V20.0001C1.33315 20.7376 1.92899 21.3334 2.66649 21.3334C3.404 21.3334 3.99984 20.7376 3.99984 20.0001V16C3.99984 15.2625 3.404 14.6667 2.66649 14.6667ZM18 22.6668C19.5913 22.6668 21.1174 22.0346 22.2426 20.9094C23.3679 19.7842 24 18.258 24 16.6667C24 15.0754 23.3679 13.5493 22.2426 12.424C21.1174 11.2988 19.5913 10.6667 18 10.6667C16.4086 10.6667 14.8825 11.2988 13.7573 12.424C12.6321 13.5493 11.9999 15.0754 11.9999 16.6667C11.9999 18.258 12.6321 19.7842 13.7573 20.9094C14.8825 22.0346 16.4086 22.6668 18 22.6668ZM17.0041 15.4584V15.4625C17.0041 15.4792 17.0041 15.5417 17.2041 15.65C17.4374 15.775 17.7666 15.8667 18.2 15.9917H18.2083C18.5958 16.1 19.0875 16.2417 19.4791 16.4709C19.9041 16.7209 20.3125 17.1417 20.3333 17.8167C20.3541 18.5751 19.9291 19.0834 19.4291 19.3542C19.1875 19.4834 18.925 19.5667 18.6666 19.6126V20.0626C18.6666 20.4292 18.3666 20.7292 18 20.7292C17.6333 20.7292 17.3333 20.4292 17.3333 20.0626V19.5876C16.9749 19.5167 16.6374 19.4084 16.3458 19.3126C16.2749 19.2876 16.2041 19.2667 16.1374 19.2459C15.7874 19.1376 15.5874 18.7626 15.6999 18.4126C15.8124 18.0626 16.1833 17.8626 16.5333 17.9751C16.6166 18.0001 16.6958 18.0251 16.7749 18.0501C17.2499 18.2001 17.6249 18.3209 18.0208 18.3334C18.3 18.3417 18.5958 18.2876 18.7916 18.1834C18.8833 18.1334 18.9333 18.0834 18.9583 18.0459C18.9791 18.0126 19.0041 17.9584 19 17.8584C19 17.8001 18.9916 17.7334 18.8041 17.625C18.5833 17.4959 18.2666 17.4 17.8375 17.2792L17.7624 17.2584C17.3916 17.1542 16.9374 17.025 16.5708 16.8292C16.1583 16.6084 15.7124 16.2167 15.6708 15.55C15.6208 14.7667 16.0874 14.2625 16.5791 14C16.8166 13.8709 17.0791 13.7875 17.3291 13.7375V13.3333C17.3291 12.9667 17.6291 12.6667 17.9958 12.6667C18.3625 12.6667 18.6625 12.9667 18.6625 13.3333V13.725C18.925 13.7625 19.175 13.8209 19.4083 13.8792C19.7666 13.9667 19.9833 14.3292 19.8958 14.6875C19.8083 15.0459 19.4458 15.2625 19.0875 15.175C18.7 15.0792 18.3291 15.0084 17.9875 15.0042C17.7291 15 17.4208 15.0584 17.2083 15.1709C17.1083 15.225 17.0583 15.275 17.0333 15.3125C17.0166 15.3417 16.9958 15.3792 16.9999 15.4625L17.0041 15.4584Z" fill="#FF0000"/>
</svg>
