<svg width="24" height="24" viewBox="0 0 24 24" fill="none" xmlns="http://www.w3.org/2000/svg">
<path fill-rule="evenodd" clip-rule="evenodd" d="M11.0879 11.0875C10.5839 11.5915 10.5839 12.4085 11.0879 12.9121C11.5915 13.4161 12.4089 13.4161 12.9125 12.9121C13.4165 12.4081 13.4165 11.5911 12.9125 11.0875C12.4085 10.5839 11.5915 10.5839 11.0879 11.0875ZM12 2C6.47702 2 2 6.47702 2 12C2 17.523 6.47702 22 12 22C17.523 22 22 17.523 22 12C22 6.47702 17.523 2 12 2ZM17.0863 7.96976L14.4262 13.7903C14.2975 14.0718 14.0718 14.2975 13.7903 14.4262L7.97016 17.0863C7.29879 17.3931 6.60685 16.7012 6.91371 16.0298L9.57419 10.2093C9.70286 9.92779 9.92859 9.70205 10.2101 9.57339L16.0302 6.91331C16.7016 6.60685 17.3931 7.29839 17.0863 7.96976Z" fill="#FF0000"/>
</svg>
