<svg width="24" height="24" viewBox="0 0 24 24" fill="none" xmlns="http://www.w3.org/2000/svg">
<path d="M22 3.10268V20.8929C22 21.5045 21.5045 21.9955 20.8973 21.9955H15.7991V14.2545H18.3973L18.7857 11.2366H15.7946V9.30804C15.7946 8.43304 16.0357 7.83929 17.2902 7.83929H18.8884V5.13839C18.6116 5.10268 17.6652 5.01786 16.558 5.01786C14.2545 5.01786 12.6741 6.42411 12.6741 9.00893V11.2366H10.067V14.2545H12.6741V22H3.10268C2.49554 22 2 21.5045 2 20.8973V3.10268C2 2.49554 2.49554 2 3.10268 2H20.8929C21.5045 2 22 2.49554 22 3.10268Z" fill="#FF0000"/>
</svg>
