<svg width="24" height="24" viewBox="0 0 24 24" fill="none" xmlns="http://www.w3.org/2000/svg">
<path fill-rule="evenodd" clip-rule="evenodd" d="M9.76013 7.98476C9.76013 8.80727 10.0076 9.56977 10.4226 10.2139C10.5518 10.4139 10.7018 10.5989 10.8626 10.7731C11.4993 11.4606 12.3635 11.9214 13.3393 12.0506C13.3738 12.0551 13.4083 12.0599 13.4427 12.0647C13.5866 12.0847 13.7308 12.1048 13.8793 12.1048C14.0233 12.1048 14.1621 12.0856 14.3006 12.0664C14.3376 12.0613 14.3747 12.0562 14.4118 12.0514C14.6202 12.0248 14.8202 11.9823 15.0177 11.9256C15.7218 11.7214 16.351 11.3481 16.846 10.8339C17.5568 10.0931 18.0002 9.09227 18.0002 7.98476C18.0002 5.70975 16.1552 3.86475 13.8793 3.86475C12.9968 3.86475 12.1835 4.14808 11.5135 4.62058C11.2843 4.78142 11.076 4.96725 10.886 5.16975C10.6901 5.37642 10.521 5.60559 10.3726 5.84892C9.99096 6.47392 9.76013 7.19976 9.76013 7.98476ZM4.63959 8.06216C4.63959 9.88466 6.11709 11.3622 7.9396 11.3622C7.96312 11.3622 7.98566 11.3587 8.00802 11.3553C8.02685 11.3525 8.04555 11.3496 8.0646 11.3488C8.31793 11.1747 8.57877 11.0072 8.8571 10.8555C8.37127 10.0088 8.09377 9.02883 8.09377 7.98466C8.09377 6.86715 8.41627 5.82631 8.9671 4.94131C8.6421 4.83381 8.30127 4.76214 7.9396 4.76214C6.11709 4.76214 4.63959 6.23881 4.63959 8.06216ZM4.93418 11.3425C3.17834 12.1533 2 13.6525 2 15.3683C2 16.1825 3.18334 16.7383 4.80251 17.0375C4.82168 15.2841 5.58918 13.6291 6.90085 12.3225C6.16418 12.1525 5.48918 11.8183 4.93418 11.3425ZM13.0057 18.2473C12.9332 18.4865 12.8907 18.739 12.894 18.9998L12.8949 19.2832C12.8949 19.3291 12.9012 19.375 12.9076 19.4209C12.9112 19.4475 12.9149 19.4741 12.9174 19.5007C11.4465 19.4448 10.029 19.2607 8.89818 18.9482C8.11651 18.7323 7.47318 18.454 7.04484 18.1148C6.72401 17.8607 6.52901 17.5707 6.48484 17.2473C6.48244 17.2324 6.47935 17.2176 6.47626 17.2028C6.46972 17.1715 6.46317 17.1402 6.46317 17.1073C6.46317 14.9648 7.93568 13.0931 10.1282 12.0806C10.1471 12.0969 10.167 12.1123 10.187 12.1277C10.2047 12.1415 10.2226 12.1553 10.2399 12.1698C11.1032 12.8731 12.1707 13.3348 13.3432 13.4431C13.5199 13.4598 13.699 13.4681 13.8799 13.4681C13.9589 13.4681 14.0352 13.459 14.1115 13.4498C14.1632 13.4436 14.2149 13.4373 14.2674 13.434L14.3143 13.431C14.457 13.4222 14.5993 13.4133 14.739 13.3923L14.7382 16.529C13.8999 16.7673 13.2524 17.4282 13.0057 18.2473ZM21.5533 11.6925C21.7658 11.6925 21.9533 11.84 21.9925 12.0491C21.9975 12.075 22 12.1008 22 12.1266V17.7066C21.9517 17.8883 21.8692 18.0541 21.77 18.2083C21.6933 18.3183 21.6092 18.4258 21.5092 18.5258C21.4442 18.5858 21.37 18.6316 21.2958 18.6766C21.1342 18.7758 20.9608 18.8517 20.7642 18.865L20.1933 18.905C20.1725 18.9067 20.1525 18.9067 20.1325 18.9067H20.125C19.8242 18.9067 19.6 18.8525 19.4317 18.7717C18.9275 18.5308 18.9275 18.05 18.9275 18.05L18.9267 17.75C18.9208 17.3166 19.235 16.9466 19.6633 16.8808L20.7708 16.7116V13.6816L17.6991 14.2333L17.6466 14.24L17.6341 14.2425V18.9358C17.6341 19.0358 17.6091 19.1333 17.5733 19.2292C17.4941 19.4475 17.335 19.6458 17.1325 19.7992C16.9158 19.9633 16.6566 20.0758 16.3983 20.0933C16.3983 20.0933 15.7866 20.135 15.7666 20.135H15.7591C14.9675 20.135 14.7033 19.7642 14.6125 19.51C14.5658 19.38 14.5616 19.2792 14.5616 19.2792L14.5608 18.9783C14.5558 18.5458 14.87 18.1758 15.2975 18.1091L16.3708 17.945L16.405 17.94V13.0525L16.4075 12.9683C16.4075 12.9313 16.4164 12.8959 16.4251 12.8612L16.4266 12.855C16.4708 12.6966 16.5966 12.5708 16.7658 12.5408L17.3916 12.43C17.3988 12.4279 17.4057 12.4249 17.4126 12.4218C17.4226 12.4175 17.4325 12.4131 17.4433 12.4116L17.5266 12.3966L21.4733 11.7C21.5 11.695 21.5267 11.6925 21.5533 11.6925Z" fill="#FF0000"/>
</svg>
