<svg width="24" height="24" viewBox="0 0 24 24" fill="none" xmlns="http://www.w3.org/2000/svg">
<path fill-rule="evenodd" clip-rule="evenodd" d="M9.53614 7.53202C9.53614 8.43677 9.8084 9.27553 10.2649 9.98411C10.407 10.2041 10.572 10.4076 10.7489 10.5992C11.4492 11.3555 12.3998 11.8624 13.4732 12.0045C13.5112 12.0094 13.5491 12.0147 13.587 12.02C13.7452 12.042 13.9038 12.064 14.0672 12.064C14.2256 12.064 14.3783 12.0429 14.5306 12.0219C14.5714 12.0162 14.6122 12.0106 14.653 12.0054C14.8822 11.976 15.1022 11.9293 15.3194 11.867C16.094 11.6424 16.7861 11.2317 17.3306 10.6661C18.1125 9.8512 18.6002 8.75028 18.6002 7.53202C18.6002 5.02951 16.5707 3 14.0672 3C13.0965 3 12.2018 3.31167 11.4648 3.83142C11.2127 4.00834 10.9836 4.21276 10.7746 4.43551C10.5591 4.66284 10.3731 4.91492 10.2099 5.18259C9.79006 5.8701 9.53614 6.66852 9.53614 7.53202ZM3.90354 7.61715C3.90354 9.62191 5.5288 11.2472 7.53356 11.2472C7.55944 11.2472 7.58423 11.2434 7.60882 11.2396C7.62954 11.2365 7.65011 11.2333 7.67106 11.2325C7.94973 11.0409 8.23665 10.8567 8.54282 10.6898C8.0084 9.75849 7.70315 8.68049 7.70315 7.5319C7.70315 6.30264 8.0579 5.15772 8.66382 4.18422C8.30631 4.06597 7.9314 3.98713 7.53356 3.98713C5.5288 3.98713 3.90354 5.61147 3.90354 7.61715ZM4.2276 11.2255C2.29617 12.1174 1 13.7665 1 15.6539C1 16.5495 2.30167 17.1609 4.08276 17.49C4.10385 15.5613 4.9481 13.7408 6.39094 12.3035C5.5806 12.1165 4.8381 11.7489 4.2276 11.2255ZM13.1063 18.8208C13.0265 19.0839 12.9798 19.3617 12.9834 19.6486L12.9844 19.9603C12.9844 20.0108 12.9913 20.0613 12.9983 20.1118C13.0024 20.141 13.0064 20.1703 13.0091 20.1995C11.3912 20.1381 9.83192 19.9355 8.588 19.5918C7.72816 19.3543 7.02049 19.0482 6.54933 18.6751C6.19641 18.3955 5.98191 18.0765 5.93332 17.7208C5.93068 17.7044 5.92728 17.6881 5.92389 17.6719C5.91669 17.6374 5.90949 17.603 5.90949 17.5668C5.90949 15.2101 7.52925 13.1512 9.94101 12.0375C9.96185 12.0554 9.98372 12.0723 10.0057 12.0893C10.0252 12.1044 10.0448 12.1196 10.0638 12.1356C11.0135 12.9092 12.1878 13.4171 13.4775 13.5362C13.6719 13.5546 13.8689 13.5637 14.0679 13.5637C14.1548 13.5637 14.2387 13.5536 14.3227 13.5435C14.3795 13.5367 14.4364 13.5299 14.4941 13.5262L14.5457 13.5229C14.7027 13.5132 14.8593 13.5035 15.0129 13.4803L15.012 16.9307C14.0899 17.1928 13.3776 17.9198 13.1063 18.8208ZM22.5087 11.6105C22.7424 11.6105 22.9487 11.7727 22.9918 12.0028C22.9973 12.0312 23 12.0596 23 12.0881V18.2261C22.9468 18.4259 22.8561 18.6083 22.747 18.7779C22.6627 18.8989 22.5701 19.0172 22.4601 19.1272C22.3886 19.1932 22.307 19.2436 22.2254 19.2931C22.0476 19.4022 21.8569 19.4856 21.6406 19.5003L21.0127 19.5443C20.9897 19.5461 20.9677 19.5461 20.9457 19.5461H20.9375C20.6066 19.5461 20.36 19.4865 20.1748 19.3976C19.6202 19.1327 19.6202 18.6038 19.6202 18.6038L19.6193 18.2738C19.6129 17.7971 19.9585 17.3901 20.4297 17.3177L21.6479 17.1316V13.7986L18.2691 14.4054L18.2113 14.4127L18.1976 14.4155V19.5782C18.1976 19.6882 18.1701 19.7954 18.1306 19.9008C18.0436 20.141 17.8685 20.3592 17.6457 20.5278C17.4074 20.7084 17.1223 20.8322 16.8381 20.8514C16.8381 20.8514 16.1653 20.8973 16.1433 20.8973H16.1351C15.2642 20.8973 14.9736 20.4893 14.8737 20.2098C14.8224 20.0668 14.8178 19.9558 14.8178 19.9558L14.8169 19.6249C14.8114 19.1492 15.157 18.7422 15.6272 18.6688L16.8079 18.4883L16.8455 18.4828V13.1065L16.8482 13.0139C16.8482 12.9733 16.858 12.9342 16.8676 12.8961L16.8693 12.8892C16.9179 12.7151 17.0563 12.5766 17.2424 12.5436L17.9308 12.4217C17.9387 12.4195 17.9463 12.4161 17.9539 12.4128C17.9648 12.408 17.9758 12.4032 17.9876 12.4016L18.0793 12.3851L22.4207 11.6187C22.45 11.6132 22.4793 11.6105 22.5087 11.6105Z" fill="#FF0000"/>
</svg>
