<svg width="40" height="40" viewBox="0 0 40 40" fill="none" xmlns="http://www.w3.org/2000/svg">
<path fill-rule="evenodd" clip-rule="evenodd" d="M32.4274 36.6666H7.57356C6.76581 36.6666 6.11157 36.0181 6.11157 35.2174V4.78259C6.11157 3.98186 6.76581 3.33331 7.57356 3.33331H25.1174L33.8893 12.029V35.2174C33.8893 36.0181 33.2351 36.6666 32.4274 36.6666Z" fill="#F7F7F9"/>
<path d="M33.873 12.0128H26.5794C25.7717 12.0128 25.1174 11.3642 25.1174 10.5635V3.33331L33.873 12.0128Z" fill="#EAEAEA"/>
<path fill-rule="evenodd" clip-rule="evenodd" d="M3.3335 20L6.11127 17.5V20H33.889V17.5L36.6668 20V30.0926C36.6668 30.9623 36.0183 31.6667 35.2176 31.6667H4.78277C3.98205 31.6667 3.3335 30.9623 3.3335 30.0926V20ZM12.385 25.443L11.2994 29.5H9.85813L8.22036 23.1127H9.83942L10.6723 27.3943H10.7379L11.7814 23.1127H13.0448L14.0883 27.3943H14.1585L14.982 23.1127H16.6011L14.9633 29.5H13.5221L12.4411 25.443H12.385ZM17.7831 28.0354L17.3666 29.5H15.8224L17.8814 23.1127H19.7718L21.8167 29.5H20.1696L19.7578 28.0354H17.7831ZM19.4817 26.917L18.8172 24.4978H18.7471L18.0685 26.917H19.4817ZM24.8424 29.5H22.8958L20.8649 23.1127H22.6618L23.8784 27.8388H23.9439L25.1419 23.1127H26.8452L24.8424 29.5ZM28.5793 28.274H31.3401V29.5H27.0492V23.1127H31.3401V24.3387H28.5793V25.7191H31.167V26.8515H28.5793V28.274Z" fill="#CB2C9C"/>
<path opacity="0.5" d="M6.11127 20H3.3335L6.11127 17.5V20ZM33.889 20V17.5L36.6668 20H33.889Z" fill="#F7F7F9"/>
</svg>
