<svg width="40" height="40" viewBox="0 0 40 40" fill="none" xmlns="http://www.w3.org/2000/svg">
<path fill-rule="evenodd" clip-rule="evenodd" d="M32.4272 36.6666H7.57344C6.76569 36.6666 6.11145 36.018 6.11145 35.2173V4.78253C6.11145 3.9818 6.76569 3.33325 7.57344 3.33325H25.1173L33.8892 12.0289V35.2173C33.8892 36.018 33.235 36.6666 32.4272 36.6666Z" fill="#F7F7F9"/>
<path d="M33.873 12.0127H26.5794C25.7717 12.0127 25.1174 11.3641 25.1174 10.5634V3.33325L33.873 12.0127Z" fill="#EAEAEA"/>
<path fill-rule="evenodd" clip-rule="evenodd" d="M3.33362 18.3333L6.1114 15.8333V18.3333H33.8892V15.8333L36.667 18.3333V30.9258C36.667 31.7955 36.0184 32.4999 35.2177 32.4999H4.78289C3.98217 32.4999 3.33362 31.7955 3.33362 30.9258V18.3333ZM15.4756 24.8984V25.9335C15.4756 28.4335 14.0237 29.996 11.5042 29.996C8.99119 29.996 7.53937 28.4335 7.53937 25.9335V24.8984C7.53937 22.3723 9.00421 20.7903 11.5172 20.7903C14.0303 20.7903 15.4756 22.3853 15.4756 24.8984ZM13.275 25.94V24.8723C13.275 23.3359 12.5589 22.5351 11.5107 22.5351C10.456 22.5351 9.73989 23.3359 9.73989 24.8723V25.94C9.73989 27.483 10.456 28.2447 11.5107 28.2447C12.5589 28.2447 13.275 27.483 13.275 25.94ZM20.4235 20.7903C22.8063 20.7903 24.0498 22.2681 24.0888 23.8827H22.0055C21.9144 23.1275 21.361 22.5481 20.4105 22.5481C19.2776 22.5481 18.6592 23.3684 18.6592 24.8137V25.8879C18.6592 27.2226 19.1279 28.2317 20.4691 28.2317C21.4847 28.2317 22.0706 27.5872 22.0706 26.8385V26.4609H20.5276V24.9504H24.0954V26.6757C24.0954 28.4075 22.917 29.996 20.417 29.996C17.6696 29.996 16.4847 28.2187 16.4847 25.8945V24.7942C16.4847 22.4309 17.8779 20.7903 20.4235 20.7903ZM30.1566 29.8333H27.4482L24.6227 20.9465H27.1227L28.8154 27.5221H28.9066L30.5732 20.9465H32.943L30.1566 29.8333Z" fill="#BC26B0"/>
<path opacity="0.5" d="M6.1114 18.3333H3.33362L6.1114 15.8333V18.3333ZM33.8892 18.3333V15.8333L36.667 18.3333H33.8892Z" fill="#F7F7F9"/>
</svg>
