<svg width="40" height="40" viewBox="0 0 40 40" fill="none" xmlns="http://www.w3.org/2000/svg">
<path fill-rule="evenodd" clip-rule="evenodd" d="M32.4272 36.6666H7.57344C6.76569 36.6666 6.11145 36.018 6.11145 35.2173V4.78253C6.11145 3.9818 6.76569 3.33325 7.57344 3.33325H25.1173L33.8892 12.0289V35.2173C33.8892 36.018 33.235 36.6666 32.4272 36.6666Z" fill="#F7F7F9"/>
<path d="M33.873 12.0127H26.5794C25.7717 12.0127 25.1174 11.3641 25.1174 10.5634V3.33325L33.873 12.0127Z" fill="#EAEAEA"/>
<path fill-rule="evenodd" clip-rule="evenodd" d="M3.33362 18.3333L6.1114 15.8333V18.3333H33.8892V15.8333L36.667 18.3333V30.9258C36.667 31.7955 36.0184 32.4999 35.2177 32.4999H4.78289C3.98217 32.4999 3.33362 31.7955 3.33362 30.9258V18.3333ZM14.2516 24.8984V25.9335C14.2516 28.4335 12.7998 29.996 10.2803 29.996C7.76723 29.996 6.31541 28.4335 6.31541 25.9335V24.8984C6.31541 22.3723 7.78025 20.7903 10.2933 20.7903C12.8063 20.7903 14.2516 22.3853 14.2516 24.8984ZM12.0511 25.94V24.8723C12.0511 23.3359 11.3349 22.5351 10.2868 22.5351C9.23208 22.5351 8.51593 23.3359 8.51593 24.8723V25.94C8.51593 27.483 9.23208 28.2447 10.2868 28.2447C11.3349 28.2447 12.0511 27.483 12.0511 25.94ZM19.1995 20.7903C21.5823 20.7903 22.8258 22.2681 22.8649 23.8827H20.7816C20.6904 23.1275 20.137 22.5481 19.1865 22.5481C18.0537 22.5481 17.4352 23.3684 17.4352 24.8137V25.8879C17.4352 27.2226 17.904 28.2317 19.2451 28.2317C20.2607 28.2317 20.8467 27.5872 20.8467 26.8385V26.4609H19.3037V24.9504H22.8714V26.6757C22.8714 28.4075 21.693 29.996 19.193 29.996C16.4456 29.996 15.2607 28.2187 15.2607 25.8945V24.7942C15.2607 22.4309 16.654 20.7903 19.1995 20.7903ZM26.1657 24.332V29.8333H24.2516V20.9465H26.4782L28.7568 25.9661H28.8219L31.1071 20.9465H33.3076V29.8333H31.374V24.332H31.2829L29.4079 28.4921H28.1448L26.2633 24.332H26.1657Z" fill="#5547C4"/>
<path opacity="0.5" d="M6.1114 18.3333H3.33362L6.1114 15.8333V18.3333ZM33.8892 18.3333V15.8333L36.667 18.3333H33.8892Z" fill="#F7F7F9"/>
</svg>
