<svg width="40" height="40" viewBox="0 0 40 40" fill="none" xmlns="http://www.w3.org/2000/svg">
<path fill-rule="evenodd" clip-rule="evenodd" d="M32.4274 36.6666H7.57356C6.76581 36.6666 6.11157 36.018 6.11157 35.2173V4.78253C6.11157 3.9818 6.76581 3.33325 7.57356 3.33325H25.1174L33.8893 12.0289V35.2173C33.8893 36.018 33.2351 36.6666 32.4274 36.6666Z" fill="#F7F7F9"/>
<path d="M33.873 12.0127H26.5794C25.7717 12.0127 25.1174 11.3641 25.1174 10.5634V3.33325L33.873 12.0127Z" fill="#EAEAEA"/>
<path fill-rule="evenodd" clip-rule="evenodd" d="M3.3335 18.3333L6.11127 15.8333V18.3333H33.889V15.8333L36.6668 18.3333V30.9258C36.6668 31.7955 36.0183 32.4999 35.2176 32.4999H4.78277C3.98205 32.4999 3.3335 31.7955 3.3335 30.9258V18.3333ZM9.46633 24.332V29.8333H7.55227V20.9465H9.77883L12.0575 25.9661H12.1226L14.4077 20.9465H16.6083V29.8333H14.6747V24.332H14.5835L12.7085 28.4921H11.4455L9.56398 24.332H9.46633ZM18.353 20.9465H22.1096C24.1538 20.9465 25.2215 22.3528 25.2215 24.0325C25.2215 25.7382 24.1343 27.0859 22.0835 27.0859H20.5015V29.8333H18.353V20.9465ZM21.3609 25.4648C22.396 25.4648 23.0405 25.0741 23.0405 24.0325C23.0405 23.108 22.4872 22.6002 21.6083 22.6002H20.495V25.4648H21.3609ZM25.6838 26.6106C26.6734 24.6965 27.8062 22.7955 28.926 20.9465H31.9728V26.6301H33.0145V28.3163H31.9728V29.8333H29.9676V28.3163H25.6838V26.6106ZM27.5588 26.6041V26.6301H29.9676V22.4895H29.883C29.0692 23.8046 28.2684 25.1783 27.5588 26.6041Z" fill="#D01C4B"/>
<path opacity="0.5" d="M6.11127 18.3333H3.3335L6.11127 15.8333V18.3333ZM33.889 18.3333V15.8333L36.6668 18.3333H33.889Z" fill="#F7F7F9"/>
</svg>
