<svg width="40" height="40" viewBox="0 0 40 40" fill="none" xmlns="http://www.w3.org/2000/svg">
<path fill-rule="evenodd" clip-rule="evenodd" d="M32.4272 36.6666H7.57344C6.76569 36.6666 6.11145 36.018 6.11145 35.2173V4.78253C6.11145 3.9818 6.76569 3.33325 7.57344 3.33325H25.1173L33.8892 12.0289V35.2173C33.8892 36.018 33.235 36.6666 32.4272 36.6666Z" fill="#F7F7F9"/>
<path d="M33.873 12.0127H26.5794C25.7717 12.0127 25.1174 11.3641 25.1174 10.5634V3.33325L33.873 12.0127Z" fill="#EAEAEA"/>
<path fill-rule="evenodd" clip-rule="evenodd" d="M3.33362 18.3333L6.1114 15.8333V18.3333H33.8892V15.8333L36.667 18.3333V30.9258C36.667 31.7955 36.0184 32.4999 35.2177 32.4999H4.78289C3.98217 32.4999 3.33362 31.7955 3.33362 30.9258V18.3333ZM9.17999 24.332V29.8333H7.26593V20.9465H9.49249L11.7711 25.9661H11.8362L14.1214 20.9465H16.3219V29.8333H14.3883V24.332H14.2972L12.4222 28.4921H11.1592L9.27765 24.332H9.17999ZM17.5719 26.6106C18.5615 24.6965 19.6943 22.7955 20.8141 20.9465H23.861V26.6301H24.9026V28.3163H23.861V29.8333H21.8558V28.3163H17.5719V26.6106ZM19.4469 26.6041V26.6301H21.8558V22.4895H21.7711C20.9573 23.8046 20.1566 25.1783 19.4469 26.6041ZM26.0745 20.9465H29.8375C32.0316 20.9465 33.1123 22.1835 33.1123 23.8567C33.1123 25.3215 32.1292 26.1158 31.5237 26.3632L33.2946 29.8333H30.9118L29.4079 26.6627H28.1904V29.8333H26.0745V20.9465ZM28.1904 22.5611V25.1392H29.499C30.3323 25.1392 30.8922 24.7161 30.8922 23.8762C30.8922 22.9973 30.2868 22.5611 29.5185 22.5611H28.1904Z" fill="#E3455C"/>
<path opacity="0.5" d="M6.1114 18.3333H3.33362L6.1114 15.8333V18.3333ZM33.8892 18.3333V15.8333L36.667 18.3333H33.8892Z" fill="#F7F7F9"/>
</svg>
