<svg width="40" height="40" viewBox="0 0 40 40" fill="none" xmlns="http://www.w3.org/2000/svg">
<path fill-rule="evenodd" clip-rule="evenodd" d="M32.4272 36.6666H7.57344C6.76569 36.6666 6.11145 36.0181 6.11145 35.2174V4.78259C6.11145 3.98186 6.76569 3.33331 7.57344 3.33331H25.1173L33.8892 12.029V35.2174C33.8892 36.0181 33.235 36.6666 32.4272 36.6666Z" fill="#F7F7F9"/>
<path d="M33.873 12.0128H26.5794C25.7717 12.0128 25.1174 11.3642 25.1174 10.5635V3.33331L33.873 12.0128Z" fill="#EAEAEA"/>
<path fill-rule="evenodd" clip-rule="evenodd" d="M3.33362 20L6.1114 17.5V20H33.8892V17.5L36.667 20V30.0926C36.667 30.9623 36.0184 31.6667 35.2177 31.6667H4.78289C3.98217 31.6667 3.33362 30.9623 3.33362 30.0926V20ZM11.1264 25.443L10.0408 29.5H8.59951L6.96173 23.1127H8.58079L9.41372 27.3943H9.47923L10.5227 23.1127H11.7862L12.8297 27.3943H12.8998L13.7234 23.1127H15.3425L13.7047 29.5H12.2634L11.1825 25.443H11.1264ZM17.0298 28.274H19.7907V29.5H15.4997V23.1127H19.7907V24.3387H17.0298V25.7191H19.6175V26.8515H17.0298V28.274ZM23.2609 29.5H20.3831V23.1127H23.2141C24.3886 23.1127 25.1794 23.6976 25.1794 24.6803C25.1794 25.4945 24.6553 25.953 24.0377 26.0747V26.1449C24.7489 26.1964 25.4836 26.683 25.4836 27.6891C25.4836 28.8496 24.5056 29.5 23.2609 29.5ZM22.821 24.2076H21.9132V25.7097H22.6572C23.3638 25.7097 23.668 25.4009 23.668 24.947C23.668 24.4978 23.3592 24.2076 22.821 24.2076ZM22.8959 26.7017H21.9132V28.405H22.7415C23.5697 28.405 23.9113 28.0822 23.9113 27.5627C23.9113 27.0433 23.5697 26.7017 22.8959 26.7017ZM27.2833 25.5459V29.5H25.9075V23.1127H27.5079L29.1457 26.7205H29.1924L30.8349 23.1127H32.4165V29.5H31.0268V25.5459H30.9612L29.6136 28.5361H28.7058L27.3535 25.5459H27.2833Z" fill="#152DAF"/>
<path opacity="0.5" d="M6.1114 20H3.33362L6.1114 17.5V20ZM33.8892 20V17.5L36.667 20H33.8892Z" fill="#F7F7F9"/>
</svg>
