<svg width="40" height="40" viewBox="0 0 40 40" fill="none" xmlns="http://www.w3.org/2000/svg">
<path fill-rule="evenodd" clip-rule="evenodd" d="M32.4274 36.6666H7.57356C6.76581 36.6666 6.11157 36.018 6.11157 35.2173V4.78253C6.11157 3.9818 6.76581 3.33325 7.57356 3.33325H25.1174L33.8893 12.0289V35.2173C33.8893 36.018 33.2351 36.6666 32.4274 36.6666Z" fill="#F7F7F9"/>
<path d="M33.873 12.0127H26.5794C25.7717 12.0127 25.1174 11.3641 25.1174 10.5634V3.33325L33.873 12.0127Z" fill="#EAEAEA"/>
<path fill-rule="evenodd" clip-rule="evenodd" d="M3.3335 18.3333L6.11127 15.8333V18.3333H33.889V15.8333L36.6668 18.3333V30.9258C36.6668 31.7955 36.0183 32.4999 35.2176 32.4999H4.78277C3.98205 32.4999 3.3335 31.7955 3.3335 30.9258V18.3333ZM9.14732 24.332V29.8333H7.23326V20.9465H9.45982L11.7385 25.9661H11.8036L14.0887 20.9465H16.2892V29.8333H14.3557V24.332H14.2645L12.3895 28.4921H11.1265L9.24497 24.332H9.14732ZM17.5392 26.6106C18.5288 24.6965 19.6616 22.7955 20.7814 20.9465H23.8283V26.6301H24.87V28.3163H23.8283V29.8333H21.8231V28.3163H17.5392V26.6106ZM19.4142 26.6041V26.6301H21.8231V22.4895H21.7385C20.9247 23.8046 20.1239 25.1783 19.4142 26.6041ZM27.9624 27.7955L27.383 29.8333H25.2346L28.0991 20.9465H30.7293L33.5744 29.8333H31.2827L30.7098 27.7955H27.9624ZM30.3257 26.2395L29.4012 22.8736H29.3036L28.3596 26.2395H30.3257Z" fill="#91222D"/>
<path opacity="0.5" d="M6.11127 18.3333H3.3335L6.11127 15.8333V18.3333ZM33.889 18.3333V15.8333L36.6668 18.3333H33.889Z" fill="#F7F7F9"/>
</svg>
