<svg width="40" height="40" viewBox="0 0 40 40" fill="none" xmlns="http://www.w3.org/2000/svg">
<path fill-rule="evenodd" clip-rule="evenodd" d="M32.4272 36.6666H7.57344C6.76569 36.6666 6.11145 36.0181 6.11145 35.2174V4.78259C6.11145 3.98186 6.76569 3.33331 7.57344 3.33331H25.1173L33.8892 12.029V35.2174C33.8892 36.0181 33.235 36.6666 32.4272 36.6666Z" fill="#F7F7F9"/>
<path d="M33.873 12.0128H26.5794C25.7717 12.0128 25.1174 11.3642 25.1174 10.5635V3.33331L33.873 12.0128Z" fill="#EAEAEA"/>
<path fill-rule="evenodd" clip-rule="evenodd" d="M3.33362 20L6.1114 17.5V20H33.8892V17.5L36.667 20V30.0926C36.667 30.9623 36.0184 31.6667 35.2177 31.6667H4.78289C3.98217 31.6667 3.33362 30.9623 3.33362 30.0926V20ZM14.5657 25.953V26.6971C14.5657 28.4939 13.5222 29.617 11.7113 29.617C9.90505 29.617 8.86155 28.4939 8.86155 26.6971V25.953C8.86155 24.1375 9.91441 23.0004 11.7206 23.0004C13.5269 23.0004 14.5657 24.1468 14.5657 25.953ZM12.9841 26.7017V25.9343C12.9841 24.83 12.4693 24.2544 11.716 24.2544C10.9579 24.2544 10.4432 24.83 10.4432 25.9343V26.7017C10.4432 27.8108 10.9579 28.3582 11.716 28.3582C12.4693 28.3582 12.9841 27.8108 12.9841 26.7017ZM15.0739 23.1127H17.7739C19.2432 23.1127 20.0106 24.1234 20.0106 25.3307C20.0106 26.5567 19.2291 27.5253 17.7551 27.5253H16.6181V29.5H15.0739V23.1127ZM17.2357 26.3601C17.9798 26.3601 18.443 26.0794 18.443 25.3307C18.443 24.6662 18.0453 24.3012 17.4136 24.3012H16.6134V26.3601H17.2357ZM21.8103 27.1042C21.8103 27.9184 22.2735 28.3255 22.9474 28.3255C23.6165 28.3255 24.0798 27.909 24.0798 27.1042V23.1127H25.6286V27.3194C25.6286 28.6998 24.6132 29.617 22.9474 29.617C21.2815 29.617 20.2661 28.6998 20.2661 27.3194V23.1127H21.8103V27.1042ZM28.5514 29.617C26.6001 29.617 25.9824 28.5548 25.9684 27.6283H27.4424C27.4704 28.0447 27.8635 28.4378 28.6075 28.4378C29.3141 28.4378 29.651 28.1289 29.651 27.7078C29.651 27.3101 29.3281 27.1276 28.7058 26.9965L27.8027 26.8C26.8574 26.6128 26.1041 26.0981 26.1041 24.9844C26.1041 23.707 27.171 22.991 28.5982 22.991C30.1424 22.991 31.0548 23.852 31.0689 24.9423H29.6417C29.6136 24.5446 29.2814 24.1562 28.5935 24.1562C27.9898 24.1562 27.6436 24.4416 27.6436 24.8628C27.6436 25.2043 27.9477 25.4149 28.4999 25.5225L29.4264 25.7097C30.3436 25.8875 31.1765 26.3414 31.1765 27.5534C31.1765 28.8028 30.2219 29.617 28.5514 29.617Z" fill="#D851E4"/>
<path opacity="0.5" d="M6.1114 20H3.33362L6.1114 17.5V20ZM33.8892 20V17.5L36.667 20H33.8892Z" fill="#F7F7F9"/>
</svg>
