<svg width="40" height="40" viewBox="0 0 40 40" fill="none" xmlns="http://www.w3.org/2000/svg">
<path fill-rule="evenodd" clip-rule="evenodd" d="M32.4272 36.6666H7.57344C6.76569 36.6666 6.11145 36.018 6.11145 35.2173V4.78253C6.11145 3.9818 6.76569 3.33325 7.57344 3.33325H25.1173L33.8892 12.0289V35.2173C33.8892 36.018 33.235 36.6666 32.4272 36.6666Z" fill="#F7F7F9"/>
<path d="M33.873 12.0127H26.5794C25.7717 12.0127 25.1174 11.3641 25.1174 10.5634V3.33325L33.873 12.0127Z" fill="#EAEAEA"/>
<path fill-rule="evenodd" clip-rule="evenodd" d="M3.33362 18.3333L6.1114 15.8333V18.3333H33.8892V15.8333L36.667 18.3333V30.9258C36.667 31.7955 36.0184 32.4999 35.2177 32.4999H4.78289C3.98217 32.4999 3.33362 31.7955 3.33362 30.9258V18.3333ZM11.9534 29.996C9.23859 29.996 8.37921 28.5181 8.35968 27.2291H10.4105C10.4495 27.8085 10.9964 28.3554 12.0316 28.3554C13.0146 28.3554 13.4834 27.9257 13.4834 27.3398C13.4834 26.7864 13.0342 26.5325 12.1683 26.3502L10.9118 26.0767C9.59666 25.8163 8.54848 25.1002 8.54848 23.5507C8.54848 21.7734 10.0329 20.7773 12.0185 20.7773C14.167 20.7773 15.4365 21.9752 15.456 23.4921H13.4704C13.4313 22.9387 12.9691 22.3984 12.012 22.3984C11.1722 22.3984 10.6904 22.7955 10.6904 23.3814C10.6904 23.8567 11.1136 24.1497 11.8818 24.2994L13.1709 24.5598C14.4469 24.8072 15.6058 25.4387 15.6058 27.1249C15.6058 28.8632 14.2776 29.996 11.9534 29.996ZM16.9209 20.9465H20.6774C22.7217 20.9465 23.7894 22.3528 23.7894 24.0325C23.7894 25.7382 22.7021 27.0859 20.6513 27.0859H19.0693V29.8333H16.9209V20.9465ZM19.9287 25.4648C20.9638 25.4648 21.6084 25.0741 21.6084 24.0325C21.6084 23.108 21.055 22.6002 20.1761 22.6002H19.0628V25.4648H19.9287ZM29.7269 20.9465H32.1422L29.3818 25.3866L32.1097 29.8333H29.6813L28.0016 26.9166H27.9105L26.2308 29.8333H23.9261L26.5823 25.3606L23.9326 20.9465H26.4586L28.0537 23.9413H28.1448L29.7269 20.9465Z" fill="#5425DB"/>
<path opacity="0.5" d="M6.1114 18.3333H3.33362L6.1114 15.8333V18.3333ZM33.8892 18.3333V15.8333L36.667 18.3333H33.8892Z" fill="#F7F7F9"/>
</svg>
