<svg width="40" height="40" viewBox="0 0 40 40" fill="none" xmlns="http://www.w3.org/2000/svg">
<path fill-rule="evenodd" clip-rule="evenodd" d="M32.4272 36.6666H7.57344C6.76569 36.6666 6.11145 36.018 6.11145 35.2173V4.78253C6.11145 3.9818 6.76569 3.33325 7.57344 3.33325H25.1173L33.8892 12.0289V35.2173C33.8892 36.018 33.235 36.6666 32.4272 36.6666Z" fill="#F7F7F9"/>
<path d="M33.873 12.0127H26.5794C25.7717 12.0127 25.1174 11.3641 25.1174 10.5634V3.33325L33.873 12.0127Z" fill="#EAEAEA"/>
<path fill-rule="evenodd" clip-rule="evenodd" d="M3.33362 18.3333L6.1114 15.8333V18.3333H33.8892V15.8333L36.667 18.3333V30.9258C36.667 31.7955 36.0184 32.4999 35.2177 32.4999H4.78289C3.98217 32.4999 3.33362 31.7955 3.33362 30.9258V18.3333ZM11.6019 26.0572H10.6188V24.4687H11.5563C12.305 24.4687 12.7933 24.0195 12.7933 23.401C12.7868 22.828 12.292 22.3918 11.5758 22.3918C10.7881 22.3918 10.3584 22.9583 10.3388 23.4921H8.34015C8.39874 21.9101 9.58364 20.7903 11.6605 20.7903C13.4899 20.7903 14.8701 21.7408 14.8831 23.121C14.8961 24.384 13.9521 25.0155 13.2816 25.1067V25.1978C14.1409 25.2564 15.137 25.927 15.15 27.3333C15.1631 28.9869 13.4834 29.996 11.5758 29.996C9.29718 29.996 8.23598 28.707 8.21645 27.2551H10.1826C10.2282 27.8931 10.7946 28.3619 11.6279 28.3619C12.4873 28.3619 13.0146 27.8606 13.0081 27.1965C13.0081 26.565 12.5133 26.0572 11.6019 26.0572ZM20.0003 20.7903C22.3831 20.7903 23.6266 22.2681 23.6657 23.8827H21.5823C21.4912 23.1275 20.9378 22.5481 19.9873 22.5481C18.8545 22.5481 18.236 23.3684 18.236 24.8137V25.8879C18.236 27.2226 18.7047 28.2317 20.0459 28.2317C21.0615 28.2317 21.6474 27.5872 21.6474 26.8385V26.4609H20.1045V24.9504H23.6722V26.6757C23.6722 28.4075 22.4938 29.996 19.9938 29.996C17.2464 29.996 16.0615 28.2187 16.0615 25.8945V24.7942C16.0615 22.4309 17.4547 20.7903 20.0003 20.7903ZM25.0459 20.9465H28.8024C30.8467 20.9465 31.9144 22.3528 31.9144 24.0325C31.9144 25.7382 30.8271 27.0859 28.7763 27.0859H27.1943V29.8333H25.0459V20.9465ZM28.0537 25.4648C29.0888 25.4648 29.7334 25.0741 29.7334 24.0325C29.7334 23.108 29.18 22.6002 28.3011 22.6002H27.1878V25.4648H28.0537Z" fill="#C823A3"/>
<path opacity="0.5" d="M6.1114 18.3333H3.33362L6.1114 15.8333V18.3333ZM33.8892 18.3333V15.8333L36.667 18.3333H33.8892Z" fill="#F7F7F9"/>
</svg>
