<svg width="40" height="40" viewBox="0 0 40 40" fill="none" xmlns="http://www.w3.org/2000/svg">
<path fill-rule="evenodd" clip-rule="evenodd" d="M32.4272 36.6666H7.57344C6.76569 36.6666 6.11145 36.018 6.11145 35.2173V4.78253C6.11145 3.9818 6.76569 3.33325 7.57344 3.33325H25.1173L33.8892 12.0289V35.2173C33.8892 36.018 33.235 36.6666 32.4272 36.6666Z" fill="#F7F7F9"/>
<path d="M33.873 12.0127H26.5794C25.7717 12.0127 25.1174 11.3641 25.1174 10.5634V3.33325L33.873 12.0127Z" fill="#EAEAEA"/>
<path fill-rule="evenodd" clip-rule="evenodd" d="M3.33362 18.3333L6.1114 15.8333V18.3333H33.8892V15.8333L36.667 18.3333V30.9258C36.667 31.7955 36.0184 32.4999 35.2177 32.4999H4.78289C3.98217 32.4999 3.33362 31.7955 3.33362 30.9258V18.3333ZM9.19952 24.332V29.8333H7.28546V20.9465H9.51202L11.7907 25.9661H11.8558L14.1409 20.9465H16.3415V29.8333H14.4079V24.332H14.3167L12.4417 28.4921H11.1787L9.29718 24.332H9.19952ZM17.5914 26.6106C18.581 24.6965 19.7138 22.7955 20.8336 20.9465H23.8805V26.6301H24.9222V28.3163H23.8805V29.8333H21.8753V28.3163H17.5914V26.6106ZM19.4664 26.6041V26.6301H21.8753V22.4895H21.7907C20.9769 23.8046 20.1761 25.1783 19.4664 26.6041ZM30.7816 29.8333H28.0732L25.2477 20.9465H27.7477L29.4404 27.5221H29.5316L31.1982 20.9465H33.568L30.7816 29.8333Z" fill="#234C91"/>
<path opacity="0.5" d="M6.1114 18.3333H3.33362L6.1114 15.8333V18.3333ZM33.8892 18.3333V15.8333L36.667 18.3333H33.8892Z" fill="#F7F7F9"/>
</svg>
