<svg width="40" height="40" viewBox="0 0 40 40" fill="none" xmlns="http://www.w3.org/2000/svg">
<path fill-rule="evenodd" clip-rule="evenodd" d="M32.4272 36.6666H7.57344C6.76569 36.6666 6.11145 36.018 6.11145 35.2173V4.78253C6.11145 3.9818 6.76569 3.33325 7.57344 3.33325H25.1173L33.8892 12.0289V35.2173C33.8892 36.018 33.235 36.6666 32.4272 36.6666Z" fill="#F7F7F9"/>
<path d="M33.873 12.0127H26.5794C25.7717 12.0127 25.1174 11.3641 25.1174 10.5634V3.33325L33.873 12.0127Z" fill="#EAEAEA"/>
<path fill-rule="evenodd" clip-rule="evenodd" d="M3.33362 18.3333L6.1114 15.8333V18.3333H33.8892V15.8333L36.667 18.3333V30.9258C36.667 31.7955 36.0184 32.4999 35.2177 32.4999H4.78289C3.98217 32.4999 3.33362 31.7955 3.33362 30.9258V18.3333ZM9.20603 24.332V29.8333H7.29197V20.9465H9.51853L11.7972 25.9661H11.8623L14.1474 20.9465H16.348V29.8333H14.4144V24.332H14.3232L12.4482 28.4921H11.1852L9.30369 24.332H9.20603ZM17.598 26.6106C18.5875 24.6965 19.7204 22.7955 20.8401 20.9465H23.887V26.6301H24.9287V28.3163H23.887V29.8333H21.8818V28.3163H17.598V26.6106ZM19.473 26.6041V26.6301H21.8818V22.4895H21.7972C20.9834 23.8046 20.1826 25.1783 19.473 26.6041ZM30.1045 29.8333H26.1006V20.9465H30.0394C31.6735 20.9465 32.7737 21.7603 32.7737 23.1275C32.7737 24.2603 32.0446 24.8984 31.1852 25.0676V25.1653C32.1748 25.2369 33.1969 25.914 33.1969 27.3137C33.1969 28.9283 31.8362 29.8333 30.1045 29.8333ZM29.4925 22.47H28.2295V24.5598H29.2646C30.2477 24.5598 30.6709 24.1301 30.6709 23.4986C30.6709 22.8736 30.2412 22.47 29.4925 22.47ZM29.5967 25.94H28.2295V28.3098H29.3818C30.5342 28.3098 31.0094 27.8606 31.0094 27.1379C31.0094 26.4153 30.5342 25.94 29.5967 25.94Z" fill="#E15182"/>
<path opacity="0.5" d="M6.1114 18.3333H3.33362L6.1114 15.8333V18.3333ZM33.8892 18.3333V15.8333L36.667 18.3333H33.8892Z" fill="#F7F7F9"/>
</svg>
