<svg width="40" height="40" viewBox="0 0 40 40" fill="none" xmlns="http://www.w3.org/2000/svg">
<path fill-rule="evenodd" clip-rule="evenodd" d="M32.4272 36.6666H7.57344C6.76569 36.6666 6.11145 36.018 6.11145 35.2173V4.78253C6.11145 3.9818 6.76569 3.33325 7.57344 3.33325H25.1173L33.8892 12.0289V35.2173C33.8892 36.018 33.235 36.6666 32.4272 36.6666Z" fill="#F7F7F9"/>
<path d="M33.873 12.0127H26.5794C25.7717 12.0127 25.1174 11.3641 25.1174 10.5634V3.33325L33.873 12.0127Z" fill="#EAEAEA"/>
<path fill-rule="evenodd" clip-rule="evenodd" d="M3.33362 18.3333L6.1114 15.8333V18.3333H33.8892V15.8333L36.667 18.3333V30.9258C36.667 31.7955 36.0184 32.4999 35.2177 32.4999H4.78289C3.98217 32.4999 3.33362 31.7955 3.33362 30.9258V18.3333ZM9.49249 27.7955L8.91307 29.8333H6.76463L9.62921 20.9465H12.2594L15.1045 29.8333H12.8128L12.2399 27.7955H9.49249ZM11.8558 26.2395L10.9313 22.8736H10.8336L9.88963 26.2395H11.8558ZM18.1904 20.9465V29.8333H16.0355V20.9465H18.1904ZM22.0706 26.4869V29.8333H19.9157V20.9465H25.8401V22.6718H22.0706V24.8072H25.5016V26.4869H22.0706ZM29.193 26.4869V29.8333H27.0381V20.9465H32.9625V22.6718H29.193V24.8072H32.624V26.4869H29.193Z" fill="#2397AB"/>
<path opacity="0.5" d="M6.1114 18.3333H3.33362L6.1114 15.8333V18.3333ZM33.8892 18.3333V15.8333L36.667 18.3333H33.8892Z" fill="#F7F7F9"/>
</svg>
