<svg width="40" height="40" viewBox="0 0 40 40" fill="none" xmlns="http://www.w3.org/2000/svg">
<path fill-rule="evenodd" clip-rule="evenodd" d="M32.4274 36.6666H7.57356C6.76581 36.6666 6.11157 36.018 6.11157 35.2173V4.78253C6.11157 3.9818 6.76581 3.33325 7.57356 3.33325H25.1174L33.8893 12.0289V35.2173C33.8893 36.018 33.2351 36.6666 32.4274 36.6666Z" fill="#F7F7F9"/>
<path d="M33.873 12.0127H26.5794C25.7717 12.0127 25.1174 11.3641 25.1174 10.5634V3.33325L33.873 12.0127Z" fill="#EAEAEA"/>
<path fill-rule="evenodd" clip-rule="evenodd" d="M3.3335 18.3333L6.11127 15.8333V18.3333H33.889V15.8333L36.6668 18.3333V30.9258C36.6668 31.7955 36.0183 32.4999 35.2176 32.4999H4.78277C3.98205 32.4999 3.3335 31.7955 3.3335 30.9258V18.3333ZM15.4234 24.8984V25.9335C15.4234 28.4335 13.9715 29.996 11.452 29.996C8.93899 29.996 7.48716 28.4335 7.48716 25.9335V24.8984C7.48716 22.3723 8.95201 20.7903 11.465 20.7903C13.978 20.7903 15.4234 22.3853 15.4234 24.8984ZM13.2228 25.94V24.8723C13.2228 23.3359 12.5067 22.5351 11.4585 22.5351C10.4038 22.5351 9.68768 23.3359 9.68768 24.8723V25.94C9.68768 27.483 10.4038 28.2447 11.4585 28.2447C12.5067 28.2447 13.2228 27.483 13.2228 25.94ZM20.3713 20.7903C22.7541 20.7903 23.9976 22.2681 24.0366 23.8827H21.9533C21.8622 23.1275 21.3088 22.5481 20.3583 22.5481C19.2254 22.5481 18.607 23.3684 18.607 24.8137V25.8879C18.607 27.2226 19.0757 28.2317 20.4168 28.2317C21.4325 28.2317 22.0184 27.5872 22.0184 26.8385V26.4609H20.4754V24.9504H24.0432V26.6757C24.0432 28.4075 22.8648 29.996 20.3648 29.996C17.6174 29.996 16.4325 28.2187 16.4325 25.8945V24.7942C16.4325 22.4309 17.8257 20.7903 20.3713 20.7903ZM27.3374 27.7955L26.758 29.8333H24.6096L27.4741 20.9465H30.1043L32.9494 29.8333H30.6577L30.0848 27.7955H27.3374ZM29.7007 26.2395L28.7762 22.8736H28.6786L27.7346 26.2395H29.7007Z" fill="#1758AA"/>
<path opacity="0.5" d="M6.11127 18.3333H3.3335L6.11127 15.8333V18.3333ZM33.889 18.3333V15.8333L36.6668 18.3333H33.889Z" fill="#F7F7F9"/>
</svg>
