<svg width="40" height="40" viewBox="0 0 40 40" fill="none" xmlns="http://www.w3.org/2000/svg">
<path fill-rule="evenodd" clip-rule="evenodd" d="M32.4272 36.6666H7.57344C6.76569 36.6666 6.11145 36.018 6.11145 35.2173V4.78253C6.11145 3.9818 6.76569 3.33325 7.57344 3.33325H25.1173L33.8892 12.0289V35.2173C33.8892 36.018 33.235 36.6666 32.4272 36.6666Z" fill="#F7F7F9"/>
<path d="M33.873 12.0127H26.5794C25.7717 12.0127 25.1174 11.3641 25.1174 10.5634V3.33325L33.873 12.0127Z" fill="#EAEAEA"/>
<path fill-rule="evenodd" clip-rule="evenodd" d="M3.33362 18.3333L6.1114 15.8333V18.3333H33.8892V15.8333L36.667 18.3333V30.9258C36.667 31.7955 36.0184 32.4999 35.2177 32.4999H4.78289C3.98217 32.4999 3.33362 31.7955 3.33362 30.9258V18.3333ZM8.82192 27.7955L8.24249 29.8333H6.09406L8.95864 20.9465H11.5888L14.4339 29.8333H12.1422L11.5693 27.7955H8.82192ZM11.1852 26.2395L10.2607 22.8736H10.1631L9.21906 26.2395H11.1852ZM17.5198 20.9465V29.8333H15.3649V20.9465H17.5198ZM21.4 26.4869V29.8333H19.2451V20.9465H25.1696V22.6718H21.4V24.8072H24.831V26.4869H21.4ZM29.8831 22.5676C28.8089 22.5676 28.1969 23.401 28.1969 24.9309V25.8814C28.1969 27.3918 28.8089 28.2187 29.8831 28.2187C30.8532 28.2187 31.4326 27.5286 31.4391 26.5911H33.4964V26.8515C33.4964 28.733 31.973 29.996 29.8636 29.996C27.3896 29.996 26.0029 28.401 26.0029 25.8684V24.9309C26.0029 22.3853 27.3896 20.7903 29.8636 20.7903C31.9795 20.7903 33.4964 22.0663 33.4964 23.9869V24.2408H31.4391C31.4326 23.2708 30.8532 22.5676 29.8831 22.5676Z" fill="#6C298D"/>
<path opacity="0.5" d="M6.1114 18.3333H3.33362L6.1114 15.8333V18.3333ZM33.8892 18.3333V15.8333L36.667 18.3333H33.8892Z" fill="#F7F7F9"/>
</svg>
