<svg width="40" height="40" viewBox="0 0 40 40" fill="none" xmlns="http://www.w3.org/2000/svg">
<path fill-rule="evenodd" clip-rule="evenodd" d="M32.4274 36.6666H7.57356C6.76581 36.6666 6.11157 36.018 6.11157 35.2173V4.78253C6.11157 3.9818 6.76581 3.33325 7.57356 3.33325H25.1174L33.8893 12.0289V35.2173C33.8893 36.018 33.2351 36.6666 32.4274 36.6666Z" fill="#F7F7F9"/>
<path d="M33.873 12.0127H26.5794C25.7717 12.0127 25.1174 11.3641 25.1174 10.5634V3.33325L33.873 12.0127Z" fill="#EAEAEA"/>
<path fill-rule="evenodd" clip-rule="evenodd" d="M3.3335 18.3333L6.11127 15.8333V18.3333H33.889V15.8333L36.6668 18.3333V30.9258C36.6668 31.7955 36.0183 32.4999 35.2176 32.4999H4.78277C3.98205 32.4999 3.3335 31.7955 3.3335 30.9258V18.3333ZM12.8517 22.7043V29.8333H10.7033V22.7043H8.28794V20.9465H15.2736V22.7043H12.8517ZM19.3296 29.996C16.6148 29.996 15.7554 28.5181 15.7359 27.2291H17.7866C17.8257 27.8085 18.3726 28.3554 19.4077 28.3554C20.3908 28.3554 20.8596 27.9257 20.8596 27.3398C20.8596 26.7864 20.4103 26.5325 19.5445 26.3502L18.2879 26.0767C16.9728 25.8163 15.9247 25.1002 15.9247 23.5507C15.9247 21.7734 17.409 20.7773 19.3947 20.7773C21.5432 20.7773 22.8127 21.9752 22.8322 23.4921H20.8465C20.8075 22.9387 20.3452 22.3984 19.3882 22.3984C18.5484 22.3984 18.0666 22.7955 18.0666 23.3814C18.0666 23.8567 18.4898 24.1497 19.258 24.2994L20.5471 24.5598C21.8231 24.8072 22.982 25.4387 22.982 27.1249C22.982 28.8632 21.6538 29.996 19.3296 29.996ZM28.9846 29.8333H26.2762L23.4507 20.9465H25.9507L27.6434 27.5221H27.7346L29.4012 20.9465H31.771L28.9846 29.8333Z" fill="#8C2894"/>
<path opacity="0.5" d="M6.11127 18.3333H3.3335L6.11127 15.8333V18.3333ZM33.889 18.3333V15.8333L36.6668 18.3333H33.889Z" fill="#F7F7F9"/>
</svg>
