<svg width="40" height="40" viewBox="0 0 40 40" fill="none" xmlns="http://www.w3.org/2000/svg">
<path fill-rule="evenodd" clip-rule="evenodd" d="M32.4274 36.6666H7.57356C6.76581 36.6666 6.11157 36.018 6.11157 35.2173V4.78253C6.11157 3.9818 6.76581 3.33325 7.57356 3.33325H25.1174L33.8893 12.0289V35.2173C33.8893 36.018 33.2351 36.6666 32.4274 36.6666Z" fill="#F7F7F9"/>
<path d="M33.873 12.0127H26.5794C25.7717 12.0127 25.1174 11.3641 25.1174 10.5634V3.33325L33.873 12.0127Z" fill="#EAEAEA"/>
<path fill-rule="evenodd" clip-rule="evenodd" d="M3.3335 18.3333L6.11127 15.8333V18.3333H33.889V15.8333L36.6668 18.3333V30.9258C36.6668 31.7955 36.0183 32.4999 35.2176 32.4999H4.78277C3.98205 32.4999 3.3335 31.7955 3.3335 30.9258V18.3333ZM12.1682 24.1887L10.6577 29.8333H8.65253L6.37388 20.9465H8.62649L9.78534 26.9036H9.87648L11.3283 20.9465H13.0861L14.5379 26.9036H14.6356L15.7814 20.9465H18.034L15.7554 29.8333H13.7502L12.2463 24.1887H12.1682ZM20.3452 27.7955L19.7658 29.8333H17.6174L20.482 20.9465H23.1122L25.9572 29.8333H23.6655L23.0926 27.7955H20.3452ZM22.7085 26.2395L21.784 22.8736H21.6864L20.7424 26.2395H22.7085ZM30.8335 29.8333H28.1252L25.2997 20.9465H27.7997L29.4924 27.5221H29.5835L31.2502 20.9465H33.62L30.8335 29.8333Z" fill="#901B3C"/>
<path opacity="0.5" d="M6.11127 18.3333H3.3335L6.11127 15.8333V18.3333ZM33.889 18.3333V15.8333L36.6668 18.3333H33.889Z" fill="#F7F7F9"/>
</svg>
