<?xml version="1.0" encoding="UTF-8"?>
<svg width="24px" height="24px" viewBox="0 0 24 24" version="1.1" xmlns="http://www.w3.org/2000/svg" xmlns:xlink="http://www.w3.org/1999/xlink">
    <title>iconFileUnknown</title>
    <g id="Assets" stroke="none" stroke-width="1" fill="none" fill-rule="evenodd">
        <g id="assets" transform="translate(-1032.000000, -979.000000)">
            <g id="icon/Filetype" transform="translate(1032.000000, 979.000000)">
                <path d="M20.9473684,24 L3.05263158,24 C2.47105263,24 2,23.5330435 2,22.9565217 L2,1.04347826 C2,0.466956522 2.47105263,0 3.05263158,0 L15.6842105,0 L22,6.26086957 L22,22.9565217 C22,23.5330435 21.5289474,24 20.9473684,24 Z" id="Document" fill="#F2F2F4"></path>
                <path d="M2,9.082 L2,11 L22,11 L22,9.083 L24,11 L22.4347826,13 L1.56521739,13 L0,11 L2,9.082 Z" id="Combined-Shape" fill="#B989E2" fill-rule="nonzero"></path>
                <path d="M22.9565217,21 L1.04347826,21 C0.466956522,21 0,20.5027778 0,19.8888889 L0,11 L24,11 L24,19.8888889 C24,20.5027778 23.5330435,21 22.9565217,21 Z" id="Path" fill="#7E1BCC"></path>
                <path d="M16,0 L16,5 C16,5.5525 16.4475,6 17,6 L22,6 L16,0 Z" id="Corner" fill="#DAD9E0"></path>
                <path d="M2,11 L0,11 L2,9.08333333 L2,11 Z M22,11 L22,9.08333333 L24,11 L22,11 Z" id="Shape" fill="#F7F7F9" fill-rule="nonzero" opacity="0.5"></path>
            </g>
            <path d="M1039.46,995.72 C1039.32,995.806667 1039.225,995.89 1039.175,995.97 C1039.125,996.05 1039.1,996.133333 1039.1,996.22 L1039.1,996.48 L1036.97,996.48 L1036.97,996.11 C1036.97,995.909999 1036.995,995.735001 1037.045,995.585 C1037.095,995.434999 1037.16333,995.300001 1037.25,995.18 C1037.33667,995.059999 1037.44,994.948334 1037.56,994.845 C1037.68,994.741666 1037.81,994.640001 1037.95,994.54 L1038.12,994.42 C1038.22667,994.346666 1038.30833,994.275 1038.365,994.205 C1038.42167,994.135 1038.45,994.06 1038.45,993.98 C1038.45,993.839999 1038.40833,993.741667 1038.325,993.685 C1038.24167,993.628333 1038.14333,993.6 1038.03,993.6 C1037.81,993.6 1037.65333,993.678333 1037.56,993.835 C1037.46667,993.991667 1037.42,994.173332 1037.42,994.38 L1035.27,994.1 C1035.31,993.673331 1035.415,993.308335 1035.585,993.005 C1035.755,992.701665 1035.96833,992.455001 1036.225,992.265 C1036.48167,992.074999 1036.76833,991.936667 1037.085,991.85 C1037.40167,991.763333 1037.73,991.72 1038.07,991.72 C1038.37667,991.72 1038.69,991.755 1039.01,991.825 C1039.33,991.895 1039.62,992.011666 1039.88,992.175 C1040.14,992.338334 1040.35333,992.554999 1040.52,992.825 C1040.68667,993.095001 1040.77,993.426665 1040.77,993.82 C1040.77,994.053335 1040.74,994.259999 1040.68,994.44 C1040.62,994.620001 1040.53333,994.784999 1040.42,994.935 C1040.30667,995.085001 1040.16833,995.223333 1040.005,995.35 C1039.84167,995.476667 1039.66,995.599999 1039.46,995.72 Z M1038.04,999.16 C1037.86667,999.16 1037.705,999.128334 1037.555,999.065 C1037.405,999.001666 1037.27333,998.916667 1037.16,998.81 C1037.04667,998.703333 1036.95833,998.576667 1036.895,998.43 C1036.83167,998.283333 1036.8,998.123334 1036.8,997.95 C1036.8,997.783333 1036.83167,997.626667 1036.895,997.48 C1036.95833,997.333333 1037.04667,997.205001 1037.16,997.095 C1037.27333,996.984999 1037.405,996.898334 1037.555,996.835 C1037.705,996.771666 1037.86667,996.74 1038.04,996.74 C1038.21333,996.74 1038.375,996.771666 1038.525,996.835 C1038.675,996.898334 1038.80667,996.984999 1038.92,997.095 C1039.03333,997.205001 1039.12167,997.333333 1039.185,997.48 C1039.24833,997.626667 1039.28,997.783333 1039.28,997.95 C1039.28,998.123334 1039.24833,998.283333 1039.185,998.43 C1039.12167,998.576667 1039.03333,998.703333 1038.92,998.81 C1038.80667,998.916667 1038.675,999.001666 1038.525,999.065 C1038.375,999.128334 1038.21333,999.16 1038.04,999.16 Z M1045.33,995.72 C1045.19,995.806667 1045.095,995.89 1045.045,995.97 C1044.995,996.05 1044.97,996.133333 1044.97,996.22 L1044.97,996.48 L1042.84,996.48 L1042.84,996.11 C1042.84,995.909999 1042.865,995.735001 1042.915,995.585 C1042.965,995.434999 1043.03333,995.300001 1043.12,995.18 C1043.20667,995.059999 1043.31,994.948334 1043.43,994.845 C1043.55,994.741666 1043.68,994.640001 1043.82,994.54 L1043.99,994.42 C1044.09667,994.346666 1044.17833,994.275 1044.235,994.205 C1044.29167,994.135 1044.32,994.06 1044.32,993.98 C1044.32,993.839999 1044.27833,993.741667 1044.195,993.685 C1044.11167,993.628333 1044.01333,993.6 1043.9,993.6 C1043.68,993.6 1043.52333,993.678333 1043.43,993.835 C1043.33667,993.991667 1043.29,994.173332 1043.29,994.38 L1041.14,994.1 C1041.18,993.673331 1041.285,993.308335 1041.455,993.005 C1041.625,992.701665 1041.83833,992.455001 1042.095,992.265 C1042.35167,992.074999 1042.63833,991.936667 1042.955,991.85 C1043.27167,991.763333 1043.6,991.72 1043.94,991.72 C1044.24667,991.72 1044.56,991.755 1044.88,991.825 C1045.2,991.895 1045.49,992.011666 1045.75,992.175 C1046.01,992.338334 1046.22333,992.554999 1046.39,992.825 C1046.55667,993.095001 1046.64,993.426665 1046.64,993.82 C1046.64,994.053335 1046.61,994.259999 1046.55,994.44 C1046.49,994.620001 1046.40333,994.784999 1046.29,994.935 C1046.17667,995.085001 1046.03833,995.223333 1045.875,995.35 C1045.71167,995.476667 1045.53,995.599999 1045.33,995.72 Z M1043.91,999.16 C1043.73667,999.16 1043.575,999.128334 1043.425,999.065 C1043.275,999.001666 1043.14333,998.916667 1043.03,998.81 C1042.91667,998.703333 1042.82833,998.576667 1042.765,998.43 C1042.70167,998.283333 1042.67,998.123334 1042.67,997.95 C1042.67,997.783333 1042.70167,997.626667 1042.765,997.48 C1042.82833,997.333333 1042.91667,997.205001 1043.03,997.095 C1043.14333,996.984999 1043.275,996.898334 1043.425,996.835 C1043.575,996.771666 1043.73667,996.74 1043.91,996.74 C1044.08333,996.74 1044.245,996.771666 1044.395,996.835 C1044.545,996.898334 1044.67667,996.984999 1044.79,997.095 C1044.90333,997.205001 1044.99167,997.333333 1045.055,997.48 C1045.11833,997.626667 1045.15,997.783333 1045.15,997.95 C1045.15,998.123334 1045.11833,998.283333 1045.055,998.43 C1044.99167,998.576667 1044.90333,998.703333 1044.79,998.81 C1044.67667,998.916667 1044.545,999.001666 1044.395,999.065 C1044.245,999.128334 1044.08333,999.16 1043.91,999.16 Z M1051.2,995.72 C1051.06,995.806667 1050.965,995.89 1050.915,995.97 C1050.865,996.05 1050.84,996.133333 1050.84,996.22 L1050.84,996.48 L1048.71,996.48 L1048.71,996.11 C1048.71,995.909999 1048.735,995.735001 1048.785,995.585 C1048.835,995.434999 1048.90333,995.300001 1048.99,995.18 C1049.07667,995.059999 1049.18,994.948334 1049.3,994.845 C1049.42,994.741666 1049.55,994.640001 1049.69,994.54 L1049.86,994.42 C1049.96667,994.346666 1050.04833,994.275 1050.105,994.205 C1050.16167,994.135 1050.19,994.06 1050.19,993.98 C1050.19,993.839999 1050.14833,993.741667 1050.065,993.685 C1049.98167,993.628333 1049.88333,993.6 1049.77,993.6 C1049.55,993.6 1049.39333,993.678333 1049.3,993.835 C1049.20667,993.991667 1049.16,994.173332 1049.16,994.38 L1047.01,994.1 C1047.05,993.673331 1047.155,993.308335 1047.325,993.005 C1047.495,992.701665 1047.70833,992.455001 1047.965,992.265 C1048.22167,992.074999 1048.50833,991.936667 1048.825,991.85 C1049.14167,991.763333 1049.47,991.72 1049.81,991.72 C1050.11667,991.72 1050.43,991.755 1050.75,991.825 C1051.07,991.895 1051.36,992.011666 1051.62,992.175 C1051.88,992.338334 1052.09333,992.554999 1052.26,992.825 C1052.42667,993.095001 1052.51,993.426665 1052.51,993.82 C1052.51,994.053335 1052.48,994.259999 1052.42,994.44 C1052.36,994.620001 1052.27333,994.784999 1052.16,994.935 C1052.04667,995.085001 1051.90833,995.223333 1051.745,995.35 C1051.58167,995.476667 1051.4,995.599999 1051.2,995.72 Z M1049.78,999.16 C1049.60667,999.16 1049.445,999.128334 1049.295,999.065 C1049.145,999.001666 1049.01333,998.916667 1048.9,998.81 C1048.78667,998.703333 1048.69833,998.576667 1048.635,998.43 C1048.57167,998.283333 1048.54,998.123334 1048.54,997.95 C1048.54,997.783333 1048.57167,997.626667 1048.635,997.48 C1048.69833,997.333333 1048.78667,997.205001 1048.9,997.095 C1049.01333,996.984999 1049.145,996.898334 1049.295,996.835 C1049.445,996.771666 1049.60667,996.74 1049.78,996.74 C1049.95333,996.74 1050.115,996.771666 1050.265,996.835 C1050.415,996.898334 1050.54667,996.984999 1050.66,997.095 C1050.77333,997.205001 1050.86167,997.333333 1050.925,997.48 C1050.98833,997.626667 1051.02,997.783333 1051.02,997.95 C1051.02,998.123334 1050.98833,998.283333 1050.925,998.43 C1050.86167,998.576667 1050.77333,998.703333 1050.66,998.81 C1050.54667,998.916667 1050.415,999.001666 1050.265,999.065 C1050.115,999.128334 1049.95333,999.16 1049.78,999.16 Z" id="???" fill="#FFFFFF" fill-rule="nonzero"></path>
        </g>
    </g>
</svg>