<svg width="40" height="40" viewBox="0 0 40 40" fill="none" xmlns="http://www.w3.org/2000/svg">
<path fill-rule="evenodd" clip-rule="evenodd" d="M32.4274 36.6666H7.57356C6.76581 36.6666 6.11157 36.018 6.11157 35.2173V4.78253C6.11157 3.9818 6.76581 3.33325 7.57356 3.33325H25.1174L33.8893 12.0289V35.2173C33.8893 36.018 33.2351 36.6666 32.4274 36.6666Z" fill="#F7F7F9"/>
<path d="M33.873 12.0127H26.5794C25.7717 12.0127 25.1174 11.3641 25.1174 10.5634V3.33325L33.873 12.0127Z" fill="#EAEAEA"/>
<path fill-rule="evenodd" clip-rule="evenodd" d="M3.3335 18.3333L6.11127 15.8333V18.3333H33.889V15.8333L36.6668 18.3333V30.9258C36.6668 31.7955 36.0183 32.4999 35.2176 32.4999H4.78277C3.98205 32.4999 3.3335 31.7955 3.3335 30.9258V18.3333ZM8.95201 27.7955L8.37258 29.8333H6.22414L9.08872 20.9465H11.7189L14.564 29.8333H12.2723L11.6994 27.7955H8.95201ZM11.3153 26.2395L10.3908 22.8736H10.2932L9.34914 26.2395H11.3153ZM17.4155 24.332V29.8333H15.5015V20.9465H17.728L20.0067 25.9661H20.0718L22.357 20.9465H24.5575V29.8333H22.6239V24.332H22.5327L20.6577 28.4921H19.3947L17.5132 24.332H17.4155ZM26.3023 20.9465H30.0653C32.2593 20.9465 33.34 22.1835 33.34 23.8567C33.34 25.3215 32.357 26.1158 31.7515 26.3632L33.5223 29.8333H31.1395L29.6356 26.6627H28.4181V29.8333H26.3023V20.9465ZM28.4181 22.5611V25.1392H29.7267C30.5601 25.1392 31.12 24.7161 31.12 23.8762C31.12 22.9973 30.5145 22.5611 29.7463 22.5611H28.4181Z" fill="#8B1480"/>
<path opacity="0.5" d="M6.11127 18.3333H3.3335L6.11127 15.8333V18.3333ZM33.889 18.3333V15.8333L36.6668 18.3333H33.889Z" fill="#F7F7F9"/>
</svg>
