<svg width="40" height="40" viewBox="0 0 40 40" fill="none" xmlns="http://www.w3.org/2000/svg">
<path fill-rule="evenodd" clip-rule="evenodd" d="M32.4272 36.6666H7.57344C6.76569 36.6666 6.11145 36.018 6.11145 35.2173V4.78253C6.11145 3.9818 6.76569 3.33325 7.57344 3.33325H25.1173L33.8892 12.0289V35.2173C33.8892 36.018 33.235 36.6666 32.4272 36.6666Z" fill="#F7F7F9"/>
<path d="M33.873 12.0127H26.5794C25.7717 12.0127 25.1174 11.3641 25.1174 10.5634V3.33325L33.873 12.0127Z" fill="#EAEAEA"/>
<path fill-rule="evenodd" clip-rule="evenodd" d="M3.33362 18.3333L6.1114 15.8333V18.3333H33.8892V15.8333L36.667 18.3333V30.9258C36.667 31.7955 36.0184 32.4999 35.2177 32.4999H4.78289C3.98217 32.4999 3.33362 31.7955 3.33362 30.9258V18.3333ZM11.3675 26.0572H10.3844V24.4687H11.3219C12.0706 24.4687 12.5589 24.0195 12.5589 23.401C12.5524 22.828 12.0576 22.3918 11.3415 22.3918C10.5537 22.3918 10.124 22.9583 10.1045 23.4921H8.10577C8.16437 21.9101 9.34926 20.7903 11.4261 20.7903C13.2555 20.7903 14.6357 21.7408 14.6487 23.121C14.6618 24.384 13.7178 25.0155 13.0472 25.1067V25.1978C13.9066 25.2564 14.9026 25.927 14.9157 27.3333C14.9287 28.9869 13.249 29.996 11.3415 29.996C9.06281 29.996 8.00161 28.707 7.98208 27.2551H9.94822C9.99379 27.8931 10.5602 28.3619 11.3935 28.3619C12.2529 28.3619 12.7803 27.8606 12.7737 27.1965C12.7737 26.565 12.279 26.0572 11.3675 26.0572ZM19.7659 20.7903C22.1487 20.7903 23.3922 22.2681 23.4313 23.8827H21.348C21.2568 23.1275 20.7034 22.5481 19.7529 22.5481C18.6201 22.5481 18.0016 23.3684 18.0016 24.8137V25.8879C18.0016 27.2226 18.4704 28.2317 19.8115 28.2317C20.8271 28.2317 21.4131 27.5872 21.4131 26.8385V26.4609H19.8701V24.9504H23.4378V26.6757C23.4378 28.4075 22.2594 29.996 19.7594 29.996C17.012 29.996 15.8271 28.2187 15.8271 25.8945V24.7942C15.8271 22.4309 17.2204 20.7903 19.7659 20.7903ZM26.7321 27.7955L26.1526 29.8333H24.0042L26.8688 20.9465H29.499L32.3441 29.8333H30.0524L29.4795 27.7955H26.7321ZM29.0954 26.2395L28.1709 22.8736H28.0732L27.1292 26.2395H29.0954Z" fill="#3132C7"/>
<path opacity="0.5" d="M6.1114 18.3333H3.33362L6.1114 15.8333V18.3333ZM33.8892 18.3333V15.8333L36.667 18.3333H33.8892Z" fill="#F7F7F9"/>
</svg>
