<svg width="40" height="40" viewBox="0 0 40 40" fill="none" xmlns="http://www.w3.org/2000/svg">
<path fill-rule="evenodd" clip-rule="evenodd" d="M32.4272 36.6666H7.57344C6.76569 36.6666 6.11145 36.018 6.11145 35.2173V4.78253C6.11145 3.9818 6.76569 3.33325 7.57344 3.33325H25.1173L33.8892 12.0289V35.2173C33.8892 36.018 33.235 36.6666 32.4272 36.6666Z" fill="#F7F7F9"/>
<path d="M33.873 12.0127H26.5794C25.7717 12.0127 25.1174 11.3641 25.1174 10.5634V3.33325L33.873 12.0127Z" fill="#EAEAEA"/>
<path fill-rule="evenodd" clip-rule="evenodd" d="M3.33362 18.3333L6.1114 15.8333V18.3333H33.8892V15.8333L36.667 18.3333V30.9258C36.667 31.7955 36.0184 32.4999 35.2177 32.4999H4.78289C3.98217 32.4999 3.33362 31.7955 3.33362 30.9258V18.3333ZM9.49249 24.332V29.8333H7.57843V20.9465H9.80499L12.0836 25.9661H12.1487L14.4339 20.9465H16.6344V29.8333H14.7008V24.332H14.6097L12.7347 28.4921H11.4717L9.59015 24.332H9.49249ZM18.3792 20.9465H22.1357C24.18 20.9465 25.2477 22.3528 25.2477 24.0325C25.2477 25.7382 24.1605 27.0859 22.1097 27.0859H20.5276V29.8333H18.3792V20.9465ZM21.387 25.4648C22.4222 25.4648 23.0667 25.0741 23.0667 24.0325C23.0667 23.108 22.5133 22.6002 21.6344 22.6002H20.5211V25.4648H21.387ZM29.3362 26.0572H28.3532V24.4687H29.2907C30.0394 24.4687 30.5276 24.0195 30.5276 23.401C30.5211 22.828 30.0263 22.3918 29.3102 22.3918C28.5224 22.3918 28.0928 22.9583 28.0732 23.4921H26.0745C26.1331 21.9101 27.318 20.7903 29.3948 20.7903C31.2243 20.7903 32.6045 21.7408 32.6175 23.121C32.6305 24.384 31.6865 25.0155 31.0159 25.1067V25.1978C31.8753 25.2564 32.8714 25.927 32.8844 27.3333C32.8974 28.9869 31.2178 29.996 29.3102 29.996C27.0316 29.996 25.9704 28.707 25.9508 27.2551H27.917C27.9625 27.8931 28.529 28.3619 29.3623 28.3619C30.2217 28.3619 30.749 27.8606 30.7425 27.1965C30.7425 26.565 30.2477 26.0572 29.3362 26.0572Z" fill="#2336BD"/>
<path opacity="0.5" d="M6.1114 18.3333H3.33362L6.1114 15.8333V18.3333ZM33.8892 18.3333V15.8333L36.667 18.3333H33.8892Z" fill="#F7F7F9"/>
</svg>
