<svg width="40" height="40" viewBox="0 0 40 40" fill="none" xmlns="http://www.w3.org/2000/svg">
<path fill-rule="evenodd" clip-rule="evenodd" d="M32.4272 36.6666H7.57344C6.76569 36.6666 6.11145 36.018 6.11145 35.2173V4.78253C6.11145 3.9818 6.76569 3.33325 7.57344 3.33325H25.1173L33.8892 12.0289V35.2173C33.8892 36.018 33.235 36.6666 32.4272 36.6666Z" fill="#F7F7F9"/>
<path d="M33.873 12.0127H26.5794C25.7717 12.0127 25.1174 11.3641 25.1174 10.5634V3.33325L33.873 12.0127Z" fill="#EAEAEA"/>
<path fill-rule="evenodd" clip-rule="evenodd" d="M3.33362 18.3333L6.1114 15.8333V18.3333H33.8892V15.8333L36.667 18.3333V30.9258C36.667 31.7955 36.0184 32.4999 35.2177 32.4999H4.78289C3.98217 32.4999 3.33362 31.7955 3.33362 30.9258V18.3333ZM9.60317 24.332V29.8333H7.68911V20.9465H9.91567L12.1943 25.9661H12.2594L14.5446 20.9465H16.7451V29.8333H14.8115V24.332H14.7204L12.8454 28.4921H11.5823L9.70083 24.332H9.60317ZM18.4899 20.9465H22.2464C24.2907 20.9465 25.3584 22.3528 25.3584 24.0325C25.3584 25.7382 24.2711 27.0859 22.2204 27.0859H20.6383V29.8333H18.4899V20.9465ZM21.4977 25.4648C22.5329 25.4648 23.1774 25.0741 23.1774 24.0325C23.1774 23.108 22.624 22.6002 21.7451 22.6002H20.6318V25.4648H21.4977ZM28.1579 23.5898V23.7265H26.1461V23.6028C26.1461 22.0273 27.4612 20.7903 29.4079 20.7903C31.2894 20.7903 32.5394 21.8254 32.5394 23.3098C32.5394 24.3189 32.0641 25.0025 30.9508 26.1549L29.1865 28.0559V28.1275H32.6956V29.8333H26.2894V28.5051L29.4534 25.2174C30.0784 24.5793 30.4235 24.1041 30.4235 23.5247C30.4235 22.8866 29.9547 22.4635 29.3037 22.4635C28.6201 22.4635 28.1579 22.9713 28.1579 23.5898Z" fill="#A6292F"/>
<path opacity="0.5" d="M6.1114 18.3333H3.33362L6.1114 15.8333V18.3333ZM33.8892 18.3333V15.8333L36.667 18.3333H33.8892Z" fill="#F7F7F9"/>
</svg>
