<svg width="40" height="40" viewBox="0 0 40 40" fill="none" xmlns="http://www.w3.org/2000/svg">
<path fill-rule="evenodd" clip-rule="evenodd" d="M32.4274 36.6666H7.57356C6.76581 36.6666 6.11157 36.018 6.11157 35.2173V4.78253C6.11157 3.9818 6.76581 3.33325 7.57356 3.33325H25.1174L33.8893 12.0289V35.2173C33.8893 36.018 33.2351 36.6666 32.4274 36.6666Z" fill="#F7F7F9"/>
<path d="M33.873 12.0127H26.5794C25.7717 12.0127 25.1174 11.3641 25.1174 10.5634V3.33325L33.873 12.0127Z" fill="#EAEAEA"/>
<path fill-rule="evenodd" clip-rule="evenodd" d="M3.3335 18.3333L6.11127 15.8333V18.3333H33.889V15.8333L36.6668 18.3333V30.9258C36.6668 31.7955 36.0183 32.4999 35.2176 32.4999H4.78277C3.98205 32.4999 3.3335 31.7955 3.3335 30.9258V18.3333ZM7.51971 26.4869V29.8333H5.36477V20.9465H11.2892V22.6718H7.51971V24.8072H10.9507V26.4869H7.51971ZM14.6421 28.0364H18.2033V29.8333H12.4872V20.9465H14.6421V28.0364ZM21.5432 27.7955L20.9637 29.8333H18.8153L21.6799 20.9465H24.3101L27.1551 29.8333H24.8635L24.2905 27.7955H21.5432ZM23.9064 26.2395L22.982 22.8736H22.8843L21.9403 26.2395H23.9064ZM31.4195 22.5676C30.3452 22.5676 29.7333 23.401 29.7333 24.9309V25.8814C29.7333 27.3918 30.3452 28.2187 31.4195 28.2187C32.3895 28.2187 32.9689 27.5286 32.9754 26.5911H35.0327V26.8515C35.0327 28.733 33.5093 29.996 31.3999 29.996C28.926 29.996 27.5392 28.401 27.5392 25.8684V24.9309C27.5392 22.3853 28.926 20.7903 31.3999 20.7903C33.5158 20.7903 35.0327 22.0663 35.0327 23.9869V24.2408H32.9754C32.9689 23.2708 32.3895 22.5676 31.4195 22.5676Z" fill="#CD2E6A"/>
<path opacity="0.5" d="M6.11127 18.3333H3.3335L6.11127 15.8333V18.3333ZM33.889 18.3333V15.8333L36.6668 18.3333H33.889Z" fill="#F7F7F9"/>
</svg>
