<svg width="40" height="40" viewBox="0 0 40 40" fill="none" xmlns="http://www.w3.org/2000/svg">
<path fill-rule="evenodd" clip-rule="evenodd" d="M32.4274 36.6666H7.57356C6.76581 36.6666 6.11157 36.018 6.11157 35.2173V4.78253C6.11157 3.9818 6.76581 3.33325 7.57356 3.33325H25.1174L33.8893 12.0289V35.2173C33.8893 36.018 33.2351 36.6666 32.4274 36.6666Z" fill="#F7F7F9"/>
<path d="M33.873 12.0127H26.5794C25.7717 12.0127 25.1174 11.3641 25.1174 10.5634V3.33325L33.873 12.0127Z" fill="#EAEAEA"/>
<path fill-rule="evenodd" clip-rule="evenodd" d="M3.3335 18.3333L6.11127 15.8333V18.3333H33.889V15.8333L36.6668 18.3333V30.9258C36.6668 31.7955 36.0183 32.4999 35.2176 32.4999H4.78277C3.98205 32.4999 3.3335 31.7955 3.3335 30.9258V18.3333ZM8.78273 27.7955L8.20331 29.8333H6.05487L8.91945 20.9465H11.5497L14.3947 29.8333H12.103L11.5301 27.7955H8.78273ZM11.146 26.2395L10.2215 22.8736H10.1239L9.17987 26.2395H11.146ZM19.7723 24.1887L18.2619 29.8333H16.2567L13.978 20.9465H16.2307L17.3895 26.9036H17.4807L18.9325 20.9465H20.6903L22.1421 26.9036H22.2398L23.3856 20.9465H25.6382L23.3596 29.8333H21.3543L19.8504 24.1887H19.7723ZM30.5275 29.8333H26.5236V20.9465H30.4624C32.0965 20.9465 33.1968 21.7603 33.1968 23.1275C33.1968 24.2603 32.4676 24.8984 31.6083 25.0676V25.1653C32.5978 25.2369 33.62 25.914 33.62 27.3137C33.62 28.9283 32.2593 29.8333 30.5275 29.8333ZM29.9155 22.47H28.6525V24.5598H29.6877C30.6708 24.5598 31.0939 24.1301 31.0939 23.4986C31.0939 22.8736 30.6642 22.47 29.9155 22.47ZM30.0197 25.94H28.6525V28.3098H29.8049C30.9572 28.3098 31.4325 27.8606 31.4325 27.1379C31.4325 26.4153 30.9572 25.94 30.0197 25.94Z" fill="#2B618B"/>
<path opacity="0.5" d="M6.11127 18.3333H3.3335L6.11127 15.8333V18.3333ZM33.889 18.3333V15.8333L36.6668 18.3333H33.889Z" fill="#F7F7F9"/>
</svg>
