<svg width="40" height="40" viewBox="0 0 40 40" fill="none" xmlns="http://www.w3.org/2000/svg">
<path fill-rule="evenodd" clip-rule="evenodd" d="M32.4272 36.6666H7.57344C6.76569 36.6666 6.11145 36.018 6.11145 35.2173V4.78253C6.11145 3.9818 6.76569 3.33325 7.57344 3.33325H25.1173L33.8892 12.0289V35.2173C33.8892 36.018 33.235 36.6666 32.4272 36.6666Z" fill="#F7F7F9"/>
<path d="M33.873 12.0127H26.5794C25.7717 12.0127 25.1174 11.3641 25.1174 10.5634V3.33325L33.873 12.0127Z" fill="#EAEAEA"/>
<path fill-rule="evenodd" clip-rule="evenodd" d="M3.33362 18.3333L6.1114 15.8333V18.3333H33.8892V15.8333L36.667 18.3333V30.9258C36.667 31.7955 36.0184 32.4999 35.2177 32.4999H4.78289C3.98217 32.4999 3.33362 31.7955 3.33362 30.9258V18.3333ZM9.38182 24.332V29.8333H7.46775V20.9465H9.69432L11.973 25.9661H12.0381L14.3232 20.9465H16.5237V29.8333H14.5901V24.332H14.499L12.624 28.4921H11.361L9.47947 24.332H9.38182ZM17.7737 26.6106C18.7633 24.6965 19.8961 22.7955 21.0159 20.9465H24.0628V26.6301H25.1045V28.3163H24.0628V29.8333H22.0576V28.3163H17.7737V26.6106ZM19.6487 26.6041V26.6301H22.0576V22.4895H21.973C21.1592 23.8046 20.3584 25.1783 19.6487 26.6041ZM26.2763 20.9465H30.0329C32.0771 20.9465 33.1448 22.3528 33.1448 24.0325C33.1448 25.7382 32.0576 27.0859 30.0068 27.0859H28.4248V29.8333H26.2763V20.9465ZM29.2842 25.4648C30.3193 25.4648 30.9638 25.0741 30.9638 24.0325C30.9638 23.108 30.4105 22.6002 29.5316 22.6002H28.4183V25.4648H29.2842Z" fill="#CC5478"/>
<path opacity="0.5" d="M6.1114 18.3333H3.33362L6.1114 15.8333V18.3333ZM33.8892 18.3333V15.8333L36.667 18.3333H33.8892Z" fill="#F7F7F9"/>
</svg>
