<svg width="40" height="40" viewBox="0 0 40 40" fill="none" xmlns="http://www.w3.org/2000/svg">
<path fill-rule="evenodd" clip-rule="evenodd" d="M32.4272 36.6666H7.57344C6.76569 36.6666 6.11145 36.018 6.11145 35.2173V4.78253C6.11145 3.9818 6.76569 3.33325 7.57344 3.33325H25.1173L33.8892 12.0289V35.2173C33.8892 36.018 33.235 36.6666 32.4272 36.6666Z" fill="#F7F7F9"/>
<path d="M33.873 12.0127H26.5794C25.7717 12.0127 25.1174 11.3641 25.1174 10.5634V3.33325L33.873 12.0127Z" fill="#EAEAEA"/>
<path fill-rule="evenodd" clip-rule="evenodd" d="M3.33362 18.3333L6.1114 15.8333V18.3333H33.8892V15.8333L36.667 18.3333V30.9258C36.667 31.7955 36.0184 32.4999 35.2177 32.4999H4.78289C3.98217 32.4999 3.33362 31.7955 3.33362 30.9258V18.3333ZM17.0316 22.7043V29.8333H14.8831V22.7043H12.4678V20.9465H19.4534V22.7043H17.0316ZM23.5094 29.996C20.7946 29.996 19.9352 28.5181 19.9157 27.2291H21.9664C22.0055 27.8085 22.5524 28.3554 23.5875 28.3554C24.5706 28.3554 25.0394 27.9257 25.0394 27.3398C25.0394 26.7864 24.5901 26.5325 23.7243 26.3502L22.4678 26.0767C21.1526 25.8163 20.1045 25.1002 20.1045 23.5507C20.1045 21.7734 21.5888 20.7773 23.5745 20.7773C25.723 20.7773 26.9925 21.9752 27.012 23.4921H25.0263C24.9873 22.9387 24.525 22.3984 23.568 22.3984C22.7282 22.3984 22.2464 22.7955 22.2464 23.3814C22.2464 23.8567 22.6696 24.1497 23.4378 24.2994L24.7269 24.5598C26.0029 24.8072 27.1618 25.4387 27.1618 27.1249C27.1618 28.8632 25.8336 29.996 23.5094 29.996Z" fill="#E02A65"/>
<path opacity="0.5" d="M6.1114 18.3333H3.33362L6.1114 15.8333V18.3333ZM33.8892 18.3333V15.8333L36.667 18.3333H33.8892Z" fill="#F7F7F9"/>
</svg>
