<svg width="40" height="40" viewBox="0 0 40 40" fill="none" xmlns="http://www.w3.org/2000/svg">
<path fill-rule="evenodd" clip-rule="evenodd" d="M32.4274 36.6666H7.57356C6.76581 36.6666 6.11157 36.018 6.11157 35.2173V4.78253C6.11157 3.9818 6.76581 3.33325 7.57356 3.33325H25.1174L33.8893 12.0289V35.2173C33.8893 36.018 33.2351 36.6666 32.4274 36.6666Z" fill="#F7F7F9"/>
<path d="M33.873 12.0127H26.5794C25.7717 12.0127 25.1174 11.3641 25.1174 10.5634V3.33325L33.873 12.0127Z" fill="#EAEAEA"/>
<path fill-rule="evenodd" clip-rule="evenodd" d="M3.3335 18.3333L6.11127 15.8333V18.3333H33.889V15.8333L36.6668 18.3333V30.9258C36.6668 31.7955 36.0183 32.4999 35.2176 32.4999H4.78277C3.98205 32.4999 3.3335 31.7955 3.3335 30.9258V18.3333ZM12.7997 22.7043V29.8333H10.6512V22.7043H8.23586V20.9465H15.2215V22.7043H12.7997ZM19.2775 29.996C16.5627 29.996 15.7033 28.5181 15.6838 27.2291H17.7346C17.7736 27.8085 18.3205 28.3554 19.3557 28.3554C20.3387 28.3554 20.8075 27.9257 20.8075 27.3398C20.8075 26.7864 20.3583 26.5325 19.4924 26.3502L18.2359 26.0767C16.9208 25.8163 15.8726 25.1002 15.8726 23.5507C15.8726 21.7734 17.357 20.7773 19.3426 20.7773C21.4911 20.7773 22.7606 21.9752 22.7801 23.4921H20.7945C20.7554 22.9387 20.2932 22.3984 19.3361 22.3984C18.4963 22.3984 18.0145 22.7955 18.0145 23.3814C18.0145 23.8567 18.4377 24.1497 19.2059 24.2994L20.495 24.5598C21.771 24.8072 22.9299 25.4387 22.9299 27.1249C22.9299 28.8632 21.6017 29.996 19.2775 29.996ZM26.1655 27.7955L25.5861 29.8333H23.4377L26.3023 20.9465H28.9325L31.7775 29.8333H29.4859L28.9129 27.7955H26.1655ZM28.5288 26.2395L27.6043 22.8736H27.5067L26.5627 26.2395H28.5288Z" fill="#8E1744"/>
<path opacity="0.5" d="M6.11127 18.3333H3.3335L6.11127 15.8333V18.3333ZM33.889 18.3333V15.8333L36.6668 18.3333H33.889Z" fill="#F7F7F9"/>
</svg>
