<svg width="40" height="40" viewBox="0 0 40 40" fill="none" xmlns="http://www.w3.org/2000/svg">
<path fill-rule="evenodd" clip-rule="evenodd" d="M32.4272 36.6666H7.57344C6.76569 36.6666 6.11145 36.0181 6.11145 35.2174V4.78259C6.11145 3.98186 6.76569 3.33331 7.57344 3.33331H25.1173L33.8892 12.029V35.2174C33.8892 36.0181 33.235 36.6666 32.4272 36.6666Z" fill="#F7F7F9"/>
<path d="M33.873 12.0128H26.5794C25.7717 12.0128 25.1174 11.3642 25.1174 10.5635V3.33331L33.873 12.0128Z" fill="#EAEAEA"/>
<path fill-rule="evenodd" clip-rule="evenodd" d="M3.33362 20L6.1114 17.5V20H33.8892V17.5L36.667 20V30.0926C36.667 30.9623 36.0184 31.6667 35.2177 31.6667H4.78289C3.98217 31.6667 3.33362 30.9623 3.33362 30.0926V20ZM10.7005 23.1127H12.0931H12.4366H13.7122L14.5451 27.3943H14.6106L15.6541 23.1127H16.9175L17.961 27.3943H18.0312L18.8548 23.1127H20.4739L18.8361 29.5H17.3948L16.3139 25.443H16.2578L15.1721 29.5H13.7309L12.1934 23.5038L10.4525 26.304L12.4132 29.5H10.6678L9.46051 27.4036H9.395L8.18772 29.5H6.53123L8.44041 26.2853L6.53591 23.1127H8.3515L9.49795 25.2652H9.56346L10.7005 23.1127ZM22.0115 25.5459V29.5H20.6358V23.1127H22.2361L23.8739 26.7205H23.9207L25.5631 23.1127H27.1448V29.5H25.755V25.5459H25.6895L24.3418 28.5361H23.434L22.0817 25.5459H22.0115ZM29.3001 28.0354L28.8836 29.5H27.3394L29.3983 23.1127H31.2888L33.3337 29.5H31.6865L31.2748 28.0354H29.3001ZM30.9987 26.917L30.3342 24.4978H30.264L29.5855 26.917H30.9987Z" fill="#DF4F51"/>
<path opacity="0.5" d="M6.1114 20H3.33362L6.1114 17.5V20ZM33.8892 20V17.5L36.667 20H33.8892Z" fill="#F7F7F9"/>
</svg>
