<svg width="40" height="40" viewBox="0 0 40 40" fill="none" xmlns="http://www.w3.org/2000/svg">
<path fill-rule="evenodd" clip-rule="evenodd" d="M32.4274 36.6666H7.57356C6.76581 36.6666 6.11157 36.018 6.11157 35.2173V4.78253C6.11157 3.9818 6.76581 3.33325 7.57356 3.33325H25.1174L33.8893 12.0289V35.2173C33.8893 36.018 33.2351 36.6666 32.4274 36.6666Z" fill="#F7F7F9"/>
<path d="M33.873 12.0127H26.5794C25.7717 12.0127 25.1174 11.3641 25.1174 10.5634V3.33325L33.873 12.0127Z" fill="#EAEAEA"/>
<path fill-rule="evenodd" clip-rule="evenodd" d="M3.3335 18.3333L6.11127 15.8333V18.3333H33.889V15.8333L36.6668 18.3333V30.9258C36.6668 31.7955 36.0183 32.4999 35.2176 32.4999H4.78277C3.98205 32.4999 3.3335 31.7955 3.3335 30.9258V18.3333ZM11.3739 29.996C13.8934 29.996 15.3452 28.4335 15.3452 25.9335V24.8984C15.3452 22.3853 13.8999 20.7903 11.3869 20.7903C8.87388 20.7903 7.40904 22.3723 7.40904 24.8984V25.9335C7.40904 28.4335 8.86086 29.996 11.3739 29.996ZM11.3804 22.5351C12.4286 22.5351 13.1447 23.3359 13.1447 24.8723V25.94C13.1447 27.483 12.4286 28.2447 11.3804 28.2447C10.3257 28.2447 9.60956 27.483 9.60956 25.94V24.8723C9.60956 23.3359 10.3257 22.5351 11.3804 22.5351ZM21.8752 23.8827H23.9585C23.9195 22.2681 22.676 20.7903 20.2932 20.7903C17.7476 20.7903 16.3544 22.4309 16.3544 24.7942V25.8945C16.3544 28.2187 17.5392 29.996 20.2866 29.996C22.7866 29.996 23.965 28.4075 23.965 26.6757V24.9504H20.3973V26.4609H21.9403V26.8385C21.9403 27.5872 21.3543 28.2317 20.3387 28.2317C18.9976 28.2317 18.5288 27.2226 18.5288 25.8879V24.8137C18.5288 23.3684 19.1473 22.5481 20.2801 22.5481C21.2307 22.5481 21.784 23.1275 21.8752 23.8827ZM30.495 23.8827H32.5783C32.5392 22.2681 31.2958 20.7903 28.9129 20.7903C26.3674 20.7903 24.9741 22.4309 24.9741 24.7942V25.8945C24.9741 28.2187 26.159 29.996 28.9064 29.996C31.4064 29.996 32.5848 28.4075 32.5848 26.6757V24.9504H29.0171V26.4609H30.5601V26.8385C30.5601 27.5872 29.9741 28.2317 28.9585 28.2317C27.6174 28.2317 27.1486 27.2226 27.1486 25.8879V24.8137C27.1486 23.3684 27.7671 22.5481 28.8999 22.5481C29.8504 22.5481 30.4038 23.1275 30.495 23.8827Z" fill="#A15AD9"/>
<path opacity="0.5" d="M6.11127 18.3333H3.3335L6.11127 15.8333V18.3333ZM33.889 18.3333V15.8333L36.6668 18.3333H33.889Z" fill="#F7F7F9"/>
</svg>
