<svg width="40" height="40" viewBox="0 0 40 40" fill="none" xmlns="http://www.w3.org/2000/svg">
<path fill-rule="evenodd" clip-rule="evenodd" d="M32.4274 36.6666H7.57356C6.76581 36.6666 6.11157 36.0181 6.11157 35.2174V4.78259C6.11157 3.98186 6.76581 3.33331 7.57356 3.33331H25.1174L33.8893 12.029V35.2174C33.8893 36.0181 33.2351 36.6666 32.4274 36.6666Z" fill="#F7F7F9"/>
<path d="M33.873 12.0128H26.5794C25.7717 12.0128 25.1174 11.3642 25.1174 10.5635V3.33331L33.873 12.0128Z" fill="#EAEAEA"/>
<path fill-rule="evenodd" clip-rule="evenodd" d="M3.3335 20L6.11127 17.5V20H33.889V17.5L36.6668 20V30.0926C36.6668 30.9623 36.0183 31.6667 35.2176 31.6667H4.78277C3.98205 31.6667 3.3335 30.9623 3.3335 30.0926V20ZM9.82538 25.5459V29.5H8.44965V23.1127H10.05L11.6878 26.7205H11.7346L13.377 23.1127H14.9586V29.5H13.5689V25.5459H13.5034L12.1557 28.5361H11.2479L9.89557 25.5459H9.82538ZM15.7335 23.1127H18.4335C19.9029 23.1127 20.6703 24.1234 20.6703 25.3307C20.6703 26.5567 19.8888 27.5253 18.4148 27.5253H17.2777V29.5H15.7335V23.1127ZM17.8954 26.3601C18.6394 26.3601 19.1027 26.0794 19.1027 25.3307C19.1027 24.6662 18.7049 24.3012 18.0732 24.3012H17.2731V26.3601H17.8954ZM23.5696 23.0004C25.2822 23.0004 26.176 24.0626 26.2041 25.2231H24.7067C24.6412 24.6803 24.2434 24.2638 23.5602 24.2638C22.746 24.2638 22.3015 24.8534 22.3015 25.8922V26.6643C22.3015 27.6236 22.6384 28.3489 23.6024 28.3489C24.3323 28.3489 24.7535 27.8856 24.7535 27.3475V27.0761H23.6445V25.9905H26.2088V27.2305C26.2088 28.4752 25.3618 29.617 23.5649 29.617C21.5902 29.617 20.7386 28.3395 20.7386 26.669V25.8782C20.7386 24.1796 21.74 23.0004 23.5696 23.0004ZM28.0974 28.0354L27.6809 29.5H26.1367L28.1956 23.1127H30.0861L32.131 29.5H30.4838L30.072 28.0354H28.0974ZM29.796 26.917L29.1315 24.4978H29.0613L28.3828 26.917H29.796Z" fill="#34A5D9"/>
<path opacity="0.5" d="M6.11127 20H3.3335L6.11127 17.5V20ZM33.889 20V17.5L36.6668 20H33.889Z" fill="#F7F7F9"/>
</svg>
