<svg width="40" height="40" viewBox="0 0 40 40" fill="none" xmlns="http://www.w3.org/2000/svg">
<path fill-rule="evenodd" clip-rule="evenodd" d="M32.4272 36.6666H7.57344C6.76569 36.6666 6.11145 36.018 6.11145 35.2173V4.78253C6.11145 3.9818 6.76569 3.33325 7.57344 3.33325H25.1173L33.8892 12.0289V35.2173C33.8892 36.018 33.235 36.6666 32.4272 36.6666Z" fill="#F7F7F9"/>
<path d="M33.873 12.0127H26.5794C25.7717 12.0127 25.1174 11.3641 25.1174 10.5634V3.33325L33.873 12.0127Z" fill="#EAEAEA"/>
<path fill-rule="evenodd" clip-rule="evenodd" d="M3.33362 18.3333L6.1114 15.8333V18.3333H33.8892V15.8333L36.667 18.3333V30.9258C36.667 31.7955 36.0184 32.4999 35.2177 32.4999H4.78289C3.98217 32.4999 3.33362 31.7955 3.33362 30.9258V18.3333ZM15.6709 24.8984V25.9335C15.6709 28.4335 14.2191 29.996 11.6995 29.996C9.1865 29.996 7.73468 28.4335 7.73468 25.9335V24.8984C7.73468 22.3723 9.19952 20.7903 11.7125 20.7903C14.2256 20.7903 15.6709 22.3853 15.6709 24.8984ZM13.4704 25.94V24.8723C13.4704 23.3359 12.7542 22.5351 11.706 22.5351C10.6513 22.5351 9.9352 23.3359 9.9352 24.8723V25.94C9.9352 27.483 10.6513 28.2447 11.706 28.2447C12.7542 28.2447 13.4704 27.483 13.4704 25.94ZM20.6188 20.7903C23.0016 20.7903 24.2451 22.2681 24.2842 23.8827H22.2008C22.1097 23.1275 21.5563 22.5481 20.6058 22.5481C19.473 22.5481 18.8545 23.3684 18.8545 24.8137V25.8879C18.8545 27.2226 19.3232 28.2317 20.6644 28.2317C21.68 28.2317 22.2659 27.5872 22.2659 26.8385V26.4609H20.723V24.9504H24.2907V26.6757C24.2907 28.4075 23.1123 29.996 20.6123 29.996C17.8649 29.996 16.68 28.2187 16.68 25.8945V24.7942C16.68 22.4309 18.0732 20.7903 20.6188 20.7903ZM30.4756 20.9465H32.8909L30.1305 25.3866L32.8584 29.8333H30.43L28.7503 26.9166H28.6592L26.9795 29.8333H24.6748L27.331 25.3606L24.6813 20.9465H27.2073L28.8024 23.9413H28.8935L30.4756 20.9465Z" fill="#981F6B"/>
<path opacity="0.5" d="M6.1114 18.3333H3.33362L6.1114 15.8333V18.3333ZM33.8892 18.3333V15.8333L36.667 18.3333H33.8892Z" fill="#F7F7F9"/>
</svg>
