<svg width="40" height="40" viewBox="0 0 40 40" fill="none" xmlns="http://www.w3.org/2000/svg">
<path fill-rule="evenodd" clip-rule="evenodd" d="M32.4272 36.6666H7.57344C6.76569 36.6666 6.11145 36.018 6.11145 35.2173V4.78253C6.11145 3.9818 6.76569 3.33325 7.57344 3.33325H25.1173L33.8892 12.0289V35.2173C33.8892 36.018 33.235 36.6666 32.4272 36.6666Z" fill="#F7F7F9"/>
<path d="M33.873 12.0127H26.5794C25.7717 12.0127 25.1174 11.3641 25.1174 10.5634V3.33325L33.873 12.0127Z" fill="#EAEAEA"/>
<path fill-rule="evenodd" clip-rule="evenodd" d="M3.33362 18.3333L6.1114 15.8333V18.3333H33.8892V15.8333L36.667 18.3333V30.9258C36.667 31.7955 36.0184 32.4999 35.2177 32.4999H4.78289C3.98217 32.4999 3.33362 31.7955 3.33362 30.9258V18.3333ZM10.0784 27.7955L9.499 29.8333H7.35057L10.2151 20.9465H12.8454L15.6904 29.8333H13.3987L12.8258 27.7955H10.0784ZM12.4417 26.2395L11.5172 22.8736H11.4196L10.4756 26.2395H12.4417ZM18.7503 27.7955L18.1709 29.8333H16.0224L18.887 20.9465H21.5172L24.3623 29.8333H22.0706L21.4977 27.7955H18.7503ZM21.1136 26.2395L20.1891 22.8736H20.0914L19.1474 26.2395H21.1136ZM28.6266 22.5676C27.5524 22.5676 26.9404 23.401 26.9404 24.9309V25.8814C26.9404 27.3918 27.5524 28.2187 28.6266 28.2187C29.5967 28.2187 30.1761 27.5286 30.1826 26.5911H32.2399V26.8515C32.2399 28.733 30.7164 29.996 28.6071 29.996C26.1331 29.996 24.7464 28.401 24.7464 25.8684V24.9309C24.7464 22.3853 26.1331 20.7903 28.6071 20.7903C30.723 20.7903 32.2399 22.0663 32.2399 23.9869V24.2408H30.1826C30.1761 23.2708 29.5967 22.5676 28.6266 22.5676Z" fill="#D333E9"/>
<path opacity="0.5" d="M6.1114 18.3333H3.33362L6.1114 15.8333V18.3333ZM33.8892 18.3333V15.8333L36.667 18.3333H33.8892Z" fill="#F7F7F9"/>
</svg>
