<svg width="24" height="24" viewBox="0 0 24 24" fill="none" xmlns="http://www.w3.org/2000/svg">
<path fill-rule="evenodd" clip-rule="evenodd" d="M12.4442 7.54855C12.8823 7.52169 13.7247 7.48223 14.5648 7.41545C15.7133 7.3241 16.8454 7.13524 17.943 6.78482C18.4736 6.61539 18.9938 6.41452 19.4124 6.03699C19.8452 5.64666 19.8562 5.21091 19.4081 4.84014C19.1564 4.63197 18.8618 4.45444 18.5582 4.32698C17.095 3.71266 15.5355 3.52242 13.9658 3.40292C12.6955 3.30623 11.4231 3.30978 10.151 3.39603C8.93733 3.47833 7.73185 3.61935 6.56131 3.9492C6.06379 4.08935 5.58542 4.29715 5.10568 4.49144C4.9506 4.55422 4.81037 4.66162 4.67817 4.76623C4.14198 5.19056 4.14215 5.687 4.6807 6.10665C5.26329 6.56067 5.95966 6.77523 6.66539 6.95575C8.42616 7.40611 10.2267 7.52702 12.4442 7.54855ZM9.13936 17.7542C9.13936 16.6769 9.1267 15.5992 9.14495 14.5221C9.15349 14.0193 8.99141 13.6258 8.63533 13.2509C6.73377 11.2488 4.84797 9.23249 2.97251 7.20727C2.66935 6.87988 2.42443 6.49539 2.1902 6.11541C1.89357 5.63415 1.96911 5.14029 2.24326 4.66988C2.55002 4.14353 3.03071 3.79529 3.55956 3.50603C4.48411 3.00037 5.48932 2.70952 6.5195 2.49838C8.60807 2.0703 10.7217 1.94704 12.8519 2.01945C14.5268 2.07639 16.1873 2.23827 17.819 2.62126C18.822 2.85659 19.7984 3.16487 20.6803 3.70419C21.0832 3.95062 21.4429 4.2441 21.7067 4.63618C22.0957 5.21421 22.104 5.77722 21.6942 6.36209C21.18 7.0959 20.5526 7.73291 19.9424 8.3856C18.3793 10.0577 16.8154 11.729 15.2474 13.3966C14.9644 13.6976 14.8138 14.0216 14.8248 14.446C14.85 15.4116 14.8237 16.3783 14.8371 17.3444C14.8422 17.7083 14.7107 17.9988 14.439 18.2276C13.0229 19.42 11.6057 20.6115 10.1804 21.7936C9.70818 22.1851 9.2401 22.0003 9.15392 21.4027C9.13125 21.2456 9.14203 21.0836 9.1419 20.9239C9.14108 19.8674 9.14151 18.8108 9.14151 17.7542H9.13936Z" fill="#FF0000"/>
</svg>
