<svg width="24" height="24" viewBox="0 0 24 24" fill="none" xmlns="http://www.w3.org/2000/svg">
<path d="M12.5399 3.30924C12.2274 3.04536 11.7726 3.04536 11.4601 3.30924L2.29359 11.0869C1.9429 11.3855 1.90124 11.9098 2.19637 12.2605C2.4915 12.6111 3.01927 12.6528 3.36996 12.3577L4.22411 11.6355V18.111C4.22411 19.6457 5.46714 20.8888 7.00183 20.8888H17.0016C18.5363 20.8888 19.7794 19.6457 19.7794 18.111V11.6355L20.63 12.3577C20.9807 12.6563 21.5085 12.6111 21.8036 12.2605C22.0988 11.9098 22.0571 11.382 21.7064 11.0869L12.5399 3.30924ZM5.89074 18.111V10.2223L12.0017 5.03837L18.1127 10.2223V18.111C18.1127 18.7256 17.6162 19.2221 17.0016 19.2221H7.00183C6.38726 19.2221 5.89074 18.7256 5.89074 18.111ZM8.11292 12.4618C8.11292 13.0243 8.33861 13.566 8.73444 13.9653L11.6059 16.8368C11.8212 17.052 12.1753 17.052 12.3906 16.8368L15.2621 13.9653C15.6614 13.566 15.8836 13.0243 15.8836 12.4618C15.8836 11.2883 14.9322 10.3334 13.7552 10.3334C13.1927 10.3334 12.651 10.5591 12.2517 10.9549L11.9948 11.2119L11.7379 10.9549C11.3386 10.5556 10.7969 10.3334 10.2344 10.3334C9.06082 10.3334 8.10598 11.2848 8.10598 12.4618H8.11292Z" fill="#FF0000"/>
</svg>