<svg width="24" height="24" viewBox="0 0 24 24" fill="none" xmlns="http://www.w3.org/2000/svg">
<path fill-rule="evenodd" clip-rule="evenodd" d="M12.0134 2.00006C6.48629 2.00006 2 6.60305 2 12.274V17.4794C2.02712 19.973 4.02982 21.9999 6.45905 21.9999H7.04629C7.55322 21.9999 7.98088 21.5611 7.98088 21.041V13.7808C7.98088 13.2607 7.55322 12.8219 7.04629 12.8219H6.45905C5.49734 12.8219 4.58988 13.1505 3.84199 13.6984V12.274C3.84199 7.67099 7.49997 3.91786 11.9863 3.91786C16.4725 3.91786 20.1578 7.67099 20.1578 12.274V13.6984C19.4099 13.1505 18.5285 12.8219 17.5407 12.8219H16.9535C16.4465 12.8219 16.0189 13.2607 16.0189 13.7808V21.041C16.0189 21.5611 16.4465 21.9999 16.9535 21.9999H17.5407C19.9971 21.9999 21.9739 19.973 21.9999 17.4794V12.274C22.0269 6.60305 17.5407 2.00006 12.0136 2.00006H12.0134Z" fill="#FF0000"/>
</svg>
