<svg width="24" height="24" viewBox="0 0 24 24" fill="none" xmlns="http://www.w3.org/2000/svg">
<path d="M8.25 13.25H7.625C6.24414 13.25 5.125 14.3711 5.125 15.7547V18.2453C5.125 19.6285 6.24414 20.75 7.625 20.75H8.25C8.94023 20.75 9.5 20.1891 9.5 19.4977V14.5023C9.5 13.8105 8.94023 13.25 8.25 13.25ZM16.375 13.25H15.75C15.0598 13.25 14.5 13.8105 14.5 14.5023V19.4977C14.5 20.1891 15.0598 20.75 15.75 20.75H16.375C17.7559 20.75 18.875 19.6285 18.875 18.2453V15.7547C18.875 14.3715 17.7559 13.25 16.375 13.25ZM12 3.25C6.41055 3.25 2.17852 7.90352 2 13.25V17.625C2 17.9703 2.27969 18.25 2.625 18.25H3.25C3.59531 18.25 3.875 17.9703 3.875 17.625V13.25C3.875 8.7707 7.5207 5.13281 12 5.13203C16.4793 5.13281 20.125 8.7707 20.125 13.25V17.625C20.125 17.9703 20.4047 18.25 20.75 18.25H21.375C21.7203 18.25 22 17.9703 22 17.625V13.25C21.8215 7.90352 17.5895 3.25 12 3.25Z" fill="#FF0000"/>
</svg>
