<svg width="78" height="24" viewBox="0 0 78 24" fill="none" xmlns="http://www.w3.org/2000/svg">
    <g id="Logo" clip-path="url(#clip0_2208_16278)">
        <g id="exportLayerAbove">
            <path
                d="M22.5864 4.93354C23.5783 6.25803 24.2931 7.7688 24.6881 9.37568C23.0892 7.22557 20.7581 5.15643 17.8637 3.47491C14.9692 1.79342 12.0178 0.795251 9.35889 0.469849C10.9505 0.0171596 12.617 -0.110164 14.2589 0.0954821C15.9007 0.301129 17.4844 0.835526 18.9151 1.66677C20.3459 2.498 21.5945 3.60903 22.5864 4.93354Z"
                fill="#A2A0AF" />
            <path
                d="M9.88136 16.703C6.77418 14.8978 3.41116 14.4378 1.00481 15.2504C1.23712 16.0182 1.54348 16.7616 1.9196 17.4701C4.0103 17.4217 6.29298 17.9895 8.41704 19.2232C10.5411 20.4569 12.1657 22.1595 13.1598 24.0001C13.962 23.9754 14.76 23.8733 15.5425 23.695C15.056 21.2024 12.9877 18.5085 9.88136 16.703Z"
                fill="#A2A0AF" />
            <path
                d="M2.7922 18.875C3.80614 20.2853 5.10677 21.4654 6.60877 22.3379C8.11077 23.2103 9.78023 23.7554 11.5077 23.9374C10.6189 22.6 9.32705 21.3696 7.71428 20.4329C6.10151 19.4961 4.39357 18.9844 2.7922 18.875Z"
                fill="#A2A0AF" />
            <path
                d="M20.8193 15.2688C19.4584 13.0085 17.1269 10.8442 14.2548 9.17566C11.3827 7.50717 8.34835 6.55417 5.71301 6.49111C3.39452 6.4362 1.65444 7.1102 0.940186 8.3398C0.937911 8.34389 0.935125 8.34786 0.932328 8.35184C0.930128 8.35498 0.927919 8.35812 0.925949 8.36134C0.861683 8.59197 0.806366 8.82303 0.755929 9.05486C1.75328 8.66114 2.90886 8.44188 4.19381 8.41749C7.05124 8.3638 10.2491 9.27777 13.2001 10.9922C16.1511 12.7067 18.531 15.0329 19.8993 17.5409C20.5127 18.6709 20.8954 19.7833 21.0471 20.8462C21.2237 20.6884 21.3969 20.5253 21.5649 20.3556C21.5663 20.3532 21.5675 20.3508 21.5687 20.3484L21.5712 20.343L21.573 20.3391C21.5741 20.3366 21.5754 20.3341 21.5767 20.3316C22.291 19.1008 22.0148 17.2558 20.8193 15.2688Z"
                fill="#A2A0AF" />
            <path
                d="M0.474121 11.7641C2.81132 9.98092 7.67158 10.3811 12.0698 12.9364C16.4692 15.492 19.225 19.516 18.8337 22.4299C18.3462 22.7021 17.8408 22.9408 17.321 23.1446C17.1622 22.444 16.9254 21.7635 16.6148 21.1157C15.4914 18.7513 13.4316 16.6093 10.8186 15.0905C8.20564 13.5717 5.32627 12.844 2.71451 13.0405C1.99795 13.0921 1.28936 13.2234 0.60184 13.4318C0.521383 12.8795 0.478712 12.3223 0.474121 11.7641Z"
                fill="#A2A0AF" />
            <path
                d="M23.0817 11.4855C21.7052 9.22766 19.3534 7.05723 16.461 5.37777C13.5686 3.69829 10.5224 2.73023 7.87854 2.65254C5.86308 2.59437 4.30196 3.08289 3.49254 4.0058C6.85351 3.43634 11.2867 4.39343 15.5836 6.88966C19.8805 9.38589 22.9092 12.7635 24.0782 15.9651C24.4789 14.8055 24.1303 13.2073 23.0817 11.4855Z"
                fill="#A2A0AF" />
            <path
                d="M37.5243 7.43164H35.4726V14.2775C35.4726 14.5907 35.4263 14.8544 35.3335 15.0685C35.2409 15.2827 35.1049 15.4457 34.926 15.5575C34.7503 15.6662 34.5346 15.7205 34.2789 15.7205C34.036 15.7205 33.8249 15.6726 33.646 15.5767C33.4703 15.4776 33.3312 15.337 33.2289 15.1548C33.1297 14.9695 33.0772 14.7473 33.0706 14.4885H31.0046C31.0012 15.1404 31.1403 15.6822 31.4214 16.1136C31.7029 16.5419 32.0832 16.8615 32.5626 17.0724C33.0452 17.2802 33.582 17.3841 34.1735 17.3841C34.838 17.3841 35.4215 17.2578 35.9232 17.0053C36.4249 16.7528 36.8163 16.3933 37.0977 15.9267C37.382 15.46 37.5243 14.9103 37.5243 14.2775V7.43164Z"
                fill="#A2A0AF" />
            <path
                d="M43.9241 14.1145V9.88616H45.9664V17.2498H44.0058V15.9123H43.9289C43.7626 16.3437 43.4864 16.6905 43.0995 16.9526C42.7161 17.2146 42.2478 17.3457 41.6949 17.3457C41.2026 17.3457 40.7698 17.2338 40.3958 17.0101C40.0218 16.7864 39.7295 16.4684 39.5184 16.0561C39.3106 15.6438 39.2052 15.15 39.2021 14.5747V9.88616H41.2444V14.2104C41.2475 14.645 41.3641 14.9886 41.5944 15.2411C41.8244 15.4936 42.1326 15.6198 42.5195 15.6198C42.7655 15.6198 42.9958 15.5639 43.2098 15.452C43.4241 15.337 43.5966 15.1676 43.7275 14.9439C43.8618 14.7202 43.9272 14.4437 43.9241 14.1145Z"
                fill="#A2A0AF" />
            <path fill-rule="evenodd" clip-rule="evenodd"
                d="M47.6002 9.88634V20.0113H49.6425V16.0707H49.7048C49.7974 16.2752 49.9317 16.4781 50.1074 16.6795C50.2831 16.8777 50.5085 17.0423 50.7834 17.1733C51.0614 17.3043 51.3985 17.3698 51.7948 17.3698C52.3542 17.3698 52.8591 17.226 53.31 16.9384C53.7637 16.6475 54.1217 16.2209 54.3837 15.6584C54.6491 15.0927 54.7817 14.3991 54.7817 13.5777C54.7817 12.734 54.6457 12.0325 54.3742 11.4732C54.1025 10.9107 53.7397 10.4904 53.2859 10.2123C52.832 9.93108 52.3365 9.79046 51.7997 9.79046C51.3874 9.79046 51.0422 9.86077 50.7642 10.0014C50.4894 10.1388 50.2657 10.3114 50.0931 10.5192C49.9237 10.7237 49.7942 10.9251 49.7048 11.1232H49.6137V9.88634H47.6002ZM49.7814 14.7139C49.66 14.3879 49.5994 14.006 49.5994 13.5682C49.5994 13.1303 49.66 12.75 49.7814 12.4272C49.9028 12.1044 50.0771 11.8551 50.3039 11.6793C50.5342 11.5035 50.8154 11.4157 51.1477 11.4157C51.4834 11.4157 51.7662 11.5067 51.9962 11.6889C52.2265 11.8711 52.4005 12.1236 52.5188 12.4464C52.6371 12.7692 52.6962 13.1431 52.6962 13.5682C52.6962 13.9964 52.6354 14.3752 52.5139 14.7043C52.3957 15.0303 52.2217 15.286 51.9914 15.4714C51.7614 15.6536 51.4802 15.7447 51.1477 15.7447C50.8185 15.7447 50.5388 15.6552 50.3088 15.4762C50.0785 15.294 49.9028 15.0399 49.7814 14.7139Z"
                fill="#A2A0AF" />
            <path d="M56.143 17.2498V9.88624H58.1853V17.2498H56.143Z" fill="#A2A0AF" />
            <path
                d="M57.169 8.93704C56.8653 8.93704 56.6048 8.83636 56.3876 8.63501C56.1733 8.43047 56.0665 8.18596 56.0665 7.90153C56.0665 7.62027 56.1733 7.37896 56.3876 7.17761C56.6048 6.97307 56.8653 6.87081 57.169 6.87081C57.4725 6.87081 57.7316 6.97307 57.9456 7.17761C58.163 7.37896 58.2716 7.62027 58.2716 7.90153C58.2716 8.18596 58.163 8.43047 57.9456 8.63501C57.7316 8.83636 57.4725 8.93704 57.169 8.93704Z"
                fill="#A2A0AF" />
            <path
                d="M63.7379 11.4202V9.88613H62.3525V8.12193H60.3102V9.88613H59.3036V11.4202H60.3102V15.2554C60.3071 15.738 60.4076 16.1376 60.6122 16.454C60.8168 16.7704 61.1028 17.0037 61.4705 17.1539C61.8411 17.3041 62.2728 17.3696 62.7648 17.3504C63.0302 17.3409 63.2553 17.3137 63.4408 17.269C63.6262 17.2274 63.7699 17.1906 63.8722 17.1587L63.5511 15.639C63.4999 15.6486 63.4265 15.663 63.3305 15.6821C63.2348 15.6981 63.1388 15.7061 63.0428 15.7061C62.9053 15.7061 62.7839 15.6853 62.6785 15.6438C62.5762 15.6022 62.4965 15.5303 62.4388 15.428C62.3813 15.3226 62.3525 15.1756 62.3525 14.987V11.4202H63.7379Z"
                fill="#A2A0AF" />
            <path fill-rule="evenodd" clip-rule="evenodd"
                d="M68.3449 17.3938C67.5875 17.3938 66.9355 17.2404 66.3889 16.9336C65.8457 16.6236 65.4269 16.1857 65.1329 15.62C64.8389 15.0511 64.6917 14.3784 64.6917 13.6017C64.6917 12.8443 64.8389 12.1795 65.1329 11.6074C65.4269 11.0353 65.8409 10.5895 66.3746 10.2699C66.9115 9.95026 67.5412 9.79046 68.2635 9.79046C68.7492 9.79046 69.2015 9.86877 69.62 10.0254C70.042 10.1788 70.4095 10.4105 70.7229 10.7205C71.0392 11.0305 71.2852 11.4204 71.4612 11.8903C71.6369 12.3569 71.7246 12.9034 71.7246 13.5298V14.0907H69.2173H68.0001L66.71 14.0955C66.71 14.4599 66.7772 14.7747 66.9115 15.0399C67.0489 15.3052 67.2423 15.5097 67.4915 15.6536C67.7409 15.7974 68.0366 15.8693 68.3786 15.8693C68.6055 15.8693 68.8132 15.8373 69.0018 15.7734C69.1903 15.7095 69.3518 15.6136 69.486 15.4858C69.62 15.3579 69.7223 15.2013 69.7926 15.016L71.6815 15.1406C71.5857 15.5945 71.3892 15.9907 71.092 16.3295C70.7978 16.6651 70.4175 16.9272 69.9509 17.1157C69.4875 17.3011 68.952 17.3938 68.3449 17.3938ZM66.9163 12.1012C66.7924 12.3194 66.7245 12.5607 66.712 12.8251H69.8023C69.8023 12.5311 69.7383 12.2706 69.6106 12.0437C69.4826 11.8167 69.3055 11.6394 69.0783 11.5115C68.8546 11.3805 68.5943 11.315 68.2969 11.315C67.9869 11.315 67.712 11.3869 67.4723 11.5307C67.236 11.6713 67.0506 11.8615 66.9163 12.1012Z"
                fill="#A2A0AF" />
            <path
                d="M73.0575 9.88615V17.2498H75.0998V13.0838C75.0998 12.7833 75.167 12.5181 75.3013 12.288C75.4387 12.0579 75.6238 11.8789 75.8573 11.751C76.0938 11.62 76.3621 11.5545 76.6627 11.5545C76.8033 11.5545 76.9584 11.5657 77.1275 11.588C77.297 11.6104 77.4298 11.636 77.5255 11.6647V9.85261C77.4361 9.83023 77.3321 9.81263 77.2138 9.79986C77.0958 9.78709 76.9855 9.78069 76.8833 9.78069C76.471 9.78069 76.1067 9.89895 75.7901 10.1354C75.4738 10.3687 75.2484 10.7139 75.1141 11.1709H75.0375V9.88615H73.0575Z"
                fill="#A2A0AF" />
        </g>
    </g>
    <defs>
        <clipPath id="clip0_2208_16278">
            <rect width="77.1429" height="24" fill="white" transform="translate(0.428589)" />
        </clipPath>
    </defs>
</svg>