<svg width="24" height="24" viewBox="0 0 24 24" fill="none" xmlns="http://www.w3.org/2000/svg">
<path d="M16.3457 18.1133C15.123 18.9883 13.623 19.5 12.002 19.5C10.3809 19.5 8.88086 18.9883 7.6582 18.1133L9.92383 15.8477C10.541 16.1836 11.252 16.375 12.0059 16.375C12.7598 16.375 13.4668 16.1836 14.0879 15.8477L16.3535 18.1133H16.3457ZM19.8887 18.1445C21.209 16.4492 21.998 14.3164 21.998 12C21.998 9.68359 21.209 7.55078 19.8887 5.85547C20.2402 5.36719 20.1973 4.67969 19.7559 4.24219C19.3145 3.80469 18.6348 3.75781 18.1465 4.10938C16.4512 2.78906 14.3184 2 12.002 2C9.68555 2 7.55273 2.78906 5.85742 4.10938C5.36914 3.75781 4.68164 3.80078 4.24414 4.24219C3.80664 4.68359 3.75977 5.36719 4.11133 5.85547C2.79102 7.55078 2.00195 9.68359 2.00195 12C2.00195 14.3164 2.79102 16.4492 4.11133 18.1445C3.75977 18.6328 3.80273 19.3203 4.24414 19.7578C4.68555 20.1953 5.36914 20.2422 5.85742 19.8906C7.55273 21.2109 9.68555 22 12.002 22C14.3184 22 16.4512 21.2109 18.1465 19.8906C18.6348 20.2422 19.3223 20.1992 19.7598 19.7578C20.1973 19.3164 20.2441 18.6328 19.8926 18.1445H19.8887ZM18.1113 16.3438L15.8457 14.0781C16.1816 13.4609 16.373 12.75 16.373 11.9961C16.373 11.2422 16.1816 10.5352 15.8457 9.91406L18.1113 7.64844C18.9902 8.87891 19.502 10.3789 19.502 12C19.502 13.6211 18.9902 15.1211 18.1152 16.3438H18.1113ZM16.3457 5.88672L14.0801 8.15234C13.4629 7.81641 12.752 7.625 11.998 7.625C11.2441 7.625 10.5371 7.81641 9.91602 8.15234L7.65039 5.88672C8.88086 5.01172 10.3809 4.5 12.002 4.5C13.623 4.5 15.123 5.01172 16.3457 5.88672ZM8.1543 14.082L5.88867 16.3477C5.01367 15.1211 4.50195 13.6211 4.50195 12C4.50195 10.3789 5.01367 8.87891 5.88867 7.65625L8.1543 9.92188C7.81836 10.5391 7.62695 11.25 7.62695 12.0039C7.62695 12.7578 7.81836 13.4648 8.1543 14.0859V14.082ZM10.127 12C10.127 11.5027 10.3245 11.0258 10.6761 10.6742C11.0278 10.3225 11.5047 10.125 12.002 10.125C12.4992 10.125 12.9761 10.3225 13.3278 10.6742C13.6794 11.0258 13.877 11.5027 13.877 12C13.877 12.4973 13.6794 12.9742 13.3278 13.3258C12.9761 13.6775 12.4992 13.875 12.002 13.875C11.5047 13.875 11.0278 13.6775 10.6761 13.3258C10.3245 12.9742 10.127 12.4973 10.127 12Z" fill="#FF0000"/>
</svg>
