<svg width="200" height="46" viewBox="0 0 200 46" fill="none" xmlns="http://www.w3.org/2000/svg">
<path fill-rule="evenodd" clip-rule="evenodd" d="M0 12.5145C0 9.56443 0 8.08939 0.368856 6.89041C1.18143 4.24908 3.24908 2.18143 5.89041 1.36886C7.08939 1 8.56443 1 11.5145 1H62.8846C65.8348 1 67.3098 1 68.5087 1.36886C71.15 2.18143 73.2177 4.24908 74.0303 6.89041C74.3991 8.08939 74.3991 9.56443 74.3991 12.5145V33.986C74.3991 36.936 74.3991 38.4111 74.0303 39.6101C73.2177 42.2514 71.15 44.3191 68.5087 45.1316C67.3098 45.5005 65.8348 45.5005 62.8846 45.5005H11.5145C8.56443 45.5005 7.08939 45.5005 5.89041 45.1316C3.24908 44.3191 1.18143 42.2514 0.368856 39.6101C0 38.4111 0 36.936 0 33.986V12.5145ZM18.268 12.3856C18.268 11.0922 19.3095 10.0392 20.6143 10.0392C21.9077 10.0392 22.9492 11.0922 22.9607 12.3856C22.9607 13.679 21.9077 14.7319 20.6143 14.7319C19.321 14.7319 18.268 13.679 18.268 12.3856ZM14.3878 10.291H10.1988V35.6201H14.3878V10.291ZM66.8088 17.5475C64.3937 22.7095 61.6926 26.4522 61.6926 26.4522L67.4268 35.6201H62.4823L58.9571 29.9774C55.409 34.0177 51.8951 35.9978 48.5073 35.9978C44.3754 35.9978 42.6929 33.0448 42.6929 29.6913C42.6929 29.3189 42.696 28.861 42.6989 28.4184V28.4153C42.7017 28.0022 42.7043 27.6027 42.7043 27.2991C42.7043 22.8698 42.2351 21.6107 40.7472 21.8167C37.8857 22.2059 33.525 28.7299 30.6865 35.6201H26.7493V17.5475H30.9383V26.5666C33.3304 22.5378 35.5051 19.0927 39.0303 17.7536C41.0791 16.9753 42.8074 17.3072 43.7001 17.7078C46.9392 19.1385 46.9392 22.6409 46.8934 27.3221C46.8934 27.6201 46.8908 27.9288 46.888 28.2482V28.25L46.8878 28.2781C46.8849 28.6118 46.8819 28.9569 46.8819 29.3136C46.8819 31.019 47.3512 31.7629 48.5073 31.8774C49.629 31.9919 50.4874 31.4425 50.4874 31.4425V10.291H54.665V28.4323C54.665 28.4323 58.3047 25.1131 62.1389 17.5475H66.8088ZM18.5197 17.5475H22.7087V35.6201H18.5197V17.5475Z" fill="#FF0000"/>
<path fill-rule="evenodd" clip-rule="evenodd" d="M93.03 17.5086C90.9294 17.5086 88.9805 18.597 87.8669 20.4699V13.535H85.0322V32.2895H87.8669V29.9356C88.8539 31.6567 90.7016 32.5932 92.7263 32.5932C96.5232 32.5932 99.2057 29.5307 99.2057 25.0256C99.2057 20.1662 96.3204 17.5086 93.03 17.5086ZM92.0935 30.1128C89.6386 30.1128 87.8669 28.0881 87.8669 25.0509C87.8669 22.0137 89.6386 19.989 92.1189 19.989C94.5992 19.989 96.3204 22.0391 96.3204 25.0256C96.3204 28.0881 94.5739 30.1128 92.0935 30.1128Z" fill="#FF0000"/>
<path d="M108.816 34.2636C107.728 36.9464 106.513 38.1612 104.311 38.1612C102.868 38.1612 101.653 37.5791 100.844 36.6427L102.286 34.4914C102.767 35.2001 103.526 35.6556 104.285 35.6556C105.07 35.6556 105.652 35.1747 106.058 34.213L106.766 32.2895L100.236 17.8123H103.476L105.323 22.1656C106.513 24.9497 107.677 27.9615 108.133 29.1764H108.183C108.266 28.9419 108.372 28.6395 108.496 28.2844L108.497 28.2821C109.016 26.797 109.857 24.3907 110.715 22.1656L112.41 17.8123H115.447L108.816 34.2636Z" fill="#FF0000"/>
<path d="M130.98 32.5932C135.207 32.5932 138.016 30.4671 138.016 27.1263C138.016 23.5576 134.928 22.3681 132.018 21.4822C131.775 21.4044 131.533 21.3289 131.294 21.2544C129.051 20.5543 127.107 19.9477 127.107 18.3691C127.107 17.0531 128.5 16.1419 130.499 16.1419C132.7 16.1419 134.599 17.2302 135.004 19.3056L137.813 17.8882C136.751 14.8764 133.79 13.4844 130.499 13.4844C126.627 13.4844 123.918 15.3573 123.918 18.5464C123.918 21.9378 127.007 23.0768 129.866 23.9626L130.24 24.078C132.627 24.8129 134.776 25.475 134.776 27.3034C134.776 28.7714 133.308 29.8597 131.03 29.8597C128.246 29.8597 126.272 28.2652 126.07 25.8355L123.109 27.1516C123.59 30.4418 126.804 32.5932 130.98 32.5932Z" fill="#FF0000"/>
<path d="M146.131 30.1128C146.764 30.1128 147.346 29.8091 147.675 29.3789L148.257 31.7326C147.751 32.2642 146.814 32.5932 145.726 32.5932C143.321 32.5932 141.955 31.024 141.955 28.3411V20.1915H139.627V17.8123H141.955V15.7623L144.79 13.5856V17.8123H147.675V20.1915H144.79V28.2146C144.79 29.5054 145.22 30.1128 146.131 30.1128Z" fill="#FF0000"/>
<path d="M157.948 17.5086C156.201 17.5086 154.708 18.5717 153.746 20.2674V17.8123H150.912V32.2895H153.746V26.2405C153.746 22.0391 155.467 20.1915 157.492 20.1915C158.428 20.1915 159.188 20.6217 159.592 21.2038L160.883 18.8247C160.352 18.0654 159.213 17.5086 157.948 17.5086Z" fill="#FF0000"/>
<path d="M165.968 12.9023V16.2684H163.133V12.9023H165.968Z" fill="#FF0000"/>
<path d="M163.133 17.8123H165.968V32.2895H163.133V17.8123Z" fill="#FF0000"/>
<path fill-rule="evenodd" clip-rule="evenodd" d="M177.668 17.5086C175.542 17.5086 173.618 18.6223 172.505 20.4952V17.8123H169.67V38.1612H172.505V29.9103C173.517 31.6567 175.441 32.5932 177.465 32.5932C181.034 32.5932 183.844 29.6319 183.844 25.0256C183.844 20.4445 181.084 17.5086 177.668 17.5086ZM176.732 30.1128C174.277 30.1128 172.505 28.0881 172.505 25.0509C172.505 22.0137 174.277 19.989 176.757 19.989C179.237 19.989 180.958 22.0391 180.958 25.0256C180.958 28.0881 179.212 30.1128 176.732 30.1128Z" fill="#FF0000"/>
<path fill-rule="evenodd" clip-rule="evenodd" d="M186.027 25.0509C186.027 20.5205 188.862 17.5086 193.164 17.5086C197.644 17.5086 200.301 20.7229 199.973 25.7848H189.013C189.013 28.3411 190.785 30.1381 193.29 30.1381C195.239 30.1381 196.631 29.0498 197.112 27.1769L199.618 28.2905C198.606 31.024 196.302 32.5932 193.265 32.5932C188.988 32.5932 186.027 29.5813 186.027 25.0509ZM193.164 19.9383C190.937 19.9383 189.342 21.3556 189.115 23.4817H197.036C196.809 21.305 195.315 19.9383 193.164 19.9383Z" fill="#FF0000"/>
</svg>
