<svg width="24" height="24" viewBox="0 0 24 24" fill="none" xmlns="http://www.w3.org/2000/svg">
<path fill-rule="evenodd" clip-rule="evenodd" d="M18.0728 5.96487C19.1567 7.07181 19.1216 8.85526 18.0279 9.94893L17.517 10.461C17.3479 10.6313 17.2906 10.8831 17.3694 11.1098C17.5951 11.7741 17.7226 12.4678 17.7478 13.169C17.7678 13.7119 18.4294 13.9674 18.8138 13.583L20.2633 12.1339C22.5783 9.81769 22.5795 6.0508 20.2633 3.73614C17.9471 1.42148 14.1806 1.42109 11.8655 3.73614L9.24072 6.36093L9.22665 6.37538C7.99176 7.6198 7.36977 9.34625 7.52728 11.0923C7.6848 12.8384 8.60572 14.4256 10.0434 15.429C10.2923 15.6043 10.6312 15.5756 10.8472 15.361L11.6698 14.5388C11.9791 14.2318 12.1453 13.8091 12.128 13.3737C12.1206 13.1759 12.0201 12.9934 11.8569 12.8815C11.7126 12.7821 11.5775 12.6701 11.453 12.5468C10.3556 11.4487 10.3556 9.66903 11.453 8.57091L14.0763 5.94573C14.6073 5.41557 15.3281 5.1194 16.0785 5.12299C16.8289 5.12659 17.5468 5.42965 18.0728 5.96487ZM5.18642 10.4177L3.73692 11.8668C1.42187 14.1815 1.42031 17.9492 3.73653 20.2638C6.05275 22.5785 9.81925 22.5789 12.1343 20.2638L14.7591 17.639L14.7732 17.6246C16.0073 16.3802 16.6289 14.6542 16.4714 12.9087C16.3139 11.1632 15.3934 9.57631 13.9564 8.57295C13.7075 8.39747 13.3685 8.42613 13.1526 8.64092L12.33 9.46116C12.0208 9.76826 11.8545 10.1909 11.8714 10.6263C11.8789 10.8241 11.9796 11.0066 12.1429 11.1185C12.2872 11.2178 12.4223 11.3299 12.5468 11.4532C13.6442 12.5513 13.6442 14.3309 12.5468 15.429L9.92354 18.055C9.39235 18.5851 8.67151 18.8811 7.92111 18.8774C7.17071 18.8736 6.45286 18.5704 5.92698 18.0351C4.84308 16.9281 4.87824 15.1447 5.9719 14.051L6.48319 13.5397C6.65232 13.3695 6.70962 13.1177 6.63083 12.891C6.40507 12.2267 6.27757 11.5329 6.25235 10.8318C6.23243 10.2888 5.57076 10.0334 5.18642 10.4177Z" fill="#FF0000"/>
</svg>
