<svg width="24" height="24" viewBox="0 0 24 24" fill="none" xmlns="http://www.w3.org/2000/svg">
<path d="M9.06246 8.0625V9.75H14.6874V8.0625C14.6874 6.50859 13.4288 5.25 11.8749 5.25C10.321 5.25 9.06246 6.50859 9.06246 8.0625ZM6.81248 9.75V8.0625C6.81248 5.26758 9.08004 3 11.8749 3C14.6698 3 16.9374 5.26758 16.9374 8.0625V9.75H17.4999C18.7409 9.75 19.7499 10.759 19.7499 12V18.75C19.7499 19.991 18.7409 21 17.4999 21H6.24998C5.00898 21 4 19.991 4 18.75V12C4 10.759 5.00898 9.75 6.24998 9.75H6.81248Z" fill="#FF0000"/>
</svg>
