<svg width="24" height="24" viewBox="0 0 24 24" fill="none" xmlns="http://www.w3.org/2000/svg">
  <g id="Icon">
    <path id="exportLayerAbove"
      d="M4.36659 20.3274C6.9188 20.3274 8.83681 18.1078 9.98145 16.3539C9.84224 16.742 9.76488 17.13 9.76488 17.5025C9.76488 18.5269 10.3527 19.2564 11.5128 19.2564C13.106 19.2564 14.8074 17.8595 15.6891 16.3539C15.6272 16.5712 15.5963 16.773 15.5963 16.9592C15.5963 17.6732 15.9984 18.1234 16.8183 18.1234C19.4014 18.1234 22 13.5445 22 9.53999C22 6.42015 20.4223 3.67285 16.4625 3.67285C9.50195 3.67285 2 12.1786 2 17.6732C2 19.8307 3.16009 20.3274 4.36659 20.3274ZM14.065 9.19852C14.065 8.42244 14.4981 7.87919 15.1322 7.87919C15.751 7.87919 16.1841 8.42244 16.1841 9.19852C16.1841 9.97459 15.751 10.5333 15.1322 10.5333C14.4981 10.5333 14.065 9.97459 14.065 9.19852ZM17.3751 9.19852C17.3751 8.42244 17.8082 7.87919 18.4424 7.87919C19.0611 7.87919 19.4942 8.42244 19.4942 9.19852C19.4942 9.97459 19.0611 10.5333 18.4424 10.5333C17.8082 10.5333 17.3751 9.97459 17.3751 9.19852Z"
      fill="#FF0000" />
  </g>
</svg>