<svg width="24" height="24" viewBox="0 0 24 24" fill="none" xmlns="http://www.w3.org/2000/svg">
<path d="M12 1C18.0773 1 23 5.92272 23 12C23 18.0773 18.0773 23 12 23C5.92272 23 1 18.0773 1 12C1 5.92272 5.92272 1 12 1Z" fill="#00AAF5"/>
<path d="M12.3228 8.33846C11.4882 8.33846 10.9843 8.56923 10.9843 9.16923C10.9843 10.8923 16.9843 10.0769 17 14.6615C17 17.4154 14.748 19 11.4724 19C10.1181 19 8.63779 18.7385 7.17323 18.1231V14.4615C8.49606 15.1692 10.1654 15.6923 11.4724 15.6923C12.3543 15.6923 12.9843 15.4615 12.9843 14.7538C12.9843 12.9231 7 13.6 7 9.35385C7 6.63077 9.12598 5 12.3228 5C13.6299 5 14.9213 5.2 16.2283 5.70769V9.32308C15.0315 8.69231 13.5197 8.33846 12.3228 8.33846Z" fill="white"/>
</svg>
