<svg width="24" height="24" viewBox="0 0 24 24" fill="none" xmlns="http://www.w3.org/2000/svg">
<path d="M12 1C18.0773 1 23 5.92272 23 12C23 18.0773 18.0773 23 12 23C5.92272 23 1 18.0773 1 12C1 5.92272 5.92272 1 12 1Z" fill="#0052FF"/>
<path d="M12.0129 15.8696C9.88139 15.8696 8.14322 14.1441 8.14322 11.9999C8.14322 9.85577 9.86871 8.13029 12.0129 8.13029C13.9287 8.13029 15.5146 9.5259 15.8191 11.3529H19.7141C19.3843 7.38173 16.0602 4.26062 12.0002 4.26062C7.72453 4.26062 4.26086 7.72429 4.26086 11.9999C4.26086 16.2756 7.72453 19.7393 12.0002 19.7393C16.0602 19.7393 19.3843 16.6182 19.7141 12.647H15.8191C15.5146 14.474 13.9287 15.8696 12.0129 15.8696Z" fill="white"/>
</svg>
