<svg width="24" height="24" viewBox="0 0 24 24" fill="none" xmlns="http://www.w3.org/2000/svg">
<g clip-path="url(#clip0_1479_3476)">
<rect width="24" height="24" rx="12" fill="white"/>
<g clip-path="url(#clip1_1479_3476)">
<path d="M28.969 0.844482H0.800171V22.9771H28.969V0.844482Z" fill="#B22234"/>
<path d="M-18.248 -5.59998H45.0005H-18.248ZM45.0005 1.49621H-18.248H45.0005ZM-18.248 8.59239H45.0005H-18.248ZM45.0005 15.6886H-18.248H45.0005ZM-18.248 22.7848H45.0005H-18.248ZM45.0005 29.8809H-18.248H45.0005Z" fill="black"/>
<path d="M-18.248 -5.59998H45.0005M45.0005 1.49621H-18.248M-18.248 8.59239H45.0005M45.0005 15.6886H-18.248M-18.248 22.7848H45.0005M45.0005 29.8809H-18.248" stroke="white" stroke-width="3.0853" stroke-miterlimit="10"/>
<path d="M13.88 0.844482H-0.204346V22.9771H13.88V0.844482Z" fill="#3C3B6E"/>
<path d="M4.94473 5.89351L4.45508 7.45418L2.82657 7.46839L4.15189 8.41859L3.66224 9.97927L4.97189 9.00607L6.29721 9.95627L5.7804 8.40438L7.09005 7.43118L5.46155 7.4454L4.94473 5.89351Z" fill="white"/>
<path d="M5.46155 14.64L4.94473 13.0881L4.45508 14.6488L2.82657 14.663L4.15189 15.6132L3.66224 17.1738L4.97189 16.2006L6.29721 17.1509L5.7804 15.599L7.09005 14.6258L5.46155 14.64Z" fill="white"/>
<path d="M9.97494 2.87538L9.48529 4.43605L7.85678 4.45026L9.18322 5.40046L8.69357 6.96113L10.0021 5.98794L11.3285 6.93813L10.8117 5.38625L12.1203 4.41306L10.4918 4.42727L9.97494 2.87538Z" fill="white"/>
<path d="M9.97494 10.0701L9.48529 11.6308L7.85678 11.645L9.18322 12.5952L8.69357 14.1559L10.0021 13.1827L11.3285 14.1329L10.8117 12.581L12.1203 11.6078L10.4918 11.622L9.97494 10.0701Z" fill="white"/>
<path d="M10.4918 18.8169L9.97494 17.265L9.48529 18.8257L7.85678 18.8399L9.18322 19.7901L8.69357 21.3508L10.0021 20.3776L11.3285 21.3278L10.8117 19.7759L12.1203 18.8027L10.4918 18.8169Z" fill="white"/>
</g>
<circle cx="12" cy="12" r="11.5" stroke="#E7E6EB"/>
</g>
<defs>
<clipPath id="clip0_1479_3476">
<rect width="24" height="24" rx="12" fill="white"/>
</clipPath>
<clipPath id="clip1_1479_3476">
<rect x="1" y="1" width="22" height="22" rx="11" fill="white"/>
</clipPath>
</defs>
</svg>
