<svg width="24" height="24" viewBox="0 0 24 24" fill="none" xmlns="http://www.w3.org/2000/svg">
<circle cx="12" cy="12" r="11.5" fill="white" stroke="#E7E6EB"/>
<path fill-rule="evenodd" clip-rule="evenodd" d="M7.94962 7.12191C8.02504 7.04492 8.12461 7 8.22719 7H17.8033C17.9783 7 18.0658 7.22458 17.9421 7.35611L16.0504 9.36766C15.978 9.44466 15.8784 9.48958 15.7728 9.48958H6.19672C6.02173 9.48958 5.93423 9.265 6.05793 9.13346L7.94962 7.12191ZM7.94962 14.6323C8.02203 14.5553 8.12159 14.5104 8.22719 14.5104H17.8033C17.9783 14.5104 18.0658 14.735 17.9421 14.8665L16.0504 16.878C15.978 16.955 15.8784 17 15.7728 17H6.19672C6.02173 17 5.93423 16.7754 6.05793 16.6438L7.94962 14.6323ZM15.7728 10.7312C15.8784 10.7312 15.978 10.7761 16.0504 10.8531L17.9421 12.8646C18.0658 12.9962 17.9783 13.2207 17.8033 13.2207H8.22719C8.12159 13.2207 8.02203 13.1758 7.94962 13.0988L6.05793 11.0873C5.93423 10.9557 6.02173 10.7312 6.19672 10.7312H15.7728Z" fill="url(#paint0_linear_1479_3477)"/>
<defs>
<linearGradient id="paint0_linear_1479_3477" x1="15.4303" y1="4.98884" x2="8.14057" y2="18.1197" gradientUnits="userSpaceOnUse">
<stop stop-color="#00FFA3"/>
<stop offset="1" stop-color="#DC1FFF"/>
</linearGradient>
</defs>
</svg>
