<svg width="24" height="24" viewBox="0 0 24 24" fill="none" xmlns="http://www.w3.org/2000/svg">
<path d="M21.999 11.3747C21.999 6.87968 17.5498 3.23535 12.0166 3.23535C6.48335 3.23535 2 6.94894 2 11.4088C2 11.7839 2.33334 12.0491 2.70774 12.0254C3.10546 12.0002 3.6547 12.0002 6 12.0002C9.5 12.0002 10.5 15.5002 10.5 17.0002V18.5894C10.5 19.1111 10.9022 19.5277 11.4238 19.5201C11.6461 19.5169 11.8524 19.5129 11.9825 19.5129C13.4843 19.5129 14.9083 19.2335 16.1852 18.7542C17.1831 19.5223 19.0946 20.7651 21.6871 20.7651C21.8143 20.7651 21.9227 20.696 21.9716 20.5786C22.0254 20.4612 22.001 20.3249 21.9129 20.2369C21.8934 20.2173 20.2588 18.4607 19.7697 16.4892C21.1636 15.0914 21.999 13.3164 21.999 11.3747Z" fill="#FF0000"/>
<path d="M3.57143 15.5315V16.3752H6.42857V15.5315C6.42857 14.7545 5.78929 14.1252 5 14.1252C4.21071 14.1252 3.57143 14.7545 3.57143 15.5315ZM2.42857 16.3752V15.5315C2.42857 14.134 3.58036 13.0002 5 13.0002C6.41964 13.0002 7.57143 14.134 7.57143 15.5315V16.3752H7.85714C8.4875 16.3752 9 16.8797 9 17.5002V20.8752C9 21.4958 8.4875 22.0002 7.85714 22.0002H2.14286C1.5125 22.0002 1 21.4958 1 20.8752V17.5002C1 16.8797 1.5125 16.3752 2.14286 16.3752H2.42857Z" fill="#FF0000"/>
</svg>
