<svg width="24" height="24" viewBox="0 0 24 24" fill="none" xmlns="http://www.w3.org/2000/svg">
<path d="M1 5.26997C1 4.01794 2.08414 3 3.41758 3H14.2967C15.6302 3 16.7143 4.01794 16.7143 5.26997V12.0799C16.7143 13.3319 15.6302 14.5238 14.2967 14.5238H8.65694L5.59341 16.5063C5.40831 16.634 5.16278 16.6553 4.95879 16.5595C4.75481 16.4638 4.62637 16.2687 4.62637 16.0523V14.5238H3.41758C2.08414 14.5238 1 13.3319 1 12.0799V5.26997Z" fill="#FF0000"/>
<path d="M7.28571 16.2704C7.28571 16.0158 7.49203 15.8095 7.74655 15.8095H13.2C14.8802 15.8095 15.7202 15.8095 16.362 15.4825C16.9265 15.1949 17.3854 14.736 17.673 14.1715C18 13.5298 18 12.6897 18 11.0095V8.19047C18 7.63818 18.4477 7.19047 19 7.19047H20.5824C21.9159 7.19047 23 8.20841 23 9.46044V16.2704C23 17.5224 21.9159 18.5403 20.5824 18.5403H19.3736V20.2428C19.3736 20.4592 19.2452 20.6542 19.0412 20.75C18.8372 20.8458 18.5917 20.8245 18.4066 20.6968L15.3431 18.5403H9.70329C8.36984 18.5403 7.28571 17.5224 7.28571 16.2704Z" fill="#FF0000"/>
</svg>
