<svg width="24" height="24" viewBox="0 0 24 24" fill="none" xmlns="http://www.w3.org/2000/svg">
<path d="M20.7989 3.12102C20.4084 2.73049 19.7752 2.73049 19.3847 3.12102L3.12123 19.3845C2.73071 19.775 2.73071 20.4082 3.12123 20.7987C3.51176 21.1892 4.14492 21.1892 4.53545 20.7987L6.93261 18.4015C8.41208 19.1074 10.137 19.5128 11.9825 19.5128C13.4843 19.5128 14.9083 19.2334 16.1852 18.754C17.1831 19.5222 19.0946 20.765 21.6871 20.765C21.8143 20.765 21.9227 20.6959 21.9716 20.5785C22.0254 20.4611 22.001 20.3248 21.9129 20.2367C21.8934 20.2171 20.2588 18.4605 19.7697 16.4891C21.1636 15.0913 21.999 13.3163 21.999 11.3746C21.999 9.27199 21.0255 7.35554 19.423 5.91113L20.7989 4.53523C21.1894 4.14471 21.1894 3.51154 20.7989 3.12102Z" fill="#FF0000"/>
<path d="M12.0166 3.2352C13.3689 3.2352 14.6564 3.45288 15.8301 3.84746L3.72016 15.9574C2.63368 14.6587 2 13.0917 2 11.4086C2 6.94879 6.48335 3.2352 12.0166 3.2352Z" fill="#FF0000"/>
</svg>
