<svg width="24" height="24" viewBox="0 0 24 24" fill="none" xmlns="http://www.w3.org/2000/svg">
<path d="M0.334959 2.14467C-0.00506191 2.57987 0.0721013 3.20832 0.507308 3.54834L2.00003 4.71458L2.00003 15.5C2.00003 16.8789 3.12112 18 4.50003 18H8.25003V21.375C8.25003 21.6133 8.38284 21.8281 8.59378 21.9336C8.80472 22.0391 9.05862 22.0156 9.25003 21.875L14.0821 18H19.0046L21.1778 19.6979C21.613 20.0379 22.2415 19.9608 22.5815 19.5256C22.9215 19.0903 22.8443 18.4619 22.4091 18.1219L1.73863 1.97232C1.30342 1.6323 0.674979 1.70946 0.334959 2.14467Z" fill="#FF0000"/>
<path d="M22 4.5L22 15.2642L5.02257 2L19.5 2C20.8789 2 22 3.12109 22 4.5Z" fill="#FF0000"/>
</svg>
