<svg width="24" height="24" viewBox="0 0 21 20" fill="none" xmlns="http://www.w3.org/2000/svg">
<path d="M17.707 2.22852L11.4609 6.86756L12.616 4.13059L17.707 2.22852Z" fill="#E2761B" stroke="#E2761B" stroke-linecap="round" stroke-linejoin="round"/>
<path d="M3.28711 2.22852L9.48297 6.9115L8.38441 4.13059L3.28711 2.22852Z" fill="#E4761B" stroke="#E4761B" stroke-linecap="round" stroke-linejoin="round"/>
<path d="M15.4594 12.9819L13.7959 15.5306L17.3552 16.5099L18.3784 13.0384L15.4594 12.9819Z" fill="#E4761B" stroke="#E4761B" stroke-linecap="round" stroke-linejoin="round"/>
<path d="M2.62793 13.0384L3.64488 16.5099L7.2042 15.5306L5.54067 12.9819L2.62793 13.0384Z" fill="#E4761B" stroke="#E4761B" stroke-linecap="round" stroke-linejoin="round"/>
<path d="M7.00356 8.67528L6.01172 10.1756L9.54593 10.3325L9.42038 6.53467L7.00356 8.67528Z" fill="#E4761B" stroke="#E4761B" stroke-linecap="round" stroke-linejoin="round"/>
<path d="M13.9898 8.67528L11.5416 6.49072L11.46 10.3325L14.9879 10.1756L13.9898 8.67528Z" fill="#E4761B" stroke="#E4761B" stroke-linecap="round" stroke-linejoin="round"/>
<path d="M7.2041 15.5305L9.32588 14.4947L7.49286 13.0635L7.2041 15.5305Z" fill="#E4761B" stroke="#E4761B" stroke-linecap="round" stroke-linejoin="round"/>
<path d="M11.667 14.4947L13.7951 15.5305L13.5 13.0635L11.667 14.4947Z" fill="#E4761B" stroke="#E4761B" stroke-linecap="round" stroke-linejoin="round"/>
<path d="M13.7951 15.5304L11.667 14.4946L11.8365 15.8819L11.8177 16.4658L13.7951 15.5304Z" fill="#D7C1B3" stroke="#D7C1B3" stroke-linecap="round" stroke-linejoin="round"/>
<path d="M7.2041 15.5304L9.1815 16.4658L9.16895 15.8819L9.32588 14.4946L7.2041 15.5304Z" fill="#D7C1B3" stroke="#D7C1B3" stroke-linecap="round" stroke-linejoin="round"/>
<path d="M9.2136 12.147L7.44336 11.6259L8.69257 11.0547L9.2136 12.147Z" fill="#233447" stroke="#233447" stroke-linecap="round" stroke-linejoin="round"/>
<path d="M11.7803 12.147L12.3013 11.0547L13.5568 11.6259L11.7803 12.147Z" fill="#233447" stroke="#233447" stroke-linecap="round" stroke-linejoin="round"/>
<path d="M7.20454 15.5306L7.50586 12.9819L5.54102 13.0384L7.20454 15.5306Z" fill="#CD6116" stroke="#CD6116" stroke-linecap="round" stroke-linejoin="round"/>
<path d="M13.4941 12.9819L13.7955 15.5306L15.459 13.0384L13.4941 12.9819Z" fill="#CD6116" stroke="#CD6116" stroke-linecap="round" stroke-linejoin="round"/>
<path d="M14.9889 10.1758L11.4609 10.3327L11.7874 12.1469L12.3084 11.0546L13.5639 11.6259L14.9889 10.1758Z" fill="#CD6116" stroke="#CD6116" stroke-linecap="round" stroke-linejoin="round"/>
<path d="M7.44298 11.6259L8.69847 11.0546L9.21323 12.1469L9.54593 10.3327L6.01172 10.1758L7.44298 11.6259Z" fill="#CD6116" stroke="#CD6116" stroke-linecap="round" stroke-linejoin="round"/>
<path d="M6.01172 10.1758L7.4932 13.0634L7.44298 11.6259L6.01172 10.1758Z" fill="#E4751F" stroke="#E4751F" stroke-linecap="round" stroke-linejoin="round"/>
<path d="M13.5638 11.6259L13.501 13.0634L14.9887 10.1758L13.5638 11.6259Z" fill="#E4751F" stroke="#E4751F" stroke-linecap="round" stroke-linejoin="round"/>
<path d="M9.5456 10.3325L9.21289 12.1467L9.6272 14.2873L9.72136 11.4687L9.5456 10.3325Z" fill="#E4751F" stroke="#E4751F" stroke-linecap="round" stroke-linejoin="round"/>
<path d="M11.4605 10.3325L11.291 11.4625L11.3663 14.2873L11.7869 12.1467L11.4605 10.3325Z" fill="#E4751F" stroke="#E4751F" stroke-linecap="round" stroke-linejoin="round"/>
<path d="M11.7868 12.147L11.3662 14.2876L11.6675 14.4948L13.5005 13.0635L13.5633 11.626L11.7868 12.147Z" fill="#F6851B" stroke="#F6851B" stroke-linecap="round" stroke-linejoin="round"/>
<path d="M7.44336 11.626L7.49358 13.0635L9.3266 14.4948L9.62792 14.2876L9.2136 12.147L7.44336 11.626Z" fill="#F6851B" stroke="#F6851B" stroke-linecap="round" stroke-linejoin="round"/>
<path d="M11.818 16.4656L11.8369 15.8818L11.6799 15.7437H9.31333L9.16895 15.8818L9.1815 16.4656L7.2041 15.5303L7.89462 16.0952L9.2945 17.0683H11.6988L13.1049 16.0952L13.7954 15.5303L11.818 16.4656Z" fill="#C0AD9E" stroke="#C0AD9E" stroke-linecap="round" stroke-linejoin="round"/>
<path d="M11.6674 14.4948L11.3661 14.2876H9.6272L9.32588 14.4948L9.16895 15.8821L9.31333 15.744H11.6799L11.8369 15.8821L11.6674 14.4948Z" fill="#161616" stroke="#161616" stroke-linecap="round" stroke-linejoin="round"/>
<path d="M17.9696 7.16888L18.5031 4.60767L17.7059 2.22852L11.667 6.71063L13.9897 8.67547L17.2728 9.63592L18.001 8.78847L17.6871 8.56248L18.1893 8.10422L17.8001 7.8029L18.3023 7.41998L17.9696 7.16888Z" fill="#763D16" stroke="#763D16" stroke-linecap="round" stroke-linejoin="round"/>
<path d="M2.49609 4.60767L3.02968 7.16888L2.6907 7.41998L3.19289 7.8029L2.80997 8.10422L3.31216 8.56248L2.99829 8.78847L3.7202 9.63592L7.00331 8.67547L9.32597 6.71063L3.28705 2.22852L2.49609 4.60767Z" fill="#763D16" stroke="#763D16" stroke-linecap="round" stroke-linejoin="round"/>
<path d="M17.2737 9.63575L13.9906 8.67529L14.9887 10.1756L13.501 13.0632L15.4595 13.0381H18.3786L17.2737 9.63575Z" fill="#F6851B" stroke="#F6851B" stroke-linecap="round" stroke-linejoin="round"/>
<path d="M7.00332 8.67529L3.72021 9.63575L2.62793 13.0381H5.54067L7.49296 13.0632L6.01148 10.1756L7.00332 8.67529Z" fill="#F6851B" stroke="#F6851B" stroke-linecap="round" stroke-linejoin="round"/>
<path d="M11.4607 10.3325L11.6679 6.71041L12.6221 4.13037H8.38477L9.32639 6.71041L9.5461 10.3325L9.62143 11.475L9.6277 14.2873H11.3666L11.3791 11.475L11.4607 10.3325Z" fill="#F6851B" stroke="#F6851B" stroke-linecap="round" stroke-linejoin="round"/>
</svg>
