<svg width="24" height="24" viewBox="0 0 24 24" fill="none" xmlns="http://www.w3.org/2000/svg">
<g id="moneyBracket">
<path id="exportLayerAbove" d="M4 7V9C4 9.55312 3.55313 10 3 10C2.44687 10 2 9.55312 2 9V7C2 5.34375 3.34375 4 5 4H19C20.6562 4 22 5.34375 22 7V9C22 9.55312 21.5531 10 21 10C20.4469 10 20 9.55312 20 9V7C20 6.44688 19.5531 6 19 6H5C4.44688 6 4 6.44688 4 7ZM6 7H18V18C18 19.1031 17.1031 20 16 20H8C6.89687 20 6 19.1031 6 18V7ZM10 18C10 16.8969 9.10313 16 8 16V18H10ZM16 16C14.8969 16 14 16.8969 14 18H16V16ZM12 15C13.6562 15 15 13.8813 15 12.5C15 11.1188 13.6562 10 12 10C10.3438 10 9 11.1188 9 12.5C9 13.8813 10.3438 15 12 15Z" fill="#FF0000"/>
</g>
</svg>
