<svg width="48" height="48" viewBox="0 0 48 48" fill="none" xmlns="http://www.w3.org/2000/svg">
<path d="M24.0002 44C35.0459 44 44.0002 35.0457 44.0002 24C44.0002 12.9543 35.0459 4 24.0002 4C12.9545 4 4.00024 12.9543 4.00024 24C4.00024 35.0457 12.9545 44 24.0002 44Z" fill="#0BA400"/>
<path fill-rule="evenodd" clip-rule="evenodd" d="M26.7504 21.0833H34.0421C34.8475 21.0833 35.5004 21.7363 35.5004 22.5417V25.4583C35.5004 26.2637 34.8475 26.9167 34.0421 26.9167H26.7504V34.2083C26.7504 35.0137 26.0975 35.6667 25.2921 35.6667H22.3754C21.57 35.6667 20.9171 35.0137 20.9171 34.2083V26.9167H13.6254C12.82 26.9167 12.1671 26.2637 12.1671 25.4583V22.5417C12.1671 21.7363 12.82 21.0833 13.6254 21.0833H20.9171V13.7917C20.9171 12.9863 21.57 12.3333 22.3754 12.3333H25.2921C26.0975 12.3333 26.7504 12.9863 26.7504 13.7917V21.0833Z" fill="white"/>
</svg>
