<svg width="40" height="40" viewBox="4 4 40 40" fill="none" xmlns="http://www.w3.org/2000/svg">
<path d="M24.0002 44C35.0459 44 44.0002 35.0457 44.0002 24C44.0002 12.9543 35.0459 4 24.0002 4C12.9545 4 4.00024 12.9543 4.00024 24C4.00024 35.0457 12.9545 44 24.0002 44Z" fill="#D0021B"/>
<path fill-rule="evenodd" clip-rule="evenodd" d="M17.8871 14.5214L24.0004 20.6333L30.1136 14.5214C30.7644 13.8705 31.8197 13.8705 32.4706 14.5214L33.479 15.5298C34.1299 16.1806 34.1299 17.2359 33.479 17.8868L27.367 24L33.479 30.1132C34.1299 30.7641 34.1299 31.8194 33.479 32.4702L32.4706 33.4786C31.8197 34.1295 30.7644 34.1295 30.1136 33.4786L24.0004 27.3667L17.8871 33.4786C17.2363 34.1295 16.181 34.1295 15.5301 33.4786L14.5217 32.4702C13.8709 31.8194 13.8709 30.7641 14.5217 30.1132L20.6337 24L14.5217 17.8868C13.8709 17.2359 13.8709 16.1806 14.5217 15.5298L15.5301 14.5214C16.181 13.8705 17.2363 13.8705 17.8871 14.5214Z" fill="white"/>
</svg>
