<svg width="24" height="24" viewBox="0 0 24 24" fill="none" xmlns="http://www.w3.org/2000/svg">
<path fill-rule="evenodd" clip-rule="evenodd" d="M20.2352 3.21521V17.1804L20.2329 17.2318L20.2352 17.2941C20.2352 18.5395 19.0259 19.5588 17.4954 19.6416L17.2941 19.6471C15.6697 19.6471 14.3529 18.5936 14.3529 17.2941C14.3529 15.9946 15.6697 14.9412 17.2941 14.9412C17.4959 14.9412 17.6929 14.9574 17.8833 14.9884L17.8823 6.25113L9.647 8.52807V19.6092L9.64582 19.6247L9.647 19.6471C9.647 20.8924 8.43764 21.9118 6.9072 21.9946L6.70583 22C5.08146 22 3.76465 20.9466 3.76465 19.6471C3.76465 18.3476 5.08146 17.2941 6.70583 17.2941C6.90763 17.2941 7.10469 17.3104 7.29507 17.3414L7.29406 6.25113C7.29406 5.71998 7.62847 5.25047 8.11962 5.09204L18.7079 2.05612C19.4654 1.81176 20.2352 2.39595 20.2352 3.21521Z" fill="#FF0000"/>
</svg>
