<svg width="24" height="24" viewBox="0 0 24 24" fill="none" xmlns="http://www.w3.org/2000/svg">
<path fill-rule="evenodd" clip-rule="evenodd" d="M20.683 2.31698C21.1057 2.73961 21.1057 3.42484 20.683 3.84748L3.84748 20.683C3.42484 21.1057 2.73961 21.1057 2.31698 20.683C1.89434 20.2604 1.89434 19.5752 2.31698 19.1525L19.1525 2.31698C19.5752 1.89434 20.2604 1.89434 20.683 2.31698ZM14.0902 18.4191C14.0902 19.6096 13.1162 20.5836 11.9257 20.5836C10.7894 20.5836 9.85028 19.6961 9.76725 18.58L9.76129 18.4191H14.0902ZM17.3369 8.72451V11.9257C17.3369 13.2447 18.0978 14.2783 18.8172 15.0266L18.9602 15.1724H19.5014C20.1507 15.1724 20.5836 15.6053 20.5836 16.2547C20.5836 16.8576 20.2103 17.2739 19.6371 17.3303L19.5014 17.3369H8.72451L17.3369 8.72451ZM4.7668 15.1724L3.3192 16.6202C3.2856 16.5084 3.26791 16.3859 3.26791 16.2547C3.26791 15.6517 3.64117 15.2354 4.21439 15.179L4.35014 15.1724H4.7668ZM11.9257 3.26791C13.2681 3.26791 14.483 3.73512 15.42 4.51903L5.68707 14.2544C6.10545 13.6765 6.44346 12.9869 6.50469 12.1857L6.5146 11.9257V8.67906C6.5146 5.64882 8.8955 3.26791 11.9257 3.26791Z" fill="#FF0000"/>
</svg>
