<svg width="24" height="24" viewBox="0 0 24 24" fill="none" xmlns="http://www.w3.org/2000/svg">
<path d="M1.45518 2.59136C1.06519 2.28387 0.498952 2.35511 0.191457 2.74511C-0.116037 3.1351 -0.0447884 3.70134 0.345205 4.00883L22.5448 21.4085C22.9348 21.716 23.501 21.6448 23.8085 21.2548C24.116 20.8648 24.0448 20.2985 23.6548 19.991L13.6725 12.1649C15.1424 12.4612 16.4737 13.1437 17.5574 14.0999C18.0561 14.5386 18.8136 14.4899 19.2524 13.9949C19.6911 13.4999 19.6424 12.7387 19.1474 12.2999C17.2424 10.62 14.7375 9.59998 12 9.59998C11.5013 9.59998 11.0063 9.63373 10.5263 9.70123L6.96009 6.90753C8.52757 6.31879 10.2263 6.00004 12 6.00004C15.8699 6.00004 19.3799 7.52627 21.9673 10.0087C22.4473 10.4662 23.2048 10.4512 23.6623 9.97497C24.1198 9.49873 24.1048 8.73749 23.6285 8.28C20.6136 5.3813 16.5149 3.60009 12 3.60009C9.4238 3.60009 6.98634 4.18133 4.80388 5.21631L1.45518 2.59136ZM3.51016 8.76749L1.56393 7.23377C1.15144 7.56377 0.750197 7.91251 0.367704 8.27625C-0.108537 8.73749 -0.123537 9.49498 0.333955 9.97497C0.791447 10.455 1.55268 10.47 2.02892 10.0087C2.49392 9.56248 2.98891 9.14624 3.51016 8.76749ZM8.55007 12.7387L6.4876 11.1112C5.90636 11.4562 5.35887 11.8537 4.85638 12.2999C4.35764 12.7387 4.31264 13.4962 4.75138 13.9949C5.19013 14.4936 5.94761 14.5386 6.44635 14.0999C7.07259 13.5449 7.78133 13.0874 8.55382 12.7387H8.55007ZM12 15.5999C10.6763 15.5999 9.60005 16.6761 9.60005 17.9998C9.60005 19.3236 10.6763 20.3998 12 20.3998C13.3237 20.3998 14.4 19.3236 14.4 17.9998C14.4 17.7373 14.3587 17.4861 14.28 17.2498L12.195 15.6074C12.1313 15.6036 12.0675 15.5999 12 15.5999Z" fill="#FF0000"/>
</svg>
