<svg width="24" height="24" viewBox="0 0 24 24" fill="none" xmlns="http://www.w3.org/2000/svg">
<path fill-rule="evenodd" clip-rule="evenodd" d="M7.71429 2C8.50326 2 9.14286 2.63959 9.14286 3.42857V20.5714C9.14286 21.3604 8.50326 22 7.71429 22H3.42857C2.63959 22 2 21.3604 2 20.5714V3.42857C2 2.63959 2.63959 2 3.42857 2H7.71429ZM20.5714 2C21.3604 2 22 2.63959 22 3.42857V20.5714C22 21.3604 21.3604 22 20.5714 22H16.2857C15.4967 22 14.8571 21.3604 14.8571 20.5714V3.42857C14.8571 2.63959 15.4967 2 16.2857 2H20.5714Z" fill="#FF0000"/>
</svg>
