<svg width="12" height="12" viewBox="0 0 12 12" fill="none" xmlns="http://www.w3.org/2000/svg">
<path id="Vector" d="M6.71271 1.13249C6.5617 1.02408 6.37345 0.979566 6.18937 1.00874C6.00529 1.03792 5.84046 1.13839 5.73113 1.28806C5.62181 1.43774 5.57696 1.62434 5.60643 1.80684C5.63591 1.98933 5.73731 2.15276 5.88831 2.26117L6.281 2.65046C6.33522 2.70421 6.33522 2.79135 6.281 2.8451L4.51441 4.59639C4.46019 4.65014 4.37228 4.65014 4.31807 4.59639L3.43452 3.7205C2.99548 3.28526 2.32933 3.20385 1.80548 3.47632C1.60179 3.58227 1.6032 3.85097 1.76585 4.01222L4.41649 6.63989L2.52423 8.51576C1.83231 9.20168 1.31104 10.0379 1.0017 10.9582C0.993364 10.983 1.01715 11.0066 1.04216 10.9983C1.97049 10.6917 2.81403 10.1749 3.50594 9.48897L5.3982 7.6131L8.04884 10.2408C8.21149 10.402 8.48254 10.4034 8.58941 10.2015C8.86426 9.68218 8.78214 9.0218 8.3431 8.58656L7.45956 7.71067C7.40534 7.65692 7.40534 7.56978 7.45956 7.51603L9.22615 5.76474C9.28037 5.71099 9.36827 5.71099 9.42249 5.76474L9.81518 6.15402C9.94536 6.28308 10.1219 6.3556 10.306 6.35562C10.4901 6.35564 10.6666 6.28317 10.7968 6.15415C10.9269 6.02513 11 5.85012 11 5.66763C11 5.48514 10.9268 5.31012 10.7966 5.18106L6.86978 1.28821C6.84304 1.25644 6.81347 1.22712 6.78143 1.20062C6.76299 1.18 6.74332 1.1605 6.72252 1.14222L6.71271 1.13249Z" fill="#FF0000"/>
</svg>
