<svg width="24" height="24" viewBox="0 0 24 24" fill="none" xmlns="http://www.w3.org/2000/svg">
<path d="M2.625 11.9997H12.625C12.7908 11.9997 12.9497 11.9338 13.0669 11.8166C13.1842 11.6994 13.25 11.5404 13.25 11.3747V10.1247C13.25 9.95892 13.1842 9.79995 13.0669 9.68274C12.9497 9.56553 12.7908 9.49968 12.625 9.49968H2.625C2.45924 9.49968 2.30027 9.56553 2.18306 9.68274C2.06585 9.79995 2 9.95892 2 10.1247V11.3747C2 11.5404 2.06585 11.6994 2.18306 11.8166C2.30027 11.9338 2.45924 11.9997 2.625 11.9997ZM2.625 6.99968H12.625C12.7908 6.99968 12.9497 6.93383 13.0669 6.81662C13.1842 6.69941 13.25 6.54044 13.25 6.37468V5.12468C13.25 4.95892 13.1842 4.79995 13.0669 4.68274C12.9497 4.56553 12.7908 4.49968 12.625 4.49968H2.625C2.45924 4.49968 2.30027 4.56553 2.18306 4.68274C2.06585 4.79995 2 4.95892 2 5.12468V6.37468C2 6.54044 2.06585 6.69941 2.18306 6.81662C2.30027 6.93383 2.45924 6.99968 2.625 6.99968ZM7.625 14.4997H2.625C2.45924 14.4997 2.30027 14.5655 2.18306 14.6827C2.06585 14.7999 2 14.9589 2 15.1247V16.3747C2 16.5404 2.06585 16.6994 2.18306 16.8166C2.30027 16.9338 2.45924 16.9997 2.625 16.9997H7.625C7.79076 16.9997 7.94973 16.9338 8.06694 16.8166C8.18415 16.6994 8.25 16.5404 8.25 16.3747V15.1247C8.25 14.9589 8.18415 14.7999 8.06694 14.6827C7.94973 14.5655 7.79076 14.4997 7.625 14.4997ZM20.3961 2.05163L16.6254 3.16531C16.3717 3.24498 16.1501 3.40346 15.9927 3.61772C15.8353 3.83197 15.7502 4.09084 15.75 4.35671V16.0622C15.1464 15.8558 14.5129 15.7502 13.875 15.7497C11.4586 15.7497 9.5 17.1489 9.5 18.8747C9.5 20.6005 11.4586 21.9997 13.875 21.9997C16.2914 21.9997 18.25 20.6005 18.25 18.8747V7.78679L21.1016 6.95124C21.3609 6.87525 21.5885 6.71729 21.7505 6.50102C21.9125 6.28476 22 6.02183 22 5.75163V3.24968C21.9999 3.05535 21.9544 2.86372 21.8673 2.69002C21.7802 2.51632 21.6537 2.36532 21.498 2.24903C21.3424 2.13273 21.1617 2.05434 20.9704 2.02007C20.7791 1.98581 20.5825 1.99661 20.3961 2.05163Z" fill="#FF0000"/>
</svg>
