<svg width="61" height="61" viewBox="0 0 61 61" fill="none" xmlns="http://www.w3.org/2000/svg">
<g clip-path="url(#clip0_1479_4830)">
<path d="M30.5002 53.375C43.1338 53.375 53.3752 43.1335 53.3752 30.5C53.3752 17.8665 43.1338 7.625 30.5002 7.625C17.8667 7.625 7.62524 17.8665 7.62524 30.5C7.62524 43.1335 17.8667 53.375 30.5002 53.375Z" fill="white"/>
<path fill-rule="evenodd" clip-rule="evenodd" d="M30.5002 0C47.3449 0 61.0002 13.6553 61.0002 30.5C61.0002 47.3447 47.3449 61 30.5002 61C13.6556 61 0.000244141 47.3447 0.000244141 30.5C0.000244141 13.6553 13.6556 0 30.5002 0ZM24.7815 19.0625H20.969C19.9162 19.0625 19.0627 19.916 19.0627 20.9688V40.0312C19.0627 41.084 19.9162 41.9375 20.969 41.9375H24.7815C25.8343 41.9375 26.6877 41.084 26.6877 40.0312V20.9688C26.6877 19.916 25.8343 19.0625 24.7815 19.0625ZM40.0315 19.0625H36.219C35.1662 19.0625 34.3127 19.916 34.3127 20.9688V40.0312C34.3127 41.084 35.1662 41.9375 36.219 41.9375H40.0315C41.0843 41.9375 41.9377 41.084 41.9377 40.0312V20.9688C41.9377 19.916 41.0843 19.0625 40.0315 19.0625Z" fill="#CC0FE0"/>
</g>
<defs>
<clipPath id="clip0_1479_4830">
<rect width="61" height="61" fill="white" transform="translate(0.000244141)"/>
</clipPath>
</defs>
</svg>
