<svg width="61" height="61" viewBox="0 0 61 61" fill="none" xmlns="http://www.w3.org/2000/svg">
<g clip-path="url(#clip0_1479_4829)">
<path d="M30.8752 53.75C43.5088 53.75 53.7502 43.5085 53.7502 30.875C53.7502 18.2415 43.5088 8 30.8752 8C18.2417 8 8.00024 18.2415 8.00024 30.875C8.00024 43.5085 18.2417 53.75 30.8752 53.75Z" fill="white"/>
<path fill-rule="evenodd" clip-rule="evenodd" d="M30.5002 0C47.3449 0 61.0002 13.6553 61.0002 30.5C61.0002 47.3447 47.3449 61 30.5002 61C13.6556 61 0.000244141 47.3447 0.000244141 30.5C0.000244141 13.6553 13.6556 0 30.5002 0ZM24.7815 18.7901C23.7287 18.7901 22.8752 19.6436 22.8752 20.6964V40.3032C22.8752 40.6049 22.9468 40.9023 23.0842 41.1709C23.5634 42.1083 24.7118 42.4798 25.6492 42.0006L44.8264 32.1972C45.1833 32.0147 45.4736 31.7244 45.6561 31.3675C46.1353 30.4301 45.7638 29.2817 44.8264 28.8025L25.6492 18.9991C25.3806 18.8617 25.0832 18.7901 24.7815 18.7901Z" fill="#CC0FE0"/>
</g>
<defs>
<clipPath id="clip0_1479_4829">
<rect width="61" height="61" fill="white" transform="translate(0.000244141)"/>
</clipPath>
</defs>
</svg>
