<?xml version="1.0" encoding="UTF-8"?>
<svg width="24px" height="24px" viewBox="0 0 32 32" version="1.1" xmlns="http://www.w3.org/2000/svg" xmlns:xlink="http://www.w3.org/1999/xlink">
    <title>Pause</title>
    <g id="Assets" stroke="none" stroke-width="1" fill="none" fill-rule="evenodd">
        <g id="assets" transform="translate(-847.000000, -457.000000)">
            <circle id="Oval" fill="#FFFFFF" cx="863" cy="473" r="12"></circle>
            <path d="M863,457 C871.836556,457 879,464.163444 879,473 C879,481.836556 871.836556,489 863,489 C854.163444,489 847,481.836556 847,473 C847,464.163444 854.163444,457 863,457 Z M860,467 L858,467 C857.447715,467 857,467.447715 857,468 L857,468 L857,478 C857,478.552285 857.447715,479 858,479 L858,479 L860,479 C860.552285,479 861,478.552285 861,478 L861,478 L861,468 C861,467.447715 860.552285,467 860,467 L860,467 Z M868,467 L866,467 C865.447715,467 865,467.447715 865,468 L865,468 L865,478 C865,478.552285 865.447715,479 866,479 L866,479 L868,479 C868.552285,479 869,478.552285 869,478 L869,478 L869,468 C869,467.447715 868.552285,467 868,467 L868,467 Z" id="Combined-Shape" fill="red"></path>
        </g>
    </g>
</svg>