<svg width="24" height="24" viewBox="0 0 24 24" fill="none" xmlns="http://www.w3.org/2000/svg">
<path fill-rule="evenodd" clip-rule="evenodd" d="M5.4056 6.15385C5.0117 6.15385 4.69233 5.8193 4.69233 5.4066V0.74724C4.69233 0.334552 5.0117 0 5.4056 0C5.79955 0 6.1189 0.334552 6.1189 0.74724V2.43525L10.118 0.066458C10.3539 -0.073268 10.6403 0.0147724 10.7853 0.260819L10.8161 0.32037C10.8542 0.404576 10.8742 0.498011 10.8742 0.59283V2.30098L14.4393 0.066458C14.6622 -0.073268 14.9329 0.0147724 15.0699 0.260819L15.0991 0.32037C15.1351 0.404576 15.1538 0.498011 15.1538 0.59283V2.27911C16.2605 2.59844 17.2959 3.08569 18.2308 3.71148C18.5391 3.91782 18.8363 4.13921 19.1217 4.37462C19.3845 4.59145 19.6371 4.82018 19.8788 5.05995C19.8993 5.0803 19.9197 5.1007 19.9401 5.1212C20.1798 5.36285 20.4086 5.6155 20.6254 5.8783C20.8608 6.16365 21.0822 6.46095 21.2885 6.7692C22.4667 8.5293 23.1539 10.646 23.1539 12.9231C23.1539 15.2002 22.4667 17.3168 21.2885 19.077C21.0822 19.3852 20.8608 19.6826 20.6254 19.9678C20.4086 20.2307 20.1798 20.4834 19.9401 20.725C19.9269 20.7382 19.9138 20.7514 19.9006 20.7645C19.8934 20.7718 19.8861 20.779 19.8788 20.7862C19.6371 21.026 19.3845 21.2547 19.1217 21.4715C18.8364 21.7069 18.5391 21.9284 18.2308 22.1347C16.4707 23.3129 14.354 24 12.0769 24C9.7998 24 7.68315 23.3129 5.923 22.1347C5.6148 21.9284 5.31745 21.7069 5.03215 21.4715C4.76933 21.2547 4.51668 21.026 4.27502 20.7862C4.25454 20.7659 4.23413 20.7455 4.21381 20.725C3.97403 20.4834 3.7453 20.2307 3.52846 19.9678C3.29306 19.6826 3.07166 19.3853 2.86533 19.077C1.68712 17.3168 1 15.2002 1 12.9231C1 11.2163 1.38605 9.59955 2.0756 8.1556C2.38822 7.50095 3.24696 7.40945 3.75994 7.9224C4.12289 8.28535 4.19086 8.84335 3.98148 9.312C3.4888 10.4148 3.21538 11.6364 3.21538 12.9231C3.21538 15.3584 4.19479 17.5606 5.7864 19.1646C5.79455 19.1728 5.80265 19.181 5.81065 19.1894C5.81895 19.1974 5.8272 19.2055 5.83545 19.2136C7.43945 20.8052 9.64165 21.7846 12.0769 21.7846C14.5122 21.7846 16.7144 20.8052 18.3184 19.2136C18.3266 19.2055 18.3349 19.1973 18.3432 19.1894C18.3512 19.181 18.3593 19.1728 18.3675 19.1646C19.9591 17.5606 20.9384 15.3584 20.9384 12.9231C20.9384 10.4878 19.9591 8.2856 18.3675 6.6816C18.3593 6.6734 18.3512 6.6651 18.3432 6.6568L18.3313 6.64525L18.3184 6.63255C17.4273 5.74835 16.3516 5.0531 15.1538 4.60973V5.56115C15.1538 5.8885 14.9347 6.15385 14.6643 6.15385C14.586 6.15385 14.5088 6.1311 14.4393 6.0875L10.8742 3.85343V5.56115C10.8742 5.86665 10.6721 6.1182 10.4125 6.15035L10.3561 6.15385C10.2732 6.15385 10.1916 6.1311 10.118 6.0875L6.1189 3.71916V5.4066C6.1189 5.795 5.836 6.1142 5.4743 6.15045L5.4056 6.15385ZM8.40635 10.8433V17.0056H10.3113V8.6154H8.5651L5.9231 10.6419L6.9096 12.052L8.40635 10.8433ZM17.3546 15.5717C17.5285 15.1925 17.6154 14.7461 17.6154 14.2325C17.6154 13.7901 17.5398 13.4031 17.3886 13.0712C17.2374 12.7394 17.0295 12.4629 16.765 12.2416C16.5079 12.0125 16.2018 11.8427 15.8465 11.7321C15.4912 11.6215 15.1132 11.5662 14.7126 11.5662C14.5917 11.5662 14.4556 11.5741 14.3044 11.5899C14.1608 11.5978 14.0285 11.6175 13.9075 11.6491L13.9755 10.3219H17.2072V8.6154H12.286L12.0933 13.4149C12.3806 13.3043 12.7056 13.2174 13.0684 13.1542C13.4389 13.083 13.7677 13.0475 14.0549 13.0475C14.2515 13.0475 14.448 13.0672 14.6446 13.1067C14.8411 13.1462 15.015 13.2174 15.1662 13.3201C15.3249 13.4149 15.4534 13.5452 15.5517 13.7112C15.65 13.8771 15.6991 14.0824 15.6991 14.3274C15.6991 14.7303 15.5782 15.0344 15.3363 15.2399C15.1019 15.4453 14.8222 15.548 14.4972 15.548C14.1797 15.548 13.9038 15.4532 13.6694 15.2636C13.4426 15.074 13.2877 14.833 13.2045 14.5407L11.4696 15.0976C11.5603 15.4295 11.7002 15.7297 11.8891 15.9983C12.0857 16.2591 12.3162 16.4802 12.5808 16.6619C12.853 16.8436 13.1516 16.9819 13.4767 17.0767C13.8092 17.1794 14.157 17.2308 14.5198 17.2308C14.9129 17.2308 15.2947 17.1675 15.6651 17.0411C16.0355 16.9226 16.3644 16.7409 16.6516 16.496C16.9464 16.2512 17.1808 15.943 17.3546 15.5717Z" fill="#FF0000"/>
</svg>
