<svg width="24" height="24" viewBox="0 0 24 24" fill="none" xmlns="http://www.w3.org/2000/svg">
<path fill-rule="evenodd" clip-rule="evenodd" d="M18.625 6.1111C19.0162 6.1111 19.3333 5.7789 19.3333 5.36905V0.742055C19.3333 0.332229 19.0162 0 18.625 0C18.2338 0 17.9167 0.332229 17.9167 0.742055V2.41833L13.9453 0.0659965C13.7111 -0.0727595 13.4267 0.0146698 13.2826 0.259008L13.252 0.318146C13.2141 0.401767 13.1944 0.494552 13.1944 0.58871V2.285L9.65405 0.0659965C9.43265 -0.0727595 9.1639 0.0146698 9.0278 0.259008L8.99885 0.318146C8.9631 0.401767 8.9444 0.494552 8.9444 0.58871V2.26328C7.84545 2.5804 6.8172 3.06427 5.88885 3.68571C5.58275 3.89061 5.2875 4.11047 5.00415 4.34424C4.74316 4.55957 4.49226 4.78671 4.25228 5.02485C4.23194 5.045 4.21168 5.0653 4.19149 5.0856C3.95337 5.3256 3.72623 5.5765 3.5109 5.8375C3.27713 6.12085 3.05728 6.41605 2.85238 6.72215C1.68235 8.4701 1 10.5721 1 12.8334C1 15.0947 1.68235 17.1966 2.85238 18.9445C3.05728 19.2506 3.27713 19.5459 3.5109 19.8292C3.72623 20.0902 3.95337 20.3411 4.19149 20.5811C4.21167 20.6014 4.23194 20.6216 4.25228 20.6418C4.49226 20.8799 4.74315 21.1071 5.00415 21.3225C5.2875 21.5562 5.58275 21.776 5.88885 21.9809C7.63675 23.151 9.7387 23.8333 12 23.8333C14.2613 23.8333 16.3633 23.151 18.1112 21.9809C18.4173 21.776 18.7125 21.5562 18.9958 21.3225C19.2568 21.1071 19.5077 20.8799 19.7477 20.6418C19.768 20.6216 19.7883 20.6014 19.8085 20.5811C20.0466 20.3411 20.2738 20.0902 20.4891 19.8292C20.7228 19.5459 20.9427 19.2506 21.1476 18.9445C22.3176 17.1966 23 15.0947 23 12.8334C23 11.1384 22.6166 9.5329 21.9319 8.09895C21.6214 7.44885 20.7687 7.358 20.2593 7.8674C19.8988 8.2278 19.8313 8.78195 20.0392 9.24735C20.5285 10.3424 20.8 11.5556 20.8 12.8334C20.8 15.2517 19.8274 17.4386 18.2468 19.0315C18.2387 19.0396 18.2307 19.0479 18.2227 19.0561C18.2145 19.0641 18.2063 19.0721 18.1982 19.0802C16.6053 20.6607 14.4184 21.6334 12 21.6334C9.58165 21.6334 7.39475 20.6607 5.80185 19.0802L5.78795 19.0665L5.77725 19.0561C5.7693 19.0479 5.76125 19.0396 5.75315 19.0315C4.17261 17.4386 3.2 15.2517 3.2 12.8334C3.2 10.415 4.17261 8.22805 5.75315 6.6352C5.76125 6.62705 5.7693 6.6188 5.77725 6.61055L5.78995 6.59825L5.80185 6.5865C6.68675 5.70845 7.755 5.018 8.9444 4.57771V5.5225C8.9444 5.8476 9.1621 6.1111 9.43055 6.1111C9.50835 6.1111 9.585 6.0885 9.65405 6.04525L13.1944 3.82666V5.5225C13.1944 5.8259 13.3951 6.0757 13.6528 6.10765L13.7088 6.1111C13.7912 6.1111 13.8722 6.0885 13.9453 6.04525L17.9167 3.69334V5.36905C17.9167 5.7548 18.1975 6.07175 18.5567 6.1077L18.625 6.1111ZM8.35495 10.768V16.8875H10.2466V8.55555H8.51255L5.8889 10.568L6.86855 11.9684L8.35495 10.768ZM17.2411 15.4635C17.4137 15.0869 17.5 14.6437 17.5 14.1337C17.5 13.6944 17.4249 13.3099 17.2748 12.9804C17.1247 12.6509 16.9183 12.3763 16.6555 12.1566C16.4003 11.9291 16.0962 11.7605 15.7434 11.6506C15.3906 11.5408 15.0152 11.4859 14.6173 11.4859C14.4972 11.4859 14.3622 11.4937 14.212 11.5094C14.0694 11.5173 13.938 11.5368 13.8179 11.5682L13.8855 10.2502H17.0947V8.55555H12.2077L12.0162 13.3217C12.3015 13.2119 12.6243 13.1256 12.9846 13.0628C13.3524 12.9922 13.679 12.9569 13.9642 12.9569C14.1594 12.9569 14.3546 12.9765 14.5498 13.0157C14.745 13.055 14.9176 13.1256 15.0678 13.2276C15.2254 13.3217 15.3531 13.4512 15.4507 13.6159C15.5483 13.7807 15.597 13.9846 15.597 14.2279C15.597 14.628 15.4769 14.93 15.2367 15.1341C15.004 15.3381 14.7262 15.44 14.4035 15.44C14.0882 15.44 13.8141 15.3458 13.5814 15.1576C13.3562 14.9693 13.2023 14.73 13.1198 14.4397L11.3969 14.9928C11.487 15.3223 11.6259 15.6205 11.8135 15.8872C12.0087 16.1461 12.2377 16.3658 12.5005 16.5462C12.7707 16.7267 13.0672 16.864 13.39 16.9582C13.7203 17.0601 14.0656 17.1111 14.426 17.1111C14.8163 17.1111 15.1954 17.0483 15.5632 16.9228C15.9311 16.8052 16.2577 16.6247 16.5429 16.3815C16.8357 16.1383 17.0683 15.8323 17.2411 15.4635Z" fill="#FF0000"/>
</svg>
