<svg width="24" height="24" viewBox="0 0 24 24" fill="none" xmlns="http://www.w3.org/2000/svg">
  <g id="Icon">
    <path id="exportLayerAbove"
      d="M2 4.14298C2 2.95994 2.95982 2.00012 4.14286 2.00012H8.42857C9.61161 2.00012 10.5714 2.95994 10.5714 4.14298V8.42869C10.5714 9.61173 9.61161 10.5716 8.42857 10.5716H4.14286C2.95982 10.5716 2 9.61173 2 8.42869V4.14298ZM4.85714 4.85726V7.71441H7.71429V4.85726H4.85714ZM2 15.5716C2 14.3885 2.95982 13.4287 4.14286 13.4287H8.42857C9.61161 13.4287 10.5714 14.3885 10.5714 15.5716V19.8573C10.5714 21.0403 9.61161 22.0001 8.42857 22.0001H4.14286C2.95982 22.0001 2 21.0403 2 19.8573V15.5716ZM4.85714 16.2858V19.143H7.71429V16.2858H4.85714ZM15.5714 2.00012H19.8571C21.0402 2.00012 22 2.95994 22 4.14298V8.42869C22 9.61173 21.0402 10.5716 19.8571 10.5716H15.5714C14.3884 10.5716 13.4286 9.61173 13.4286 8.42869V4.14298C13.4286 2.95994 14.3884 2.00012 15.5714 2.00012ZM19.1429 4.85726H16.2857V7.71441H19.1429V4.85726ZM13.4286 14.143C13.4286 13.7501 13.75 13.4287 14.1429 13.4287H17C17.3929 13.4287 17.7143 13.7501 17.7143 14.143C17.7143 14.5358 18.0357 14.8573 18.4286 14.8573H19.8571C20.25 14.8573 20.5714 14.5358 20.5714 14.143C20.5714 13.7501 20.8929 13.4287 21.2857 13.4287C21.6786 13.4287 22 13.7501 22 14.143V18.4287C22 18.8216 21.6786 19.143 21.2857 19.143H18.4286C18.0357 19.143 17.7143 18.8216 17.7143 18.4287C17.7143 18.0358 17.3929 17.7144 17 17.7144C16.6071 17.7144 16.2857 18.0358 16.2857 18.4287V21.2858C16.2857 21.6787 15.9643 22.0001 15.5714 22.0001H14.1429C13.75 22.0001 13.4286 21.6787 13.4286 21.2858V14.143ZM18.4286 22.0001C18.2391 22.0001 18.0574 21.9249 17.9235 21.7909C17.7895 21.657 17.7143 21.4753 17.7143 21.2858C17.7143 21.0964 17.7895 20.9147 17.9235 20.7808C18.0574 20.6468 18.2391 20.5716 18.4286 20.5716C18.618 20.5716 18.7997 20.6468 18.9336 20.7808C19.0676 20.9147 19.1429 21.0964 19.1429 21.2858C19.1429 21.4753 19.0676 21.657 18.9336 21.7909C18.7997 21.9249 18.618 22.0001 18.4286 22.0001ZM21.2857 22.0001C21.0963 22.0001 20.9146 21.9249 20.7806 21.7909C20.6467 21.657 20.5714 21.4753 20.5714 21.2858C20.5714 21.0964 20.6467 20.9147 20.7806 20.7808C20.9146 20.6468 21.0963 20.5716 21.2857 20.5716C21.4752 20.5716 21.6568 20.6468 21.7908 20.7808C21.9247 20.9147 22 21.0964 22 21.2858C22 21.4753 21.9247 21.657 21.7908 21.7909C21.6568 21.9249 21.4752 22.0001 21.2857 22.0001Z"
      fill="#FF0000" />
  </g>
</svg>