<svg width="24" height="24" viewBox="0 0 24 24" fill="none" xmlns="http://www.w3.org/2000/svg">
<path d="M22 12C22 17.5229 17.5229 22 12 22C6.47714 22 2 17.5229 2 12C2 6.47715 6.47714 2 12 2C14.0019 1.99832 15.9576 2.6015 17.6107 3.73049L18.8297 2.51152C18.9507 2.39053 19.1148 2.32256 19.2859 2.32256C19.457 2.32256 19.6211 2.39053 19.7421 2.51152L20.1982 2.96759C20.3191 3.08858 20.3871 3.25267 20.3871 3.42378C20.3871 3.59488 20.3191 3.75898 20.1982 3.87997L12.0783 11.9998L12.078 12H14.5806C14.5821 12.507 14.4342 13.0032 14.1553 13.4267C13.8765 13.8501 13.4791 14.1821 13.0127 14.381C12.5464 14.58 12.0317 14.6372 11.5331 14.5454C11.0344 14.4537 10.5739 14.2171 10.2089 13.8652C9.84384 13.5133 9.59058 13.0617 9.48069 12.5667C9.3708 12.0718 9.40914 11.5554 9.59093 11.0821C9.77272 10.6088 10.0899 10.1995 10.5029 9.90537C10.9159 9.61123 11.4063 9.44526 11.9131 9.42818L13.0475 8.29371C12.708 8.18899 12.3553 8.13353 12 8.12903C11.2344 8.12903 10.486 8.35606 9.8494 8.78141C9.21283 9.20676 8.71667 9.81132 8.42369 10.5186C8.13071 11.226 8.05405 12.0043 8.20341 12.7552C8.35277 13.5061 8.72145 14.1958 9.26281 14.7372C9.80417 15.2786 10.4939 15.6472 11.2448 15.7966C11.9957 15.946 12.774 15.8693 13.4814 15.5763C14.1887 15.2833 14.7932 14.7872 15.2186 14.1506C15.6439 13.514 15.871 12.7656 15.871 12H18.4516C18.4516 15.2072 16.0928 17.8539 13.0229 18.3482C12.7881 18.028 12.4275 17.8065 12 17.8065C11.5725 17.8065 11.2119 18.028 10.9771 18.3482C9.64263 18.1324 8.40999 17.5018 7.4541 16.5459C6.49821 15.59 5.86761 14.3574 5.65179 13.0229C5.97201 12.7881 6.19355 12.4275 6.19355 12C6.19355 11.5725 5.97201 11.2119 5.65179 10.9771C6.14614 7.90718 8.79278 5.54839 12 5.54839C13.0933 5.54839 14.1054 5.85018 15.0053 6.33594L15.9726 5.36867C14.7746 4.64266 13.4008 4.25856 12 4.25807C8.11856 4.25807 4.91378 7.11743 4.35383 10.8428C4.13266 10.9447 3.94532 11.1078 3.81401 11.3129C3.68269 11.518 3.6129 11.7564 3.6129 12C3.6129 12.2435 3.68269 12.4819 3.81401 12.687C3.94532 12.8921 4.13266 13.0552 4.35383 13.1571C4.60101 14.7898 5.36426 16.3005 6.53188 17.4681C7.6995 18.6357 9.21019 19.399 10.8428 19.6462C10.9447 19.8673 11.1079 20.0547 11.313 20.186C11.5181 20.3173 11.7565 20.3871 12 20.3871C12.2435 20.3871 12.4819 20.3173 12.687 20.186C12.8921 20.0547 13.0552 19.8673 13.1571 19.6462C16.8825 19.0863 19.7419 15.8814 19.7419 12H22Z" fill="#FF0000"/>
</svg>
