<svg width="24" height="24" viewBox="0 0 24 24" fill="none" xmlns="http://www.w3.org/2000/svg">
<path fill-rule="evenodd" clip-rule="evenodd" d="M22 12.8975L20.9744 21.1026L18.1538 18.2821C16.4872 19.9487 14.1795 20.8462 11.8718 20.8462C9.5641 20.8462 7.38462 20.0769 5.58974 18.2821C4.30769 17 3.41026 15.3334 3.15385 13.4103L5.71795 13.0257C5.97436 14.3077 6.61539 15.5898 7.51282 16.4872C9.94872 18.9231 14.0513 18.9231 16.4872 16.4872L13.7949 13.7949L22 12.8975ZM2.89744 2.89746L5.71795 5.71797C9.30769 2.25644 14.9487 2.25644 18.4103 5.71797C19.6923 7.00002 20.5897 8.66669 20.8462 10.5898L18.2821 10.9744C18.0256 9.69233 17.3846 8.41028 16.4872 7.51285C14.0513 5.07695 9.94872 5.07695 7.51282 7.51285L10.2051 10.2052L2 11.1026L2.89744 2.89746Z" fill="#FF0000"/>
</svg>
