<svg width="24" height="24" viewBox="0 0 24 24" fill="none" xmlns="http://www.w3.org/2000/svg">
<path fill-rule="evenodd" clip-rule="evenodd" d="M13.7993 18.1517C13.4619 17.578 12.83 17.2376 12.1774 17.2799C11.7981 17.3015 11.4187 17.3015 11.0402 17.2376C8.61678 16.898 6.72085 14.8573 6.5736 12.3707C6.36294 9.22482 8.89084 6.61028 11.9873 6.71656C14.642 6.80124 16.854 8.94829 17.0216 11.6268V11.6484L15.6943 11.6484C14.8517 11.6484 14.3464 12.5833 14.7883 13.3064L17.9071 18.3436C18.3284 19.0235 19.2978 19.0235 19.7191 18.3436L22.8363 13.3064C23.279 12.5841 22.7729 11.6484 21.9303 11.6484H20.5824C20.4137 7.22721 16.9592 3.54994 12.5988 3.14653C7.12169 2.6575 2.5506 7.26951 3.03533 12.7957C3.41386 17.1746 6.97359 20.6391 11.3136 20.8725C11.6715 20.8941 12.0295 20.8941 12.3883 20.8725C13.7154 20.7879 14.4733 19.3208 13.7993 18.1517Z" fill="#FF0000"/>
</svg>
