<svg width="24" height="24" viewBox="0 0 24 24" fill="none" xmlns="http://www.w3.org/2000/svg">
<path d="M12 2.3999C12.6638 2.3999 13.2 2.93615 13.2 3.5999V5.9999H17.7C19.1925 5.9999 20.4 7.2074 20.4 8.6999V18.8999C20.4 20.3924 19.1925 21.5999 17.7 21.5999H6.3C4.8075 21.5999 3.6 20.3924 3.6 18.8999V8.6999C3.6 7.2074 4.8075 5.9999 6.3 5.9999H10.8V3.5999C10.8 2.93615 11.3363 2.3999 12 2.3999ZM7.8 16.7999C7.47 16.7999 7.2 17.0699 7.2 17.3999C7.2 17.7299 7.47 17.9999 7.8 17.9999H9C9.33 17.9999 9.6 17.7299 9.6 17.3999C9.6 17.0699 9.33 16.7999 9 16.7999H7.8ZM11.4 16.7999C11.07 16.7999 10.8 17.0699 10.8 17.3999C10.8 17.7299 11.07 17.9999 11.4 17.9999H12.6C12.93 17.9999 13.2 17.7299 13.2 17.3999C13.2 17.0699 12.93 16.7999 12.6 16.7999H11.4ZM15 16.7999C14.67 16.7999 14.4 17.0699 14.4 17.3999C14.4 17.7299 14.67 17.9999 15 17.9999H16.2C16.53 17.9999 16.8 17.7299 16.8 17.3999C16.8 17.0699 16.53 16.7999 16.2 16.7999H15ZM9.9 11.9999C9.9 11.6021 9.74197 11.2205 9.46066 10.9392C9.17936 10.6579 8.79782 10.4999 8.4 10.4999C8.00218 10.4999 7.62064 10.6579 7.33934 10.9392C7.05804 11.2205 6.9 11.6021 6.9 11.9999C6.9 12.3977 7.05804 12.7793 7.33934 13.0606C7.62064 13.3419 8.00218 13.4999 8.4 13.4999C8.79782 13.4999 9.17936 13.3419 9.46066 13.0606C9.74197 12.7793 9.9 12.3977 9.9 11.9999ZM15.6 13.4999C15.9978 13.4999 16.3794 13.3419 16.6607 13.0606C16.942 12.7793 17.1 12.3977 17.1 11.9999C17.1 11.6021 16.942 11.2205 16.6607 10.9392C16.3794 10.6579 15.9978 10.4999 15.6 10.4999C15.2022 10.4999 14.8206 10.6579 14.5393 10.9392C14.258 11.2205 14.1 11.6021 14.1 11.9999C14.1 12.3977 14.258 12.7793 14.5393 13.0606C14.8206 13.3419 15.2022 13.4999 15.6 13.4999ZM1.8 10.7999H2.4V17.9999H1.8C0.80625 17.9999 0 17.1937 0 16.1999V12.5999C0 11.6062 0.80625 10.7999 1.8 10.7999ZM22.2 10.7999C23.1938 10.7999 24 11.6062 24 12.5999V16.1999C24 17.1937 23.1938 17.9999 22.2 17.9999H21.6V10.7999H22.2Z" fill="#FF0000"/>
</svg>
