<svg width="24" height="24" viewBox="0 0 24 24" fill="none" xmlns="http://www.w3.org/2000/svg">
<path d="M21.7335 2.74606C21.6827 2.50779 21.4952 2.3203 21.2569 2.26952C19.9988 2 19.0142 2 18.0336 2C14.0015 2 11.583 4.15615 9.77797 6.99976H5.70683C4.99575 6.99976 4.34718 7.40209 4.03071 8.03487L2.10063 11.8941C1.78807 12.519 2.24129 13.2495 2.94065 13.2495H6.65625C6.42573 13.7494 6.19131 14.2455 5.95298 14.7221C5.83186 14.9642 5.87874 15.2533 6.07019 15.4447L8.55507 17.9289C8.74651 18.1203 9.03563 18.1672 9.27787 18.0461C9.75453 17.8078 10.2507 17.5774 10.7508 17.3469V21.0616C10.7508 21.7569 11.4854 22.21 12.1066 21.9014L15.9628 19.9718C16.5997 19.6554 16.9982 19.0031 16.9982 18.2961V14.2182C19.8347 12.4097 21.9992 9.984 21.9992 5.97247C22.0031 4.98814 22.0031 4.00381 21.7335 2.74606ZM17.6272 8.2497C16.5919 8.2497 15.7518 7.4099 15.7518 6.37479C15.7518 5.33968 16.5919 4.49988 17.6272 4.49988C18.6626 4.49988 19.5026 5.33968 19.5026 6.37479C19.5026 7.4099 18.6626 8.2497 17.6272 8.2497Z" fill="#FF0000"/>
</svg>
