<svg width="24" height="24" viewBox="0 0 24 24" fill="none" xmlns="http://www.w3.org/2000/svg">
<path fill-rule="evenodd" clip-rule="evenodd" d="M14.5 9.5H20.75C21.4404 9.5 22 10.0596 22 10.75V13.25C22 13.9404 21.4404 14.5 20.75 14.5H14.5V20.75C14.5 21.4404 13.9404 22 13.25 22H10.75C10.0596 22 9.5 21.4404 9.5 20.75V14.5H3.25C2.55964 14.5 2 13.9404 2 13.25V10.75C2 10.0596 2.55964 9.5 3.25 9.5H9.5V3.25C9.5 2.55964 10.0596 2 10.75 2H13.25C13.9404 2 14.5 2.55964 14.5 3.25V9.5Z" fill="#FF0000"/>
</svg>
