<svg width="24" height="24" viewBox="0 0 24 24" fill="none" xmlns="http://www.w3.org/2000/svg">
<path fill-rule="evenodd" clip-rule="evenodd" d="M19.559 4.44641C22.8137 7.70113 22.8137 12.9781 19.559 16.2328C16.504 19.2878 11.6674 19.4753 8.39374 16.7953L3.44069 21.7473C3.11111 22.0769 2.57676 22.0769 2.24718 21.7473C1.91761 21.4177 1.91761 20.8834 2.24718 20.5538L7.20057 15.6C4.53055 12.3265 4.72121 7.49776 7.77257 4.44641C11.0273 1.19169 16.3042 1.19169 19.559 4.44641ZM8.96607 5.63992C6.37051 8.23548 6.37051 12.4437 8.96607 15.0393C11.5616 17.6349 15.7699 17.6349 18.3654 15.0393C20.961 12.4437 20.961 8.23548 18.3654 5.63992C15.7699 3.04435 11.5616 3.04435 8.96607 5.63992Z" fill="#FF0000"/>
<path fill-rule="evenodd" clip-rule="evenodd" d="M19.559 4.44641C22.8137 7.70113 22.8137 12.9781 19.559 16.2328C16.504 19.2878 11.6674 19.4753 8.39374 16.7953L3.44069 21.7473C3.11111 22.0769 2.57676 22.0769 2.24718 21.7473C1.91761 21.4177 1.91761 20.8834 2.24718 20.5538L7.20057 15.6C4.53055 12.3265 4.72121 7.49776 7.77257 4.44641C11.0273 1.19169 16.3042 1.19169 19.559 4.44641ZM8.96607 5.63992C6.37051 8.23548 6.37051 12.4437 8.96607 15.0393C11.5616 17.6349 15.7699 17.6349 18.3654 15.0393C20.961 12.4437 20.961 8.23548 18.3654 5.63992C15.7699 3.04435 11.5616 3.04435 8.96607 5.63992Z" fill="#FF0000"/>
<path fill-rule="evenodd" clip-rule="evenodd" d="M19.9125 4.09286C23.3625 7.54284 23.3625 13.1364 19.9125 16.5864C16.7838 19.7151 11.8928 20.0063 8.43548 17.4606L3.79425 22.1009C3.79423 22.1009 3.79426 22.1009 3.79425 22.1009C3.2694 22.6257 2.41846 22.6257 1.89363 22.1009C1.3688 21.576 1.36879 20.7251 1.89361 20.2003C1.89361 20.2003 1.89362 20.2003 1.89361 20.2003L6.5358 15.5577C3.99973 12.101 4.294 7.21788 7.41901 4.09286C10.869 0.642875 16.4625 0.642875 19.9125 4.09286ZM7.20057 15.6L2.24718 20.5538C1.91761 20.8834 1.91761 21.4177 2.24718 21.7473C2.57676 22.0769 3.11111 22.0769 3.44069 21.7473L8.39374 16.7953C11.6674 19.4753 16.504 19.2878 19.559 16.2328C22.8137 12.9781 22.8137 7.70113 19.559 4.44641C16.3042 1.19169 11.0273 1.19169 7.77257 4.44641C4.72121 7.49776 4.53055 12.3265 7.20057 15.6ZM9.31963 5.99348C6.91932 8.39378 6.91932 12.2854 9.31963 14.6857C11.7199 17.086 15.6116 17.086 18.0119 14.6857C20.4122 12.2854 20.4122 8.39378 18.0119 5.99348C15.6116 3.59317 11.7199 3.59317 9.31963 5.99348ZM8.96607 15.0393C6.37051 12.4437 6.37051 8.23548 8.96607 5.63992C11.5616 3.04435 15.7699 3.04435 18.3654 5.63992C20.961 8.23548 20.961 12.4437 18.3654 15.0393C15.7699 17.6349 11.5616 17.6349 8.96607 15.0393Z" fill="#FF0000"/>
</svg>
