<svg width="24" height="24" viewBox="0 0 24 24" fill="none" xmlns="http://www.w3.org/2000/svg">
<path d="M12.6205 2.10821C12.4652 2.03731 12.2988 2 12.125 2C11.9512 2 11.7848 2.03731 11.6295 2.10821L4.66632 5.08955C3.85278 5.43657 3.24632 6.24627 3.25002 7.22388C3.25619 8.4603 3.42865 10.0394 3.89308 11.7089C4.63288 10.817 5.75172 10.25 7 10.25C9.21826 10.25 11.0278 12.0405 11.0278 14.2632C11.0278 14.9408 10.8596 15.5783 10.5629 16.1371C12.0988 17.0159 13.25 18.5225 13.25 20.3814C13.25 20.4985 13.2399 20.6105 13.2214 20.7173C19.4917 17.6123 20.9816 10.902 21 7.22388C21.0037 6.24627 20.3972 5.43657 19.5837 5.08955L12.6205 2.10821Z" fill="#FF0000"/>
<path d="M12 20.3814C12 18.9446 11.0078 17.689 9.52977 17.0101L9.47369 17.0573C8.80146 17.6091 7.93965 17.9406 7 17.9406C6.03392 17.9406 5.15011 17.5902 4.47023 17.0101C2.99216 17.689 2 18.9446 2 20.3814C2 22.5395 12 22.5395 12 20.3814Z" fill="#FF0000"/>
<path d="M9.77778 14.2632C9.77778 12.7371 8.53412 11.5 7 11.5C5.46588 11.5 4.22222 12.7371 4.22222 14.2632C4.22222 15.7892 5.46588 17.0263 7 17.0263C8.53412 17.0263 9.77778 15.7892 9.77778 14.2632Z" fill="#FF0000"/>
</svg>
