<svg width="24" height="24" viewBox="0 0 24 24" fill="none" xmlns="http://www.w3.org/2000/svg">
<path d="M12.9435 0.136685C12.7455 0.0471328 12.5334 0 12.3119 0C12.0904 0 11.8783 0.0471328 11.6803 0.136685L2.80521 3.90259C1.76829 4.34093 0.995308 5.36371 1.00002 6.59859C1.02359 11.2742 2.9466 19.8288 11.0676 23.7172C11.8547 24.0943 12.7691 24.0943 13.5562 23.7172C21.6772 19.8288 23.6002 11.2742 23.6237 6.59859C23.6285 5.36371 22.8555 4.34093 21.8186 3.90259L12.9435 0.136685ZM17.6379 9.85075L11.6049 15.8837C11.1618 16.3268 10.4454 16.3268 10.0071 15.8837L6.99059 12.8672C6.54755 12.4242 6.54755 11.7078 6.99059 11.2694C7.43364 10.8311 8.15006 10.8264 8.58839 11.2694L10.8036 13.4847L16.0354 8.24823C16.4784 7.80518 17.1948 7.80518 17.6332 8.24823C18.0715 8.69128 18.0762 9.4077 17.6332 9.84603L17.6379 9.85075Z" fill="#FF0000"/>
</svg>
