<svg width="24" height="24" viewBox="0 0 24 24" fill="none" xmlns="http://www.w3.org/2000/svg">
<path fill-rule="evenodd" clip-rule="evenodd" d="M3.03865 15.1494H6.95126C7.72953 15.1494 8.44007 14.4077 8.78326 13.4629L10.3089 9.26285C10.9953 7.37331 12.3913 6.33159 13.9479 6.33159H17.1163V8.85097H13.9479C13.1696 8.85097 12.5249 9.58432 12.1817 10.5291L10.6561 14.7292C9.96969 16.6187 8.5486 17.6688 6.99206 17.6688H3.03865C2.46502 17.6688 2 17.187 2 16.4111C2 15.6353 2.46502 15.1494 3.03865 15.1494Z" fill="#FF0000"/>
<path fill-rule="evenodd" clip-rule="evenodd" d="M21.6193 8.29438L18.4152 10.3866C18.0269 10.6402 17.5065 10.531 17.2529 10.1427C17.1638 10.0061 17.1163 9.84657 17.1163 9.68349V5.49897C17.1163 5.03517 17.4923 4.65918 17.9561 4.65918C18.1191 4.65918 18.2787 4.70666 18.4152 4.79582L21.6193 6.88808C22.0076 7.14167 22.1168 7.66206 21.8633 8.0504C21.7997 8.14774 21.7166 8.23082 21.6193 8.29438Z" fill="#FF0000"/>
<path fill-rule="evenodd" clip-rule="evenodd" d="M3.03865 8.85097C2.46502 8.85097 2 8.35677 2 7.58092C2 6.80507 2.46502 6.33159 3.03865 6.33159H6.99206C8.5486 6.33159 9.96969 7.37331 10.6561 9.26285L12.1817 13.4629C12.5249 14.4077 13.1696 15.1494 13.9479 15.1494H17.1163V17.6688H13.9479C12.3913 17.6688 10.9953 16.6187 10.3089 14.7292L8.78326 10.5291C8.44007 9.58432 7.72953 8.85097 6.95126 8.85097H3.03865Z" fill="#FF0000"/>
<path fill-rule="evenodd" clip-rule="evenodd" d="M21.6193 17.1122L18.4152 19.2045C18.0269 19.4581 17.5065 19.3488 17.2529 18.9605C17.1638 18.8239 17.1163 18.6644 17.1163 18.5013V14.3168C17.1163 13.853 17.4923 13.477 17.9561 13.477C18.1191 13.477 18.2787 13.5245 18.4152 13.6136L21.6193 15.7059C22.0076 15.9595 22.1168 16.4799 21.8633 16.8682C21.7997 16.9656 21.7166 17.0486 21.6193 17.1122Z" fill="#FF0000"/>
</svg>
