<svg width="24" height="24" viewBox="0 0 24 24" fill="none" xmlns="http://www.w3.org/2000/svg">
<path fill-rule="evenodd" clip-rule="evenodd" d="M21.7499 12.6958L15.7251 19.5767C15.1871 20.1911 13.533 19.761 13.533 18.8804V15.3707H9.37752C8.90055 15.3707 8.51683 14.5102 8.51683 13.9655V10.0335C8.51683 9.48881 8.90055 8.62916 9.37752 8.62916H13.533V5.11862C13.533 4.24213 15.1836 3.80798 15.7251 4.42234L21.7499 11.3032C22.0834 11.6882 22.0834 12.3108 21.7499 12.6958ZM10.9888 19.3714V17.7331C10.9888 17.4628 10.736 17.2416 10.427 17.2416H6.49439C5.66574 17.2416 4.99626 16.6559 4.99626 15.931V8.06709C4.99626 7.34214 5.66574 6.75645 6.49439 6.75645H10.427C10.736 6.75645 10.9888 6.53527 10.9888 6.26495V4.62665C10.9888 4.35632 10.736 4.13515 10.427 4.13515H6.49439C4.01311 4.13515 2 5.89633 2 8.06709V15.931C2 18.1017 4.01311 19.8629 6.49439 19.8629H10.427C10.736 19.8629 10.9888 19.6417 10.9888 19.3714Z" fill="#FF0000"/>
</svg>
