<svg width="24" height="24" viewBox="0 0 24 24" fill="none" xmlns="http://www.w3.org/2000/svg">
<path d="M18.25 17.582C20.5352 15.9766 22 13.5156 22 10.75C22 5.91797 17.5234 2 12 2C6.47656 2 2 5.91797 2 10.75C2 13.5117 3.46484 15.9766 5.75 17.582C5.75 17.5977 5.75 17.6094 5.75 17.625V20.125C5.75 21.1602 6.58984 22 7.625 22H9.5V20.125C9.5 19.7812 9.78125 19.5 10.125 19.5C10.4688 19.5 10.75 19.7812 10.75 20.125V22H13.25V20.125C13.25 19.7812 13.5312 19.5 13.875 19.5C14.2188 19.5 14.5 19.7812 14.5 20.125V22H16.375C17.4102 22 18.25 21.1602 18.25 20.125V17.625C18.25 17.6094 18.25 17.5977 18.25 17.582ZM5.75 12C5.75 11.337 6.01339 10.7011 6.48223 10.2322C6.95107 9.76339 7.58696 9.5 8.25 9.5C8.91304 9.5 9.54893 9.76339 10.0178 10.2322C10.4866 10.7011 10.75 11.337 10.75 12C10.75 12.663 10.4866 13.2989 10.0178 13.7678C9.54893 14.2366 8.91304 14.5 8.25 14.5C7.58696 14.5 6.95107 14.2366 6.48223 13.7678C6.01339 13.2989 5.75 12.663 5.75 12ZM15.75 9.5C16.413 9.5 17.0489 9.76339 17.5178 10.2322C17.9866 10.7011 18.25 11.337 18.25 12C18.25 12.663 17.9866 13.2989 17.5178 13.7678C17.0489 14.2366 16.413 14.5 15.75 14.5C15.087 14.5 14.4511 14.2366 13.9822 13.7678C13.5134 13.2989 13.25 12.663 13.25 12C13.25 11.337 13.5134 10.7011 13.9822 10.2322C14.4511 9.76339 15.087 9.5 15.75 9.5Z" fill="#FF0000"/>
</svg>
