<svg width="24" height="24" viewBox="0 0 24 24" fill="none" xmlns="http://www.w3.org/2000/svg">
<path d="M21.7135 17.366C18.2068 15.6684 17.6479 13.0475 17.623 12.8531C17.5929 12.6176 17.5588 12.4325 17.8186 12.1929C18.0691 11.9615 19.1805 11.2736 19.4889 11.0584C19.9986 10.702 20.2231 10.3461 20.0576 9.90875C19.9419 9.60616 19.6602 9.49218 19.3634 9.49218C19.2697 9.49246 19.1764 9.50294 19.0851 9.52342C18.525 9.64492 17.9812 9.92553 17.6664 10.0013C17.6286 10.0111 17.5897 10.0163 17.5507 10.0169C17.3829 10.0169 17.3193 9.94231 17.3355 9.74038C17.3748 9.12826 17.4581 7.93351 17.3615 6.81744C17.229 5.28192 16.7338 4.5211 16.1465 3.84822C15.8624 3.5219 14.5433 2.12003 11.9976 2.12003C9.45186 2.12003 8.13445 3.5219 7.85211 3.84417C7.26313 4.51705 6.76845 5.27787 6.63711 6.81339C6.54049 7.92946 6.62728 9.12363 6.66315 9.73633C6.67472 9.92842 6.61571 10.0129 6.44792 10.0129C6.40887 10.0122 6.37003 10.007 6.33221 9.99727C6.01804 9.92148 5.47418 9.64087 4.91413 9.51937C4.82277 9.49889 4.72946 9.48841 4.63584 9.48813C4.33787 9.48813 4.05726 9.60384 3.94155 9.9047C3.77608 10.3421 3.99941 10.6979 4.51086 11.0543C4.81924 11.2695 5.93068 11.9569 6.1812 12.1889C6.4404 12.4284 6.40684 12.6136 6.37676 12.849C6.35188 13.0463 5.7924 15.6673 2.28626 17.3619C2.08087 17.4614 1.73141 17.672 2.34759 18.0122C3.31496 18.5468 3.95891 18.4895 4.45937 18.8118C4.88404 19.0855 4.63294 19.6756 4.9419 19.8885C5.32144 20.1506 6.44329 19.87 7.89261 20.3485C9.10761 20.7489 9.84587 21.88 12.0005 21.88C14.1551 21.88 14.9147 20.7436 16.1083 20.3485C17.5547 19.87 18.6789 20.1506 19.059 19.8885C19.3674 19.6756 19.1169 19.0855 19.5416 18.8118C20.042 18.4895 20.6854 18.5468 21.6533 18.0122C22.2684 17.6761 21.9189 17.4655 21.7135 17.366Z" fill="#FF0000"/>
</svg>
