<svg width="24" height="24" viewBox="0 0 24 24" fill="none" xmlns="http://www.w3.org/2000/svg">
<path d="M3.25209 2.00098C2.74822 2.00098 2.29122 2.30564 2.09592 2.77436C1.90062 3.24308 2.00999 3.7782 2.36543 4.13756L10.7516 12.5198V19.4998H8.25177C7.5604 19.4998 7.00185 20.0584 7.00185 20.7498C7.00185 21.4411 7.5604 21.9997 8.25177 21.9997H12.0015H15.7513C16.4426 21.9997 17.0012 21.4411 17.0012 20.7498C17.0012 20.0584 16.4426 19.4998 15.7513 19.4998H13.2514V12.5198L21.6337 4.13365C21.9931 3.7743 22.0985 3.23918 21.9032 2.77046C21.7079 2.30174 21.2548 2.00098 20.7509 2.00098H3.25209Z" fill="#FF0000"/>
</svg>
