<svg width="24" height="24" viewBox="0 0 24 24" fill="none" xmlns="http://www.w3.org/2000/svg">
<path d="M12 2C6.47714 2 2 6.47714 2 12C2 17.5229 6.47714 22 12 22C17.5229 22 22 17.5229 22 12C22 6.47714 17.5229 2 12 2ZM16.6352 8.80081C16.4847 10.3821 15.8335 14.2193 15.5021 15.9903C15.3619 16.7397 15.0859 16.991 14.8187 17.0155C14.2381 17.069 13.797 16.6318 13.2346 16.2631C12.3544 15.6861 11.8572 15.327 11.0029 14.764C10.0156 14.1134 10.6556 13.7559 11.2183 13.1712C11.3655 13.0183 13.9242 10.691 13.9737 10.4799C13.9799 10.4535 13.9858 10.3549 13.9272 10.3031C13.8685 10.2513 13.7824 10.2689 13.7201 10.2829C13.6319 10.303 12.2258 11.2323 9.50206 13.0709C9.103 13.345 8.74152 13.4785 8.41762 13.4715C8.06056 13.4638 7.37375 13.2696 6.86315 13.1036C6.2369 12.9001 5.73915 12.7925 5.7825 12.4467C5.80508 12.2666 6.05306 12.0825 6.52645 11.8943C9.44167 10.6242 11.3856 9.78684 12.3582 9.38222C15.1353 8.2271 15.7124 8.02645 16.0885 8.01976C16.1712 8.01839 16.3562 8.03887 16.476 8.13609C16.5557 8.20534 16.6065 8.30198 16.6183 8.4069C16.6386 8.53716 16.6443 8.66929 16.6352 8.80081Z" fill="#FF0000"/>
</svg>
