<svg width="24" height="24" viewBox="0 0 24 24" fill="none" xmlns="http://www.w3.org/2000/svg">
<path d="M14.6906 1.54309C15.9094 1.78684 16.7016 2.97277 16.4578 4.19152L16.35 4.7259C16.1016 5.97746 15.6422 7.16809 15 8.2509H21.75C22.9922 8.2509 24 9.25871 24 10.5009C24 11.6868 23.0859 12.6571 21.9234 12.7462C22.2844 13.1446 22.5 13.6743 22.5 14.2509C22.5 15.3478 21.7125 16.2618 20.6766 16.4587C20.8828 16.7962 21 17.1993 21 17.6259C21 18.6243 20.3484 19.4728 19.4484 19.7634C19.4812 19.9181 19.5 20.0821 19.5 20.2509C19.5 21.4931 18.4922 22.5009 17.25 22.5009H13.8047C12.9141 22.5009 12.0469 22.2384 11.3062 21.7462L9.50156 20.5415C8.25 19.7071 7.5 18.3009 7.5 16.7962V15.0009V12.7509V11.5837C7.5 10.215 8.12344 8.9259 9.1875 8.06809L9.53437 7.79152C10.7766 6.79777 11.625 5.4009 11.9344 3.84465L12.0422 3.31027C12.2859 2.09152 13.4719 1.29934 14.6906 1.54309ZM1.5 9.0009H4.5C5.32969 9.0009 6 9.67121 6 10.5009V21.0009C6 21.8306 5.32969 22.5009 4.5 22.5009H1.5C0.670312 22.5009 0 21.8306 0 21.0009V10.5009C0 9.67121 0.670312 9.0009 1.5 9.0009Z" fill="#FF0000"/>
</svg>
