<svg width="24" height="24" viewBox="0 0 24 24" fill="none" xmlns="http://www.w3.org/2000/svg">
<path d="M14.6906 22.4568C15.9094 22.2131 16.7016 21.0271 16.4578 19.8084L16.35 19.274C16.1016 18.0225 15.6422 16.8318 15 15.749H21.75C22.9922 15.749 24 14.7412 24 13.499C24 12.3131 23.0859 11.3428 21.9234 11.2537C22.2844 10.8553 22.5 10.3256 22.5 9.74902C22.5 8.65215 21.7125 7.73809 20.6766 7.54121C20.8828 7.19902 21 6.80059 21 6.37402C21 5.37559 20.3484 4.52715 19.4484 4.23652C19.4812 4.08184 19.5 3.91777 19.5 3.74902C19.5 2.50684 18.4922 1.49902 17.25 1.49902H13.8047C12.9141 1.49902 12.0469 1.76152 11.3062 2.25371L9.50156 3.4584C8.25 4.29277 7.5 5.69902 7.5 7.20371V8.99902V11.249V12.4162C7.5 13.785 8.12344 15.074 9.1875 15.9318L9.53437 16.2084C10.7766 17.2021 11.625 18.599 11.9344 20.1553L12.0422 20.6896C12.2859 21.9084 13.4719 22.7006 14.6906 22.4568ZM1.5 14.999H4.5C5.32969 14.999 6 14.3287 6 13.499V2.99902C6 2.16934 5.32969 1.49902 4.5 1.49902H1.5C0.670312 1.49902 0 2.16934 0 2.99902V13.499C0 14.3287 0.670312 14.999 1.5 14.999Z" fill="#FF0000"/>
</svg>
