<svg width="24" height="24" viewBox="0 0 24 24" fill="none" xmlns="http://www.w3.org/2000/svg">
<path fill-rule="evenodd" clip-rule="evenodd" d="M12.5554 6.97397C12.5549 9.70964 12.5493 12.8847 12.5429 14.0296C12.5315 16.0569 12.5289 16.1191 12.441 16.4104C12.0972 17.5504 11.1858 18.3611 10.0542 18.5336C8.74479 18.7332 7.43579 17.975 6.93995 16.73C6.78086 16.3305 6.74003 16.1097 6.74043 15.6509C6.74115 14.8425 7.01365 14.1889 7.59219 13.6078C8.33118 12.8656 9.30332 12.5905 10.3444 12.8289L10.4745 12.8587V11.115C10.4745 9.42677 10.472 9.37049 10.3972 9.34671C10.2624 9.30395 9.06581 9.31816 8.75312 9.36628C7.3251 9.5859 6.0731 10.2304 5.08795 11.2529C3.19312 13.2197 2.746 16.0076 3.92999 18.4732C4.77702 20.2371 6.51661 21.5516 8.49291 21.9211C9.09755 22.0342 10.3026 22.0241 10.8748 21.9013C11.7259 21.7185 12.4798 21.4045 13.18 20.9408C13.5919 20.6682 14.2531 20.0578 14.5925 19.6368C15.3577 18.688 15.8262 17.5371 15.9585 16.2816C15.9808 16.0701 15.9978 14.3536 15.9982 12.2809L15.9989 8.65071L16.3492 8.87181C17.6116 9.66864 19.0688 10.1403 20.3824 10.1775L20.7027 10.1865L20.7131 8.49519L20.7236 6.80384H20.6274C20.448 6.80384 19.7037 6.63922 19.3416 6.51949C17.767 5.99883 16.6952 4.94075 16.2206 3.43851C16.1054 3.07382 15.9993 2.4759 15.9991 2.19015L15.9989 2H14.2775H12.5562L12.5554 6.97397Z" fill="#FF0000"/>
</svg>
