<svg width="51" height="52" viewBox="0 0 51 52" fill="none" xmlns="http://www.w3.org/2000/svg">
<g filter="url(#filter0_ddii_1479_2651)">
<circle cx="25.0002" cy="27" r="24" fill="#E7E9ED"/>
<circle cx="25.0002" cy="27" r="24" fill="url(#paint0_linear_1479_2651)" fill-opacity="0.4" style="mix-blend-mode:screen"/>
<circle cx="25.0002" cy="27" r="24" fill="url(#paint1_linear_1479_2651)" fill-opacity="0.5" style="mix-blend-mode:multiply"/>
</g>
<g filter="url(#filter1_i_1479_2651)">
<circle cx="25.0005" cy="27" r="19.76" fill="#BDBDBD"/>
<circle cx="25.0005" cy="27" r="19.76" fill="url(#paint2_linear_1479_2651)" fill-opacity="0.4" style="mix-blend-mode:screen"/>
<circle cx="25.0005" cy="27" r="19.76" fill="url(#paint3_linear_1479_2651)" fill-opacity="0.5" style="mix-blend-mode:multiply"/>
</g>
<g filter="url(#filter2_dddii_1479_2651)">
<path fill-rule="evenodd" clip-rule="evenodd" d="M23.3336 13.3314C23.5916 12.8892 24.2359 12.8896 24.4934 13.3321L28.0446 19.4365L31.1815 24.8285L37.8697 36.325C38.1271 36.7675 37.8046 37.3203 37.2891 37.32L30.5866 37.3156L23.8974 37.3112L18.533 37.3076C18.0175 37.3073 17.6957 36.7542 17.9537 36.312L20.544 31.8731C20.6638 31.6679 20.8849 31.5415 21.1241 31.5417L27.2114 31.5457C27.6678 31.546 27.9726 31.1129 27.8579 30.7065C27.8431 30.6538 27.8215 30.6016 27.792 30.5507L27.2761 29.664L24.4857 24.8675C24.2444 24.4527 23.6634 24.4263 23.3789 24.7885C23.3599 24.8129 23.3421 24.8389 23.3258 24.8667L22.9146 25.5715L20.2251 30.1804C20.1054 30.3856 19.8842 30.5119 19.645 30.5118L14.4704 30.5084C13.9549 30.508 13.6331 29.9549 13.8911 29.5127L16.6301 24.819L23.3336 13.3314Z" fill="#E7E9ED"/>
<path fill-rule="evenodd" clip-rule="evenodd" d="M23.3336 13.3314C23.5916 12.8892 24.2359 12.8896 24.4934 13.3321L28.0446 19.4365L31.1815 24.8285L37.8697 36.325C38.1271 36.7675 37.8046 37.3203 37.2891 37.32L30.5866 37.3156L23.8974 37.3112L18.533 37.3076C18.0175 37.3073 17.6957 36.7542 17.9537 36.312L20.544 31.8731C20.6638 31.6679 20.8849 31.5415 21.1241 31.5417L27.2114 31.5457C27.6678 31.546 27.9726 31.1129 27.8579 30.7065C27.8431 30.6538 27.8215 30.6016 27.792 30.5507L27.2761 29.664L24.4857 24.8675C24.2444 24.4527 23.6634 24.4263 23.3789 24.7885C23.3599 24.8129 23.3421 24.8389 23.3258 24.8667L22.9146 25.5715L20.2251 30.1804C20.1054 30.3856 19.8842 30.5119 19.645 30.5118L14.4704 30.5084C13.9549 30.508 13.6331 29.9549 13.8911 29.5127L16.6301 24.819L23.3336 13.3314Z" fill="url(#paint4_linear_1479_2651)" fill-opacity="0.4" style="mix-blend-mode:screen"/>
<path fill-rule="evenodd" clip-rule="evenodd" d="M23.3336 13.3314C23.5916 12.8892 24.2359 12.8896 24.4934 13.3321L28.0446 19.4365L31.1815 24.8285L37.8697 36.325C38.1271 36.7675 37.8046 37.3203 37.2891 37.32L30.5866 37.3156L23.8974 37.3112L18.533 37.3076C18.0175 37.3073 17.6957 36.7542 17.9537 36.312L20.544 31.8731C20.6638 31.6679 20.8849 31.5415 21.1241 31.5417L27.2114 31.5457C27.6678 31.546 27.9726 31.1129 27.8579 30.7065C27.8431 30.6538 27.8215 30.6016 27.792 30.5507L27.2761 29.664L24.4857 24.8675C24.2444 24.4527 23.6634 24.4263 23.3789 24.7885C23.3599 24.8129 23.3421 24.8389 23.3258 24.8667L22.9146 25.5715L20.2251 30.1804C20.1054 30.3856 19.8842 30.5119 19.645 30.5118L14.4704 30.5084C13.9549 30.508 13.6331 29.9549 13.8911 29.5127L16.6301 24.819L23.3336 13.3314Z" fill="url(#paint5_linear_1479_2651)" fill-opacity="0.5" style="mix-blend-mode:multiply"/>
</g>
<defs>
<filter id="filter0_ddii_1479_2651" x="0.265244" y="2.91833" width="49.47" height="48.8167" filterUnits="userSpaceOnUse" color-interpolation-filters="sRGB">
<feFlood flood-opacity="0" result="BackgroundImageFix"/>
<feColorMatrix in="SourceAlpha" type="matrix" values="0 0 0 0 0 0 0 0 0 0 0 0 0 0 0 0 0 0 127 0" result="hardAlpha"/>
<feMorphology radius="0.408333" operator="erode" in="SourceAlpha" result="effect1_dropShadow_1479_2651"/>
<feOffset dx="0.326667" dy="0.326667"/>
<feGaussianBlur stdDeviation="0.408333"/>
<feColorMatrix type="matrix" values="0 0 0 0 0.396078 0 0 0 0 0.396078 0 0 0 0 0.447059 0 0 0 0.25 0"/>
<feBlend mode="multiply" in2="BackgroundImageFix" result="effect1_dropShadow_1479_2651"/>
<feColorMatrix in="SourceAlpha" type="matrix" values="0 0 0 0 0 0 0 0 0 0 0 0 0 0 0 0 0 0 127 0" result="hardAlpha"/>
<feMorphology radius="0.408333" operator="erode" in="SourceAlpha" result="effect2_dropShadow_1479_2651"/>
<feOffset dx="-0.326667" dy="0.326667"/>
<feGaussianBlur stdDeviation="0.408333"/>
<feColorMatrix type="matrix" values="0 0 0 0 0.396078 0 0 0 0 0.396078 0 0 0 0 0.447059 0 0 0 0.25 0"/>
<feBlend mode="multiply" in2="effect1_dropShadow_1479_2651" result="effect2_dropShadow_1479_2651"/>
<feBlend mode="normal" in="SourceGraphic" in2="effect2_dropShadow_1479_2651" result="shape"/>
<feColorMatrix in="SourceAlpha" type="matrix" values="0 0 0 0 0 0 0 0 0 0 0 0 0 0 0 0 0 0 127 0" result="hardAlpha"/>
<feMorphology radius="0.408333" operator="dilate" in="SourceAlpha" result="effect3_innerShadow_1479_2651"/>
<feOffset dx="-0.408333" dy="0.326667"/>
<feGaussianBlur stdDeviation="0.408333"/>
<feComposite in2="hardAlpha" operator="arithmetic" k2="-1" k3="1"/>
<feColorMatrix type="matrix" values="0 0 0 0 0.396078 0 0 0 0 0.396078 0 0 0 0 0.447059 0 0 0 0.25 0"/>
<feBlend mode="normal" in2="shape" result="effect3_innerShadow_1479_2651"/>
<feColorMatrix in="SourceAlpha" type="matrix" values="0 0 0 0 0 0 0 0 0 0 0 0 0 0 0 0 0 0 127 0" result="hardAlpha"/>
<feMorphology radius="0.408333" operator="dilate" in="SourceAlpha" result="effect4_innerShadow_1479_2651"/>
<feOffset dx="0.49" dy="-0.0816667"/>
<feGaussianBlur stdDeviation="0.408333"/>
<feComposite in2="hardAlpha" operator="arithmetic" k2="-1" k3="1"/>
<feColorMatrix type="matrix" values="0 0 0 0 0.396078 0 0 0 0 0.396078 0 0 0 0 0.447059 0 0 0 0.25 0"/>
<feBlend mode="multiply" in2="effect3_innerShadow_1479_2651" result="effect4_innerShadow_1479_2651"/>
</filter>
<filter id="filter1_i_1479_2651" x="5.24048" y="7.23999" width="39.52" height="39.52" filterUnits="userSpaceOnUse" color-interpolation-filters="sRGB">
<feFlood flood-opacity="0" result="BackgroundImageFix"/>
<feBlend mode="normal" in="SourceGraphic" in2="BackgroundImageFix" result="shape"/>
<feColorMatrix in="SourceAlpha" type="matrix" values="0 0 0 0 0 0 0 0 0 0 0 0 0 0 0 0 0 0 127 0" result="hardAlpha"/>
<feMorphology radius="0.408333" operator="dilate" in="SourceAlpha" result="effect1_innerShadow_1479_2651"/>
<feOffset/>
<feGaussianBlur stdDeviation="4.08333"/>
<feComposite in2="hardAlpha" operator="arithmetic" k2="-1" k3="1"/>
<feColorMatrix type="matrix" values="0 0 0 0 0.396078 0 0 0 0 0.396078 0 0 0 0 0.447059 0 0 0 0.2 0"/>
<feBlend mode="multiply" in2="shape" result="effect1_innerShadow_1479_2651"/>
</filter>
<filter id="filter2_dddii_1479_2651" x="1.55017" y="0.749969" width="48.66" height="48.82" filterUnits="userSpaceOnUse" color-interpolation-filters="sRGB">
<feFlood flood-opacity="0" result="BackgroundImageFix"/>
<feColorMatrix in="SourceAlpha" type="matrix" values="0 0 0 0 0 0 0 0 0 0 0 0 0 0 0 0 0 0 127 0" result="hardAlpha"/>
<feOffset/>
<feGaussianBlur stdDeviation="6.125"/>
<feColorMatrix type="matrix" values="0 0 0 0 0.396078 0 0 0 0 0.396078 0 0 0 0 0.447059 0 0 0 0.25 0"/>
<feBlend mode="normal" in2="BackgroundImageFix" result="effect1_dropShadow_1479_2651"/>
<feColorMatrix in="SourceAlpha" type="matrix" values="0 0 0 0 0 0 0 0 0 0 0 0 0 0 0 0 0 0 127 0" result="hardAlpha"/>
<feMorphology radius="0.408333" operator="erode" in="SourceAlpha" result="effect2_dropShadow_1479_2651"/>
<feOffset dx="0.326667" dy="0.326667"/>
<feGaussianBlur stdDeviation="0.408333"/>
<feColorMatrix type="matrix" values="0 0 0 0 0.396078 0 0 0 0 0.396078 0 0 0 0 0.447059 0 0 0 0.25 0"/>
<feBlend mode="multiply" in2="effect1_dropShadow_1479_2651" result="effect2_dropShadow_1479_2651"/>
<feColorMatrix in="SourceAlpha" type="matrix" values="0 0 0 0 0 0 0 0 0 0 0 0 0 0 0 0 0 0 127 0" result="hardAlpha"/>
<feMorphology radius="0.408333" operator="erode" in="SourceAlpha" result="effect3_dropShadow_1479_2651"/>
<feOffset dx="-0.326667" dy="0.326667"/>
<feGaussianBlur stdDeviation="0.408333"/>
<feColorMatrix type="matrix" values="0 0 0 0 0.395677 0 0 0 0 0.397683 0 0 0 0 0.445833 0 0 0 0.25 0"/>
<feBlend mode="multiply" in2="effect2_dropShadow_1479_2651" result="effect3_dropShadow_1479_2651"/>
<feBlend mode="normal" in="SourceGraphic" in2="effect3_dropShadow_1479_2651" result="shape"/>
<feColorMatrix in="SourceAlpha" type="matrix" values="0 0 0 0 0 0 0 0 0 0 0 0 0 0 0 0 0 0 127 0" result="hardAlpha"/>
<feMorphology radius="0.408333" operator="dilate" in="SourceAlpha" result="effect4_innerShadow_1479_2651"/>
<feOffset dx="-0.408333" dy="0.326667"/>
<feGaussianBlur stdDeviation="0.408333"/>
<feComposite in2="hardAlpha" operator="arithmetic" k2="-1" k3="1"/>
<feColorMatrix type="matrix" values="0 0 0 0 0.396078 0 0 0 0 0.396078 0 0 0 0 0.447059 0 0 0 0.25 0"/>
<feBlend mode="normal" in2="shape" result="effect4_innerShadow_1479_2651"/>
<feColorMatrix in="SourceAlpha" type="matrix" values="0 0 0 0 0 0 0 0 0 0 0 0 0 0 0 0 0 0 127 0" result="hardAlpha"/>
<feMorphology radius="0.408333" operator="dilate" in="SourceAlpha" result="effect5_innerShadow_1479_2651"/>
<feOffset dx="0.49" dy="-0.0816667"/>
<feGaussianBlur stdDeviation="0.408333"/>
<feComposite in2="hardAlpha" operator="arithmetic" k2="-1" k3="1"/>
<feColorMatrix type="matrix" values="0 0 0 0 0.396078 0 0 0 0 0.396078 0 0 0 0 0.447059 0 0 0 0.25 0"/>
<feBlend mode="multiply" in2="effect4_innerShadow_1479_2651" result="effect5_innerShadow_1479_2651"/>
</filter>
<linearGradient id="paint0_linear_1479_2651" x1="7.72438" y1="5.58621" x2="47.8623" y2="47.6379" gradientUnits="userSpaceOnUse">
<stop stop-color="white" stop-opacity="0.6"/>
<stop offset="1" stop-color="white" stop-opacity="0"/>
</linearGradient>
<linearGradient id="paint1_linear_1479_2651" x1="9.30794" y1="6.78947" x2="43.2189" y2="37.1538" gradientUnits="userSpaceOnUse">
<stop stop-color="#B3B6B9"/>
<stop offset="1" stop-color="#D2E2FF" stop-opacity="0.46875"/>
</linearGradient>
<linearGradient id="paint2_linear_1479_2651" x1="10.7767" y1="9.3693" x2="43.8236" y2="43.9919" gradientUnits="userSpaceOnUse">
<stop stop-color="white" stop-opacity="0.6"/>
<stop offset="1" stop-color="white" stop-opacity="0"/>
</linearGradient>
<linearGradient id="paint3_linear_1479_2651" x1="12.0805" y1="10.36" x2="40.0005" y2="35.36" gradientUnits="userSpaceOnUse">
<stop stop-color="#B3B6B9"/>
<stop offset="1" stop-color="#D2E2FF" stop-opacity="0.46875"/>
</linearGradient>
<linearGradient id="paint4_linear_1479_2651" x1="17.1847" y1="14.3103" x2="37.527" y2="35.4824" gradientUnits="userSpaceOnUse">
<stop stop-color="white" stop-opacity="0.6"/>
<stop offset="1" stop-color="white" stop-opacity="0"/>
</linearGradient>
<linearGradient id="paint5_linear_1479_2651" x1="17.9817" y1="14.92" x2="35.1504" y2="30.1919" gradientUnits="userSpaceOnUse">
<stop stop-color="#B3B6B9"/>
<stop offset="1" stop-color="#D2E2FF" stop-opacity="0.46875"/>
</linearGradient>
</defs>
</svg>
