<svg width="50" height="50" viewBox="0 0 50 50" fill="none" xmlns="http://www.w3.org/2000/svg">
<g filter="url(#filter0_ddii_1479_2652)">
<circle cx="25.0002" cy="25" r="24" fill="#FFCA00"/>
<circle cx="25.0002" cy="25" r="24" fill="url(#paint0_linear_1479_2652)" fill-opacity="0.4" style="mix-blend-mode:screen"/>
<circle cx="25.0002" cy="25" r="24" fill="url(#paint1_linear_1479_2652)" fill-opacity="0.5" style="mix-blend-mode:color-burn"/>
</g>
<g filter="url(#filter1_i_1479_2652)">
<circle cx="25.0005" cy="25" r="19.76" fill="#ECAD0A"/>
<circle cx="25.0005" cy="25" r="19.76" fill="url(#paint2_linear_1479_2652)" fill-opacity="0.4" style="mix-blend-mode:screen"/>
<circle cx="25.0005" cy="25" r="19.76" fill="url(#paint3_linear_1479_2652)" fill-opacity="0.5"/>
</g>
<g filter="url(#filter2_ddii_1479_2652)">
<path fill-rule="evenodd" clip-rule="evenodd" d="M23.3334 11.3314C23.5915 10.8892 24.2358 10.8896 24.4933 11.3321L28.0445 17.4365L31.1814 22.8285L37.8696 34.325C38.127 34.7675 37.8045 35.3203 37.2889 35.32L30.5865 35.3156L23.8973 35.3112L18.5328 35.3076C18.0174 35.3073 17.6956 34.7542 17.9536 34.312L20.5439 29.8731C20.6636 29.6679 20.8848 29.5415 21.124 29.5417L27.2113 29.5457C27.6676 29.546 27.9724 29.1129 27.8578 28.7065C27.843 28.6538 27.8214 28.6016 27.7919 28.5507L27.276 27.664L24.4855 22.8675C24.2443 22.4527 23.6633 22.4263 23.3788 22.7885C23.3597 22.8129 23.342 22.8389 23.3257 22.8667L22.9144 23.5715L20.225 28.1804C20.1053 28.3856 19.8841 28.5119 19.6449 28.5118L14.4703 28.5084C13.9547 28.508 13.633 27.9549 13.891 27.5127L16.6299 22.819L23.3334 11.3314Z" fill="#FFCA00"/>
<path fill-rule="evenodd" clip-rule="evenodd" d="M23.3334 11.3314C23.5915 10.8892 24.2358 10.8896 24.4933 11.3321L28.0445 17.4365L31.1814 22.8285L37.8696 34.325C38.127 34.7675 37.8045 35.3203 37.2889 35.32L30.5865 35.3156L23.8973 35.3112L18.5328 35.3076C18.0174 35.3073 17.6956 34.7542 17.9536 34.312L20.5439 29.8731C20.6636 29.6679 20.8848 29.5415 21.124 29.5417L27.2113 29.5457C27.6676 29.546 27.9724 29.1129 27.8578 28.7065C27.843 28.6538 27.8214 28.6016 27.7919 28.5507L27.276 27.664L24.4855 22.8675C24.2443 22.4527 23.6633 22.4263 23.3788 22.7885C23.3597 22.8129 23.342 22.8389 23.3257 22.8667L22.9144 23.5715L20.225 28.1804C20.1053 28.3856 19.8841 28.5119 19.6449 28.5118L14.4703 28.5084C13.9547 28.508 13.633 27.9549 13.891 27.5127L16.6299 22.819L23.3334 11.3314Z" fill="url(#paint4_linear_1479_2652)" fill-opacity="0.4" style="mix-blend-mode:screen"/>
<path fill-rule="evenodd" clip-rule="evenodd" d="M23.3334 11.3314C23.5915 10.8892 24.2358 10.8896 24.4933 11.3321L28.0445 17.4365L31.1814 22.8285L37.8696 34.325C38.127 34.7675 37.8045 35.3203 37.2889 35.32L30.5865 35.3156L23.8973 35.3112L18.5328 35.3076C18.0174 35.3073 17.6956 34.7542 17.9536 34.312L20.5439 29.8731C20.6636 29.6679 20.8848 29.5415 21.124 29.5417L27.2113 29.5457C27.6676 29.546 27.9724 29.1129 27.8578 28.7065C27.843 28.6538 27.8214 28.6016 27.7919 28.5507L27.276 27.664L24.4855 22.8675C24.2443 22.4527 23.6633 22.4263 23.3788 22.7885C23.3597 22.8129 23.342 22.8389 23.3257 22.8667L22.9144 23.5715L20.225 28.1804C20.1053 28.3856 19.8841 28.5119 19.6449 28.5118L14.4703 28.5084C13.9547 28.508 13.633 27.9549 13.891 27.5127L16.6299 22.819L23.3334 11.3314Z" fill="url(#paint5_linear_1479_2652)" fill-opacity="0.5" style="mix-blend-mode:color-burn"/>
</g>
<defs>
<filter id="filter0_ddii_1479_2652" x="0.265244" y="0.918333" width="49.47" height="48.8167" filterUnits="userSpaceOnUse" color-interpolation-filters="sRGB">
<feFlood flood-opacity="0" result="BackgroundImageFix"/>
<feColorMatrix in="SourceAlpha" type="matrix" values="0 0 0 0 0 0 0 0 0 0 0 0 0 0 0 0 0 0 127 0" result="hardAlpha"/>
<feMorphology radius="0.408333" operator="erode" in="SourceAlpha" result="effect1_dropShadow_1479_2652"/>
<feOffset dx="0.326667" dy="0.326667"/>
<feGaussianBlur stdDeviation="0.408333"/>
<feColorMatrix type="matrix" values="0 0 0 0 0.717647 0 0 0 0 0.427451 0 0 0 0 0.0313726 0 0 0 0.25 0"/>
<feBlend mode="multiply" in2="BackgroundImageFix" result="effect1_dropShadow_1479_2652"/>
<feColorMatrix in="SourceAlpha" type="matrix" values="0 0 0 0 0 0 0 0 0 0 0 0 0 0 0 0 0 0 127 0" result="hardAlpha"/>
<feMorphology radius="0.408333" operator="erode" in="SourceAlpha" result="effect2_dropShadow_1479_2652"/>
<feOffset dx="-0.326667" dy="0.326667"/>
<feGaussianBlur stdDeviation="0.408333"/>
<feColorMatrix type="matrix" values="0 0 0 0 0.717647 0 0 0 0 0.427451 0 0 0 0 0.0313726 0 0 0 0.25 0"/>
<feBlend mode="multiply" in2="effect1_dropShadow_1479_2652" result="effect2_dropShadow_1479_2652"/>
<feBlend mode="normal" in="SourceGraphic" in2="effect2_dropShadow_1479_2652" result="shape"/>
<feColorMatrix in="SourceAlpha" type="matrix" values="0 0 0 0 0 0 0 0 0 0 0 0 0 0 0 0 0 0 127 0" result="hardAlpha"/>
<feMorphology radius="0.408333" operator="dilate" in="SourceAlpha" result="effect3_innerShadow_1479_2652"/>
<feOffset dx="-0.408333" dy="0.326667"/>
<feGaussianBlur stdDeviation="0.408333"/>
<feComposite in2="hardAlpha" operator="arithmetic" k2="-1" k3="1"/>
<feColorMatrix type="matrix" values="0 0 0 0 0.717647 0 0 0 0 0.427451 0 0 0 0 0.0313726 0 0 0 0.25 0"/>
<feBlend mode="normal" in2="shape" result="effect3_innerShadow_1479_2652"/>
<feColorMatrix in="SourceAlpha" type="matrix" values="0 0 0 0 0 0 0 0 0 0 0 0 0 0 0 0 0 0 127 0" result="hardAlpha"/>
<feMorphology radius="0.408333" operator="dilate" in="SourceAlpha" result="effect4_innerShadow_1479_2652"/>
<feOffset dx="0.49" dy="-0.0816667"/>
<feGaussianBlur stdDeviation="0.408333"/>
<feComposite in2="hardAlpha" operator="arithmetic" k2="-1" k3="1"/>
<feColorMatrix type="matrix" values="0 0 0 0 0.716667 0 0 0 0 0.427302 0 0 0 0 0.0298612 0 0 0 0.25 0"/>
<feBlend mode="multiply" in2="effect3_innerShadow_1479_2652" result="effect4_innerShadow_1479_2652"/>
</filter>
<filter id="filter1_i_1479_2652" x="5.24048" y="5.23999" width="39.52" height="39.52" filterUnits="userSpaceOnUse" color-interpolation-filters="sRGB">
<feFlood flood-opacity="0" result="BackgroundImageFix"/>
<feBlend mode="normal" in="SourceGraphic" in2="BackgroundImageFix" result="shape"/>
<feColorMatrix in="SourceAlpha" type="matrix" values="0 0 0 0 0 0 0 0 0 0 0 0 0 0 0 0 0 0 127 0" result="hardAlpha"/>
<feMorphology radius="0.408333" operator="dilate" in="SourceAlpha" result="effect1_innerShadow_1479_2652"/>
<feOffset/>
<feGaussianBlur stdDeviation="4.08333"/>
<feComposite in2="hardAlpha" operator="arithmetic" k2="-1" k3="1"/>
<feColorMatrix type="matrix" values="0 0 0 0 0.520833 0 0 0 0 0.316195 0 0 0 0 0.0368924 0 0 0 0.2 0"/>
<feBlend mode="multiply" in2="shape" result="effect1_innerShadow_1479_2652"/>
</filter>
<filter id="filter2_ddii_1479_2652" x="13.065" y="10.9183" width="25.63" height="25.1367" filterUnits="userSpaceOnUse" color-interpolation-filters="sRGB">
<feFlood flood-opacity="0" result="BackgroundImageFix"/>
<feColorMatrix in="SourceAlpha" type="matrix" values="0 0 0 0 0 0 0 0 0 0 0 0 0 0 0 0 0 0 127 0" result="hardAlpha"/>
<feMorphology radius="0.408333" operator="erode" in="SourceAlpha" result="effect1_dropShadow_1479_2652"/>
<feOffset dx="0.326667" dy="0.326667"/>
<feGaussianBlur stdDeviation="0.408333"/>
<feColorMatrix type="matrix" values="0 0 0 0 0.717647 0 0 0 0 0.427451 0 0 0 0 0.0313726 0 0 0 0.25 0"/>
<feBlend mode="multiply" in2="BackgroundImageFix" result="effect1_dropShadow_1479_2652"/>
<feColorMatrix in="SourceAlpha" type="matrix" values="0 0 0 0 0 0 0 0 0 0 0 0 0 0 0 0 0 0 127 0" result="hardAlpha"/>
<feMorphology radius="0.408333" operator="erode" in="SourceAlpha" result="effect2_dropShadow_1479_2652"/>
<feOffset dx="-0.326667" dy="0.326667"/>
<feGaussianBlur stdDeviation="0.408333"/>
<feColorMatrix type="matrix" values="0 0 0 0 0.717647 0 0 0 0 0.427451 0 0 0 0 0.0313726 0 0 0 0.25 0"/>
<feBlend mode="multiply" in2="effect1_dropShadow_1479_2652" result="effect2_dropShadow_1479_2652"/>
<feBlend mode="normal" in="SourceGraphic" in2="effect2_dropShadow_1479_2652" result="shape"/>
<feColorMatrix in="SourceAlpha" type="matrix" values="0 0 0 0 0 0 0 0 0 0 0 0 0 0 0 0 0 0 127 0" result="hardAlpha"/>
<feMorphology radius="0.408333" operator="dilate" in="SourceAlpha" result="effect3_innerShadow_1479_2652"/>
<feOffset dx="-0.408333" dy="0.326667"/>
<feGaussianBlur stdDeviation="0.408333"/>
<feComposite in2="hardAlpha" operator="arithmetic" k2="-1" k3="1"/>
<feColorMatrix type="matrix" values="0 0 0 0 0.717647 0 0 0 0 0.427451 0 0 0 0 0.0313726 0 0 0 0.25 0"/>
<feBlend mode="normal" in2="shape" result="effect3_innerShadow_1479_2652"/>
<feColorMatrix in="SourceAlpha" type="matrix" values="0 0 0 0 0 0 0 0 0 0 0 0 0 0 0 0 0 0 127 0" result="hardAlpha"/>
<feMorphology radius="0.408333" operator="dilate" in="SourceAlpha" result="effect4_innerShadow_1479_2652"/>
<feOffset dx="0.49" dy="-0.0816667"/>
<feGaussianBlur stdDeviation="0.408333"/>
<feComposite in2="hardAlpha" operator="arithmetic" k2="-1" k3="1"/>
<feColorMatrix type="matrix" values="0 0 0 0 0.716667 0 0 0 0 0.427302 0 0 0 0 0.0298612 0 0 0 0.25 0"/>
<feBlend mode="multiply" in2="effect3_innerShadow_1479_2652" result="effect4_innerShadow_1479_2652"/>
</filter>
<linearGradient id="paint0_linear_1479_2652" x1="7.72438" y1="3.58621" x2="47.8623" y2="45.6379" gradientUnits="userSpaceOnUse">
<stop stop-color="white" stop-opacity="0.6"/>
<stop offset="1" stop-color="white" stop-opacity="0"/>
</linearGradient>
<linearGradient id="paint1_linear_1479_2652" x1="9.30794" y1="4.78947" x2="43.2189" y2="35.1538" gradientUnits="userSpaceOnUse">
<stop stop-color="#E79A07"/>
<stop offset="1" stop-color="#FAFF00" stop-opacity="0.46875"/>
</linearGradient>
<linearGradient id="paint2_linear_1479_2652" x1="10.7767" y1="7.3693" x2="43.8236" y2="41.9919" gradientUnits="userSpaceOnUse">
<stop stop-color="white" stop-opacity="0.6"/>
<stop offset="1" stop-color="white" stop-opacity="0"/>
</linearGradient>
<linearGradient id="paint3_linear_1479_2652" x1="12.0805" y1="8.35999" x2="40.0005" y2="33.36" gradientUnits="userSpaceOnUse">
<stop stop-color="#FD9800"/>
<stop offset="1" stop-color="#FFC700" stop-opacity="0.46875"/>
</linearGradient>
<linearGradient id="paint4_linear_1479_2652" x1="17.1845" y1="12.3103" x2="37.5269" y2="33.4824" gradientUnits="userSpaceOnUse">
<stop stop-color="white" stop-opacity="0.6"/>
<stop offset="1" stop-color="white" stop-opacity="0"/>
</linearGradient>
<linearGradient id="paint5_linear_1479_2652" x1="17.9816" y1="12.92" x2="35.1503" y2="28.1919" gradientUnits="userSpaceOnUse">
<stop stop-color="#E79A07"/>
<stop offset="1" stop-color="#FAFF00" stop-opacity="0.46875"/>
</linearGradient>
</defs>
</svg>
