<svg width="24" height="24" viewBox="0 0 24 24" fill="none" xmlns="http://www.w3.org/2000/svg">
<path d="M4.78819 4.64013C4.42361 5.53944 4.22222 6.52208 4.22222 7.5568C4.22222 8.59152 4.42361 9.57416 4.78819 10.4735C5.01736 11.0429 4.74306 11.6887 4.17361 11.9214C3.60417 12.154 2.95833 11.8762 2.72569 11.3068C2.25694 10.1471 2 8.87972 2 7.5568C2 6.23388 2.25694 4.96652 2.72569 3.8068C2.95833 3.23736 3.60417 2.96305 4.17361 3.19222C4.74306 3.42138 5.01736 4.07069 4.78819 4.64013ZM21.2743 3.8068C21.7431 4.96652 22 6.23388 22 7.5568C22 8.87972 21.7431 10.1471 21.2743 11.3068C21.0451 11.8762 20.3958 12.1506 19.8264 11.9214C19.2569 11.6922 18.9826 11.0429 19.2118 10.4735C19.5764 9.57416 19.7778 8.59152 19.7778 7.5568C19.7778 6.52208 19.5764 5.53944 19.2118 4.64013C18.9826 4.07069 19.2569 3.42486 19.8264 3.19222C20.3958 2.95958 21.0417 3.23736 21.2743 3.8068ZM14.2222 7.5568C14.2222 8.37972 13.7743 9.09847 13.1111 9.48041V19.779C13.1111 20.3936 12.6146 20.8901 12 20.8901C11.3854 20.8901 10.8889 20.3936 10.8889 19.779V9.48041C10.2257 9.095 9.77778 8.37972 9.77778 7.5568C9.77778 6.33111 10.7743 5.33458 12 5.33458C13.2257 5.33458 14.2222 6.33111 14.2222 7.5568ZM7.92361 5.77902C7.6875 6.32069 7.55556 6.92138 7.55556 7.5568C7.55556 8.19222 7.6875 8.79291 7.92361 9.33458C8.17014 9.89708 7.9132 10.5533 7.3507 10.7964C6.78819 11.0394 6.13194 10.786 5.88889 10.2235C5.53125 9.40402 5.33333 8.50125 5.33333 7.5568C5.33333 6.61236 5.53125 5.70958 5.88889 4.89013C6.13542 4.32763 6.78819 4.07069 7.3507 4.31722C7.9132 4.56375 8.17014 5.21652 7.92361 5.77902ZM18.1111 4.89013C18.4688 5.70958 18.6667 6.61236 18.6667 7.5568C18.6667 8.50125 18.4688 9.40402 18.1111 10.2235C17.8646 10.786 17.2118 11.0429 16.6493 10.7964C16.0868 10.5499 15.8299 9.89708 16.0764 9.33458C16.3125 8.79291 16.4444 8.19222 16.4444 7.5568C16.4444 6.92138 16.3125 6.32069 16.0764 5.77902C15.8299 5.21652 16.0868 4.56027 16.6493 4.31722C17.2118 4.07416 17.8681 4.32763 18.1111 4.89013Z" fill="#FF0000"/>
</svg>
