<svg width="24" height="24" viewBox="0 0 24 24" fill="none" xmlns="http://www.w3.org/2000/svg">
<path fill-rule="evenodd" clip-rule="evenodd" d="M20.7603 5.33301H14.975C13.8696 5.33301 13.3169 6.6666 14.0969 7.44409L15.7963 9.13811L12.0772 12.8917L9.2052 10.0289C8.96242 9.78689 8.57501 9.78689 8.33224 10.0289L2.18536 16.0944C1.94258 16.3313 1.93742 16.7226 2.17503 16.9646L3.64718 18.4784C3.88995 18.7255 4.28769 18.7307 4.53047 18.4835L8.7713 14.2562L11.6381 17.1139C11.8809 17.3559 12.2735 17.3559 12.5162 17.1139L18.1569 11.4912L19.8822 13.211C20.6622 13.9885 22 13.4375 22 12.3356V6.56877C22 5.88395 21.4473 5.33301 20.7603 5.33301Z" fill="#FF0000"/>
</svg>
