<svg width="24" height="24" viewBox="0 0 24 24" fill="none" xmlns="http://www.w3.org/2000/svg">
<path fill-rule="evenodd" clip-rule="evenodd" d="M21.8553 4H15.3469C14.1033 4 13.4815 5.50029 14.359 6.37497L16.2708 8.28074L12.0868 12.5036L8.85584 9.28286C8.58272 9.01061 8.14689 9.01061 7.87376 9.28286L0.958527 16.1066C0.685404 16.373 0.679593 16.8133 0.946905 17.0855L2.60307 18.7885C2.8762 19.0666 3.32365 19.0724 3.59678 18.7943L8.36771 14.0386L11.5929 17.2535C11.866 17.5258 12.3077 17.5258 12.5808 17.2535L18.9265 10.928L20.8674 12.8627C21.7449 13.7374 23.25 13.1176 23.25 11.878V5.39023C23.25 4.61981 22.6282 4 21.8553 4Z" fill="#FF0000"/>
</svg>
