<svg width="24" height="24" viewBox="0 0 24 24" fill="none" xmlns="http://www.w3.org/2000/svg">
<path d="M11.9992 2.43701C12.5817 2.43701 13.119 2.7572 13.4144 3.28231L22.2744 18.9929C22.5738 19.5223 22.5738 20.1755 22.2826 20.7048C21.9914 21.2342 21.4458 21.563 20.8592 21.563H3.13923C2.55266 21.563 2.00712 21.2342 1.71588 20.7048C1.42465 20.1755 1.42875 19.518 1.72409 18.9929L10.5841 3.28231C10.8794 2.7572 11.4168 2.43701 11.9992 2.43701ZM11.9992 7.90157C11.4537 7.90157 11.0148 8.35837 11.0148 8.92617V13.7077C11.0148 14.2755 11.4537 14.7323 11.9992 14.7323C12.5448 14.7323 12.9837 14.2755 12.9837 13.7077V8.92617C12.9837 8.35837 12.5448 7.90157 11.9992 7.90157ZM13.3118 17.4645C13.3118 17.1022 13.1735 16.7547 12.9274 16.4985C12.6812 16.2423 12.3474 16.0984 11.9992 16.0984C11.6511 16.0984 11.3173 16.2423 11.0711 16.4985C10.8249 16.7547 10.6866 17.1022 10.6866 17.4645C10.6866 17.8269 10.8249 18.1743 11.0711 18.4305C11.3173 18.6867 11.6511 18.8307 11.9992 18.8307C12.3474 18.8307 12.6812 18.6867 12.9274 18.4305C13.1735 18.1743 13.3118 17.8269 13.3118 17.4645Z" fill="#FF0000"/>
</svg>
