<svg width="24" height="24" viewBox="0 0 24 24" fill="none" xmlns="http://www.w3.org/2000/svg">
<path d="M9.77778 7.00043C8.78887 7.00043 7.82217 7.29368 6.99993 7.84309C6.17768 8.39249 5.53682 9.17339 5.15838 10.087C4.77994 11.0006 4.68093 12.006 4.87385 12.9759C5.06678 13.9458 5.54298 14.8367 6.24224 15.536C6.94151 16.2352 7.83242 16.7114 8.80233 16.9044C9.77223 17.0973 10.7776 16.9983 11.6912 16.6198C12.6048 16.2414 13.3857 15.6005 13.9351 14.7783C14.4845 13.956 14.7778 12.9893 14.7778 12.0004C14.7778 10.6744 14.251 9.40258 13.3133 8.4649C12.3756 7.52722 11.1039 7.00043 9.77778 7.00043ZM9.77778 12.8338C9.61296 12.8338 9.45184 12.7849 9.3148 12.6933C9.17776 12.6018 9.07095 12.4716 9.00788 12.3193C8.94481 12.1671 8.9283 11.9995 8.96046 11.8379C8.99261 11.6762 9.07198 11.5277 9.18852 11.4112C9.30507 11.2946 9.45355 11.2153 9.6152 11.1831C9.77685 11.151 9.94441 11.1675 10.0967 11.2305C10.249 11.2936 10.3791 11.4004 10.4707 11.5375C10.5622 11.6745 10.6111 11.8356 10.6111 12.0004C10.6111 12.2214 10.5233 12.4334 10.367 12.5897C10.2108 12.746 9.99879 12.8338 9.77778 12.8338ZM18.3889 7.55599H17.8333C17.686 7.55599 17.5447 7.61452 17.4405 7.71871C17.3363 7.82289 17.2778 7.9642 17.2778 8.11154V11.5737C17.2779 11.7345 17.2429 11.8934 17.1753 12.0393L16.4444 13.6254C16.3582 13.6376 16.2762 13.6703 16.2052 13.7208C16.1342 13.7712 16.0763 13.8379 16.0365 13.9154L15.1444 15.6994C15.0784 15.8311 15.0675 15.9836 15.1139 16.1234C15.1603 16.2632 15.2603 16.3788 15.392 16.4449L16.3858 16.9421C16.451 16.9747 16.5221 16.9942 16.5949 16.9994C16.6677 17.0045 16.7408 16.9953 16.81 16.9722C16.8792 16.9492 16.9432 16.9127 16.9984 16.8648C17.0535 16.817 17.0986 16.7588 17.1313 16.6935L18.0233 14.9095C18.0699 14.8152 18.0887 14.7095 18.0773 14.6049C18.0659 14.5004 18.0249 14.4012 17.959 14.3192L18.842 12.406C18.9096 12.2597 18.9445 12.1005 18.9444 11.9393V8.11154C18.9444 7.9642 18.8859 7.82289 18.7817 7.71871C18.6775 7.61452 18.5362 7.55599 18.3889 7.55599ZM19.7778 4.22266H4.22222C3.63285 4.22266 3.06762 4.45678 2.65087 4.87353C2.23413 5.29028 2 5.85551 2 6.44488L2 17.556C2 18.1454 2.23413 18.7106 2.65087 19.1273C3.06762 19.5441 3.63285 19.7782 4.22222 19.7782H19.7778C20.3671 19.7782 20.9324 19.5441 21.3491 19.1273C21.7659 18.7106 22 18.1454 22 17.556V6.44488C22 5.85551 21.7659 5.29028 21.3491 4.87353C20.9324 4.45678 20.3671 4.22266 19.7778 4.22266ZM20.3333 17.556C20.3333 17.7033 20.2748 17.8446 20.1706 17.9488C20.0664 18.053 19.9251 18.1115 19.7778 18.1115H4.22222C4.07488 18.1115 3.93357 18.053 3.82939 17.9488C3.7252 17.8446 3.66667 17.7033 3.66667 17.556V6.44488C3.66667 6.29754 3.7252 6.15623 3.82939 6.05204C3.93357 5.94785 4.07488 5.88932 4.22222 5.88932H19.7778C19.9251 5.88932 20.0664 5.94785 20.1706 6.05204C20.2748 6.15623 20.3333 6.29754 20.3333 6.44488V17.556Z" fill="#FF0000"/>
</svg>
