<svg width="24" height="24" viewBox="0 0 24 24" fill="none" xmlns="http://www.w3.org/2000/svg">
<path fill-rule="evenodd" clip-rule="evenodd" d="M8.08 20C16.004 20 20.344 13.8462 20.344 8.53028C20.344 8.34697 20.344 8.18985 20.344 8.00655C21.184 7.43044 21.912 6.7234 22.5 5.91162C21.716 6.22586 20.904 6.43535 20.036 6.5401C20.932 6.04255 21.604 5.25696 21.94 4.31424C21.1 4.7856 20.176 5.09984 19.196 5.28314C18.412 4.49754 17.292 4 16.06 4C13.68 4 11.748 5.80687 11.748 8.03273C11.748 8.34697 11.776 8.66121 11.86 8.94926C8.276 8.79214 5.112 7.16858 2.984 4.73322C2.62 5.33552 2.396 6.01637 2.396 6.74959C2.396 8.13748 3.152 9.39444 4.3 10.1015C3.6 10.0753 2.928 9.89198 2.34 9.60393C2.34 9.63011 2.34 9.63011 2.34 9.6563C2.34 11.5941 3.824 13.2439 5.784 13.6105C5.42 13.7152 5.056 13.7414 4.664 13.7414C4.384 13.7414 4.104 13.7152 3.852 13.6628C4.412 15.2602 6.008 16.4386 7.884 16.4648C6.4 17.5385 4.552 18.1931 2.536 18.1931C2.2 18.1931 1.836 18.1669 1.5 18.1408C3.376 19.3191 5.644 20 8.08 20Z" fill="#FF0000"/>
</svg>
