<svg width="24" height="24" viewBox="0 0 24 24" fill="none" xmlns="http://www.w3.org/2000/svg">
<path fill-rule="evenodd" clip-rule="evenodd" d="M15.4148 14C13.9186 14 13.0001 15.2384 13.0001 16.1514C13.0001 18.1257 15.6378 19.8336 17.5001 21C19.3623 19.8332 22.0001 18.1257 22.0001 16.1514C22.0001 15.2384 21.082 14 19.5854 14C18.7496 14 18.0354 14.567 17.5001 15.1052C16.9642 14.5669 16.2505 14 15.4148 14Z" fill="#FF0000"/>
<path d="M9.91438 13.9685C10.6212 14.1767 11.0548 15.0202 11.0064 15.7555C11.0022 15.819 11.0001 15.8822 11.0001 15.945C11.0001 17.6172 12.068 18.9908 13.1353 19.9984C13.197 20.0567 13.2596 20.1145 13.3229 20.1719C14.0092 20.7937 13.6941 21.9692 12.7683 21.991C7.78978 22.1082 2.52637 21.0835 2.52637 18.9169C2.52637 16.3718 4.15226 14.1251 6.63252 12.7828C6.97659 12.5966 7.39378 12.6638 7.71168 12.8918C8.37259 13.3658 9.11522 13.7331 9.91438 13.9685Z" fill="#FF0000"/>
<path d="M17.2632 7.26316C17.2632 4.3564 14.9068 2 12.0001 2C9.0933 2 6.7369 4.3564 6.7369 7.26316C6.7369 10.1699 9.0933 12.5263 12.0001 12.5263C14.9068 12.5263 17.2632 10.1699 17.2632 7.26316Z" fill="#FF0000"/>
</svg>
