<svg width="24" height="24" viewBox="0 0 24 24" fill="none" xmlns="http://www.w3.org/2000/svg">
<path fill-rule="evenodd" clip-rule="evenodd" d="M16.7932 12.4954C19.5938 13.7885 21.4736 16.1802 21.4736 18.9169C21.4736 23.0277 2.52625 23.0277 2.52625 18.9169C2.52625 16.1802 4.40612 13.7885 7.20668 12.4954C8.49489 13.6004 10.1695 14.2678 11.9999 14.2678C13.7803 14.2678 15.4132 13.6365 16.6869 12.5853L16.7932 12.4954ZM11.9999 2C14.9067 2 17.2631 4.3564 17.2631 7.26316C17.2631 10.1699 14.9067 12.5263 11.9999 12.5263C9.09318 12.5263 6.73678 10.1699 6.73678 7.26316C6.73678 4.3564 9.09318 2 11.9999 2Z" fill="#FF0000"/>
</svg>
