<?xml version="1.0" encoding="UTF-8"?>
<svg width="16px" height="16px" viewBox="0 0 16 16" version="1.1" xmlns="http://www.w3.org/2000/svg" xmlns:xlink="http://www.w3.org/1999/xlink">
    <g id="Assets" stroke="none" stroke-width="1" fill="none" fill-rule="evenodd">
        <g id="assets" transform="translate(-1087.000000, -2486.000000)">
            <g id="icon/ValidationCheck" transform="translate(1087.000000, 2486.000000)">
                <g id="iconValidationCheck">
                    <circle id="Oval" fill="#0F9E48" cx="8" cy="8" r="8"></circle>
                    <g id="icon/check">
                        <rect id="bound" x="0" y="0" width="16" height="16"></rect>
                        <path d="M7.14789088,11.7006258 C6.99968531,11.8870803 6.78506334,11.9960534 6.55768047,12 L6.54581507,12 C6.32298434,12 6.110228,11.8989199 5.96008217,11.7212445 L3.54170453,8.86579245 C3.24521876,8.51640168 3.26797944,7.97451577 3.59177802,7.65452279 C3.91550197,7.33549632 4.41758007,7.35998106 4.71317033,7.70945237 L6.52671103,9.85033665 L10.9332522,4.30333536 C11.0697417,4.12952593 11.2653342,4.02055274 11.4762996,4.00283352 C11.6863694,3.98422834 11.8955437,4.05784364 12.0556893,4.20604074 C12.2166558,4.35431838 12.315758,4.56630466 12.3312054,4.79303012 C12.3466528,5.02080261 12.2775499,5.24559506 12.1384486,5.41835744 L7.14789088,11.7006258 Z" id="Path" fill="#FFFFFF" fill-rule="evenodd"></path>
                    </g>
                </g>
            </g>
        </g>
    </g>
</svg>
