<svg width="48" height="48" viewBox="0 0 48 48" fill="none" xmlns="http://www.w3.org/2000/svg">
    <circle cx="24" cy="24" r="18" fill="white" />
    <path fill-rule="evenodd" clip-rule="evenodd"
        d="M29.2357 2.62603C26.6233 -0.875344 21.3767 -0.875344 18.7643 2.62603C17.3309 4.54714 14.9605 5.52898 12.5886 5.18409C8.26545 4.55551 4.55551 8.26545 5.18409 12.5886C5.52898 14.9605 4.54714 17.3309 2.62603 18.7643C-0.875344 21.3767 -0.875344 26.6233 2.62603 29.2357C4.54714 30.6691 5.52898 33.0395 5.18409 35.4114C4.55551 39.7346 8.26544 43.4445 12.5886 42.8159C14.9605 42.471 17.3309 43.4529 18.7643 45.374C21.3767 48.8753 26.6233 48.8753 29.2357 45.374C30.6691 43.4529 33.0395 42.471 35.4114 42.8159C39.7346 43.4445 43.4445 39.7346 42.8159 35.4114C42.471 33.0395 43.4529 30.6691 45.374 29.2357C48.8753 26.6233 48.8753 21.3767 45.374 18.7643C43.4529 17.3309 42.471 14.9605 42.8159 12.5886C43.4445 8.26544 39.7346 4.55551 35.4114 5.18409C33.0395 5.52898 30.6691 4.54714 29.2357 2.62603ZM32.4998 14.2583C32.841 13.8238 33.33 13.5514 33.8574 13.5071C34.3826 13.4606 34.9055 13.6446 35.3059 14.0151C35.7083 14.3858 35.9561 14.9158 35.9947 15.4826C36.0333 16.052 35.8605 16.614 35.5128 17.0459L23.0364 32.7516C22.6659 33.2177 22.1293 33.4901 21.5609 33.5H21.5312C20.9741 33.5 20.4422 33.2473 20.0669 32.8031L14.0209 25.6645C13.2797 24.791 13.3366 23.4363 14.1461 22.6363C14.9554 21.8387 16.2106 21.9 16.9496 22.7736L21.4834 28.1258L32.4998 14.2583Z"
        fill="#CC0FE0" />
</svg>