<svg width="25" height="25" viewBox="0 0 25 25" fill="none" xmlns="http://www.w3.org/2000/svg">
<path fill-rule="evenodd" clip-rule="evenodd" d="M12.8 22.5C18.3229 22.5 22.8 18.0228 22.8 12.5C22.8 6.97715 18.3229 2.5 12.8 2.5C7.2772 2.5 2.80005 6.97715 2.80005 12.5C2.80005 18.0228 7.2772 22.5 12.8 22.5ZM16.4666 7.87917C16.6372 7.66191 16.8817 7.52569 17.1454 7.50354C17.408 7.48029 17.6695 7.5723 17.8697 7.75755C18.0709 7.9429 18.1947 8.20788 18.2141 8.49129C18.2334 8.776 18.147 9.05699 17.9731 9.27295L11.7349 17.1258C11.5497 17.3588 11.2814 17.4951 10.9972 17.5H10.9823C10.7038 17.5 10.4378 17.3737 10.2502 17.1516L7.22718 13.5822C6.85657 13.1455 6.88502 12.4681 7.28977 12.0682C7.69443 11.6694 8.32202 11.7 8.69151 12.1368L10.9584 14.8129L16.4666 7.87917Z" fill="#CC0FE0"/>
<path fill-rule="evenodd" clip-rule="evenodd" d="M17.1455 7.50354C16.8818 7.52569 16.6373 7.66191 16.4667 7.87917L10.9585 14.8129L8.69159 12.1368C8.32211 11.7 7.69451 11.6694 7.28985 12.0682C6.8851 12.4681 6.85665 13.1455 7.22726 13.5822L10.2502 17.1516C10.4379 17.3737 10.7039 17.5 10.9824 17.5H10.9972C11.2815 17.4951 11.5497 17.3588 11.735 17.1258L17.9732 9.27295C18.1471 9.05699 18.2334 8.776 18.2141 8.49129C18.1948 8.20788 18.071 7.9429 17.8697 7.75755C17.6696 7.5723 17.4081 7.48029 17.1455 7.50354Z" fill="white"/>
</svg>
