<svg width="61" height="60" viewBox="0 0 61 60" fill="none" xmlns="http://www.w3.org/2000/svg">
<g clip-path="url(#clip0_5_33)">
<path fill-rule="evenodd" clip-rule="evenodd" d="M30.7502 60C47.3188 60 60.7502 46.5685 60.7502 30C60.7502 13.4315 47.3188 0 30.7502 0C14.1817 0 0.750244 13.4315 0.750244 30C0.750244 46.5685 14.1817 60 30.7502 60ZM41.7499 16.1375C42.2618 15.4857 42.9952 15.0771 43.7863 15.0106C44.5741 14.9409 45.3585 15.2169 45.9591 15.7727C46.5627 16.3287 46.9343 17.1236 46.9922 17.9739C47.0502 18.828 46.791 19.671 46.2694 20.3188L27.5548 43.8773C26.999 44.5765 26.1942 44.9852 25.3415 45H25.297C24.4614 45 23.6636 44.6209 23.1005 43.9547L14.0316 33.2467C12.9198 31.9365 13.0051 29.9044 14.2194 28.7045C15.4334 27.5081 17.3162 27.5999 18.4246 28.9104L25.2254 36.9388L41.7499 16.1375Z" fill="#CC0FE0"/>
<path fill-rule="evenodd" clip-rule="evenodd" d="M43.7865 15.0106C42.9954 15.0771 42.2619 15.4857 41.7501 16.1375L25.2255 36.9388L18.4248 28.9104C17.3163 27.5999 15.4335 27.5081 14.2195 28.7045C13.0053 29.9044 12.9199 31.9365 14.0318 33.2467L23.1007 43.9547C23.6637 44.621 24.4616 45 25.2972 45H25.3417C26.1944 44.9852 26.9992 44.5765 27.555 43.8773L46.2695 20.3188C46.7912 19.671 47.0503 18.828 46.9924 17.9739C46.9345 17.1236 46.5628 16.3287 45.9592 15.7727C45.3587 15.2169 44.5743 14.9409 43.7865 15.0106Z" fill="white"/>
</g>
<defs>
<clipPath id="clip0_5_33">
<rect width="60" height="60" fill="white" transform="translate(0.750244)"/>
</clipPath>
</defs>
</svg>
