<svg width="24" height="24" viewBox="0 0 24 24" fill="none" xmlns="http://www.w3.org/2000/svg">
<path fill-rule="evenodd" clip-rule="evenodd" d="M12.832 5.24839L12.8336 17.7512C12.8336 18.7813 11.5486 19.3655 10.6677 18.7463L5.63677 15.1412H3.1767C2.55252 15.1412 2.00167 14.6612 2.00167 14.0428L2 8.9585C2 8.37515 2.51335 7.8593 3.17503 7.8593H5.6351L10.6661 4.25336C11.5469 3.63501 12.832 4.21836 12.832 5.24839ZM17.0411 6.66193C18.3753 7.8003 19.2037 9.56535 19.2037 11.5012C19.2295 13.463 18.3753 15.2005 17.0411 16.3389C16.7469 16.5947 16.2936 16.538 16.0536 16.2255C15.8144 15.9114 15.8402 15.428 16.1344 15.1722C17.1486 14.318 17.7886 12.9804 17.7886 11.5004C17.7886 10.0195 17.1486 8.71032 16.1344 7.82863C15.8402 7.57196 15.7869 7.08778 16.0536 6.77527C16.2936 6.46109 16.7477 6.40526 17.0411 6.66193ZM15.2411 8.74832C15.9828 9.38501 16.4328 10.3709 16.4328 11.5009C16.4328 12.6293 15.9561 13.6151 15.2145 14.2526C14.9219 14.5127 14.4719 14.4552 14.2344 14.1368L14.1819 14.0793C13.9436 13.7893 13.9969 13.326 14.2869 13.0943C14.7369 12.7468 15.002 12.1676 15.002 11.5009C15.002 10.8917 14.7369 10.3417 14.3403 9.96503C14.0219 9.67502 13.9694 9.21084 14.2344 8.86333C14.4719 8.54415 14.9236 8.48665 15.2411 8.74832Z" fill="#FF0000"/>
</svg>
