<svg width="24" height="24" viewBox="0 0 24 24" fill="none" xmlns="http://www.w3.org/2000/svg">
<path fill-rule="evenodd" clip-rule="evenodd" d="M21.0367 2.22085L21.7961 2.97992C22.0318 3.21445 22.0421 3.59257 21.8195 3.83957L18.2375 7.81006L18.2379 8.90078C18.2379 9.22375 17.9924 9.48939 17.6779 9.52134L17.6141 9.52456H16.6921L17.567 8.55306L5.80745 21.5885C5.34544 22.0986 4.55766 22.1382 4.04683 21.677C4.03123 21.663 4.01603 21.6485 4.00121 21.6337L2.38484 20.0185C1.89776 19.5313 1.89776 18.7416 2.38484 18.2544C2.39965 18.2396 2.41486 18.2251 2.43006 18.2111L7.00953 14.0796L7.00979 12.6435C7.00979 12.3205 7.25525 12.0548 7.5698 12.0229L7.63357 12.0197L9.29303 12.0196L20.179 2.19941C20.4252 1.97759 20.8019 1.98701 21.0367 2.22085ZM18.8616 13.2672L19.901 15.3464L21.9806 16.3862L19.901 17.4259L18.8616 19.5051L17.8223 17.4259L15.7427 16.3862L17.8223 15.3464L18.8616 13.2672ZM5.13845 2.03918L6.17782 4.11832L8.25735 5.15809L6.17782 6.19785L5.13845 8.27699L4.09907 6.19785L2.01954 5.15809L4.09907 4.11871L5.13845 2.03918ZM10.7525 2.03918L11.3763 3.28674L12.6238 3.91052L11.3763 4.5343L10.7525 5.78187L10.1287 4.5343L8.88114 3.91052L10.1287 3.28674L10.7525 2.03918Z" fill="#FF0000"/>
</svg>
