<svg width="24" height="24" viewBox="0 0 24 24" fill="none" xmlns="http://www.w3.org/2000/svg">
<path fill-rule="evenodd" clip-rule="evenodd" d="M12.8542 17.324C11.4421 18.7361 9.52688 19.5294 7.52984 19.5294C5.5328 19.5294 3.61756 18.7361 2.20544 17.324C0.79332 15.9118 0 13.9966 0 11.9996C0 10.0025 0.79332 8.08729 2.20544 6.67517C3.61756 5.26305 5.5328 4.46973 7.52984 4.46973C9.52688 4.46973 11.4421 5.26305 12.8542 6.67517C13.7831 7.604 14.4442 8.7505 14.7879 9.99477L18.6532 9.91687L17.2951 8.85955C16.6755 8.23988 16.6959 7.21817 17.3409 6.5732C17.9858 5.92823 19.0076 5.90779 19.6272 6.52747L23.5483 10.4485C24.168 11.0682 24.1476 12.0899 23.5026 12.7349L19.4214 16.8161C18.7765 17.461 17.7547 17.4815 17.135 16.8618C16.5154 16.2421 16.5358 15.2204 17.1808 14.5754L18.5925 12.9476L14.9944 12.9889C14.7782 14.6208 14.0311 16.1471 12.8542 17.324ZM6.28109 10.4883V10.4831L6.27586 10.4883C6.27063 10.3838 6.29678 10.3367 6.31769 10.3001C6.34907 10.253 6.41182 10.1903 6.53731 10.1223C6.80399 9.98113 7.19094 9.90792 7.51515 9.91315C7.94393 9.91838 8.40932 10.0073 8.89562 10.1275C9.34532 10.2374 9.80024 9.96544 9.91006 9.51575C10.0199 9.06605 9.74795 8.61112 9.29825 8.50131C9.00543 8.4281 8.69168 8.35489 8.36225 8.30783V7.8163C8.36225 7.35615 7.98576 6.97965 7.5256 6.97965C7.06545 6.97965 6.68896 7.35615 6.68896 7.8163V8.32352C6.37521 8.38627 6.04578 8.49085 5.74773 8.65295C5.1307 8.98238 4.54504 9.6151 4.60779 10.5982C4.66008 11.4348 5.21959 11.9263 5.73727 12.2035C6.19742 12.4492 6.76739 12.6113 7.23278 12.7421L7.3269 12.7682C7.86549 12.9199 8.2629 13.0401 8.54004 13.2022C8.77535 13.3382 8.78581 13.4218 8.78581 13.4951C8.79103 13.6206 8.75966 13.6885 8.73352 13.7304C8.70214 13.7774 8.63939 13.8402 8.52435 13.9029C8.27859 14.0336 7.90733 14.1016 7.55698 14.0912C7.07048 14.0758 6.60907 13.93 6.03029 13.7472L5.99349 13.7356C5.89431 13.7043 5.79461 13.6728 5.69021 13.6415C5.25097 13.5003 4.78558 13.7513 4.64439 14.1905C4.50321 14.6298 4.7542 15.1004 5.19344 15.2363L5.25342 15.2549C5.31902 15.2751 5.38696 15.296 5.4549 15.32C5.82093 15.4403 6.24449 15.5762 6.69419 15.6651V16.2612C6.69419 16.7214 7.07068 17.0979 7.53083 17.0979C7.99099 17.0979 8.36748 16.7214 8.36748 16.2612V15.6965C8.69168 15.639 9.02111 15.5344 9.3244 15.3723C9.95189 15.0324 10.4852 14.3945 10.4591 13.4428C10.433 12.5957 9.92051 12.0675 9.38715 11.7538C8.89562 11.4662 8.27859 11.2884 7.79228 11.1524H7.78183L7.69841 11.1284C7.19555 10.9835 6.80975 10.8724 6.53208 10.7237C6.28109 10.5877 6.28109 10.5093 6.28109 10.4883Z" fill="#FF0000"/>
</svg>
