<?xml version="1.0" encoding="UTF-8"?>
<svg width="24px" height="24px" viewBox="0 0 24 24" version="1.1" xmlns="http://www.w3.org/2000/svg" xmlns:xlink="http://www.w3.org/1999/xlink">
    <!-- Generator: Sketch 55.2 (78181) - https://sketchapp.com -->
    <title>iconContentNode</title>
    <desc>Created with Sketch.</desc>
    <g id="Page-1" stroke="none" stroke-width="1" fill="none" fill-rule="evenodd">
        <g id="Guide" transform="translate(-548.000000, -763.000000)">
            <g id="iconContentNode" transform="translate(548.000000, 763.000000)">
                <g>
                    <circle id="Oval" fill="#00D592" fill-rule="nonzero" cx="12" cy="12" r="12"></circle>
                    <g id="Stockholm-icons-/-Devices-/-Router#2" transform="translate(4.000000, 4.000000)">
                        <rect id="bound" x="0" y="0" width="16" height="16"></rect>
                        <rect id="Combined-Shape" fill="#FFFFFF" fill-rule="evenodd" x="2" y="8.66666667" width="12" height="4.66666667" rx="1"></rect>
                        <path d="M11.6019664,6.36606805 L10.5732676,7.21433481 C9.94327012,6.45033264 9.00916479,6 8,6 C6.99413897,6 6.06278936,6.44736121 5.43273414,7.20707726 L4.40642125,6.35592531 C5.28715937,5.29393763 6.59305839,4.66666667 8,4.66666667 C9.41157238,4.66666667 10.7213124,5.29809296 11.6019664,6.36606805 Z M13.6454419,4.65259253 L12.619446,5.50412657 C11.4857816,4.13819763 9.80933981,3.33333333 8,3.33333333 C6.19316154,3.33333333 4.51880488,4.13595559 3.38510837,5.49864568 L2.36011875,4.64590068 C3.74450962,2.98187886 5.7928149,2 8,2 C10.2102444,2 12.2610917,2.98461735 13.6454419,4.65259253 Z" id="Combined-Shape" fill="#FFFFFF" fill-rule="evenodd"></path>
                    </g>
                </g>
            </g>
        </g>
    </g>
</svg>