<svg width="24" height="24" viewBox="0 0 24 24" fill="none" xmlns="http://www.w3.org/2000/svg">
<path d="M14.4446 2.36806C13.9565 1.87992 13.1637 1.87992 12.6756 2.36806L7.98946 7.05418C7.50132 7.54232 7.50132 8.33506 7.98946 8.8232L8.61427 9.44801C9.10241 9.93615 9.89515 9.93615 10.3833 9.44801L10.5395 9.29181L14.7101 13.4586L14.5539 13.6148C14.0658 14.1029 14.0658 14.8956 14.5539 15.3838L15.1788 16.0086C15.6669 16.4967 16.4596 16.4967 16.9478 16.0086L21.6339 11.3225C22.122 10.8343 22.122 10.0416 21.6339 9.55345L21.0091 8.92863C20.5209 8.4405 19.7282 8.4405 19.2401 8.92863L19.0839 9.08484L14.9132 4.91419L15.0694 4.75798C15.5576 4.26984 15.5576 3.47711 15.0694 2.98897L14.4446 2.36415V2.36806ZM8.50883 13.6148C8.0207 13.1266 7.22796 13.1266 6.73982 13.6148L2.3661 17.9885C1.87797 18.4766 1.87797 19.2694 2.3661 19.7575L4.24055 21.6319C4.72869 22.1201 5.52143 22.1201 6.00957 21.6319L10.3833 17.2582C10.8714 16.7701 10.8714 15.9774 10.3833 15.4892L10.3286 15.4345L12.6248 13.1422L10.8558 11.3732L8.56351 13.6655L8.50883 13.6109V13.6148Z" fill="#FF0000"/>
</svg>
