<svg width="24" height="24" viewBox="0 0 24 24" fill="none" xmlns="http://www.w3.org/2000/svg">
<path d="M21.9948 11.9826C21.9948 12.6077 21.4739 13.0973 20.8836 13.0973H19.7723L19.7967 18.6603C19.7967 18.754 19.7897 18.8478 19.7793 18.9416V19.5006C19.7793 20.2681 19.1577 20.8896 18.3903 20.8896H17.8347C17.7965 20.8896 17.7583 20.8896 17.7201 20.8862C17.6715 20.8896 17.6229 20.8896 17.5742 20.8896H16.4457H15.6123C14.8448 20.8896 14.2233 20.2681 14.2233 19.5006V18.6672V16.4448C14.2233 15.8302 13.7267 15.3336 13.1121 15.3336H10.8896C10.275 15.3336 9.77844 15.8302 9.77844 16.4448V18.6672V19.5006C9.77844 20.2681 9.15686 20.8896 8.38943 20.8896H7.55603H6.4483C6.39621 20.8896 6.34412 20.8862 6.29203 20.8827C6.25036 20.8862 6.20869 20.8896 6.16702 20.8896H5.61142C4.84399 20.8896 4.22241 20.2681 4.22241 19.5006V15.6114C4.22241 15.5802 4.22241 15.5454 4.22588 15.5142V13.0973H3.11121C2.48615 13.0973 2 12.6112 2 11.9826C2 11.6701 2.10418 11.3923 2.34725 11.1492L11.2508 3.38815C11.4939 3.14508 11.7717 3.11035 12.0147 3.11035C12.2578 3.11035 12.5356 3.1798 12.744 3.35343L21.6128 11.1492C21.8906 11.3923 22.0295 11.6701 21.9948 11.9826Z" fill="#FF0000"/>
</svg>
