<?xml version="1.0" encoding="UTF-8"?>
<svg width="32px" height="32px" viewBox="0 0 32 32" version="1.1" xmlns="http://www.w3.org/2000/svg" xmlns:xlink="http://www.w3.org/1999/xlink">
    <!-- Generator: Sketch 55.2 (78181) - https://sketchapp.com -->
    <title>iconYourServices</title>
    <desc>Created with Sketch.</desc>
    <g id="Page-1" stroke="none" stroke-width="1" fill="none" fill-rule="evenodd">
        <g id="Guide" transform="translate(-436.000000, -759.000000)">
            <g id="iconYourServices" transform="translate(436.000000, 759.000000)">
                <g>
                    <rect id="Bound" x="0" y="0" width="32" height="32"></rect>
                    <g id="Path" transform="translate(0.000000, 11.000000)">
                        <rect id="Rectangle-21" fill="#C9D3FB" x="24" y="4" width="8" height="4" rx="2"></rect>
                        <rect id="Rectangle-21-Copy" fill="#C9D3FB" x="0" y="4" width="8" height="4" rx="2"></rect>
                        <path d="M16,9 C17.6568542,9 19,7.65685425 19,6 C19,4.34314575 17.6568542,3 16,3 C14.3431458,3 13,4.34314575 13,6 C13,7.65685425 14.3431458,9 16,9 Z M16,12 C12.6862915,12 10,9.3137085 10,6 C10,2.6862915 12.6862915,0 16,0 C19.3137085,0 22,2.6862915 22,6 C22,9.3137085 19.3137085,12 16,12 Z" id="Oval-15" fill="#A9B6F2"></path>
                    </g>
                </g>
            </g>
        </g>
    </g>
</svg>