<svg width="20" height="20" viewBox="0 0 20 20" fill="none" xmlns="http://www.w3.org/2000/svg">
<path d="M5.5 14.875C5.5 15.1734 5.61853 15.4595 5.8295 15.6705C6.04048 15.8815 6.32663 16 6.625 16H13.375C13.6734 16 13.9595 15.8815 14.1705 15.6705C14.3815 15.4595 14.5 15.1734 14.5 14.875V7H5.5V14.875ZM11.875 8.875C11.875 8.77555 11.9145 8.68016 11.9848 8.60984C12.0552 8.53951 12.1505 8.5 12.25 8.5C12.3495 8.5 12.4448 8.53951 12.5152 8.60984C12.5855 8.68016 12.625 8.77555 12.625 8.875V14.125C12.625 14.2245 12.5855 14.3198 12.5152 14.3902C12.4448 14.4605 12.3495 14.5 12.25 14.5C12.1505 14.5 12.0552 14.4605 11.9848 14.3902C11.9145 14.3198 11.875 14.2245 11.875 14.125V8.875ZM9.625 8.875C9.625 8.77555 9.66451 8.68016 9.73483 8.60984C9.80516 8.53951 9.90054 8.5 10 8.5C10.0995 8.5 10.1948 8.53951 10.2652 8.60984C10.3355 8.68016 10.375 8.77555 10.375 8.875V14.125C10.375 14.2245 10.3355 14.3198 10.2652 14.3902C10.1948 14.4605 10.0995 14.5 10 14.5C9.90054 14.5 9.80516 14.4605 9.73483 14.3902C9.66451 14.3198 9.625 14.2245 9.625 14.125V8.875ZM7.375 8.875C7.375 8.77555 7.41451 8.68016 7.48483 8.60984C7.55516 8.53951 7.65054 8.5 7.75 8.5C7.84945 8.5 7.94484 8.53951 8.01516 8.60984C8.08549 8.68016 8.125 8.77555 8.125 8.875V14.125C8.125 14.2245 8.08549 14.3198 8.01516 14.3902C7.94484 14.4605 7.84945 14.5 7.75 14.5C7.65054 14.5 7.55516 14.4605 7.48483 14.3902C7.41451 14.3198 7.375 14.2245 7.375 14.125V8.875ZM14.875 4.75H12.0625L11.8422 4.31172C11.7955 4.21802 11.7236 4.1392 11.6346 4.08413C11.5456 4.02907 11.443 3.99993 11.3383 4H8.65937C8.55493 3.9996 8.45249 4.02863 8.36378 4.08376C8.27507 4.13889 8.20369 4.2179 8.15781 4.31172L7.9375 4.75H5.125C5.02554 4.75 4.93016 4.78951 4.85983 4.85984C4.78951 4.93016 4.75 5.02555 4.75 5.125V5.875C4.75 5.97446 4.78951 6.06984 4.85983 6.14017C4.93016 6.21049 5.02554 6.25 5.125 6.25H14.875C14.9745 6.25 15.0698 6.21049 15.1402 6.14017C15.2105 6.06984 15.25 5.97446 15.25 5.875V5.125C15.25 5.02555 15.2105 4.93016 15.1402 4.85984C15.0698 4.78951 14.9745 4.75 14.875 4.75Z" fill="#BEC5E0"/>
</svg>
