<?xml version="1.0" encoding="UTF-8"?>
<svg width="24px" height="24px" viewBox="0 0 24 24" version="1.1" xmlns="http://www.w3.org/2000/svg" xmlns:xlink="http://www.w3.org/1999/xlink">
    <!-- Generator: Sketch 55.2 (78181) - https://sketchapp.com -->
    <title>iconDeregister</title>
    <desc>Created with Sketch.</desc>
    <g id="Page-1" stroke="none" stroke-width="1" fill="none" fill-rule="evenodd">
        <g id="Guide" transform="translate(-164.000000, -763.000000)">
            <g id="iconDeregister" transform="translate(164.000000, 763.000000)">
                <rect id="bound" x="0" y="0" width="24" height="24"></rect>
                <path d="M6,8 L18,8 L18,20.5 C18,21.3284271 17.3284271,22 16.5,22 L7.5,22 C6.67157288,22 6,21.3284271 6,20.5 L6,8 Z M14,4 L18.5,4 C18.7761424,4 19,4.22385763 19,4.5 L19,5.5 C19,5.77614237 18.7761424,6 18.5,6 L5.5,6 C5.22385763,6 5,5.77614237 5,5.5 L5,4.5 C5,4.22385763 5.22385763,4 5.5,4 L10,4 L10,3 C10,2.44771525 10.4477153,2 11,2 L13,2 C13.5522847,2 14,2.44771525 14,3 L14,4 Z" id="Combined-Shape" fill="#4F5B8E" fill-rule="evenodd"></path>
            </g>
        </g>
    </g>
</svg>