<?xml version="1.0" encoding="UTF-8"?>
<svg width="24px" height="24px" viewBox="0 0 24 24" version="1.1" xmlns="http://www.w3.org/2000/svg" xmlns:xlink="http://www.w3.org/1999/xlink">
    <!-- Generator: Sketch 55.2 (78181) - https://sketchapp.com -->
    <title>iconRemove</title>
    <desc>Created with Sketch.</desc>
    <g id="Page-1" stroke="none" stroke-width="1" fill="none" fill-rule="evenodd">
        <g id="Guide" transform="translate(-68.000000, -763.000000)">
            <g id="iconRemove" transform="translate(68.000000, 763.000000)">
                <rect id="bound" x="0" y="0" width="24" height="24"></rect>
                <path d="M14.0710678,11.9497475 L17.6066017,15.4852814 C17.997126,15.8758057 17.997126,16.5089706 17.6066017,16.8994949 L16.8994949,17.6066017 C16.5089706,17.997126 15.8758057,17.997126 15.4852814,17.6066017 L11.9497475,14.0710678 L8.41421356,17.6066017 C8.02368927,17.997126 7.39052429,17.997126 7,17.6066017 L6.29289322,16.8994949 C5.90236893,16.5089706 5.90236893,15.8758057 6.29289322,15.4852814 L9.82842712,11.9497475 L6.29289322,8.41421356 C5.90236893,8.02368927 5.90236893,7.39052429 6.29289322,7 L7,6.29289322 C7.39052429,5.90236893 8.02368927,5.90236893 8.41421356,6.29289322 L11.9497475,9.82842712 L15.4852814,6.29289322 C15.8758057,5.90236893 16.5089706,5.90236893 16.8994949,6.29289322 L17.6066017,7 C17.997126,7.39052429 17.997126,8.02368927 17.6066017,8.41421356 L14.0710678,11.9497475 Z" id="Combined-Shape" fill="#4F5B8E" fill-rule="evenodd"></path>
            </g>
        </g>
    </g>
</svg>