<?xml version="1.0" encoding="UTF-8"?>
<svg width="24px" height="24px" viewBox="0 0 24 24" version="1.1" xmlns="http://www.w3.org/2000/svg" xmlns:xlink="http://www.w3.org/1999/xlink">
    <!-- Generator: Sketch 55.2 (78181) - https://sketchapp.com -->
    <title>iconCopy</title>
    <desc>Created with Sketch.</desc>
    <g id="Page-1" stroke="none" stroke-width="1" fill="none" fill-rule="evenodd">
        <g id="Guide" transform="translate(-212.000000, -763.000000)" fill="#4F5B8E">
            <g id="iconCopy" transform="translate(212.000000, 763.000000)">
                <path d="M20.4351295,4.57582031 L18.3505848,2.54917969 C17.9889096,2.19754838 17.4983718,2 16.9868839,2 L10.0714286,2 C9.00629464,2 8.14285714,2.83945312 8.14285714,3.875 L8.14285714,5.75 L4.92857143,5.75 C3.8634375,5.75 3,6.58945312 3,7.625 L3,20.125 C3,21.1605469 3.8634375,22 4.92857143,22 L13.9285714,22 C14.9937054,22 15.8571429,21.1605469 15.8571429,20.125 L15.8571429,18.25 L19.0714286,18.25 C20.1365625,18.25 21,17.4105469 21,16.375 L21,5.90164063 C21,5.4043607 20.7968074,4.92744902 20.4351295,4.57582031 Z M13.7589286,20 L5.24107143,20 C5.10793135,20 5,19.8908694 5,19.75625 L5,7.24375 C5,7.10913059 5.10793135,7 5.24107143,7 L8.21428571,7 L8.21428571,16.1 C8.21428571,17.1769688 9.07772321,18.05 10.1428571,18.05 L14,18.05 L14,19.75625 C14,19.8908694 13.8920686,20 13.7589286,20 Z M18.7589286,17 L10.2410714,17 C10.1079314,17 10,16.8908694 10,16.75625 L10,4.24375 C10,4.10913059 10.1079314,4 10.2410714,4 L14.5,4 L14.5,7.575 C14.5,8.11348437 14.9317187,8.55 15.4642857,8.55 L19,8.55 L19,16.75625 C19,16.8908694 18.8920686,17 18.7589286,17 L18.7589286,17 Z M19,7 L16,7 L16,4 L16.4515,4 C16.5260781,4 16.5976094,4.029625 16.6503906,4.08235937 L18.9176406,6.34960938 C18.9703832,6.40236087 19,6.47390444 19,6.5485 L19,7 L19,7 Z" id="Mask"></path>
            </g>
        </g>
    </g>
</svg>