<?xml version="1.0" encoding="UTF-8"?>
<svg width="24px" height="24px" viewBox="0 0 24 24" version="1.1" xmlns="http://www.w3.org/2000/svg" xmlns:xlink="http://www.w3.org/1999/xlink">
    <!-- Generator: Sketch 55.2 (78181) - https://sketchapp.com -->
    <title>iconView</title>
    <desc>Created with Sketch.</desc>
    <g id="Page-1" stroke="none" stroke-width="1" fill="none" fill-rule="evenodd">
        <g id="Guide" transform="translate(-116.000000, -763.000000)">
            <g id="iconView" transform="translate(116.000000, 763.000000)">
                <rect id="bound" x="0" y="0" width="24" height="24"></rect>
                <path d="M3,12 C3,12 5.45454545,6 12,6 C16.9090909,6 21,12 21,12 C21,12 16.9090909,18 12,18 C5.45454545,18 3,12 3,12 Z M12,15 C13.6568542,15 15,13.6568542 15,12 C15,10.3431458 13.6568542,9 12,9 C10.3431458,9 9,10.3431458 9,12 C9,13.6568542 10.3431458,15 12,15 Z" id="Combined-Shape" fill="#4F5B8E" fill-rule="evenodd"></path>
            </g>
        </g>
    </g>
</svg>