<svg width="20" height="20" viewBox="0 0 20 20" fill="none" xmlns="http://www.w3.org/2000/svg">
<path fill-rule="evenodd" clip-rule="evenodd" d="M15.0627 7.71467C15.5872 7.71467 16 8.18555 16 8.78583C16 9.25674 15.7377 9.64246 15.3995 9.77103C15.5493 9.9856 15.6245 10.2427 15.6245 10.4999C15.6245 10.929 15.3995 11.3147 15.0247 11.4859C15.1745 11.7005 15.2497 11.9576 15.2497 12.2148C15.2497 12.8142 14.8377 13.2859 14.3124 13.2859C14.425 13.4571 14.5002 13.6717 14.5002 13.9288C14.5002 14.5283 14.0882 15 13.5629 15H10.7503C9.80465 15 9.336 14.6767 8.81826 14.3195C8.51449 14.1099 8.19382 13.8887 7.75 13.7143V8.14297C7.75 8.14297 10.3748 7.19955 10.3748 4.07118C10.3748 3.47091 10.7876 3 11.3128 3C11.8374 3 12.2501 3.47089 12.2501 4.07038C12.2501 4.07038 12.2501 6.17097 11.9878 6.72785C11.5751 7.45672 12.1003 7.71386 12.2501 7.71386L15.0627 7.71467ZM4 7.28554H5.87457H5.87459C6.51235 7.28554 6.99962 7.84242 6.99962 8.57128L7.00033 13.2859C7.00033 13.9714 6.51305 14.5717 5.87529 14.5717H4V7.28554Z" fill="#BEC5E0"/>
</svg>
