<svg xmlns="http://www.w3.org/2000/svg" width="24" height="24" viewBox="0 0 24 24">
  <path fill="#7E1BCC" fill-rule="evenodd" d="M9.01215343,0 C4.03768506,0 0,4.14271233 0,9.24657534 L0,13.9315068 C0.0244073147,16.175737 1.82684761,18 4.013172,18 L4.54169274,18 C4.997924,18 5.38282706,17.6050849 5.38282706,17.1369863 L5.38282706,10.6027397 C5.38282706,10.1346411 4.997924,9.73972603 4.54169274,9.73972603 L4.013172,9.73972603 C3.14762075,9.73972603 2.33090336,10.0354192 1.65780365,10.5285699 L1.65780365,9.24657534 C1.65780365,5.10386301 4.95000337,1.7260274 8.98768843,1.7260274 C13.0253735,1.7260274 16.3420863,5.10386301 16.3420863,9.24657534 L16.3420863,10.5285699 C15.6689866,10.0354192 14.8757248,9.73972603 13.9867179,9.73972603 L13.4581972,9.73972603 C13.0019659,9.73972603 12.6170629,10.1346411 12.6170629,10.6027397 L12.6170629,17.1369863 C12.6170629,17.6050849 13.0019659,18 13.4581972,18 L13.9867179,18 C16.1975073,18 17.9765785,16.175737 17.9998899,13.9315068 L17.9998899,9.24657534 C18.0242972,4.14271233 13.9867179,0 9.01224955,0 L9.01215343,0 Z" transform="translate(3 3)"/>
</svg>
