<svg xmlns="http://www.w3.org/2000/svg" width="4940" height="132" viewBox="0 0 4940 132">
  <path fill="#C88DF7" fill-rule="evenodd" d="M1577.99975,4272.09996 C1540.49491,4272.09992 1521.11737,4268.87363 1505.54411,4266.28302 C1494.77318,4264.48752 1485.47038,4262.93913 1472.99731,4262.93913 C1454.09568,4262.93913 1439.52043,4267.92109 1424.0871,4273.19599 C1405.15747,4279.66656 1383.70562,4287 1349.69469,4287 C1317.07588,4287 1295.46802,4269.35988 1274.57022,4252.30165 C1255.63859,4236.84562 1237.75505,4222.24649 1213.20294,4222.24649 C1188.79283,4222.24649 1173.3495,4237.13258 1157.0001,4252.89151 C1139.6006,4269.66079 1121.61105,4287 1091.54846,4287 C1063.37003,4287 1046.32457,4256.34302 1028.27901,4223.88455 C1010.12945,4191.24276 991.363833,4157.49098 960.499175,4157.49098 C929.636517,4157.49098 910.868901,4191.24276 892.721338,4223.88455 C874.675784,4256.34302 857.630317,4287 829.44989,4287 C799.389301,4287 781.397752,4269.66079 764.000254,4252.89151 C747.650846,4237.13258 732.205516,4222.24649 707.795414,4222.24649 C683.2453,4222.24649 665.36176,4236.84562 646.428129,4252.30165 C625.53033,4269.35988 603.922469,4287 571.30366,4287 C537.292731,4287 515.840884,4279.66656 496.913254,4273.19599 C481.479925,4267.92109 466.90267,4262.93913 448.001042,4262.93913 C435.529968,4262.93913 426.227167,4264.48752 415.454239,4266.28302 C399.882898,4268.87364 380.50323,4272.09996 343,4272.09996 L343,4269.60898 C380.297212,4269.60898 399.562871,4266.40259 415.042204,4263.82393 C425.923141,4262.01249 435.32195,4260.44815 448.001042,4260.44815 C467.320706,4260.44815 482.087977,4265.49587 497.723324,4270.84052 C516.466938,4277.24732 537.710767,4284.50902 571.30366,4284.50902 C603.030392,4284.50902 624.286223,4267.15586 644.841993,4250.37463 C664.131654,4234.62964 682.351223,4219.75551 707.795414,4219.75551 C733.217603,4219.75551 749.014963,4234.98037 765.738403,4251.1 C782.779871,4267.52652 800.399388,4284.50902 829.44989,4284.50902 C856.15619,4284.50902 872.855628,4254.47578 890.53315,4222.67892 C909.032743,4189.40541 928.16239,4155 960.499175,4155 C992.83596,4155 1011.96561,4189.40541 1030.4652,4222.67892 C1048.14472,4254.47578 1064.84216,4284.50902 1091.54846,4284.50902 C1120.59896,4284.50902 1138.22048,4267.52652 1155.26195,4251.1 C1171.98539,4234.98037 1187.78075,4219.75551 1213.20294,4219.75551 C1238.64713,4219.75551 1256.8667,4234.62964 1276.15636,4250.37463 C1296.71213,4267.15586 1317.96996,4284.50902 1349.69469,4284.50902 C1383.28758,4284.50902 1404.53341,4277.24732 1423.27503,4270.84052 C1438.91037,4265.49587 1453.67964,4260.44815 1472.99731,4260.44815 C1485.6764,4260.44815 1495.07521,4262.01249 1505.95815,4263.82393 C1521.4374,4266.40257 1540.70293,4269.60894 1577.99975,4269.60898 C1615.05094,4269.60898 1634.20659,4258.04286 1649.59992,4248.74852 C1660.58686,4242.11454 1670.07568,4236.38529 1683.00079,4236.38529 C1702.49847,4236.38529 1717.32775,4246.52258 1733.0251,4257.25372 C1751.71071,4270.02945 1772.89053,4284.50902 1806.30341,4284.50902 C1838.24416,4284.50902 1859.566,4276.35056 1880.18777,4268.46313 C1899.40943,4261.10975 1917.56499,4254.16291 1942.79516,4254.16291 C1967.98133,4254.16291 1983.72269,4261.27316 2000.38612,4268.79991 C2017.4836,4276.52194 2035.16312,4284.50902 2064.44964,4284.50902 C2091.35996,4284.50902 2108.05339,4267.22162 2125.72692,4248.9199 C2144.23251,4229.75131 2163.36816,4209.93507 2195.49892,4209.93507 C2227.63169,4209.93507 2246.76734,4229.75131 2265.27293,4248.9199 C2282.94446,4267.22162 2299.63789,4284.50902 2326.54821,4284.50902 C2355.83473,4284.50902 2373.51425,4276.52194 2390.61373,4268.79991 C2407.27716,4261.27316 2423.01652,4254.16291 2448.20269,4254.16291 C2473.43286,4254.16291 2491.58842,4261.10975 2510.81208,4268.46313 C2531.43185,4276.35056 2552.75369,4284.50902 2584.69444,4284.50902 C2618.28733,4284.50902 2639.53316,4277.24732 2658.27478,4270.84052 C2673.91012,4265.49587 2688.67939,4260.44815 2707.99706,4260.44815 C2720.67615,4260.44815 2730.07496,4262.01249 2740.9579,4263.82393 C2756.43723,4266.40259 2775.70289,4269.60898 2813.0001,4269.60898 L2813.0001,4272.09996 C2775.49487,4272.09996 2756.1172,4268.87364 2740.54386,4266.28302 C2729.77293,4264.48752 2720.47013,4262.93913 2707.99706,4262.93913 C2689.09543,4262.93913 2674.52018,4267.92109 2659.08685,4273.19599 C2640.15722,4279.66656 2618.70537,4287 2584.69444,4287 C2552.29165,4287 2530.74779,4278.75785 2509.916,4270.7887 C2490.91636,4263.52102 2472.96882,4256.65389 2448.20269,4256.65389 C2423.55656,4256.65389 2408.05523,4263.65653 2391.64582,4271.06969 C2374.30432,4278.90133 2356.37478,4287 2326.54821,4287 C2298.5738,4287 2280.72826,4268.51892 2263.47078,4250.64565 C2245.32922,4231.85569 2226.5676,4212.42605 2195.49892,4212.42605 C2164.43225,4212.42605 2145.67063,4231.85569 2127.52907,4250.64565 C2110.27159,4268.51892 2092.42605,4287 2064.44964,4287 C2034.62307,4287 2016.69153,4278.90133 1999.35203,4271.06969 C1982.94262,4263.65653 1967.44129,4256.65389 1942.79516,4256.65389 C1918.02903,4256.65389 1900.08349,4263.52102 1881.08385,4270.7887 C1860.25006,4278.75785 1838.7082,4287 1806.30341,4287 C1772.11447,4287 1750.59661,4272.28728 1731.61098,4259.30828 C1716.24165,4248.80033 1701.7224,4238.87627 1683.00079,4238.87627 C1670.77374,4238.87627 1661.56295,4244.43813 1650.89603,4250.8788 C1635.23668,4260.33257 1615.749,4272.09996 1577.99975,4272.09996 Z M5054.69434,4287 C5022.28955,4287 5000.74769,4278.75785 4979.9139,4270.7887 C4960.91426,4263.52102 4942.96872,4256.65389 4918.20259,4256.65389 C4893.55646,4256.65389 4878.05513,4263.65653 4861.64372,4271.06969 C4844.30422,4278.90133 4826.37468,4287 4796.54811,4287 C4768.5717,4287 4750.72616,4268.51892 4733.46868,4250.64565 C4715.32712,4231.85569 4696.5675,4212.42605 4665.49882,4212.42605 C4634.43015,4212.42605 4615.67053,4231.85569 4597.52897,4250.64565 C4580.27149,4268.51892 4562.42595,4287 4534.44954,4287 C4504.62297,4287 4486.69143,4278.90133 4469.35193,4271.06969 C4452.94252,4263.65653 4437.44119,4256.65389 4412.79506,4256.65389 C4388.02893,4256.65389 4370.08339,4263.52102 4351.08375,4270.7887 C4330.24996,4278.75785 4308.7081,4287 4276.30331,4287 C4242.11437,4287 4220.59451,4272.28728 4201.61088,4259.30828 C4186.24155,4248.80033 4171.7223,4238.87627 4153.00069,4238.87627 C4140.77364,4238.87627 4131.56085,4244.43813 4120.89393,4250.8788 C4105.23658,4260.33456 4085.7489,4272.09996 4047.99965,4272.09996 L4047.99965,4269.60898 C4085.05084,4269.60898 4104.20649,4258.04286 4119.59782,4248.74852 C4130.58676,4242.11454 4140.07558,4236.38529 4153.00069,4236.38529 C4172.49837,4236.38529 4187.32565,4246.52258 4203.025,4257.25372 C4221.71061,4270.02945 4242.88843,4284.50902 4276.30331,4284.50902 C4308.24406,4284.50902 4329.5659,4276.35056 4350.18767,4268.46313 C4369.40933,4261.10975 4387.56489,4254.16291 4412.79506,4254.16291 C4437.98123,4254.16291 4453.72259,4261.27316 4470.38602,4268.79991 C4487.4835,4276.52194 4505.16302,4284.50902 4534.44954,4284.50902 C4561.35986,4284.50902 4578.05329,4267.22162 4595.72682,4248.9199 C4614.23241,4229.75131 4633.36606,4209.93507 4665.49882,4209.93507 C4697.62959,4209.93507 4716.76524,4229.75131 4735.27083,4248.9199 C4752.94436,4267.22162 4769.63579,4284.50902 4796.54811,4284.50902 C4825.83463,4284.50902 4843.51415,4276.52194 4860.61163,4268.79991 C4877.27506,4261.27316 4893.01642,4254.16291 4918.20259,4254.16291 C4943.43276,4254.16291 4961.58832,4261.10975 4980.81198,4268.46313 C5001.43175,4276.35056 5022.75359,4284.50902 5054.69434,4284.50902 C5088.28723,4284.50902 5109.53306,4277.24732 5128.27468,4270.84052 C5143.91002,4265.49587 5158.67929,4260.44815 5177.99696,4260.44815 C5190.67605,4260.44815 5200.07486,4262.01249 5210.9578,4263.82393 C5226.43713,4266.40259 5245.70279,4269.60898 5283,4269.60898 L5283,4272.09996 C5245.49477,4272.09996 5226.1171,4268.87364 5210.54376,4266.28302 C5199.77283,4264.48752 5190.46803,4262.93913 5177.99696,4262.93913 C5159.09533,4262.93913 5144.52008,4267.92109 5129.08675,4273.19599 C5110.15712,4279.66656 5088.70527,4287 5054.69434,4287 Z M3819.69439,4287 C3787.07558,4287 3765.46772,4269.35988 3744.56992,4252.30165 C3725.63829,4236.84562 3707.75475,4222.24649 3683.20264,4222.24649 C3658.79253,4222.24649 3643.3492,4237.13258 3626.9978,4252.89151 C3609.6003,4269.66079 3591.61075,4287 3561.54816,4287 C3533.36773,4287 3516.32227,4256.34302 3498.27671,4223.88455 C3480.12715,4191.24276 3461.36153,4157.49098 3430.49887,4157.49098 C3399.63622,4157.49098 3380.8686,4191.24276 3362.72104,4223.88455 C3344.67548,4256.34302 3327.63002,4287 3299.44959,4287 C3269.387,4287 3251.39745,4269.66079 3233.99995,4252.89151 C3217.64855,4237.13258 3202.20522,4222.24649 3177.79511,4222.24649 C3153.245,4222.24649 3135.36146,4236.84562 3116.42783,4252.30165 C3095.53003,4269.35988 3073.92217,4287 3041.30336,4287 C3007.29243,4287 2985.83858,4279.66656 2966.91295,4273.19599 C2951.47962,4267.92109 2936.90237,4262.93913 2918.00074,4262.93913 C2905.52967,4262.93913 2896.22487,4264.48752 2885.45394,4266.28302 C2869.8826,4268.87364 2850.50293,4272.09996 2812.9997,4272.09996 L2812.9997,4269.60898 C2850.29491,4269.60898 2869.56057,4266.40259 2885.0419,4263.82393 C2895.92284,4262.01249 2905.32165,4260.44815 2918.00074,4260.44815 C2937.31841,4260.44815 2952.08768,4265.49587 2967.72302,4270.84052 C2986.46664,4277.24732 3007.71047,4284.50902 3041.30336,4284.50902 C3073.03009,4284.50902 3094.28592,4267.15586 3114.84169,4250.37463 C3134.13135,4234.62964 3152.35092,4219.75551 3177.79511,4219.75551 C3203.2173,4219.75551 3219.01466,4234.98037 3235.7381,4251.1 C3252.77757,4267.52652 3270.39909,4284.50902 3299.44959,4284.50902 C3326.15589,4284.50902 3342.85533,4254.47578 3360.53285,4222.67892 C3379.03244,4189.40541 3398.16209,4155 3430.49887,4155 C3462.83566,4155 3481.96331,4189.40541 3500.4629,4222.67892 C3518.14242,4254.47578 3534.83986,4284.50902 3561.54816,4284.50902 C3590.59866,4284.50902 3608.21818,4267.52652 3625.25965,4251.1 C3641.98309,4234.98037 3657.78045,4219.75551 3683.20264,4219.75551 C3708.64683,4219.75551 3726.8664,4234.62964 3746.15606,4250.37463 C3766.71183,4267.15586 3787.96966,4284.50902 3819.69439,4284.50902 C3853.28728,4284.50902 3874.53311,4277.24732 3893.27473,4270.84052 C3908.91007,4265.49587 3923.67934,4260.44815 3942.99701,4260.44815 C3955.6761,4260.44815 3965.07491,4262.01249 3975.95785,4263.82393 C3991.43718,4266.40259 4010.70284,4269.60898 4048.00005,4269.60898 L4048.00005,4272.09996 C4010.49482,4272.09996 3991.11515,4268.87364 3975.54381,4266.28302 C3964.77288,4264.48752 3955.47008,4262.93913 3942.99701,4262.93913 C3924.09538,4262.93913 3909.52013,4267.92109 3894.0868,4273.19599 C3875.15717,4279.66656 3853.70532,4287 3819.69439,4287 Z" transform="translate(-343 -4155)"/>
</svg>
