<?xml version="1.0" encoding="UTF-8"?>
<svg width="24px" height="24px" viewBox="0 0 24 24" version="1.1" xmlns="http://www.w3.org/2000/svg" xmlns:xlink="http://www.w3.org/1999/xlink">
    <g id="Assets" stroke="none" stroke-width="1" fill="none" fill-rule="evenodd">
        <g id="assets" transform="translate(-1032.000000, -847.000000)">
            <g id="icon/Filetype" transform="translate(1032.000000, 847.000000)">
                <path d="M20.9473684,24 L3.05263158,24 C2.47105263,24 2,23.5330435 2,22.9565217 L2,1.04347826 C2,0.466956522 2.47105263,0 3.05263158,0 L15.6842105,0 L22,6.26086957 L22,22.9565217 C22,23.5330435 21.5289474,24 20.9473684,24 Z" id="Document" fill="#F2F2F4"></path>
                <path d="M2,9.082 L2,11 L22,11 L22,9.083 L24,11 L22.4347826,13 L1.56521739,13 L0,11 L2,9.082 Z" id="Combined-Shape" fill="#B989E2" fill-rule="nonzero"></path>
                <path d="M22.9565217,21 L1.04347826,21 C0.466956522,21 0,20.5027778 0,19.8888889 L0,11 L24,11 L24,19.8888889 C24,20.5027778 23.5330435,21 22.9565217,21 Z" id="Path" fill="#7E1BCC"></path>
                <path d="M16,0 L16,5 C16,5.5525 16.4475,6 17,6 L22,6 L16,0 Z" id="Corner" fill="#DAD9E0"></path>
                <path d="M2,11 L0,11 L2,9.08333333 L2,11 Z M22,11 L22,9.08333333 L24,11 L22,11 Z" id="Shape" fill="#F7F7F9" fill-rule="nonzero" opacity="0.5"></path>
                <path d="M7.66015625,17.9023438 L5.67578125,17.9023438 L5.3203125,19 L3.96875,19 L6.07421875,13.3125 L7.2578125,13.3125 L9.37109375,19 L8.01953125,19 L7.66015625,17.9023438 Z M7.328125,16.8789062 L6.66796875,14.8515625 L6.01171875,16.8789062 L7.328125,16.8789062 Z M13.078125,17.9023438 L11.09375,17.9023438 L10.7382812,19 L9.38671875,19 L11.4921875,13.3125 L12.6757812,13.3125 L14.7890625,19 L13.4375,19 L13.078125,17.9023438 Z M12.7460938,16.8789062 L12.0859375,14.8515625 L11.4296875,16.8789062 L12.7460938,16.8789062 Z M19.8007812,17.0820312 C19.7773436,17.4778666 19.6705739,17.8261704 19.4804688,18.1269531 C19.2903636,18.4277359 19.0240903,18.6614575 18.6816406,18.828125 C18.339191,18.9947925 17.9388044,19.078125 17.4804688,19.078125 C16.990883,19.078125 16.5677101,18.966798 16.2109375,18.7441406 C15.8541649,18.5214833 15.5807301,18.2031271 15.390625,17.7890625 C15.2005199,17.3749979 15.1054688,16.8854195 15.1054688,16.3203125 L15.1054688,15.9921875 C15.1054688,15.4322889 15.203124,14.9440125 15.3984375,14.5273438 C15.593751,14.110675 15.8704409,13.7903657 16.2285156,13.5664062 C16.5865903,13.3424468 17.0039039,13.2304688 17.4804688,13.2304688 C17.9518253,13.2304688 18.3554671,13.3170564 18.6914062,13.4902344 C19.0273454,13.6634123 19.2884105,13.9029933 19.4746094,14.2089844 C19.6608082,14.5149755 19.7721352,14.8671855 19.8085938,15.265625 L18.5429688,15.265625 C18.5221353,14.9270816 18.4309904,14.6764331 18.2695312,14.5136719 C18.1080721,14.3509106 17.8450539,14.2695312 17.4804688,14.2695312 C17.1080711,14.2695312 16.8333342,14.4062486 16.65625,14.6796875 C16.4791658,14.9531264 16.390625,15.3880179 16.390625,15.984375 L16.390625,16.3203125 C16.390625,16.7265645 16.4264319,17.0546862 16.4980469,17.3046875 C16.5696618,17.5546888 16.684895,17.7395827 16.84375,17.859375 C17.002605,17.9791673 17.2148424,18.0390625 17.4804688,18.0390625 C17.8216163,18.0390625 18.0774731,17.9609383 18.2480469,17.8046875 C18.4186206,17.6484367 18.5143228,17.4075537 18.5351562,17.0820312 L19.8007812,17.0820312 Z" id="AAC" fill="#FFFFFF" fill-rule="nonzero"></path>
            </g>
        </g>
    </g>
</svg>