<?xml version="1.0" encoding="UTF-8"?>
<svg width="18px" height="18px" viewBox="0 0 18 18" version="1.1" xmlns="http://www.w3.org/2000/svg" xmlns:xlink="http://www.w3.org/1999/xlink">
    <g id="🗿" stroke="none" stroke-width="1" fill="none" fill-rule="evenodd">
        <g id="Icon-Guide" transform="translate(-69.000000, -778.000000)">
            <g id="Stacked-Group-2" transform="translate(66.000000, 199.000000)">
                <g id="icon/listens" transform="translate(0.000000, 576.000000)">
                    <rect id="Bound" x="0" y="0" width="24" height="24"></rect>
                    <path d="M12.0121534,3 C7.03768506,3 3,7.14271233 3,12.2465753 L3,16.9315068 C3.02440731,19.175737 4.82684761,21 7.013172,21 L7.54169274,21 C7.997924,21 8.38282706,20.6050849 8.38282706,20.1369863 L8.38282706,13.6027397 C8.38282706,13.1346411 7.997924,12.739726 7.54169274,12.739726 L7.013172,12.739726 C6.14762075,12.739726 5.33090336,13.0354192 4.65780365,13.5285699 L4.65780365,12.2465753 C4.65780365,8.10386301 7.95000337,4.7260274 11.9876884,4.7260274 C16.0253735,4.7260274 19.3420863,8.10386301 19.3420863,12.2465753 L19.3420863,13.5285699 C18.6689866,13.0354192 17.8757248,12.739726 16.9867179,12.739726 L16.4581972,12.739726 C16.0019659,12.739726 15.6170629,13.1346411 15.6170629,13.6027397 L15.6170629,20.1369863 C15.6170629,20.6050849 16.0019659,21 16.4581972,21 L16.9867179,21 C19.1975073,21 20.9765785,19.175737 20.9998899,16.9315068 L20.9998899,12.2465753 C21.0242972,7.14271233 16.9867179,3 12.0122496,3 L12.0121534,3 Z" id="Listens" fill="#858199" fill-rule="evenodd"></path>
                </g>
            </g>
        </g>
    </g>
</svg>