<svg width="40" height="40" viewBox="0 0 40 40" fill="none" xmlns="http://www.w3.org/2000/svg">
<g id="M4B">
<path id="Document" fill-rule="evenodd" clip-rule="evenodd" d="M32.4271 36.6666H7.57326C6.76551 36.6666 6.11127 36.018 6.11127 35.2173V4.78253C6.11127 3.9818 6.76551 3.33325 7.57326 3.33325H25.1171L33.889 12.0289V35.2173C33.889 36.018 33.2348 36.6666 32.4271 36.6666Z" fill="#F7F7F9"/>
<path id="Intersect" d="M33.8728 12.0127H26.5792C25.7714 12.0127 25.1172 11.3641 25.1172 10.5634V3.33325L33.8728 12.0127Z" fill="#EAEAEA"/>
<path id="Mask" fill-rule="evenodd" clip-rule="evenodd" d="M3.33331 18.3333L6.11109 15.8333V18.3333H33.8889V15.8333L36.6666 18.3333V30.9258C36.6666 31.7955 36.0181 32.4999 35.2174 32.4999H4.78259C3.98186 32.4999 3.33331 31.7955 3.33331 30.9258V18.3333ZM9.20573 24.332V29.8333H7.29167V20.9465H9.51823L11.7969 25.9661H11.862L14.1471 20.9465H16.3477V29.8333H14.4141V24.332H14.3229L12.4479 28.4921H11.1849L9.30339 24.332H9.20573ZM17.5977 26.6106C18.5872 24.6965 19.7201 22.7955 20.8398 20.9465H23.8867V26.6301H24.9284V28.3163H23.8867V29.8333H21.8815V28.3163H17.5977V26.6106ZM19.4727 26.6041V26.6301H21.8815V22.4895H21.7969C20.9831 23.8046 20.1823 25.1783 19.4727 26.6041ZM30.1042 29.8333H26.1003V20.9465H30.0391C31.6732 20.9465 32.7734 21.7603 32.7734 23.1275C32.7734 24.2603 32.0443 24.8984 31.1849 25.0676V25.1653C32.1745 25.2369 33.1966 25.914 33.1966 27.3137C33.1966 28.9283 31.8359 29.8333 30.1042 29.8333ZM29.4922 22.47H28.2292V24.5598H29.2643C30.2474 24.5598 30.6706 24.1301 30.6706 23.4986C30.6706 22.8736 30.2409 22.47 29.4922 22.47ZM29.5964 25.94H28.2292V28.3098H29.3815C30.5339 28.3098 31.0091 27.8606 31.0091 27.1379C31.0091 26.4153 30.5339 25.94 29.5964 25.94Z" fill="#E15182"/>
<path id="Shape" opacity="0.5" d="M6.11109 18.3333H3.33331L6.11109 15.8333V18.3333ZM33.8889 18.3333V15.8333L36.6666 18.3333H33.8889Z" fill="#F7F7F9"/>
</g>
</svg>
