<svg width="40" height="40" viewBox="0 0 40 40" fill="none" xmlns="http://www.w3.org/2000/svg">
<g id="AIFC">
<path id="Document" fill-rule="evenodd" clip-rule="evenodd" d="M32.4271 36.6666H7.57326C6.76551 36.6666 6.11127 36.018 6.11127 35.2173V4.78253C6.11127 3.9818 6.76551 3.33325 7.57326 3.33325H25.1171L33.889 12.0289V35.2173C33.889 36.018 33.2348 36.6666 32.4271 36.6666Z" fill="#F7F7F9"/>
<path id="Intersect" d="M33.8728 12.0127H26.5792C25.7714 12.0127 25.1172 11.3641 25.1172 10.5634V3.33325L33.8728 12.0127Z" fill="#EAEAEA"/>
<path id="Mask" fill-rule="evenodd" clip-rule="evenodd" d="M3.33331 18.3333L6.11109 15.8333V18.3333H33.8889V15.8333L36.6666 18.3333V30.9258C36.6666 31.7955 36.0181 32.4999 35.2174 32.4999H4.78259C3.98186 32.4999 3.33331 31.7955 3.33331 30.9258V18.3333ZM8.82161 27.7955L8.24219 29.8333H6.09375L8.95833 20.9465H11.5885L14.4336 29.8333H12.1419L11.569 27.7955H8.82161ZM11.1849 26.2395L10.2604 22.8736H10.1628L9.21875 26.2395H11.1849ZM17.5195 20.9465V29.8333H15.3646V20.9465H17.5195ZM21.3997 26.4869V29.8333H19.2448V20.9465H25.1693V22.6718H21.3997V24.8072H24.8307V26.4869H21.3997ZM29.8828 22.5676C28.8086 22.5676 28.1966 23.401 28.1966 24.9309V25.8814C28.1966 27.3918 28.8086 28.2187 29.8828 28.2187C30.8529 28.2187 31.4323 27.5286 31.4388 26.5911H33.4961V26.8515C33.4961 28.733 31.9727 29.996 29.8633 29.996C27.3893 29.996 26.0026 28.401 26.0026 25.8684V24.9309C26.0026 22.3853 27.3893 20.7903 29.8633 20.7903C31.9792 20.7903 33.4961 22.0663 33.4961 23.9869V24.2408H31.4388C31.4323 23.2708 30.8529 22.5676 29.8828 22.5676Z" fill="#6C298D"/>
<path id="Shape" opacity="0.5" d="M6.11109 18.3333H3.33331L6.11109 15.8333V18.3333ZM33.8889 18.3333V15.8333L36.6666 18.3333H33.8889Z" fill="#F7F7F9"/>
</g>
</svg>
