<?xml version="1.0" encoding="UTF-8"?>
<svg width="24px" height="24px" viewBox="0 0 24 24" version="1.1" xmlns="http://www.w3.org/2000/svg" xmlns:xlink="http://www.w3.org/1999/xlink">
    <g id="Assets" stroke="none" stroke-width="1" fill="none" fill-rule="evenodd">
        <g id="assets" transform="translate(-763.000000, -1087.000000)">
            <g id="icon/image" transform="translate(763.000000, 1087.000000)">
                <rect id="Bound" x="0" y="0" width="24" height="24"></rect>
                <path d="M18,17.0074534 L18,17.507764 C18,18.336716 17.3284375,19.0086957 16.5,19.0086957 L4.5,19.0086957 C3.6715625,19.0086957 3,18.336716 3,17.507764 L3,9.50279503 C3,8.67384297 3.6715625,8.00186335 4.5,8.00186335 L5,8.00186335 L5,14.5059006 C5,15.8852568 6.1215,17.0074534 7.5,17.0074534 L18,17.0074534 Z M21,14.5059006 L21,6.50093168 C21,5.67197962 20.3284375,5 19.5,5 L7.5,5 C6.6715625,5 6,5.67197962 6,6.50093168 L6,14.5059006 C6,15.3348527 6.6715625,16.0068323 7.5,16.0068323 L19.5,16.0068323 C20.3284375,16.0068323 21,15.3348527 21,14.5059006 Z M11,8.00186335 C11,8.83081541 10.3284375,9.50279503 9.5,9.50279503 C8.6715625,9.50279503 8,8.83081541 8,8.00186335 C8,7.1729113 8.6715625,6.50093168 9.5,6.50093168 C10.3284375,6.50093168 11,7.1729113 11,8.00186335 Z M8,12.5046584 L9.73484375,10.7687371 C9.88128125,10.6222086 10.1187187,10.6222086 10.2651875,10.7687371 L11.5,12.0043478 L15.7348437,7.76687374 C15.8812812,7.62034528 16.1187187,7.62034528 16.2651875,7.76687374 L19,10.5034161 L19,14.0055901 L8,14.0055901 L8,12.5046584 Z" id="path-1"></path>
            </g>
        </g>
    </g>
</svg>