<svg width="40" height="40" viewBox="0 0 40 40" fill="none" xmlns="http://www.w3.org/2000/svg">
<g id="SPX">
<path id="Document" fill-rule="evenodd" clip-rule="evenodd" d="M32.4271 36.6666H7.57326C6.76551 36.6666 6.11127 36.018 6.11127 35.2173V4.78253C6.11127 3.9818 6.76551 3.33325 7.57326 3.33325H25.1171L33.889 12.0289V35.2173C33.889 36.018 33.2348 36.6666 32.4271 36.6666Z" fill="#F7F7F9"/>
<path id="Intersect" d="M33.8728 12.0127H26.5792C25.7714 12.0127 25.1172 11.3641 25.1172 10.5634V3.33325L33.8728 12.0127Z" fill="#EAEAEA"/>
<path id="Mask" fill-rule="evenodd" clip-rule="evenodd" d="M3.33331 18.3333L6.11109 15.8333V18.3333H33.8889V15.8333L36.6666 18.3333V30.9258C36.6666 31.7955 36.0181 32.4999 35.2174 32.4999H4.78259C3.98186 32.4999 3.33331 31.7955 3.33331 30.9258V18.3333ZM11.9531 29.996C9.23828 29.996 8.37891 28.5181 8.35938 27.2291H10.4102C10.4492 27.8085 10.9961 28.3554 12.0312 28.3554C13.0143 28.3554 13.4831 27.9257 13.4831 27.3398C13.4831 26.7864 13.0339 26.5325 12.168 26.3502L10.9115 26.0767C9.59635 25.8163 8.54818 25.1002 8.54818 23.5507C8.54818 21.7734 10.0326 20.7773 12.0182 20.7773C14.1667 20.7773 15.4362 21.9752 15.4557 23.4921H13.4701C13.431 22.9387 12.9688 22.3984 12.0117 22.3984C11.1719 22.3984 10.6901 22.7955 10.6901 23.3814C10.6901 23.8567 11.1133 24.1497 11.8815 24.2994L13.1706 24.5598C14.4466 24.8072 15.6055 25.4387 15.6055 27.1249C15.6055 28.8632 14.2773 29.996 11.9531 29.996ZM16.9206 20.9465H20.6771C22.7214 20.9465 23.7891 22.3528 23.7891 24.0325C23.7891 25.7382 22.7018 27.0859 20.651 27.0859H19.069V29.8333H16.9206V20.9465ZM19.9284 25.4648C20.9635 25.4648 21.6081 25.0741 21.6081 24.0325C21.6081 23.108 21.0547 22.6002 20.1758 22.6002H19.0625V25.4648H19.9284ZM29.7266 20.9465H32.1419L29.3815 25.3866L32.1094 29.8333H29.681L28.0013 26.9166H27.9102L26.2305 29.8333H23.9258L26.582 25.3606L23.9323 20.9465H26.4583L28.0534 23.9413H28.1445L29.7266 20.9465Z" fill="#5425DB"/>
<path id="Shape" opacity="0.5" d="M6.11109 18.3333H3.33331L6.11109 15.8333V18.3333ZM33.8889 18.3333V15.8333L36.6666 18.3333H33.8889Z" fill="#F7F7F9"/>
</g>
</svg>
