<svg width="25" height="24" viewBox="0 0 25 24" fill="none" xmlns="http://www.w3.org/2000/svg">
<path d="M3.90527 8.875H18.3896L16.1482 11.1164C15.66 11.6047 15.66 12.3957 16.1482 12.884C16.3896 13.1289 16.71 13.25 17.0303 13.25C17.3506 13.25 17.6701 13.1279 17.9139 12.8838L22.2889 8.50879C22.7771 8.02051 22.7771 7.22949 22.2889 6.74121L17.9139 2.36621C17.4256 1.87793 16.6346 1.87793 16.1463 2.36621C15.658 2.85449 15.658 3.64551 16.1463 4.13379L18.3896 6.375H3.90527C3.21426 6.375 2.65527 6.93398 2.65527 7.625C2.65527 8.31602 3.21426 8.875 3.90527 8.875ZM21.4053 15.125H6.9248L9.16621 12.8836C9.65449 12.3953 9.65449 11.6043 9.16621 11.116C8.67793 10.6277 7.88691 10.6277 7.39863 11.116L3.02363 15.491C2.53535 15.9793 2.53535 16.7703 3.02363 17.2586L7.39863 21.6336C7.63965 21.8789 7.95996 22 8.28027 22C8.60059 22 8.92012 21.8779 9.16387 21.6338C9.65215 21.1455 9.65215 20.3545 9.16387 19.8662L6.9248 17.625H21.4053C22.0963 17.625 22.6553 17.066 22.6553 16.375C22.6553 15.684 22.0967 15.125 21.4053 15.125Z" fill="#858199"/>
</svg>
