<?xml version="1.0" encoding="UTF-8"?>
<svg width="512px" height="512px" viewBox="0 0 512 512" version="1.1" xmlns="http://www.w3.org/2000/svg" xmlns:xlink="http://www.w3.org/1999/xlink">
    <!-- Generator: Sketch 64 (93537) - https://sketch.com -->
    <g id="Explore" stroke="none" stroke-width="1" fill="none" fill-rule="evenodd">
        <g id="icon/iconTurntable" style="mix-blend-mode: overlay;" fill="#FFFFFF">
            <path d="M199.111111,124.444444 C128.418663,124.444444 71.1111111,181.751996 71.1111111,252.444444 C71.1111111,323.136892 128.418663,380.444444 199.111111,380.444444 C269.803559,380.444444 327.111111,323.136892 327.111111,252.444444 C327.111111,181.751996 269.803559,124.444444 199.111111,124.444444 Z M199.111111,273.777778 C187.329036,273.777778 177.777778,264.226519 177.777778,252.444444 C177.777778,240.66237 187.329036,231.111111 199.111111,231.111111 C210.893186,231.111111 220.444444,240.66237 220.444444,252.444444 C220.444444,264.226519 210.893186,273.777778 199.111111,273.777778 L199.111111,273.777778 Z M419.555556,138.666667 L405.333333,138.666667 C397.478617,138.666667 391.111111,145.034172 391.111111,152.888889 L391.111111,241.52 C391.113223,245.636633 390.218397,249.704298 388.488889,253.44 L369.777778,294.044444 C365.298584,294.678194 361.405021,297.445109 359.333333,301.466667 L336.497778,347.137778 C332.979557,354.158051 335.816672,362.701229 342.835556,366.222222 L368.275556,378.951111 C371.650144,380.638749 375.557039,380.916289 379.13631,379.722643 C382.71558,378.528997 385.673855,375.962001 387.36,372.586667 L410.195556,326.915556 C412.635559,321.98784 411.99395,316.091969 408.551111,311.804444 L431.155556,262.826667 C432.885592,259.081708 433.780349,255.005256 433.777783,250.88 L433.777783,152.888889 C433.777783,145.034172 427.410272,138.666667 419.555556,138.666667 L419.555556,138.666667 Z M455.111111,53.3333333 L56.8888889,53.3333333 C25.4700231,53.3333333 0,78.8033565 0,110.222222 L0,394.666667 C0,426.085532 25.4700231,451.555556 56.8888889,451.555556 L455.111111,451.555556 C486.529977,451.555556 512,426.085532 512,394.666667 L512,110.222222 C512,78.8033565 486.529977,53.3333333 455.111111,53.3333333 Z M469.333333,394.666667 C469.333333,402.521383 462.965828,408.888889 455.111111,408.888889 L56.8888889,408.888889 C49.0341724,408.888889 42.6666667,402.521383 42.6666667,394.666667 L42.6666667,110.222222 C42.6666667,102.367506 49.0341724,96 56.8888889,96 L455.111111,96 C462.965828,96 469.333333,102.367506 469.333333,110.222222 L469.333333,394.666667 Z" id="Shape"></path>
        </g>
    </g>
</svg>