<svg width="40" height="40" viewBox="0 0 40 40" fill="none" xmlns="http://www.w3.org/2000/svg">
<g id="OGG">
<path id="Document" fill-rule="evenodd" clip-rule="evenodd" d="M32.427 36.6666H7.57319C6.76545 36.6666 6.11121 36.018 6.11121 35.2173V4.78253C6.11121 3.9818 6.76545 3.33325 7.57319 3.33325H25.1171L33.889 12.0289V35.2173C33.889 36.018 33.2347 36.6666 32.427 36.6666Z" fill="#F7F7F9"/>
<path id="Intersect" d="M33.8728 12.0127H26.5792C25.7714 12.0127 25.1172 11.3641 25.1172 10.5634V3.33325L33.8728 12.0127Z" fill="#EAEAEA"/>
<path id="Mask" fill-rule="evenodd" clip-rule="evenodd" d="M3.33337 18.3333L6.11115 15.8333V18.3333H33.8889V15.8333L36.6667 18.3333V30.9258C36.6667 31.7955 36.0182 32.4999 35.2174 32.4999H4.78265C3.98192 32.4999 3.33337 31.7955 3.33337 30.9258V18.3333ZM15.3451 24.8984V25.9335C15.3451 28.4335 13.8933 29.996 11.3738 29.996C8.86074 29.996 7.40892 28.4335 7.40892 25.9335V24.8984C7.40892 22.3723 8.87376 20.7903 11.3868 20.7903C13.8998 20.7903 15.3451 22.3853 15.3451 24.8984ZM13.1446 25.94V24.8723C13.1446 23.3359 12.4284 22.5351 11.3803 22.5351C10.3256 22.5351 9.60944 23.3359 9.60944 24.8723V25.94C9.60944 27.483 10.3256 28.2447 11.3803 28.2447C12.4284 28.2447 13.1446 27.483 13.1446 25.94ZM20.293 20.7903C22.6758 20.7903 23.9193 22.2681 23.9584 23.8827H21.8751C21.7839 23.1275 21.2305 22.5481 20.28 22.5481C19.1472 22.5481 18.5287 23.3684 18.5287 24.8137V25.8879C18.5287 27.2226 18.9975 28.2317 20.3386 28.2317C21.3542 28.2317 21.9402 27.5872 21.9402 26.8385V26.4609H20.3972V24.9504H23.9649V26.6757C23.9649 28.4075 22.7865 29.996 20.2865 29.996C17.5391 29.996 16.3542 28.2187 16.3542 25.8945V24.7942C16.3542 22.4309 17.7475 20.7903 20.293 20.7903ZM28.9128 20.7903C31.2956 20.7903 32.5391 22.2681 32.5782 23.8827H30.4949C30.4037 23.1275 29.8503 22.5481 28.8998 22.5481C27.767 22.5481 27.1485 23.3684 27.1485 24.8137V25.8879C27.1485 27.2226 27.6172 28.2317 28.9584 28.2317C29.974 28.2317 30.56 27.5872 30.56 26.8385V26.4609H29.017V24.9504H32.5847V26.6757C32.5847 28.4075 31.4063 29.996 28.9063 29.996C26.1589 29.996 24.974 28.2187 24.974 25.8945V24.7942C24.974 22.4309 26.3672 20.7903 28.9128 20.7903Z" fill="#A15AD9"/>
<path id="Shape" opacity="0.5" d="M6.11115 18.3333H3.33337L6.11115 15.8333V18.3333ZM33.8889 18.3333V15.8333L36.6667 18.3333H33.8889Z" fill="#F7F7F9"/>
</g>
</svg>
