<svg width="40" height="40" viewBox="0 0 40 40" fill="none" xmlns="http://www.w3.org/2000/svg">
<g id="FLAC">
<path id="Document" fill-rule="evenodd" clip-rule="evenodd" d="M32.427 36.6666H7.57319C6.76545 36.6666 6.11121 36.018 6.11121 35.2173V4.78253C6.11121 3.9818 6.76545 3.33325 7.57319 3.33325H25.1171L33.889 12.0289V35.2173C33.889 36.018 33.2347 36.6666 32.427 36.6666Z" fill="#F7F7F9"/>
<path id="Intersect" d="M33.8728 12.0127H26.5792C25.7714 12.0127 25.1172 11.3641 25.1172 10.5634V3.33325L33.8728 12.0127Z" fill="#EAEAEA"/>
<path id="Mask" fill-rule="evenodd" clip-rule="evenodd" d="M3.33337 18.3333L6.11115 15.8333V18.3333H33.8889V15.8333L36.6667 18.3333V30.9258C36.6667 31.7955 36.0182 32.4999 35.2174 32.4999H4.78265C3.98192 32.4999 3.33337 31.7955 3.33337 30.9258V18.3333ZM7.51959 26.4869V29.8333H5.36464V20.9465H11.2891V22.6718H7.51959V24.8072H10.9506V26.4869H7.51959ZM14.642 28.0364H18.2032V29.8333H12.487V20.9465H14.642V28.0364ZM21.543 27.7955L20.9636 29.8333H18.8152L21.6797 20.9465H24.31L27.155 29.8333H24.8633L24.2904 27.7955H21.543ZM23.9063 26.2395L22.9818 22.8736H22.8842L21.9402 26.2395H23.9063ZM31.4193 22.5676C30.3451 22.5676 29.7331 23.401 29.7331 24.9309V25.8814C29.7331 27.3918 30.3451 28.2187 31.4193 28.2187C32.3894 28.2187 32.9688 27.5286 32.9753 26.5911H35.0326V26.8515C35.0326 28.733 33.5092 29.996 31.3998 29.996C28.9258 29.996 27.5391 28.401 27.5391 25.8684V24.9309C27.5391 22.3853 28.9258 20.7903 31.3998 20.7903C33.5157 20.7903 35.0326 22.0663 35.0326 23.9869V24.2408H32.9753C32.9688 23.2708 32.3894 22.5676 31.4193 22.5676Z" fill="#CD2E6A"/>
<path id="Shape" opacity="0.5" d="M6.11115 18.3333H3.33337L6.11115 15.8333V18.3333ZM33.8889 18.3333V15.8333L36.6667 18.3333H33.8889Z" fill="#F7F7F9"/>
</g>
</svg>
