<svg width="40" height="40" viewBox="0 0 40 40" fill="none" xmlns="http://www.w3.org/2000/svg">
<g id="MP4">
<path id="Document" fill-rule="evenodd" clip-rule="evenodd" d="M32.427 36.6666H7.57319C6.76545 36.6666 6.11121 36.018 6.11121 35.2173V4.78253C6.11121 3.9818 6.76545 3.33325 7.57319 3.33325H25.1171L33.889 12.0289V35.2173C33.889 36.018 33.2347 36.6666 32.427 36.6666Z" fill="#F7F7F9"/>
<path id="Intersect" d="M33.8728 12.0127H26.5792C25.7714 12.0127 25.1172 11.3641 25.1172 10.5634V3.33325L33.8728 12.0127Z" fill="#EAEAEA"/>
<path id="Mask" fill-rule="evenodd" clip-rule="evenodd" d="M3.33337 18.3333L6.11115 15.8333V18.3333H33.8889V15.8333L36.6667 18.3333V30.9258C36.6667 31.7955 36.0182 32.4999 35.2174 32.4999H4.78265C3.98192 32.4999 3.33337 31.7955 3.33337 30.9258V18.3333ZM9.46621 24.332V29.8333H7.55214V20.9465H9.77871L12.0574 25.9661H12.1225L14.4076 20.9465H16.6081V29.8333H14.6745V24.332H14.5834L12.7084 28.4921H11.4454L9.56386 24.332H9.46621ZM18.3529 20.9465H22.1094C24.1537 20.9465 25.2214 22.3528 25.2214 24.0325C25.2214 25.7382 24.1342 27.0859 22.0834 27.0859H20.5014V29.8333H18.3529V20.9465ZM21.3607 25.4648C22.3959 25.4648 23.0404 25.0741 23.0404 24.0325C23.0404 23.108 22.487 22.6002 21.6081 22.6002H20.4949V25.4648H21.3607ZM25.6837 26.6106C26.6732 24.6965 27.806 22.7955 28.9258 20.9465H31.9727V26.6301H33.0144V28.3163H31.9727V29.8333H29.9675V28.3163H25.6837V26.6106ZM27.5587 26.6041V26.6301H29.9675V22.4895H29.8829C29.0691 23.8046 28.2683 25.1783 27.5587 26.6041Z" fill="#D01C4B"/>
<path id="Shape" opacity="0.5" d="M6.11115 18.3333H3.33337L6.11115 15.8333V18.3333ZM33.8889 18.3333V15.8333L36.6667 18.3333H33.8889Z" fill="#F7F7F9"/>
</g>
</svg>
