<?xml version="1.0" encoding="UTF-8"?>
<svg width="24px" height="24px" viewBox="0 0 24 24" version="1.1" xmlns="http://www.w3.org/2000/svg" xmlns:xlink="http://www.w3.org/1999/xlink">
    <g id="Assets" stroke="none" stroke-width="1" fill="none" fill-rule="evenodd">
        <g id="assets" transform="translate(-767.000000, -2829.000000)">
            <g id="icon/Star" transform="translate(767.000000, 2829.000000)">
                <rect id="bound" x="0" y="0" width="24" height="24"></rect>
                <path d="M10.9271047,2.66582739 L8.48598755,7.61486135 L3.024315,8.41104279 C2.04487749,8.55308455 1.65235482,9.76043951 2.36263393,10.4519586 L6.31402879,14.3020379 L5.37945101,19.7407421 C5.211227,20.7238206 6.24673919,21.460195 7.11402737,21.0004283 L12,18.4324628 L16.8859726,21.0004283 C17.7532608,21.4564571 18.788773,20.7238206 18.620549,19.7407421 L17.6859712,14.3020379 L21.6373661,10.4519586 C22.3476452,9.76043951 21.9551225,8.55308455 20.975685,8.41104279 L15.5140125,7.61486135 L13.0728953,2.66582739 C12.6355129,1.7836733 11.3682254,1.77245948 10.9271047,2.66582739 Z" id="Mask" fill="#858199" fill-rule="evenodd"></path>
            </g>
        </g>
    </g>
</svg>