<svg width="40" height="40" viewBox="0 0 40 40" fill="none" xmlns="http://www.w3.org/2000/svg">
<g id="XWMA">
<path id="Document" fill-rule="evenodd" clip-rule="evenodd" d="M32.4271 36.6666H7.57326C6.76551 36.6666 6.11127 36.018 6.11127 35.2173V4.78253C6.11127 3.9818 6.76551 3.33325 7.57326 3.33325H25.1171L33.889 12.0289V35.2173C33.889 36.018 33.2348 36.6666 32.4271 36.6666Z" fill="#F7F7F9"/>
<path id="Intersect" d="M33.8728 12.0127H26.5792C25.7714 12.0127 25.1172 11.3641 25.1172 10.5634V3.33325L33.8728 12.0127Z" fill="#EAEAEA"/>
<path id="mask" fill-rule="evenodd" clip-rule="evenodd" d="M3.33331 20L6.11109 17.5V20H33.8889V17.5L36.6666 20V30.0926C36.6666 30.9623 36.0181 31.6667 35.2174 31.6667H4.78259C3.98186 31.6667 3.33331 30.9623 3.33331 30.0926V20ZM10.7002 23.1127H12.0928H12.4363H13.7119L14.5448 27.3943H14.6103L15.6538 23.1127H16.9172L17.9607 27.3943H18.0309L18.8545 23.1127H20.4736L18.8358 29.5H17.3945L16.3136 25.443H16.2574L15.1718 29.5H13.7306L12.1931 23.5038L10.4522 26.304L12.4129 29.5H10.6675L9.46021 27.4036H9.39469L8.18742 29.5H6.53093L8.4401 26.2853L6.5356 23.1127H8.3512L9.49764 25.2652H9.56315L10.7002 23.1127ZM22.0112 25.5459V29.5H20.6355V23.1127H22.2358L23.8736 26.7205H23.9204L25.5628 23.1127H27.1444V29.5H25.7547V25.5459H25.6892L24.3415 28.5361H23.4337L22.0814 25.5459H22.0112ZM29.2998 28.0354L28.8833 29.5H27.3391L29.398 23.1127H31.2885L33.3334 29.5H31.6862L31.2745 28.0354H29.2998ZM30.9984 26.917L30.3339 24.4978H30.2637L29.5852 26.917H30.9984Z" fill="#DF4F51"/>
<path id="Shape" opacity="0.5" d="M6.11109 20H3.33331L6.11109 17.5V20ZM33.8889 20V17.5L36.6666 20H33.8889Z" fill="#F7F7F9"/>
</g>
</svg>
