<svg width="16" height="17" viewBox="0 0 16 17" fill="none" xmlns="http://www.w3.org/2000/svg">
<path d="M7.16659 1.8335C6.24731 1.8335 5.49992 2.58089 5.49992 3.50016V9.3335C5.49992 10.2528 6.24731 11.0002 7.16659 11.0002H12.9999C13.9192 11.0002 14.6666 10.2528 14.6666 9.3335V3.50016C14.6666 2.58089 13.9192 1.8335 12.9999 1.8335H7.16659ZM2.99992 6.00016C2.08065 6.00016 1.33325 6.74756 1.33325 7.66683V13.5002C1.33325 14.4194 2.08065 15.1668 2.99992 15.1668H8.83325C9.75252 15.1668 10.4999 14.4194 10.4999 13.5002V11.8335H8.83325V13.5002H2.99992V7.66683H4.66659V6.00016H2.99992Z" fill="#C2C0CC"/>
</svg>
