<svg width="32" height="32" viewBox="0 0 32 32" fill="none" xmlns="http://www.w3.org/2000/svg">
<path d="M4.33612 2.66748C3.66429 2.66748 3.05495 3.0737 2.79456 3.69866C2.53416 4.32362 2.67998 5.03712 3.15391 5.51625L14.3355 16.6926V25.9993H11.0024C10.0805 25.9993 9.33579 26.744 9.33579 27.6658C9.33579 28.5877 10.0805 29.3324 11.0024 29.3324H16.002H21.0017C21.9235 29.3324 22.6683 28.5877 22.6683 27.6658C22.6683 26.744 21.9235 25.9993 21.0017 25.9993H17.6686V16.6926L28.8449 5.51104C29.3241 5.03191 29.4647 4.31841 29.2043 3.69346C28.9439 3.0685 28.3398 2.66748 27.6679 2.66748H4.33612Z" fill="#7E1BCC"/>
</svg>
