<svg xmlns="http://www.w3.org/2000/svg" width="24" height="24" viewBox="0 0 24 24">
  <g fill="none" fill-rule="evenodd">
    <rect width="24" height="24"/>
    <path fill="#858199" d="M6.5,20 C5.11928813,20 4,18.8807119 4,17.5 C4,16.1192881 5.11928813,15 6.5,15 C7.88071187,15 9,16.1192881 9,17.5 C9,18.8807119 7.88071187,20 6.5,20 Z M15,20 L12.5555556,20 C12.5555556,15.2748971 8.72510286,11.4444444 4,11.4444444 L4,9 C10.0751322,9 15,13.9248678 15,20 Z M20,20 L17.5384615,20 C17.5384615,12.7494925 11.2505075,6.46153846 4,6.46153846 L4,4 C12.6099776,4 20,11.3900224 20,20 Z"/>
  </g>
</svg>
