<?xml version="1.0" encoding="UTF-8"?>
<svg width="24px" height="24px" viewBox="0 0 24 24" version="1.1" xmlns="http://www.w3.org/2000/svg" xmlns:xlink="http://www.w3.org/1999/xlink">
    <g id="🗿" stroke="none" stroke-width="1" fill="none" fill-rule="evenodd">
        <g id="icon-upload-sheet" transform="translate(-112.000000, -1432.000000)">
            <g id="icon/Unfollow" transform="translate(112.000000, 1432.000000)">
                <rect id="bound" x="0" y="0" width="24" height="24"></rect>
                <path d="M22.995174,20.7545778 L21.7545778,21.995174 C21.5490421,22.2007098 21.2157559,22.2007098 21.0102201,21.995174 L19.1493259,20.1342797 L17.2884316,21.995174 C17.0828958,22.2007098 16.7496096,22.2007098 16.5440739,21.995174 L15.3034777,20.7545778 C15.0979419,20.5490421 15.0979419,20.2157559 15.3034777,20.0102201 L17.164372,18.1493259 L15.3034777,16.2884316 C15.0979419,16.0828958 15.0979419,15.7496096 15.3034777,15.5440739 L16.5440739,14.3034777 C16.7496096,14.0979419 17.0828958,14.0979419 17.2884316,14.3034777 L19.1493259,16.164372 L21.0102201,14.3034777 C21.2157559,14.0979419 21.5490421,14.0979419 21.7545778,14.3034777 L22.995174,15.5440739 C23.2007098,15.7496096 23.2007098,16.0828958 22.995174,16.2884316 L21.1342797,18.1493259 L22.995174,20.0102201 C23.2007098,20.2157559 23.2007098,20.5490421 22.995174,20.7545778 Z M12.8554237,14.0474768 C11.6877554,16.4524918 11.6827453,19.6742513 13.042969,21.8458255 C7.80174972,22.3965999 1,21.4716807 1,19.0710678 C1,16.4713263 2.78570054,14.199268 5.4459986,12.9707232 C6.67015349,14.0203314 8.26102457,14.6544415 10,14.6544415 C11.0170453,14.6544415 11.9834311,14.4375421 12.8554237,14.0474768 Z M10,13 C7.23857625,13 5,10.7614237 5,8 C5,5.23857625 7.23857625,3 10,3 C12.7614237,3 15,5.23857625 15,8 C15,10.7614237 12.7614237,13 10,13 Z" id="Combined-Shape" fill="#858199" fill-rule="evenodd"></path>
            </g>
        </g>
    </g>
</svg>