<svg width="12" height="13" viewBox="0 0 12 13" fill="none" xmlns="http://www.w3.org/2000/svg">
<path fill-rule="evenodd" clip-rule="evenodd" d="M8.8947 2.34956C8.8947 2.58296 8.78274 2.83235 8.62189 2.98306L5.13199 6.5L8.6695 10.0663C8.81491 10.2157 8.8947 10.4491 8.8947 10.6504C8.8947 11.1159 8.52409 11.5 8.07498 11.5C7.84979 11.5 7.64003 11.4 7.47918 11.2333L3.39476 7.10016C3.23391 6.94945 3.10522 6.7334 3.10522 6.5C3.10522 6.28261 3.25064 6.04921 3.39476 5.89984L7.47918 1.76674C7.6722 1.56668 7.88196 1.5 8.07498 1.5C8.52409 1.5 8.8947 1.88277 8.8947 2.34956Z" fill="#C2C0CC"/>
</svg>
