<svg width="17" height="17" viewBox="0 0 17 17" fill="none" xmlns="http://www.w3.org/2000/svg">
<path d="M15.1666 8.49992C15.1666 12.1826 12.1816 15.1666 8.49998 15.1666C4.81834 15.1666 1.83331 12.1826 1.83331 8.49992C1.83331 4.81935 4.81834 1.83325 8.49998 1.83325C12.1816 1.83325 15.1666 4.81935 15.1666 8.49992ZM8.67888 4.03755C7.2139 4.03755 6.27955 4.65468 5.54584 5.75148C5.45079 5.89357 5.48259 6.08521 5.61882 6.18852L6.55159 6.89578C6.69151 7.00188 6.89087 6.97664 6.99958 6.83874C7.47979 6.22965 7.80907 5.87645 8.53998 5.87645C9.08915 5.87645 9.76842 6.22989 9.76842 6.76242C9.76842 7.165 9.43608 7.37175 8.89385 7.67575C8.26148 8.03024 7.42471 8.47145 7.42471 9.57519V9.68271C7.42471 9.86086 7.56915 10.0053 7.74729 10.0053H9.25267C9.43081 10.0053 9.57525 9.86086 9.57525 9.68271V9.64688C9.57525 8.88177 11.8114 8.84992 11.8114 6.77949C11.8114 5.2203 10.1941 4.03755 8.67888 4.03755ZM8.49998 10.7042C7.81812 10.7042 7.26342 11.2589 7.26342 11.9408C7.26342 12.6226 7.81812 13.1773 8.49998 13.1773C9.18183 13.1773 9.73654 12.6226 9.73654 11.9408C9.73654 11.2589 9.18183 10.7042 8.49998 10.7042Z" fill="#C2C0CC"/>
</svg>
