<svg width="28" height="30" viewBox="0 0 28 30" fill="none"
  xmlns="http://www.w3.org/2000/svg">
  <path d="M4.66663 12.3333C4.66663 7.17821 8.84404 2.99998 14 2.99998C19.1559 2.99998 23.3333 7.17821 23.3333 12.3333C23.3333 13.9298 22.9328 15.4325 22.2268 16.7464C21.7368 17.6581 22.3278 19 23.3629 19C23.7485 19 24.1122 18.8096 24.3099 18.4785C25.3833 16.6812 26 14.5795 26 12.3333C26 5.70562 20.6288 0.333313 14 0.333313C7.37111 0.333313 1.99996 5.70562 1.99996 12.3333C1.99996 14.5795 2.61665 16.6812 3.69001 18.4785C3.88773 18.8096 4.25138 19 4.63701 19C5.67209 19 6.26311 17.6581 5.77315 16.7464C5.06712 15.4325 4.66663 13.9298 4.66663 12.3333Z" fill="#7E1BCC"/>
  <path d="M13.9778 5.83052C13.85 5.61218 13.5299 5.61198 13.4018 5.83016L8.71179 13.8144C8.58363 14.0326 8.74346 14.3055 8.99951 14.3057L11.5697 14.3073C11.6885 14.3074 11.7983 14.2451 11.8578 14.1438L13.3979 11.522C13.406 11.5082 13.4148 11.4954 13.4243 11.4834C13.5656 11.3046 13.8542 11.3177 13.974 11.5223L15.6162 14.3266C15.6309 14.3516 15.6416 14.3774 15.649 14.4034C15.7059 14.6039 15.5545 14.8176 15.3278 14.8175L12.3044 14.8155C12.1855 14.8154 12.0757 14.8778 12.0162 14.9791L10.7297 17.1693C10.6015 17.3875 10.7613 17.6604 11.0173 17.6606L20.3333 17.6666C20.5894 17.6668 20.7495 17.3941 20.6217 17.1757L13.9778 5.83052Z" fill="#7E1BCC"/>
  <path d="M24.3875 20.6967C25.2112 20.0858 26.3698 20.2641 26.9773 21.0888C27.5839 21.9131 27.408 23.0707 26.505 23.6778L20.2492 28.2861C19.4259 28.8918 18.4122 29.2247 17.3921 29.2247H1.36584C1.00239 29.2247 0.666626 28.8913 0.666626 28.4829V24.0385C0.666626 23.6356 1.00239 23.2559 1.36584 23.2559L3.93023 23.2976L6.08343 21.5501C7.05584 20.7629 8.30701 20.3346 9.51558 20.3346H16.9647C17.8677 20.3346 18.5794 21.1393 18.4289 22.0654C18.3076 22.7943 17.5829 23.2981 16.8837 23.2981H13.2603C12.8968 23.2981 12.5611 23.6338 12.5611 24.039C12.5611 24.4437 12.8552 24.7794 13.2603 24.7794H18.8447L24.3875 20.6967Z" fill="#7E1BCC"/>
</svg>
