<svg width="40" height="40" viewBox="0 0 40 40" fill="none" xmlns="http://www.w3.org/2000/svg">
<g id="WAV">
<path id="Document" fill-rule="evenodd" clip-rule="evenodd" d="M32.427 36.6666H7.57319C6.76545 36.6666 6.11121 36.018 6.11121 35.2173V4.78253C6.11121 3.9818 6.76545 3.33325 7.57319 3.33325H25.1171L33.889 12.0289V35.2173C33.889 36.018 33.2347 36.6666 32.427 36.6666Z" fill="#F7F7F9"/>
<path id="Intersect" d="M33.8728 12.0127H26.5792C25.7714 12.0127 25.1172 11.3641 25.1172 10.5634V3.33325L33.8728 12.0127Z" fill="#EAEAEA"/>
<path id="Mask" fill-rule="evenodd" clip-rule="evenodd" d="M3.33337 18.3333L6.11115 15.8333V18.3333H33.8889V15.8333L36.6667 18.3333V30.9258C36.6667 31.7955 36.0182 32.4999 35.2174 32.4999H4.78265C3.98192 32.4999 3.33337 31.7955 3.33337 30.9258V18.3333ZM12.168 24.1887L10.6576 29.8333H8.6524L6.37376 20.9465H8.62636L9.78522 26.9036H9.87636L11.3282 20.9465H13.086L14.5378 26.9036H14.6355L15.7813 20.9465H18.0339L15.7553 29.8333H13.7501L12.2462 24.1887H12.168ZM20.3451 27.7955L19.7657 29.8333H17.6172L20.4818 20.9465H23.112L25.9571 29.8333H23.6654L23.0925 27.7955H20.3451ZM22.7084 26.2395L21.7839 22.8736H21.6863L20.7422 26.2395H22.7084ZM30.8334 29.8333H28.1251L25.2995 20.9465H27.7995L29.4922 27.5221H29.5834L31.2501 20.9465H33.6199L30.8334 29.8333Z" fill="#901B3C"/>
<path id="Shape" opacity="0.5" d="M6.11115 18.3333H3.33337L6.11115 15.8333V18.3333ZM33.8889 18.3333V15.8333L36.6667 18.3333H33.8889Z" fill="#F7F7F9"/>
</g>
</svg>
