<svg width="40" height="40" viewBox="0 0 40 40" fill="none" xmlns="http://www.w3.org/2000/svg">
<g id="WEBM">
<path id="Document" fill-rule="evenodd" clip-rule="evenodd" d="M32.4271 36.6666H7.57326C6.76551 36.6666 6.11127 36.018 6.11127 35.2173V4.78253C6.11127 3.9818 6.76551 3.33325 7.57326 3.33325H25.1171L33.889 12.0289V35.2173C33.889 36.018 33.2348 36.6666 32.4271 36.6666Z" fill="#F7F7F9"/>
<path id="Intersect" d="M33.8728 12.0127H26.5792C25.7714 12.0127 25.1172 11.3641 25.1172 10.5634V3.33325L33.8728 12.0127Z" fill="#EAEAEA"/>
<path id="mask" fill-rule="evenodd" clip-rule="evenodd" d="M3.33331 20L6.11109 17.5V20H33.8889V17.5L36.6666 20V30.0926C36.6666 30.9623 36.0181 31.6667 35.2174 31.6667H4.78259C3.98186 31.6667 3.33331 30.9623 3.33331 30.0926V20ZM11.1261 25.443L10.0404 29.5H8.5992L6.96143 23.1127H8.58049L9.41341 27.3943H9.47892L10.5224 23.1127H11.7858L12.8293 27.3943H12.8995L13.7231 23.1127H15.3422L13.7044 29.5H12.2631L11.1822 25.443H11.1261ZM17.0295 28.274H19.7904V29.5H15.4994V23.1127H19.7904V24.3387H17.0295V25.7191H19.6172V26.8515H17.0295V28.274ZM23.2606 29.5H20.3828V23.1127H23.2138C24.3883 23.1127 25.1791 23.6976 25.1791 24.6803C25.1791 25.4945 24.655 25.953 24.0374 26.0747V26.1449C24.7486 26.1964 25.4833 26.683 25.4833 27.6891C25.4833 28.8496 24.5053 29.5 23.2606 29.5ZM22.8207 24.2076H21.9129V25.7097H22.6569C23.3635 25.7097 23.6677 25.4009 23.6677 24.947C23.6677 24.4978 23.3588 24.2076 22.8207 24.2076ZM22.8956 26.7017H21.9129V28.405H22.7412C23.5694 28.405 23.911 28.0822 23.911 27.5627C23.911 27.0433 23.5694 26.7017 22.8956 26.7017ZM27.283 25.5459V29.5H25.9072V23.1127H27.5076L29.1453 26.7205H29.1921L30.8346 23.1127H32.4162V29.5H31.0264V25.5459H30.9609L29.6133 28.5361H28.7055L27.3532 25.5459H27.283Z" fill="#152DAF"/>
<path id="Shape" opacity="0.5" d="M6.11109 20H3.33331L6.11109 17.5V20ZM33.8889 20V17.5L36.6666 20H33.8889Z" fill="#F7F7F9"/>
</g>
</svg>
