<svg width="24" height="24" viewBox="0 0 24 24" fill="none" xmlns="http://www.w3.org/2000/svg">
<circle cx="12" cy="12" r="12" fill="#AAA7B8"/>
<path fill-rule="evenodd" clip-rule="evenodd" d="M13.875 10.125H18.5625C19.0803 10.125 19.5 10.5447 19.5 11.0625V12.9375C19.5 13.4553 19.0803 13.875 18.5625 13.875H13.875V18.5625C13.875 19.0803 13.4553 19.5 12.9375 19.5H11.0625C10.5447 19.5 10.125 19.0803 10.125 18.5625V13.875H5.4375C4.91973 13.875 4.5 13.4553 4.5 12.9375V11.0625C4.5 10.5447 4.91973 10.125 5.4375 10.125H10.125V5.4375C10.125 4.91973 10.5447 4.5 11.0625 4.5H12.9375C13.4553 4.5 13.875 4.91973 13.875 5.4375V10.125Z" fill="white"/>
</svg>
