<svg width="40" height="40" viewBox="0 0 40 40" fill="none" xmlns="http://www.w3.org/2000/svg">
<g id="TS">
<path id="Document" fill-rule="evenodd" clip-rule="evenodd" d="M32.427 36.6666H7.57319C6.76545 36.6666 6.11121 36.018 6.11121 35.2173V4.78253C6.11121 3.9818 6.76545 3.33325 7.57319 3.33325H25.1171L33.889 12.0289V35.2173C33.889 36.018 33.2347 36.6666 32.427 36.6666Z" fill="#F7F7F9"/>
<path id="Intersect" d="M33.8728 12.0127H26.5792C25.7714 12.0127 25.1172 11.3641 25.1172 10.5634V3.33325L33.8728 12.0127Z" fill="#EAEAEA"/>
<path id="Mask" fill-rule="evenodd" clip-rule="evenodd" d="M3.33337 18.3333L6.11115 15.8333V18.3333H33.8889V15.8333L36.6667 18.3333V30.9258C36.6667 31.7955 36.0182 32.4999 35.2174 32.4999H4.78265C3.98192 32.4999 3.33337 31.7955 3.33337 30.9258V18.3333ZM17.0313 22.7043V29.8333H14.8829V22.7043H12.4675V20.9465H19.4532V22.7043H17.0313ZM23.5092 29.996C20.7943 29.996 19.935 28.5181 19.9154 27.2291H21.9662C22.0053 27.8085 22.5521 28.3554 23.5873 28.3554C24.5704 28.3554 25.0391 27.9257 25.0391 27.3398C25.0391 26.7864 24.5899 26.5325 23.724 26.3502L22.4675 26.0767C21.1524 25.8163 20.1042 25.1002 20.1042 23.5507C20.1042 21.7734 21.5886 20.7773 23.5743 20.7773C25.7227 20.7773 26.9922 21.9752 27.0118 23.4921H25.0261C24.987 22.9387 24.5248 22.3984 23.5678 22.3984C22.7279 22.3984 22.2462 22.7955 22.2462 23.3814C22.2462 23.8567 22.6693 24.1497 23.4376 24.2994L24.7266 24.5598C26.0027 24.8072 27.1615 25.4387 27.1615 27.1249C27.1615 28.8632 25.8334 29.996 23.5092 29.996Z" fill="#E02A65"/>
<path id="Shape" opacity="0.5" d="M6.11115 18.3333H3.33337L6.11115 15.8333V18.3333ZM33.8889 18.3333V15.8333L36.6667 18.3333H33.8889Z" fill="#F7F7F9"/>
</g>
</svg>
