<svg width="40" height="40" viewBox="0 0 40 40" fill="none" xmlns="http://www.w3.org/2000/svg">
<g id="3GA">
<path id="Document" fill-rule="evenodd" clip-rule="evenodd" d="M32.4271 36.6666H7.57326C6.76551 36.6666 6.11127 36.018 6.11127 35.2173V4.78253C6.11127 3.9818 6.76551 3.33325 7.57326 3.33325H25.1171L33.889 12.0289V35.2173C33.889 36.018 33.2348 36.6666 32.4271 36.6666Z" fill="#F7F7F9"/>
<path id="Intersect" d="M33.8728 12.0127H26.5792C25.7714 12.0127 25.1172 11.3641 25.1172 10.5634V3.33325L33.8728 12.0127Z" fill="#EAEAEA"/>
<path id="Mask" fill-rule="evenodd" clip-rule="evenodd" d="M3.33331 18.3333L6.11109 15.8333V18.3333H33.8889V15.8333L36.6666 18.3333V30.9258C36.6666 31.7955 36.0181 32.4999 35.2174 32.4999H4.78259C3.98186 32.4999 3.33331 31.7955 3.33331 30.9258V18.3333ZM11.3672 26.0572H10.3841V24.4687H11.3216C12.0703 24.4687 12.5586 24.0195 12.5586 23.401C12.5521 22.828 12.0573 22.3918 11.3411 22.3918C10.5534 22.3918 10.1237 22.9583 10.1042 23.4921H8.10547C8.16406 21.9101 9.34896 20.7903 11.4258 20.7903C13.2552 20.7903 14.6354 21.7408 14.6484 23.121C14.6615 24.384 13.7174 25.0155 13.0469 25.1067V25.1978C13.9062 25.2564 14.9023 25.927 14.9154 27.3333C14.9284 28.9869 13.2487 29.996 11.3411 29.996C9.0625 29.996 8.0013 28.707 7.98177 27.2551H9.94792C9.99349 27.8931 10.5599 28.3619 11.3932 28.3619C12.2526 28.3619 12.7799 27.8606 12.7734 27.1965C12.7734 26.565 12.2786 26.0572 11.3672 26.0572ZM19.7656 20.7903C22.1484 20.7903 23.3919 22.2681 23.431 23.8827H21.3477C21.2565 23.1275 20.7031 22.5481 19.7526 22.5481C18.6198 22.5481 18.0013 23.3684 18.0013 24.8137V25.8879C18.0013 27.2226 18.4701 28.2317 19.8112 28.2317C20.8268 28.2317 21.4128 27.5872 21.4128 26.8385V26.4609H19.8698V24.9504H23.4375V26.6757C23.4375 28.4075 22.2591 29.996 19.7591 29.996C17.0117 29.996 15.8268 28.2187 15.8268 25.8945V24.7942C15.8268 22.4309 17.2201 20.7903 19.7656 20.7903ZM26.7318 27.7955L26.1523 29.8333H24.0039L26.8685 20.9465H29.4987L32.3438 29.8333H30.0521L29.4792 27.7955H26.7318ZM29.0951 26.2395L28.1706 22.8736H28.0729L27.1289 26.2395H29.0951Z" fill="#3132C7"/>
<path id="Shape" opacity="0.5" d="M6.11109 18.3333H3.33331L6.11109 15.8333V18.3333ZM33.8889 18.3333V15.8333L36.6666 18.3333H33.8889Z" fill="#F7F7F9"/>
</g>
</svg>
