<?xml version="1.0" encoding="UTF-8"?>
<svg width="24px" height="24px" viewBox="0 0 24 24" version="1.1" xmlns="http://www.w3.org/2000/svg" xmlns:xlink="http://www.w3.org/1999/xlink">
    <g id="Assets" stroke="none" stroke-width="1" fill="none" fill-rule="evenodd">
        <g id="Group-3" fill="#858199">
            <g id="icon/month">
                <path d="M9.03124999,13.25 L7.46874999,13.25 C7.21093749,13.25 6.99999999,13.0390625 6.99999999,12.78125 L6.99999999,11.21875 C6.99999999,10.9609375 7.21093749,10.75 7.46874999,10.75 L9.03124999,10.75 C9.28906249,10.75 9.49999999,10.9609375 9.49999999,11.21875 L9.49999999,12.78125 C9.49999999,13.0390625 9.28906249,13.25 9.03124999,13.25 Z M13.25,12.78125 L13.25,11.21875 C13.25,10.9609375 13.0390625,10.75 12.78125,10.75 L11.21875,10.75 C10.9609375,10.75 10.75,10.9609375 10.75,11.21875 L10.75,12.78125 C10.75,13.0390625 10.9609375,13.25 11.21875,13.25 L12.78125,13.25 C13.0390625,13.25 13.25,13.0390625 13.25,12.78125 Z M17,12.78125 L17,11.21875 C17,10.9609375 16.7890625,10.75 16.53125,10.75 L14.96875,10.75 C14.7109375,10.75 14.5,10.9609375 14.5,11.21875 L14.5,12.78125 C14.5,13.0390625 14.7109375,13.25 14.96875,13.25 L16.53125,13.25 C16.7890625,13.25 17,13.0390625 17,12.78125 Z M13.25,16.53125 L13.25,14.96875 C13.25,14.7109375 13.0390625,14.5 12.78125,14.5 L11.21875,14.5 C10.9609375,14.5 10.75,14.7109375 10.75,14.96875 L10.75,16.53125 C10.75,16.7890625 10.9609375,17 11.21875,17 L12.78125,17 C13.0390625,17 13.25,16.7890625 13.25,16.53125 Z M9.49999999,16.53125 L9.49999999,14.96875 C9.49999999,14.7109375 9.28906249,14.5 9.03124999,14.5 L7.46874999,14.5 C7.21093749,14.5 6.99999999,14.7109375 6.99999999,14.96875 L6.99999999,16.53125 C6.99999999,16.7890625 7.21093749,17 7.46874999,17 L9.03124999,17 C9.28906249,17 9.49999999,16.7890625 9.49999999,16.53125 Z M17,16.53125 L17,14.96875 C17,14.7109375 16.7890625,14.5 16.53125,14.5 L14.96875,14.5 C14.7109375,14.5 14.5,14.7109375 14.5,14.96875 L14.5,16.53125 C14.5,16.7890625 14.7109375,17 14.96875,17 L16.53125,17 C16.7890625,17 17,16.7890625 17,16.53125 Z M20.75,6.37499999 L20.75,20.125 C20.75,21.1601563 19.9101563,22 18.875,22 L5.12499998,22 C4.08984373,22 3.24999998,21.1601563 3.24999998,20.125 L3.24999998,6.37499999 C3.24999998,5.33984373 4.08984373,4.49999997 5.12499998,4.49999997 L6.99999999,4.49999997 L6.99999999,2.46874998 C6.99999999,2.21093748 7.21093749,1.99999997 7.46874999,1.99999997 L9.03124999,1.99999997 C9.28906249,1.99999997 9.49999999,2.21093748 9.49999999,2.46874998 L9.49999999,4.49999997 L14.5,4.49999997 L14.5,2.46874998 C14.5,2.21093748 14.7109375,1.99999997 14.96875,1.99999997 L16.53125,1.99999997 C16.7890625,1.99999997 17,2.21093748 17,2.46874998 L17,4.49999997 L18.875,4.49999997 C19.9101563,4.49999997 20.75,5.33984373 20.75,6.37499999 Z M18.875,19.890625 L18.875,8.24999999 L5.12499998,8.24999999 L5.12499998,19.890625 C5.12499998,20.0195313 5.23046873,20.125 5.35937498,20.125 L18.640625,20.125 C18.7695313,20.125 18.875,20.0195313 18.875,19.890625 Z" id="calendar-alt"></path>
            </g>
        </g>
    </g>
</svg>