<svg width="40" height="40" viewBox="0 0 40 40" fill="none" xmlns="http://www.w3.org/2000/svg">
<g id="AMR">
<path id="Document" fill-rule="evenodd" clip-rule="evenodd" d="M32.427 36.6666H7.57319C6.76545 36.6666 6.11121 36.018 6.11121 35.2173V4.78253C6.11121 3.9818 6.76545 3.33325 7.57319 3.33325H25.1171L33.889 12.0289V35.2173C33.889 36.018 33.2347 36.6666 32.427 36.6666Z" fill="#F7F7F9"/>
<path id="Intersect" d="M33.8728 12.0127H26.5792C25.7714 12.0127 25.1172 11.3641 25.1172 10.5634V3.33325L33.8728 12.0127Z" fill="#EAEAEA"/>
<path id="Mask" fill-rule="evenodd" clip-rule="evenodd" d="M3.33337 18.3333L6.11115 15.8333V18.3333H33.8889V15.8333L36.6667 18.3333V30.9258C36.6667 31.7955 36.0182 32.4999 35.2174 32.4999H4.78265C3.98192 32.4999 3.33337 31.7955 3.33337 30.9258V18.3333ZM8.95188 27.7955L8.37246 29.8333H6.22402L9.0886 20.9465H11.7188L14.5639 29.8333H12.2722L11.6993 27.7955H8.95188ZM11.3152 26.2395L10.3907 22.8736H10.293L9.34902 26.2395H11.3152ZM17.4154 24.332V29.8333H15.5014V20.9465H17.7279L20.0066 25.9661H20.0717L22.3568 20.9465H24.5574V29.8333H22.6238V24.332H22.5326L20.6576 28.4921H19.3946L17.5131 24.332H17.4154ZM26.3021 20.9465H30.0652C32.2592 20.9465 33.3399 22.1835 33.3399 23.8567C33.3399 25.3215 32.3568 26.1158 31.7514 26.3632L33.5222 29.8333H31.1394L29.6355 26.6627H28.418V29.8333H26.3021V20.9465ZM28.418 22.5611V25.1392H29.7266C30.56 25.1392 31.1199 24.7161 31.1199 23.8762C31.1199 22.9973 30.5144 22.5611 29.7462 22.5611H28.418Z" fill="#8B1480"/>
<path id="Shape" opacity="0.5" d="M6.11115 18.3333H3.33337L6.11115 15.8333V18.3333ZM33.8889 18.3333V15.8333L36.6667 18.3333H33.8889Z" fill="#F7F7F9"/>
</g>
</svg>
