<svg width="20" height="20" viewBox="0 0 20 20" fill="none" xmlns="http://www.w3.org/2000/svg">
<path fill-rule="evenodd" clip-rule="evenodd" d="M16.9167 14.8249C16.5278 14.8249 16.1121 14.6383 15.8609 14.3702L9.99935 8.55373L4.05554 14.4496C3.80659 14.6919 3.41759 14.8249 3.08195 14.8249C2.30619 14.8249 1.66602 14.2072 1.66602 13.4587C1.66602 13.0834 1.83273 12.7338 2.11058 12.4657L8.99908 5.65834C9.25026 5.39025 9.61036 5.17578 9.99935 5.17578C10.3617 5.17578 10.7507 5.41813 10.9996 5.65834L17.8881 12.4657C18.2215 12.7874 18.3327 13.137 18.3327 13.4587C18.3327 14.2072 17.6947 14.8249 16.9167 14.8249Z" fill="#C2C0CC"/>
</svg>
