<svg width="40" height="40" viewBox="0 0 40 40" fill="none" xmlns="http://www.w3.org/2000/svg">
<g id="MPGA">
<path id="Document" fill-rule="evenodd" clip-rule="evenodd" d="M32.427 36.6666H7.57319C6.76545 36.6666 6.11121 36.018 6.11121 35.2173V4.78253C6.11121 3.9818 6.76545 3.33325 7.57319 3.33325H25.1171L33.889 12.0289V35.2173C33.889 36.018 33.2347 36.6666 32.427 36.6666Z" fill="#F7F7F9"/>
<path id="Intersect" d="M33.8728 12.0127H26.5792C25.7714 12.0127 25.1172 11.3641 25.1172 10.5634V3.33325L33.8728 12.0127Z" fill="#EAEAEA"/>
<path id="mask" fill-rule="evenodd" clip-rule="evenodd" d="M3.33337 20L6.11115 17.5V20H33.8889V17.5L36.6667 20V30.0926C36.6667 30.9623 36.0182 31.6667 35.2174 31.6667H4.78265C3.98192 31.6667 3.33337 30.9623 3.33337 30.0926V20ZM9.82526 25.5459V29.5H8.44952V23.1127H10.0499L11.6876 26.7205H11.7344L13.3769 23.1127H14.9585V29.5H13.5687V25.5459H13.5032L12.1556 28.5361H11.2478L9.89545 25.5459H9.82526ZM15.7334 23.1127H18.4334C19.9027 23.1127 20.6701 24.1234 20.6701 25.3307C20.6701 26.5567 19.8887 27.5253 18.4147 27.5253H17.2776V29.5H15.7334V23.1127ZM17.8953 26.3601C18.6393 26.3601 19.1026 26.0794 19.1026 25.3307C19.1026 24.6662 18.7048 24.3012 18.0731 24.3012H17.2729V26.3601H17.8953ZM23.5695 23.0004C25.2821 23.0004 26.1759 24.0626 26.204 25.2231H24.7066C24.6411 24.6803 24.2433 24.2638 23.5601 24.2638C22.7459 24.2638 22.3014 24.8534 22.3014 25.8922V26.6643C22.3014 27.6236 22.6383 28.3489 23.6022 28.3489C24.3322 28.3489 24.7534 27.8856 24.7534 27.3475V27.0761H23.6443V25.9905H26.2086V27.2305C26.2086 28.4752 25.3617 29.617 23.5648 29.617C21.5901 29.617 20.7385 28.3395 20.7385 26.669V25.8782C20.7385 24.1796 21.7398 23.0004 23.5695 23.0004ZM28.0972 28.0354L27.6808 29.5H26.1366L28.1955 23.1127H30.086L32.1308 29.5H30.4837L30.0719 28.0354H28.0972ZM29.7958 26.917L29.1314 24.4978H29.0612L28.3827 26.917H29.7958Z" fill="#34A5D9"/>
<path id="Shape" opacity="0.5" d="M6.11115 20H3.33337L6.11115 17.5V20ZM33.8889 20V17.5L36.6667 20H33.8889Z" fill="#F7F7F9"/>
</g>
</svg>
