<svg width="14" height="14" viewBox="0 0 14 14" fill="none" xmlns="http://www.w3.org/2000/svg">
<path d="M7.25827 3.86154C6.59055 3.86154 6.1874 4.05934 6.1874 4.57363C6.1874 6.05055 10.9874 5.35165 11 9.28132C11 11.6418 9.19842 13 6.57795 13C5.49449 13 4.31024 12.7758 3.13858 12.2484V9.10989C4.19685 9.71649 5.53228 10.1648 6.57795 10.1648C7.28346 10.1648 7.7874 9.96703 7.7874 9.36044C7.7874 7.79121 3 8.37143 3 4.73187C3 2.3978 4.70079 1 7.25827 1C8.30394 1 9.33701 1.17143 10.3827 1.60659V4.70549C9.4252 4.16483 8.21575 3.86154 7.25827 3.86154Z" fill="white"/>
</svg>
