<?xml version="1.0" encoding="UTF-8"?>
<svg width="24px" height="24px" viewBox="0 0 24 24" version="1.1" xmlns="http://www.w3.org/2000/svg" xmlns:xlink="http://www.w3.org/1999/xlink">
    <g id="Assets" stroke="none" stroke-width="1" fill="none" fill-rule="evenodd">
        <g id="assets" transform="translate(-763.000000, -1423.000000)">
            <g id="icon/remove" transform="translate(763.000000, 1423.000000)">
                <rect id="bound" x="0" y="0" width="24" height="24"></rect>
                <path d="M14.4246212,12.3033009 L18.3137085,16.1923882 C18.7042328,16.5829124 18.7042328,17.2160774 18.3137085,17.6066017 L17.6066017,18.3137085 C17.2160774,18.7042328 16.5829124,18.7042328 16.1923882,18.3137085 L12.3033009,14.4246212 L8.41421356,18.3137085 C8.02368927,18.7042328 7.39052429,18.7042328 7,18.3137085 L6.29289322,17.6066017 C5.90236893,17.2160774 5.90236893,16.5829124 6.29289322,16.1923882 L10.1819805,12.3033009 L6.29289322,8.41421356 C5.90236893,8.02368927 5.90236893,7.39052429 6.29289322,7 L7,6.29289322 C7.39052429,5.90236893 8.02368927,5.90236893 8.41421356,6.29289322 L12.3033009,10.1819805 L16.1923882,6.29289322 C16.5829124,5.90236893 17.2160774,5.90236893 17.6066017,6.29289322 L18.3137085,7 C18.7042328,7.39052429 18.7042328,8.02368927 18.3137085,8.41421356 L14.4246212,12.3033009 Z" id="Combined-Shape" fill="#858199" fill-rule="evenodd"></path>
            </g>
        </g>
    </g>
</svg>