<?xml version="1.0" encoding="UTF-8"?>
<svg width="24px" height="24px" viewBox="0 0 24 24" version="1.1" xmlns="http://www.w3.org/2000/svg" xmlns:xlink="http://www.w3.org/1999/xlink">
    <g id="🗿" stroke="none" stroke-width="1" fill="none" fill-rule="evenodd">
        <g id="icon-upload-sheet" transform="translate(-112.000000, -520.000000)">
            <g id="icon/filter" transform="translate(112.000000, 520.000000)">
                <rect id="bound" x="0" y="0" width="24" height="24"></rect>
                <path d="M12.5330763,6.65825661 C13.0587059,6.62602254 14.069635,6.57867251 15.0777828,6.49853783 C16.4559058,6.388922 17.8145076,6.16228251 19.1315433,5.74178818 C19.7683766,5.53847334 20.3925392,5.29741862 20.8948361,4.84438991 C21.4141819,4.37599496 21.4274192,3.85309241 20.8896854,3.40817226 C20.587648,3.15835829 20.234155,2.94533319 19.869794,2.79237155 C18.1140212,2.05519258 16.242615,1.82690135 14.3590017,1.68349982 C12.8345986,1.56747721 11.3077747,1.57173171 9.78125983,1.67524109 C8.32479457,1.77399544 6.87821866,1.94322426 5.47356951,2.33904252 C4.87655112,2.50722023 4.30250489,2.75658374 3.72681043,2.9897301 C3.5407154,3.0650597 3.37244182,3.19394589 3.21380006,3.31947854 C2.57037381,3.8286666 2.57057984,4.4243961 3.21683898,4.92797823 C3.91594437,5.47280395 4.75159498,5.73027602 5.59847414,5.94690493 C7.71139694,6.48732598 9.87206679,6.63242931 12.5330763,6.65825661 L12.5330763,6.65825661 Z M8.56723832,18.9050978 C8.56723832,17.6122316 8.55204374,16.3190651 8.57393424,15.0264993 C8.58418415,14.4231117 8.38969347,13.9509127 7.96239086,13.5010373 C5.68052489,11.0985486 3.41756201,8.6789919 1.16701233,6.24872386 C0.803217938,5.85585872 0.509318628,5.39447117 0.228244577,4.93848934 C-0.127720746,4.36097909 -0.0370683127,3.76835286 0.291907308,3.20385637 C0.660028298,2.57223894 1.23685591,2.15434736 1.87147446,1.80723056 C2.98093663,1.20043937 4.18718057,0.851420563 5.42340162,0.598052831 C7.92968388,0.0843600152 10.4659947,-0.0635462763 13.0222389,0.0233455416 C15.0321475,0.0916677372 17.0248013,0.285923005 18.9828424,0.745508646 C20.1863565,1.02790705 21.3580907,1.39784797 22.4163033,2.04503184 C22.8998001,2.34074432 23.3314293,2.69291646 23.6480432,3.16341363 C24.1148518,3.85704659 24.1247926,4.5326605 23.6330032,5.23450213 C23.0159486,6.11508264 22.2631213,6.87949038 21.5308969,7.66271801 C19.6552156,9.66918824 17.7784527,11.6747575 15.8968481,13.6759221 C15.557262,14.0371538 15.3765238,14.4259647 15.3897611,14.9352529 C15.4199957,16.0939773 15.3884219,17.2540031 15.4045436,18.4132781 C15.4106214,18.8499895 15.2528038,19.1986079 14.9268156,19.473098 C13.227443,20.90406 11.5268858,22.3337708 9.81643916,23.7522697 C9.24980994,24.2221663 8.6881254,24.0003819 8.58469922,23.2832241 C8.55750349,23.094775 8.57043176,22.9003695 8.57027724,22.708667 C8.5692986,21.4408272 8.56981367,20.1729375 8.56981367,18.9050978 L8.56723832,18.9050978 Z" id="Fill-1" fill="#858199" fill-rule="evenodd"></path>
            </g>
        </g>
    </g>
</svg>