<svg xmlns="http://www.w3.org/2000/svg" width="32" height="32" viewBox="0 0 32 32">
  <path fill="#1BA1F1" fill-rule="evenodd" d="M4.98666667,2 L27.0133333,2 C28.0633333,2 28.4366667,2.11666667 28.81,2.30333333 C29.1833333,2.51333333 29.4866667,2.81666667 29.6966667,3.19 C29.9066667,3.56333333 30,3.93666667 30,4.98666667 L30,27.0133333 C30,28.0633333 29.8833333,28.4366667 29.6966667,28.81 C29.4866667,29.1833333 29.1833333,29.4866667 28.81,29.6966667 C28.4366667,29.9066667 28.0633333,30 27.0133333,30 L4.98666667,30 C3.93666667,30 3.56333333,29.8833333 3.19,29.6966667 C2.81666667,29.51 2.51333333,29.1833333 2.30333333,28.81 C2.09333333,28.4366667 2,28.0633333 2,27.0133333 L2,4.98666667 C2,3.93666667 2.11666667,3.56333333 2.30333333,3.19 C2.51333333,2.81666667 2.81666667,2.51333333 3.19,2.30333333 C3.56333333,2.11666667 3.96,2 4.98666667,2 Z M11.8186667,24.5866667 C20.2709333,24.5866667 24.9002667,17.694359 24.9002667,11.7405783 C24.9002667,11.5352755 24.9002667,11.3593017 24.9002667,11.1539989 C25.7962667,10.5087616 26.5728,9.71687943 27.2,8.8076814 C26.3637333,9.15962902 25.4976,9.39426077 24.5717333,9.51157665 C25.5274667,8.95432624 26.2442667,8.07445717 26.6026667,7.01861429 C25.7066667,7.54653573 24.7210667,7.89848336 23.6757333,8.10378614 C22.8394667,7.22391708 21.6448,6.66666667 20.3306667,6.66666667 C17.792,6.66666667 15.7312,8.69036552 15.7312,11.1833279 C15.7312,11.5352755 15.7610667,11.8872231 15.8506667,12.2098418 C12.0277333,12.033868 8.6528,10.2154719 6.38293333,7.4878778 C5.99466667,8.16244408 5.75573333,8.92499727 5.75573333,9.7462084 C5.75573333,11.3006438 6.56213333,12.7084343 7.78666667,13.5003164 C7.04,13.4709875 6.3232,13.2656847 5.696,12.943066 C5.696,12.972395 5.696,12.972395 5.696,13.0017239 C5.696,15.1720676 7.27893333,17.0197927 9.3696,17.4303983 C8.98133333,17.5477141 8.59306667,17.5770431 8.17493333,17.5770431 C7.87626667,17.5770431 7.5776,17.5477141 7.3088,17.4890562 C7.90613333,19.2781233 9.60853333,20.5979269 11.6096,20.6272559 C10.0266667,21.8297436 8.05546667,22.5629678 5.90506667,22.5629678 C5.54666667,22.5629678 5.1584,22.5336388 4.8,22.5043099 C6.80106667,23.8241135 9.22026667,24.5866667 11.8186667,24.5866667 Z"/>
</svg>
