<?xml version="1.0" encoding="UTF-8"?>
<svg width="12px" height="12px" viewBox="0 0 12 12" version="1.1" xmlns="http://www.w3.org/2000/svg" xmlns:xlink="http://www.w3.org/1999/xlink">
    <g id="-🔎-Search-Dropdown-Style-Guide" stroke="none" stroke-width="1" fill="none" fill-rule="evenodd">
        <g id="Search-Style-Guide" transform="translate(-58.000000, -758.000000)" fill="#858199">
            <g id="ico/iconSearch" transform="translate(58.000000, 758.000000)">
                <path d="M3.2712187,8.02460148 C1.69274641,6.09316732 1.80424096,3.24169517 3.60570234,1.44023379 C5.52601405,-0.480077928 8.6394545,-0.480077928 10.5597662,1.44023379 C12.4800779,3.3605455 12.4800779,6.47398595 10.5597662,8.39429766 C8.75830483,10.195759 5.90683268,10.3072536 3.97539852,8.7287813 L1.05626972,11.6479101 C0.861815838,11.842364 0.546543795,11.842364 0.352089908,11.6479101 C0.157636021,11.4534562 0.157636021,11.1381842 0.352089908,10.9437303 L3.2712187,8.02460148 Z M4.30988216,7.69011784 C5.8412861,9.22152178 8.32418246,9.22152178 9.8555864,7.69011784 C11.3869903,6.1587139 11.3869903,3.67581754 9.8555864,2.1444136 C8.32418246,0.613009662 5.8412861,0.613009662 4.30988216,2.1444136 C2.77847822,3.67581754 2.77847822,6.1587139 4.30988216,7.69011784 Z" id="iconSearch"></path>
            </g>
        </g>
    </g>
</svg>