<svg xmlns="http://www.w3.org/2000/svg" width="24" height="24" viewBox="0 0 24 24">
  <g fill="none" fill-rule="evenodd">
    <rect width="24" height="24"/>
    <path fill="#858199" d="M8.46563786,19.9245466 C7.92388449,20.5744882 7.02157241,21 6,21 C4.34314575,21 3,19.8807119 3,18.5 C3,17.1192881 4.34314575,16 6,16 C6.35063542,16 6.68722107,16.0501285 7,16.1422548 L7,6.02055066 C7,5.49224061 7.31978104,5.02523181 7.78944063,4.86765013 L13.5394406,3.05582503 C14.2638626,2.81276469 15,3.39383881 15,4.20872555 C15,5.01398116 15,5.61792286 15,6.02055066 C15,6.62449236 14.4511634,7.01020322 14,7.12121212 C13.3508668,7.28093157 11.6842001,7.62436591 9,8.15151515 L9,19.0224658 C9,19.5009995 8.80514083,19.7960063 8.46563786,19.9245466 Z M16,9 L20,9 C20.5522847,9 21,9.44771525 21,10 C21,10.5522847 20.5522847,11 20,11 L16,11 C15.4477153,11 15,10.5522847 15,10 C15,9.44771525 15.4477153,9 16,9 Z M14,13 L20,13 C20.5522847,13 21,13.4477153 21,14 C21,14.5522847 20.5522847,15 20,15 L14,15 C13.4477153,15 13,14.5522847 13,14 C13,13.4477153 13.4477153,13 14,13 Z M14,17 L20,17 C20.5522847,17 21,17.4477153 21,18 C21,18.5522847 20.5522847,19 20,19 L14,19 C13.4477153,19 13,18.5522847 13,18 C13,17.4477153 13.4477153,17 14,17 Z"/>
  </g>
</svg>
