<svg width="40" height="40" viewBox="0 0 40 40" fill="none" xmlns="http://www.w3.org/2000/svg">
<g id="AIFF">
<path id="Document" fill-rule="evenodd" clip-rule="evenodd" d="M32.427 36.6666H7.57319C6.76545 36.6666 6.11121 36.018 6.11121 35.2173V4.78253C6.11121 3.9818 6.76545 3.33325 7.57319 3.33325H25.1171L33.889 12.0289V35.2173C33.889 36.018 33.2347 36.6666 32.427 36.6666Z" fill="#F7F7F9"/>
<path id="Intersect" d="M33.8728 12.0127H26.5792C25.7714 12.0127 25.1172 11.3641 25.1172 10.5634V3.33325L33.8728 12.0127Z" fill="#EAEAEA"/>
<path id="Mask" fill-rule="evenodd" clip-rule="evenodd" d="M3.33337 18.3333L6.11115 15.8333V18.3333H33.8889V15.8333L36.6667 18.3333V30.9258C36.6667 31.7955 36.0182 32.4999 35.2174 32.4999H4.78265C3.98192 32.4999 3.33337 31.7955 3.33337 30.9258V18.3333ZM9.49225 27.7955L8.91282 29.8333H6.76438L9.62897 20.9465H12.2592L15.1042 29.8333H12.8126L12.2396 27.7955H9.49225ZM11.8555 26.2395L10.9311 22.8736H10.8334L9.88938 26.2395H11.8555ZM18.1902 20.9465V29.8333H16.0352V20.9465H18.1902ZM22.0704 26.4869V29.8333H19.9154V20.9465H25.8399V22.6718H22.0704V24.8072H25.5014V26.4869H22.0704ZM29.1928 26.4869V29.8333H27.0378V20.9465H32.9623V22.6718H29.1928V24.8072H32.6238V26.4869H29.1928Z" fill="#2397AB"/>
<path id="Shape" opacity="0.5" d="M6.11115 18.3333H3.33337L6.11115 15.8333V18.3333ZM33.8889 18.3333V15.8333L36.6667 18.3333H33.8889Z" fill="#F7F7F9"/>
</g>
</svg>
