<?xml version="1.0" encoding="utf-8"?>
<!-- Generator: Adobe Illustrator 23.0.0, SVG Export Plug-In . SVG Version: 6.00 Build 0)  -->
<svg version="1.1" id="Layer_1" xmlns="http://www.w3.org/2000/svg" xmlns:xlink="http://www.w3.org/1999/xlink" x="0px" y="0px"
	 viewBox="0 0 220 220" style="enable-background:new 0 0 220 220;" xml:space="preserve">
<style type="text/css">
	.st0{filter:url(#filter-2);}
	.st1{fill-rule:evenodd;clip-rule:evenodd;}
	.st2{fill-rule:evenodd;clip-rule:evenodd;fill:#BEBCC9;}
	.st3{filter:url(#Adobe_OpacityMaskFilter);}
	.st4{fill-rule:evenodd;clip-rule:evenodd;fill:#FFFFFF;}
	.st5{mask:url(#mask-4_1_);fill-rule:evenodd;clip-rule:evenodd;fill:#FFFFFF;}
	.st6{filter:url(#Adobe_OpacityMaskFilter_1_);}
	.st7{mask:url(#mask-4_2_);fill-rule:evenodd;clip-rule:evenodd;fill:#FFFFFF;stroke:#BEBCC9;stroke-width:4.2857;}
	.st8{filter:url(#Adobe_OpacityMaskFilter_2_);}
	.st9{mask:url(#mask-4_3_);fill-rule:evenodd;clip-rule:evenodd;fill:#BEBCC9;}
</style>
<filter  filterUnits="objectBoundingBox" height="105.1%" id="filter-2" width="105.1%" x="-2.6%" y="-1.6%">
	<feMorphology  in="SourceAlpha" operator="erode" radius="1" result="shadowSpreadOuter1"></feMorphology>
	<feOffset  dx="0" dy="2" in="shadowSpreadOuter1" result="shadowOffsetOuter1"></feOffset>
	<feGaussianBlur  in="shadowOffsetOuter1" result="shadowBlurOuter1" stdDeviation="2.5"></feGaussianBlur>
	
		<feColorMatrix  in="shadowBlurOuter1" type="matrix" values="0 0 0 0 0.521568627   0 0 0 0 0.505882353   0 0 0 0 0.6  0 0 0 0.5 0">
		</feColorMatrix>
</filter>

<g>
	<g id="xAlpha-Onboarding-step-3" transform="translate(-178.000000, -281.000000)">
		<g transform="translate(181.000000, 282.000000)">
			<g id="Oval">
				<g class="st0">
					<circle id="path-1_1_" class="st1" cx="107" cy="109" r="110"/>
				</g>
				<g>
					<circle class="st2" cx="107" cy="109" r="110"/>
				</g>
			</g>
			<g>
				<circle class="st2" cx="107" cy="109" r="105.1"/>
			</g>
			<defs>
				<filter id="Adobe_OpacityMaskFilter" filterUnits="userSpaceOnUse" x="50" y="62.8" width="112.9" height="156.2">
					<feColorMatrix  type="matrix" values="1 0 0 0 0  0 1 0 0 0  0 0 1 0 0  0 0 0 1 0"/>
				</filter>
			</defs>
			<mask maskUnits="userSpaceOnUse" x="50" y="62.8" width="112.9" height="156.2" id="mask-4_1_">
				<g class="st3">
					<circle id="path-3_1_" class="st4" cx="107" cy="109" r="105.1"/>
				</g>
			</mask>
			<path id="Combined-Shape" class="st5" d="M148.2,219H63.6c-15.9,0-13.5-16.9-13.5-27.8c0-30.2,25.7-55.7,56.3-55.7
				c30.6,0,56.3,25.4,56.3,55.7C162.9,202.1,165.3,219,148.2,219L148.2,219z M105,130.6c-18.4,0-34.4-15.7-34.4-33.9
				s16-33.9,34.4-33.9s34.4,15.7,34.4,33.9S123.5,130.6,105,130.6z"/>
			<defs>
				<filter id="Adobe_OpacityMaskFilter_1_" filterUnits="userSpaceOnUse" x="139" y="141" width="46" height="46">
					<feColorMatrix  type="matrix" values="1 0 0 0 0  0 1 0 0 0  0 0 1 0 0  0 0 0 1 0"/>
				</filter>
			</defs>
			<mask maskUnits="userSpaceOnUse" x="139" y="141" width="46" height="46" id="mask-4_2_">
				<g class="st6">
					<circle id="path-3_2_" class="st4" cx="107" cy="109" r="105.1"/>
				</g>
			</mask>
			<circle class="st7" cx="162" cy="164" r="20.9"/>
			<defs>
				<filter id="Adobe_OpacityMaskFilter_2_" filterUnits="userSpaceOnUse" x="154" y="156.1" width="15.7" height="15.7">
					<feColorMatrix  type="matrix" values="1 0 0 0 0  0 1 0 0 0  0 0 1 0 0  0 0 0 1 0"/>
				</filter>
			</defs>
			<mask maskUnits="userSpaceOnUse" x="154" y="156.1" width="15.7" height="15.7" id="mask-4_3_">
				<g class="st8">
					<circle id="path-3_3_" class="st4" cx="107" cy="109" r="105.1"/>
				</g>
			</mask>
			<path id="save" class="st9" d="M163.9,162h3.9c1.1,0,2,0.9,2,2s-0.9,2-2,2h-3.9v3.9c0,1.1-0.9,2-2,2s-2-0.9-2-2V166H156
				c-1.1,0-2-0.9-2-2s0.9-2,2-2h3.9v-3.9c0-1.1,0.9-2,2-2s2,0.9,2,2V162z"/>
		</g>
	</g>
</g>
</svg>
