<svg width="20" height="20" viewBox="0 0 20 20" fill="none" xmlns="http://www.w3.org/2000/svg">
<path fill-rule="evenodd" clip-rule="evenodd" d="M3.08196 5.17578C3.47095 5.17578 3.88661 5.36237 4.13779 5.63046L9.99935 11.447L15.9432 5.55111C16.1921 5.30875 16.5811 5.17578 16.9168 5.17578C17.6925 5.17578 18.3327 5.79346 18.3327 6.54197C18.3327 6.9173 18.166 7.26689 17.8881 7.53498L10.9996 14.3423C10.7484 14.6104 10.3883 14.8249 9.99935 14.8249C9.63703 14.8249 9.24804 14.5826 8.99908 14.3423L2.11058 7.53498C1.77716 7.21327 1.66602 6.86368 1.66602 6.54197C1.66602 5.79346 2.30397 5.17578 3.08196 5.17578Z" fill="#C2C0CC"/>
</svg>
