<svg width="49" height="48" viewBox="0 0 49 48" fill="none" xmlns="http://www.w3.org/2000/svg">
<path fill-rule="evenodd" clip-rule="evenodd" d="M16 24C16 26.7614 13.7614 29 11 29C8.23858 29 6 26.7614 6 24C6 21.2386 8.23858 19 11 19C13.7614 19 16 21.2386 16 24ZM30 24C30 26.7614 27.7614 29 25 29C22.2386 29 20 26.7614 20 24C20 21.2386 22.2386 19 25 19C27.7614 19 30 21.2386 30 24ZM39 29C41.7614 29 44 26.7614 44 24C44 21.2386 41.7614 19 39 19C36.2386 19 34 21.2386 34 24C34 26.7614 36.2386 29 39 29Z" fill="#858199"/>
</svg>
