<svg width="40" height="40" viewBox="0 0 40 40" fill="none" xmlns="http://www.w3.org/2000/svg">
<g id="OPUS">
<path id="Document" fill-rule="evenodd" clip-rule="evenodd" d="M32.4271 36.6666H7.57326C6.76551 36.6666 6.11127 36.018 6.11127 35.2173V4.78253C6.11127 3.9818 6.76551 3.33325 7.57326 3.33325H25.1171L33.889 12.0289V35.2173C33.889 36.018 33.2348 36.6666 32.4271 36.6666Z" fill="#F7F7F9"/>
<path id="Intersect" d="M33.8728 12.0127H26.5792C25.7714 12.0127 25.1172 11.3641 25.1172 10.5634V3.33325L33.8728 12.0127Z" fill="#EAEAEA"/>
<path id="mask" fill-rule="evenodd" clip-rule="evenodd" d="M3.33331 20L6.11109 17.5V20H33.8889V17.5L36.6666 20V30.0926C36.6666 30.9623 36.0181 31.6667 35.2174 31.6667H4.78259C3.98186 31.6667 3.33331 30.9623 3.33331 30.0926V20ZM14.5654 25.953V26.6971C14.5654 28.4939 13.5219 29.617 11.711 29.617C9.90474 29.617 8.86125 28.4939 8.86125 26.6971V25.953C8.86125 24.1375 9.9141 23.0004 11.7203 23.0004C13.5266 23.0004 14.5654 24.1468 14.5654 25.953ZM12.9838 26.7017V25.9343C12.9838 24.83 12.469 24.2544 11.7157 24.2544C10.9576 24.2544 10.4429 24.83 10.4429 25.9343V26.7017C10.4429 27.8108 10.9576 28.3582 11.7157 28.3582C12.469 28.3582 12.9838 27.8108 12.9838 26.7017ZM15.0736 23.1127H17.7736C19.2429 23.1127 20.0103 24.1234 20.0103 25.3307C20.0103 26.5567 19.2288 27.5253 17.7548 27.5253H16.6178V29.5H15.0736V23.1127ZM17.2354 26.3601C17.9795 26.3601 18.4427 26.0794 18.4427 25.3307C18.4427 24.6662 18.045 24.3012 17.4132 24.3012H16.6131V26.3601H17.2354ZM21.81 27.1042C21.81 27.9184 22.2732 28.3255 22.9471 28.3255C23.6162 28.3255 24.0795 27.909 24.0795 27.1042V23.1127H25.6283V27.3194C25.6283 28.6998 24.6129 29.617 22.9471 29.617C21.2812 29.617 20.2658 28.6998 20.2658 27.3194V23.1127H21.81V27.1042ZM28.5511 29.617C26.5998 29.617 25.9821 28.5548 25.9681 27.6283H27.4421C27.4701 28.0447 27.8632 28.4378 28.6072 28.4378C29.3138 28.4378 29.6507 28.1289 29.6507 27.7078C29.6507 27.3101 29.3278 27.1276 28.7055 26.9965L27.8024 26.8C26.8571 26.6128 26.1038 26.0981 26.1038 24.9844C26.1038 23.707 27.1707 22.991 28.5979 22.991C30.142 22.991 31.0545 23.852 31.0686 24.9423H29.6414C29.6133 24.5446 29.281 24.1562 28.5932 24.1562C27.9895 24.1562 27.6433 24.4416 27.6433 24.8628C27.6433 25.2043 27.9474 25.4149 28.4996 25.5225L29.4261 25.7097C30.3433 25.8875 31.1762 26.3414 31.1762 27.5534C31.1762 28.8028 30.2216 29.617 28.5511 29.617Z" fill="#D851E4"/>
<path id="Shape" opacity="0.5" d="M6.11109 20H3.33331L6.11109 17.5V20ZM33.8889 20V17.5L36.6666 20H33.8889Z" fill="#F7F7F9"/>
</g>
</svg>
