<?xml version="1.0" encoding="UTF-8"?>
<svg width="32px" height="32px" viewBox="0 0 32 32" version="1.1" xmlns="http://www.w3.org/2000/svg" xmlns:xlink="http://www.w3.org/1999/xlink">
    <defs>
    </defs>
    <g id="🗿" stroke="none" stroke-width="1" fill="none" fill-rule="evenodd">
        <g id="icon-upload-sheet" transform="translate(-289.000000, -88.000000)">
            <g id="icon/social/facebook" transform="translate(289.000000, 88.000000)">
                <path d="M30,3.54375 L30,28.45 C30,29.30625 29.30625,29.99375 28.45625,29.99375 L21.31875,29.99375 L21.31875,19.15625 L24.95625,19.15625 L25.5,14.93125 L21.3125,14.93125 L21.3125,12.23125 C21.3125,11.00625 21.65,10.175 23.40625,10.175 L25.64375,10.175 L25.64375,6.39375 C25.25625,6.34375 23.93125,6.225 22.38125,6.225 C19.15625,6.225 16.94375,8.19375 16.94375,11.8125 L16.94375,14.93125 L13.29375,14.93125 L13.29375,19.15625 L16.94375,19.15625 L16.94375,30 L3.54375,30 C2.69375,30 2,29.30625 2,28.45625 L2,3.54375 C2,2.69375 2.69375,2 3.54375,2 L28.45,2 C29.30625,2 30,2.69375 30,3.54375 Z" id="path-1"></path>
            </g>
        </g>
    </g>
</svg>