<svg width="40" height="40" viewBox="0 0 40 40" fill="none" xmlns="http://www.w3.org/2000/svg">
<g id="OGA">
<path id="Document" fill-rule="evenodd" clip-rule="evenodd" d="M32.427 36.6666H7.57319C6.76545 36.6666 6.11121 36.018 6.11121 35.2173V4.78253C6.11121 3.9818 6.76545 3.33325 7.57319 3.33325H25.1171L33.889 12.0289V35.2173C33.889 36.018 33.2347 36.6666 32.427 36.6666Z" fill="#F7F7F9"/>
<path id="Intersect" d="M33.8728 12.0127H26.5792C25.7714 12.0127 25.1172 11.3641 25.1172 10.5634V3.33325L33.8728 12.0127Z" fill="#EAEAEA"/>
<path id="Mask" fill-rule="evenodd" clip-rule="evenodd" d="M3.33337 18.3333L6.11115 15.8333V18.3333H33.8889V15.8333L36.6667 18.3333V30.9258C36.6667 31.7955 36.0182 32.4999 35.2174 32.4999H4.78265C3.98192 32.4999 3.33337 31.7955 3.33337 30.9258V18.3333ZM15.4232 24.8984V25.9335C15.4232 28.4335 13.9714 29.996 11.4519 29.996C8.93886 29.996 7.48704 28.4335 7.48704 25.9335V24.8984C7.48704 22.3723 8.95188 20.7903 11.4649 20.7903C13.9779 20.7903 15.4232 22.3853 15.4232 24.8984ZM13.2227 25.94V24.8723C13.2227 23.3359 12.5066 22.5351 11.4584 22.5351C10.4037 22.5351 9.68756 23.3359 9.68756 24.8723V25.94C9.68756 27.483 10.4037 28.2447 11.4584 28.2447C12.5066 28.2447 13.2227 27.483 13.2227 25.94ZM20.3712 20.7903C22.754 20.7903 23.9975 22.2681 24.0365 23.8827H21.9532C21.862 23.1275 21.3087 22.5481 20.3581 22.5481C19.2253 22.5481 18.6068 23.3684 18.6068 24.8137V25.8879C18.6068 27.2226 19.0756 28.2317 20.4167 28.2317C21.4324 28.2317 22.0183 27.5872 22.0183 26.8385V26.4609H20.4753V24.9504H24.043V26.6757C24.043 28.4075 22.8646 29.996 20.3646 29.996C17.6172 29.996 16.4324 28.2187 16.4324 25.8945V24.7942C16.4324 22.4309 17.8256 20.7903 20.3712 20.7903ZM27.3373 27.7955L26.7579 29.8333H24.6094L27.474 20.9465H30.1042L32.9493 29.8333H30.6576L30.0847 27.7955H27.3373ZM29.7006 26.2395L28.7761 22.8736H28.6784L27.7344 26.2395H29.7006Z" fill="#1758AA"/>
<path id="Shape" opacity="0.5" d="M6.11115 18.3333H3.33337L6.11115 15.8333V18.3333ZM33.8889 18.3333V15.8333L36.6667 18.3333H33.8889Z" fill="#F7F7F9"/>
</g>
</svg>
