<?xml version="1.0" encoding="UTF-8"?>
<svg width="24px" height="24px" viewBox="0 0 24 24" version="1.1" xmlns="http://www.w3.org/2000/svg" xmlns:xlink="http://www.w3.org/1999/xlink">
    <g id="Assets" stroke="none" stroke-width="1" fill="none" fill-rule="evenodd">
        <g id="assets" transform="translate(-758.000000, -2462.000000)" fill="#858199">
            <g id="icon/refresh" transform="translate(758.000000, 2462.000000)">
                <path d="M8.5,8.5 L10.6,10.6 L4.2,11.3 L4.9,4.9 L7.1,7.1 C9.9,4.4 14.3,4.4 17,7.1 C18,8.1 18.7,9.4 18.9,10.9 L16.9,11.2 C16.7,10.2 16.2,9.2 15.5,8.5 C13.6,6.6 10.4,6.6 8.5,8.5 Z M19.8,12.7 L19,19.1 L16.8,16.9 C15.5,18.2 13.7,18.9 11.9,18.9 C10.1,18.9 8.4,18.3 7,16.9 C6,15.9 5.3,14.6 5.1,13.1 L7.1,12.8 C7.3,13.8 7.8,14.8 8.5,15.5 C10.4,17.4 13.6,17.4 15.5,15.5 L13.4,13.4 L19.8,12.7 Z" id="Fill"></path>
            </g>
        </g>
    </g>
</svg>