<?xml version="1.0" encoding="UTF-8"?>
<svg width="24px" height="24px" viewBox="0 0 24 24" version="1.1" xmlns="http://www.w3.org/2000/svg" xmlns:xlink="http://www.w3.org/1999/xlink">
    <g id="Assets" stroke="none" stroke-width="1" fill="none" fill-rule="evenodd">
        <g id="assets" transform="translate(-763.000000, -847.000000)">
            <g id="icon/check" transform="translate(763.000000, 847.000000)">
                <rect id="bound" x="0" y="0" width="24" height="24"></rect>
                <path d="M15.915269,17.6438612 C15.9218506,17.7579434 15.915411,17.874588 15.8947051,17.9920168 C15.7508502,18.8078582 14.9728627,19.352611 14.1570212,19.2087561 L9.23298244,18.3405152 C8.41714098,18.1966604 7.87238821,17.4186728 8.01624307,16.6028313 C8.16009793,15.7869899 8.93808551,15.2422371 9.75392697,15.386092 L12.9554741,15.9506111 L12.9554741,4.29742406 C12.9554741,3.46899693 13.627047,2.79742406 14.4554741,2.79742406 C15.2839012,2.79742406 15.9554741,3.46899693 15.9554741,4.29742406 L15.9554741,17.2974241 C15.9554741,17.4166644 15.9415608,17.5326551 15.915269,17.6438612 Z" id="Combined-Shape" fill="#858199" fill-rule="evenodd" transform="translate(11.974339, 11.014610) rotate(35.000000) translate(-11.974339, -11.014610) "></path>
            </g>
        </g>
    </g>
</svg>