<?xml version="1.0" encoding="UTF-8"?>
<svg width="24px" height="24px" viewBox="0 0 24 24" version="1.1" xmlns="http://www.w3.org/2000/svg" xmlns:xlink="http://www.w3.org/1999/xlink">
    <g id="🗿" stroke="none" stroke-width="1" fill="none" fill-rule="evenodd">
        <g id="icon-upload-sheet" transform="translate(-112.000000, -424.000000)">
            <g id="icon/CreatePlaylist" transform="translate(112.000000, 424.000000)">
                <path d="M15,10 L15,7.53333333 C15,7.23889778 15.2239667,7 15.5,7 L16.5,7 C16.7760333,7 17,7.23889778 17,7.53333333 L17,10 L19.4666667,10 C19.7611022,10 20,10.2239667 20,10.5 L20,11.5 C20,11.7760333 19.7611022,12 19.4666667,12 L17,12 L17,14.4666667 C17,14.7611022 16.7760333,15 16.5,15 L15.5,15 C15.2239667,15 15,14.7611022 15,14.4666667 L15,12 L12.5333333,12 C12.2388978,12 12,11.7760333 12,11.5 L12,10.5 C12,10.2239667 12.2388978,10 12.5333333,10 L15,10 Z M4.42857143,9 C4.19197143,9 4,8.77603333 4,8.5 L4,7.5 C4,7.22396667 4.19197143,7 4.42857143,7 L12.5714286,7 C12.8080286,7 13,7.22396667 13,7.5 L13,8.5 C13,8.77603333 12.8080286,9 12.5714286,9 L4.42857143,9 Z M4.4,11.9999957 C4.17917333,11.9999957 4,11.776029 4,11.4999957 L4,10.4999957 C4,10.2239624 4.17917333,9.99999571 4.4,9.99999571 L9.6,9.99999571 C9.82082667,9.99999571 10,10.2239624 10,10.4999957 L10,11.4999957 C10,11.776029 9.82082667,11.9999957 9.6,11.9999957 L4.4,11.9999957 Z M4.6,14.9999914 C4.26876,14.9999914 4,14.7760248 4,14.4999914 L4,13.4999914 C4,13.2239581 4.26876,12.9999914 4.6,12.9999914 L12.4,12.9999914 C12.73124,12.9999914 13,13.2239581 13,13.4999914 L13,14.4999914 C13,14.7760248 12.73124,14.9999914 12.4,14.9999914 L4.6,14.9999914 Z M19.5,15.9999871 C19.7760333,15.9999871 20,16.2239538 20,16.4999871 L20,17.4999871 C20,17.7760205 19.7760333,17.9999871 19.5,17.9999871 L4.5,17.9999871 C4.22396667,17.9999871 4,17.7760205 4,17.4999871 L4,16.4999871 C4,16.2239538 4.22396667,15.9999871 4.5,15.9999871 L19.5,15.9999871 Z" id="Combined-Shape" fill="#858199" fill-rule="evenodd"></path>
                <rect id="bound" x="0" y="0" width="24" height="24"></rect>
            </g>
        </g>
    </g>
</svg>