<?xml version="1.0" encoding="UTF-8"?>
<svg width="24px" height="24px" viewBox="0 0 24 24" version="1.1" xmlns="http://www.w3.org/2000/svg" xmlns:xlink="http://www.w3.org/1999/xlink">
    <g id="🗿" stroke="none" stroke-width="1" fill="none" fill-rule="evenodd">
        <g id="icon-upload-sheet" transform="translate(-149.000000, -856.000000)" fill="#858199">
            <g id="icon/pause" transform="translate(149.000000, 856.000000)">
                <path d="M6,5 L9,5 C9.55228475,5 10,5.44771525 10,6 L10,18 C10,18.5522847 9.55228475,19 9,19 L6,19 C5.44771525,19 5,18.5522847 5,18 L5,6 C5,5.44771525 5.44771525,5 6,5 Z M15,5 L18,5 C18.5522847,5 19,5.44771525 19,6 L19,18 C19,18.5522847 18.5522847,19 18,19 L15,19 C14.4477153,19 14,18.5522847 14,18 L14,6 C14,5.44771525 14.4477153,5 15,5 Z" id="Combined-Shape"></path>
            </g>
        </g>
    </g>
</svg>