<svg width="40" height="40" viewBox="0 0 40 40" fill="none" xmlns="http://www.w3.org/2000/svg">
<g id="TSV">
<path id="Document" fill-rule="evenodd" clip-rule="evenodd" d="M32.427 36.6666H7.57319C6.76545 36.6666 6.11121 36.018 6.11121 35.2173V4.78253C6.11121 3.9818 6.76545 3.33325 7.57319 3.33325H25.1171L33.889 12.0289V35.2173C33.889 36.018 33.2347 36.6666 32.427 36.6666Z" fill="#F7F7F9"/>
<path id="Intersect" d="M33.8728 12.0127H26.5792C25.7714 12.0127 25.1172 11.3641 25.1172 10.5634V3.33325L33.8728 12.0127Z" fill="#EAEAEA"/>
<path id="Mask" fill-rule="evenodd" clip-rule="evenodd" d="M3.33337 18.3333L6.11115 15.8333V18.3333H33.8889V15.8333L36.6667 18.3333V30.9258C36.6667 31.7955 36.0182 32.4999 35.2174 32.4999H4.78265C3.98192 32.4999 3.33337 31.7955 3.33337 30.9258V18.3333ZM12.8516 22.7043V29.8333H10.7032V22.7043H8.28782V20.9465H15.2735V22.7043H12.8516ZM19.3295 29.996C16.6146 29.996 15.7553 28.5181 15.7357 27.2291H17.7865C17.8256 27.8085 18.3725 28.3554 19.4076 28.3554C20.3907 28.3554 20.8594 27.9257 20.8594 27.3398C20.8594 26.7864 20.4102 26.5325 19.5443 26.3502L18.2878 26.0767C16.9727 25.8163 15.9245 25.1002 15.9245 23.5507C15.9245 21.7734 17.4089 20.7773 19.3946 20.7773C21.543 20.7773 22.8126 21.9752 22.8321 23.4921H20.8464C20.8074 22.9387 20.3451 22.3984 19.3881 22.3984C18.5482 22.3984 18.0665 22.7955 18.0665 23.3814C18.0665 23.8567 18.4896 24.1497 19.2579 24.2994L20.5469 24.5598C21.823 24.8072 22.9818 25.4387 22.9818 27.1249C22.9818 28.8632 21.6537 29.996 19.3295 29.996ZM28.9844 29.8333H26.2761L23.4506 20.9465H25.9506L27.6433 27.5221H27.7344L29.4011 20.9465H31.7709L28.9844 29.8333Z" fill="#8C2894"/>
<path id="Shape" opacity="0.5" d="M6.11115 18.3333H3.33337L6.11115 15.8333V18.3333ZM33.8889 18.3333V15.8333L36.6667 18.3333H33.8889Z" fill="#F7F7F9"/>
</g>
</svg>
