<svg width="512" height="48" viewBox="0 0 48 48" fill="none" xmlns="http://www.w3.org/2000/svg">
<path fill-rule="evenodd" clip-rule="evenodd" d="M19.639 0.0898358C19.5818 0.139277 19.3228 0.567038 19.0635 1.04044C18.8042 1.51384 18.5158 2.03628 18.4226 2.20141C18.3294 2.36655 18.0501 2.87098 17.8021 3.32236C17.554 3.77374 17.2751 4.27816 17.1823 4.4433C17.0896 4.60844 16.9091 4.93272 16.7812 5.16391C16.6533 5.39511 16.4603 5.74164 16.3523 5.934C16.2442 6.12636 16.1677 6.30307 16.1823 6.32669C16.1969 6.35027 16.3737 6.44751 16.5752 6.54271C16.9803 6.73415 17.4595 6.95982 17.9922 7.20995C18.1848 7.30043 18.5089 7.45356 18.7125 7.55024C18.9161 7.64696 19.2493 7.80518 19.4529 7.9019C19.8219 8.07716 20.2025 8.25628 20.9237 8.59412C21.1328 8.69208 21.4241 8.83152 21.571 8.90394C21.7179 8.97636 21.8551 9.02472 21.876 9.01139C21.8968 8.99806 22.1298 8.62683 22.3938 8.18646C22.6579 7.74609 23.2388 6.78227 23.6847 6.04465C24.1307 5.30703 24.7095 4.34958 24.9708 3.91698C25.2595 3.4391 25.446 3.08892 25.446 3.02463C25.446 2.59515 24.6194 1.88315 23.2249 1.11166C22.8218 0.888669 22.1055 0.554828 21.7041 0.4029C21.572 0.352937 21.4279 0.297891 21.3839 0.280677C21.2793 0.239642 20.7874 0.0920777 20.5835 0.0405142C20.4955 0.0182155 20.2703 1.00168e-07 20.0832 1.00168e-07C19.7882 -3.99336e-05 19.7293 0.0118901 19.639 0.0898358ZM26.7071 3.1095C26.5926 3.14153 26.6921 2.98568 25.4461 5.08384C25.0211 5.79945 24.517 6.64616 24.3257 6.96543C23.5366 8.28266 22.9728 9.2349 22.9112 9.35448L22.8457 9.48163L22.9753 9.56013C23.0465 9.60329 23.3479 9.76479 23.6451 9.91904C23.9423 10.0732 24.3655 10.2935 24.5856 10.4084C24.8057 10.5233 25.2469 10.7537 25.5661 10.9202C25.8853 11.0868 26.183 11.2425 26.2277 11.2661C26.4797 11.3993 26.7199 11.6943 26.8396 12.0174C27.0764 12.6569 27.0325 13.6752 26.7086 15.0578C26.6345 15.374 26.586 15.6455 26.6008 15.6612C26.6155 15.6769 26.7175 15.5603 26.8272 15.402C27.0715 15.0499 27.412 14.5565 27.7593 14.0514C27.9032 13.8422 28.1169 13.5314 28.2342 13.3608C28.3516 13.1902 28.5467 12.9064 28.6677 12.7303C28.7888 12.5541 28.9869 12.2659 29.108 12.0897C29.229 11.9136 29.4271 11.6254 29.5482 11.4492C29.6692 11.2731 29.8673 10.9848 29.9884 10.8087C30.1095 10.6325 30.3076 10.3443 30.4286 10.1681C30.5497 9.99198 30.7478 9.70374 30.8689 9.52759C30.9899 9.35144 31.1912 9.05867 31.316 8.87704C31.4409 8.69541 31.6246 8.42966 31.7244 8.28654C32.3294 7.41809 32.5698 7.03268 32.5698 6.93088C32.5698 6.48246 31.6703 5.59519 30.2555 4.6478C29.805 4.34618 29.6101 4.22384 29.208 3.99052C28.8751 3.79736 28.1595 3.44863 27.8465 3.32712C27.6598 3.25466 27.4686 3.1802 27.4215 3.16166C27.3094 3.11751 26.8092 3.081 26.7071 3.1095ZM14.4603 6.95054C14.1197 7.03713 13.9151 7.24362 13.4385 7.9818C13.2301 8.30464 12.8615 8.87408 12.6194 9.24723C12.3772 9.62039 12.026 10.1637 11.8389 10.4545C11.6518 10.7454 11.3727 11.1778 11.2186 11.4154C11.0645 11.653 10.7854 12.0853 10.5983 12.3762C10.4112 12.667 10.1291 13.1044 9.97129 13.3481C9.81353 13.5918 9.56828 13.9713 9.42629 14.1915C9.28433 14.4117 9.01659 14.8261 8.83138 15.1123C8.64612 15.3985 8.3871 15.7994 8.25576 16.003C8.12441 16.2066 7.93227 16.5039 7.82873 16.6635C7.42512 17.286 7.19232 17.6961 7.09275 17.9599C6.99894 18.2082 6.99058 18.2757 7.00634 18.6553C7.03204 19.2729 7.01987 19.2509 8.54815 21.4376C8.90209 21.944 9.25155 22.4446 9.32471 22.55C9.39783 22.6554 9.52074 22.8304 9.59777 22.939C9.74757 23.1501 10.0925 23.6457 11.1657 25.1922C11.2388 25.2976 11.3617 25.4726 11.4387 25.5811C11.5158 25.6896 11.6387 25.8646 11.7119 25.97C12.0645 26.4778 13.1682 28.064 13.2797 28.2233C13.4056 28.4032 14.8758 30.5144 15.1277 30.877C15.2009 30.9824 15.3238 31.1574 15.4008 31.2659C15.4778 31.3744 15.6007 31.5494 15.6739 31.6548C15.747 31.7602 16.0898 32.2517 16.4355 32.7472C16.7812 33.2426 17.17 33.801 17.2994 33.9882C17.4288 34.1754 17.5681 34.3739 17.609 34.4293C17.6825 34.529 17.6774 34.5705 17.1821 37.8922C16.9064 39.7414 16.6275 41.6056 16.5623 42.035C16.4971 42.4643 16.2902 43.8515 16.1025 45.1176C15.9148 46.3836 15.7431 47.5291 15.721 47.663C15.699 47.7969 15.6809 47.9275 15.6809 47.9532C15.6809 47.9888 17.9071 48 24.9458 48H34.2106V42.2498V36.4997L36.028 32.8319C38.6903 27.4589 39.4859 25.8356 39.6154 25.513C39.7831 25.0951 39.9248 24.4987 39.9958 23.9121C40.0749 23.2589 40.1251 21.1374 40.0615 21.1374C40.0234 21.1374 39.5911 21.5667 38.8283 22.362C38.7208 22.474 38.2097 23.0037 37.6924 23.539C37.1752 24.0743 36.6709 24.5968 36.5718 24.7001C36.4728 24.8035 35.9573 25.3367 35.4263 25.8851C34.8953 26.4335 34.3544 26.994 34.2244 27.1307L33.9879 27.3791L33.569 27.1674C33.3386 27.0509 32.8259 26.7882 32.4297 26.5835C31.7306 26.2224 31.0951 25.8952 29.5776 25.115C28.858 24.745 28.8461 24.7405 28.8085 24.8298C28.7875 24.8797 28.625 25.7042 28.4474 26.662C28.2697 27.6198 27.9985 29.0701 27.8447 29.8847C27.6909 30.6994 27.5196 31.6092 27.4641 31.9064C27.4086 32.2037 27.3433 32.5524 27.3191 32.6813C27.2878 32.8475 27.2649 32.8979 27.2406 32.8545C27.2218 32.8207 27.0996 32.373 26.9691 31.8594C26.2287 28.9447 25.2365 26.592 23.8918 24.5625C23.5669 24.0722 23.1854 23.5392 23.0115 23.3326C22.9682 23.2812 22.8278 23.113 22.6995 22.9589C21.2555 21.2246 19.3603 19.7434 17.3018 18.7402C16.8558 18.5229 16.5721 18.3923 16.4205 18.3346C16.3648 18.3135 16.3093 18.2703 16.2971 18.2386C16.285 18.207 16.3642 18.0131 16.4732 17.8077C16.5821 17.6023 16.936 16.9253 17.2597 16.3033C17.5832 15.6813 17.8632 15.1723 17.8819 15.1723C17.9005 15.1723 18.1197 15.2686 18.3692 15.3862C18.6185 15.5039 18.9306 15.6407 19.0627 15.6904C19.1948 15.74 19.3389 15.7956 19.3829 15.8138C19.4269 15.8321 19.58 15.8823 19.7231 15.9255C19.9603 15.9971 20.1195 16.0359 20.5835 16.1352C21.0271 16.2301 21.6813 16.2653 22.1114 16.2173C23.3601 16.0781 24.1602 15.708 24.9677 14.896C25.3954 14.466 25.566 14.2279 25.8023 13.7311C26.0759 13.1561 26.1604 12.6247 26.0284 12.3087C25.9757 12.1825 25.9059 12.1388 25.258 11.8257C24.3265 11.3755 23.769 11.1074 23.2049 10.8379C22.9517 10.717 22.5105 10.5057 22.2244 10.3683C21.9382 10.2309 21.497 10.0195 21.2438 9.89854C20.9907 9.77756 20.563 9.57255 20.2934 9.44296C20.0237 9.31337 19.5825 9.10131 19.3128 8.97172C19.0432 8.84213 18.6245 8.64188 18.3824 8.52674C18.1402 8.41161 17.726 8.21352 17.4619 8.08657C15.4204 7.10543 15.3997 7.0957 15.2002 7.02532C15.0203 6.96179 14.5879 6.91811 14.4603 6.95054ZM33.2281 8.218C33.1573 8.29959 32.3803 9.35308 31.1697 11.0088C30.6718 11.6897 30.1875 12.351 29.5133 13.2707C28.856 14.1674 28.3132 14.9087 27.8795 15.5021C27.666 15.7941 27.3319 16.2493 27.1369 16.5135C26.4144 17.4926 26.2465 17.7403 26.2465 17.827C26.2465 17.9441 26.375 18.1793 26.6005 18.4751C26.8194 18.7621 27.6923 19.6457 28.1665 20.0602C28.353 20.2233 28.5258 20.3747 28.5503 20.3967C28.5749 20.4188 28.6548 20.4818 28.7278 20.5369C28.8008 20.5919 28.8806 20.655 28.9052 20.677C29.3057 21.0359 30.0737 21.4964 30.2733 21.4973C30.3534 21.4976 30.4888 21.3677 31.0066 20.7939C31.1043 20.6855 31.2664 20.5066 31.3668 20.3962C31.4671 20.2859 31.6843 20.0442 31.8494 19.8593C32.0145 19.6743 32.1677 19.5034 32.1898 19.4795C32.212 19.4555 32.4818 19.1567 32.7895 18.8154C33.0971 18.4741 33.3581 18.1859 33.3695 18.1749C33.3809 18.1639 33.5433 17.9837 33.7303 17.7745C33.9174 17.5654 34.0885 17.3746 34.1105 17.3507C34.1974 17.2564 34.7545 16.6383 34.8109 16.5735C34.8439 16.5357 35.006 16.3555 35.1711 16.1732C35.3362 15.9908 35.4983 15.8107 35.5313 15.7728C35.5982 15.6963 36.1686 15.0639 36.2323 14.9957C36.2682 14.9573 36.6768 14.5034 37.6924 13.3739C37.8575 13.1903 38.025 12.9929 38.0647 12.9353C38.3527 12.5166 37.5205 11.2994 35.9708 9.8724C34.721 8.72155 33.454 7.95734 33.2281 8.218ZM38.117 14.3843C38.0266 14.4793 37.8805 14.6371 37.7925 14.735C37.7044 14.8329 37.4613 15.1018 37.2522 15.3325C37.0431 15.5633 36.854 15.7721 36.832 15.7966C36.81 15.8212 36.6389 16.0088 36.4518 16.2135C36.2647 16.4182 36.0846 16.6165 36.0516 16.6541C36.0186 16.6916 35.8565 16.8716 35.6914 17.0539C35.5263 17.2363 35.3642 17.4162 35.3312 17.4538C35.2483 17.5481 34.6376 18.2179 34.3726 18.5052C34.2526 18.6353 34.1205 18.7809 34.0792 18.8286C34.0378 18.8764 33.8569 19.0759 33.6771 19.2719C33.4973 19.468 33.3231 19.6591 33.2901 19.6966C33.2571 19.7342 33.095 19.9141 32.9299 20.0965C32.7649 20.2788 32.6028 20.4588 32.5698 20.4963C32.5207 20.5521 31.9412 21.1879 31.7886 21.3534C31.7662 21.3777 31.5884 21.5751 31.3936 21.792C31.0436 22.1817 31.0397 22.1884 31.0592 22.3618C31.139 23.0696 33.3121 25.3009 33.9217 25.3009C33.9719 25.3009 34.1879 25.123 34.6751 24.6805C34.8688 24.5046 35.397 24.028 35.4518 23.9798C35.4893 23.9467 35.6511 23.8026 35.8114 23.6595C35.9718 23.5164 36.1336 23.3723 36.1711 23.3392C36.2086 23.3062 36.3887 23.1441 36.5714 22.9789C36.9548 22.6323 36.886 22.6942 37.3723 22.2583C37.8585 21.8224 37.7897 21.8843 38.1731 21.5377C38.3558 21.3726 38.5359 21.2104 38.5734 21.1774C38.6109 21.1444 38.7728 21.0003 38.9331 20.8571C39.0934 20.714 39.2552 20.5699 39.2927 20.5369C39.3302 20.5038 39.5033 20.3476 39.6773 20.1897C39.8513 20.0318 40.0314 19.8697 40.0775 19.8294C40.1236 19.7892 40.3037 19.627 40.4777 19.4691C40.6517 19.3112 40.8391 19.1431 40.8941 19.0956C40.9491 19.0482 41.1356 18.8813 41.3084 18.7248L41.6227 18.4403L41.6067 18.1775C41.5814 17.7606 41.2308 17.1089 40.539 16.1932C40.2298 15.7839 40.1431 15.6797 39.7935 15.2959C39.1572 14.5975 38.6572 14.215 38.3771 14.2124C38.3157 14.2119 38.2226 14.2734 38.117 14.3843ZM23.7251 36.0314C23.9343 36.1202 24.1414 36.2079 24.1854 36.2262C24.2294 36.2445 24.3104 36.2782 24.3655 36.3011C24.8872 36.5183 25.601 36.741 26.0664 36.8316C26.6648 36.9482 27.0862 36.9883 27.7272 36.9897C28.4797 36.9914 28.7579 36.9639 29.9084 36.7747C30.3791 36.6974 30.3922 36.7308 29.9959 36.9979C29.8597 37.0897 29.7393 37.1767 29.7283 37.1911C29.7173 37.2055 29.5732 37.3105 29.4081 37.4242C28.9789 37.7201 28.752 37.8809 28.6068 37.9922C28.4833 38.0869 28.1827 38.2988 27.7979 38.5624C27.6816 38.642 27.5934 38.7386 27.5697 38.8123C27.5484 38.8783 27.4207 39.5899 27.2861 40.3936C27.1514 41.1973 26.9793 42.2151 26.9036 42.6555C26.8279 43.0959 26.6616 44.0772 26.534 44.8362C26.383 45.7346 26.2898 46.1962 26.2667 46.1588C26.2472 46.1273 26.1549 44.411 26.0614 42.3448C25.9681 40.2787 25.8848 38.5676 25.8764 38.5424C25.868 38.5173 25.268 37.906 24.543 37.184C23.818 36.4619 23.2519 35.8709 23.2849 35.8706C23.3179 35.8702 23.516 35.9426 23.7251 36.0314Z" fill="black"/>
</svg>
