<svg width="40" height="40" viewBox="0 0 40 40" fill="none" xmlns="http://www.w3.org/2000/svg">
<g id="WAVE">
<path id="Document" fill-rule="evenodd" clip-rule="evenodd" d="M32.427 36.6666H7.57319C6.76545 36.6666 6.11121 36.018 6.11121 35.2173V4.78253C6.11121 3.9818 6.76545 3.33325 7.57319 3.33325H25.1171L33.889 12.0289V35.2173C33.889 36.018 33.2347 36.6666 32.427 36.6666Z" fill="#F7F7F9"/>
<path id="Intersect" d="M33.8728 12.0127H26.5792C25.7714 12.0127 25.1172 11.3641 25.1172 10.5634V3.33325L33.8728 12.0127Z" fill="#EAEAEA"/>
<path id="mask" fill-rule="evenodd" clip-rule="evenodd" d="M3.33337 20L6.11115 17.5V20H33.8889V17.5L36.6667 20V30.0926C36.6667 30.9623 36.0182 31.6667 35.2174 31.6667H4.78265C3.98192 31.6667 3.33337 30.9623 3.33337 30.0926V20ZM12.3849 25.443L11.2993 29.5H9.85801L8.22024 23.1127H9.83929L10.6722 27.3943H10.7377L11.7812 23.1127H13.0447L14.0882 27.3943H14.1583L14.9819 23.1127H16.601L14.9632 29.5H13.522L12.441 25.443H12.3849ZM17.783 28.0354L17.3665 29.5H15.8223L17.8812 23.1127H19.7717L21.8166 29.5H20.1695L19.7577 28.0354H17.783ZM19.4816 26.917L18.8171 24.4978H18.7469L18.0684 26.917H19.4816ZM24.8423 29.5H22.8956L20.8648 23.1127H22.6617L23.8783 27.8388H23.9438L25.1417 23.1127H26.845L24.8423 29.5ZM28.5792 28.274H31.34V29.5H27.0491V23.1127H31.34V24.3387H28.5792V25.7191H31.1669V26.8515H28.5792V28.274Z" fill="#CB2C9C"/>
<path id="Shape" opacity="0.5" d="M6.11115 20H3.33337L6.11115 17.5V20ZM33.8889 20V17.5L36.6667 20H33.8889Z" fill="#F7F7F9"/>
</g>
</svg>
