<?xml version="1.0" encoding="UTF-8"?>
<svg width="22px" height="24px" viewBox="0 0 22 24" version="1.1" xmlns="http://www.w3.org/2000/svg" xmlns:xlink="http://www.w3.org/1999/xlink">
    <g id="🗿" stroke="none" stroke-width="1" fill="none" fill-rule="evenodd">
        <g id="Icon-Guide" transform="translate(-68.000000, -1591.000000)">
            <g id="Stacked-Group-2" transform="translate(63.000000, 199.000000)">
                <g id="icon/calendar" transform="translate(4.000000, 1392.000000)">
                    <path d="M21.9375,7.5 L2.0625,7.5 C1.753125,7.5 1.5,7.246875 1.5,6.9375 L1.5,5.25 C1.5,4.0078125 2.5078125,3 3.75,3 L6,3 L6,0.5625 C6,0.253125 6.253125,0 6.5625,0 L8.4375,0 C8.746875,0 9,0.253125 9,0.5625 L9,3 L15,3 L15,0.5625 C15,0.253125 15.253125,0 15.5625,0 L17.4375,0 C17.746875,0 18,0.253125 18,0.5625 L18,3 L20.25,3 C21.4921875,3 22.5,4.0078125 22.5,5.25 L22.5,6.9375 C22.5,7.246875 22.246875,7.5 21.9375,7.5 Z M2.0625,9 L21.9375,9 C22.246875,9 22.5,9.253125 22.5,9.5625 L22.5,21.75 C22.5,22.9921875 21.4921875,24 20.25,24 L3.75,24 C2.5078125,24 1.5,22.9921875 1.5,21.75 L1.5,9.5625 C1.5,9.253125 1.753125,9 2.0625,9 Z M7.5,18.5625 C7.5,18.253125 7.246875,18 6.9375,18 L5.0625,18 C4.753125,18 4.5,18.253125 4.5,18.5625 L4.5,20.4375 C4.5,20.746875 4.753125,21 5.0625,21 L6.9375,21 C7.246875,21 7.5,20.746875 7.5,20.4375 L7.5,18.5625 Z M7.5,12.5625 C7.5,12.253125 7.246875,12 6.9375,12 L5.0625,12 C4.753125,12 4.5,12.253125 4.5,12.5625 L4.5,14.4375 C4.5,14.746875 4.753125,15 5.0625,15 L6.9375,15 C7.246875,15 7.5,14.746875 7.5,14.4375 L7.5,12.5625 Z M13.5,18.5625 C13.5,18.253125 13.246875,18 12.9375,18 L11.0625,18 C10.753125,18 10.5,18.253125 10.5,18.5625 L10.5,20.4375 C10.5,20.746875 10.753125,21 11.0625,21 L12.9375,21 C13.246875,21 13.5,20.746875 13.5,20.4375 L13.5,18.5625 Z M13.5,12.5625 C13.5,12.253125 13.246875,12 12.9375,12 L11.0625,12 C10.753125,12 10.5,12.253125 10.5,12.5625 L10.5,14.4375 C10.5,14.746875 10.753125,15 11.0625,15 L12.9375,15 C13.246875,15 13.5,14.746875 13.5,14.4375 L13.5,12.5625 Z M19.5,18.5625 C19.5,18.253125 19.246875,18 18.9375,18 L17.0625,18 C16.753125,18 16.5,18.253125 16.5,18.5625 L16.5,20.4375 C16.5,20.746875 16.753125,21 17.0625,21 L18.9375,21 C19.246875,21 19.5,20.746875 19.5,20.4375 L19.5,18.5625 Z M19.5,12.5625 C19.5,12.253125 19.246875,12 18.9375,12 L17.0625,12 C16.753125,12 16.5,12.253125 16.5,12.5625 L16.5,14.4375 C16.5,14.746875 16.753125,15 17.0625,15 L18.9375,15 C19.246875,15 19.5,14.746875 19.5,14.4375 L19.5,12.5625 Z" id="Mask" fill="#858199" fill-rule="evenodd"></path>
                    <rect id="Rectangle" x="0" y="0" width="24" height="24"></rect>
                </g>
            </g>
        </g>
    </g>
</svg>