<svg width="16" height="16" viewBox="0 0 16 16" fill="none" xmlns="http://www.w3.org/2000/svg">
<path fill-rule="evenodd" clip-rule="evenodd" d="M3.91098 1.65977L8.00004 5.74799L12.0891 1.65977C12.5245 1.22441 13.2303 1.22441 13.6657 1.65977L14.3402 2.33427C14.7755 2.76964 14.7755 3.4755 14.3402 3.91086L10.252 7.99992L14.3402 12.089C14.7755 12.5243 14.7755 13.2302 14.3402 13.6656L13.6657 14.3401C13.2303 14.7754 12.5245 14.7754 12.0891 14.3401L8.00004 10.2518L3.91098 14.3401C3.47562 14.7754 2.76976 14.7754 2.3344 14.3401L1.6599 13.6656C1.22453 13.2302 1.22453 12.5243 1.6599 12.089L5.74812 7.99992L1.6599 3.91086C1.22453 3.4755 1.22453 2.76964 1.6599 2.33427L2.3344 1.65977C2.76976 1.22441 3.47562 1.22441 3.91098 1.65977Z" fill="#C2C0CC"/>
</svg>
