<svg width="40" height="40" viewBox="0 0 40 40" fill="none" xmlns="http://www.w3.org/2000/svg">
<g id="MP2">
<path id="Document" fill-rule="evenodd" clip-rule="evenodd" d="M32.4271 36.6666H7.57326C6.76551 36.6666 6.11127 36.018 6.11127 35.2173V4.78253C6.11127 3.9818 6.76551 3.33325 7.57326 3.33325H25.1171L33.889 12.0289V35.2173C33.889 36.018 33.2348 36.6666 32.4271 36.6666Z" fill="#F7F7F9"/>
<path id="Intersect" d="M33.8728 12.0127H26.5792C25.7714 12.0127 25.1172 11.3641 25.1172 10.5634V3.33325L33.8728 12.0127Z" fill="#EAEAEA"/>
<path id="Mask" fill-rule="evenodd" clip-rule="evenodd" d="M3.33331 18.3333L6.11109 15.8333V18.3333H33.8889V15.8333L36.6666 18.3333V30.9258C36.6666 31.7955 36.0181 32.4999 35.2174 32.4999H4.78259C3.98186 32.4999 3.33331 31.7955 3.33331 30.9258V18.3333ZM9.60286 24.332V29.8333H7.6888V20.9465H9.91536L12.194 25.9661H12.2591L14.5443 20.9465H16.7448V29.8333H14.8112V24.332H14.7201L12.8451 28.4921H11.582L9.70052 24.332H9.60286ZM18.4896 20.9465H22.2461C24.2904 20.9465 25.3581 22.3528 25.3581 24.0325C25.3581 25.7382 24.2708 27.0859 22.2201 27.0859H20.638V29.8333H18.4896V20.9465ZM21.4974 25.4648C22.5326 25.4648 23.1771 25.0741 23.1771 24.0325C23.1771 23.108 22.6237 22.6002 21.7448 22.6002H20.6315V25.4648H21.4974ZM28.1576 23.5898V23.7265H26.1458V23.6028C26.1458 22.0273 27.4609 20.7903 29.4076 20.7903C31.2891 20.7903 32.5391 21.8254 32.5391 23.3098C32.5391 24.3189 32.0638 25.0025 30.9505 26.1549L29.1862 28.0559V28.1275H32.6953V29.8333H26.2891V28.5051L29.4531 25.2174C30.0781 24.5793 30.4232 24.1041 30.4232 23.5247C30.4232 22.8866 29.9544 22.4635 29.3034 22.4635C28.6198 22.4635 28.1576 22.9713 28.1576 23.5898Z" fill="#A6292F"/>
<path id="Shape" opacity="0.5" d="M6.11109 18.3333H3.33331L6.11109 15.8333V18.3333ZM33.8889 18.3333V15.8333L36.6666 18.3333H33.8889Z" fill="#F7F7F9"/>
</g>
</svg>
