<svg width="40" height="40" viewBox="0 0 40 40" fill="none" xmlns="http://www.w3.org/2000/svg">
<g id="AAC">
<path id="Document" fill-rule="evenodd" clip-rule="evenodd" d="M32.4271 36.6666H7.57326C6.76551 36.6666 6.11127 36.018 6.11127 35.2173V4.78253C6.11127 3.9818 6.76551 3.33325 7.57326 3.33325H25.1171L33.889 12.0289V35.2173C33.889 36.018 33.2348 36.6666 32.4271 36.6666Z" fill="#F7F7F9"/>
<path id="Intersect" d="M33.8728 12.0127H26.5792C25.7714 12.0127 25.1172 11.3641 25.1172 10.5634V3.33325L33.8728 12.0127Z" fill="#EAEAEA"/>
<path id="Mask" fill-rule="evenodd" clip-rule="evenodd" d="M3.33331 18.3333L6.11109 15.8333V18.3333H33.8889V15.8333L36.6666 18.3333V30.9258C36.6666 31.7955 36.0181 32.4999 35.2174 32.4999H4.78259C3.98186 32.4999 3.33331 31.7955 3.33331 30.9258V18.3333ZM10.0781 27.7955L9.4987 29.8333H7.35026L10.2148 20.9465H12.8451L15.6901 29.8333H13.3984L12.8255 27.7955H10.0781ZM12.4414 26.2395L11.5169 22.8736H11.4193L10.4753 26.2395H12.4414ZM18.75 27.7955L18.1706 29.8333H16.0221L18.8867 20.9465H21.5169L24.362 29.8333H22.0703L21.4974 27.7955H18.75ZM21.1133 26.2395L20.1888 22.8736H20.0911L19.1471 26.2395H21.1133ZM28.6263 22.5676C27.5521 22.5676 26.9401 23.401 26.9401 24.9309V25.8814C26.9401 27.3918 27.5521 28.2187 28.6263 28.2187C29.5964 28.2187 30.1758 27.5286 30.1823 26.5911H32.2396V26.8515C32.2396 28.733 30.7161 29.996 28.6068 29.996C26.1328 29.996 24.7461 28.401 24.7461 25.8684V24.9309C24.7461 22.3853 26.1328 20.7903 28.6068 20.7903C30.7227 20.7903 32.2396 22.0663 32.2396 23.9869V24.2408H30.1823C30.1758 23.2708 29.5964 22.5676 28.6263 22.5676Z" fill="#D333E9"/>
<path id="Shape" opacity="0.5" d="M6.11109 18.3333H3.33331L6.11109 15.8333V18.3333ZM33.8889 18.3333V15.8333L36.6666 18.3333H33.8889Z" fill="#F7F7F9"/>
</g>
</svg>
