<?xml version="1.0" encoding="UTF-8"?>
<svg width="24px" height="24px" viewBox="0 0 24 24" version="1.1" xmlns="http://www.w3.org/2000/svg" xmlns:xlink="http://www.w3.org/1999/xlink">
    <g id="Assets" stroke="none" stroke-width="1" fill="none" fill-rule="evenodd">
        <g id="assets" transform="translate(-801.000000, -2923.000000)" fill="#858199">
            <g id="icon/Download" transform="translate(801.000000, 2923.000000)">
                <path d="M17.625,10.7375 C17.625,10.7375 17.625,10.625 17.625,10.625 C17.625,7.475 15.15,5 12,5 C9.1875,5 6.825,7.025 6.4875,9.8375 C4.4625,10.5125 3,12.3125 3,14.5625 C3,17.375 5.25,19.625 8.0625,19.625 C9.975,19.625 14.7,19.625 16.5,19.625 C18.975,19.625 21,17.6 21,15.125 C21,12.9875 19.5375,11.3 17.625,10.7375 Z M15.4412287,13.853125 L12.1474787,17.146875 C11.9537287,17.340625 11.6349787,17.340625 11.4412287,17.146875 L8.14747866,13.853125 C7.83185366,13.5375 8.05685366,13 8.50060366,13 L10.5443537,13 L10.5443537,9.5 C10.5443537,9.225 10.7693537,9 11.0443537,9 L12.5443537,9 C12.8193537,9 13.0443537,9.225 13.0443537,9.5 L13.0443537,13 L15.0881037,13 C15.5318537,13 15.7568537,13.5375 15.4412287,13.853125 L15.4412287,13.853125 Z" id="cloud-download-alt"></path>
            </g>
        </g>
    </g>
</svg>