<?xml version="1.0" encoding="UTF-8"?>
<svg width="24px" height="24px" viewBox="0 0 24 24" version="1.1" xmlns="http://www.w3.org/2000/svg" xmlns:xlink="http://www.w3.org/1999/xlink">
    <g id="Assets" stroke="none" stroke-width="1" fill="none" fill-rule="evenodd">
        <g id="assets" transform="translate(-1032.000000, -703.000000)">
            <g id="icon/Filetype" transform="translate(1032.000000, 703.000000)">
                <path d="M20.9473684,24 L3.05263158,24 C2.47105263,24 2,23.5330435 2,22.9565217 L2,1.04347826 C2,0.466956522 2.47105263,0 3.05263158,0 L15.6842105,0 L22,6.26086957 L22,22.9565217 C22,23.5330435 21.5289474,24 20.9473684,24 Z" id="Document" fill="#F2F2F4"></path>
                <path d="M2,9.082 L2,11 L22,11 L22,9.083 L24,11 L22.4347826,13 L1.56521739,13 L0,11 L2,9.082 Z" id="Combined-Shape" fill="#B989E2" fill-rule="nonzero"></path>
                <path d="M22.9565217,21 L1.04347826,21 C0.466956522,21 0,20.5027778 0,19.8888889 L0,11 L24,11 L24,19.8888889 C24,20.5027778 23.5330435,21 22.9565217,21 Z" id="Path" fill="#7E1BCC"></path>
                <path d="M16,0 L16,5 C16,5.5525 16.4475,6 17,6 L22,6 L16,0 Z" id="Corner" fill="#DAD9E0"></path>
                <path d="M2,11 L0,11 L2,9.08333333 L2,11 Z M22,11 L22,9.08333333 L24,11 L22,11 Z" id="Shape" fill="#F7F7F9" fill-rule="nonzero" opacity="0.5"></path>
                <path d="M5.44726562,17.9023438 L3.46289062,17.9023438 L3.10742188,19 L1.75585938,19 L3.86132812,13.3125 L5.04492188,13.3125 L7.15820312,19 L5.80664062,19 L5.44726562,17.9023438 Z M5.11523438,16.8789062 L4.45507812,14.8515625 L3.79882812,16.8789062 L5.11523438,16.8789062 Z M11.3457031,17.9804688 L11.3457031,19 L7.63867188,19 L7.63867188,13.3125 L8.90820312,13.3125 L8.90820312,17.9804688 L11.3457031,17.9804688 Z M15.2910156,17.9023438 L13.3066406,17.9023438 L12.9511719,19 L11.5996094,19 L13.7050781,13.3125 L14.8886719,13.3125 L17.0019531,19 L15.6503906,19 L15.2910156,17.9023438 Z M14.9589844,16.8789062 L14.2988281,14.8515625 L13.6425781,16.8789062 L14.9589844,16.8789062 Z M22.0136719,17.0820312 C21.9902343,17.4778666 21.8834645,17.8261704 21.6933594,18.1269531 C21.5032543,18.4277359 21.2369809,18.6614575 20.8945312,18.828125 C20.5520816,18.9947925 20.151695,19.078125 19.6933594,19.078125 C19.2037736,19.078125 18.7806007,18.966798 18.4238281,18.7441406 C18.0670555,18.5214833 17.7936207,18.2031271 17.6035156,17.7890625 C17.4134105,17.3749979 17.3183594,16.8854195 17.3183594,16.3203125 L17.3183594,15.9921875 C17.3183594,15.4322889 17.4160146,14.9440125 17.6113281,14.5273438 C17.8066416,14.110675 18.0833315,13.7903657 18.4414062,13.5664062 C18.799481,13.3424468 19.2167945,13.2304688 19.6933594,13.2304688 C20.1647159,13.2304688 20.5683577,13.3170564 20.9042969,13.4902344 C21.2402361,13.6634123 21.5013012,13.9029933 21.6875,14.2089844 C21.8736988,14.5149755 21.9850259,14.8671855 22.0214844,15.265625 L20.7558594,15.265625 C20.7350259,14.9270816 20.643881,14.6764331 20.4824219,14.5136719 C20.3209627,14.3509106 20.0579445,14.2695312 19.6933594,14.2695312 C19.3209617,14.2695312 19.0462248,14.4062486 18.8691406,14.6796875 C18.6920564,14.9531264 18.6035156,15.3880179 18.6035156,15.984375 L18.6035156,16.3203125 C18.6035156,16.7265645 18.6393226,17.0546862 18.7109375,17.3046875 C18.7825524,17.5546888 18.8977857,17.7395827 19.0566406,17.859375 C19.2154956,17.9791673 19.427733,18.0390625 19.6933594,18.0390625 C20.0345069,18.0390625 20.2903637,17.9609383 20.4609375,17.8046875 C20.6315113,17.6484367 20.7272134,17.4075537 20.7480469,17.0820312 L22.0136719,17.0820312 Z" id="ALAC" fill="#FFFFFF" fill-rule="nonzero"></path>
            </g>
        </g>
    </g>
</svg>