<svg width="25" height="24" viewBox="0 0 25 24" fill="none" xmlns="http://www.w3.org/2000/svg">
<path d="M19.7981 2H5.51242C3.93429 2 2.65527 3.27946 2.65527 4.85714V19.1429C2.65527 20.7205 3.93429 22 5.51242 22H19.7981C21.3763 22 22.6553 20.7205 22.6553 19.1429V4.85714C22.6553 3.27946 21.374 2 19.7981 2ZM18.0124 14.5C18.0124 15.2897 17.3736 15.9286 16.5838 15.9286C15.7941 15.9286 15.1553 15.2897 15.1553 14.5V11.5223L9.73563 16.942C9.45885 17.2188 9.09277 17.3571 8.7267 17.3571C8.36063 17.3571 7.99545 17.2176 7.71688 16.9386C7.15884 16.3806 7.15884 15.4766 7.71688 14.9185L13.1374 9.5H10.1553C9.36554 9.5 8.7267 8.86116 8.7267 8.07143C8.7267 7.2817 9.36554 6.64286 10.1553 6.64286H16.5838C17.3736 6.64286 18.0124 7.2817 18.0124 8.07143V14.5Z" fill="#858199"/>
</svg>
