<svg width="68" height="28" viewBox="0 0 68 28" fill="none" xmlns="http://www.w3.org/2000/svg">
<g clip-path="url(#clip0_500_24677)">
<path fill-rule="evenodd" clip-rule="evenodd" d="M67.6554 14.3523C67.6554 9.6053 65.356 5.8596 60.9613 5.8596C56.5481 5.8596 53.8779 9.6053 53.8779 14.3152C53.8779 19.8967 57.0302 22.7152 61.5547 22.7152C63.7613 22.7152 65.4302 22.2146 66.6911 21.5099V17.8013C65.4302 18.4318 63.9838 18.8212 62.1481 18.8212C60.3494 18.8212 58.7547 18.1907 58.5507 16.0026H67.6183C67.6183 15.7616 67.6554 14.7974 67.6554 14.3523V14.3523ZM58.4951 12.5907C58.4951 10.4954 59.7746 9.62384 60.9428 9.62384C62.0739 9.62384 63.2792 10.4954 63.2792 12.5907H58.4951ZM46.7203 5.8596C44.903 5.8596 43.7348 6.71258 43.0858 7.30596L42.8448 6.15629H38.7653V27.7775L43.4011 26.7947L43.4196 21.547C44.0871 22.0291 45.0699 22.7152 46.7017 22.7152C50.0209 22.7152 53.0434 20.045 53.0434 14.1669C53.0249 8.7894 49.9653 5.8596 46.7203 5.8596V5.8596ZM45.6077 18.6358C44.5136 18.6358 43.8646 18.2464 43.4196 17.7642L43.4011 10.8848C43.8832 10.347 44.5507 9.97616 45.6077 9.97616C47.2951 9.97616 48.4633 11.8675 48.4633 14.2967C48.4633 16.7815 47.3136 18.6358 45.6077 18.6358V18.6358ZM32.3865 4.76556L37.0408 3.76424V0L32.3865 0.982781V4.76556ZM32.3865 6.17484H37.0408V22.4H32.3865V6.17484ZM27.3984 7.54702L27.1017 6.17484H23.0964V22.4H27.7322V11.404C28.8262 9.97616 30.6805 10.2358 31.2554 10.4397V6.17484C30.662 5.95232 28.4924 5.54437 27.3984 7.54702ZM18.1269 2.15099L13.6024 3.11523L13.5838 17.9682C13.5838 20.7126 15.6421 22.7338 18.3865 22.7338C19.907 22.7338 21.0196 22.4556 21.6315 22.1219V18.3576C21.0381 18.5987 18.1083 19.4517 18.1083 16.7073V10.1245H21.6315V6.17484H18.1083L18.1269 2.15099V2.15099ZM5.59178 10.8848C5.59178 10.1616 6.18516 9.88344 7.16794 9.88344C8.57721 9.88344 10.3573 10.3099 11.7666 11.0702V6.71258C10.2275 6.10066 8.70701 5.8596 7.16794 5.8596C3.4037 5.8596 0.900391 7.82517 0.900391 11.1073C0.900391 16.2252 7.94675 15.4093 7.94675 17.6159C7.94675 18.4689 7.20503 18.747 6.16662 18.747C4.62754 18.747 2.66198 18.1166 1.10436 17.2636V21.6768C2.82887 22.4185 4.57191 22.7338 6.16662 22.7338C10.0236 22.7338 12.6752 20.8238 12.6752 17.5046C12.6567 11.9788 5.59178 12.9616 5.59178 10.8848Z" fill="#635BFF"/>
</g>
<defs>
<clipPath id="clip0_500_24677">
<rect width="66.755" height="28" fill="white" transform="translate(0.900391)"/>
</clipPath>
</defs>
</svg>
