<?xml version="1.0" encoding="UTF-8"?>
<svg width="110px" height="22px" viewBox="0 0 110 22" version="1.1" xmlns="http://www.w3.org/2000/svg" xmlns:xlink="http://www.w3.org/1999/xlink">
    <g id="Assets" stroke="none" stroke-width="1" fill="none" fill-rule="evenodd">
        <g id="assets" transform="translate(-983.000000, -1366.000000)">
            <g id="metamask" transform="translate(984.000000, 1367.000000)">
                <g id="Group-134">
                    <g id="Group-133">
                        <path d="M96.277753,10.0581079 C95.7119515,9.6846639 95.0879056,9.41910373 94.4972255,9.08715353 C94.1143942,8.87138589 93.7067675,8.68051452 93.3739431,8.4066556 C92.8081415,7.94192531 92.9245469,7.02906224 93.5153934,6.63072199 C94.3640125,6.06640664 95.7701957,6.38175934 95.9199667,7.53528631 C95.9199667,7.56018257 95.9449285,7.57678008 95.9699736,7.57678008 L97.2512644,7.57678008 C97.2846301,7.57678008 97.3095087,7.55188382 97.3012713,7.5186888 C97.2346232,6.7220083 96.9268438,6.05810788 96.3609591,5.63487137 C95.8201194,5.22823237 95.2044774,5.01246473 94.547066,5.01246473 C91.1605774,5.01246473 90.8527148,8.58922822 92.6749285,9.71785892 C92.8829438,9.850639 94.6718751,10.7469046 95.3042415,11.1369461 C95.9366079,11.5269876 96.1363026,12.2406805 95.8617224,12.8049959 C95.6121041,13.3195187 94.9630965,13.6763651 94.3140889,13.6348714 C93.6068369,13.5933776 93.0576766,13.2116349 92.8663026,12.6141245 C92.8330202,12.5062407 92.8163789,12.2987718 92.8163789,12.2074025 C92.8163789,12.1825892 92.7914171,12.1576929 92.7664553,12.1576929 L91.3769965,12.1576929 C91.3519515,12.1576929 91.3269896,12.1825892 91.3269896,12.2074025 C91.3269896,13.2116349 91.5766079,13.7676515 92.258898,14.2738755 C92.899585,14.7552033 93.5985163,14.9543734 94.3224095,14.9543734 C96.2195919,14.9543734 97.201424,13.883834 97.4010354,12.7718008 C97.5758515,11.6846639 97.2512644,10.7054108 96.277753,10.0581079" id="Fill-1" fill="#161616"></path>
                        <path d="M35.9450382,5.19502905 L35.329313,5.19502905 L34.6553435,5.19502905 C34.6303817,5.19502905 34.6137405,5.21162656 34.6054198,5.22822407 L33.4654962,8.97926141 C33.448855,9.02905394 33.3822901,9.02905394 33.3656489,8.97926141 L32.2257252,5.22822407 C32.2174046,5.2033278 32.2007634,5.19502905 32.1758015,5.19502905 L31.5018321,5.19502905 L30.8861069,5.19502905 L30.0540458,5.19502905 C30.029084,5.19502905 30.0041221,5.21992531 30.0041221,5.24482158 L30.0041221,14.8215851 C30.0041221,14.8464813 30.029084,14.8713776 30.0540458,14.8713776 L31.4435878,14.8713776 C31.4685496,14.8713776 31.4935115,14.8464813 31.4935115,14.8215851 L31.4935115,7.54357676 C31.4935115,7.48548548 31.5767176,7.47718672 31.5933588,7.52697925 L32.7416031,11.3029129 L32.8248092,11.568473 C32.8331298,11.5933693 32.849771,11.601668 32.8747328,11.601668 L33.939771,11.601668 C33.9647328,11.601668 33.981374,11.5850705 33.9896947,11.568473 L34.0729008,11.3029129 L35.221145,7.52697925 C35.2377863,7.46888797 35.3209924,7.48548548 35.3209924,7.54357676 L35.3209924,14.8215851 C35.3209924,14.8464813 35.3459542,14.8713776 35.370916,14.8713776 L36.760458,14.8713776 C36.7854198,14.8713776 36.8103817,14.8464813 36.8103817,14.8215851 L36.8103817,5.24482158 C36.8103817,5.21992531 36.7854198,5.19502905 36.760458,5.19502905 L35.9450382,5.19502905 Z" id="Fill-3" fill="#161616"></path>
                        <path d="M75.002018,5.19502905 C74.976973,5.19502905 74.960415,5.21162656 74.9520111,5.22822407 L73.8120875,8.97926141 C73.7955295,9.02905394 73.7288814,9.02905394 73.7123234,8.97926141 L72.5723997,5.22822407 C72.5639959,5.2033278 72.5474379,5.19502905 72.5223928,5.19502905 L70.4090409,5.19502905 C70.3840791,5.19502905 70.359034,5.21992531 70.359034,5.24482158 L70.359034,14.8215851 C70.359034,14.8464813 70.3840791,14.8713776 70.4090409,14.8713776 L71.7985829,14.8713776 C71.8235447,14.8713776 71.8485066,14.8464813 71.8485066,14.8215851 L71.8485066,7.54357676 C71.8485066,7.48548548 71.9317127,7.47718672 71.9483539,7.52697925 L73.0965982,11.3029129 L73.1798043,11.568473 C73.1880417,11.5933693 73.2046829,11.601668 73.2296447,11.601668 L74.2947661,11.601668 C74.3197279,11.601668 74.3363692,11.5850705 74.3446898,11.568473 L74.4278959,11.3029129 L75.5760569,7.52697925 C75.5927814,7.46888797 75.6759875,7.48548548 75.6759875,7.54357676 L75.6759875,14.8215851 C75.6759875,14.8464813 75.7008661,14.8713776 75.7258279,14.8713776 L77.1153699,14.8713776 C77.1403318,14.8713776 77.1652936,14.8464813 77.1652936,14.8215851 L77.1652936,5.24482158 C77.1652936,5.21992531 77.1403318,5.19502905 77.1153699,5.19502905 L75.002018,5.19502905 Z" id="Fill-5" fill="#161616"></path>
                        <path d="M57.0793893,5.19502905 L54.4916794,5.19502905 L53.1021374,5.19502905 L50.5144275,5.19502905 C50.4894656,5.19502905 50.4645038,5.21992531 50.4645038,5.24482158 L50.4645038,6.43984232 C50.4645038,6.46473859 50.4894656,6.48963485 50.5144275,6.48963485 L53.0522137,6.48963485 L53.0522137,14.8215851 C53.0522137,14.8464813 53.0771756,14.8713776 53.1021374,14.8713776 L54.4916794,14.8713776 C54.5166412,14.8713776 54.5416031,14.8464813 54.5416031,14.8215851 L54.5416031,6.48963485 L57.0793893,6.48963485 C57.1043511,6.48963485 57.129313,6.46473859 57.129313,6.43984232 L57.129313,5.24482158 C57.129313,5.21992531 57.1126718,5.19502905 57.0793893,5.19502905" id="Fill-7" fill="#161616"></path>
                        <path d="M61.9552339,10.6390207 L62.9703484,6.89628216 C62.9869896,6.84648963 63.0535545,6.84648963 63.0701957,6.89628216 L64.0853934,10.6390207 C64.0936308,10.6721328 64.068669,10.7054108 64.0353866,10.7054108 L62.0052408,10.7054108 C61.9718751,10.7054108 61.9469133,10.6721328 61.9552339,10.6390207 M65.2751576,14.8713859 L66.5399736,14.8713859 C66.5731728,14.8713859 66.5982179,14.8381909 66.589814,14.8049959 L63.9772255,5.19503734 C63.9688217,5.17014108 63.9521805,5.16184232 63.9272186,5.16184232 L63.4446232,5.16184232 L62.5959209,5.16184232 L62.1133255,5.16184232 C62.0884469,5.16184232 62.0717224,5.17843983 62.063485,5.19503734 L59.4507301,14.8049959 C59.4424927,14.8381909 59.4674545,14.8713859 59.5006537,14.8713859 L60.7653866,14.8713859 C60.7903484,14.8713859 60.8069896,14.8547884 60.8153934,14.8381909 L61.5724858,12.0414274 C61.5808064,12.0166141 61.5974476,12.0083154 61.6224095,12.0083154 L64.4182179,12.0083154 C64.4430965,12.0083154 64.4598209,12.0249129 64.4680583,12.0414274 L65.2252339,14.8381909 C65.2335545,14.8547884 65.2585163,14.8713859 65.2751576,14.8713859" id="Fill-9" fill="#161616"></path>
                        <path d="M83.5222734,10.6390207 L84.5373879,6.89628216 C84.5540292,6.84648963 84.620594,6.84648963 84.6372353,6.89628216 L85.652433,10.6390207 C85.6606704,10.6721328 85.6357085,10.7054108 85.6024261,10.7054108 L83.5722803,10.7054108 C83.5389147,10.7054108 83.5139528,10.6721328 83.5222734,10.6390207 M86.8421971,14.8713859 L88.1070131,14.8713859 C88.1402124,14.8713859 88.1651742,14.8381909 88.1568536,14.8049959 L85.5441818,5.19503734 C85.5358612,5.17014108 85.51922,5.16184232 85.4942582,5.16184232 L85.0116627,5.16184232 L84.1629605,5.16184232 L83.680365,5.16184232 C83.6554864,5.16184232 83.638762,5.17843983 83.6304414,5.19503734 L81.0177696,14.8049959 C81.009449,14.8381909 81.034494,14.8713859 81.0676933,14.8713859 L82.3324261,14.8713859 C82.3573879,14.8713859 82.3740292,14.8547884 82.3823498,14.8381909 L83.1395253,12.0414274 C83.147846,12.0166141 83.1644872,12.0083154 83.189449,12.0083154 L85.9851742,12.0083154 C86.010136,12.0083154 86.0267773,12.0249129 86.0350979,12.0414274 L86.7922734,14.8381909 C86.800594,14.8547884 86.8173185,14.8713859 86.8421971,14.8713859" id="Fill-11" fill="#161616"></path>
                        <path d="M42.4517724,13.452249 L42.4517724,10.4812946 C42.4517724,10.4563983 42.4767342,10.4315851 42.501696,10.4315851 L46.2043678,10.4315851 C46.2293296,10.4315851 46.2542915,10.4066888 46.2542915,10.3817095 L46.2542915,9.18677178 C46.2542915,9.16179253 46.2293296,9.13689627 46.2043678,9.13689627 L42.501696,9.13689627 C42.4767342,9.13689627 42.4517724,9.112 42.4517724,9.08710373 L42.4517724,6.54768465 C42.4517724,6.52278838 42.4767342,6.49789212 42.501696,6.49789212 L46.711925,6.49789212 C46.7368869,6.49789212 46.7618487,6.47299585 46.7618487,6.44818257 L46.7618487,5.25307884 C46.7618487,5.22818257 46.7368869,5.20336929 46.711925,5.20336929 L42.4517724,5.20336929 L41.0123067,5.20336929 C40.9873449,5.20336929 40.9623831,5.22818257 40.9623831,5.25307884 L40.9623831,6.49789212 L40.9623831,9.14527801 L40.9623831,10.4398008 L40.9623831,13.5103402 L40.9623831,14.8215436 C40.9623831,14.8465228 40.9873449,14.8714191 41.0123067,14.8714191 L42.4517724,14.8714191 L46.8866579,14.8714191 C46.9116197,14.8714191 46.9365815,14.8465228 46.9365815,14.8215436 L46.9365815,13.5602158 C46.9365815,13.5352365 46.9116197,13.5103402 46.8866579,13.5103402 L42.4933754,13.5103402 C42.4684136,13.5021245 42.4517724,13.485444 42.4517724,13.452249" id="Fill-13" fill="#161616"></path>
                        <path d="M108.975055,14.7883983 L104.165742,9.83404149 C104.149101,9.81744398 104.149101,9.78424896 104.165742,9.76765145 L108.492459,5.28632365 C108.525742,5.25312863 108.50078,5.2033361 108.459177,5.2033361 L106.686887,5.2033361 C106.670246,5.2033361 106.661842,5.21163485 106.653604,5.21993361 L102.984215,9.02076349 C102.950933,9.05395851 102.901009,9.02906224 102.901009,8.98756846 L102.901009,5.25312863 C102.901009,5.22823237 102.875964,5.2033361 102.851002,5.2033361 L101.461543,5.2033361 C101.436498,5.2033361 101.41162,5.22823237 101.41162,5.25312863 L101.41162,14.8298921 C101.41162,14.8547884 101.436498,14.8796846 101.461543,14.8796846 L102.851002,14.8796846 C102.876047,14.8796846 102.901009,14.8547884 102.901009,14.8298921 L102.901009,10.6141245 C102.901009,10.5726307 102.95917,10.5476515 102.984215,10.5809295 L107.14452,14.8630041 C107.152841,14.8713859 107.169482,14.8796846 107.17772,14.8796846 L108.950093,14.8796846 C108.983375,14.8713859 109.008254,14.8132946 108.975055,14.7883983" id="Fill-15" fill="#161616"></path>
                        <polygon id="Fill-17" fill="#E17726" points="20.5103053 0.0414937759 12.0981679 6.26556017 13.6624427 2.59751037"></polygon>
                        <polygon id="Stroke-19" stroke="#E17726" stroke-width="0.5" stroke-linecap="round" stroke-linejoin="round" points="20.5103053 0.0414937759 12.0981679 6.26556017 13.6624427 2.59751037"></polygon>
                        <polygon id="Fill-21" fill="#E27625" points="1.10662458 0.0414937759 9.44387649 6.32365145 7.95448718 2.59751037"></polygon>
                        <polygon id="Stroke-23" stroke="#E27625" stroke-width="0.5" stroke-linecap="round" stroke-linejoin="round" points="1.10662458 0.0414937759 9.44387649 6.32365145 7.95448718 2.59751037"></polygon>
                        <polygon id="Fill-25" fill="#E27625" points="17.4816114 14.4730622 15.2433671 17.8920664 20.0360389 19.2116515 21.4089396 14.547668"></polygon>
                        <polygon id="Stroke-27" stroke="#E27625" stroke-width="0.5" stroke-linecap="round" stroke-linejoin="round" points="17.4816114 14.4730622 15.2433671 17.8920664 20.0360389 19.2116515 21.4089396 14.547668"></polygon>
                        <polygon id="Fill-29" fill="#E27625" points="0.216344198 14.5477012 1.58092435 19.2116017 6.3652755 17.8920996 4.13535183 14.4730954"></polygon>
                        <polygon id="Stroke-31" stroke="#E27625" stroke-width="0.5" stroke-linecap="round" stroke-linejoin="round" points="0.216344198 14.5477012 1.58092435 19.2116017 6.3652755 17.8920996 4.13535183 14.4730954"></polygon>
                        <polygon id="Fill-33" fill="#E27625" points="6.10731992 8.69707884 4.77602221 10.7053776 9.51877031 10.9211452 9.3606787 5.81741079"></polygon>
                        <polygon id="Stroke-35" stroke="#E27625" stroke-width="0.5" stroke-linecap="round" stroke-linejoin="round" points="6.10731992 8.69707884 4.77602221 10.7053776 9.51877031 10.9211452 9.3606787 5.81741079"></polygon>
                        <polygon id="Fill-37" fill="#E27625" points="15.50961 8.69707884 12.2063276 5.7593195 12.0981596 10.9211452 16.8409077 10.7053776"></polygon>
                        <polygon id="Stroke-39" stroke="#E27625" stroke-width="0.5" stroke-linecap="round" stroke-linejoin="round" points="15.50961 8.69707884 12.2063276 5.7593195 12.0981596 10.9211452 16.8409077 10.7053776"></polygon>
                        <polygon id="Fill-41" fill="#E27625" points="6.36526718 17.892083 9.23587786 16.5062739 6.76465649 14.5809627"></polygon>
                        <polygon id="Stroke-43" stroke="#E27625" stroke-width="0.5" stroke-linecap="round" stroke-linejoin="round" points="6.36526718 17.892083 9.23587786 16.5062739 6.76465649 14.5809627"></polygon>
                        <polygon id="Fill-45" fill="#E27625" points="12.3810521 16.5062573 15.2433421 17.8920664 14.8522734 14.5809461"></polygon>
                        <polygon id="Stroke-47" stroke="#E27625" stroke-width="0.5" stroke-linecap="round" stroke-linejoin="round" points="12.3810521 16.5062573 15.2433421 17.8920664 14.8522734 14.5809461"></polygon>
                        <polygon id="Fill-49" fill="#D5BFB2" points="15.2433754 17.892083 12.3810853 16.5062739 12.6140624 18.365112 12.5891006 19.1534938"></polygon>
                        <polygon id="Stroke-51" stroke="#D5BFB2" stroke-width="0.5" stroke-linecap="round" stroke-linejoin="round" points="15.2433754 17.892083 12.3810853 16.5062739 12.6140624 18.365112 12.5891006 19.1534938"></polygon>
                        <polygon id="Fill-53" fill="#D5BFB2" points="6.36526718 17.892083 9.0278626 19.1534938 9.01122137 18.365112 9.23587786 16.5062739"></polygon>
                        <polygon id="Stroke-55" stroke="#D5BFB2" stroke-width="0.5" stroke-linecap="round" stroke-linejoin="round" points="6.36526718 17.892083 9.0278626 19.1534938 9.01122137 18.365112 9.23587786 16.5062739"></polygon>
                        <polygon id="Fill-57" fill="#233447" points="9.07779458 13.3527303 6.69809992 12.6556349 8.37886328 11.8838506"></polygon>
                        <polygon id="Stroke-59" stroke="#233447" stroke-width="0.5" stroke-linecap="round" stroke-linejoin="round" points="9.07779458 13.3527303 6.69809992 12.6556349 8.37886328 11.8838506"></polygon>
                        <polygon id="Fill-61" fill="#233447" points="12.5391769 13.3527303 13.2381082 11.8838506 14.9271922 12.6556349"></polygon>
                        <polygon id="Stroke-63" stroke="#233447" stroke-width="0.5" stroke-linecap="round" stroke-linejoin="round" points="12.5391769 13.3527303 13.2381082 11.8838506 14.9271922 12.6556349"></polygon>
                        <polygon id="Fill-65" fill="#CC6228" points="6.36526718 17.892083 6.78129771 14.4730788 4.13534351 14.5476846"></polygon>
                        <polygon id="Stroke-67" stroke="#CC6228" stroke-width="0.5" stroke-linecap="round" stroke-linejoin="round" points="6.36526718 17.892083 6.78129771 14.4730788 4.13534351 14.5476846"></polygon>
                        <polygon id="Fill-69" fill="#CC6228" points="14.8356322 14.4730622 15.2433421 17.8920664 17.4815864 14.547668"></polygon>
                        <polygon id="Stroke-71" stroke="#CC6228" stroke-width="0.5" stroke-linecap="round" stroke-linejoin="round" points="14.8356322 14.4730622 15.2433421 17.8920664 17.4815864 14.547668"></polygon>
                        <polygon id="Fill-73" fill="#CC6228" points="16.8409077 10.7053942 12.0981596 10.9211618 12.539152 13.3526971 13.2380833 11.8838174 14.9271673 12.6556017"></polygon>
                        <polygon id="Stroke-75" stroke="#CC6228" stroke-width="0.5" stroke-linecap="round" stroke-linejoin="round" points="16.8409077 10.7053942 12.0981596 10.9211618 12.539152 13.3526971 13.2380833 11.8838174 14.9271673 12.6556017"></polygon>
                        <polygon id="Fill-77" fill="#CC6228" points="6.6980916 12.6556017 8.37885496 11.8838174 9.07778626 13.3526971 9.51877863 10.9211618 4.77603053 10.7053942"></polygon>
                        <polygon id="Stroke-79" stroke="#CC6228" stroke-width="0.5" stroke-linecap="round" stroke-linejoin="round" points="6.6980916 12.6556017 8.37885496 11.8838174 9.07778626 13.3526971 9.51877863 10.9211618 4.77603053 10.7053942"></polygon>
                        <polygon id="Fill-81" fill="#E27525" points="4.77602221 10.7053942 6.76464817 14.5809129 6.69808328 12.6556017"></polygon>
                        <polygon id="Stroke-83" stroke="#E27525" stroke-width="0.5" stroke-linecap="round" stroke-linejoin="round" points="4.77602221 10.7053942 6.76464817 14.5809129 6.69808328 12.6556017"></polygon>
                        <polygon id="Fill-85" fill="#E27525" points="14.9271673 12.6556017 14.8522818 14.5809129 16.8409077 10.7053942"></polygon>
                        <polygon id="Stroke-87" stroke="#E27525" stroke-width="0.5" stroke-linecap="round" stroke-linejoin="round" points="14.9271673 12.6556017 14.8522818 14.5809129 16.8409077 10.7053942"></polygon>
                        <polygon id="Fill-89" fill="#E27525" points="9.51877031 10.9211286 9.07777794 13.3527469 9.63525885 16.2240332 9.76006802 12.4398838"></polygon>
                        <polygon id="Stroke-91" stroke="#E27525" stroke-width="0.5" stroke-linecap="round" stroke-linejoin="round" points="9.51877031 10.9211286 9.07777794 13.3527469 9.63525885 16.2240332 9.76006802 12.4398838"></polygon>
                        <polygon id="Fill-93" fill="#E27525" points="12.0981596 10.9211286 11.8651825 12.4315021 11.9816711 16.2240332 12.539152 13.3527469"></polygon>
                        <polygon id="Stroke-95" stroke="#E27525" stroke-width="0.5" stroke-linecap="round" stroke-linejoin="round" points="12.0981596 10.9211286 11.8651825 12.4315021 11.9816711 16.2240332 12.539152 13.3527469"></polygon>
                        <polygon id="Fill-97" fill="#F5841F" points="12.5391769 13.3527303 11.981696 16.2240996 12.3810853 16.5062573 14.8523067 14.5809461 14.9271922 12.6556349"></polygon>
                        <polygon id="Stroke-99" stroke="#F5841F" stroke-width="0.5" stroke-linecap="round" stroke-linejoin="round" points="12.5391769 13.3527303 11.981696 16.2240996 12.3810853 16.5062573 14.8523067 14.5809461 14.9271922 12.6556349"></polygon>
                        <polygon id="Fill-101" fill="#F5841F" points="6.6980916 12.6556017 6.76465649 14.5809129 9.23587786 16.5062241 9.63526718 16.2240664 9.07778626 13.3526971"></polygon>
                        <polygon id="Stroke-103" stroke="#F5841F" stroke-width="0.5" stroke-linecap="round" stroke-linejoin="round" points="6.6980916 12.6556017 6.76465649 14.5809129 9.23587786 16.5062241 9.63526718 16.2240664 9.07778626 13.3526971"></polygon>
                        <polygon id="Fill-105" fill="#C0AC9D" points="12.5890673 19.1535104 12.6140292 18.3651286 12.3976933 18.182556 9.21922 18.182556 9.01120473 18.3651286 9.02784595 19.1535104 6.36525053 17.8920996 7.29715893 18.6555851 9.18593756 19.9584896 12.4226551 19.9584896 14.3197544 18.6555851 15.2433421 17.8920996"></polygon>
                        <polygon id="Stroke-107" stroke="#C0AC9D" stroke-width="0.5" stroke-linecap="round" stroke-linejoin="round" points="12.5890673 19.1535104 12.6140292 18.3651286 12.3976933 18.182556 9.21922 18.182556 9.01120473 18.3651286 9.02784595 19.1535104 6.36525053 17.8920996 7.29715893 18.6555851 9.18593756 19.9584896 12.4226551 19.9584896 14.3197544 18.6555851 15.2433421 17.8920996"></polygon>
                        <polygon id="Fill-109" fill="#161616" points="12.3810521 16.5062573 11.9816627 16.2240996 9.63525053 16.2240996 9.23586122 16.5062573 9.01120473 18.3650954 9.21922 18.1825228 12.3976933 18.1825228 12.6140292 18.3650954"></polygon>
                        <polygon id="Stroke-111" stroke="#161616" stroke-width="0.5" stroke-linecap="round" stroke-linejoin="round" points="12.3810521 16.5062573 11.9816627 16.2240996 9.63525053 16.2240996 9.23586122 16.5062573 9.01120473 18.3650954 9.21922 18.1825228 12.3976933 18.1825228 12.6140292 18.3650954"></polygon>
                        <polygon id="Fill-113" fill="#763E1A" points="20.868075 6.67219087 21.5753269 3.23650622 20.5102887 0.0414854772 12.3810521 6.05808299 15.5096017 8.69708714 19.927846 9.98339419 20.9013574 8.84646473 20.4770063 8.53941079 21.1509757 7.9253029 20.6350979 7.52696266 21.3090673 7.01243983"></polygon>
                        <polygon id="Stroke-115" stroke="#763E1A" stroke-width="0.5" stroke-linecap="round" stroke-linejoin="round" points="20.868075 6.67219087 21.5753269 3.23650622 20.5102887 0.0414854772 12.3810521 6.05808299 15.5096017 8.69708714 19.927846 9.98339419 20.9013574 8.84646473 20.4770063 8.53941079 21.1509757 7.9253029 20.6350979 7.52696266 21.3090673 7.01243983"></polygon>
                        <polygon id="Fill-117" fill="#763E1A" points="0.0416030534 3.23651452 0.757175573 6.67219917 0.299541985 7.01244813 0.981832061 7.52697095 0.465954198 7.9253112 1.13992366 8.53941909 0.715572519 8.84647303 1.68908397 9.98340249 6.10732824 8.69709544 9.23587786 6.05809129 1.10664122 0.0414937759"></polygon>
                        <polygon id="Stroke-119" stroke="#763E1A" stroke-width="0.5" stroke-linecap="round" stroke-linejoin="round" points="0.0416030534 3.23651452 0.757175573 6.67219917 0.299541985 7.01244813 0.981832061 7.52697095 0.465954198 7.9253112 1.13992366 8.53941909 0.715572519 8.84647303 1.68908397 9.98340249 6.10732824 8.69709544 9.23587786 6.05809129 1.10664122 0.0414937759"></polygon>
                        <polygon id="Fill-121" fill="#F5841F" points="19.9278626 9.98338589 15.5096183 8.69707884 16.840916 10.7053776 14.8522901 14.5808963 17.4816031 14.5477012 21.4089313 14.5477012"></polygon>
                        <polygon id="Stroke-123" stroke="#F5841F" stroke-width="0.5" stroke-linecap="round" stroke-linejoin="round" points="19.9278626 9.98338589 15.5096183 8.69707884 16.840916 10.7053776 14.8522901 14.5808963 17.4816031 14.5477012 21.4089313 14.5477012"></polygon>
                        <polygon id="Fill-125" fill="#F5841F" points="6.10731992 8.69707884 1.68907565 9.98338589 0.216327557 14.5477012 4.13533519 14.5477012 6.76464817 14.5808963 4.77602221 10.7053776"></polygon>
                        <polygon id="Stroke-127" stroke="#F5841F" stroke-width="0.5" stroke-linecap="round" stroke-linejoin="round" points="6.10731992 8.69707884 1.68907565 9.98338589 0.216327557 14.5477012 4.13533519 14.5477012 6.76464817 14.5808963 4.77602221 10.7053776"></polygon>
                        <polygon id="Fill-129" fill="#F5841F" points="12.0981596 10.9211286 12.3810604 6.05805809 13.6624344 2.59747718 7.9544955 2.59747718 9.23586954 6.05805809 9.51877031 10.9211286 9.62693824 12.4480996 9.63525885 16.2240332 11.9816711 16.2240332 11.9899917 12.4480996"></polygon>
                        <polygon id="Stroke-131" stroke="#F5841F" stroke-width="0.5" stroke-linecap="round" stroke-linejoin="round" points="12.0981596 10.9211286 12.3810604 6.05805809 13.6624344 2.59747718 7.9544955 2.59747718 9.23586954 6.05805809 9.51877031 10.9211286 9.62693824 12.4480996 9.63525885 16.2240332 11.9816711 16.2240332 11.9899917 12.4480996"></polygon>
                    </g>
                </g>
            </g>
        </g>
    </g>
</svg>