<?xml version="1.0" encoding="UTF-8"?>
<svg width="32px" height="32px" viewBox="0 0 32 32" version="1.1" xmlns="http://www.w3.org/2000/svg" xmlns:xlink="http://www.w3.org/1999/xlink">
    <g id="Assets" stroke="none" stroke-width="1" fill="none" fill-rule="evenodd">
        <g id="assets" transform="translate(-847.000000, -503.000000)">
            <circle id="Oval" fill="#FFFFFF" cx="863" cy="519" r="12"></circle>
            <g id="icon/playbar/play" transform="translate(847.000000, 503.000000)" fill="#CC0FE0">
                <path d="M16,0 C24.836556,0 32,7.163444 32,16 C32,24.836556 24.836556,32 16,32 C7.163444,32 0,24.836556 0,16 C0,7.163444 7.163444,0 16,0 Z M13,9.85712622 C12.4477153,9.85712622 12,10.3048415 12,10.8571262 L12,10.8571262 L12,21.1426769 C12,21.3009361 12.0375617,21.4569355 12.109597,21.59785 C12.3609822,22.089606 12.9634171,22.284465 13.4551731,22.0330799 L13.4551731,22.0330799 L23.5153612,16.8903221 C23.7025872,16.7946124 23.8548796,16.6423204 23.9505898,16.4550947 C24.2019764,15.9633394 24.007119,15.360904 23.5153637,15.1095174 L23.5153637,15.1095174 L13.4551756,9.9667245 C13.3142605,9.89468836 13.1582601,9.85712622 13,9.85712622 Z" id="Combined-Shape"></path>
            </g>
        </g>
    </g>
</svg>