<?xml version="1.0" encoding="UTF-8"?>
<svg width="14px" height="13px" viewBox="0 0 14 13" version="1.1" xmlns="http://www.w3.org/2000/svg" xmlns:xlink="http://www.w3.org/1999/xlink">
    <g id="Playbar-Style-Guide" stroke="none" stroke-width="1" fill="none" fill-rule="evenodd">
        <g transform="translate(-579.000000, -1450.000000)" id="assets">
            <g transform="translate(59.000000, 1378.000000)">
                <g id="pbIconRepeat" transform="translate(512.000000, 62.000000)">
                    <rect id="Background" x="0" y="0" width="32" height="32"></rect>
                    <g id="icon" transform="translate(8.000000, 8.000000)">
                        <rect id="bound" x="0" y="0" width="16" height="16"></rect>
                        <path d="M7.50092708,2.2096381 C6.59299931,2.2665581 6.07459514,3.25260952 6.53559097,4.03835238 C6.76637708,4.42395238 7.19866875,4.65275238 7.64502431,4.62429524 C7.90451458,4.60978667 8.16400486,4.60978667 8.42291875,4.65275524 C10.0806132,4.8809981 11.3774882,6.25261238 11.4782122,7.9238981 C11.6223094,10.0383267 9.89314271,11.7956124 7.77505764,11.7241838 C5.95914444,11.6672638 4.44612361,10.2241838 4.33142222,8.4238981 L4.33142222,8.40938952 L5.23935,8.40938952 C5.81573889,8.40938952 6.16134167,7.78104667 5.85908333,7.29498952 L3.72572396,3.9094181 C3.43752951,3.45238952 2.77445174,3.45238952 2.48625729,3.9094181 L0.354050694,7.29498952 C0.0512159722,7.78047524 0.397392257,8.40938952 0.973784028,8.40938952 L1.89577569,8.40938952 C2.01116587,11.380961 4.37410382,13.8525324 7.35677222,14.1236752 C11.1033,14.452361 14.2300656,11.3525324 13.8984979,7.63824667 C13.6395696,4.69510381 11.2046003,2.36653238 8.23590937,2.20967524 C7.99105937,2.19516667 7.74620937,2.19516667 7.50078299,2.20967524 L7.50092708,2.2096381 Z" id="repeat" fill="#858199"></path>
                    </g>
                </g>
            </g>
        </g>
    </g>
</svg>