<?xml version="1.0" encoding="UTF-8"?>
<svg width="16px" height="11px" viewBox="0 0 16 11" version="1.1" xmlns="http://www.w3.org/2000/svg" xmlns:xlink="http://www.w3.org/1999/xlink">
    <g id="Playbar-Style-Guide" stroke="none" stroke-width="1" fill="none" fill-rule="evenodd">
        <g transform="translate(-67.000000, -1451.000000)" id="assets">
            <g transform="translate(59.000000, 1378.000000)">
                <g id="pbIconShuffle" transform="translate(0.000000, 62.000000)">
                    <rect id="Background" x="0" y="0" width="32" height="32"></rect>
                    <g id="icon" transform="translate(8.000000, 8.000000)">
                        <rect id="bound" x="0" y="0" width="16" height="16"></rect>
                        <path d="M7.9230372,8.33333333 L8.41802708,9.34083727 C8.73682449,9.9897185 9.39687438,10.4008429 10.1198395,10.4008429 L12.8664707,10.4008429 L12.8664707,9.55618929 C12.8664707,9.53044126 12.8738102,9.50522672 12.8876291,9.48350115 C12.9277736,9.42038708 13.0114813,9.40176661 13.0745953,9.44191116 L15.9372828,11.2627621 C15.9540254,11.2734114 15.9682235,11.2876095 15.9788728,11.3043521 C16.0190173,11.3674661 16.0003969,11.4511738 15.9372828,11.4913183 L13.0745953,13.3121692 C13.0528698,13.3259881 13.0276552,13.3333276 13.0019072,13.3333276 C12.9271077,13.3333276 12.8664707,13.2726906 12.8664707,13.1978911 L12.8664707,12.3305184 L10.0819391,12.3305184 C8.74868763,12.3305184 7.52241937,11.6314292 6.83954493,10.5050773 C6.1566705,11.6314292 4.93040223,12.3305184 3.59715077,12.3305184 L0.964837782,12.3305184 C0.431972589,12.3305184 5.3853653e-16,11.8985458 0,11.3656806 C4.080222e-16,10.8328155 0.431972589,10.4008429 0.964837782,10.4008429 L3.55925032,10.4008429 C4.28221549,10.4008429 4.94226537,9.9897185 5.26106278,9.34083727 L5.75605266,8.33333333 L5.26106278,7.3258294 C4.94226537,6.67694817 4.28221549,6.2658238 3.55925032,6.2658238 L0.964837782,6.2658238 C0.431972589,6.2658238 4.080222e-16,5.83385121 0,5.30098602 C5.3853653e-16,4.76812082 0.431972589,4.33614824 0.964837782,4.33614824 L3.59715077,4.33614824 C4.93040223,4.33614824 6.1566705,5.03523746 6.83954493,6.16158942 C7.52241937,5.03523746 8.74868763,4.33614824 10.0819391,4.33614824 L12.8664707,4.33614824 L12.8664707,3.46877556 C12.8664707,3.39397602 12.9271077,3.33333902 13.0019072,3.33333902 C13.0276552,3.33333902 13.0528698,3.3406786 13.0745953,3.35449744 L15.9372828,5.17534835 C16.0003969,5.2154929 16.0190173,5.29920054 15.9788728,5.36231461 C15.9682235,5.37905717 15.9540254,5.39325526 15.9372828,5.40390459 L13.0745953,7.2247555 C13.0114813,7.26490005 12.9277736,7.24627958 12.8876291,7.18316552 C12.8738102,7.16143995 12.8664707,7.1362254 12.8664707,7.11047738 L12.8664707,6.2658238 L10.1198395,6.2658238 C9.39687438,6.2658238 8.73682449,6.67694817 8.41802708,7.3258294 L7.9230372,8.33333333 Z" id="shuffle" fill="#858199"></path>
                    </g>
                </g>
            </g>
        </g>
    </g>
</svg>