<?xml version="1.0" encoding="UTF-8"?>
<svg width="14px" height="12px" viewBox="0 0 14 12" version="1.1" xmlns="http://www.w3.org/2000/svg" xmlns:xlink="http://www.w3.org/1999/xlink">
    <g id="Playbar-Style-Guide" stroke="none" stroke-width="1" fill="none" fill-rule="evenodd">
        <g transform="translate(-708.000000, -1450.000000)" id="assets">
            <g transform="translate(59.000000, 1378.000000)">
                <g id="pbIconVolume" transform="translate(640.000000, 62.000000)">
                    <rect id="Bound" x="0" y="0" width="32" height="32"></rect>
                    <path d="M16.7187153,21.0008392 C16.7187153,21.8251853 15.8029264,22.2920948 15.1753755,21.7972674 L11.5909777,18.9131555 L9.83810541,18.9131555 C9.39350298,18.9131555 9.00102202,18.5289003 9.00102202,18.0340729 L9,13.9670244 C9,13.5001148 9.36589692,13.0879418 9.83708339,13.0879418 L11.5899557,13.0879418 L15.1743535,10.2027307 C15.8019043,9.70790327 16.7176933,10.1748238 16.7176933,10.9991589 L16.7187153,21.0008392 Z M19.2565495,18.6104556 C18.9683115,18.8573307 18.523709,18.8025887 18.2886391,18.5009715 L18.2365124,18.4462294 C18.001432,18.1714474 18.0535587,17.7313565 18.3407658,17.5124102 C18.7853682,17.1828916 19.0470222,16.6333276 19.0470222,16.0011092 C19.0470222,15.4236273 18.7853682,14.9019811 18.3928873,14.5445447 C18.0791118,14.2697627 18.0269904,13.8296718 18.2886339,13.5001533 C18.5237143,13.1974534 18.9693529,13.1427168 19.2831283,13.3906691 C20.0159687,13.9949697 20.4605712,14.929888 20.4605712,16.0010982 C20.4605712,17.0712367 19.9893847,18.006155 19.2565443,18.6104556 Z M20.8796152,20.6713207 C20.5913772,20.9181958 20.1467748,20.8634537 19.9117049,20.5618365 C19.6766245,20.2591367 19.7021776,19.7922271 19.9904052,19.5453629 C20.9848996,18.7210169 21.6124505,17.4297613 21.6124505,16.0012246 C21.6124505,14.572578 20.9848996,13.3081411 19.9904052,12.4570863 C19.7021671,12.2102111 19.6500457,11.7422134 19.9117049,11.4406127 C20.1467853,11.1379128 20.5924238,11.0831762 20.8796152,11.3311285 C22.1878851,12.4302565 22.9994311,14.1336302 22.9994311,16.0024226 C23.0249832,17.8958355 22.1878851,19.5723905 20.8796152,20.6715185 L20.8796152,20.6713207 Z" id="volume" fill="#858199"></path>
                </g>
            </g>
        </g>
    </g>
</svg>