<?xml version="1.0" encoding="UTF-8" standalone="no"?>
<svg
   id="Layer_1"
   data-name="Layer 1"
   viewBox="0 0 1000 265"
   version="1.1"
   sodipodi:docname="audius_d.svg"
   xml:space="preserve"
   inkscape:version="1.3.2 (091e20e, 2023-11-25)"
   xmlns:inkscape="http://www.inkscape.org/namespaces/inkscape"
   xmlns:sodipodi="http://sodipodi.sourceforge.net/DTD/sodipodi-0.dtd"
   xmlns="http://www.w3.org/2000/svg"
   xmlns:svg="http://www.w3.org/2000/svg"><sodipodi:namedview
     id="namedview6"
     pagecolor="#ffffff"
     bordercolor="#000000"
     borderopacity="0.25"
     inkscape:showpageshadow="2"
     inkscape:pageopacity="0.0"
     inkscape:pagecheckerboard="0"
     inkscape:deskcolor="#d1d1d1"
     inkscape:zoom="0.413"
     inkscape:cx="272.39709"
     inkscape:cy="138.01453"
     inkscape:window-width="1920"
     inkscape:window-height="1027"
     inkscape:window-x="0"
     inkscape:window-y="25"
     inkscape:window-maximized="0"
     inkscape:current-layer="Layer_1"
     showguides="false" /><defs
     id="defs1"><style
       id="style1">.cls-1{fill:#111;}</style></defs><g
     transform="matrix(9.9060946,0,0,9.9060946,195.15401,-9085.6813)"
     id="g4"><path
       style="line-height:normal;font-variant-ligatures:normal;font-variant-position:normal;font-variant-caps:normal;font-variant-numeric:normal;font-variant-alternates:normal;font-feature-settings:normal;text-indent:0;text-align:start;text-decoration-line:none;text-decoration-style:solid;text-decoration-color:#000000;text-transform:none;text-orientation:mixed;white-space:normal;shape-padding:0;isolation:auto;mix-blend-mode:normal;solid-color:#000000;solid-opacity:1;stroke-width:0.959385;fill:#6d5980;fill-opacity:1"
       d="m -8.5780354,917.61 v 26 h 9.20419428 v -4 H -4.8963577 v -18 h 5.52251658 v -4 z m 69.9518764,0 v 4 h 5.522517 v 18 h -5.522517 v 4 h 9.204194 v -26 z"
       color="#000000"
       font-weight="400"
       font-family="sans-serif"
       overflow="visible"
       fill="#201a26"
       id="path2-9" /><circle
       r="9"
       cy="930.61102"
       cx="18.000999"
       fill="#30d475"
       id="circle4"
       inkscape:label="circle4"
       style="fill:#cc0fe0;fill-opacity:1" /></g><path
     class="cls-1"
     d="M 671.57091,129.75277 646.90197,86.972224 619.14013,38.786064 a 5.2384338,5.2384338 0 0 0 -9.0558,0 l -52.81159,90.966706 -21.36241,37.19845 a 5.1919938,5.1919938 0 0 0 4.40252,7.90409 h 40.67216 a 5.2105698,5.2105698 0 0 0 4.644,-2.69352 l 21.17665,-36.40897 3.27867,-5.57281 c 0.19504,-0.19504 0.39009,-0.39009 0.39009,-0.57585 a 5.2198578,5.2198578 0 0 1 8.66571,0.57585 l 21.97541,37.96936 4.04957,6.93814 c 0.19505,0.38081 0.38081,0.7709 0.57586,1.15171 a 5.3034498,5.3034498 0 0 1 -5.00623,6.75238 h -48.18616 a 5.1827058,5.1827058 0 0 0 -4.64401,2.69352 l -20.23855,35.29441 a 5.2755858,5.2755858 0 0 0 4.644,7.89481 h 147.05695 a 5.3406018,5.3406018 0 0 0 4.644,-7.89481 z"
     id="path1"
     inkscape:label="path1"
     style="stroke-width:0.9288;fill:#7e1bcc;fill-opacity:1" /></svg>
