<?xml version="1.0" encoding="iso-8859-1"?>

<!DOCTYPE svg PUBLIC "-//W3C//DTD SVG 1.1//EN" "http://www.w3.org/Graphics/SVG/1.1/DTD/svg11.dtd">
<svg version="1.1" id="_x36_" xmlns="http://www.w3.org/2000/svg" xmlns:xlink="http://www.w3.org/1999/xlink" 
	 viewBox="0 0 512 512"  xml:space="preserve">
  <g>
    <g>
      <path style="fill:#787878;" d="M390.839,60.991v419.691c0,17.266-14.126,31.318-31.318,31.318H31.318
        c-1.271,0-2.467-0.075-3.737-0.224c-14.202-1.719-25.637-13.08-27.357-27.356C0.075,483.149,0,481.953,0,480.682V60.991
        c0-16.145,12.407-16.443,28.179-16.443h334.482C378.432,44.548,390.839,44.847,390.839,60.991z"/>
      <path style="fill:#4B4A4A;" d="M390.839,31.318v404.891c0,17.191-14.126,31.243-31.318,31.243H31.318
        C14.127,467.452,0,453.4,0,436.209V31.318C0,14.127,14.127,0,31.318,0h328.203c1.345,0,2.691,0.075,4.036,0.299
        c13.977,1.794,25.189,13.005,26.983,26.983C390.764,28.627,390.839,29.973,390.839,31.318z"/>
      <path style="fill:#787878;" d="M195.42,359.268c-85.916,0-155.813-69.896-155.813-155.813
        c0-85.915,69.896-155.813,155.813-155.813s155.813,69.898,155.813,155.813C351.232,289.372,281.336,359.268,195.42,359.268z"/>
      <circle style="fill:#EAEAEA;" cx="195.42" cy="203.455" r="137.264"/>
      <path style="fill:#CCCCCC;" d="M195.42,266.522c-34.776,0-63.067-28.291-63.067-63.067s28.291-63.067,63.067-63.067
        s63.067,28.291,63.067,63.067S230.196,266.522,195.42,266.522z"/>
      <g style="opacity:0.2;">
        <g>
          <path style="fill:#4B4A4A;" d="M189.853,247.999c0-3.139,2.46-5.606,5.606-5.606l0,0l0,0l0,0c0.146,0,0.292,0,0.372,0l0,0
            c3.066,0,5.606,2.467,5.679,5.533l0,0c0,3.066-2.467,5.533-5.533,5.606l0,0c-0.073,0-0.226,0-0.299,0l0,0
            c-0.073,0-0.146,0-0.219,0l0,0l0,0l0,0C192.313,253.531,189.853,251.064,189.853,247.999z M163.313,241.874
            c-2.387-2.022-2.686-5.533-0.745-7.854l0,0c2.015-2.387,5.533-2.686,7.847-0.671l0,0c2.394,1.949,2.693,5.46,0.672,7.774l0,0
            c-1.044,1.35-2.613,2.022-4.256,2.022l0,0C165.634,243.145,164.364,242.692,163.313,241.874z M220.123,240.823
            c-2.022-2.314-1.723-5.825,0.598-7.774l0,0c2.314-2.015,5.825-1.788,7.847,0.599l0,0c2.015,2.321,1.715,5.832-0.598,7.847l0,0
            c-1.044,0.898-2.321,1.35-3.591,1.35l0,0C222.809,242.845,221.24,242.174,220.123,240.823z M146.123,212.276
            c-0.599-3.066,1.496-5.905,4.489-6.431l0,0c2.985-0.599,5.898,1.423,6.423,4.482l0,0c0.598,2.993-1.416,5.905-4.482,6.431l0,0
            c-0.299,0.073-0.672,0.073-0.971,0.073l0,0C148.963,216.831,146.576,214.962,146.123,212.276z M238.437,216.232
            c-3.066-0.445-5.088-3.358-4.562-6.35l0,0c0.445-3.066,3.365-5.08,6.35-4.562l0,0c3.066,0.453,5.088,3.365,4.562,6.358l0,0
            c-0.452,2.766-2.766,4.708-5.46,4.708l0,0C239.028,216.385,238.729,216.313,238.437,216.232z M154.05,186.188
            c-2.693-1.569-3.664-4.934-2.095-7.628l0,0c1.496-2.686,4.934-3.584,7.62-2.015l0,0c2.62,1.496,3.591,4.934,2.022,7.547l0,0
            c-1.051,1.796-2.92,2.839-4.861,2.839l0,0C155.839,186.933,154.868,186.714,154.05,186.188z M229.014,183.721L229.014,183.721
            c-1.569-2.613-0.671-6.058,1.949-7.628l0,0c2.613-1.569,6.051-0.672,7.62,2.022l0,0c1.569,2.613,0.672,6.051-1.942,7.62l0,0
            c-0.898,0.525-1.869,0.752-2.839,0.752l0,0C231.853,186.488,230.065,185.517,229.014,183.721z M174.751,163.612
            c-1.044-2.839,0.372-6.051,3.292-7.175l0,0c0,0,0,0,0,0.08l0,0c2.839-1.124,6.051,0.372,7.175,3.212l0,0
            c1.044,2.912-0.453,6.131-3.292,7.175l0,0c-0.672,0.226-1.343,0.372-1.942,0.372l0,0
            C177.744,167.276,175.576,165.86,174.751,163.612z M208.459,166.751h0.08c-2.92-1.044-4.416-4.183-3.445-7.095l0,0
            c1.051-2.92,4.263-4.416,7.182-3.365l0,0l0,0l0,0c2.839,1.044,4.328,4.182,3.358,7.102l0,0
            c-0.818,2.241-2.985,3.657-5.307,3.657l0,0C209.729,167.05,209.13,166.977,208.459,166.751z"/>
        </g>
      </g>
      <path style="fill:#EAEAEA;" d="M195.42,229.424c-14.318,0-25.969-11.649-25.969-25.969s11.651-25.969,25.969-25.969
        s25.969,11.649,25.969,25.969S209.737,229.424,195.42,229.424z"/>
      <g>
        <circle style="fill:#787878;" cx="38.37" cy="38.059" r="12.057"/>
        <circle style="fill:#787878;" cx="352.469" cy="38.059" r="12.057"/>
        <g>
          <circle style="fill:#787878;" cx="38.37" cy="421.408" r="12.057"/>
          <circle style="fill:#787878;" cx="352.469" cy="421.408" r="12.057"/>
        </g>
      </g>
      <rect x="48.147" y="467.471" style="fill:#616363;" width="138.809" height="17.003"/>
      <rect x="257.443" y="484.474" style="opacity:0.3;fill:#FDEED2;" width="26.896" height="17.622"/>
      <rect x="292.687" y="484.474" style="opacity:0.3;fill:#FDEED2;" width="57.502" height="17.622"/>
      <rect x="186.957" y="373.072" style="opacity:0.1;fill:#DCECCC;" width="133.554" height="68.632"/>
      <g>
        <path style="fill:#E95D7A;" d="M103.28,181.625L79.491,397.617l0,0c0,13.139,10.651,23.79,23.789,23.79
          c13.141,0,23.792-10.651,23.792-23.79l0,0L103.28,181.625z"/>
        <circle style="fill:#484747;" cx="103.282" cy="397.376" r="10.011"/>
      </g>
    </g>
    <path style="opacity:0.08;fill:#040000;" d="M0,451.419v29.263c0,1.271,0.075,2.467,0.224,3.737
      c1.719,14.276,13.155,25.637,27.357,27.356c1.271,0.15,2.467,0.224,3.737,0.224h328.203c17.192,0,31.318-14.052,31.318-31.318
      v-44.473V60.991V60.58L0,451.419z"/>
  </g>
</svg>