<svg width="24" height="24" viewBox="0 0 24 24" fill="none" xmlns="http://www.w3.org/2000/svg">
<path d="M11.9817 2C14.779 2 17.1606 2.97658 19.1246 4.9288C20.0647 5.86912 20.7794 6.94383 21.2675 8.15197C21.7553 9.36043 22 10.6429 22 12.0002C22 13.3692 21.7584 14.6521 21.2769 15.848C20.7947 17.0443 20.0831 18.1012 19.1431 19.0178C18.1671 19.9818 17.0599 20.7203 15.8215 21.2322C14.5836 21.7441 13.3036 22 11.9823 22C10.6611 22 9.39605 21.7475 8.1876 21.2409C6.97945 20.7353 5.896 20.0031 4.93755 19.045C3.97909 18.0868 3.25002 17.0062 2.75001 15.8037C2.25 14.6011 2 13.3336 2 12.0002C2 10.6786 2.25282 9.40793 2.75876 8.1876C3.26471 6.96727 4.00003 5.87506 4.96411 4.91067C6.86883 2.97064 9.20793 2 11.9817 2ZM12.018 3.80378C9.73231 3.80378 7.80947 4.6016 6.24975 6.19663C5.4638 6.99445 4.85973 7.89009 4.43723 8.88417C4.01409 9.87825 3.80315 10.917 3.80315 12.0005C3.80315 13.072 4.01409 14.1049 4.43723 15.0983C4.86004 16.093 5.4638 16.9799 6.24975 17.7596C7.03539 18.5396 7.92197 19.1343 8.91073 19.5456C9.89856 19.9562 10.9345 20.1615 12.018 20.1615C13.0892 20.1615 14.1274 19.9537 15.1346 19.5368C16.1405 19.1196 17.0474 18.519 17.8574 17.7334C19.4168 16.2096 20.1962 14.2989 20.1962 12.0008C20.1962 10.8936 19.9937 9.84606 19.589 8.85792C19.185 7.86978 18.5953 6.98914 17.8221 6.21475C16.214 4.60754 14.2799 3.80378 12.018 3.80378ZM11.8927 10.3398L10.5529 11.0364C10.4098 10.7392 10.2345 10.5304 10.0264 10.4114C9.81793 10.2926 9.62449 10.2329 9.44574 10.2329C8.55323 10.2329 8.10635 10.822 8.10635 12.0008C8.10635 12.5364 8.21947 12.9645 8.44541 13.2861C8.67167 13.6077 9.00511 13.7686 9.44574 13.7686C10.0292 13.7686 10.4398 13.4827 10.6783 12.9114L11.9102 13.5364C11.6483 14.0249 11.2851 14.4086 10.8208 14.6883C10.357 14.9683 9.84481 15.108 9.28511 15.108C8.39229 15.108 7.67165 14.8346 7.12414 14.2864C6.57663 13.7389 6.30288 12.977 6.30288 12.0011C6.30288 11.0486 6.57976 10.2929 7.13321 9.73325C7.68665 9.17386 8.38604 8.89386 9.23168 8.89386C10.4701 8.89323 11.3567 9.37543 11.8927 10.3398ZM17.6606 10.3398L16.339 11.0364C16.1962 10.7392 16.0202 10.5304 15.8121 10.4114C15.6033 10.2926 15.4036 10.2329 15.214 10.2329C14.3211 10.2329 13.8742 10.822 13.8742 12.0008C13.8742 12.5364 13.9877 12.9645 14.2136 13.2861C14.4396 13.6077 14.7727 13.7686 15.214 13.7686C15.7968 13.7686 16.2077 13.4827 16.4455 12.9114L17.6956 13.5364C17.4221 14.0249 17.0527 14.4086 16.589 14.6883C16.1246 14.9683 15.6187 15.108 15.0711 15.108C14.1661 15.108 13.4433 14.8346 12.902 14.2864C12.3595 13.7389 12.0889 12.977 12.0889 12.0011C12.0889 11.0486 12.3655 10.2929 12.9195 9.73325C13.4727 9.17386 14.1721 8.89386 15.0174 8.89386C16.2555 8.89323 17.1371 9.37543 17.6606 10.3398Z" fill="#858199"/>
</svg>
