<svg width="24" height="24" viewBox="0 0 24 24" fill="none" xmlns="http://www.w3.org/2000/svg">
<path d="M11.9819 2C14.7913 2 17.1603 2.96406 19.0891 4.8925C21.0291 6.82125 22 9.19031 22 12C22 14.81 21.0475 17.1488 19.1422 19.0181C17.1187 21.0063 14.7316 22 11.9819 22C9.2675 22 6.9225 21.0119 4.94656 19.0359C2.9825 17.0712 2 14.7266 2 12C2 9.26188 2.9825 6.89281 4.94656 4.89281C6.875 2.96438 9.22 2 11.9819 2ZM4.25 9.30375C3.9525 10.125 3.80344 11.0241 3.80344 12.0003C3.80344 14.2147 4.61281 16.1316 6.23156 17.7503C7.8625 19.3578 9.79125 20.1613 12.0172 20.1613C14.2675 20.1613 16.2075 19.3463 17.8391 17.7147C18.4225 17.1553 18.8803 16.5719 19.2134 15.9641L15.4459 14.2856C15.3144 14.9169 14.9963 15.4316 14.4906 15.83C13.9838 16.2288 13.3859 16.4584 12.6956 16.5175V18.0534H11.535V16.5175C10.4278 16.5063 9.41563 16.1075 8.49938 15.3216L9.87437 13.9288C10.5288 14.5356 11.2731 14.8391 12.1066 14.8391C12.4516 14.8391 12.7466 14.7622 12.9909 14.6069C13.2347 14.4525 13.3572 14.1969 13.3572 13.8391C13.3572 13.5887 13.2675 13.3866 13.0891 13.2319L12.125 12.8209L10.9466 12.285L9.35719 11.5884L4.25 9.30375ZM12.0178 3.78562C9.74406 3.78562 7.82156 4.58906 6.25 6.19625C5.85688 6.58938 5.48781 7.03562 5.14281 7.53594L8.96437 9.25C9.13094 8.72625 9.44625 8.30656 9.91094 7.99125C10.3747 7.67594 10.9166 7.50031 11.5359 7.46438V5.92844H12.6969V7.46438C13.6137 7.51219 14.4469 7.82156 15.1969 8.39281L13.8931 9.73219C13.3328 9.33938 12.7622 9.14313 12.1787 9.14313C11.8691 9.14313 11.5925 9.20281 11.3488 9.32156C11.1047 9.44063 10.9825 9.64313 10.9825 9.92875C10.9825 10.0122 11.0122 10.0953 11.0716 10.1788L12.3394 10.7506L13.2144 11.1434L14.8219 11.8575L19.9459 14.1431C20.1131 13.4406 20.1963 12.7266 20.1963 12.0003C20.1963 9.7025 19.3988 7.76813 17.8037 6.19625C16.2203 4.58906 14.2909 3.78562 12.0178 3.78562Z" fill="#858199"/>
</svg>
