<svg width="24" height="24" viewBox="0 0 24 24" fill="none" xmlns="http://www.w3.org/2000/svg">
<path d="M11.9822 2C14.7794 2 17.1481 2.97031 19.0891 4.91094C21.0291 6.83969 22 9.2025 22 12C22 14.7981 21.0472 17.1428 19.1422 19.0356C17.1306 21.0119 14.7434 22 11.9822 22C9.27938 22 6.93437 21.0178 4.94656 19.0531C2.9825 17.0894 2 14.7387 2 12.0003C2 9.27437 2.9825 6.91125 4.94656 4.91125C6.88688 2.97031 9.23219 2 11.9822 2ZM12.0178 3.80375C9.74406 3.80375 7.82156 4.6075 6.25 6.21469C4.61875 7.86969 3.80344 9.79812 3.80344 12C3.80344 14.2266 4.61281 16.1428 6.23156 17.75C7.85063 19.3694 9.77906 20.1784 12.0172 20.1784C14.2431 20.1784 16.1841 19.3634 17.8387 17.7322C19.4103 16.2084 20.1959 14.2981 20.1959 12C20.1959 9.71469 19.3981 7.78594 17.8034 6.21469C16.22 4.60688 14.2913 3.80375 12.0178 3.80375ZM15.7859 9.6425V11.3569H8.51813V9.6425H15.7859ZM15.7859 12.8572V14.5706H8.51813V12.8572H15.7859Z" fill="#858199"/>
</svg>
