<svg width="24" height="24" viewBox="0 0 24 24" fill="none" xmlns="http://www.w3.org/2000/svg">
    <path d="M16.2953 14.3649L5.38904 14.3696C5.10206 14.3696 4.86926 14.1345 4.86926 13.8443L4.86687 6.47901C4.86687 6.18883 5.09965 5.95287 5.38585 5.95287L16.2922 5.94808C16.5791 5.94808 16.8119 6.18325 16.8119 6.47423L16.8143 13.8395C16.8143 14.1289 16.5823 14.3649 16.2953 14.3649ZM3.82639 3.84835C3.25321 3.84915 2.78845 4.32029 2.78845 4.90064L2.79244 15.4229C2.79324 16.004 3.25719 16.4743 3.83199 16.4743L17.8546 16.4688C18.4286 16.468 18.8933 15.9968 18.8933 15.4165L18.8886 4.89426C18.8886 4.3131 18.4238 3.84277 17.8498 3.84277L3.82639 3.84835ZM22.7884 18.5798V7.00059C22.7884 6.70961 22.5556 6.47445 22.2694 6.47445H21.2299C20.9429 6.47445 20.7101 6.70961 20.7101 7.00059V17.0006C20.7101 17.5817 20.2453 18.0529 19.6714 18.0529H7.72383C7.43685 18.0529 7.20406 18.288 7.20406 18.579V19.6313C7.20406 19.9223 7.43683 20.1574 7.72383 20.1574H21.2307C22.0901 20.1582 22.7885 19.4519 22.7885 18.5798L22.7884 18.5798ZM8.43169 12.7898H12.9341C13.2546 12.7898 13.4308 12.3991 13.2283 12.1385L10.9771 9.25173C10.8248 9.05722 10.541 9.05722 10.3887 9.25173L8.13752 12.1391C7.93504 12.3989 8.11201 12.7896 8.43169 12.7896V12.7898ZM13.3145 7.52671C12.7334 7.52671 12.2622 7.99786 12.2622 8.579C12.2622 9.16014 12.7334 9.63128 13.3145 9.63128C13.8957 9.63128 14.3668 9.16014 14.3668 8.579C14.3676 7.99783 13.8965 7.52671 13.3145 7.52671Z" fill="#858199"/>
</svg>
