<svg width="25" height="25" viewBox="0 0 25 25" fill="none" xmlns="http://www.w3.org/2000/svg">
<g clip-path="url(#clip0_706_1654)">
<path fill-rule="evenodd" clip-rule="evenodd" d="M12.5 24.5C19.1274 24.5 24.5 19.1274 24.5 12.5C24.5 5.87258 19.1274 0.5 12.5 0.5C5.87258 0.5 0.5 5.87258 0.5 12.5C0.5 19.1274 5.87258 24.5 12.5 24.5ZM16.8999 6.955C17.1046 6.69429 17.398 6.53083 17.7144 6.50425C18.0295 6.47634 18.3433 6.58677 18.5835 6.80906C18.825 7.03148 18.9736 7.34946 18.9968 7.68955C19.02 8.0312 18.9163 8.36839 18.7077 8.62754L11.2218 18.0509C10.9995 18.3306 10.6776 18.4941 10.3365 18.5H10.3187C9.98447 18.5 9.66533 18.3484 9.44012 18.0819L5.81255 13.7987C5.36782 13.2746 5.40196 12.4618 5.88766 11.9818C6.37325 11.5032 7.12636 11.54 7.56975 12.0642L10.2901 15.2755L16.8999 6.955Z" fill="#0BA400"/>
<path fill-rule="evenodd" clip-rule="evenodd" d="M17.7144 6.50425C17.398 6.53083 17.1046 6.69429 16.8999 6.955L10.2901 15.2755L7.56976 12.0642C7.12637 11.54 6.37325 11.5032 5.88767 11.9818C5.40197 12.4618 5.36783 13.2746 5.81256 13.7987L9.44012 18.0819C9.66534 18.3484 9.98448 18.5 10.3187 18.5H10.3365C10.6776 18.4941 10.9995 18.3306 11.2218 18.0509L18.7077 8.62754C18.9163 8.36839 19.02 8.0312 18.9968 7.68955C18.9736 7.34946 18.825 7.03148 18.5835 6.80906C18.3433 6.58677 18.0296 6.47634 17.7144 6.50425Z" fill="white"/>
</g>
<defs>
<clipPath id="clip0_706_1654">
<rect width="24" height="24" fill="white" transform="translate(0.5 0.5)"/>
</clipPath>
</defs>
</svg>
