<?xml version="1.0" encoding="UTF-8"?>
<svg width="48px" height="48px" viewBox="0 0 48 48" version="1.1" xmlns="http://www.w3.org/2000/svg" xmlns:xlink="http://www.w3.org/1999/xlink">
    <g id="Asset-Guide" stroke="none" stroke-width="1" fill="none" fill-rule="evenodd">
        <g transform="translate(-301.000000, -1925.000000)" fill="#FAFAFA" id="icons/upload">
            <g transform="translate(301.000000, 1925.000000)">
                <path d="M37.1764706,32.9411765 C37.1764706,33.3775059 37.0034824,33.7976471 36.6945882,34.1063529 C36.3858824,34.4152471 35.9659294,34.5882353 35.5294118,34.5882353 L12.4705882,34.5882353 C12.0340706,34.5882353 11.6141176,34.4152471 11.3054118,34.1063529 C10.9965176,33.7976471 10.8235294,33.3775059 10.8235294,32.9411765 L10.8235294,26.3529412 C10.8235294,25.4430118 11.5606588,24.7058824 12.4705882,24.7058824 C13.3805176,24.7058824 14.1176471,25.4430118 14.1176471,26.3529412 L14.1176471,31.2941176 L33.8823529,31.2941176 L33.8823529,26.3529412 C33.8823529,25.9164235 34.0553412,25.4964706 34.3642353,25.1877647 C34.6729412,24.8788706 35.0928941,24.7058824 35.5294118,24.7058824 C35.9659294,24.7058824 36.3858824,24.8786824 36.6945882,25.1877647 C37.0034824,25.4964706 37.1764706,25.9166118 37.1764706,26.3529412 L37.1764706,32.9411765 Z M17.8944,16.9534118 L22.8355765,12.0122353 C23.1444706,11.7033412 23.5634824,11.5294118 24,11.5294118 C24.4365176,11.5294118 24.8553412,11.7033412 25.1642353,12.0122353 L30.1054118,16.9534118 C30.7457882,17.5968 30.7446588,18.6375529 30.1024,19.2788706 C29.4610824,19.9211294 28.4203294,19.9222588 27.7769412,19.2818824 L27.7769412,19.2828235 L25.6470588,17.1531294 L25.6470588,26.3529412 C25.6470588,27.2628706 24.9099294,28 24,28 C23.0900706,28 22.3529412,27.2628706 22.3529412,26.3529412 L22.3529412,17.1531294 L20.2230588,19.2818824 C19.5796706,19.9222588 18.5389176,19.9211294 17.8976,19.2788706 C17.2551529,18.6375529 17.2542118,17.5968 17.8944,16.9534118 Z M24,0 C10.7450353,0 0,10.7450353 0,24 C0,37.2547765 10.7450353,48 24,48 C37.2549647,48 48,37.2547765 48,24 C48,10.7450353 37.2549647,0 24,0 Z" id="Upload-Icon"></path>
            </g>
        </g>
    </g>
</svg>