<?xml version="1.0" encoding="UTF-8"?>
<svg width="24px" height="24px" viewBox="0 0 24 24" version="1.1" xmlns="http://www.w3.org/2000/svg" xmlns:xlink="http://www.w3.org/1999/xlink">
    <g id="Assets" stroke="none" stroke-width="1" fill="none" fill-rule="evenodd">
        <g id="assets" transform="translate(-769.000000, -2875.000000)">
            <g id="icon/mail" transform="translate(769.000000, 2875.000000)">
                <rect id="bound" x="0" y="0" width="24" height="24"></rect>
                <path d="M19,9 C20.1045695,9 21,9.8954305 21,11 L21,20 C21,21.1045695 20.1045695,22 19,22 L5,22 C3.8954305,22 3,21.1045695 3,20 L3,11 C3,9.8954305 3.8954305,9 5,9 L19,9 Z M19.1603533,11.1444251 C18.9639747,10.7797221 18.5091282,10.6432681 18.1444251,10.8396467 L18.1444251,10.8396467 L12,14.1481833 L5.85557487,10.8396467 C5.4908718,10.6432681 5.03602525,10.7797221 4.83964668,11.1444251 C4.6432681,11.5091282 4.77972206,11.9639747 5.14442513,12.1603533 L5.14442513,12.1603533 L11.6444251,15.6603533 C11.8664074,15.7798822 12.1335926,15.7798822 12.3555749,15.6603533 L12.3555749,15.6603533 L18.8555749,12.1603533 C19.2202779,11.9639747 19.3567319,11.5091282 19.1603533,11.1444251 Z" id="Combined-Shape" fill="#7118B8" fill-rule="evenodd"></path>
                <path d="M11.1288761,0.733696109 L11.1288761,2.69017121 L11.1288761,2.69017121 L9.12120481,2.69017121 C8.84506244,2.69017121 8.62120481,2.91402884 8.62120481,3.19017121 L8.62120481,4.21346991 C8.62120481,4.48961229 8.84506244,4.71346991 9.12120481,4.71346991 L11.1288761,4.71346991 L11.1288761,4.71346991 L11.1288761,6.66994181 C11.1288761,6.94608418 11.3527337,7.16994181 11.6288761,7.16994181 C11.7471879,7.16994181 11.8616667,7.12798789 11.9519615,7.05153826 L15.4576226,4.08340858 C15.6683725,3.90497347 15.6945688,3.58947668 15.5161337,3.37872677 C15.4982799,3.35763964 15.4787089,3.33806869 15.4576217,3.32021494 L11.9519606,0.352098921 C11.7412103,0.173664286 11.4257136,0.199861314 11.2472789,0.410611622 C11.1708298,0.500906241 11.1288761,0.615384678 11.1288761,0.733696109 Z" id="Shape" fill="#9849D6" fill-rule="evenodd" transform="translate(11.959697, 3.661508) rotate(-90.000000) translate(-11.959697, -3.661508) "></path>
            </g>
            <g id="icon/mail" transform="translate(769.000000, 2875.000000)">
                <rect id="bound" x="0" y="0" width="24" height="24"></rect>
                <path d="M19,9 C20.1045695,9 21,9.8954305 21,11 L21,20 C21,21.1045695 20.1045695,22 19,22 L5,22 C3.8954305,22 3,21.1045695 3,20 L3,11 C3,9.8954305 3.8954305,9 5,9 L19,9 Z M19.1603533,11.1444251 C18.9639747,10.7797221 18.5091282,10.6432681 18.1444251,10.8396467 L18.1444251,10.8396467 L12,14.1481833 L5.85557487,10.8396467 C5.4908718,10.6432681 5.03602525,10.7797221 4.83964668,11.1444251 C4.6432681,11.5091282 4.77972206,11.9639747 5.14442513,12.1603533 L5.14442513,12.1603533 L11.6444251,15.6603533 C11.8664074,15.7798822 12.1335926,15.7798822 12.3555749,15.6603533 L12.3555749,15.6603533 L18.8555749,12.1603533 C19.2202779,11.9639747 19.3567319,11.5091282 19.1603533,11.1444251 Z" id="Combined-Shape" fill="#7118B8" fill-rule="evenodd"></path>
                <path d="M11.1288761,0.733696109 L11.1288761,2.69017121 L11.1288761,2.69017121 L9.12120481,2.69017121 C8.84506244,2.69017121 8.62120481,2.91402884 8.62120481,3.19017121 L8.62120481,4.21346991 C8.62120481,4.48961229 8.84506244,4.71346991 9.12120481,4.71346991 L11.1288761,4.71346991 L11.1288761,4.71346991 L11.1288761,6.66994181 C11.1288761,6.94608418 11.3527337,7.16994181 11.6288761,7.16994181 C11.7471879,7.16994181 11.8616667,7.12798789 11.9519615,7.05153826 L15.4576226,4.08340858 C15.6683725,3.90497347 15.6945688,3.58947668 15.5161337,3.37872677 C15.4982799,3.35763964 15.4787089,3.33806869 15.4576217,3.32021494 L11.9519606,0.352098921 C11.7412103,0.173664286 11.4257136,0.199861314 11.2472789,0.410611622 C11.1708298,0.500906241 11.1288761,0.615384678 11.1288761,0.733696109 Z" id="Shape" fill="#9849D6" fill-rule="evenodd" transform="translate(11.959697, 3.661508) rotate(-90.000000) translate(-11.959697, -3.661508) "></path>
            </g>
        </g>
    </g>
</svg>