<?xml version="1.0" encoding="UTF-8"?>
<svg width="24px" height="24px" viewBox="0 0 24 24" version="1.1" xmlns="http://www.w3.org/2000/svg" xmlns:xlink="http://www.w3.org/1999/xlink">
    <g id="🗿" stroke="none" stroke-width="1" fill="none" fill-rule="evenodd">
        <g id="icon-upload-sheet" transform="translate(-112.000000, -1480.000000)">
            <g id="icon/following" transform="translate(112.000000, 1480.000000)">
                <rect id="bound" x="0" y="0" width="24" height="24"></rect>
                <path d="M18.6651692,21.5248242 C18.427718,21.8242677 18.0820969,21.9936907 17.7194494,22 C17.3378029,22.0000694 16.9981978,21.8400716 16.7591748,21.5565498 L14.3166444,18.6657173 C14.093245,18.4018281 13.9874973,18.0657818 14.0011753,17.7341264 C14.0149177,17.4009072 14.1490541,17.0748709 14.3945374,16.8316962 C14.6554521,16.5739558 14.9890668,16.4587717 15.3151802,16.4747839 C15.6392906,16.4906976 15.9602744,16.636629 16.1969426,16.9171038 L17.6688415,18.6588145 L21.7720608,13.4813585 C21.9904156,13.2026378 22.3051353,13.032802 22.6391743,13.0046837 C22.9778126,12.9746203 23.3168186,13.0900228 23.5750453,13.3295533 C23.8194633,13.5552398 23.9733193,13.8767837 23.9968446,14.2228919 C24.020129,14.5670373 23.9136807,14.9056326 23.7062255,15.1638874 L18.6651692,21.5248242 Z M12.8554237,14.0474768 C11.6877554,16.4524918 11.6827453,19.6742513 13.042969,21.8458255 C7.80174972,22.3965999 1,21.4716807 1,19.0710678 C1,16.4713263 2.78570054,14.199268 5.4459986,12.9707232 C6.67015349,14.0203314 8.26102457,14.6544415 10,14.6544415 C11.0170453,14.6544415 11.9834311,14.4375421 12.8554237,14.0474768 Z M10,13 C7.23857625,13 5,10.7614237 5,8 C5,5.23857625 7.23857625,3 10,3 C12.7614237,3 15,5.23857625 15,8 C15,10.7614237 12.7614237,13 10,13 Z" id="Combined-Shape" fill="#858199" fill-rule="evenodd"></path>
            </g>
        </g>
    </g>
</svg>