<svg width="12" height="13" viewBox="0 0 12 13" fill="none" xmlns="http://www.w3.org/2000/svg">
<path fill-rule="evenodd" clip-rule="evenodd" d="M10.1504 9.39473C9.91704 9.39473 9.66765 9.28277 9.51694 9.12192L6 5.63202L2.43372 9.16953C2.28434 9.31495 2.05095 9.39473 1.84956 9.39473C1.3841 9.39473 1 9.02412 1 8.57502C1 8.34982 1.10003 8.14006 1.26674 7.97921L5.39984 3.89479C5.55055 3.73394 5.7666 3.60526 6 3.60526C6.21739 3.60526 6.45079 3.75067 6.60016 3.89479L10.7333 7.97921C10.9333 8.17224 11 8.38199 11 8.57502C11 9.02412 10.6172 9.39473 10.1504 9.39473Z" fill="#C2C0CC"/>
</svg>
