<?xml version="1.0" encoding="UTF-8"?>
<svg width="96px" height="96px" viewBox="0 0 96 96" version="1.1" xmlns="http://www.w3.org/2000/svg" xmlns:xlink="http://www.w3.org/1999/xlink">
    <g id="Assets" stroke="none" stroke-width="1" fill="none" fill-rule="evenodd">
        <g id="assets" transform="translate(-727.000000, -2503.000000)">
            <g id="icon/big/search" transform="translate(727.000000, 2503.000000)">
                <rect id="bound" x="0" y="0" width="96" height="96"></rect>
                <path d="M57.1715729,66.8284271 C55.6094757,65.26633 55.6094757,62.73367 57.1715729,61.1715729 C58.73367,59.6094757 61.26633,59.6094757 62.8284271,61.1715729 L78.8284271,77.1715729 C80.3905243,78.73367 80.3905243,81.26633 78.8284271,82.8284271 C77.26633,84.3905243 74.73367,84.3905243 73.1715729,82.8284271 L57.1715729,66.8284271 Z" id="Path-2" fill="#C2C0CC" fill-rule="evenodd"></path>
                <path d="M44,64 C55.045695,64 64,55.045695 64,44 C64,32.954305 55.045695,24 44,24 C32.954305,24 24,32.954305 24,44 C24,55.045695 32.954305,64 44,64 Z M44,72 C28.536027,72 16,59.463973 16,44 C16,28.536027 28.536027,16 44,16 C59.463973,16 72,28.536027 72,44 C72,59.463973 59.463973,72 44,72 Z" id="Path" fill="#AAA7B8" fill-rule="evenodd"></path>
            </g>
        </g>
    </g>
</svg>