<?xml version="1.0" encoding="UTF-8"?>
<svg width="24px" height="24px" viewBox="0 0 24 24" version="1.1" xmlns="http://www.w3.org/2000/svg" xmlns:xlink="http://www.w3.org/1999/xlink">
    <g id="Assets" stroke="none" stroke-width="1" fill="none" fill-rule="evenodd">
        <g id="assets" transform="translate(-763.000000, -1759.000000)">
            <g id="icon/tracks" transform="translate(763.000000, 1759.000000)">
                <rect id="bound" x="0" y="0" width="24" height="24"></rect>
                <path d="M8,17.0400072 L8,7.61346039 C8,7.16198653 8.28424981,6.76289841 8.70172501,6.62823505 L17.701725,4.04770596 C18.3456556,3.83999576 19,4.3365598 19,5.0329313 L19,16.9033651 C19,16.9179063 18.9997087,16.9323773 18.9991318,16.9467722 C18.9997094,16.9644586 19,16.9822021 19,17 C19,18.1045695 17.8807119,19 16.5,19 C15.1192881,19 14,18.1045695 14,17 C14,15.8954305 15.1192881,15 16.5,15 C16.6712329,15 16.838445,15.0137721 17,15.0400072 L17,7.61346039 L10,9.5488572 L10,18.9677884 C10,18.9726204 9.99996783,18.9774447 9.99990371,18.9822611 C9.99996786,18.988168 10,18.994081 10,19 C10,20.1045695 8.88071187,21 7.5,21 C6.11928813,21 5,20.1045695 5,19 C5,17.8954305 6.11928813,17 7.5,17 C7.67123292,17 7.83844503,17.0137721 8,17.0400072 Z" id="Combined-Shape" fill="#858199" fill-rule="evenodd"></path>
            </g>
        </g>
    </g>
</svg>