<svg width="192" height="40" viewBox="0 0 192 40" fill="none" xmlns="http://www.w3.org/2000/svg">
<path fill-rule="evenodd" clip-rule="evenodd" d="M28.2024 19.4238L23.1027 10.5433L17.3637 0.540587C17.2684 0.376125 17.1318 0.239647 16.9675 0.144786C16.8033 0.0499243 16.6171 0 16.4276 0C16.2382 0 16.052 0.0499243 15.8877 0.144786C15.7235 0.239647 15.5869 0.376125 15.4916 0.540587L4.5742 19.4238L0.15808 27.1456C0.0586517 27.3086 0.00417356 27.4952 0.000230396 27.6863C-0.00371277 27.8774 0.0430209 28.0661 0.13564 28.2331C0.22826 28.4001 0.363434 28.5393 0.527304 28.6365C0.691175 28.7338 0.877847 28.7855 1.06818 28.7864H9.47609C9.67158 28.7895 9.86421 28.7391 10.0333 28.6406C10.2025 28.5421 10.3417 28.3992 10.4361 28.2273L14.8138 20.6694L15.4916 19.5125C15.5319 19.472 15.5723 19.4315 15.5723 19.393C15.6804 19.2515 15.8216 19.139 15.9834 19.0655C16.1452 18.992 16.3226 18.9597 16.4998 18.9715C16.677 18.9834 16.8486 19.0389 16.9993 19.1333C17.15 19.2277 17.2751 19.3579 17.3637 19.5125L21.9065 27.3944L22.7437 28.8346C22.7638 28.8741 22.7835 28.9141 22.8032 28.9542C22.8229 28.9942 22.8425 29.0342 22.8627 29.0737C22.9086 29.2359 22.9168 29.4065 22.8866 29.5723C22.8565 29.7382 22.7888 29.8949 22.6888 30.0303C22.5888 30.1658 22.4592 30.2763 22.3099 30.3535C22.1606 30.4306 21.9957 30.4723 21.8278 30.4754H11.8666C11.671 30.4717 11.4781 30.5218 11.3088 30.6204C11.1396 30.719 11.0005 30.8622 10.9065 31.0345L6.72274 38.3611C6.6273 38.5286 6.57764 38.7185 6.57881 38.9115C6.57997 39.1045 6.63191 39.2938 6.72936 39.4601C6.82681 39.6265 6.96632 39.764 7.13374 39.8588C7.30117 39.9536 7.49057 40.0023 7.68277 39.9999H38.083C38.2736 39.9983 38.4606 39.9471 38.6257 39.8513C38.7908 39.7555 38.9284 39.6184 39.025 39.4534C39.1217 39.2884 39.1742 39.101 39.1773 38.9096C39.1805 38.7182 39.1342 38.5292 39.043 38.3611L28.2024 19.4238ZM56.9284 10.1829L48.7624 29.6272H54.3805L55.736 26.1856H63.1858L64.5798 29.6272H70.3188L62.149 10.1829H56.9284ZM57.2874 22.0191L59.4398 16.5377L61.5903 22.0191H57.2874ZM86.497 25.1462C88.6494 25.1462 90.0433 23.866 90.0433 21.1841V10.3022H95.4559V21.0241C95.4559 27.2652 91.9115 29.9876 86.4528 29.9876C80.9941 29.9876 77.5668 27.1861 77.5265 21.1456V10.3022H82.9391V21.0241C82.9391 23.8255 84.3446 25.1462 86.497 25.1462ZM113.028 10.3022H105.577V29.627H112.873C119.804 29.627 123.829 25.5049 123.829 19.9039V19.8248C123.906 14.3068 119.921 10.3022 113.028 10.3022ZM118.447 19.9849C118.447 23.1044 116.335 24.8647 113.148 24.8647H110.995V15.0626H113.148C116.335 15.0626 118.447 16.8634 118.447 19.9444V19.9849ZM133.387 10.3022H138.726V29.627H133.387V10.3022ZM161.47 21.1841C161.47 23.866 160.076 25.1462 157.924 25.1462C155.771 25.1462 154.377 23.8255 154.377 21.0241V10.3022H148.966V21.1456C148.966 27.1861 152.394 29.9876 157.891 29.9876C163.35 29.9876 166.896 27.2652 166.896 21.0241V10.3022H161.47V21.1841ZM181.557 15.7029C181.557 16.584 182.235 16.9831 184.904 17.5847C189.328 18.5853 192.077 19.9851 191.998 23.7139V23.7525C191.998 27.6741 188.892 30.0341 184.23 30.0341C180.843 30.0341 177.615 28.9544 175.225 26.8335L178.212 23.2724C180.125 24.7859 182.237 25.5861 184.468 25.5861C185.902 25.5861 186.659 25.106 186.659 24.2654V24.1863C186.659 23.3862 185.985 22.9447 183.395 22.345C179.292 21.4254 176.143 20.2242 176.143 16.264V16.183C176.143 12.5834 178.973 9.98242 183.594 9.98242C186.86 9.98242 189.451 10.8635 191.522 12.5429L188.853 16.343C187.104 15.0956 185.192 14.415 183.477 14.415C182.195 14.415 181.557 14.9761 181.557 15.6567V15.7029Z" fill="#FF0000"/>
</svg>
