<svg width="24" height="24" viewBox="0 0 24 24" fill="none" xmlns="http://www.w3.org/2000/svg">
<path d="M13.2356 7.5C13.3791 7.5 13.4932 7.62057 13.4852 7.76387L13.146 13.8695C13.1365 14.0407 12.9609 14.152 12.7955 14.1066C12.5421 14.0371 12.2753 14 11.9999 14C11.7244 14 11.4577 14.0371 11.2043 14.1066C11.0389 14.152 10.8633 14.0407 10.8538 13.8695L10.5146 7.76387C10.5066 7.62057 10.6206 7.5 10.7642 7.5H13.2356Z" fill="#000"/>
<path d="M13.5 16.5C13.5 17.3284 12.8284 18 12 18C11.1716 18 10.5 17.3284 10.5 16.5C10.5 15.6716 11.1716 15 12 15C12.8284 15 13.5 15.6716 13.5 16.5Z" fill="#000"/>
<path fill-rule="evenodd" clip-rule="evenodd" d="M12 3C8.64858 3 5.7973 4.98074 5.10865 8.26517C2.83192 9.213 1 11.2215 1 14C1 15.847 1.85706 17.5901 3.11911 18.859C4.3819 20.1287 6.12639 21 8 21H17C20.3078 21 23 18.2545 23 15C23 12.4046 21.1513 10.2069 18.9679 9.28466C18.6389 5.65366 15.812 3 12 3ZM6.99265 9.12098C7.29782 6.61705 9.30534 5 12 5C14.9418 5 17 7.10017 17 10V10.7515L17.7218 10.9605C19.5029 11.4763 21 13.1881 21 15C21 17.1609 19.1922 19 17 19H8C6.74861 19 5.4931 18.4098 4.53714 17.4487C3.58044 16.4868 3 15.23 3 14C3 12.0877 4.34899 10.5944 6.31184 9.95013L6.91576 9.75193L6.99265 9.12098Z" fill="#000"/>
</svg>
