<svg width="24" height="24" viewBox="0 0 24 24" fill="none" xmlns="http://www.w3.org/2000/svg">
<path d="M21.6136 1.64828C20.7493 0.783906 19.3521 0.783906 18.4877 1.64828L17.2997 2.83235L21.1637 6.69638L22.3517 5.50836C23.2161 4.64399 23.2161 3.24678 22.3517 2.38241L21.6136 1.64828ZM9.80448 10.3315C9.56372 10.5723 9.37821 10.8683 9.27165 11.1959L8.10336 14.7007C7.9889 15.0402 8.07968 15.4151 8.33228 15.6717C8.58488 15.9282 8.95984 16.015 9.30322 15.9006L12.8081 14.7323C13.1317 14.6218 13.4277 14.4402 13.6725 14.1995L20.2756 7.59233L16.4077 3.72436L9.80448 10.3315V10.3315ZM6.78904 3.31783C4.69717 3.31783 3 5.015 3 7.10686V17.211C3 19.3028 4.69717 21 6.78904 21H16.8931C18.985 21 20.6822 19.3028 20.6822 17.211V13.4219C20.6822 12.7233 20.1178 12.1589 19.4192 12.1589C18.7206 12.1589 18.1562 12.7233 18.1562 13.4219V17.211C18.1562 17.9096 17.5917 18.474 16.8931 18.474H6.78904C6.09043 18.474 5.52603 17.9096 5.52603 17.211V7.10686C5.52603 6.40826 6.09043 5.84385 6.78904 5.84385H10.5781C11.2767 5.84385 11.8411 5.27944 11.8411 4.58084C11.8411 3.88223 11.2767 3.31783 10.5781 3.31783H6.78904Z" fill="#000"/>
</svg>
