<svg xmlns="http://www.w3.org/2000/svg" width="40" height="37" viewBox="0 0 40 37" fill="none">
  <path fill-rule="evenodd" clip-rule="evenodd" d="M21.5986 30.8039C20.9239 29.6565 19.6599 28.9757 18.3548 29.0604C17.5961 29.1035 16.8374 29.1035 16.0804 28.9757C11.2336 28.2965 7.44169 24.2151 7.14719 19.2419C6.72588 12.9501 11.7817 7.72102 17.9746 7.93357C23.2841 8.10294 27.7079 12.397 28.0433 17.7541V17.7972L25.3887 17.7972C23.7034 17.7972 22.6929 19.667 23.5766 21.1133L29.8143 31.1876C30.6569 32.5475 32.5956 32.5475 33.4383 31.1876L39.6725 21.1133C40.5579 19.6687 39.5458 17.7972 37.8605 17.7972H35.1647C34.8274 8.95488 27.9185 1.60034 19.1976 0.793518C8.24338 -0.184536 -0.8988 9.03947 0.070652 20.0919C0.827717 28.8497 7.94719 35.7787 16.6272 36.2454C17.3431 36.2886 18.059 36.2886 18.7766 36.2454C21.4308 36.0762 22.9465 33.142 21.5986 30.8039Z" fill="#f00"/>
</svg>
