<?xml version="1.0" encoding="UTF-8"?>
<svg width="24px" height="24px" viewBox="0 0 24 24" version="1.1" xmlns="http://www.w3.org/2000/svg" xmlns:xlink="http://www.w3.org/1999/xlink">
    <!-- Generator: Sketch 64 (93537) - https://sketch.com -->
    <g id="Explore" stroke="none" stroke-width="1" fill="none" fill-rule="evenodd">
        <g id="icon/iconMood">
            <rect id="Rectangle" x="0" y="0" width="24" height="24"></rect>
            <path d="M12,2.31249998 C17.3515625,2.31249998 21.6875,6.64843749 21.6875,12 C21.6875,17.3515625 17.3515625,21.6875 12,21.6875 C6.64843749,21.6875 2.31249998,17.3515625 2.31249998,12 C2.31249998,6.64843749 6.64843749,2.31249998 12,2.31249998 Z M7.19140624,14.53125 C6.98347421,14.4639716 6.75550305,14.5101905 6.59019264,14.65314 C6.42488223,14.7960896 6.34624679,15.015004 6.38281249,15.2304688 C6.74609374,17.3789063 9.63281249,18.875 12,18.875 C14.3671875,18.875 17.2539063,17.3789063 17.6171875,15.2304688 C17.6518787,15.0154346 17.5726917,14.7977778 17.4079341,14.6553063 C17.2431766,14.5128348 17.0163702,14.4658886 16.8085938,14.53125 C15.6289063,14.9101563 13.875,15.125 12,15.125 C10.125,15.125 8.37109374,14.9101563 7.19140624,14.53125 Z M9.57421874,7.02343749 C8.84374999,6.90624999 8.14843749,7.40624999 7.95312499,8.11328124 L7.95312499,8.11328124 L7.87499999,8.39062499 L7.59765624,8.31640624 C6.88671874,8.12890624 6.10546874,8.48437499 5.84374998,9.17187499 C5.70051349,9.54095174 5.72190355,9.953659 5.90252758,10.3059505 C6.08315161,10.658242 6.4057751,10.9165033 6.78906249,11.015625 L6.78906249,11.015625 L9.53124999,11.7265625 C9.70911839,11.7742144 9.89215781,11.6696205 9.94140624,11.4921875 L9.94140624,11.4921875 L10.6992187,8.76171874 C10.8057226,8.38031954 10.7435073,7.97155698 10.528354,7.63911527 C10.3132008,7.30667356 9.96578086,7.08249286 9.57421874,7.02343749 Z M16.046875,8.10937499 C15.8476563,7.40234374 15.1523438,6.90234374 14.4257813,7.01953124 C14.0342191,7.07858661 13.6867992,7.30276731 13.471646,7.63520902 C13.2564927,7.96765073 13.1942774,8.37641329 13.3007813,8.75781249 L13.3007813,8.75781249 L14.0585938,11.4882812 C14.1094408,11.6644639 14.2911472,11.7682961 14.46875,11.7226562 L14.46875,11.7226562 L17.2109375,11.0117187 C17.594728,10.9133776 17.9179479,10.6552283 18.0987055,10.3026764 C18.279463,9.95012455 18.3004139,9.53699841 18.15625,9.16796874 C17.8945313,8.48046874 17.1132813,8.12890624 16.4023438,8.31249999 L16.4023438,8.31249999 L16.125,8.38671874 Z" id="Combined-Shape" fill="#000" fill-rule="evenodd"></path>
        </g>
    </g>
</svg>
