<svg width="16" height="16" viewBox="0 0 16 16" fill="none" xmlns="http://www.w3.org/2000/svg">
<path fill-rule="evenodd" clip-rule="evenodd" d="M12 6.66699C12 4.36956 10.3334 2.66699 8.00004 2.66699C5.91671 2.66699 4.25004 3.94904 4.00004 6.00033C2.50004 6.49263 1.33337 7.69263 1.33337 9.33366C1.33337 11.3849 3.25004 13.3337 5.33337 13.3337H11.3334C13.1667 13.3337 14.6667 11.8055 14.6667 10.0003C14.6667 8.44135 13.4167 7.07725 12 6.66699ZM8.99027 5.17624C8.99557 5.0807 8.91954 5.00033 8.82386 5.00033H7.17622C7.08054 5.00033 7.00451 5.0807 7.00981 5.17624L7.23595 9.24667C7.24229 9.36081 7.35939 9.435 7.46964 9.40475C7.63856 9.35841 7.81641 9.33366 8.00004 9.33366C8.18367 9.33366 8.36153 9.35841 8.53045 9.40475C8.64069 9.435 8.75779 9.36081 8.76413 9.24667L8.99027 5.17624ZM8.00011 12.0003C8.5524 12.0003 9.00011 11.5526 9.00011 11.0003C9.00011 10.448 8.5524 10.0003 8.00011 10.0003C7.44783 10.0003 7.00011 10.448 7.00011 11.0003C7.00011 11.5526 7.44783 12.0003 8.00011 12.0003Z" fill="#C2C0CC"/>
</svg>
