<svg width="512" height="512" viewBox="0 0 512 512" fill="none" xmlns="http://www.w3.org/2000/svg">
  <g id="solid/cassette" style="mix-blend-mode: overlay;" fill="#FCFCFC">
    <path d="M429.829 95.0857H82.1714C71.5324 95.0857 61.3292 99.3 53.8063 106.801C46.2834 114.303 42.0571 124.477 42.0571 135.086L42.0571 375.086C42.0571 385.694 46.2834 395.869 53.8063 403.37C61.3292 410.871 71.5324 415.086 82.1714 415.086H108.914L149.029 335.086H362.971L403.086 415.086H429.829C440.468 415.086 450.671 410.871 458.194 403.37C465.717 395.869 469.943 385.694 469.943 375.086V135.086C469.943 124.477 465.717 114.303 458.194 106.801C450.671 99.3 440.468 95.0857 429.829 95.0857ZM149.029 255.086C143.739 255.086 138.569 253.522 134.171 250.592C129.773 247.661 126.345 243.497 124.321 238.624C122.297 233.751 121.768 228.389 122.8 223.217C123.831 218.044 126.378 213.292 130.119 209.563C133.859 205.833 138.624 203.294 143.811 202.265C148.999 201.236 154.376 201.764 159.263 203.782C164.149 205.801 168.326 209.219 171.264 213.604C174.203 217.989 175.771 223.145 175.771 228.419C175.771 235.491 172.954 242.274 167.939 247.275C162.923 252.276 156.121 255.086 149.029 255.086ZM301.78 255.086H210.22C213.955 246.689 215.885 237.605 215.885 228.419C215.885 219.233 213.955 210.149 210.22 201.752H301.78C298.045 210.149 296.115 219.233 296.115 228.419C296.115 237.605 298.045 246.689 301.78 255.086V255.086ZM362.971 255.086C357.682 255.086 352.512 253.522 348.114 250.592C343.716 247.661 340.288 243.497 338.264 238.624C336.24 233.751 335.711 228.389 336.742 223.217C337.774 218.044 340.321 213.292 344.061 209.563C347.801 205.833 352.567 203.294 357.754 202.265C362.942 201.236 368.319 201.764 373.205 203.782C378.092 205.801 382.269 209.219 385.207 213.604C388.146 217.989 389.714 223.145 389.714 228.419C389.714 235.491 386.897 242.274 381.881 247.275C376.866 252.276 370.064 255.086 362.971 255.086ZM165.559 361.752L138.816 415.086H373.184L346.441 361.752H165.559Z" fill="#FCFCFC"/>
  </g>
</svg>
