<?xml version="1.0" encoding="UTF-8"?>
<svg width="24px" height="24px" viewBox="0 0 24 24" version="1.1"
  xmlns="http://www.w3.org/2000/svg"
  xmlns:xlink="http://www.w3.org/1999/xlink">
  <g id="Assets" stroke="none" stroke-width="1" fill="none" fill-rule="evenodd">
    <g id="assets" transform="translate(-767.000000, -2783.000000)" fill="#000">
      <g id="icon/explore" transform="translate(767.000000, 2783.000000)">
        <path d="M11.1164062,11.1160156 C10.628125,11.6042969 10.628125,12.3957031 11.1164062,12.8835938 C11.6042969,13.371875 12.3960938,13.371875 12.8839844,12.8835938 C13.3722656,12.3953125 13.3722656,11.6039062 12.8839844,11.1160156 C12.3957031,10.628125 11.6042969,10.628125 11.1164062,11.1160156 Z M12,2.31249998 C6.64960936,2.31249998 2.31249998,6.64960936 2.31249998,12 C2.31249998,17.3503906 6.64960936,21.6875 12,21.6875 C17.3503906,21.6875 21.6875,17.3503906 21.6875,12 C21.6875,6.64960936 17.3503906,2.31249998 12,2.31249998 Z M16.9273438,8.09570312 L14.3503906,13.734375 C14.2257459,14.0070651 14.0070651,14.2257459 13.734375,14.3503906 L8.09609374,16.9273438 C7.44570311,17.2246094 6.77539061,16.5542969 7.07265624,15.9039063 L9.64999999,10.2652344 C9.77464476,9.9925443 9.99332555,9.77386351 10.2660156,9.64921874 L15.9042969,7.07226561 C16.5546875,6.77539061 17.2246094,7.44531249 16.9273438,8.09570312 L16.9273438,8.09570312 Z" id="compass"></path>
      </g>
    </g>
  </g>
</svg>