<svg width="48" height="48" viewBox="0 0 48 48" fill="none" xmlns="http://www.w3.org/2000/svg">
<path fill="#000" fill-rule="evenodd" clip-rule="evenodd" d="M7.53702 23.735L10.425 20.8479C11.1907 20.0821 12.509 20.5911 12.5487 21.6728C12.5989 23.0698 12.853 24.4519 13.3028 25.7755C13.4597 26.2272 13.3456 26.7288 13.0086 27.0681L11.9899 28.0868C9.81095 30.2658 9.74091 33.8191 11.9004 36.0245C12.9482 37.0911 14.3784 37.6952 15.8735 37.7026C17.3686 37.7101 18.8048 37.1203 19.8631 36.0642L25.0895 30.8323C27.276 28.6444 27.276 25.0988 25.0895 22.9109C24.8416 22.6652 24.5723 22.442 24.2849 22.244C23.9595 22.0212 23.7589 21.6575 23.744 21.2634C23.7103 20.3959 24.0416 19.5539 24.6576 18.942L26.2965 17.3078C26.7267 16.8798 27.4022 16.8227 27.8981 17.1724C30.7611 19.1714 32.595 22.333 32.9088 25.8108C33.2226 29.2886 31.9843 32.7273 29.5253 35.2066L29.4973 35.2354L24.2678 40.465C19.6553 45.0774 12.151 45.0767 7.53624 40.465C2.92146 35.8533 2.92457 28.3467 7.53702 23.735Z"/>
<path fill="#000" fill-rule="evenodd" clip-rule="evenodd" d="M36.0101 19.9139C38.1891 17.7349 38.2591 14.1816 36.0996 11.9761C35.0517 10.9097 33.6213 10.3059 32.1262 10.2988C30.6311 10.2916 29.1951 10.8817 28.137 11.938L22.9105 17.1683C20.7241 19.3562 20.7241 22.9019 22.9105 25.0897C23.1584 25.3355 23.4277 25.5586 23.7152 25.7567C24.0403 25.9796 24.2406 26.3433 24.2553 26.7372C24.2897 27.6047 23.9585 28.4469 23.3424 29.0586L21.7035 30.6967C21.2732 31.1244 20.598 31.1814 20.1019 30.8321C17.2376 28.8331 15.4028 25.6707 15.0889 22.1919C14.7751 18.7131 16.0143 15.2734 18.4747 12.794L18.5027 12.7652L23.7323 7.53565C28.3447 2.92319 35.849 2.92397 40.4638 7.53565C45.0786 12.1473 45.0763 19.6524 40.4638 24.2672L37.5759 27.1543C36.8101 27.9201 35.4918 27.4111 35.4521 26.3294C35.4019 24.9324 35.1479 23.5503 34.6981 22.2267C34.5411 21.775 34.6552 21.2734 34.9922 20.9341L36.0101 19.9139Z"/>
</svg>
