<svg xmlns="http://www.w3.org/2000/svg" width="24px" height="24px" viewBox="0 0 24 24">
    <g fill="none" fill-rule="evenodd">
        <rect width="24" height="24" />
        <path fill="#000" d="M16.45265,13.0559818 L16.5535784,12.9705279 C19.2141102,14.1990272 21,16.4711885 21,19.0710678 C21,22.9763107 3,22.9763107 3,19.0710678 C3,16.4711885 4.78588984,14.1990272 7.44642163,12.9705279 C8.67021216,14.0203548 10.2610566,14.6544415 12,14.6544415 C13.691372,14.6544415 15.2426373,14.054573 16.45265,13.0559818 L16.5535784,12.9705279 Z M12,3 C14.7614237,3 17,5.23857625 17,8 C17,10.7614237 14.7614237,13 12,13 C9.23857625,13 7,10.7614237 7,8 C7,5.23857625 9.23857625,3 12,3 Z" />
    </g>
</svg>
