<svg xmlns="http://www.w3.org/2000/svg" width="24" height="24" viewBox="0 0 24 24">
  <path fill="#000" fill-rule="evenodd" d="M10.4,5.80162798 L10.4,5.6 C10.4,4.7163444 11.1163444,4 12,4 C12.8836556,4 13.6,4.7163444 13.6,5.6 L13.6,5.80162798 C14.1872336,5.95277145 14.741849,6.18516511 15.2511478,6.48611054 L15.3941125,6.34314575 C16.0189514,5.71830688 17.0320154,5.71830688 17.6568542,6.34314575 C18.2816931,6.96798462 18.2816931,7.98104858 17.6568542,8.60588745 L17.5138895,8.74885224 C17.8148349,9.25815103 18.0472285,9.81276641 18.198372,10.4 L18.4,10.4 C19.2836556,10.4 20,11.1163444 20,12 C20,12.8836556 19.2836556,13.6 18.4,13.6 L18.198372,13.6 C18.0472285,14.1872336 17.8148349,14.741849 17.5138895,15.2511478 L17.6568542,15.3941125 C18.2816931,16.0189514 18.2816931,17.0320154 17.6568542,17.6568542 C17.0320154,18.2816931 16.0189514,18.2816931 15.3941125,17.6568542 L15.2511478,17.5138895 C14.741849,17.8148349 14.1872336,18.0472285 13.6,18.198372 L13.6,18.4 C13.6,19.2836556 12.8836556,20 12,20 C11.1163444,20 10.4,19.2836556 10.4,18.4 L10.4,18.198372 C9.81276641,18.0472285 9.25815103,17.8148349 8.74885224,17.5138895 L8.60588745,17.6568542 C7.98104858,18.2816931 6.96798462,18.2816931 6.34314575,17.6568542 C5.71830688,17.0320154 5.71830688,16.0189514 6.34314575,15.3941125 L6.48611054,15.2511478 C6.18516511,14.741849 5.95277145,14.1872336 5.80162798,13.6 L5.6,13.6 C4.7163444,13.6 4,12.8836556 4,12 C4,11.1163444 4.7163444,10.4 5.6,10.4 L5.80162798,10.4 C5.95277145,9.81276641 6.18516511,9.25815103 6.48611054,8.74885224 L6.34314575,8.60588745 C5.71830688,7.98104858 5.71830688,6.96798462 6.34314575,6.34314575 C6.96798462,5.71830688 7.98104858,5.71830688 8.60588745,6.34314575 L8.74885224,6.48611054 C9.25815103,6.18516511 9.81276641,5.95277145 10.4,5.80162798 Z M12,15 C13.6568542,15 15,13.6568542 15,12 C15,10.3431458 13.6568542,9 12,9 C10.3431458,9 9,10.3431458 9,12 C9,13.6568542 10.3431458,15 12,15 Z"/>
</svg>
