<svg width="80" height="65" viewBox="0 0 80 65" fill="none" xmlns="http://www.w3.org/2000/svg">
<path d="M4.84997 1.30422C3.54997 0.279218 1.66247 0.516718 0.63747 1.81672C-0.38753 3.11672 -0.15003 5.00422 1.14997 6.02922L75.15 64.0292C76.45 65.0542 78.3375 64.8167 79.3625 63.5167C80.3875 62.2167 80.15 60.3292 78.85 59.3042L45.575 33.2167C50.475 34.2042 54.9125 36.4792 58.525 39.6667C60.1875 41.1292 62.7125 40.9667 64.175 39.3167C65.6375 37.6667 65.475 35.1292 63.825 33.6667C57.475 28.0667 49.125 24.6667 40 24.6667C38.3375 24.6667 36.6875 24.7792 35.0875 25.0042L23.2 15.6917C28.425 13.7292 34.0875 12.6667 40 12.6667C52.9 12.6667 64.6 17.7542 73.225 26.0292C74.825 27.5542 77.35 27.5042 78.875 25.9167C80.4 24.3292 80.35 21.7917 78.7625 20.2667C68.7125 10.6042 55.05 4.66672 40 4.66672C31.4125 4.66672 23.2875 6.60422 16.0125 10.0542L4.84997 1.30422ZM11.7 21.8917L5.21247 16.7792C3.83747 17.8792 2.49997 19.0417 1.22497 20.2542C-0.36253 21.7917 -0.41253 24.3167 1.11247 25.9167C2.63747 27.5167 5.17497 27.5667 6.76247 26.0292C8.31247 24.5417 9.96247 23.1542 11.7 21.8917ZM28.5 35.1292L21.625 29.7042C19.6875 30.8542 17.8625 32.1792 16.1875 33.6667C14.525 35.1292 14.375 37.6542 15.8375 39.3167C17.3 40.9792 19.825 41.1292 21.4875 39.6667C23.575 37.8167 25.9375 36.2917 28.5125 35.1292H28.5ZM40 44.6667C35.5875 44.6667 32 48.2542 32 52.6667C32 57.0792 35.5875 60.6667 40 60.6667C44.4125 60.6667 48 57.0792 48 52.6667C48 51.7917 47.8625 50.9542 47.6 50.1667L40.65 44.6917C40.4375 44.6792 40.225 44.6667 40 44.6667Z" fill="#000"/>
</svg>
