<svg width="21" height="19" viewBox="0 0 21 19" fill="none" xmlns="http://www.w3.org/2000/svg">
<path d="M20.999 8.37448C20.999 3.87943 16.5498 0.235107 11.0166 0.235107C5.48335 0.235107 1 3.94869 1 8.40852C1 8.78367 1.33334 9.04888 1.70774 9.02518C2.10546 9 2.6547 9 5 9C8.5 9 9.5 12.5 9.5 14V15.5892C9.5 16.1109 9.90217 16.5274 10.4238 16.5198C10.6461 16.5166 10.8524 16.5127 10.9825 16.5127C12.4843 16.5127 13.9083 16.2333 15.1852 15.7539C16.1831 16.5221 18.0946 17.7649 20.6871 17.7649C20.8143 17.7649 20.9227 17.6958 20.9716 17.5784C21.0254 17.461 21.001 17.3247 20.9129 17.2366C20.8934 17.217 19.2588 15.4604 18.7697 13.489C20.1636 12.0912 20.999 10.3162 20.999 8.37448Z" fill="#000"/>
<path d="M2.57143 12.5312V13.375H5.42857V12.5312C5.42857 11.7543 4.78929 11.125 4 11.125C3.21071 11.125 2.57143 11.7543 2.57143 12.5312ZM1.42857 13.375V12.5312C1.42857 11.1338 2.58036 10 4 10C5.41964 10 6.57143 11.1338 6.57143 12.5312V13.375H6.85714C7.4875 13.375 8 13.8795 8 14.5V17.875C8 18.4955 7.4875 19 6.85714 19H1.14286C0.5125 19 0 18.4955 0 17.875V14.5C0 13.8795 0.5125 13.375 1.14286 13.375H1.42857Z" fill="#000"/>
</svg>
