<?xml version="1.0" encoding="UTF-8"?>
<svg xmlns="http://www.w3.org/2000/svg" width="28" height="14" viewBox="0 0 28 14" fill="none">
  <path d="M2.8455 14C2.3319 14 1.89136 13.8207 1.52387 13.4621C1.16081 13.099 0.981492 12.6584 0.98592 12.1404C0.981492 11.6357 1.16081 11.204 1.52387 10.8454C1.89136 10.4867 2.3319 10.3074 2.8455 10.3074C3.33254 10.3074 3.76201 10.4867 4.13393 10.8454C4.51027 11.204 4.70066 11.6357 4.70508 12.1404C4.70066 12.4858 4.60989 12.8001 4.43279 13.0835C4.26011 13.3624 4.03431 13.586 3.75537 13.7543C3.47643 13.9181 3.17314 14 2.8455 14Z" fill="#000"/>
  <path fill-rule="evenodd" clip-rule="evenodd" d="M10.7202 0C11.5127 0 12.2632 0.126186 12.9716 0.378558C13.68 0.626503 14.3065 1.01834 14.8511 1.55408C15.4001 2.08982 15.8296 2.78937 16.1395 3.65275C16.4539 4.5117 16.6133 5.55218 16.6177 6.77419C16.6221 7.88994 16.4827 8.89279 16.1993 9.78273C15.9204 10.6682 15.5197 11.4232 14.9972 12.0474C14.4792 12.6717 13.8549 13.1499 13.1243 13.482C12.3982 13.8096 11.588 13.9734 10.6936 13.9734C9.68854 13.9734 8.80524 13.7808 8.0437 13.3956C7.28216 13.0104 6.67558 12.4924 6.22397 11.8416C5.85378 11.308 5.61002 10.7255 5.49271 10.0938C5.45077 9.86798 5.63214 9.66983 5.8618 9.66983H8.75837C8.94198 9.66983 9.09518 9.80064 9.16473 9.97057C9.27118 10.2306 9.43546 10.4292 9.65755 10.5664C9.95863 10.7479 10.304 10.8387 10.6936 10.8387C11.4729 10.8387 12.0418 10.5022 12.4004 9.82922C12.7583 9.16144 12.942 8.27422 12.9514 7.16757C12.9516 7.14117 12.9302 7.11954 12.9038 7.11954C12.8845 7.11954 12.8672 7.13117 12.8596 7.14889C12.6869 7.55252 12.4298 7.89915 12.0883 8.1888C11.7385 8.48545 11.3312 8.71347 10.8663 8.87287C10.4014 9.03226 9.90992 9.11195 9.3919 9.11195C8.5728 9.11195 7.85553 8.92821 7.24009 8.56072C6.62466 8.1888 6.14427 7.68185 5.79892 7.03985C5.45357 6.39342 5.27868 5.65844 5.27425 4.83492C5.26982 3.8697 5.49784 3.02404 5.95831 2.29791C6.41878 1.57179 7.05856 1.00727 7.87767 0.604365C8.69677 0.201455 9.64427 0 10.7202 0ZM10.7467 2.78937C10.3792 2.78937 10.0516 2.8735 9.76381 3.04175C9.48045 3.20999 9.25686 3.43801 9.09304 3.72581C8.93364 4.0136 8.85616 4.33903 8.86059 4.70209C8.86502 5.06515 8.94693 5.39058 9.10632 5.67837C9.27014 5.96616 9.49152 6.19418 9.77046 6.36243C10.0538 6.53068 10.3792 6.6148 10.7467 6.6148C11.0168 6.6148 11.267 6.56831 11.4972 6.47533C11.7274 6.37793 11.9267 6.24288 12.0949 6.07021C12.2676 5.89311 12.4004 5.68944 12.4934 5.4592C12.5908 5.22454 12.6373 4.97217 12.6329 4.70209C12.6285 4.33903 12.5443 4.0136 12.3805 3.72581C12.2167 3.43801 11.9931 3.20999 11.7097 3.04175C11.4264 2.8735 11.1054 2.78937 10.7467 2.78937Z" fill="#000"/>
  <path d="M20.2155 3.58634C20.3664 3.58634 20.5037 3.6735 20.568 3.81006L21.607 6.01793C21.7458 6.31287 22.1638 6.31714 22.3086 6.0251L23.4104 3.80289C23.4761 3.67025 23.6114 3.58634 23.7595 3.58634H26.5061C26.8006 3.58634 26.9886 3.90059 26.8494 4.16015L24.5222 8.49827C24.4592 8.61575 24.4606 8.75729 24.5259 8.87348L26.9634 13.2068C27.1095 13.4666 26.9218 13.7875 26.6238 13.7875H23.911C23.7671 13.7875 23.6349 13.7081 23.5672 13.5811L22.2996 11.202C22.1519 10.9248 21.7537 10.9273 21.6096 11.2065L20.3856 13.5766C20.3188 13.7061 20.1852 13.7875 20.0395 13.7875H17.28C16.9813 13.7875 16.7937 13.4652 16.9411 13.2055L19.4007 8.87304C19.4665 8.75712 19.4685 8.6156 19.4059 8.49789L17.1008 4.15876C16.9629 3.89925 17.151 3.58634 17.4449 3.58634H20.2155Z" fill="#000"/>
</svg>