<svg width="24" height="24" viewBox="0 0 24 24" fill="none"
  xmlns="http://www.w3.org/2000/svg">
  <path fill-rule="evenodd" clip-rule="evenodd" d="M15.4147 14C13.9185 14 13 15.2384 13 16.1514C13 18.1257 15.6378 19.8336 17.5 21C19.3622 19.8332 22 18.1257 22 16.1514C22 15.2384 21.0819 14 19.5853 14C18.7496 14 18.0354 14.567 17.5 15.1052C16.9641 14.5669 16.2504 14 15.4147 14Z" fill="#000"/>
  <path d="M9.91432 13.9685C10.6211 14.1767 11.0547 15.0202 11.0063 15.7555C11.0021 15.819 11 15.8822 11 15.945C11 17.6172 12.0679 18.9908 13.1353 19.9984C13.197 20.0567 13.2595 20.1145 13.3228 20.1719C14.0091 20.7937 13.6941 21.9692 12.7683 21.991C7.78971 22.1082 2.52631 21.0835 2.52631 18.9169C2.52631 16.3718 4.1522 14.1251 6.63246 12.7828C6.97653 12.5966 7.39372 12.6638 7.71162 12.8918C8.37253 13.3658 9.11516 13.7331 9.91432 13.9685Z" fill="#000"/>
  <path d="M17.2632 7.26316C17.2632 4.3564 14.9068 2 12 2C9.09324 2 6.73684 4.3564 6.73684 7.26316C6.73684 10.1699 9.09324 12.5263 12 12.5263C14.9068 12.5263 17.2632 10.1699 17.2632 7.26316Z" fill="#000"/>
</svg>
