<svg width="24" height="24" viewBox="0 0 24 24" fill="none" xmlns="http://www.w3.org/2000/svg">
<path d="M12.3723 16.8423L15.8445 13.2674C16.1773 12.9248 15.9401 12.3414 15.4723 12.3414H13.3177V8.54268C13.3177 8.24421 13.0806 8 12.7906 8H11.2094C10.9194 8 10.6823 8.24421 10.6823 8.54268V12.3414H8.52774C8.05994 12.3414 7.82274 12.9248 8.15547 13.2674L11.6277 16.8423C11.832 17.0526 12.168 17.0526 12.3723 16.8423Z" fill="#000"/>
<path fill-rule="evenodd" clip-rule="evenodd" d="M12 3C8.64858 3 5.7973 4.98074 5.10865 8.26517C2.83192 9.213 1 11.2215 1 14C1 15.847 1.85706 17.5901 3.11911 18.859C4.3819 20.1287 6.12639 21 8 21H17C20.3078 21 23 18.2545 23 15C23 12.4046 21.1513 10.2069 18.9679 9.28466C18.6389 5.65366 15.812 3 12 3ZM6.99265 9.12098C7.29782 6.61705 9.30534 5 12 5C14.9418 5 17 7.10017 17 10V10.7515L17.7218 10.9605C19.5029 11.4763 21 13.1881 21 15C21 17.1609 19.1922 19 17 19H8C6.74861 19 5.4931 18.4098 4.53714 17.4487C3.58044 16.4868 3 15.23 3 14C3 12.0877 4.34899 10.5944 6.31184 9.95013L6.91576 9.75193L6.99265 9.12098Z" fill="#000"/>
</svg>
