<svg width="24" height="25" viewBox="0 0 24 25" fill="none" xmlns="http://www.w3.org/2000/svg">
    <g clip-path="url(#clip0_312_5740)">
        <path d="M15.3516 4.49375C15.1406 4.57344 15 4.775 15 5C15 5.225 15.1406 5.42656 15.3516 5.50625L18 6.5L18.9938 9.14844C19.0734 9.35938 19.275 9.5 19.5 9.5C19.725 9.5 19.9266 9.35938 20.0062 9.14844L21 6.5L23.6484 5.50625C23.8594 5.42656 24 5.225 24 5C24 4.775 23.8594 4.57344 23.6484 4.49375L21 3.5L20.0062 0.851562C19.9266 0.640625 19.725 0.5 19.5 0.5C19.275 0.5 19.0734 0.640625 18.9938 0.851562L18 3.5L15.3516 4.49375ZM9.61406 3.93594C9.49219 3.66875 9.225 3.5 8.93438 3.5C8.64375 3.5 8.37656 3.66875 8.25469 3.93594L5.77969 9.27969L0.435938 11.75C0.16875 11.8719 0 12.1391 0 12.4344C0 12.7297 0.16875 12.9922 0.435938 13.1141L5.78438 15.5844L8.25 20.9281C8.37187 21.1953 8.63906 21.3641 8.92969 21.3641C9.22031 21.3641 9.4875 21.1953 9.60938 20.9281L12.0797 15.5797L17.4281 13.1094C17.6953 12.9875 17.8641 12.7203 17.8641 12.4297C17.8641 12.1391 17.6953 11.8719 17.4281 11.75L12.0844 9.28437L9.61406 3.93594ZM18 18.5L15.3516 19.4938C15.1406 19.5734 15 19.775 15 20C15 20.225 15.1406 20.4266 15.3516 20.5062L18 21.5L18.9938 24.1484C19.0734 24.3594 19.275 24.5 19.5 24.5C19.725 24.5 19.9266 24.3594 20.0062 24.1484L21 21.5L23.6484 20.5062C23.8594 20.4266 24 20.225 24 20C24 19.775 23.8594 19.5734 23.6484 19.4938L21 18.5L20.0062 15.8516C19.9266 15.6406 19.725 15.5 19.5 15.5C19.275 15.5 19.0734 15.6406 18.9938 15.8516L18 18.5Z" fill="#000"/>
    </g>
    <defs>
        <clipPath id="clip0_312_5740">
            <rect width="24" height="24" fill="white" transform="translate(0 0.5)"/>
        </clipPath>
    </defs>
</svg>
