<svg width="33" height="32" viewBox="0 0 33 32" fill="none" xmlns="http://www.w3.org/2000/svg">
<path d="M29.4774 3.66076C29.4097 3.34307 29.1596 3.09308 28.8418 3.02537C27.1644 2.66602 25.8516 2.66602 24.5441 2.66602C19.168 2.66602 15.9434 5.54088 13.5366 9.33237H8.10846C7.16035 9.33237 6.29559 9.8688 5.87363 10.7125L3.30019 15.8581C2.88344 16.6914 3.48773 17.6653 4.42021 17.6653H9.37434C9.06699 18.3319 8.75443 18.9934 8.43665 19.6288C8.27516 19.9517 8.33768 20.3371 8.59294 20.5922L11.9061 23.9046C12.1614 24.1598 12.5469 24.2223 12.8698 24.0608C13.5054 23.7431 14.167 23.4359 14.8338 23.1286V28.0815C14.8338 29.0085 15.8132 29.6127 16.6414 29.2012L21.7831 26.6284C22.6322 26.2066 23.1636 25.3368 23.1636 24.3942V18.9569C26.9456 16.5456 29.8316 13.3113 29.8316 7.96264C29.8368 6.6502 29.8368 5.33776 29.4774 3.66076ZM24.0023 10.999C22.6218 10.999 21.5018 9.87921 21.5018 8.49907C21.5018 7.11893 22.6218 5.99919 24.0023 5.99919C25.3828 5.99919 26.5028 7.11893 26.5028 8.49907C26.5028 9.87921 25.3828 10.999 24.0023 10.999Z" fill="#000"/>
</svg>
