<svg width="16" height="14" viewBox="0 0 16 14" fill="none" xmlns="http://www.w3.org/2000/svg">
<path fill-rule="evenodd" clip-rule="evenodd" d="M15.5 7.67285L14.7308 13.8267L12.6154 11.7113C11.3654 12.9613 9.63461 13.6344 7.90385 13.6344C6.17308 13.6344 4.53846 13.0575 3.19231 11.7113C2.23077 10.7498 1.55769 9.49978 1.36538 8.05747L3.28846 7.76901C3.48077 8.73054 3.96154 9.69208 4.63462 10.3652C6.46154 12.1921 9.53846 12.1921 11.3654 10.3652L9.34615 8.34593L15.5 7.67285ZM1.17308 0.172852L3.28846 2.28824C5.98077 -0.307918 10.2115 -0.307918 12.8077 2.28824C13.7692 3.24977 14.4423 4.49977 14.6346 5.94208L12.7115 6.23054C12.5192 5.26901 12.0385 4.30747 11.3654 3.63439C9.53846 1.80747 6.46154 1.80747 4.63462 3.63439L6.65385 5.65362L0.5 6.3267L1.17308 0.172852Z" fill="#000"/>
</svg>
