<?xml version="1.0" encoding="UTF-8"?>
<svg width="24px" height="24px" viewBox="0 0 24 24" version="1.1" xmlns="http://www.w3.org/2000/svg" xmlns:xlink="http://www.w3.org/1999/xlink">
    <title>iconThumbsDown</title>
    <g id="Assets" stroke="none" stroke-width="1" fill="none" fill-rule="evenodd">
        <g id="assets" transform="translate(-767.000000, -2829.000000)">
            <g id="icon/ThumbsDown" transform="translate(767.000000, 2829.000000)">
                <rect id="bound" x="0" y="0" width="24" height="24"></rect>
                <path d="M14.6906 21.4568C15.9094 21.2131 16.7016 20.0271 16.4578 18.8084L16.35 18.274C16.1016 17.0225 15.6422 15.8318 15 14.749H21.75C22.9922 14.749 24 13.7412 24 12.499C24 11.3131 23.0859 10.3428 21.9234 10.2537C22.2844 9.85527 22.5 9.32559 22.5 8.74902C22.5 7.65215 21.7125 6.73809 20.6766 6.54121C20.8828 6.19902 21 5.80059 21 5.37402C21 4.37559 20.3484 3.52715 19.4484 3.23652C19.4812 3.08184 19.5 2.91777 19.5 2.74902C19.5 1.50684 18.4922 0.499023 17.25 0.499023H13.8047C12.9141 0.499023 12.0469 0.761523 11.3062 1.25371L9.50156 2.4584C8.25 3.29277 7.5 4.69902 7.5 6.20371V7.99902V10.249V11.4162C7.5 12.785 8.12344 14.074 9.1875 14.9318L9.53437 15.2084C10.7766 16.2021 11.625 17.599 11.9344 19.1553L12.0422 19.6896C12.2859 20.9084 13.4719 21.7006 14.6906 21.4568ZM1.5 13.999H4.5C5.32969 13.999 6 13.3287 6 12.499V1.99902C6 1.16934 5.32969 0.499023 4.5 0.499023H1.5C0.670312 0.499023 0 1.16934 0 1.99902V12.499C0 13.3287 0.670312 13.999 1.5 13.999Z" id="Fill" fill="#000" fill-rule="evenodd"/>
            </g>
        </g>
    </g>
</svg>