<?xml version="1.0" encoding="UTF-8"?>
<svg width="24px" height="24px" viewBox="0 0 24 24" version="1.1" xmlns="http://www.w3.org/2000/svg" xmlns:xlink="http://www.w3.org/1999/xlink">
        <g id="Assets" stroke="none" stroke-width="1" fill="none" fill-rule="evenodd">
        <g id="Group">
            <g id="icon/chromecast" transform="translate(12.000000, 12.000000) scale(-1, 1) translate(-12.000000, -12.000000) ">
                <path d="M19,5 C19.9216252,5 21,6.07837484 21,7 L21,7 L21,18 C21,18.9216252 19.9216252,20 19,20 L19,20 L14,20 L14,18 L19,18 L19,7 L5,7 L5,9 L3,9 L3,7 C3,6 4.07837482,5 5,5 L5,5 Z M3,17 C3.7957308,17 4.55886367,17.3160855 5.1214863,17.8787081 C5.68410892,18.4413308 6.00012447,19.2043937 6,20 L6,20 L3,20 Z M3,14 L3.00120514,14.0136273 L3.01446169,14.0136273 C6.32408335,14.0178305 9.00376997,16.6978925 9,20 L9,20 L7.28387504,20 L7.28387504,19.9863727 C7.28419474,18.8526267 6.83298752,17.7652126 6.0295589,16.9634579 C5.22613029,16.1617031 4.13632619,15.7113165 3,15.7114228 L3,15.7114228 L3,14 Z M3,10.0140443 C8.51362862,10.029791 12.9804089,14.4903605 13,20 L13,20 L11.1805792,20 L11.1805792,19.9787207 C11.1771721,15.4675065 7.51448041,11.8138486 3,11.8181044 L3,11.8181044 Z" id="Combined-Shape" fill="#000"></path>
            </g>
        </g>
    </g>
</svg>