<?xml version="1.0" encoding="UTF-8"?>
<svg xmlns="http://www.w3.org/2000/svg" width="26" height="14" viewBox="0 0 26 14" fill="none">
  <path d="M1.94609 14C1.43249 14 0.991945 13.8207 0.624457 13.4621C0.261395 13.099 0.0820782 12.6584 0.0865058 12.1404C0.0820782 11.6357 0.261395 11.204 0.624457 10.8454C0.991945 10.4867 1.43249 10.3074 1.94609 10.3074C2.43312 10.3074 2.8626 10.4867 3.23451 10.8454C3.61086 11.204 3.80124 11.6357 3.80567 12.1404C3.80124 12.4858 3.71048 12.8001 3.53338 13.0835C3.3607 13.3624 3.13489 13.586 2.85596 13.7543C2.57702 13.9181 2.27373 14 1.94609 14Z" fill="#000"/>
  <path fill-rule="evenodd" clip-rule="evenodd" d="M9.74936 13.9734C8.65132 13.9734 7.67061 13.803 6.80724 13.4621C5.94829 13.1211 5.27087 12.6584 4.77498 12.074C4.28352 11.4896 4.03779 10.8299 4.03779 10.0949C4.03779 9.53257 4.17726 9.01898 4.45619 8.55408C4.73956 8.08918 5.12033 7.70398 5.59851 7.39848C6.06229 7.09788 6.57813 6.90141 7.14604 6.80906C7.17649 6.80411 7.19908 6.77794 7.19908 6.74708C7.19908 6.7167 7.17712 6.69079 7.14726 6.68526C6.39578 6.5462 5.77548 6.20615 5.28636 5.66509C4.79047 5.10721 4.54253 4.44972 4.54253 3.6926C4.54253 2.97976 4.76834 2.34662 5.21995 1.79317C5.67156 1.23529 6.28921 0.796964 7.07289 0.478178C7.85657 0.159393 8.74873 0 9.74936 0C10.75 0 11.6422 0.161607 12.4258 0.48482C13.2095 0.803606 13.8272 1.24194 14.2788 1.79981C14.7304 2.35326 14.9562 2.98419 14.9562 3.6926C14.9562 4.45414 14.7038 5.11164 14.1991 5.66509C13.7058 6.20595 13.0899 6.54596 12.3514 6.68511C12.3215 6.69074 12.2996 6.71666 12.2996 6.74703C12.2996 6.77792 12.3222 6.80413 12.3527 6.80913C12.9163 6.90151 13.4299 7.09796 13.8936 7.39848C14.3718 7.70398 14.7525 8.08918 15.0359 8.55408C15.3193 9.01898 15.4609 9.53257 15.4609 10.0949C15.4609 10.8299 15.213 11.4896 14.7171 12.074C14.2256 12.6584 13.5482 13.1211 12.6848 13.4621C11.8259 13.803 10.8474 13.9734 9.74936 13.9734ZM9.74936 11.4232C10.0991 11.4232 10.4091 11.3523 10.6792 11.2106C10.9492 11.0689 11.1618 10.8741 11.3167 10.6262C11.4761 10.3738 11.5558 10.0904 11.5558 9.77609C11.5558 9.46173 11.4761 9.1828 11.3167 8.93928C11.1618 8.69576 10.9492 8.50538 10.6792 8.36812C10.4091 8.22644 10.0991 8.1556 9.74936 8.1556C9.40401 8.1556 9.09408 8.22644 8.81957 8.36812C8.54949 8.50538 8.33475 8.69576 8.17536 8.93928C8.02039 9.1828 7.94291 9.46173 7.94291 9.77609C7.94291 10.0904 8.02039 10.3716 8.17536 10.6195C8.33475 10.8675 8.54949 11.0645 8.81957 11.2106C9.09408 11.3523 9.40401 11.4232 9.74936 11.4232ZM9.74936 5.60531C10.0593 5.60531 10.3338 5.54111 10.5729 5.41271C10.812 5.28431 11.0002 5.10721 11.1374 4.8814C11.2747 4.6556 11.3433 4.40101 11.3433 4.11765C11.3433 3.83428 11.2747 3.58412 11.1374 3.36717C11.0002 3.14579 10.812 2.97312 10.5729 2.84915C10.3338 2.72075 10.0593 2.65655 9.74936 2.65655C9.44386 2.65655 9.16935 2.72075 8.92583 2.84915C8.68674 2.97312 8.49857 3.14579 8.36132 3.36717C8.22406 3.58412 8.15543 3.83428 8.15543 4.11765C8.15543 4.40101 8.22406 4.6556 8.36132 4.8814C8.49857 5.10278 8.68674 5.27989 8.92583 5.41271C9.16935 5.54111 9.44386 5.60531 9.74936 5.60531Z" fill="#000"/>
  <path d="M19.1151 3.58634C19.2661 3.58634 19.4034 3.6735 19.4677 3.81006L20.5067 6.01793C20.6455 6.31287 21.0635 6.31714 21.2083 6.0251L22.3101 3.80289C22.3758 3.67025 22.5111 3.58634 22.6591 3.58634H25.4057C25.7003 3.58634 25.8883 3.90059 25.7491 4.16015L23.4219 8.49827C23.3588 8.61575 23.3603 8.75729 23.4256 8.87348L25.8631 13.2068C26.0092 13.4666 25.8215 13.7875 25.5235 13.7875H22.8107C22.6668 13.7875 22.5345 13.7081 22.4669 13.5811L21.1993 11.202C21.0516 10.9248 20.6534 10.9273 20.5093 11.2065L19.2853 13.5766C19.2185 13.7061 19.0849 13.7875 18.9391 13.7875H16.1796C15.881 13.7875 15.6934 13.4652 15.8408 13.2055L18.3004 8.87304C18.3662 8.75712 18.3682 8.6156 18.3056 8.49789L16.0005 4.15876C15.8626 3.89925 16.0507 3.58634 16.3446 3.58634H19.1151Z" fill="#000"/>
</svg>