<!-- TODO: Need to update this to have the plus sign in the center cut out instead of a separate path so that the color behind can come through-->
<svg xmlns="http://www.w3.org/2000/svg" width="18" height="18" viewBox="0 0 18 18" fill="none">
  <ellipse cx="9.23606" cy="9.37048" rx="8.66379" ry="8.56579" fill="#000"/>
  <path fill-rule="evenodd" clip-rule="evenodd" d="M10.4541 8.03279H13.8384C14.2122 8.03279 14.5153 8.3324 14.5153 8.70199V10.0404C14.5153 10.41 14.2122 10.7096 13.8384 10.7096H10.4541V14.0556C10.4541 14.4252 10.1511 14.7248 9.77728 14.7248H8.42356C8.04974 14.7248 7.7467 14.4252 7.7467 14.0556V10.7096H4.36241C3.98859 10.7096 3.68555 10.41 3.68555 10.0404V8.70199C3.68555 8.3324 3.98859 8.03279 4.36241 8.03279H7.7467V4.68678C7.7467 4.31719 8.04974 4.01758 8.42356 4.01758H9.77728C10.1511 4.01758 10.4541 4.31719 10.4541 4.68678V8.03279Z" fill="white"/>
</svg>
