<?xml version="1.0" encoding="UTF-8"?>
<svg width="24px" height="24px" viewBox="0 0 32 32" version="1.1" xmlns="http://www.w3.org/2000/svg" xmlns:xlink="http://www.w3.org/1999/xlink">
    <g id="iconRemix" stroke="none" stroke-width="1" fill="none" fill-rule="evenodd">
        <path d="M27.9978874,13.1764706 L31.537987,19.2496099 C32.1540043,20.3101254 32.1540043,21.6208749 31.537987,22.6813904 L31.537987,22.6813904 L28.8939126,27.2054621 C28.2738952,28.2659776 27.1338631,28.9213523 25.8978284,28.9213523 L25.8978284,28.9213523 L18.8936314,28.9213523 L18.8936314,31.6937861 C18.8936314,31.7771974 18.8576304,31.8566368 18.7936286,31.9162163 C18.7336269,31.9757958 18.6456244,32.0035996 18.561622,31.9996276 C18.4696195,31.9996276 18.381617,31.955936 18.3256154,31.8844406 L18.3256154,31.8844406 L13.2934739,25.8073293 C13.1374695,25.6246188 13.1374695,25.3545249 13.2934739,25.1678424 L13.2934739,25.1678424 L18.309615,19.0867592 C18.3656165,19.0152638 18.453619,18.9715721 18.5456216,18.9715721 C18.629624,18.9676001 18.7176264,18.9954039 18.7776281,19.0549834 C18.8416299,19.114563 18.8776309,19.1940023 18.8776309,19.2813856 L18.8776309,19.2813856 L18.8776309,22.0538194 L23.2417537,22.0538194 C23.6377648,22.0617633 24.0097753,21.859193 24.213781,21.5176037 C24.4137866,21.1760144 24.4137866,20.7549858 24.213781,20.4133965 L24.213781,20.4133965 L22.0337197,16.6479707 L24.4177868,17.0531115 C25.5778194,17.243766 26.7098512,16.5844193 27.1178627,15.488156 L27.1178627,15.488156 L27.9978874,13.1764706 Z M9.72242447,9.41176471 C9.93906879,9.41570433 10.1311873,9.54571196 10.2047646,9.7387536 L10.2047646,9.7387536 L13.0865428,17.0309999 C13.1355943,17.1531283 13.0988056,17.2910152 12.9966149,17.3737473 C12.8985118,17.4564795 12.7513572,17.4682983 12.632816,17.4052643 L12.632816,17.4052643 L10.167976,16.0460936 L7.95248132,19.7808583 C7.75218752,20.1157265 7.74809989,20.5293871 7.94839369,20.8642553 C8.14868749,21.1991234 8.52066168,21.4079236 8.92124928,21.4079236 L8.92124928,21.4079236 L13.1764706,21.4079236 L11.8888676,22.9010415 C10.916012,24.0474725 10.916012,25.6942358 11.8888676,26.8406668 L11.8888676,26.8406668 L13.0783675,28.2352941 L6.23567733,28.2352941 C4.98077537,28.2313545 3.8239765,27.5891956 3.1944817,26.5451949 L3.1944817,26.5451949 L0.472121096,22.065841 C-0.157373699,21.013961 -0.157373699,19.7178243 0.472121096,18.6620048 L0.472121096,18.6620048 L4.02835792,12.646197 L1.55534266,11.2830867 C1.44906432,11.2161131 1.39592515,11.0939847 1.41636329,10.9718563 C1.43680143,10.8497279 1.53490452,10.7551769 1.65753337,10.7275995 L1.65753337,10.7275995 L9.63249665,9.41176471 Z M18.9689604,3.64153152e-14 C20.1843384,3.64153152e-14 21.3089577,0.641534499 21.9245388,1.67965396 L21.9245388,1.67965396 L25.3970475,7.58565944 L27.7765052,6.22482868 C27.8869941,6.15873119 28.0290513,6.17428354 28.1277021,6.25593338 C28.2263529,6.33758323 28.2618672,6.4736663 28.2145148,6.59419703 L28.2145148,6.59419703 L25.4720222,13.7949358 C25.4009936,13.9893402 25.211584,14.1176471 25.0024443,14.1176471 L25.0024443,14.1176471 L24.9195776,14.1176471 L17.2090298,12.8656828 C17.0709187,12.8540185 16.9564837,12.7529282 16.9288615,12.6207332 C16.9051853,12.4846502 16.9762139,12.3524552 17.1024869,12.2941338 L17.1024869,12.2941338 L19.4819446,10.9333031 L17.3155727,7.23961962 C17.1182711,6.91690832 16.7631281,6.71861584 16.380363,6.71861584 C15.9936518,6.71861584 15.6345628,6.9246845 15.4412072,7.25517197 L15.4412072,7.25517197 L13.4129464,10.7272344 L12.7342288,8.96981872 C12.2054604,7.60121179 10.7691046,6.7963776 9.30907248,7.04132713 L9.30907248,7.04132713 L7.52941176,7.3407099 L10.824349,1.68354205 C11.432038,0.645422587 12.5566573,0.00388808787 13.7759814,3.64153152e-14 L13.7759814,3.64153152e-14 Z" id="Combined-Shape" fill="#000"></path>
    </g>
</svg>