<svg width="16" height="17" viewBox="0 0 16 17" fill="none" xmlns="http://www.w3.org/2000/svg">
<path d="M10.0834 11C12.6146 11 14.6667 8.9479 14.6667 6.41665C14.6667 3.8854 12.6146 1.83331 10.0834 1.83331C7.55212 1.83331 5.50004 3.8854 5.50004 6.41665C5.50004 6.90363 5.57556 7.37498 5.71619 7.81508L1.51567 12.0156C1.39848 12.1328 1.33337 12.2916 1.33337 12.4583V14.5416C1.33337 14.888 1.61202 15.1666 1.95837 15.1666H4.04171C4.38806 15.1666 4.66671 14.888 4.66671 14.5416V13.5H5.70837C6.05473 13.5 6.33337 13.2213 6.33337 12.875V11.8333H7.37504C7.54171 11.8333 7.70056 11.7682 7.81775 11.651L8.68494 10.7838C9.12504 10.9245 9.5964 11 10.0834 11ZM11.125 4.33331C11.4013 4.33331 11.6663 4.44306 11.8616 4.63841C12.057 4.83376 12.1667 5.09871 12.1667 5.37498C12.1667 5.65125 12.057 5.9162 11.8616 6.11155C11.6663 6.3069 11.4013 6.41665 11.125 6.41665C10.8488 6.41665 10.5838 6.3069 10.3885 6.11155C10.1931 5.9162 10.0834 5.65125 10.0834 5.37498C10.0834 5.09871 10.1931 4.83376 10.3885 4.63841C10.5838 4.44306 10.8488 4.33331 11.125 4.33331Z" fill="#000"/>
</svg>
