<svg width="24" height="25" viewBox="0 0 24 25" fill="none" xmlns="http://www.w3.org/2000/svg">
<path d="M22 12.5C22 18.0241 17.5225 22.5 12 22.5C6.47754 22.5 2 18.0241 2 12.5C2 6.97915 6.47754 2.5 12 2.5C17.5225 2.5 22 6.97915 22 12.5ZM12.2683 5.80645C10.0709 5.80645 8.66935 6.73214 7.56879 8.37734C7.42621 8.59048 7.47391 8.87794 7.67827 9.0329L9.07742 10.0938C9.2873 10.2529 9.58633 10.2151 9.74939 10.0082C10.4697 9.0946 10.9636 8.5648 12.06 8.5648C12.8837 8.5648 13.9027 9.09496 13.9027 9.89375C13.9027 10.4976 13.4042 10.8077 12.5908 11.2638C11.6423 11.7955 10.3871 12.4573 10.3871 14.1129V14.2742C10.3871 14.5414 10.6037 14.7581 10.871 14.7581H13.129C13.3962 14.7581 13.6129 14.5414 13.6129 14.2742V14.2204C13.6129 13.0728 16.9672 13.025 16.9672 9.91935C16.9672 7.58056 14.5412 5.80645 12.2683 5.80645ZM12 15.8065C10.9772 15.8065 10.1452 16.6385 10.1452 17.6613C10.1452 18.684 10.9772 19.5161 12 19.5161C13.0228 19.5161 13.8548 18.684 13.8548 17.6613C13.8548 16.6385 13.0228 15.8065 12 15.8065Z" fill="#858199"/>
</svg>
