<svg width="24" height="24" viewBox="0 0 24 24" fill="none" xmlns="http://www.w3.org/2000/svg">
<path d="M12.0166 3.23511C17.5498 3.23511 21.999 6.87943 21.999 11.3745C21.999 13.3162 21.1636 15.0912 19.7697 16.489C20.2588 18.4604 21.8934 20.217 21.9129 20.2366C22.001 20.3247 22.0254 20.461 21.9716 20.5784C21.9227 20.6958 21.8143 20.7649 21.6871 20.7649C19.0946 20.7649 17.1831 19.5221 16.1852 18.7539C14.9083 19.2333 13.4843 19.5127 11.9825 19.5127C6.44926 19.5127 2 15.8684 2 11.4085C2 6.94869 6.48335 3.23511 12.0166 3.23511ZM8.11726 14.5402H12.5C13.0165 14.5402 13.4392 14.1215 13.4392 13.6011C13.4392 13.0806 13.0165 12.6619 12.5 12.6619H8.11726C7.59681 12.6619 7.1781 13.0845 7.1781 13.6011C7.1781 14.1176 7.59681 14.5402 8.11726 14.5402ZM7.94687 10.7836H16.0862C16.6028 10.7836 17.0254 10.3649 17.0254 9.84443C17.0254 9.32398 16.6028 8.90527 16.0862 8.90527H7.94687C7.42642 8.90527 7.00771 9.3279 7.00771 9.84443C7.00771 10.361 7.42642 10.7836 7.94687 10.7836Z" fill="#000"/>
</svg>
