<svg width="16" height="17" viewBox="0 0 16 17" fill="none" xmlns="http://www.w3.org/2000/svg">
<path d="M12.1667 12.2214C13.6901 11.1511 14.6667 9.51046 14.6667 7.66671C14.6667 4.44535 11.6823 1.83337 8.00004 1.83337C4.31775 1.83337 1.33337 4.44535 1.33337 7.66671C1.33337 9.50785 2.30994 11.1511 3.83337 12.2214C3.83337 12.2318 3.83337 12.2396 3.83337 12.25V13.9167C3.83337 14.6068 4.39327 15.1667 5.08337 15.1667H6.33337V13.9167C6.33337 13.6875 6.52087 13.5 6.75004 13.5C6.97921 13.5 7.16671 13.6875 7.16671 13.9167V15.1667H8.83337V13.9167C8.83337 13.6875 9.02087 13.5 9.25004 13.5C9.47921 13.5 9.66671 13.6875 9.66671 13.9167V15.1667H10.9167C11.6068 15.1667 12.1667 14.6068 12.1667 13.9167V12.25C12.1667 12.2396 12.1667 12.2318 12.1667 12.2214ZM3.83337 8.50004C3.83337 8.05801 4.00897 7.63409 4.32153 7.32153C4.63409 7.00897 5.05801 6.83337 5.50004 6.83337C5.94207 6.83337 6.36599 7.00897 6.67855 7.32153C6.99111 7.63409 7.16671 8.05801 7.16671 8.50004C7.16671 8.94207 6.99111 9.36599 6.67855 9.67855C6.36599 9.99111 5.94207 10.1667 5.50004 10.1667C5.05801 10.1667 4.63409 9.99111 4.32153 9.67855C4.00897 9.36599 3.83337 8.94207 3.83337 8.50004ZM10.5 6.83337C10.9421 6.83337 11.366 7.00897 11.6786 7.32153C11.9911 7.63409 12.1667 8.05801 12.1667 8.50004C12.1667 8.94207 11.9911 9.36599 11.6786 9.67855C11.366 9.99111 10.9421 10.1667 10.5 10.1667C10.058 10.1667 9.63409 9.99111 9.32153 9.67855C9.00897 9.36599 8.83337 8.94207 8.83337 8.50004C8.83337 8.05801 9.00897 7.63409 9.32153 7.32153C9.63409 7.00897 10.058 6.83337 10.5 6.83337Z" fill="#000"/>
</svg>
