<svg width="24" height="25" viewBox="0 0 24 25" fill="none" xmlns="http://www.w3.org/2000/svg">
    <path d="M11.9992 5.5C9.47422 5.5 7.45234 6.65 5.98047 8.01875C4.51797 9.375 3.53984 11 3.07734 12.1156C2.97422 12.3625 2.97422 12.6375 3.07734 12.8844C3.53984 14 4.51797 15.625 5.98047 16.9812C7.45234 18.35 9.47422 19.5 11.9992 19.5C14.5242 19.5 16.5461 18.35 18.018 16.9812C19.4805 15.6219 20.4586 14 20.9242 12.8844C21.0273 12.6375 21.0273 12.3625 20.9242 12.1156C20.4586 11 19.4805 9.375 18.018 8.01875C16.5461 6.65 14.5242 5.5 11.9992 5.5ZM16.4992 12.5C16.4992 14.9844 14.4836 17 11.9992 17C9.51484 17 7.49922 14.9844 7.49922 12.5C7.49922 10.0156 9.51484 8 11.9992 8C14.4836 8 16.4992 10.0156 16.4992 12.5ZM11.9992 10.5C11.9992 11.6031 11.1023 12.5 9.99922 12.5C9.63984 12.5 9.30234 12.4062 9.01172 12.2375C9.00547 12.325 8.99922 12.4094 8.99922 12.5C8.99922 14.1562 10.343 15.5 11.9992 15.5C13.6555 15.5 14.9992 14.1562 14.9992 12.5C14.9992 10.8438 13.6555 9.5 11.9992 9.5C11.9117 9.5 11.8242 9.50312 11.7367 9.5125C11.9023 9.80312 11.9992 10.1406 11.9992 10.5Z" fill="#000"/>
</svg>
