<svg width="17" height="16" viewBox="0 0 17 16" fill="none" xmlns="http://www.w3.org/2000/svg">
    <path d="M10.0834 5.375C10.0834 4.33906 10.9225 3.5 11.9584 3.5C12.9943 3.5 13.8334 4.33906 13.8334 5.375V6.5C13.8334 6.91484 14.1686 7.25 14.5834 7.25C14.9982 7.25 15.3334 6.91484 15.3334 6.5V5.375C15.3334 3.51172 13.8217 2 11.9584 2C10.0952 2 8.58344 3.51172 8.58344 5.375V6.5H3.33348C2.50615 6.5 1.8335 7.17266 1.8335 8V12.5C1.8335 13.3273 2.50615 14 3.33348 14H10.8334C11.6608 14 12.3334 13.3273 12.3334 12.5V8C12.3334 7.17266 11.6608 6.5 10.8334 6.5H10.0834V5.375Z" fill="#000"/>
</svg>
