<svg width="48" height="48" viewBox="0 0 48 48" fill="none" xmlns="http://www.w3.org/2000/svg">
<g clip-path="url(#clip0)">
<path fill-rule="evenodd" clip-rule="evenodd" d="M10.8112 12.3077C10.0234 12.3077 9.38466 11.6386 9.38466 10.8132V1.49448C9.38466 0.669104 10.0234 0 10.8112 0C11.5991 0 12.2378 0.669104 12.2378 1.49448V4.87049L20.236 0.132916C20.7078 -0.146536 21.2806 0.0295448 21.5706 0.521637L21.6323 0.640741C21.7085 0.809153 21.7483 0.996022 21.7483 1.18566V4.60196L28.8786 0.132916C29.3245 -0.146536 29.8658 0.0295448 30.1398 0.521637L30.1982 0.640741C30.2702 0.809153 30.3077 0.996022 30.3077 1.18566V4.55822C32.521 5.19689 34.5919 6.17139 36.4616 7.42297C37.0781 7.83564 37.6727 8.27843 38.2434 8.74924C38.769 9.18291 39.2743 9.64036 39.7576 10.1199C39.7986 10.1606 39.8394 10.2014 39.8801 10.2424C40.3596 10.7257 40.8171 11.231 41.2508 11.7566C41.7216 12.3273 42.1644 12.9219 42.577 13.5384C44.9335 17.0586 46.3077 21.2919 46.3077 25.8462C46.3077 30.4004 44.9335 34.6337 42.577 38.154C42.1644 38.7704 41.7216 39.3651 41.2508 39.9357C40.8171 40.4614 40.3597 40.9667 39.8801 41.45C39.8538 41.4764 39.8275 41.5028 39.8011 41.5291C39.7867 41.5436 39.7722 41.558 39.7576 41.5724C39.2743 42.052 38.769 42.5094 38.2434 42.9431C37.6728 43.4139 37.0781 43.8567 36.4616 44.2694C32.9414 46.6258 28.7081 48 24.1538 48C19.5996 48 15.3663 46.6258 11.846 44.2694C11.2296 43.8567 10.6349 43.4139 10.0643 42.9431C9.53866 42.5094 9.03336 42.052 8.55005 41.5724C8.50908 41.5317 8.46827 41.4909 8.42762 41.45C7.94805 40.9667 7.4906 40.4614 7.05692 39.9357C6.58611 39.3651 6.14332 38.7705 5.73066 38.154C3.37424 34.6337 2 30.4004 2 25.8462C2 22.4325 2.7721 19.1991 4.1512 16.3112C4.77644 15.0019 6.49393 14.8189 7.51989 15.8448C8.24578 16.5707 8.38172 17.6867 7.96296 18.624C6.97761 20.8295 6.43077 23.2728 6.43077 25.8462C6.43077 30.7167 8.38958 35.1211 11.5728 38.3291C11.5891 38.3456 11.6053 38.3621 11.6213 38.3787C11.6379 38.3948 11.6544 38.4109 11.6709 38.4272C14.8789 41.6104 19.2833 43.5692 24.1538 43.5692C29.0244 43.5692 33.4288 41.6104 36.6368 38.4272C36.6533 38.4109 36.6698 38.3947 36.6864 38.3787C36.7024 38.3621 36.7186 38.3456 36.7349 38.3291C39.9181 35.1211 41.8769 30.7167 41.8769 25.8462C41.8769 20.9756 39.9181 16.5712 36.7349 13.3632C36.7186 13.3468 36.7024 13.3302 36.6864 13.3136L36.6626 13.2905L36.6368 13.2651C34.8546 11.4967 32.7032 10.1062 30.3077 9.21946V11.1223C30.3077 11.777 29.8694 12.3077 29.3286 12.3077C29.172 12.3077 29.0177 12.2622 28.8786 12.175L21.7483 7.70685V11.1223C21.7483 11.7333 21.3442 12.2364 20.8251 12.3007L20.7122 12.3077C20.5465 12.3077 20.3832 12.2622 20.236 12.175L12.2378 7.43832V10.8132C12.2378 11.59 11.672 12.2284 10.9486 12.3009L10.8112 12.3077ZM16.8127 21.6866V34.0112H20.6226V17.2308H17.1302L11.8462 21.2837L13.8192 24.1041L16.8127 21.6866ZM34.7092 31.1434C35.0569 30.3849 35.2308 29.4922 35.2308 28.4651C35.2308 27.5803 35.0796 26.8061 34.7772 26.1424C34.4749 25.4788 34.0591 24.9258 33.53 24.4833C33.0159 24.0251 32.4036 23.6854 31.693 23.4642C30.9824 23.243 30.2265 23.1324 29.4252 23.1324C29.1833 23.1324 28.9112 23.1482 28.6088 23.1798C28.3215 23.1956 28.057 23.2351 27.8151 23.2983L27.9511 20.6438H34.4144V17.2308H24.5721L24.1865 26.8298C24.7611 26.6086 25.4112 26.4347 26.1369 26.3083C26.8777 26.1661 27.5354 26.095 28.1099 26.095C28.503 26.095 28.896 26.1345 29.2891 26.2135C29.6822 26.2925 30.03 26.4347 30.3323 26.6402C30.6498 26.8298 30.9068 27.0905 31.1034 27.4223C31.2999 27.7541 31.3982 28.1649 31.3982 28.6548C31.3982 29.4606 31.1563 30.0689 30.6725 30.4797C30.2038 30.8906 29.6444 31.096 28.9943 31.096C28.3593 31.096 27.8075 30.9064 27.3388 30.5272C26.8852 30.1479 26.5753 29.666 26.409 29.0814L22.9392 30.1953C23.1207 30.859 23.4004 31.4594 23.7783 31.9966C24.1714 32.5181 24.6325 32.9605 25.1617 33.3239C25.706 33.6873 26.3032 33.9638 26.9533 34.1534C27.6185 34.3588 28.314 34.4616 29.0397 34.4616C29.8259 34.4616 30.5893 34.3351 31.3302 34.0823C32.071 33.8453 32.7287 33.4819 33.3032 32.9921C33.8928 32.5023 34.3615 31.886 34.7092 31.1434Z" fill="#000"/>
</g>
<defs>
<clipPath id="clip0">
<rect width="48" height="48" fill="white"/>
</clipPath>
</defs>
</svg>
