<?xml version="1.0" encoding="UTF-8"?>
<svg width="24px" height="24px" viewBox="0 0 24 24" version="1.1" xmlns="http://www.w3.org/2000/svg" xmlns:xlink="http://www.w3.org/1999/xlink">
    <title>iconUpload</title>
    <g id="Assets" stroke="none" stroke-width="1" fill="none" fill-rule="evenodd">
        <g id="assets" transform="translate(-763.000000, -655.000000)">
            <g id="icon/Upload" transform="translate(763.000000, 655.000000)">
                <path d="M17.625,10.7375 C17.625,10.7375 17.625,10.625 17.625,10.625 C17.625,7.475 15.15,5 12,5 C9.1875,5 6.825,7.025 6.4875,9.8375 C4.4625,10.5125 3,12.3125 3,14.5625 C3,17.375 5.25,19.625 8.0625,19.625 C9.975,19.625 14.7,19.625 16.5,19.625 C18.975,19.625 21,17.6 21,15.125 C21,12.9875 19.5375,11.3 17.625,10.7375 Z M13.125,14 L13.125,17.375 L10.875,17.375 L10.875,14 L7.5,14 L12,9.5 L16.5,14 L13.125,14 Z" id="Fill" fill="#000" fill-rule="evenodd"></path>
                <rect id="bound" x="0" y="0" width="24" height="24"></rect>
            </g>
        </g>
    </g>
</svg>