<svg width="16" height="17" viewBox="0 0 16 17" fill="none" xmlns="http://www.w3.org/2000/svg">
<path fill-rule="evenodd" clip-rule="evenodd" d="M14.5 8.96388L10.4834 13.5511C10.1248 13.9607 9.02203 13.674 9.02203 13.087V10.7472H6.25172C5.93374 10.7472 5.67793 10.1735 5.67793 9.81034V7.18905C5.67793 6.82589 5.93374 6.25279 6.25172 6.25279H9.02203V3.91243C9.02203 3.3281 10.1224 3.03867 10.4834 3.44825L14.5 8.03551C14.7223 8.29218 14.7223 8.70721 14.5 8.96388ZM7.32589 13.4143V12.3221C7.32589 12.1419 7.15735 11.9944 6.95136 11.9944H4.32963C3.7772 11.9944 3.33088 11.604 3.33088 11.1207V5.87808C3.33088 5.39478 3.7772 5.00432 4.32963 5.00432H6.95136C7.15735 5.00432 7.32589 4.85687 7.32589 4.67666V3.58445C7.32589 3.40424 7.15735 3.25679 6.95136 3.25679H4.32963C2.67545 3.25679 1.33337 4.43091 1.33337 5.87808V11.1207C1.33337 12.5678 2.67545 13.742 4.32963 13.742H6.95136C7.15735 13.742 7.32589 13.5945 7.32589 13.4143Z" fill="#000"/>
</svg>
