<svg width="24" height="24" viewBox="0 0 24 24" fill="none" xmlns="http://www.w3.org/2000/svg">
<path d="M14.3749 8.06229C14.3749 6.50838 15.6335 5.24979 17.1874 5.24979C18.7413 5.24979 19.9999 6.50838 19.9999 8.06229V9.74979C19.9999 10.3721 20.5026 10.8748 21.1249 10.8748C21.7471 10.8748 22.2498 10.3721 22.2498 9.74979V8.06229C22.2498 5.26736 19.9823 2.99979 17.1874 2.99979C14.3925 2.99979 12.1249 5.26736 12.1249 8.06229V9.74979H4.24998C3.00898 9.74979 2 10.7588 2 11.9998V18.7498C2 19.9908 3.00898 20.9998 4.24998 20.9998H15.4999C16.7409 20.9998 17.7499 19.9908 17.7499 18.7498V11.9998C17.7499 10.7588 16.7409 9.74979 15.4999 9.74979H14.3749V8.06229Z" fill="#000"/>
</svg>
