<svg width="12" height="13" viewBox="0 0 12 13" fill="none"
  xmlns="http://www.w3.org/2000/svg">
  <path fill-rule="evenodd" clip-rule="evenodd" d="M1.84956 3.60522C2.08296 3.60522 2.33236 3.71718 2.48306 3.87803L6 7.36793L9.56628 3.83042C9.71566 3.68501 9.94906 3.60522 10.1504 3.60522C10.6159 3.60522 11 3.97583 11 4.42494C11 4.65014 10.9 4.85989 10.7333 5.02074L6.60016 9.10516C6.44945 9.26602 6.2334 9.3947 6 9.3947C5.78261 9.3947 5.54921 9.24929 5.39984 9.10516L1.26674 5.02074C1.06669 4.82772 1 4.61796 1 4.42494C1 3.97583 1.38277 3.60522 1.84956 3.60522Z" fill="#000"/>
</svg>
