<?xml version="1.0" encoding="UTF-8"?>
<svg width="24px" height="24px" viewBox="0 0 24 24" version="1.1" xmlns="http://www.w3.org/2000/svg" xmlns:xlink="http://www.w3.org/1999/xlink">
    <title>iconVerified</title>
    <g id="Assets" stroke="none" stroke-width="1" fill="none" fill-rule="evenodd">
        <g id="assets" transform="translate(-763.000000, -2191.000000)" fill="#000">
            <g id="icon/Verified" transform="translate(763.000000, 2191.000000)">
                <path d="M12,0 C18.627417,-1.21743675e-15 24,5.372583 24,12 C24,18.627417 18.627417,24 12,24 C5.372583,24 8.11624501e-16,18.627417 0,12 C-8.11624501e-16,5.372583 5.372583,1.21743675e-15 12,0 Z M17.3492015,6.0006819 L17.2144493,6.00425028 C16.8980013,6.03082911 16.6046125,6.1942889 16.3998784,6.45500304 L16.3998784,6.45500304 L9.79006655,14.775505 L7.0697555,11.5641786 C6.6263701,11.0399716 5.87325296,11.0032445 5.38766703,11.4817842 C4.90196916,11.9617736 4.86782815,12.7746025 5.3125568,13.2986887 L5.3125568,13.2986887 L8.94012326,17.5818667 C9.165342,17.8483799 9.48447651,18 9.81872261,18 L9.81872261,18 L9.83652071,18 C10.177595,17.9940802 10.499528,17.8306204 10.7218363,17.5509386 L10.7218363,17.5509386 L18.2076729,8.12753616 C18.4163249,7.86839259 18.5199792,7.53120392 18.4968081,7.18954518 C18.473637,6.849457 18.3249837,6.53147757 18.083534,6.30906111 C17.8433156,6.08676546 17.5295541,5.97634251 17.2144493,6.00425028 Z" id="verified"></path>
                <path fill-rule="evenodd" clip-rule="evenodd" d="M17.2145 6.00425C16.898 6.03083 16.6046 6.19429 16.3999 6.455L9.79007 14.7755L7.06976 11.5642C6.62637 11.04 5.87325 11.0032 5.38767 11.4818C4.90197 11.9618 4.86783 12.7746 5.31256 13.2987L8.94012 17.5819C9.16534 17.8484 9.48448 18 9.81872 18H9.83652C10.1776 17.9941 10.4995 17.8306 10.7218 17.5509L18.2077 8.12754C18.4163 7.86839 18.52 7.5312 18.4968 7.18955C18.4736 6.84946 18.325 6.53148 18.0835 6.30906C17.8433 6.08677 17.5296 5.97634 17.2145 6.00425Z" fill="#f00"/>
            </g>
        </g>
    </g>
</svg>