<svg width="24" height="24" viewBox="0 0 24 24" fill="none" xmlns="http://www.w3.org/2000/svg">
<path d="M3.25 8.875H17.7344L15.493 11.1164C15.0047 11.6047 15.0047 12.3957 15.493 12.884C15.7344 13.1289 16.0547 13.25 16.375 13.25C16.6953 13.25 17.0148 13.1279 17.2586 12.8838L21.6336 8.50879C22.1219 8.02051 22.1219 7.22949 21.6336 6.74121L17.2586 2.36621C16.7703 1.87793 15.9793 1.87793 15.491 2.36621C15.0027 2.85449 15.0027 3.64551 15.491 4.13379L17.7344 6.375H3.25C2.55898 6.375 2 6.93398 2 7.625C2 8.31602 2.55898 8.875 3.25 8.875ZM20.75 15.125H6.26953L8.51094 12.8836C8.99922 12.3953 8.99922 11.6043 8.51094 11.116C8.02266 10.6277 7.23164 10.6277 6.74336 11.116L2.36836 15.491C1.88008 15.9793 1.88008 16.7703 2.36836 17.2586L6.74336 21.6336C6.98438 21.8789 7.30469 22 7.625 22C7.94531 22 8.26484 21.8779 8.50859 21.6338C8.99687 21.1455 8.99687 20.3545 8.50859 19.8662L6.26953 17.625H20.75C21.441 17.625 22 17.066 22 16.375C22 15.684 21.4414 15.125 20.75 15.125Z" fill="#858199"/>
</svg>
