<?xml version="1.0" encoding="UTF-8"?>
<svg width="24px" height="24px" viewBox="0 0 24 24" version="1.1" xmlns="http://www.w3.org/2000/svg" xmlns:xlink="http://www.w3.org/1999/xlink">
    <g id="🗿" stroke="none" stroke-width="1" fill="none" fill-rule="evenodd">
        <g id="icon-upload-sheet" transform="translate(-112.000000, -1384.000000)" fill="#000">
            <g id="icon/Follow" transform="translate(112.000000, 1384.000000)">
                <path d="M14.0014264,13.398757 C12.5817096,15.8924707 12.6243288,19.5844205 14.4327702,21.6581295 C9.10006134,22.5531482 1,21.6907943 1,19.0710678 C1,16.4713263 2.78570054,14.199268 5.4459986,12.9707232 C6.67015349,14.0203314 8.26102457,14.6544415 10,14.6544415 C11.4878718,14.6544415 12.8673231,14.1902376 14.0014264,13.398757 Z M10,13 C7.23857625,13 5,10.7614237 5,8 C5,5.23857625 7.23857625,3 10,3 C12.7614237,3 15,5.23857625 15,8 C15,10.7614237 12.7614237,13 10,13 Z M23,16.2307692 L23,17.7692308 C23,18.0241154 22.7933462,18.2307692 22.5384615,18.2307692 L20.2307692,18.2307692 L20.2307692,20.5384615 C20.2307692,20.7933462 20.0241154,21 19.7692308,21 L18.2307692,21 C17.9758846,21 17.7692308,20.7933462 17.7692308,20.5384615 L17.7692308,18.2307692 L15.4615385,18.2307692 C15.2066538,18.2307692 15,18.0241154 15,17.7692308 L15,16.2307692 C15,15.9758846 15.2066538,15.7692308 15.4615385,15.7692308 L17.7692308,15.7692308 L17.7692308,13.4615385 C17.7692308,13.2066538 17.9758846,13 18.2307692,13 L19.7692308,13 C20.0241154,13 20.2307692,13.2066538 20.2307692,13.4615385 L20.2307692,15.7692308 L22.5384615,15.7692308 C22.7933462,15.7692308 23,15.9758846 23,16.2307692 Z" id="Combined-Shape"></path>
            </g>
        </g>
    </g>
</svg>