<svg width="24" height="24" viewBox="0 0 24 24" fill="none" xmlns="http://www.w3.org/2000/svg">
<path fill-rule="evenodd" clip-rule="evenodd" d="M19.3125 15.3747H19.875C20.55 15.3747 21 15.8247 21 16.4997C21 17.1747 20.55 17.6247 19.875 17.6247H4.125C3.45 17.6247 3 17.1747 3 16.4997C3 15.8247 3.45 15.3747 4.125 15.3747H4.6875C5.475 14.5873 6.375 13.4623 6.375 11.9998V8.62488C6.375 5.47495 8.85 3 12 3C15.15 3 17.625 5.47495 17.625 8.62488V11.9998C17.625 13.4623 18.525 14.5873 19.3125 15.3747ZM12 21C10.7625 21 9.75 19.9875 9.75 18.75H14.25C14.25 19.9875 13.2375 21 12 21Z" fill="#000"/>
</svg>
