<svg width="32" height="27" viewBox="0 0 32 27" fill="none" xmlns="http://www.w3.org/2000/svg">
<path d="M1.94001 0.961336C1.42001 0.551336 0.665006 0.646336 0.255006 1.16634C-0.154994 1.68634 -0.0599936 2.44134 0.460006 2.85134L30.06 26.0513C30.58 26.4613 31.335 26.3663 31.745 25.8463C32.155 25.3263 32.06 24.5713 31.54 24.1613L18.23 13.7263C20.19 14.1213 21.965 15.0313 23.41 16.3063C24.075 16.8913 25.085 16.8263 25.67 16.1663C26.255 15.5063 26.19 14.4913 25.53 13.9063C22.99 11.6663 19.65 10.3063 16 10.3063C15.335 10.3063 14.675 10.3513 14.035 10.4413L9.28001 6.71634C11.37 5.93134 13.635 5.50634 16 5.50634C21.16 5.50634 25.84 7.54134 29.29 10.8513C29.93 11.4613 30.94 11.4413 31.55 10.8063C32.16 10.1713 32.14 9.15634 31.505 8.54634C27.485 4.68134 22.02 2.30634 16 2.30634C12.565 2.30634 9.31501 3.08134 6.40501 4.46134L1.94001 0.961336ZM4.68001 9.19634L2.08501 7.15134C1.53501 7.59134 1.00001 8.05634 0.490006 8.54134C-0.144994 9.15634 -0.164994 10.1663 0.445006 10.8063C1.05501 11.4463 2.07001 11.4663 2.70501 10.8513C3.32501 10.2563 3.98501 9.70134 4.68001 9.19634ZM11.4 14.4913L8.65001 12.3213C7.87501 12.7813 7.14501 13.3113 6.47501 13.9063C5.81001 14.4913 5.75001 15.5013 6.33501 16.1663C6.92001 16.8313 7.93001 16.8913 8.59501 16.3063C9.43001 15.5663 10.375 14.9563 11.405 14.4913H11.4ZM16 18.3063C14.235 18.3063 12.8 19.7413 12.8 21.5063C12.8 23.2713 14.235 24.7063 16 24.7063C17.765 24.7063 19.2 23.2713 19.2 21.5063C19.2 21.1563 19.145 20.8213 19.04 20.5063L16.26 18.3163C16.175 18.3113 16.09 18.3063 16 18.3063Z" fill="#000"/>
</svg>
