<svg width="24" height="24" viewBox="0 0 24 24" fill="none"
  xmlns="http://www.w3.org/2000/svg">
  <path fill-rule="evenodd" clip-rule="evenodd" d="M20.8827 19.7901C21.4998 19.7901 22 20.2848 22 20.895C22 21.5053 21.4998 22 20.8827 22H14.1788C13.5617 22 13.0615 21.5053 13.0615 20.895C13.0615 20.2848 13.5617 19.7901 14.1788 19.7901H20.8827ZM20.8827 15.3702C21.4998 15.3702 22 15.8649 22 16.4751C22 17.0854 21.4998 17.5801 20.8827 17.5801H14.1788C13.5617 17.5801 13.0615 17.0854 13.0615 16.4751C13.0615 15.8649 13.5617 15.3702 14.1788 15.3702H20.8827ZM20.8827 10.9503C21.4998 10.9503 22 11.445 22 12.0552C22 12.6655 21.4998 13.1602 20.8827 13.1602H17.419C16.8019 13.1602 16.3017 12.6655 16.3017 12.0552C16.3017 11.445 16.8019 10.9503 17.419 10.9503H20.8827Z" fill="#000"/>
  <path d="M16.6075 7.23409C16.6075 4.34338 14.2379 2 11.3149 2C8.39191 2 6.02235 4.34338 6.02235 7.23409C6.02235 10.1248 8.39191 12.4682 11.3149 12.4682C14.2379 12.4682 16.6075 10.1248 16.6075 7.23409Z" fill="#000"/>
  <path d="M10.7545 15.4052C10.9095 15.2153 10.9982 14.9743 10.9 14.7497C10.7823 14.4804 10.5407 14.1509 10.0756 14.0596C8.80561 13.8103 7.65251 13.2399 6.70659 12.4374C3.89038 13.7234 2 16.1019 2 18.8235C2 20.646 5.78696 21.656 9.98426 21.8535C10.4162 21.8738 10.7882 21.6075 10.9341 21.227C11.0187 21.0065 10.9164 20.7716 10.78 20.5788C10.2898 19.8863 9.21092 18.0782 10 16.5C10.1844 16.1312 10.5229 15.6891 10.7545 15.4052Z" fill="#000"/>
</svg>
