<?xml version="1.0" encoding="UTF-8"?>
<svg width="24px" height="24px" viewBox="0 0 24 24" version="1.1" xmlns="http://www.w3.org/2000/svg" xmlns:xlink="http://www.w3.org/1999/xlink">
    <title>iconCaretRight</title>
    <g id="Assets" stroke="none" stroke-width="1" fill="none" fill-rule="evenodd">
        <g id="assets" transform="translate(-763.000000, -799.000000)">
            <g id="icon/CaretRight" transform="translate(763.000000, 799.000000)">
                <rect id="Bound" x="0" y="0" width="24" height="24"></rect>
                <path d="M7,20.3858362 C7,19.9423846 7.21271394,19.4685249 7.51833741,19.1821819 L14.1491443,12.5 L7.42787286,5.72405975 C7.15158924,5.44025073 7,4.99679915 7,4.61416378 C7,3.72979461 7.70415648,3 8.55745721,3 C8.98533007,3 9.38386308,3.19005068 9.68948655,3.50680181 L17.4498778,11.3596959 C17.7555012,11.6460389 18,12.0565484 18,12.5 C18,12.9130435 17.7237164,13.3564951 17.4498778,13.6403041 L9.68948655,21.4931982 C9.32273839,21.8732995 8.92420538,22 8.55745721,22 C7.70415648,22 7,21.2727394 7,20.3858362" id="Fill-1" fill="#000" fill-rule="evenodd"></path>
            </g>
        </g>
    </g>
</svg>