<svg width="21" height="20" viewBox="0 0 21 20" fill="none"
  xmlns="http://www.w3.org/2000/svg">
  <path d="M12.8203 0.605469C12.5977 0.230469 12.1875 0 11.75 0C11.3125 0 10.9023 0.230469 10.6797 0.605469L6.92969 6.85547C6.69922 7.24219 6.69141 7.72266 6.91406 8.11328C7.13672 8.50391 7.55078 8.74609 8 8.74609H15.5C15.9492 8.74609 16.3672 8.50391 16.5859 8.11328C16.8047 7.72266 16.8008 7.24219 16.5703 6.85547L12.8203 0.605469ZM11.75 12.1875V17.8125C11.75 18.6758 12.4492 19.375 13.3125 19.375H18.9375C19.8008 19.375 20.5 18.6758 20.5 17.8125V12.1875C20.5 11.3242 19.8008 10.625 18.9375 10.625H13.3125C12.4492 10.625 11.75 11.3242 11.75 12.1875ZM5.5 20C8.26172 20 10.5 17.7617 10.5 15C10.5 12.2383 8.26172 10 5.5 10C2.73828 10 0.5 12.2383 0.5 15C0.5 17.7617 2.73828 20 5.5 20Z" fill="#FF0000"/>
</svg>
