<svg width="24" height="24" viewBox="0 0 24 24" fill="none" xmlns="http://www.w3.org/2000/svg">
<path fill-rule="evenodd" clip-rule="evenodd" d="M9.68778 12L4.47888 17.2089C3.84037 17.8474 3.84037 18.8826 4.47888 19.5211C5.11738 20.1596 6.1526 20.1596 6.7911 19.5211L12 14.3122L17.2089 19.5211C17.8474 20.1596 18.8826 20.1596 19.5211 19.5211C20.1596 18.8826 20.1596 17.8474 19.5211 17.2089L14.3122 12L19.5211 6.7911C20.1596 6.1526 20.1596 5.11738 19.5211 4.47888C18.8826 3.84037 17.8474 3.84038 17.2089 4.47888L12 9.68778L6.7911 4.47888C6.1526 3.84037 5.11738 3.84037 4.47888 4.47888C3.84037 5.11738 3.84037 6.1526 4.47888 6.7911L9.68778 12Z" fill="#000"/>
</svg>
