<svg width="14" height="12" viewBox="0 0 14 12" fill="none" xmlns="http://www.w3.org/2000/svg">
<path d="M13.6663 3.22186C13.6663 3.73325 13.2518 4.14779 12.7404 4.14779C12.7347 4.14779 12.7299 4.14461 12.7242 4.14452L11.5547 10.5766C11.4907 10.9288 11.1839 11.1848 10.8259 11.1848H3.17345C2.81546 11.1848 2.50866 10.9288 2.44465 10.5766L1.27516 4.14452C1.26942 4.14461 1.26467 4.14779 1.25893 4.14779C0.747545 4.14779 0.333008 3.73325 0.333008 3.22186C0.333008 2.71047 0.747545 2.29593 1.25893 2.29593C1.77032 2.29593 2.18486 2.71047 2.18486 3.22186C2.18486 3.43015 2.10336 3.61281 1.98724 3.76746L4.06194 5.42721C4.43018 5.72181 4.97634 5.60186 5.18724 5.1801L6.52053 2.51348C6.25808 2.3501 6.07375 2.07237 6.07375 1.74038C6.07375 1.22899 6.48829 0.814453 6.99967 0.814453C7.51106 0.814453 7.9256 1.22899 7.9256 1.74038C7.9256 2.07237 7.74127 2.3501 7.47882 2.51348L8.81211 5.1801C9.02301 5.60186 9.56917 5.72181 9.93741 5.42721L12.0121 3.76746C11.896 3.61281 11.8145 3.43015 11.8145 3.22186C11.8145 2.71047 12.229 2.29593 12.7404 2.29593C13.2518 2.29593 13.6663 2.71047 13.6663 3.22186Z" fill="#7E1BCC"/>
</svg>
