<svg width="24" height="24" viewBox="0 0 24 24" fill="none" xmlns="http://www.w3.org/2000/svg">
<path d="M19.7778 5.88883C20.0833 5.88883 20.3333 6.13883 20.3333 6.44439V7.5555H3.66667V6.44439C3.66667 6.13883 3.91667 5.88883 4.22222 5.88883H19.7778ZM20.3333 10.8888V17.5555C20.3333 17.8611 20.0833 18.1111 19.7778 18.1111H4.22222C3.91667 18.1111 3.66667 17.8611 3.66667 17.5555V10.8888H20.3333ZM4.22222 4.22217C2.99653 4.22217 2 5.2187 2 6.44439V17.5555C2 18.7812 2.99653 19.7777 4.22222 19.7777H19.7778C21.0035 19.7777 22 18.7812 22 17.5555V6.44439C22 5.2187 21.0035 4.22217 19.7778 4.22217H4.22222ZM6.16667 14.7777C5.70486 14.7777 5.33333 15.1493 5.33333 15.6111C5.33333 16.0729 5.70486 16.4444 6.16667 16.4444H7.83333C8.29514 16.4444 8.66667 16.0729 8.66667 15.6111C8.66667 15.1493 8.29514 14.7777 7.83333 14.7777H6.16667ZM10.6111 14.7777C10.1493 14.7777 9.77778 15.1493 9.77778 15.6111C9.77778 16.0729 10.1493 16.4444 10.6111 16.4444H14.5C14.9618 16.4444 15.3333 16.0729 15.3333 15.6111C15.3333 15.1493 14.9618 14.7777 14.5 14.7777H10.6111Z" fill="#858199"/>
</svg>
