<svg width="16" height="20" viewBox="0 0 16 20" fill="none" xmlns="http://www.w3.org/2000/svg">
<path fill-rule="evenodd" clip-rule="evenodd" d="M15.2156 1.94732V14.7488L15.2134 14.7958L15.2156 14.853C15.2156 15.9946 14.107 16.929 12.7041 17.0049L12.5195 17.0098C11.0305 17.0098 9.82344 16.0442 9.82344 14.853C9.82344 13.6618 11.0305 12.6961 12.5195 12.6961C12.7045 12.6961 12.8851 12.711 13.0597 12.7394L13.0587 4.73024L5.50971 6.81744V16.9751L5.50863 16.9894L5.50971 17.0098C5.50971 18.1514 4.40113 19.0858 2.99822 19.1617L2.81363 19.1667C1.32463 19.1667 0.117554 18.201 0.117554 17.0098C0.117554 15.8186 1.32463 14.853 2.81363 14.853C2.99862 14.853 3.17926 14.8679 3.35377 14.8963L3.35285 4.73024C3.35285 4.24336 3.65939 3.81297 4.10961 3.66774L13.8155 0.884822C14.5099 0.66082 15.2156 1.19633 15.2156 1.94732Z" fill="#000"/>
</svg>
