<svg width="20" height="18" viewBox="0 0 20 18" fill="none"
  xmlns="http://www.w3.org/2000/svg">
  <path fill-rule="evenodd" clip-rule="evenodd" d="M7.76013 4.98476C7.76013 5.80727 8.00763 6.56977 8.42263 7.21394C8.5518 7.41394 8.7018 7.59894 8.86263 7.77311C9.4993 8.46061 10.3635 8.92145 11.3393 9.05062C11.3738 9.05513 11.4083 9.05992 11.4427 9.06472C11.5866 9.08472 11.7308 9.10478 11.8793 9.10478C12.0233 9.10478 12.1621 9.0856 12.3006 9.06645C12.3376 9.06132 12.3747 9.0562 12.4118 9.05145C12.6202 9.02478 12.8202 8.98228 13.0177 8.92561C13.7218 8.72145 14.351 8.34811 14.846 7.83394C15.5568 7.09311 16.0002 6.09227 16.0002 4.98476C16.0002 2.70975 14.1552 0.864746 11.8793 0.864746C10.9968 0.864746 10.1835 1.14808 9.51347 1.62058C9.2843 1.78142 9.07597 1.96725 8.88597 2.16975C8.69013 2.37642 8.52097 2.60559 8.37263 2.84892C7.99096 3.47392 7.76013 4.19976 7.76013 4.98476ZM2.63959 5.06216C2.63959 6.88466 4.11709 8.36217 5.9396 8.36217C5.96312 8.36217 5.98566 8.35873 6.00802 8.35532C6.02685 8.35245 6.04555 8.3496 6.0646 8.34884C6.31793 8.17467 6.57877 8.00717 6.8571 7.8555C6.37127 7.00883 6.09377 6.02883 6.09377 4.98466C6.09377 3.86715 6.41627 2.82631 6.9671 1.94131C6.6421 1.83381 6.30127 1.76214 5.9396 1.76214C4.11709 1.76214 2.63959 3.23881 2.63959 5.06216ZM2.93418 8.34246C1.17834 9.15329 0 10.6525 0 12.3683C0 13.1825 1.18334 13.7383 2.80251 14.0375C2.82168 12.2841 3.58918 10.6291 4.90085 9.32246C4.16418 9.15246 3.48918 8.81829 2.93418 8.34246ZM11.0057 15.2473C10.9332 15.4865 10.8907 15.739 10.894 15.9998L10.8949 16.2832C10.8949 16.3291 10.9012 16.375 10.9076 16.4209C10.9112 16.4475 10.9149 16.4741 10.9174 16.5007C9.44653 16.4448 8.02902 16.2607 6.89818 15.9482C6.11651 15.7323 5.47318 15.454 5.04484 15.1148C4.72401 14.8607 4.52901 14.5707 4.48484 14.2473C4.48244 14.2324 4.47935 14.2176 4.47626 14.2028L4.47626 14.2028L4.47625 14.2028C4.46971 14.1715 4.46317 14.1402 4.46317 14.1073C4.46317 11.9648 5.93568 10.0931 8.12819 9.08064C8.14714 9.09694 8.16702 9.11232 8.18697 9.12774C8.20475 9.14149 8.22258 9.15528 8.23985 9.1698C9.10319 9.87314 10.1707 10.3348 11.3432 10.4431C11.5199 10.4598 11.699 10.4681 11.8799 10.4681C11.9589 10.4681 12.0352 10.459 12.1115 10.4498C12.1632 10.4436 12.2149 10.4373 12.2674 10.434L12.3143 10.431C12.457 10.4222 12.5993 10.4133 12.739 10.3923L12.7382 11.9106V13.529C11.8999 13.7673 11.2524 14.4282 11.0057 15.2473ZM19.5533 8.69245C19.7658 8.69245 19.9533 8.83995 19.9925 9.04912C19.9975 9.07495 20 9.10079 20 9.12662V10.7683V12.9983V14.6816V14.7066C19.9517 14.8883 19.8692 15.0541 19.77 15.2083C19.6933 15.3183 19.6092 15.4258 19.5092 15.5258C19.4442 15.5858 19.37 15.6316 19.2958 15.6766C19.1342 15.7758 18.9608 15.8517 18.7642 15.865L18.1933 15.905C18.1725 15.9067 18.1525 15.9067 18.1325 15.9067H18.125C17.8242 15.9067 17.6 15.8525 17.4317 15.7717C16.9275 15.5308 16.9275 15.05 16.9275 15.05L16.9267 14.75C16.9208 14.3166 17.235 13.9466 17.6633 13.8808L18.7708 13.7116V11.9708V10.6816L17.9875 10.8225L15.6991 11.2333L15.6466 11.24L15.6341 11.2425V15.9358C15.6341 16.0358 15.6091 16.1333 15.5733 16.2292C15.4941 16.4475 15.335 16.6458 15.1325 16.7992C14.9158 16.9633 14.6566 17.0758 14.3983 17.0933C14.3983 17.0933 13.7866 17.135 13.7666 17.135H13.7591C12.9675 17.135 12.7033 16.7642 12.6125 16.51C12.5658 16.38 12.5616 16.2792 12.5616 16.2792L12.5608 15.9783C12.5558 15.5458 12.87 15.1758 13.2975 15.1091L14.3708 14.945L14.405 14.94V14.0383V11.9108V10.0525L14.4075 9.96829C14.4075 9.93134 14.4164 9.89587 14.4251 9.86118L14.4266 9.85496C14.4708 9.69662 14.5966 9.57079 14.7658 9.54079L15.0625 9.48829L15.3916 9.42995C15.3988 9.4279 15.4057 9.42487 15.4126 9.42183C15.4226 9.41747 15.4325 9.4131 15.4433 9.41162L15.5266 9.39662L16.0516 9.30412L17.28 9.08745L18.3925 8.89079L19.4733 8.69995C19.5 8.69495 19.5267 8.69245 19.5533 8.69245Z" fill="#000"/>
</svg>
