<svg width="24" height="24" viewBox="0 0 24 24" fill="none" xmlns="http://www.w3.org/2000/svg">
<path fill-rule="evenodd" clip-rule="evenodd" d="M12 4C15.5 4 18 6.55385 18 10C20.125 10.6154 22 12.6615 22 15C22 17.7077 19.75 20 17 20H8C4.875 20 2 17.0769 2 14C2 11.5385 3.75 9.73846 6 9C6.375 5.92308 8.875 4 12 4ZM15.8445 13.2674L12.3723 16.8423C12.168 17.0526 11.832 17.0526 11.6277 16.8423L8.15547 13.2674C7.82274 12.9248 8.05994 12.3414 8.52774 12.3414H10.6823V8.54268C10.6823 8.24421 10.9194 8 11.2094 8H12.7906C13.0806 8 13.3177 8.24421 13.3177 8.54268V12.3414H15.4723C15.9401 12.3414 16.1773 12.9248 15.8445 13.2674Z" fill="#000"/>
</svg>
