<?xml version="1.0" encoding="UTF-8"?>
<svg width="24px" height="24px" viewBox="0 0 24 24" version="1.1" xmlns="http://www.w3.org/2000/svg" xmlns:xlink="http://www.w3.org/1999/xlink">
    <title>iconThumbsUp</title>
    <g id="Assets" stroke="none" stroke-width="1" fill="none" fill-rule="evenodd">
        <g id="assets" transform="translate(-767.000000, -2829.000000)">
            <g id="icon/ThumbsUp" transform="translate(767.000000, 2829.000000)">
                <rect id="bound" x="0" y="0" width="24" height="24"></rect>
                <path d="M14.6906 0.543086C15.9094 0.786836 16.7016 1.97277 16.4578 3.19152L16.35 3.7259C16.1016 4.97746 15.6422 6.16809 15 7.2509H21.75C22.9922 7.2509 24 8.25871 24 9.5009C24 10.6868 23.0859 11.6571 21.9234 11.7462C22.2844 12.1446 22.5 12.6743 22.5 13.2509C22.5 14.3478 21.7125 15.2618 20.6766 15.4587C20.8828 15.7962 21 16.1993 21 16.6259C21 17.6243 20.3484 18.4728 19.4484 18.7634C19.4812 18.9181 19.5 19.0821 19.5 19.2509C19.5 20.4931 18.4922 21.5009 17.25 21.5009H13.8047C12.9141 21.5009 12.0469 21.2384 11.3062 20.7462L9.50156 19.5415C8.25 18.7071 7.5 17.3009 7.5 15.7962V14.0009V11.7509V10.5837C7.5 9.21496 8.12344 7.9259 9.1875 7.06809L9.53437 6.79152C10.7766 5.79777 11.625 4.4009 11.9344 2.84465L12.0422 2.31027C12.2859 1.09152 13.4719 0.299336 14.6906 0.543086ZM1.5 8.0009H4.5C5.32969 8.0009 6 8.67121 6 9.5009V20.0009C6 20.8306 5.32969 21.5009 4.5 21.5009H1.5C0.670312 21.5009 0 20.8306 0 20.0009V9.5009C0 8.67121 0.670312 8.0009 1.5 8.0009Z" id="Fill" fill="#000" fill-rule="evenodd"/>
            </g>
        </g>
    </g>
</svg>