<svg width="48" height="48" viewBox="0 0 48 48" fill="none" xmlns="http://www.w3.org/2000/svg">
<path fill-rule="evenodd" clip-rule="evenodd" d="M37.25 12.2222C38.0324 12.2222 38.6666 11.5578 38.6666 10.7381V1.48411C38.6666 0.664457 38.0324 0 37.25 0C36.4676 0 35.8333 0.664457 35.8333 1.48411V4.83667L27.8907 0.131993C27.4221 -0.145519 26.8533 0.0293396 26.5653 0.518015L26.504 0.636292C26.4283 0.803534 26.3888 0.989105 26.3888 1.17742V4.57L19.3081 0.131993C18.8653 -0.145519 18.3278 0.0293396 18.0556 0.518015L17.9977 0.636292C17.9262 0.803534 17.8888 0.989105 17.8888 1.17742V4.52656C15.6909 5.16081 13.6344 6.12854 11.7777 7.37143C11.1655 7.78123 10.575 8.22094 10.0083 8.68848C9.48631 9.11914 8.98452 9.57341 8.50456 10.0497C8.46387 10.09 8.42335 10.1306 8.38298 10.1712C7.90674 10.6512 7.45247 11.153 7.0218 11.675C6.55427 12.2417 6.11455 12.8321 5.70475 13.4443C3.36469 16.9402 2 21.1441 2 25.6667C2 30.1893 3.36469 34.3932 5.70475 37.889C6.11455 38.5012 6.55426 39.0917 7.0218 39.6584C7.45247 40.1804 7.90673 40.6822 8.38298 41.1621C8.42334 41.2028 8.46387 41.2433 8.50456 41.2837C8.98451 41.7599 9.4863 42.2142 10.0083 42.6449C10.575 43.1124 11.1655 43.5521 11.7777 43.9619C15.2735 46.302 19.4774 47.6667 24 47.6667C28.5226 47.6667 32.7265 46.302 36.2223 43.9619C36.8345 43.5521 37.425 43.1124 37.9917 42.6449C38.5137 42.2142 39.0155 41.7599 39.4954 41.2837C39.5361 41.2433 39.5766 41.2028 39.617 41.1621C40.0933 40.6822 40.5475 40.1804 40.9782 39.6584C41.4457 39.0917 41.8854 38.5012 42.2952 37.889C44.6353 34.3932 46 30.1893 46 25.6667C46 22.2767 45.2333 19.0658 43.8637 16.1979C43.2428 14.8977 41.5373 14.716 40.5185 15.7348C39.7976 16.4556 39.6626 17.5639 40.0785 18.4947C41.057 20.6848 41.6 23.1111 41.6 25.6667C41.6 30.5034 39.6548 34.8772 36.4937 38.063C36.4775 38.0793 36.4614 38.0957 36.4455 38.1122C36.429 38.1281 36.4126 38.1442 36.3963 38.1604C33.2105 41.3215 28.8367 43.2667 24 43.2667C19.1633 43.2667 14.7895 41.3215 11.6037 38.1604L11.5759 38.133L11.5545 38.1122C11.5386 38.0957 11.5225 38.0793 11.5063 38.063C8.34521 34.8772 6.4 30.5034 6.4 25.6667C6.4 20.83 8.34521 16.4561 11.5063 13.2704C11.5225 13.2541 11.5386 13.2376 11.5545 13.2211L11.5799 13.1965L11.6037 13.173C13.3735 11.4169 15.51 10.036 17.8888 9.15543V11.045C17.8888 11.6952 18.3242 12.2222 18.8611 12.2222C19.0167 12.2222 19.17 12.177 19.3081 12.0905L26.3888 7.65333V11.045C26.3888 11.6518 26.7901 12.1514 27.3056 12.2153L27.4177 12.2222C27.5823 12.2222 27.7445 12.177 27.8907 12.0905L35.8333 7.38667V10.7381C35.8333 11.5096 36.3951 12.1435 37.1135 12.2154L37.25 12.2222ZM16.7099 21.536V33.775H20.4933V17.1111H17.0251L11.7778 21.1359L13.7371 23.9367L16.7099 21.536ZM34.4821 30.9271C34.8274 30.1739 35 29.2874 35 28.2675C35 27.3888 34.8499 26.6199 34.5496 25.9609C34.2494 25.3019 33.8365 24.7527 33.311 24.3133C32.8005 23.8583 32.1925 23.5209 31.4868 23.3012C30.7812 23.0816 30.0305 22.9717 29.2347 22.9717C28.9945 22.9717 28.7243 22.9874 28.424 23.0188C28.1387 23.0345 27.876 23.0737 27.6358 23.1365L27.7709 20.5004H34.1893V17.1111H24.4153L24.0325 26.6434C24.603 26.4238 25.2486 26.2512 25.9693 26.1256C26.7049 25.9844 27.358 25.9138 27.9285 25.9138C28.3189 25.9138 28.7093 25.953 29.0996 26.0315C29.49 26.11 29.8353 26.2512 30.1356 26.4552C30.4509 26.6434 30.7061 26.9024 30.9013 27.2319C31.0965 27.5614 31.194 27.9693 31.194 28.4558C31.194 29.256 30.9538 29.8601 30.4734 30.2681C30.008 30.6761 29.4524 30.88 28.8069 30.88C28.1763 30.88 27.6283 30.6917 27.1628 30.3152C26.7124 29.9386 26.4046 29.46 26.2395 28.8794L22.7938 29.9856C22.974 30.6447 23.2518 31.2409 23.6271 31.7744C24.0175 32.2922 24.4754 32.7316 25.0009 33.0925C25.5414 33.4534 26.1344 33.728 26.78 33.9163C27.4406 34.1202 28.1312 34.2222 28.8519 34.2222C29.6326 34.2222 30.3908 34.0967 31.1265 33.8456C31.8622 33.6103 32.5153 33.2494 33.0858 32.763C33.6713 32.2765 34.1367 31.6646 34.4821 30.9271Z" fill="#000"/>
</svg>
