<svg width="16" height="17" viewBox="0 0 16 17" fill="none" xmlns="http://www.w3.org/2000/svg">
<path d="M1.18421 3.86841C0.530428 3.86841 0 4.38705 0 5.0263C0 5.39056 0.175164 5.7331 0.473684 5.95262L5.84211 9.88946C6.12336 10.0945 6.50822 10.0945 6.78947 9.88946L8.54203 8.60425C8.45789 8.10752 8.42296 7.64745 8.42106 7.25734C8.41931 6.78072 8.70702 6.38596 9.09299 6.21678L12.3965 4.76327C12.4569 4.73492 12.5209 4.71758 12.5875 4.71227C12.4474 4.22549 11.9898 3.86841 11.4474 3.86841H1.18421Z" fill="#858199"/>
<path d="M7.26316 10.507L8.72393 9.43577C9.0695 10.7173 9.75818 12.1093 11.023 13.1316H1.57895C0.708059 13.1316 0 12.4392 0 11.5877V6.57016L5.36842 10.507C5.93092 10.9195 6.70066 10.9195 7.26316 10.507Z" fill="#000"/>
<path fill-rule="evenodd" clip-rule="evenodd" d="M12.6316 5.55262C12.6975 5.55262 12.7607 5.5675 12.8196 5.59578L15.4625 6.78502C15.7712 6.92344 16.0014 7.24642 16 7.63638C15.993 9.11288 15.4203 11.8143 13.0021 13.0423C12.7677 13.1613 12.4954 13.1613 12.2611 13.0423C9.84281 11.8143 9.27018 9.11288 9.26316 7.63638C9.26176 7.24642 9.49194 6.92344 9.80071 6.78502L12.4435 5.59578C12.5025 5.5675 12.5656 5.55262 12.6316 5.55262ZM11.9453 10.5685C12.0758 10.7084 12.2891 10.7084 12.4211 10.5685L14.2175 8.66338L14.2161 8.66189C14.3481 8.52347 14.3467 8.29723 14.2161 8.15732C14.0856 8.01741 13.8723 8.01741 13.7403 8.15732L12.1825 9.81094L11.5228 9.11139C11.3923 8.97148 11.179 8.97297 11.047 9.11139C10.9151 9.24981 10.9151 9.47605 11.047 9.61596L11.9453 10.5685Z" fill="#000"/>
</svg>
