<?xml version="1.0" encoding="UTF-8"?>
<svg width="24px" height="24px" viewBox="0 0 24 24" version="1.1" xmlns="http://www.w3.org/2000/svg" xmlns:xlink="http://www.w3.org/1999/xlink">
    <g id="Assets" stroke="none" stroke-width="1" fill="none" fill-rule="evenodd">
        <g id="assets" transform="translate(-762.000000, -2279.000000)">
            <g id="icon/volume0" transform="translate(762.000000, 2279.000000)">
                <rect id="Bound" x="0" y="0" width="24" height="24"></rect>
                <g id="Group-8" stroke-width="1" fill-rule="evenodd" transform="translate(0.000000, 3.000000)">
                    <path d="M6.24352617,14.7162329 L12.9988615,7.96104717 L13,16.5014 C13,17.7374 11.458,18.4384 10.401,17.6954 L6.24352617,14.7162329 Z M0.802855286,13.2369652 C0.33825056,13.025392 0.002,12.5806181 0.002,12.0514 L0,5.9504 C0,5.2504 0.616,4.6314 1.41,4.6314 L4.362,4.6314 L10.399,0.3044 C11.3358175,-0.35323348 12.6536146,0.121860111 12.9411745,1.09891484 L0.802855286,13.2369652 Z" id="Combined-Shape" fill="#000"></path>
                    <path d="M2.9766,15.9062 C2.6076,15.9062 2.2606,15.7622 1.9986,15.5012 C1.4596,14.9622 1.4596,14.0852 1.9986,13.5462 L13.0456,2.4992 C13.3076,2.2382 13.6546,2.0932 14.0236,2.0932 C14.3926,2.0932 14.7396,2.2382 15.0006,2.4992 C15.5396,3.0382 15.5396,3.9152 15.0006,4.4542 L3.9546,15.5012 C3.6926,15.7622 3.3456,15.9062 2.9766,15.9062" id="Fill-3" fill="#000"></path>
                    <g id="Group-7" transform="translate(1.000000, 1.000000)"></g>
                </g>
            </g>
        </g>
    </g>
</svg>