<svg width="24" height="24" viewBox="0 0 24 24" fill="none" xmlns="http://www.w3.org/2000/svg">
<path d="M9.06246 8.06226V9.74976H14.6874V8.06226C14.6874 6.50835 13.4288 5.24976 11.8749 5.24976C10.321 5.24976 9.06246 6.50835 9.06246 8.06226ZM6.81248 9.74976V8.06226C6.81248 5.26733 9.08004 2.99976 11.8749 2.99976C14.6698 2.99976 16.9374 5.26733 16.9374 8.06226V9.74976H17.4999C18.7409 9.74976 19.7499 10.7587 19.7499 11.9998V18.7498C19.7499 19.9908 18.7409 20.9998 17.4999 20.9998H6.24998C5.00898 20.9998 4 19.9908 4 18.7498V11.9998C4 10.7587 5.00898 9.74976 6.24998 9.74976H6.81248Z" fill="#000"/>
</svg>
