<?xml version="1.0" encoding="UTF-8"?>
<svg xmlns="http://www.w3.org/2000/svg" width="38" height="14" viewBox="0 0 38 14" fill="none">
  <path d="M0.826815 13.7875C0.61163 13.7875 0.437189 13.613 0.437189 13.3979V11.3143C0.437189 11.1982 0.488987 11.0881 0.578466 11.0141L5.51119 6.93359C5.84769 6.65465 6.13548 6.39342 6.37457 6.14991C6.61809 5.90196 6.80405 5.64738 6.93245 5.38615C7.06527 5.12492 7.13169 4.83491 7.13169 4.51613C7.13169 4.16635 7.05642 3.86749 6.90588 3.61954C6.75977 3.3716 6.5561 3.18121 6.29487 3.04839C6.03365 2.91113 5.73257 2.8425 5.39165 2.8425C5.05072 2.8425 4.74965 2.91113 4.48842 3.04839C4.23162 3.18564 4.03238 3.3871 3.8907 3.65275C3.79995 3.82291 3.73826 4.01667 3.70564 4.23406C3.6737 4.44686 3.50373 4.62239 3.28855 4.62239H0.561161C0.345976 4.62239 0.169994 4.44768 0.183874 4.23294C0.235088 3.44062 0.445712 2.74691 0.815747 2.1518C1.24522 1.4611 1.8518 0.929792 2.63548 0.557875C3.41916 0.185958 4.33788 0 5.39165 0C6.48083 0 7.42391 0.174889 8.22087 0.524668C9.02226 0.870019 9.63991 1.35705 10.0738 1.98577C10.5121 2.61448 10.7313 3.35168 10.7313 4.19734C10.7313 4.7198 10.6228 5.24004 10.4059 5.75806C10.1889 6.27166 9.7993 6.84061 9.237 7.4649C8.6747 8.08918 7.87552 8.83302 6.83947 9.69639L5.58385 10.7427C5.57148 10.7531 5.56432 10.7683 5.56432 10.7844C5.56432 10.8144 5.58862 10.8387 5.6186 10.8387H10.4878C10.703 10.8387 10.8774 11.0132 10.8774 11.2283V13.3979C10.8774 13.613 10.703 13.7875 10.4878 13.7875H0.826815Z" fill="#000"/>
  <path d="M13.6117 14C13.0981 14 12.6575 13.8207 12.29 13.4621C11.927 13.099 11.7477 12.6584 11.7521 12.1404C11.7477 11.6357 11.927 11.204 12.29 10.8454C12.6575 10.4867 13.0981 10.3074 13.6117 10.3074C14.0987 10.3074 14.5282 10.4867 14.9001 10.8454C15.2764 11.204 15.4668 11.6357 15.4712 12.1404C15.4668 12.4858 15.3761 12.8001 15.199 13.0835C15.0263 13.3624 14.8005 13.586 14.5215 13.7543C14.2426 13.9181 13.9393 14 13.6117 14Z" fill="#000"/>
  <path d="M21.9479 13.9734C20.903 13.9734 19.9754 13.7897 19.1652 13.4222C18.3594 13.0503 17.724 12.5389 17.2591 11.888C16.8713 11.3399 16.6437 10.7227 16.5762 10.0363C16.555 9.82058 16.7321 9.64326 16.9488 9.64326H19.7627C19.9736 9.64326 20.1397 9.81362 20.1929 10.0177C20.2705 10.3161 20.4349 10.5654 20.6861 10.7657C21.0403 11.0446 21.4609 11.1841 21.9479 11.1841C22.3243 11.1841 22.6563 11.1044 22.9441 10.945C23.2319 10.7812 23.4577 10.5509 23.6215 10.2543C23.7854 9.95762 23.865 9.61227 23.8606 9.21822C23.865 8.81973 23.7854 8.47438 23.6215 8.18216C23.4577 7.88552 23.2319 7.6575 22.9441 7.4981C22.6563 7.33428 22.3243 7.25237 21.9479 7.25237C21.5583 7.25237 21.1974 7.34757 20.8654 7.53795C20.6303 7.67136 20.4397 7.84238 20.2935 8.051C20.1907 8.19773 20.018 8.2907 19.8422 8.25611L17.2383 7.74387C17.0453 7.70592 16.9109 7.53015 16.9248 7.33401L17.4061 0.548021C17.4206 0.344045 17.5903 0.185958 17.7948 0.185958H26.1807C26.3959 0.185958 26.5703 0.3604 26.5703 0.575585V2.7451C26.5703 2.96028 26.3959 3.13472 26.1807 3.13472H20.8169C20.615 3.13472 20.4466 3.28892 20.4288 3.49001L20.1991 6.08566C20.1967 6.11305 20.2183 6.13662 20.2458 6.13662C20.2633 6.13662 20.2793 6.12682 20.2876 6.11137C20.5019 5.7109 20.865 5.37839 21.3768 5.11385C21.8992 4.83934 22.5058 4.70209 23.1965 4.70209C24.0067 4.70209 24.7284 4.89026 25.3616 5.2666C25.9991 5.64295 26.5017 6.16319 26.8692 6.82732C27.2411 7.48703 27.4248 8.24858 27.4204 9.11195C27.4248 10.0595 27.199 10.9007 26.743 11.6357C26.2914 12.3662 25.656 12.9396 24.8369 13.3558C24.0178 13.7676 23.0548 13.9734 21.9479 13.9734Z" fill="#000"/>
  <path d="M31.0182 3.58634C31.1691 3.58634 31.3064 3.6735 31.3707 3.81006L32.4097 6.01793C32.5485 6.31287 32.9665 6.31714 33.1113 6.0251L34.2131 3.80289C34.2788 3.67025 34.4141 3.58634 34.5622 3.58634H37.3087C37.6033 3.58634 37.7913 3.90059 37.6521 4.16015L35.3249 8.49827C35.2618 8.61575 35.2633 8.75729 35.3286 8.87348L37.7661 13.2068C37.9122 13.4666 37.7245 13.7875 37.4265 13.7875H34.7137C34.5698 13.7875 34.4375 13.7081 34.3699 13.5811L33.1023 11.202C32.9546 10.9248 32.5564 10.9273 32.4123 11.2065L31.1883 13.5766C31.1215 13.7061 30.9879 13.7875 30.8421 13.7875H28.0827C27.784 13.7875 27.5964 13.4652 27.7438 13.2055L30.2034 8.87304C30.2692 8.75712 30.2712 8.6156 30.2086 8.49789L27.9035 4.15876C27.7656 3.89925 27.9537 3.58634 28.2476 3.58634H31.0182Z" fill="#000"/>
</svg>