<svg width="32" height="32" viewBox="0 0 32 32" fill="none" xmlns="http://www.w3.org/2000/svg">
<path d="M28.9514 23.1546C24.2757 20.8912 23.5306 17.3966 23.4974 17.1374C23.4573 16.8235 23.4117 16.5766 23.7581 16.2572C24.0921 15.9487 25.5741 15.0314 25.9852 14.7445C26.6649 14.2693 26.9642 13.7948 26.7435 13.2116C26.5893 12.8082 26.2136 12.6562 25.8178 12.6562C25.693 12.6566 25.5686 12.6705 25.4468 12.6979C24.7 12.8599 23.9749 13.234 23.5552 13.3351C23.5048 13.3481 23.453 13.355 23.401 13.3559C23.1772 13.3559 23.0924 13.2564 23.114 12.9871C23.1664 12.171 23.2775 10.578 23.1487 9.08988C22.972 7.04251 22.3117 6.02809 21.5287 5.13092C21.1499 4.69583 19.3911 2.82666 15.9968 2.82666C12.6025 2.82666 10.846 4.69583 10.4695 5.12552C9.68419 6.02269 9.02462 7.03712 8.8495 9.08449C8.72068 10.5726 8.83639 12.1648 8.88422 12.9817C8.89965 13.2379 8.82096 13.3505 8.59725 13.3505C8.54518 13.3496 8.4934 13.3426 8.44296 13.3297C8.02408 13.2286 7.29893 12.8545 6.55219 12.6925C6.43038 12.6651 6.30596 12.6512 6.18113 12.6508C5.78385 12.6508 5.40971 12.8051 5.25542 13.2062C5.03479 13.7894 5.33256 14.2639 6.01451 14.7391C6.42568 15.026 7.90759 15.9425 8.24162 16.2518C8.58722 16.5712 8.54248 16.8181 8.50236 17.132C8.46919 17.3951 7.72322 20.8896 3.04836 23.1492C2.77451 23.2818 2.30857 23.5626 3.13014 24.0162C4.41996 24.729 5.27856 24.6527 5.94585 25.0824C6.51208 25.4472 6.17728 26.2341 6.58922 26.518C7.09528 26.8674 8.59108 26.4933 10.5235 27.1313C12.1435 27.6651 13.1278 29.1732 16.0006 29.1732C18.8734 29.1732 19.8863 27.6582 21.4778 27.1313C23.4063 26.4933 24.9052 26.8674 25.4121 26.518C25.8232 26.2341 25.4892 25.4472 26.0554 25.0824C26.7227 24.6527 27.5805 24.729 28.8711 24.0162C29.6912 23.568 29.2252 23.2872 28.9514 23.1546Z" fill="#000"/>
</svg>
