<svg width="24" height="24" viewBox="0 0 24 24" fill="none" xmlns="http://www.w3.org/2000/svg">
<g clip-path="url(#clip0_1879_1027)">
<path fill-rule="evenodd" clip-rule="evenodd" d="M12 24C18.65 24 24 18.65 24 12C24 5.34996 18.65 0 12 0C5.34996 0 0 5.34996 0 12C0 18.65 5.34996 24 12 24ZM15.2992 13.8999C15.2992 12.1499 14.2492 11.5499 12.1492 11.3C10.6492 11.0999 10.3492 10.7 10.3492 9.9999C10.3492 9.29982 10.8492 8.84994 11.8492 8.84994C12.7492 8.84994 13.2492 9.14994 13.4992 9.89994C13.5492 10.0499 13.6992 10.1499 13.8492 10.1499H14.6491C14.8492 10.1499 14.9992 9.9999 14.9992 9.79998V9.74994C14.7991 8.6499 13.8991 7.79994 12.7492 7.69998V6.49998C12.7492 6.29994 12.5992 6.14994 12.3492 6.0999H11.5992C11.3992 6.0999 11.2492 6.2499 11.1991 6.49998V7.64994C9.69914 7.84998 8.74922 8.84994 8.74922 10.1C8.74922 11.75 9.74918 12.3999 11.8492 12.65C13.2492 12.8999 13.6992 13.1999 13.6992 14C13.6992 14.8 12.9991 15.35 12.0492 15.35C10.7491 15.35 10.2991 14.7999 10.1491 14.0499C10.0992 13.85 9.94922 13.7499 9.79922 13.7499H8.94914C8.74922 13.7499 8.59922 13.8999 8.59922 14.0999V14.15C8.79914 15.3999 9.59918 16.2999 11.2492 16.55V17.75C11.2492 17.9499 11.3992 18.0999 11.6491 18.1499H12.3991C12.5992 18.1499 12.7492 17.9999 12.7992 17.75V16.55C14.2992 16.2999 15.2992 15.2499 15.2992 13.8999ZM5.00102 9.55002C3.55094 13.4001 5.55097 17.7501 9.45097 19.15C9.60098 19.2501 9.75097 19.45 9.75097 19.6V20.3001C9.75097 20.4001 9.75097 20.4501 9.70094 20.5C9.65102 20.7001 9.45098 20.8 9.25094 20.7001C6.45097 19.8001 4.30093 17.65 3.40093 14.8501C1.90093 10.1001 4.50098 5.05002 9.25094 3.55002C9.30097 3.5001 9.40094 3.5001 9.45097 3.5001C9.65102 3.55002 9.75097 3.70002 9.75097 3.90006V4.60002C9.75097 4.8501 9.65102 5.0001 9.45097 5.10006C7.40101 5.85006 5.75102 7.45002 5.00102 9.55002ZM14.301 3.75006C14.3509 3.55002 14.551 3.45006 14.751 3.55002C17.5009 4.45002 19.701 6.60006 20.601 9.45006C22.101 14.2 19.501 19.2501 14.751 20.7501C14.701 20.8 14.601 20.8 14.551 20.8C14.3509 20.7501 14.251 20.6001 14.251 20.4001V19.7001C14.251 19.45 14.3509 19.3 14.551 19.2001C16.6009 18.4501 18.2509 16.8501 19.0009 14.7501C20.451 10.9 18.451 6.55002 14.551 5.1501C14.401 5.05002 14.251 4.8501 14.251 4.65006V3.9501C14.251 3.85002 14.251 3.8001 14.301 3.75006Z" fill="#2775CA"/>
</g>
<defs>
<clipPath id="clip0_1879_1027">
<rect width="24" height="24" fill="white"/>
</clipPath>
</defs>
</svg>
