<svg width="16" height="16" viewBox="0 0 16 16" fill="none" xmlns="http://www.w3.org/2000/svg">
<g clip-path="url(#clip0_4636_7996)">
<path fill-rule="evenodd" clip-rule="evenodd" d="M8 16C12.4334 16 16 12.4334 16 8C16 3.56664 12.4334 0 8 0C3.56664 0 0 3.56664 0 8C0 12.4334 3.56664 16 8 16ZM10.1995 9.2666C10.1995 8.09996 9.49945 7.69996 8.09945 7.53332C7.09945 7.39996 6.89945 7.13332 6.89945 6.6666C6.89945 6.19988 7.23281 5.89996 7.89945 5.89996C8.49945 5.89996 8.83281 6.09996 8.99945 6.59996C9.03281 6.69996 9.13281 6.7666 9.23281 6.7666H9.76609C9.89945 6.7666 9.99945 6.6666 9.99945 6.53332V6.49996C9.86609 5.7666 9.26609 5.19996 8.49945 5.13332V4.33332C8.49945 4.19996 8.39945 4.09996 8.23281 4.0666H7.73281C7.59945 4.0666 7.49945 4.1666 7.46609 4.33332V5.09996C6.46609 5.23332 5.83281 5.89996 5.83281 6.73332C5.83281 7.83332 6.49945 8.2666 7.89945 8.43332C8.83281 8.59996 9.13281 8.79996 9.13281 9.33332C9.13281 9.86668 8.66609 10.2333 8.03281 10.2333C7.16609 10.2333 6.86609 9.8666 6.76609 9.3666C6.73281 9.23332 6.63281 9.1666 6.53281 9.1666H5.96609C5.83281 9.1666 5.73281 9.2666 5.73281 9.39996V9.43332C5.86609 10.2666 6.39945 10.8666 7.49945 11.0333V11.8333C7.49945 11.9666 7.59945 12.0666 7.76609 12.1H8.26609C8.39945 12.1 8.49945 12 8.53281 11.8333V11.0333C9.53281 10.8666 10.1995 10.1666 10.1995 9.2666ZM3.33401 6.36668C2.36729 8.9334 3.70065 11.8334 6.30065 12.7667C6.40065 12.8334 6.50065 12.9667 6.50065 13.0667V13.5334C6.50065 13.6 6.50065 13.6334 6.46729 13.6667C6.43401 13.8 6.30065 13.8667 6.16729 13.8C4.30065 13.2 2.86729 11.7667 2.26729 9.90004C1.26729 6.7334 3.00065 3.36668 6.16729 2.36668C6.20065 2.3334 6.26729 2.3334 6.30065 2.3334C6.43401 2.36668 6.50065 2.46668 6.50065 2.60004V3.06668C6.50065 3.2334 6.43401 3.3334 6.30065 3.40004C4.93401 3.90004 3.83401 4.96668 3.33401 6.36668ZM9.53401 2.50004C9.56729 2.36668 9.70065 2.30004 9.83401 2.36668C11.6673 2.96668 13.134 4.40004 13.734 6.30004C14.734 9.46668 13.0007 12.8334 9.83401 13.8334C9.80065 13.8667 9.73401 13.8667 9.70065 13.8667C9.56729 13.8334 9.50065 13.7334 9.50065 13.6V13.1334C9.50065 12.9667 9.56729 12.8667 9.70065 12.8C11.0673 12.3 12.1673 11.2334 12.6673 9.8334C13.634 7.26668 12.3007 4.36668 9.70065 3.4334C9.60065 3.36668 9.50065 3.2334 9.50065 3.10004V2.6334C9.50065 2.56668 9.50065 2.5334 9.53401 2.50004Z" fill="white"/>
</g>
<defs>
<clipPath id="clip0_4636_7996">
<rect width="16" height="16" fill="white"/>
</clipPath>
</defs>
</svg>
