<?xml version="1.0" encoding="utf-8"?>
<!-- Generator: Adobe Illustrator 24.2.1, SVG Export Plug-In . SVG Version: 6.00 Build 0)  -->
<svg version="1.1" id="Layer_1" xmlns="http://www.w3.org/2000/svg" xmlns:xlink="http://www.w3.org/1999/xlink" x="0px" y="0px"
	 viewBox="0 0 226 226" style="enable-background:new 0 0 226 226;" xml:space="preserve">
<style type="text/css">
	.st0{fill:#B6B3C2;stroke:#FFFFFF;stroke-width:3;}
	.st1{fill:#B6B3C2;}
	.st2{fill:#FFFFFF;filter:url(#Adobe_OpacityMaskFilter);}
	.st3{mask:url(#mask0_1_);}
	.st4{fill-rule:evenodd;clip-rule:evenodd;fill:#FFFFFF;}
	.st5{fill:#FFFFFF;stroke:#B6B3C2;stroke-width:4.2857;}
	.st6{fill-rule:evenodd;clip-rule:evenodd;fill:#C2C0CC;}
	.st7{opacity:0.25;fill:#111111;stroke:#FFFFFF;stroke-width:3;}
</style>
<g>
	<circle class="st0" cx="113" cy="111" r="101.5"/>
	<circle class="st1" cx="113" cy="111" r="95.8"/>
	<defs>
		<filter id="Adobe_OpacityMaskFilter" filterUnits="userSpaceOnUse" x="61.3" y="69.3" width="125.1" height="142">
			<feColorMatrix  type="matrix" values="1 0 0 0 0  0 1 0 0 0  0 0 1 0 0  0 0 0 1 0"/>
		</filter>
	</defs>
	<mask maskUnits="userSpaceOnUse" x="61.3" y="69.3" width="125.1" height="142" id="mask0_1_">
		<circle class="st2" cx="113" cy="111" r="95.8"/>
	</mask>
	<g class="st3">
		<path class="st4" d="M80.1,100.1c0,16.5,14.5,30.8,31.2,30.8c16.7,0,31.2-14.3,31.2-30.8c0-16.5-14.5-30.8-31.2-30.8
			C94.6,69.3,80.1,83.6,80.1,100.1z M73.7,211.3h76.8h0c13.9,0,13.6-12.3,13.4-21.9c0-1.2-0.1-2.3-0.1-3.4
			c0-27.5-23.4-50.6-51.2-50.6c-27.8,0-51.2,23.1-51.2,50.6c0,1.1,0,2.3-0.1,3.6C61.2,199.2,60.9,211.3,73.7,211.3z"/>
		<circle class="st5" cx="162.2" cy="160.2" r="22.1"/>
		<path class="st6" d="M162.2,149.3c-1.4,0-2.5,1.1-2.5,2.5v5.8h-5.8c-1.4,0-2.5,1.1-2.5,2.5c0,1.4,1.1,2.5,2.5,2.5h5.8v5.8
			c0,1.4,1.1,2.5,2.5,2.5c1.4,0,2.5-1.1,2.5-2.5v-5.8h5.8c1.4,0,2.5-1.1,2.5-2.5c0-1.4-1.1-2.5-2.5-2.5h-5.8v-5.8
			C164.7,150.5,163.5,149.3,162.2,149.3z"/>
	</g>
	<circle class="st7" cx="113" cy="111" r="101.5"/>
</g>
</svg>
